G04 (created by PCBNEW (2012-apr-16-27)-stable) date Thu 28 Nov 2013 00:51:46 GMT*
G01*
G70*
G90*
%MOIN*%
G04 Gerber Fmt 3.4, Leading zero omitted, Abs format*
%FSLAX34Y34*%
G04 APERTURE LIST*
%ADD10C,0.001000*%
%ADD11C,0.015000*%
%ADD12C,0.008000*%
G04 APERTURE END LIST*
G54D10*
G54D11*
X23228Y-46850D02*
X23228Y-45276D01*
X59843Y-46850D02*
X23228Y-46850D01*
X59843Y-45669D02*
X59843Y-46850D01*
X59843Y-08661D02*
X59843Y-45669D01*
X23228Y-08661D02*
X59843Y-08661D01*
X23228Y-45276D02*
X23228Y-08661D01*
G54D10*
X44311Y-11177D02*
X45689Y-12555D01*
X45689Y-11177D02*
X44311Y-12555D01*
X42854Y-13638D02*
X42834Y-13833D01*
X42778Y-14020D01*
X42686Y-14193D01*
X42562Y-14345D01*
X42411Y-14470D01*
X42239Y-14563D01*
X42051Y-14621D01*
X41857Y-14641D01*
X41662Y-14624D01*
X41474Y-14568D01*
X41301Y-14478D01*
X41148Y-14355D01*
X41022Y-14205D01*
X40928Y-14033D01*
X40868Y-13846D01*
X40847Y-13652D01*
X40863Y-13457D01*
X40917Y-13269D01*
X41007Y-13095D01*
X41128Y-12941D01*
X41278Y-12814D01*
X41449Y-12718D01*
X41635Y-12658D01*
X41829Y-12635D01*
X42024Y-12650D01*
X42213Y-12702D01*
X42387Y-12791D01*
X42542Y-12911D01*
X42670Y-13060D01*
X42767Y-13230D01*
X42829Y-13416D01*
X42853Y-13610D01*
X42854Y-13638D01*
X49154Y-13638D02*
X49134Y-13833D01*
X49078Y-14020D01*
X48986Y-14193D01*
X48862Y-14345D01*
X48711Y-14470D01*
X48539Y-14563D01*
X48351Y-14621D01*
X48157Y-14641D01*
X47962Y-14624D01*
X47774Y-14568D01*
X47601Y-14478D01*
X47448Y-14355D01*
X47322Y-14205D01*
X47228Y-14033D01*
X47168Y-13846D01*
X47147Y-13652D01*
X47163Y-13457D01*
X47217Y-13269D01*
X47307Y-13095D01*
X47428Y-12941D01*
X47578Y-12814D01*
X47749Y-12718D01*
X47935Y-12658D01*
X48129Y-12635D01*
X48324Y-12650D01*
X48513Y-12702D01*
X48687Y-12791D01*
X48842Y-12911D01*
X48970Y-13060D01*
X49067Y-13230D01*
X49129Y-13416D01*
X49153Y-13610D01*
X49154Y-13638D01*
G54D12*
X23467Y-48205D02*
X23467Y-47405D01*
X23658Y-47405D01*
X23772Y-47443D01*
X23848Y-47519D01*
X23887Y-47595D01*
X23925Y-47748D01*
X23925Y-47862D01*
X23887Y-48014D01*
X23848Y-48091D01*
X23772Y-48167D01*
X23658Y-48205D01*
X23467Y-48205D01*
X24267Y-48205D02*
X24267Y-47671D01*
X24267Y-47824D02*
X24306Y-47748D01*
X24344Y-47710D01*
X24420Y-47671D01*
X24496Y-47671D01*
X24762Y-48205D02*
X24762Y-47671D01*
X24762Y-47405D02*
X24724Y-47443D01*
X24762Y-47481D01*
X24801Y-47443D01*
X24762Y-47405D01*
X24762Y-47481D01*
X25258Y-48205D02*
X25182Y-48167D01*
X25143Y-48091D01*
X25143Y-47405D01*
X25677Y-48205D02*
X25601Y-48167D01*
X25562Y-48091D01*
X25562Y-47405D01*
X26591Y-48205D02*
X26591Y-47405D01*
X26858Y-47976D01*
X27125Y-47405D01*
X27125Y-48205D01*
X27848Y-48205D02*
X27848Y-47786D01*
X27810Y-47710D01*
X27734Y-47671D01*
X27582Y-47671D01*
X27505Y-47710D01*
X27848Y-48167D02*
X27772Y-48205D01*
X27582Y-48205D01*
X27505Y-48167D01*
X27467Y-48091D01*
X27467Y-48014D01*
X27505Y-47938D01*
X27582Y-47900D01*
X27772Y-47900D01*
X27848Y-47862D01*
X28229Y-47671D02*
X28229Y-48471D01*
X28229Y-47710D02*
X28306Y-47671D01*
X28458Y-47671D01*
X28534Y-47710D01*
X28572Y-47748D01*
X28610Y-47824D01*
X28610Y-48052D01*
X28572Y-48129D01*
X28534Y-48167D01*
X28458Y-48205D01*
X28306Y-48205D01*
X28229Y-48167D01*
X28953Y-48129D02*
X28992Y-48167D01*
X28953Y-48205D01*
X28915Y-48167D01*
X28953Y-48129D01*
X28953Y-48205D01*
X28953Y-47710D02*
X28992Y-47748D01*
X28953Y-47786D01*
X28915Y-47748D01*
X28953Y-47710D01*
X28953Y-47786D01*
X21699Y-48872D02*
X23077Y-50250D01*
X23077Y-48872D02*
X21699Y-50250D01*
X23391Y-49085D02*
X23887Y-49085D01*
X23620Y-49390D01*
X23734Y-49390D01*
X23810Y-49428D01*
X23848Y-49466D01*
X23887Y-49542D01*
X23887Y-49732D01*
X23848Y-49809D01*
X23810Y-49847D01*
X23734Y-49885D01*
X23506Y-49885D01*
X23429Y-49847D01*
X23391Y-49809D01*
X24229Y-49809D02*
X24268Y-49847D01*
X24229Y-49885D01*
X24191Y-49847D01*
X24229Y-49809D01*
X24229Y-49885D01*
X24991Y-49085D02*
X24610Y-49085D01*
X24572Y-49466D01*
X24610Y-49428D01*
X24687Y-49390D01*
X24877Y-49390D01*
X24953Y-49428D01*
X24991Y-49466D01*
X25030Y-49542D01*
X25030Y-49732D01*
X24991Y-49809D01*
X24953Y-49847D01*
X24877Y-49885D01*
X24687Y-49885D01*
X24610Y-49847D01*
X24572Y-49809D01*
X25525Y-49085D02*
X25601Y-49085D01*
X25677Y-49123D01*
X25715Y-49161D01*
X25753Y-49237D01*
X25792Y-49390D01*
X25792Y-49580D01*
X25753Y-49732D01*
X25715Y-49809D01*
X25677Y-49847D01*
X25601Y-49885D01*
X25525Y-49885D01*
X25449Y-49847D01*
X25411Y-49809D01*
X25372Y-49732D01*
X25334Y-49580D01*
X25334Y-49390D01*
X25372Y-49237D01*
X25411Y-49161D01*
X25449Y-49123D01*
X25525Y-49085D01*
X26134Y-49885D02*
X26134Y-49351D01*
X26134Y-49428D02*
X26173Y-49390D01*
X26249Y-49351D01*
X26363Y-49351D01*
X26439Y-49390D01*
X26477Y-49466D01*
X26477Y-49885D01*
X26477Y-49466D02*
X26515Y-49390D01*
X26592Y-49351D01*
X26706Y-49351D01*
X26782Y-49390D01*
X26820Y-49466D01*
X26820Y-49885D01*
X27201Y-49885D02*
X27201Y-49351D01*
X27201Y-49428D02*
X27240Y-49390D01*
X27316Y-49351D01*
X27430Y-49351D01*
X27506Y-49390D01*
X27544Y-49466D01*
X27544Y-49885D01*
X27544Y-49466D02*
X27582Y-49390D01*
X27659Y-49351D01*
X27773Y-49351D01*
X27849Y-49390D01*
X27887Y-49466D01*
X27887Y-49885D01*
X29450Y-49047D02*
X28764Y-50075D01*
X30479Y-49085D02*
X30555Y-49085D01*
X30631Y-49123D01*
X30669Y-49161D01*
X30707Y-49237D01*
X30746Y-49390D01*
X30746Y-49580D01*
X30707Y-49732D01*
X30669Y-49809D01*
X30631Y-49847D01*
X30555Y-49885D01*
X30479Y-49885D01*
X30403Y-49847D01*
X30365Y-49809D01*
X30326Y-49732D01*
X30288Y-49580D01*
X30288Y-49390D01*
X30326Y-49237D01*
X30365Y-49161D01*
X30403Y-49123D01*
X30479Y-49085D01*
X31088Y-49809D02*
X31127Y-49847D01*
X31088Y-49885D01*
X31050Y-49847D01*
X31088Y-49809D01*
X31088Y-49885D01*
X31889Y-49885D02*
X31431Y-49885D01*
X31660Y-49885D02*
X31660Y-49085D01*
X31584Y-49199D01*
X31508Y-49275D01*
X31431Y-49313D01*
X32155Y-49085D02*
X32651Y-49085D01*
X32384Y-49390D01*
X32498Y-49390D01*
X32574Y-49428D01*
X32612Y-49466D01*
X32651Y-49542D01*
X32651Y-49732D01*
X32612Y-49809D01*
X32574Y-49847D01*
X32498Y-49885D01*
X32270Y-49885D01*
X32193Y-49847D01*
X32155Y-49809D01*
X33108Y-49428D02*
X33032Y-49390D01*
X32993Y-49351D01*
X32955Y-49275D01*
X32955Y-49237D01*
X32993Y-49161D01*
X33032Y-49123D01*
X33108Y-49085D01*
X33260Y-49085D01*
X33336Y-49123D01*
X33374Y-49161D01*
X33413Y-49237D01*
X33413Y-49275D01*
X33374Y-49351D01*
X33336Y-49390D01*
X33260Y-49428D01*
X33108Y-49428D01*
X33032Y-49466D01*
X32993Y-49504D01*
X32955Y-49580D01*
X32955Y-49732D01*
X32993Y-49809D01*
X33032Y-49847D01*
X33108Y-49885D01*
X33260Y-49885D01*
X33336Y-49847D01*
X33374Y-49809D01*
X33413Y-49732D01*
X33413Y-49580D01*
X33374Y-49504D01*
X33336Y-49466D01*
X33260Y-49428D01*
X33717Y-49085D02*
X33717Y-49237D01*
X34022Y-49085D02*
X34022Y-49237D01*
X35204Y-50190D02*
X35166Y-50151D01*
X35090Y-50037D01*
X35052Y-49961D01*
X35014Y-49847D01*
X34975Y-49656D01*
X34975Y-49504D01*
X35014Y-49313D01*
X35052Y-49199D01*
X35090Y-49123D01*
X35166Y-49009D01*
X35204Y-48971D01*
X35928Y-49885D02*
X35470Y-49885D01*
X35699Y-49885D02*
X35699Y-49085D01*
X35623Y-49199D01*
X35547Y-49275D01*
X35470Y-49313D01*
X36880Y-49885D02*
X36880Y-49085D01*
X37223Y-49885D02*
X37223Y-49466D01*
X37185Y-49390D01*
X37109Y-49351D01*
X36995Y-49351D01*
X36919Y-49390D01*
X36880Y-49428D01*
X37719Y-49885D02*
X37643Y-49847D01*
X37604Y-49809D01*
X37566Y-49732D01*
X37566Y-49504D01*
X37604Y-49428D01*
X37643Y-49390D01*
X37719Y-49351D01*
X37833Y-49351D01*
X37909Y-49390D01*
X37947Y-49428D01*
X37985Y-49504D01*
X37985Y-49732D01*
X37947Y-49809D01*
X37909Y-49847D01*
X37833Y-49885D01*
X37719Y-49885D01*
X38443Y-49885D02*
X38367Y-49847D01*
X38328Y-49771D01*
X38328Y-49085D01*
X39052Y-49847D02*
X38976Y-49885D01*
X38824Y-49885D01*
X38747Y-49847D01*
X38709Y-49771D01*
X38709Y-49466D01*
X38747Y-49390D01*
X38824Y-49351D01*
X38976Y-49351D01*
X39052Y-49390D01*
X39090Y-49466D01*
X39090Y-49542D01*
X38709Y-49618D01*
X39357Y-50190D02*
X39395Y-50151D01*
X39472Y-50037D01*
X39510Y-49961D01*
X39548Y-49847D01*
X39586Y-49656D01*
X39586Y-49504D01*
X39548Y-49313D01*
X39510Y-49199D01*
X39472Y-49123D01*
X39395Y-49009D01*
X39357Y-48971D01*
G54D10*
X23077Y-51219D02*
X23057Y-51414D01*
X23001Y-51601D01*
X22909Y-51774D01*
X22785Y-51926D01*
X22634Y-52051D01*
X22462Y-52144D01*
X22274Y-52202D01*
X22080Y-52222D01*
X21885Y-52205D01*
X21697Y-52149D01*
X21524Y-52059D01*
X21371Y-51936D01*
X21245Y-51786D01*
X21151Y-51614D01*
X21091Y-51427D01*
X21070Y-51233D01*
X21086Y-51038D01*
X21140Y-50850D01*
X21230Y-50676D01*
X21351Y-50522D01*
X21501Y-50395D01*
X21672Y-50299D01*
X21858Y-50239D01*
X22052Y-50216D01*
X22247Y-50231D01*
X22436Y-50283D01*
X22610Y-50372D01*
X22765Y-50492D01*
X22893Y-50641D01*
X22990Y-50811D01*
X23052Y-50997D01*
X23076Y-51191D01*
X23077Y-51219D01*
G54D12*
X23848Y-50743D02*
X23467Y-50743D01*
X23429Y-51124D01*
X23467Y-51086D01*
X23544Y-51048D01*
X23734Y-51048D01*
X23810Y-51086D01*
X23848Y-51124D01*
X23887Y-51200D01*
X23887Y-51390D01*
X23848Y-51467D01*
X23810Y-51505D01*
X23734Y-51543D01*
X23544Y-51543D01*
X23467Y-51505D01*
X23429Y-51467D01*
X24229Y-51467D02*
X24268Y-51505D01*
X24229Y-51543D01*
X24191Y-51505D01*
X24229Y-51467D01*
X24229Y-51543D01*
X25030Y-51543D02*
X24572Y-51543D01*
X24801Y-51543D02*
X24801Y-50743D01*
X24725Y-50857D01*
X24649Y-50933D01*
X24572Y-50971D01*
X25525Y-50743D02*
X25601Y-50743D01*
X25677Y-50781D01*
X25715Y-50819D01*
X25753Y-50895D01*
X25792Y-51048D01*
X25792Y-51238D01*
X25753Y-51390D01*
X25715Y-51467D01*
X25677Y-51505D01*
X25601Y-51543D01*
X25525Y-51543D01*
X25449Y-51505D01*
X25411Y-51467D01*
X25372Y-51390D01*
X25334Y-51238D01*
X25334Y-51048D01*
X25372Y-50895D01*
X25411Y-50819D01*
X25449Y-50781D01*
X25525Y-50743D01*
X26134Y-51543D02*
X26134Y-51009D01*
X26134Y-51086D02*
X26173Y-51048D01*
X26249Y-51009D01*
X26363Y-51009D01*
X26439Y-51048D01*
X26477Y-51124D01*
X26477Y-51543D01*
X26477Y-51124D02*
X26515Y-51048D01*
X26592Y-51009D01*
X26706Y-51009D01*
X26782Y-51048D01*
X26820Y-51124D01*
X26820Y-51543D01*
X27201Y-51543D02*
X27201Y-51009D01*
X27201Y-51086D02*
X27240Y-51048D01*
X27316Y-51009D01*
X27430Y-51009D01*
X27506Y-51048D01*
X27544Y-51124D01*
X27544Y-51543D01*
X27544Y-51124D02*
X27582Y-51048D01*
X27659Y-51009D01*
X27773Y-51009D01*
X27849Y-51048D01*
X27887Y-51124D01*
X27887Y-51543D01*
X29450Y-50705D02*
X28764Y-51733D01*
X30479Y-50743D02*
X30555Y-50743D01*
X30631Y-50781D01*
X30669Y-50819D01*
X30707Y-50895D01*
X30746Y-51048D01*
X30746Y-51238D01*
X30707Y-51390D01*
X30669Y-51467D01*
X30631Y-51505D01*
X30555Y-51543D01*
X30479Y-51543D01*
X30403Y-51505D01*
X30365Y-51467D01*
X30326Y-51390D01*
X30288Y-51238D01*
X30288Y-51048D01*
X30326Y-50895D01*
X30365Y-50819D01*
X30403Y-50781D01*
X30479Y-50743D01*
X31088Y-51467D02*
X31127Y-51505D01*
X31088Y-51543D01*
X31050Y-51505D01*
X31088Y-51467D01*
X31088Y-51543D01*
X31431Y-50819D02*
X31469Y-50781D01*
X31546Y-50743D01*
X31736Y-50743D01*
X31812Y-50781D01*
X31850Y-50819D01*
X31889Y-50895D01*
X31889Y-50971D01*
X31850Y-51086D01*
X31393Y-51543D01*
X31889Y-51543D01*
X32384Y-50743D02*
X32460Y-50743D01*
X32536Y-50781D01*
X32574Y-50819D01*
X32612Y-50895D01*
X32651Y-51048D01*
X32651Y-51238D01*
X32612Y-51390D01*
X32574Y-51467D01*
X32536Y-51505D01*
X32460Y-51543D01*
X32384Y-51543D01*
X32308Y-51505D01*
X32270Y-51467D01*
X32231Y-51390D01*
X32193Y-51238D01*
X32193Y-51048D01*
X32231Y-50895D01*
X32270Y-50819D01*
X32308Y-50781D01*
X32384Y-50743D01*
X33413Y-51543D02*
X32955Y-51543D01*
X33184Y-51543D02*
X33184Y-50743D01*
X33108Y-50857D01*
X33032Y-50933D01*
X32955Y-50971D01*
X33717Y-50743D02*
X33717Y-50895D01*
X34022Y-50743D02*
X34022Y-50895D01*
X35204Y-51848D02*
X35166Y-51809D01*
X35090Y-51695D01*
X35052Y-51619D01*
X35014Y-51505D01*
X34975Y-51314D01*
X34975Y-51162D01*
X35014Y-50971D01*
X35052Y-50857D01*
X35090Y-50781D01*
X35166Y-50667D01*
X35204Y-50629D01*
X35470Y-50819D02*
X35508Y-50781D01*
X35585Y-50743D01*
X35775Y-50743D01*
X35851Y-50781D01*
X35889Y-50819D01*
X35928Y-50895D01*
X35928Y-50971D01*
X35889Y-51086D01*
X35432Y-51543D01*
X35928Y-51543D01*
X36880Y-51543D02*
X36880Y-50743D01*
X37223Y-51543D02*
X37223Y-51124D01*
X37185Y-51048D01*
X37109Y-51009D01*
X36995Y-51009D01*
X36919Y-51048D01*
X36880Y-51086D01*
X37719Y-51543D02*
X37643Y-51505D01*
X37604Y-51467D01*
X37566Y-51390D01*
X37566Y-51162D01*
X37604Y-51086D01*
X37643Y-51048D01*
X37719Y-51009D01*
X37833Y-51009D01*
X37909Y-51048D01*
X37947Y-51086D01*
X37985Y-51162D01*
X37985Y-51390D01*
X37947Y-51467D01*
X37909Y-51505D01*
X37833Y-51543D01*
X37719Y-51543D01*
X38443Y-51543D02*
X38367Y-51505D01*
X38328Y-51429D01*
X38328Y-50743D01*
X39052Y-51505D02*
X38976Y-51543D01*
X38824Y-51543D01*
X38747Y-51505D01*
X38709Y-51429D01*
X38709Y-51124D01*
X38747Y-51048D01*
X38824Y-51009D01*
X38976Y-51009D01*
X39052Y-51048D01*
X39090Y-51124D01*
X39090Y-51200D01*
X38709Y-51276D01*
X39395Y-51505D02*
X39472Y-51543D01*
X39624Y-51543D01*
X39700Y-51505D01*
X39738Y-51429D01*
X39738Y-51390D01*
X39700Y-51314D01*
X39624Y-51276D01*
X39510Y-51276D01*
X39433Y-51238D01*
X39395Y-51162D01*
X39395Y-51124D01*
X39433Y-51048D01*
X39510Y-51009D01*
X39624Y-51009D01*
X39700Y-51048D01*
X40005Y-51848D02*
X40043Y-51809D01*
X40120Y-51695D01*
X40158Y-51619D01*
X40196Y-51505D01*
X40234Y-51314D01*
X40234Y-51162D01*
X40196Y-50971D01*
X40158Y-50857D01*
X40120Y-50781D01*
X40043Y-50667D01*
X40005Y-50629D01*
M02*
