G04 (created by PCBNEW-RS274X (2012-apr-16-27)-stable) date Mon 09 Dec 2013 22:44:26 GMT*
G01*
G70*
G90*
%MOIN*%
G04 Gerber Fmt 3.4, Leading zero omitted, Abs format*
%FSLAX34Y34*%
G04 APERTURE LIST*
%ADD10C,0.006000*%
%ADD11C,0.015000*%
%ADD12C,0.055000*%
%ADD13R,0.060000X0.060000*%
%ADD14C,0.060000*%
%ADD15C,0.066000*%
%ADD16R,0.062000X0.090000*%
%ADD17O,0.062000X0.090000*%
%ADD18R,0.055000X0.055000*%
%ADD19R,0.090000X0.062000*%
%ADD20O,0.090000X0.062000*%
%ADD21C,0.150000*%
%ADD22C,0.070000*%
%ADD23O,0.118100X0.059100*%
%ADD24R,0.100000X0.100000*%
%ADD25C,0.100000*%
%ADD26C,0.160000*%
%ADD27R,0.070000X0.070000*%
%ADD28C,0.035000*%
%ADD29C,0.039400*%
%ADD30C,0.039400*%
%ADD31C,0.009800*%
%ADD32C,0.010000*%
G04 APERTURE END LIST*
G54D10*
G54D11*
X60827Y-05906D02*
X22638Y-05906D01*
X60827Y-49213D02*
X60827Y-05906D01*
X22638Y-49213D02*
X60827Y-49213D01*
X22638Y-05906D02*
X22638Y-49213D01*
G54D12*
X36295Y-13386D03*
X39295Y-13386D03*
X36295Y-14961D03*
X39295Y-14961D03*
G54D13*
X45350Y-32283D03*
G54D14*
X46350Y-32283D03*
X47350Y-32283D03*
X48350Y-32283D03*
G54D13*
X51839Y-43043D03*
G54D14*
X51839Y-44043D03*
X50839Y-43043D03*
X50839Y-44043D03*
G54D13*
X36500Y-11000D03*
G54D14*
X37500Y-11000D03*
G54D13*
X24016Y-45382D03*
G54D14*
X24016Y-44382D03*
G54D13*
X25590Y-45382D03*
G54D14*
X25590Y-44382D03*
G54D13*
X27165Y-45382D03*
G54D14*
X27165Y-44382D03*
G54D13*
X36508Y-17323D03*
G54D14*
X37508Y-17323D03*
G54D15*
X26800Y-09200D03*
X26800Y-10200D03*
X29200Y-09300D03*
X29200Y-10300D03*
G54D16*
X34177Y-43382D03*
G54D17*
X33177Y-43382D03*
X32177Y-43382D03*
X31177Y-43382D03*
X31177Y-46382D03*
X32177Y-46382D03*
X33177Y-46382D03*
X34177Y-46382D03*
G54D18*
X27398Y-39847D03*
G54D12*
X28398Y-39847D03*
X29398Y-39847D03*
X30398Y-39847D03*
X30398Y-36847D03*
X29398Y-36847D03*
X28398Y-36847D03*
X27398Y-36847D03*
G54D18*
X40634Y-36847D03*
G54D12*
X39634Y-36847D03*
X38634Y-36847D03*
X37634Y-36847D03*
X37634Y-39847D03*
X38634Y-39847D03*
X39634Y-39847D03*
X40634Y-39847D03*
G54D18*
X35516Y-36847D03*
G54D12*
X34516Y-36847D03*
X33516Y-36847D03*
X32516Y-36847D03*
X32516Y-39847D03*
X33516Y-39847D03*
X34516Y-39847D03*
X35516Y-39847D03*
G54D19*
X54996Y-23059D03*
G54D20*
X54996Y-24059D03*
X54996Y-25059D03*
X54996Y-26059D03*
X54996Y-27059D03*
X54996Y-28059D03*
X54996Y-29059D03*
X54996Y-30059D03*
X54996Y-31059D03*
X54996Y-32059D03*
X57996Y-32059D03*
X57996Y-31059D03*
X57996Y-30059D03*
X57996Y-29059D03*
X57996Y-28059D03*
X57996Y-27059D03*
X57996Y-26059D03*
X57996Y-25059D03*
X57996Y-24059D03*
X57996Y-23059D03*
G54D21*
X54000Y-20050D03*
X54000Y-10050D03*
G54D13*
X53000Y-12850D03*
G54D14*
X53000Y-13950D03*
X53000Y-15000D03*
X53000Y-16100D03*
X53000Y-17200D03*
X54000Y-13400D03*
X54000Y-14500D03*
X54000Y-15550D03*
X54000Y-16650D03*
G54D12*
X51969Y-24591D03*
X51969Y-26591D03*
X53543Y-27469D03*
X53543Y-26469D03*
X53543Y-23713D03*
X53543Y-24713D03*
X47390Y-45550D03*
X47390Y-44550D03*
X45100Y-45550D03*
X45100Y-44550D03*
G54D22*
X25496Y-18941D03*
X26496Y-18941D03*
X27496Y-18941D03*
X28496Y-18941D03*
X29496Y-18941D03*
X30496Y-18941D03*
X31496Y-18941D03*
X32496Y-18941D03*
X32496Y-15941D03*
X31496Y-15941D03*
X30496Y-15941D03*
X29496Y-15941D03*
X28496Y-15941D03*
X27496Y-15941D03*
X26496Y-15941D03*
X25496Y-15941D03*
G54D14*
X47953Y-11276D03*
X47953Y-16000D03*
X42047Y-11276D03*
X42047Y-16000D03*
X44311Y-13638D03*
X45689Y-13638D03*
X41850Y-13638D03*
X48150Y-13638D03*
X45000Y-11866D03*
X30039Y-28693D03*
X31039Y-28693D03*
X32039Y-28693D03*
X33039Y-28693D03*
X34039Y-28693D03*
X35039Y-28693D03*
X36039Y-28693D03*
X37039Y-28693D03*
X38039Y-28693D03*
X39039Y-28693D03*
X40039Y-28693D03*
X41039Y-28693D03*
X42039Y-28693D03*
X43039Y-28693D03*
X44039Y-28693D03*
X45039Y-28693D03*
X46039Y-28693D03*
X47039Y-28693D03*
X48039Y-28693D03*
X49039Y-28693D03*
X49039Y-22693D03*
X48039Y-22693D03*
X47039Y-22693D03*
X46039Y-22693D03*
X45039Y-22693D03*
X44039Y-22693D03*
X43039Y-22693D03*
X42039Y-22693D03*
X41039Y-22693D03*
X40039Y-22693D03*
X39039Y-22693D03*
X38039Y-22693D03*
X37039Y-22693D03*
X36039Y-22693D03*
X35039Y-22693D03*
X34039Y-22693D03*
X33039Y-22693D03*
X32039Y-22693D03*
X31039Y-22693D03*
X30039Y-22693D03*
G54D13*
X45429Y-34331D03*
G54D14*
X46429Y-34331D03*
X47429Y-34331D03*
X48429Y-34331D03*
G54D15*
X31496Y-09343D03*
X31496Y-10343D03*
G54D12*
X38386Y-31980D03*
X38386Y-32980D03*
X41142Y-31980D03*
X41142Y-32980D03*
X39764Y-31980D03*
X39764Y-32980D03*
X29134Y-41115D03*
X29134Y-42115D03*
X38583Y-41115D03*
X38583Y-42115D03*
X33465Y-41115D03*
X33465Y-42115D03*
X29200Y-12500D03*
X29200Y-13500D03*
X31496Y-12492D03*
X31496Y-13492D03*
X51181Y-16461D03*
X51181Y-13461D03*
X26800Y-12500D03*
X26800Y-13500D03*
G54D23*
X45719Y-37484D03*
X45719Y-38484D03*
X45719Y-39484D03*
X45719Y-40484D03*
G54D12*
X24400Y-12500D03*
X24400Y-13500D03*
G54D13*
X56114Y-45827D03*
G54D14*
X57114Y-45827D03*
G54D15*
X24400Y-09200D03*
X24400Y-10200D03*
G54D13*
X34449Y-20276D03*
X35827Y-32086D03*
X42520Y-32087D03*
X36811Y-32086D03*
G54D19*
X55035Y-34791D03*
G54D20*
X55035Y-35791D03*
X55035Y-36791D03*
X55035Y-37791D03*
X55035Y-38791D03*
X55035Y-39791D03*
X55035Y-40791D03*
X55035Y-41791D03*
X55035Y-42791D03*
X55035Y-43791D03*
X58035Y-43791D03*
X58035Y-42791D03*
X58035Y-41791D03*
X58035Y-40791D03*
X58035Y-39791D03*
X58035Y-38791D03*
X58035Y-37791D03*
X58035Y-36791D03*
X58035Y-35791D03*
X58035Y-34791D03*
G54D24*
X41370Y-46850D03*
G54D25*
X39370Y-46850D03*
X37370Y-46850D03*
G54D24*
X50890Y-46772D03*
G54D25*
X52890Y-46772D03*
G54D26*
X25600Y-07244D03*
X57200Y-07244D03*
X56800Y-47900D03*
X25600Y-47800D03*
G54D22*
X45250Y-47550D03*
G54D27*
X46250Y-47550D03*
G54D22*
X47250Y-47550D03*
G54D18*
X49880Y-38976D03*
G54D12*
X51380Y-38976D03*
G54D18*
X59685Y-43791D03*
G54D12*
X59685Y-42791D03*
X59685Y-41791D03*
X59685Y-40791D03*
X59685Y-39791D03*
X59685Y-38791D03*
X59685Y-37791D03*
X59685Y-36791D03*
X59685Y-35791D03*
X59685Y-34791D03*
G54D18*
X53386Y-34791D03*
G54D12*
X53386Y-35791D03*
X53386Y-36791D03*
X53386Y-37791D03*
X53386Y-38791D03*
X53386Y-39791D03*
X53386Y-40791D03*
X53386Y-41791D03*
X53386Y-42791D03*
X53386Y-43791D03*
X33858Y-48335D03*
X33858Y-47335D03*
X32087Y-48335D03*
X32087Y-47335D03*
X30315Y-48335D03*
X30315Y-47335D03*
G54D28*
X28206Y-25653D03*
X43012Y-29658D03*
X44624Y-31225D03*
X25476Y-21773D03*
G54D29*
X28706Y-31410D03*
G54D28*
X28627Y-31410D03*
X50238Y-24186D03*
X49472Y-23375D03*
X42768Y-30480D03*
G54D30*
X39634Y-36847D02*
X39058Y-37423D01*
X34516Y-36847D02*
X34516Y-37423D01*
X27974Y-37423D02*
X27398Y-36847D01*
X34516Y-37423D02*
X27974Y-37423D01*
X41271Y-38484D02*
X39634Y-36847D01*
X45719Y-38484D02*
X41271Y-38484D01*
X39058Y-37423D02*
X34516Y-37423D01*
X53386Y-34791D02*
X55035Y-34791D01*
X53386Y-43791D02*
X55035Y-43791D01*
X59685Y-43791D02*
X58035Y-43791D01*
X59685Y-42791D02*
X58035Y-42791D01*
X59685Y-41791D02*
X58035Y-41791D01*
X59685Y-40791D02*
X58035Y-40791D01*
X59685Y-39791D02*
X58035Y-39791D01*
X59685Y-38791D02*
X58035Y-38791D01*
X59685Y-37791D02*
X58035Y-37791D01*
X59685Y-36791D02*
X58035Y-36791D01*
X59685Y-35791D02*
X58035Y-35791D01*
X53386Y-35791D02*
X55035Y-35791D01*
X59685Y-34791D02*
X58035Y-34791D01*
X53386Y-36791D02*
X55035Y-36791D01*
X53386Y-37791D02*
X55035Y-37791D01*
X53386Y-38791D02*
X55035Y-38791D01*
X53386Y-39791D02*
X55035Y-39791D01*
X53386Y-40791D02*
X55035Y-40791D01*
X53386Y-41791D02*
X55035Y-41791D01*
X53386Y-42791D02*
X55035Y-42791D01*
X34449Y-20276D02*
X37622Y-20276D01*
X37622Y-20276D02*
X40039Y-22693D01*
X26064Y-14202D02*
X26064Y-12337D01*
X28206Y-25653D02*
X28206Y-23798D01*
X28206Y-23798D02*
X24285Y-19877D01*
X24285Y-19877D02*
X24285Y-15981D01*
X24285Y-15981D02*
X26064Y-14202D01*
X26064Y-12337D02*
X29101Y-09300D01*
X29101Y-09300D02*
X29200Y-09300D01*
X41004Y-29658D02*
X40634Y-29288D01*
X43012Y-29658D02*
X41004Y-29658D01*
X40124Y-29798D02*
X33268Y-29798D01*
X33268Y-29798D02*
X26313Y-36753D01*
X26313Y-36753D02*
X26313Y-44659D01*
X26313Y-44659D02*
X25590Y-45382D01*
X40634Y-29288D02*
X40039Y-28693D01*
X40634Y-29288D02*
X40124Y-29798D01*
X43567Y-29221D02*
X43039Y-28693D01*
X43567Y-32469D02*
X43567Y-29221D01*
X45429Y-34331D02*
X43567Y-32469D01*
X45039Y-28693D02*
X44624Y-29108D01*
X44624Y-29108D02*
X44624Y-31225D01*
X25031Y-10022D02*
X26920Y-08133D01*
X25476Y-21773D02*
X23581Y-19878D01*
X23581Y-19878D02*
X23581Y-12031D01*
X23581Y-12031D02*
X25031Y-10581D01*
X25031Y-10581D02*
X25031Y-10022D01*
X26920Y-08133D02*
X29273Y-08133D01*
X29273Y-08133D02*
X30339Y-09199D01*
X30339Y-09199D02*
X30339Y-10103D01*
X30339Y-10103D02*
X31236Y-11000D01*
X31236Y-11000D02*
X36500Y-11000D01*
X33039Y-28693D02*
X30243Y-31410D01*
X28706Y-31410D02*
X28627Y-31410D01*
X36508Y-17323D02*
X36508Y-16629D01*
X36295Y-16416D02*
X36295Y-14961D01*
X36508Y-16629D02*
X36295Y-16416D01*
X30322Y-31410D02*
X30243Y-31410D01*
X33039Y-28693D02*
X30322Y-31410D01*
X30243Y-31410D02*
X28706Y-31410D01*
X30243Y-31410D02*
X28706Y-31410D01*
X36885Y-47335D02*
X33858Y-47335D01*
X37370Y-46850D02*
X36885Y-47335D01*
X32177Y-46382D02*
X32177Y-46012D01*
X32177Y-46012D02*
X32835Y-45354D01*
X32835Y-45354D02*
X37874Y-45354D01*
X37874Y-45354D02*
X39370Y-46850D01*
X58569Y-32831D02*
X53562Y-32831D01*
X49880Y-36513D02*
X49880Y-38976D01*
X53562Y-32831D02*
X49880Y-36513D01*
X31496Y-09343D02*
X37039Y-09343D01*
X49880Y-38976D02*
X49880Y-41246D01*
X49880Y-41246D02*
X45643Y-45483D01*
X38103Y-10407D02*
X38103Y-11472D01*
X59284Y-32116D02*
X58569Y-32831D01*
X59284Y-17352D02*
X59284Y-32116D01*
X52339Y-10407D02*
X59284Y-17352D01*
X38103Y-10407D02*
X52339Y-10407D01*
X45167Y-45483D02*
X45100Y-45550D01*
X45643Y-45483D02*
X45167Y-45483D01*
X24822Y-19222D02*
X28293Y-22693D01*
X28293Y-22693D02*
X30039Y-22693D01*
X37039Y-09343D02*
X38103Y-10407D01*
X24822Y-18035D02*
X24822Y-19222D01*
X26265Y-16592D02*
X24822Y-18035D01*
X33065Y-16592D02*
X26265Y-16592D01*
X33179Y-16478D02*
X33065Y-16592D01*
X33179Y-15501D02*
X33179Y-16478D01*
X47250Y-47550D02*
X47250Y-47090D01*
X47250Y-47090D02*
X45643Y-45483D01*
X38103Y-11472D02*
X37364Y-12211D01*
X37364Y-12211D02*
X36469Y-12211D01*
X36469Y-12211D02*
X33179Y-15501D01*
X41546Y-24186D02*
X50238Y-24186D01*
X37039Y-28693D02*
X41546Y-24186D01*
G54D31*
X54996Y-30597D02*
X54996Y-31059D01*
X55458Y-30597D02*
X54996Y-30597D01*
X57533Y-28522D02*
X55458Y-30597D01*
X58590Y-28522D02*
X57533Y-28522D01*
X58617Y-28495D02*
X58590Y-28522D01*
X58617Y-22817D02*
X58617Y-28495D01*
X53000Y-17200D02*
X58617Y-22817D01*
G54D30*
X36685Y-33678D02*
X33516Y-36847D01*
X39066Y-33678D02*
X36685Y-33678D01*
X39764Y-32980D02*
X39066Y-33678D01*
X47861Y-46021D02*
X47390Y-45550D01*
X47861Y-46021D02*
X50839Y-43043D01*
X47900Y-46060D02*
X47861Y-46021D01*
X47900Y-48108D02*
X47900Y-46060D01*
X47786Y-48222D02*
X47900Y-48108D01*
X45384Y-48222D02*
X47786Y-48222D01*
X45250Y-48088D02*
X45384Y-48222D01*
X45250Y-47550D02*
X45250Y-48088D01*
X46429Y-34221D02*
X45916Y-33708D01*
X46429Y-34331D02*
X46429Y-34221D01*
X45916Y-33708D02*
X45739Y-33708D01*
X44064Y-32033D02*
X44064Y-28718D01*
X44064Y-28718D02*
X44039Y-28693D01*
X45739Y-33708D02*
X44064Y-32033D01*
X49076Y-33684D02*
X48429Y-34331D01*
X49076Y-31730D02*
X49076Y-33684D01*
X46039Y-28693D02*
X49076Y-31730D01*
X33039Y-22693D02*
X29993Y-19647D01*
X29993Y-19647D02*
X28202Y-19647D01*
X28202Y-19647D02*
X27496Y-18941D01*
X51141Y-24591D02*
X51969Y-24591D01*
X47039Y-28693D02*
X51141Y-24591D01*
X52847Y-23713D02*
X51969Y-24591D01*
X53543Y-23713D02*
X52847Y-23713D01*
G54D31*
X42958Y-21774D02*
X42039Y-22693D01*
X55115Y-21774D02*
X42958Y-21774D01*
X56501Y-23160D02*
X55115Y-21774D01*
X56501Y-24427D02*
X56501Y-23160D01*
X57671Y-25597D02*
X56501Y-24427D01*
X57996Y-25597D02*
X57671Y-25597D01*
X57996Y-26059D02*
X57996Y-25597D01*
X57996Y-27597D02*
X57996Y-28059D01*
X55092Y-22036D02*
X55599Y-22543D01*
X43696Y-22036D02*
X55092Y-22036D01*
X43039Y-22693D02*
X43696Y-22036D01*
X55599Y-25533D02*
X57663Y-27597D01*
X57663Y-27597D02*
X57996Y-27597D01*
X55599Y-22543D02*
X55599Y-25533D01*
X53630Y-22693D02*
X49039Y-22693D01*
X54534Y-23597D02*
X53630Y-22693D01*
X54996Y-23597D02*
X54534Y-23597D01*
X54996Y-24059D02*
X54996Y-23597D01*
G54D30*
X47931Y-15273D02*
X49369Y-15273D01*
X49369Y-15273D02*
X51181Y-13461D01*
X46296Y-13638D02*
X47931Y-15273D01*
X45689Y-13638D02*
X46296Y-13638D01*
X49304Y-23543D02*
X49472Y-23375D01*
X39189Y-23543D02*
X49304Y-23543D01*
X34039Y-28693D02*
X39189Y-23543D01*
X28444Y-20889D02*
X26496Y-18941D01*
X30235Y-20889D02*
X28444Y-20889D01*
X32039Y-22693D02*
X30235Y-20889D01*
X33295Y-21949D02*
X33295Y-18455D01*
X34039Y-22693D02*
X33295Y-21949D01*
X33295Y-18455D02*
X33130Y-18290D01*
X33130Y-18290D02*
X29147Y-18290D01*
X29147Y-18290D02*
X28496Y-18941D01*
X50141Y-26591D02*
X48039Y-28693D01*
X51969Y-26591D02*
X50141Y-26591D01*
X49039Y-28693D02*
X51319Y-28693D01*
X51319Y-28693D02*
X53543Y-26469D01*
X51839Y-42349D02*
X51839Y-43043D01*
X51638Y-42349D02*
X51839Y-42349D01*
X51380Y-42091D02*
X51638Y-42349D01*
X49849Y-42091D02*
X51380Y-42091D01*
X47390Y-44550D02*
X49849Y-42091D01*
X51380Y-38976D02*
X51380Y-42091D01*
X53543Y-24713D02*
X53543Y-26469D01*
X24134Y-44382D02*
X24016Y-44382D01*
X24647Y-44895D02*
X24134Y-44382D01*
X24647Y-45527D02*
X24647Y-44895D01*
X25103Y-45983D02*
X24647Y-45527D01*
X45100Y-44550D02*
X44851Y-44799D01*
X44851Y-44799D02*
X30923Y-44799D01*
X30923Y-44799D02*
X29739Y-45983D01*
X29739Y-45983D02*
X25103Y-45983D01*
G54D31*
X54996Y-22597D02*
X54996Y-23059D01*
X54637Y-22238D02*
X54996Y-22597D01*
X44595Y-22238D02*
X54637Y-22238D01*
X44512Y-22321D02*
X44595Y-22238D01*
X44512Y-23139D02*
X44512Y-22321D01*
X44485Y-23166D02*
X44512Y-23139D01*
X41512Y-23166D02*
X44485Y-23166D01*
X41039Y-22693D02*
X41512Y-23166D01*
X57996Y-30597D02*
X57996Y-31059D01*
X58329Y-30597D02*
X57996Y-30597D01*
X58819Y-30107D02*
X58329Y-30597D01*
X58819Y-18219D02*
X58819Y-30107D01*
X54000Y-13400D02*
X58819Y-18219D01*
G54D30*
X23392Y-44758D02*
X24016Y-45382D01*
X23392Y-33717D02*
X23392Y-44758D01*
X30436Y-26673D02*
X23392Y-33717D01*
X35059Y-26673D02*
X30436Y-26673D01*
X39039Y-22693D02*
X35059Y-26673D01*
X37634Y-39847D02*
X37058Y-39271D01*
X33092Y-39271D02*
X32516Y-39847D01*
X37058Y-39271D02*
X33092Y-39271D01*
X29090Y-40539D02*
X28398Y-39847D01*
X35516Y-39847D02*
X34248Y-41115D01*
X34248Y-41115D02*
X33465Y-41115D01*
X38583Y-41115D02*
X36784Y-41115D01*
X36784Y-41115D02*
X35516Y-39847D01*
X40634Y-39847D02*
X39366Y-41115D01*
X39366Y-41115D02*
X38583Y-41115D01*
X33465Y-41115D02*
X32889Y-40539D01*
X32889Y-40539D02*
X29090Y-40539D01*
X45719Y-40484D02*
X41271Y-40484D01*
X41271Y-40484D02*
X40634Y-39847D01*
X38386Y-31980D02*
X38386Y-31556D01*
X39630Y-29284D02*
X39039Y-28693D01*
X42964Y-30312D02*
X43070Y-30418D01*
X42600Y-30312D02*
X42964Y-30312D01*
X38386Y-31556D02*
X39630Y-30312D01*
X39630Y-30312D02*
X42600Y-30312D01*
X29398Y-36847D02*
X33204Y-33041D01*
X33204Y-33041D02*
X37325Y-33041D01*
X37325Y-33041D02*
X38386Y-31980D01*
X42600Y-30312D02*
X42768Y-30480D01*
X33177Y-43382D02*
X33177Y-43804D01*
X33506Y-44133D02*
X33177Y-43804D01*
X36565Y-44133D02*
X33506Y-44133D01*
X38583Y-42115D02*
X36565Y-44133D01*
X33177Y-43804D02*
X32881Y-43508D01*
X32881Y-43508D02*
X32881Y-43382D01*
X32881Y-43382D02*
X32177Y-43382D01*
X33465Y-42115D02*
X31600Y-42115D01*
X31600Y-42115D02*
X31177Y-42538D01*
X31177Y-42538D02*
X31177Y-43382D01*
X49087Y-17134D02*
X47953Y-16000D01*
G54D31*
X51181Y-16461D02*
X51854Y-17134D01*
G54D30*
X39295Y-14961D02*
X46914Y-14961D01*
X51854Y-17134D02*
X49087Y-17134D01*
X46914Y-14961D02*
X47953Y-16000D01*
G54D31*
X51854Y-17134D02*
X52527Y-17807D01*
X52527Y-17807D02*
X53206Y-17807D01*
X53206Y-17807D02*
X57996Y-22597D01*
X57996Y-22597D02*
X57996Y-23059D01*
G54D10*
G36*
X27041Y-10727D02*
X25748Y-12021D01*
X25651Y-12166D01*
X25617Y-12337D01*
X25617Y-14017D01*
X24919Y-14715D01*
X24919Y-13574D01*
X24908Y-13370D01*
X24852Y-13233D01*
X24761Y-13210D01*
X24471Y-13500D01*
X24761Y-13790D01*
X24852Y-13767D01*
X24919Y-13574D01*
X24919Y-14715D01*
X24690Y-14944D01*
X24028Y-15606D01*
X24028Y-13883D01*
X24093Y-13948D01*
X24124Y-13916D01*
X24133Y-13952D01*
X24326Y-14019D01*
X24530Y-14008D01*
X24667Y-13952D01*
X24690Y-13861D01*
X24435Y-13606D01*
X24400Y-13571D01*
X24329Y-13500D01*
X24400Y-13429D01*
X24435Y-13394D01*
X24690Y-13139D01*
X24667Y-13048D01*
X24548Y-13006D01*
X24697Y-12945D01*
X24845Y-12798D01*
X24925Y-12605D01*
X24925Y-12396D01*
X24845Y-12203D01*
X24698Y-12055D01*
X24505Y-11975D01*
X24296Y-11975D01*
X24250Y-11993D01*
X25347Y-10898D01*
X25347Y-10897D01*
X25444Y-10753D01*
X25444Y-10752D01*
X25449Y-10724D01*
X25477Y-10581D01*
X25478Y-10581D01*
X25478Y-10207D01*
X26263Y-09421D01*
X26308Y-09528D01*
X26471Y-09691D01*
X26491Y-09699D01*
X26472Y-09708D01*
X26309Y-09871D01*
X26220Y-10084D01*
X26220Y-10315D01*
X26308Y-10528D01*
X26471Y-10691D01*
X26684Y-10780D01*
X26915Y-10780D01*
X27041Y-10727D01*
X27041Y-10727D01*
G37*
G54D32*
X27041Y-10727D02*
X25748Y-12021D01*
X25651Y-12166D01*
X25617Y-12337D01*
X25617Y-14017D01*
X24919Y-14715D01*
X24919Y-13574D01*
X24908Y-13370D01*
X24852Y-13233D01*
X24761Y-13210D01*
X24471Y-13500D01*
X24761Y-13790D01*
X24852Y-13767D01*
X24919Y-13574D01*
X24919Y-14715D01*
X24690Y-14944D01*
X24028Y-15606D01*
X24028Y-13883D01*
X24093Y-13948D01*
X24124Y-13916D01*
X24133Y-13952D01*
X24326Y-14019D01*
X24530Y-14008D01*
X24667Y-13952D01*
X24690Y-13861D01*
X24435Y-13606D01*
X24400Y-13571D01*
X24329Y-13500D01*
X24400Y-13429D01*
X24435Y-13394D01*
X24690Y-13139D01*
X24667Y-13048D01*
X24548Y-13006D01*
X24697Y-12945D01*
X24845Y-12798D01*
X24925Y-12605D01*
X24925Y-12396D01*
X24845Y-12203D01*
X24698Y-12055D01*
X24505Y-11975D01*
X24296Y-11975D01*
X24250Y-11993D01*
X25347Y-10898D01*
X25347Y-10897D01*
X25444Y-10753D01*
X25444Y-10752D01*
X25449Y-10724D01*
X25477Y-10581D01*
X25478Y-10581D01*
X25478Y-10207D01*
X26263Y-09421D01*
X26308Y-09528D01*
X26471Y-09691D01*
X26491Y-09699D01*
X26472Y-09708D01*
X26309Y-09871D01*
X26220Y-10084D01*
X26220Y-10315D01*
X26308Y-10528D01*
X26471Y-10691D01*
X26684Y-10780D01*
X26915Y-10780D01*
X27041Y-10727D01*
G54D10*
G36*
X37571Y-11000D02*
X37500Y-11071D01*
X37192Y-11378D01*
X37219Y-11472D01*
X37405Y-11537D01*
X37179Y-11764D01*
X36469Y-11764D01*
X36298Y-11798D01*
X36249Y-11830D01*
X36152Y-11895D01*
X32863Y-15185D01*
X32766Y-15330D01*
X32750Y-15407D01*
X32587Y-15348D01*
X32352Y-15359D01*
X32186Y-15428D01*
X32153Y-15527D01*
X32461Y-15835D01*
X32496Y-15870D01*
X32567Y-15941D01*
X32496Y-16012D01*
X32425Y-15941D01*
X32390Y-15906D01*
X32082Y-15598D01*
X32021Y-15617D01*
X32021Y-12597D01*
X32021Y-12388D01*
X31941Y-12195D01*
X31794Y-12047D01*
X31601Y-11967D01*
X31392Y-11967D01*
X31199Y-12047D01*
X31051Y-12194D01*
X30971Y-12387D01*
X30971Y-12596D01*
X31051Y-12789D01*
X31198Y-12937D01*
X31338Y-12995D01*
X31229Y-13040D01*
X31206Y-13131D01*
X31496Y-13421D01*
X31786Y-13131D01*
X31763Y-13040D01*
X31644Y-12998D01*
X31793Y-12937D01*
X31941Y-12790D01*
X32021Y-12597D01*
X32021Y-15617D01*
X32015Y-15619D01*
X32015Y-13566D01*
X32004Y-13362D01*
X31948Y-13225D01*
X31857Y-13202D01*
X31567Y-13492D01*
X31857Y-13782D01*
X31948Y-13759D01*
X32015Y-13566D01*
X32015Y-15619D01*
X31996Y-15626D01*
X31910Y-15598D01*
X31839Y-15669D01*
X31839Y-15527D01*
X31806Y-15428D01*
X31786Y-15420D01*
X31786Y-13853D01*
X31496Y-13563D01*
X31425Y-13634D01*
X31425Y-13492D01*
X31135Y-13202D01*
X31044Y-13225D01*
X30977Y-13418D01*
X30988Y-13622D01*
X31044Y-13759D01*
X31135Y-13782D01*
X31425Y-13492D01*
X31425Y-13634D01*
X31206Y-13853D01*
X31229Y-13944D01*
X31422Y-14011D01*
X31626Y-14000D01*
X31763Y-13944D01*
X31786Y-13853D01*
X31786Y-15420D01*
X31587Y-15348D01*
X31352Y-15359D01*
X31186Y-15428D01*
X31153Y-15527D01*
X31496Y-15870D01*
X31839Y-15527D01*
X31839Y-15669D01*
X31602Y-15906D01*
X31567Y-15941D01*
X31496Y-16012D01*
X31425Y-15941D01*
X31390Y-15906D01*
X31082Y-15598D01*
X30996Y-15626D01*
X30910Y-15598D01*
X30839Y-15669D01*
X30839Y-15527D01*
X30806Y-15428D01*
X30587Y-15348D01*
X30352Y-15359D01*
X30186Y-15428D01*
X30153Y-15527D01*
X30496Y-15870D01*
X30839Y-15527D01*
X30839Y-15669D01*
X30602Y-15906D01*
X30567Y-15941D01*
X30496Y-16012D01*
X30425Y-15941D01*
X30390Y-15906D01*
X30082Y-15598D01*
X29996Y-15626D01*
X29910Y-15598D01*
X29839Y-15669D01*
X29839Y-15527D01*
X29806Y-15428D01*
X29725Y-15398D01*
X29725Y-12605D01*
X29725Y-12396D01*
X29645Y-12203D01*
X29498Y-12055D01*
X29305Y-11975D01*
X29096Y-11975D01*
X28903Y-12055D01*
X28755Y-12202D01*
X28675Y-12395D01*
X28675Y-12604D01*
X28755Y-12797D01*
X28902Y-12945D01*
X29042Y-13003D01*
X28933Y-13048D01*
X28910Y-13139D01*
X29200Y-13429D01*
X29490Y-13139D01*
X29467Y-13048D01*
X29348Y-13006D01*
X29497Y-12945D01*
X29645Y-12798D01*
X29725Y-12605D01*
X29725Y-15398D01*
X29719Y-15396D01*
X29719Y-13574D01*
X29708Y-13370D01*
X29652Y-13233D01*
X29561Y-13210D01*
X29271Y-13500D01*
X29561Y-13790D01*
X29652Y-13767D01*
X29719Y-13574D01*
X29719Y-15396D01*
X29587Y-15348D01*
X29490Y-15352D01*
X29490Y-13861D01*
X29200Y-13571D01*
X29129Y-13642D01*
X29129Y-13500D01*
X28839Y-13210D01*
X28748Y-13233D01*
X28681Y-13426D01*
X28692Y-13630D01*
X28748Y-13767D01*
X28839Y-13790D01*
X29129Y-13500D01*
X29129Y-13642D01*
X28910Y-13861D01*
X28933Y-13952D01*
X29126Y-14019D01*
X29330Y-14008D01*
X29467Y-13952D01*
X29490Y-13861D01*
X29490Y-15352D01*
X29352Y-15359D01*
X29186Y-15428D01*
X29153Y-15527D01*
X29496Y-15870D01*
X29839Y-15527D01*
X29839Y-15669D01*
X29602Y-15906D01*
X29567Y-15941D01*
X29496Y-16012D01*
X29425Y-15941D01*
X29390Y-15906D01*
X29082Y-15598D01*
X28996Y-15626D01*
X28910Y-15598D01*
X28839Y-15669D01*
X28839Y-15527D01*
X28806Y-15428D01*
X28587Y-15348D01*
X28352Y-15359D01*
X28186Y-15428D01*
X28153Y-15527D01*
X28496Y-15870D01*
X28839Y-15527D01*
X28839Y-15669D01*
X28602Y-15906D01*
X28567Y-15941D01*
X28496Y-16012D01*
X28425Y-15941D01*
X28390Y-15906D01*
X28082Y-15598D01*
X27996Y-15626D01*
X27910Y-15598D01*
X27839Y-15669D01*
X27839Y-15527D01*
X27806Y-15428D01*
X27587Y-15348D01*
X27352Y-15359D01*
X27319Y-15372D01*
X27319Y-13574D01*
X27308Y-13370D01*
X27252Y-13233D01*
X27161Y-13210D01*
X26871Y-13500D01*
X27161Y-13790D01*
X27252Y-13767D01*
X27319Y-13574D01*
X27319Y-15372D01*
X27186Y-15428D01*
X27153Y-15527D01*
X27496Y-15870D01*
X27839Y-15527D01*
X27839Y-15669D01*
X27602Y-15906D01*
X27567Y-15941D01*
X27496Y-16012D01*
X27425Y-15941D01*
X27390Y-15906D01*
X27082Y-15598D01*
X26996Y-15626D01*
X26910Y-15598D01*
X26839Y-15669D01*
X26839Y-15527D01*
X26806Y-15428D01*
X26587Y-15348D01*
X26352Y-15359D01*
X26186Y-15428D01*
X26153Y-15527D01*
X26496Y-15870D01*
X26839Y-15527D01*
X26839Y-15669D01*
X26602Y-15906D01*
X26567Y-15941D01*
X26496Y-16012D01*
X26425Y-15941D01*
X26390Y-15906D01*
X26082Y-15598D01*
X25996Y-15626D01*
X25910Y-15598D01*
X25602Y-15906D01*
X25567Y-15941D01*
X25496Y-16012D01*
X25461Y-16047D01*
X25153Y-16355D01*
X25186Y-16454D01*
X25405Y-16534D01*
X25640Y-16523D01*
X25744Y-16479D01*
X24732Y-17492D01*
X24732Y-16166D01*
X24909Y-15988D01*
X24914Y-16085D01*
X24983Y-16251D01*
X25082Y-16284D01*
X25390Y-15976D01*
X25425Y-15941D01*
X25496Y-15870D01*
X25531Y-15835D01*
X25839Y-15527D01*
X25806Y-15428D01*
X25587Y-15348D01*
X25548Y-15349D01*
X26379Y-14519D01*
X26379Y-14518D01*
X26380Y-14518D01*
X26476Y-14374D01*
X26477Y-14373D01*
X26510Y-14203D01*
X26511Y-14202D01*
X26511Y-13930D01*
X26524Y-13916D01*
X26533Y-13952D01*
X26726Y-14019D01*
X26930Y-14008D01*
X27067Y-13952D01*
X27090Y-13861D01*
X26835Y-13606D01*
X26800Y-13571D01*
X26729Y-13500D01*
X26800Y-13429D01*
X26835Y-13394D01*
X27090Y-13139D01*
X27067Y-13048D01*
X26948Y-13006D01*
X27097Y-12945D01*
X27245Y-12798D01*
X27325Y-12605D01*
X27325Y-12396D01*
X27245Y-12203D01*
X27098Y-12055D01*
X27013Y-12019D01*
X28620Y-10413D01*
X28620Y-10415D01*
X28708Y-10628D01*
X28871Y-10791D01*
X29084Y-10880D01*
X29315Y-10880D01*
X29528Y-10792D01*
X29691Y-10629D01*
X29780Y-10416D01*
X29780Y-10185D01*
X29692Y-09972D01*
X29529Y-09809D01*
X29508Y-09800D01*
X29528Y-09792D01*
X29691Y-09629D01*
X29780Y-09416D01*
X29780Y-09272D01*
X29892Y-09384D01*
X29892Y-10103D01*
X29926Y-10274D01*
X30023Y-10419D01*
X30920Y-11316D01*
X31064Y-11413D01*
X31065Y-11413D01*
X31236Y-11447D01*
X35995Y-11447D01*
X36059Y-11511D01*
X36150Y-11549D01*
X36249Y-11549D01*
X36849Y-11549D01*
X36941Y-11511D01*
X37011Y-11441D01*
X37049Y-11350D01*
X37049Y-11287D01*
X37122Y-11308D01*
X37429Y-11000D01*
X37122Y-10692D01*
X37049Y-10712D01*
X37049Y-10651D01*
X37011Y-10559D01*
X36941Y-10489D01*
X36850Y-10451D01*
X36751Y-10451D01*
X36151Y-10451D01*
X36059Y-10489D01*
X35995Y-10553D01*
X32036Y-10553D01*
X32076Y-10459D01*
X32076Y-10228D01*
X31988Y-10015D01*
X31825Y-09852D01*
X31804Y-09843D01*
X31824Y-09835D01*
X31869Y-09790D01*
X36853Y-09790D01*
X37523Y-10459D01*
X37366Y-10468D01*
X37219Y-10528D01*
X37192Y-10622D01*
X37465Y-10894D01*
X37500Y-10929D01*
X37571Y-11000D01*
X37571Y-11000D01*
G37*
G54D32*
X37571Y-11000D02*
X37500Y-11071D01*
X37192Y-11378D01*
X37219Y-11472D01*
X37405Y-11537D01*
X37179Y-11764D01*
X36469Y-11764D01*
X36298Y-11798D01*
X36249Y-11830D01*
X36152Y-11895D01*
X32863Y-15185D01*
X32766Y-15330D01*
X32750Y-15407D01*
X32587Y-15348D01*
X32352Y-15359D01*
X32186Y-15428D01*
X32153Y-15527D01*
X32461Y-15835D01*
X32496Y-15870D01*
X32567Y-15941D01*
X32496Y-16012D01*
X32425Y-15941D01*
X32390Y-15906D01*
X32082Y-15598D01*
X32021Y-15617D01*
X32021Y-12597D01*
X32021Y-12388D01*
X31941Y-12195D01*
X31794Y-12047D01*
X31601Y-11967D01*
X31392Y-11967D01*
X31199Y-12047D01*
X31051Y-12194D01*
X30971Y-12387D01*
X30971Y-12596D01*
X31051Y-12789D01*
X31198Y-12937D01*
X31338Y-12995D01*
X31229Y-13040D01*
X31206Y-13131D01*
X31496Y-13421D01*
X31786Y-13131D01*
X31763Y-13040D01*
X31644Y-12998D01*
X31793Y-12937D01*
X31941Y-12790D01*
X32021Y-12597D01*
X32021Y-15617D01*
X32015Y-15619D01*
X32015Y-13566D01*
X32004Y-13362D01*
X31948Y-13225D01*
X31857Y-13202D01*
X31567Y-13492D01*
X31857Y-13782D01*
X31948Y-13759D01*
X32015Y-13566D01*
X32015Y-15619D01*
X31996Y-15626D01*
X31910Y-15598D01*
X31839Y-15669D01*
X31839Y-15527D01*
X31806Y-15428D01*
X31786Y-15420D01*
X31786Y-13853D01*
X31496Y-13563D01*
X31425Y-13634D01*
X31425Y-13492D01*
X31135Y-13202D01*
X31044Y-13225D01*
X30977Y-13418D01*
X30988Y-13622D01*
X31044Y-13759D01*
X31135Y-13782D01*
X31425Y-13492D01*
X31425Y-13634D01*
X31206Y-13853D01*
X31229Y-13944D01*
X31422Y-14011D01*
X31626Y-14000D01*
X31763Y-13944D01*
X31786Y-13853D01*
X31786Y-15420D01*
X31587Y-15348D01*
X31352Y-15359D01*
X31186Y-15428D01*
X31153Y-15527D01*
X31496Y-15870D01*
X31839Y-15527D01*
X31839Y-15669D01*
X31602Y-15906D01*
X31567Y-15941D01*
X31496Y-16012D01*
X31425Y-15941D01*
X31390Y-15906D01*
X31082Y-15598D01*
X30996Y-15626D01*
X30910Y-15598D01*
X30839Y-15669D01*
X30839Y-15527D01*
X30806Y-15428D01*
X30587Y-15348D01*
X30352Y-15359D01*
X30186Y-15428D01*
X30153Y-15527D01*
X30496Y-15870D01*
X30839Y-15527D01*
X30839Y-15669D01*
X30602Y-15906D01*
X30567Y-15941D01*
X30496Y-16012D01*
X30425Y-15941D01*
X30390Y-15906D01*
X30082Y-15598D01*
X29996Y-15626D01*
X29910Y-15598D01*
X29839Y-15669D01*
X29839Y-15527D01*
X29806Y-15428D01*
X29725Y-15398D01*
X29725Y-12605D01*
X29725Y-12396D01*
X29645Y-12203D01*
X29498Y-12055D01*
X29305Y-11975D01*
X29096Y-11975D01*
X28903Y-12055D01*
X28755Y-12202D01*
X28675Y-12395D01*
X28675Y-12604D01*
X28755Y-12797D01*
X28902Y-12945D01*
X29042Y-13003D01*
X28933Y-13048D01*
X28910Y-13139D01*
X29200Y-13429D01*
X29490Y-13139D01*
X29467Y-13048D01*
X29348Y-13006D01*
X29497Y-12945D01*
X29645Y-12798D01*
X29725Y-12605D01*
X29725Y-15398D01*
X29719Y-15396D01*
X29719Y-13574D01*
X29708Y-13370D01*
X29652Y-13233D01*
X29561Y-13210D01*
X29271Y-13500D01*
X29561Y-13790D01*
X29652Y-13767D01*
X29719Y-13574D01*
X29719Y-15396D01*
X29587Y-15348D01*
X29490Y-15352D01*
X29490Y-13861D01*
X29200Y-13571D01*
X29129Y-13642D01*
X29129Y-13500D01*
X28839Y-13210D01*
X28748Y-13233D01*
X28681Y-13426D01*
X28692Y-13630D01*
X28748Y-13767D01*
X28839Y-13790D01*
X29129Y-13500D01*
X29129Y-13642D01*
X28910Y-13861D01*
X28933Y-13952D01*
X29126Y-14019D01*
X29330Y-14008D01*
X29467Y-13952D01*
X29490Y-13861D01*
X29490Y-15352D01*
X29352Y-15359D01*
X29186Y-15428D01*
X29153Y-15527D01*
X29496Y-15870D01*
X29839Y-15527D01*
X29839Y-15669D01*
X29602Y-15906D01*
X29567Y-15941D01*
X29496Y-16012D01*
X29425Y-15941D01*
X29390Y-15906D01*
X29082Y-15598D01*
X28996Y-15626D01*
X28910Y-15598D01*
X28839Y-15669D01*
X28839Y-15527D01*
X28806Y-15428D01*
X28587Y-15348D01*
X28352Y-15359D01*
X28186Y-15428D01*
X28153Y-15527D01*
X28496Y-15870D01*
X28839Y-15527D01*
X28839Y-15669D01*
X28602Y-15906D01*
X28567Y-15941D01*
X28496Y-16012D01*
X28425Y-15941D01*
X28390Y-15906D01*
X28082Y-15598D01*
X27996Y-15626D01*
X27910Y-15598D01*
X27839Y-15669D01*
X27839Y-15527D01*
X27806Y-15428D01*
X27587Y-15348D01*
X27352Y-15359D01*
X27319Y-15372D01*
X27319Y-13574D01*
X27308Y-13370D01*
X27252Y-13233D01*
X27161Y-13210D01*
X26871Y-13500D01*
X27161Y-13790D01*
X27252Y-13767D01*
X27319Y-13574D01*
X27319Y-15372D01*
X27186Y-15428D01*
X27153Y-15527D01*
X27496Y-15870D01*
X27839Y-15527D01*
X27839Y-15669D01*
X27602Y-15906D01*
X27567Y-15941D01*
X27496Y-16012D01*
X27425Y-15941D01*
X27390Y-15906D01*
X27082Y-15598D01*
X26996Y-15626D01*
X26910Y-15598D01*
X26839Y-15669D01*
X26839Y-15527D01*
X26806Y-15428D01*
X26587Y-15348D01*
X26352Y-15359D01*
X26186Y-15428D01*
X26153Y-15527D01*
X26496Y-15870D01*
X26839Y-15527D01*
X26839Y-15669D01*
X26602Y-15906D01*
X26567Y-15941D01*
X26496Y-16012D01*
X26425Y-15941D01*
X26390Y-15906D01*
X26082Y-15598D01*
X25996Y-15626D01*
X25910Y-15598D01*
X25602Y-15906D01*
X25567Y-15941D01*
X25496Y-16012D01*
X25461Y-16047D01*
X25153Y-16355D01*
X25186Y-16454D01*
X25405Y-16534D01*
X25640Y-16523D01*
X25744Y-16479D01*
X24732Y-17492D01*
X24732Y-16166D01*
X24909Y-15988D01*
X24914Y-16085D01*
X24983Y-16251D01*
X25082Y-16284D01*
X25390Y-15976D01*
X25425Y-15941D01*
X25496Y-15870D01*
X25531Y-15835D01*
X25839Y-15527D01*
X25806Y-15428D01*
X25587Y-15348D01*
X25548Y-15349D01*
X26379Y-14519D01*
X26379Y-14518D01*
X26380Y-14518D01*
X26476Y-14374D01*
X26477Y-14373D01*
X26510Y-14203D01*
X26511Y-14202D01*
X26511Y-13930D01*
X26524Y-13916D01*
X26533Y-13952D01*
X26726Y-14019D01*
X26930Y-14008D01*
X27067Y-13952D01*
X27090Y-13861D01*
X26835Y-13606D01*
X26800Y-13571D01*
X26729Y-13500D01*
X26800Y-13429D01*
X26835Y-13394D01*
X27090Y-13139D01*
X27067Y-13048D01*
X26948Y-13006D01*
X27097Y-12945D01*
X27245Y-12798D01*
X27325Y-12605D01*
X27325Y-12396D01*
X27245Y-12203D01*
X27098Y-12055D01*
X27013Y-12019D01*
X28620Y-10413D01*
X28620Y-10415D01*
X28708Y-10628D01*
X28871Y-10791D01*
X29084Y-10880D01*
X29315Y-10880D01*
X29528Y-10792D01*
X29691Y-10629D01*
X29780Y-10416D01*
X29780Y-10185D01*
X29692Y-09972D01*
X29529Y-09809D01*
X29508Y-09800D01*
X29528Y-09792D01*
X29691Y-09629D01*
X29780Y-09416D01*
X29780Y-09272D01*
X29892Y-09384D01*
X29892Y-10103D01*
X29926Y-10274D01*
X30023Y-10419D01*
X30920Y-11316D01*
X31064Y-11413D01*
X31065Y-11413D01*
X31236Y-11447D01*
X35995Y-11447D01*
X36059Y-11511D01*
X36150Y-11549D01*
X36249Y-11549D01*
X36849Y-11549D01*
X36941Y-11511D01*
X37011Y-11441D01*
X37049Y-11350D01*
X37049Y-11287D01*
X37122Y-11308D01*
X37429Y-11000D01*
X37122Y-10692D01*
X37049Y-10712D01*
X37049Y-10651D01*
X37011Y-10559D01*
X36941Y-10489D01*
X36850Y-10451D01*
X36751Y-10451D01*
X36151Y-10451D01*
X36059Y-10489D01*
X35995Y-10553D01*
X32036Y-10553D01*
X32076Y-10459D01*
X32076Y-10228D01*
X31988Y-10015D01*
X31825Y-09852D01*
X31804Y-09843D01*
X31824Y-09835D01*
X31869Y-09790D01*
X36853Y-09790D01*
X37523Y-10459D01*
X37366Y-10468D01*
X37219Y-10528D01*
X37192Y-10622D01*
X37465Y-10894D01*
X37500Y-10929D01*
X37571Y-11000D01*
G54D10*
G36*
X57616Y-31559D02*
X57532Y-31594D01*
X57378Y-31748D01*
X57294Y-31950D01*
X57294Y-32168D01*
X57378Y-32370D01*
X57392Y-32384D01*
X55581Y-32384D01*
X55661Y-32255D01*
X55678Y-32196D01*
X55631Y-32109D01*
X55096Y-32109D01*
X55046Y-32109D01*
X54946Y-32109D01*
X54896Y-32109D01*
X54361Y-32109D01*
X54314Y-32196D01*
X54331Y-32255D01*
X54410Y-32384D01*
X53562Y-32384D01*
X53391Y-32418D01*
X53246Y-32515D01*
X49564Y-36197D01*
X49467Y-36342D01*
X49433Y-36513D01*
X49433Y-38521D01*
X49394Y-38560D01*
X49356Y-38651D01*
X49356Y-38750D01*
X49356Y-39300D01*
X49394Y-39392D01*
X49433Y-39431D01*
X49433Y-41061D01*
X49263Y-41231D01*
X49263Y-35147D01*
X43751Y-35147D01*
X43751Y-33730D01*
X43069Y-33730D01*
X43069Y-32437D01*
X43069Y-32338D01*
X43069Y-31738D01*
X43031Y-31646D01*
X42961Y-31576D01*
X42870Y-31538D01*
X42771Y-31538D01*
X42171Y-31538D01*
X42079Y-31576D01*
X42009Y-31646D01*
X41971Y-31737D01*
X41971Y-31836D01*
X41971Y-32436D01*
X42009Y-32528D01*
X42079Y-32598D01*
X42170Y-32636D01*
X42269Y-32636D01*
X42869Y-32636D01*
X42961Y-32598D01*
X43031Y-32528D01*
X43069Y-32437D01*
X43069Y-33730D01*
X41667Y-33730D01*
X41667Y-33085D01*
X41667Y-32876D01*
X41587Y-32683D01*
X41440Y-32535D01*
X41306Y-32479D01*
X41439Y-32425D01*
X41587Y-32278D01*
X41667Y-32085D01*
X41667Y-31876D01*
X41587Y-31683D01*
X41440Y-31535D01*
X41247Y-31455D01*
X41038Y-31455D01*
X40845Y-31535D01*
X40697Y-31682D01*
X40617Y-31875D01*
X40617Y-32084D01*
X40697Y-32277D01*
X40844Y-32425D01*
X40977Y-32480D01*
X40845Y-32535D01*
X40697Y-32682D01*
X40617Y-32875D01*
X40617Y-33084D01*
X40697Y-33277D01*
X40844Y-33425D01*
X41037Y-33505D01*
X41246Y-33505D01*
X41439Y-33425D01*
X41587Y-33278D01*
X41667Y-33085D01*
X41667Y-33730D01*
X39646Y-33730D01*
X39873Y-33502D01*
X40061Y-33425D01*
X40209Y-33278D01*
X40289Y-33085D01*
X40289Y-32876D01*
X40209Y-32683D01*
X40062Y-32535D01*
X39928Y-32479D01*
X40061Y-32425D01*
X40209Y-32278D01*
X40289Y-32085D01*
X40289Y-31876D01*
X40209Y-31683D01*
X40062Y-31535D01*
X39869Y-31455D01*
X39660Y-31455D01*
X39467Y-31535D01*
X39319Y-31682D01*
X39239Y-31875D01*
X39239Y-32084D01*
X39319Y-32277D01*
X39466Y-32425D01*
X39599Y-32480D01*
X39467Y-32535D01*
X39319Y-32682D01*
X39240Y-32871D01*
X38881Y-33231D01*
X38850Y-33231D01*
X38911Y-33085D01*
X38911Y-32876D01*
X38831Y-32683D01*
X38684Y-32535D01*
X38550Y-32479D01*
X38683Y-32425D01*
X38831Y-32278D01*
X38911Y-32085D01*
X38911Y-31876D01*
X38848Y-31725D01*
X39815Y-30759D01*
X42415Y-30759D01*
X42452Y-30796D01*
X42596Y-30893D01*
X42768Y-30926D01*
X42939Y-30893D01*
X43002Y-30850D01*
X43069Y-30864D01*
X43120Y-30853D01*
X43120Y-32469D01*
X43154Y-32640D01*
X43251Y-32785D01*
X44880Y-34414D01*
X44880Y-34680D01*
X44918Y-34772D01*
X44988Y-34842D01*
X45079Y-34880D01*
X45178Y-34880D01*
X45778Y-34880D01*
X45870Y-34842D01*
X45940Y-34772D01*
X45978Y-34681D01*
X45978Y-34656D01*
X46118Y-34796D01*
X46320Y-34880D01*
X46538Y-34880D01*
X46740Y-34796D01*
X46894Y-34642D01*
X46929Y-34557D01*
X46964Y-34642D01*
X47118Y-34796D01*
X47320Y-34880D01*
X47538Y-34880D01*
X47740Y-34796D01*
X47894Y-34642D01*
X47929Y-34557D01*
X47964Y-34642D01*
X48118Y-34796D01*
X48320Y-34880D01*
X48538Y-34880D01*
X48740Y-34796D01*
X48894Y-34642D01*
X48978Y-34440D01*
X48978Y-34414D01*
X49391Y-34001D01*
X49391Y-34000D01*
X49392Y-34000D01*
X49488Y-33856D01*
X49489Y-33855D01*
X49522Y-33685D01*
X49523Y-33684D01*
X49523Y-31730D01*
X49522Y-31729D01*
X49489Y-31559D01*
X49488Y-31558D01*
X49392Y-31414D01*
X49391Y-31413D01*
X47198Y-29220D01*
X47350Y-29158D01*
X47504Y-29004D01*
X47539Y-28919D01*
X47574Y-29004D01*
X47728Y-29158D01*
X47930Y-29242D01*
X48148Y-29242D01*
X48350Y-29158D01*
X48504Y-29004D01*
X48539Y-28919D01*
X48574Y-29004D01*
X48728Y-29158D01*
X48930Y-29242D01*
X49148Y-29242D01*
X49350Y-29158D01*
X49368Y-29140D01*
X51319Y-29140D01*
X51490Y-29106D01*
X51635Y-29009D01*
X53033Y-27610D01*
X53098Y-27766D01*
X53245Y-27914D01*
X53438Y-27994D01*
X53647Y-27994D01*
X53840Y-27914D01*
X53988Y-27767D01*
X54068Y-27574D01*
X54068Y-27365D01*
X53988Y-27172D01*
X53841Y-27024D01*
X53707Y-26968D01*
X53840Y-26914D01*
X53988Y-26767D01*
X54068Y-26574D01*
X54068Y-26365D01*
X53990Y-26176D01*
X53990Y-25006D01*
X54068Y-24818D01*
X54068Y-24609D01*
X53988Y-24416D01*
X53841Y-24268D01*
X53707Y-24212D01*
X53840Y-24158D01*
X53988Y-24011D01*
X54068Y-23818D01*
X54068Y-23609D01*
X54028Y-23514D01*
X54322Y-23808D01*
X54323Y-23808D01*
X54346Y-23823D01*
X54346Y-23824D01*
X54294Y-23950D01*
X54294Y-24168D01*
X54378Y-24370D01*
X54532Y-24524D01*
X54616Y-24559D01*
X54532Y-24594D01*
X54378Y-24748D01*
X54294Y-24950D01*
X54294Y-25168D01*
X54378Y-25370D01*
X54532Y-25524D01*
X54616Y-25559D01*
X54532Y-25594D01*
X54378Y-25748D01*
X54294Y-25950D01*
X54294Y-26168D01*
X54378Y-26370D01*
X54532Y-26524D01*
X54616Y-26559D01*
X54532Y-26594D01*
X54378Y-26748D01*
X54294Y-26950D01*
X54294Y-27168D01*
X54378Y-27370D01*
X54532Y-27524D01*
X54616Y-27559D01*
X54532Y-27594D01*
X54378Y-27748D01*
X54294Y-27950D01*
X54294Y-28168D01*
X54378Y-28370D01*
X54532Y-28524D01*
X54616Y-28559D01*
X54532Y-28594D01*
X54378Y-28748D01*
X54294Y-28950D01*
X54294Y-29168D01*
X54378Y-29370D01*
X54532Y-29524D01*
X54616Y-29559D01*
X54532Y-29594D01*
X54378Y-29748D01*
X54294Y-29950D01*
X54294Y-30168D01*
X54378Y-30370D01*
X54532Y-30524D01*
X54616Y-30559D01*
X54532Y-30594D01*
X54378Y-30748D01*
X54294Y-30950D01*
X54294Y-31168D01*
X54378Y-31370D01*
X54532Y-31524D01*
X54611Y-31557D01*
X54446Y-31677D01*
X54331Y-31863D01*
X54314Y-31922D01*
X54361Y-32009D01*
X54896Y-32009D01*
X54946Y-32009D01*
X55046Y-32009D01*
X55096Y-32009D01*
X55631Y-32009D01*
X55678Y-31922D01*
X55661Y-31863D01*
X55546Y-31677D01*
X55380Y-31557D01*
X55460Y-31524D01*
X55614Y-31370D01*
X55698Y-31168D01*
X55698Y-30950D01*
X55645Y-30823D01*
X55669Y-30808D01*
X57298Y-29179D01*
X57378Y-29370D01*
X57532Y-29524D01*
X57616Y-29559D01*
X57532Y-29594D01*
X57378Y-29748D01*
X57294Y-29950D01*
X57294Y-30168D01*
X57378Y-30370D01*
X57532Y-30524D01*
X57616Y-30559D01*
X57532Y-30594D01*
X57378Y-30748D01*
X57294Y-30950D01*
X57294Y-31168D01*
X57378Y-31370D01*
X57532Y-31524D01*
X57616Y-31559D01*
X57616Y-31559D01*
G37*
G54D32*
X57616Y-31559D02*
X57532Y-31594D01*
X57378Y-31748D01*
X57294Y-31950D01*
X57294Y-32168D01*
X57378Y-32370D01*
X57392Y-32384D01*
X55581Y-32384D01*
X55661Y-32255D01*
X55678Y-32196D01*
X55631Y-32109D01*
X55096Y-32109D01*
X55046Y-32109D01*
X54946Y-32109D01*
X54896Y-32109D01*
X54361Y-32109D01*
X54314Y-32196D01*
X54331Y-32255D01*
X54410Y-32384D01*
X53562Y-32384D01*
X53391Y-32418D01*
X53246Y-32515D01*
X49564Y-36197D01*
X49467Y-36342D01*
X49433Y-36513D01*
X49433Y-38521D01*
X49394Y-38560D01*
X49356Y-38651D01*
X49356Y-38750D01*
X49356Y-39300D01*
X49394Y-39392D01*
X49433Y-39431D01*
X49433Y-41061D01*
X49263Y-41231D01*
X49263Y-35147D01*
X43751Y-35147D01*
X43751Y-33730D01*
X43069Y-33730D01*
X43069Y-32437D01*
X43069Y-32338D01*
X43069Y-31738D01*
X43031Y-31646D01*
X42961Y-31576D01*
X42870Y-31538D01*
X42771Y-31538D01*
X42171Y-31538D01*
X42079Y-31576D01*
X42009Y-31646D01*
X41971Y-31737D01*
X41971Y-31836D01*
X41971Y-32436D01*
X42009Y-32528D01*
X42079Y-32598D01*
X42170Y-32636D01*
X42269Y-32636D01*
X42869Y-32636D01*
X42961Y-32598D01*
X43031Y-32528D01*
X43069Y-32437D01*
X43069Y-33730D01*
X41667Y-33730D01*
X41667Y-33085D01*
X41667Y-32876D01*
X41587Y-32683D01*
X41440Y-32535D01*
X41306Y-32479D01*
X41439Y-32425D01*
X41587Y-32278D01*
X41667Y-32085D01*
X41667Y-31876D01*
X41587Y-31683D01*
X41440Y-31535D01*
X41247Y-31455D01*
X41038Y-31455D01*
X40845Y-31535D01*
X40697Y-31682D01*
X40617Y-31875D01*
X40617Y-32084D01*
X40697Y-32277D01*
X40844Y-32425D01*
X40977Y-32480D01*
X40845Y-32535D01*
X40697Y-32682D01*
X40617Y-32875D01*
X40617Y-33084D01*
X40697Y-33277D01*
X40844Y-33425D01*
X41037Y-33505D01*
X41246Y-33505D01*
X41439Y-33425D01*
X41587Y-33278D01*
X41667Y-33085D01*
X41667Y-33730D01*
X39646Y-33730D01*
X39873Y-33502D01*
X40061Y-33425D01*
X40209Y-33278D01*
X40289Y-33085D01*
X40289Y-32876D01*
X40209Y-32683D01*
X40062Y-32535D01*
X39928Y-32479D01*
X40061Y-32425D01*
X40209Y-32278D01*
X40289Y-32085D01*
X40289Y-31876D01*
X40209Y-31683D01*
X40062Y-31535D01*
X39869Y-31455D01*
X39660Y-31455D01*
X39467Y-31535D01*
X39319Y-31682D01*
X39239Y-31875D01*
X39239Y-32084D01*
X39319Y-32277D01*
X39466Y-32425D01*
X39599Y-32480D01*
X39467Y-32535D01*
X39319Y-32682D01*
X39240Y-32871D01*
X38881Y-33231D01*
X38850Y-33231D01*
X38911Y-33085D01*
X38911Y-32876D01*
X38831Y-32683D01*
X38684Y-32535D01*
X38550Y-32479D01*
X38683Y-32425D01*
X38831Y-32278D01*
X38911Y-32085D01*
X38911Y-31876D01*
X38848Y-31725D01*
X39815Y-30759D01*
X42415Y-30759D01*
X42452Y-30796D01*
X42596Y-30893D01*
X42768Y-30926D01*
X42939Y-30893D01*
X43002Y-30850D01*
X43069Y-30864D01*
X43120Y-30853D01*
X43120Y-32469D01*
X43154Y-32640D01*
X43251Y-32785D01*
X44880Y-34414D01*
X44880Y-34680D01*
X44918Y-34772D01*
X44988Y-34842D01*
X45079Y-34880D01*
X45178Y-34880D01*
X45778Y-34880D01*
X45870Y-34842D01*
X45940Y-34772D01*
X45978Y-34681D01*
X45978Y-34656D01*
X46118Y-34796D01*
X46320Y-34880D01*
X46538Y-34880D01*
X46740Y-34796D01*
X46894Y-34642D01*
X46929Y-34557D01*
X46964Y-34642D01*
X47118Y-34796D01*
X47320Y-34880D01*
X47538Y-34880D01*
X47740Y-34796D01*
X47894Y-34642D01*
X47929Y-34557D01*
X47964Y-34642D01*
X48118Y-34796D01*
X48320Y-34880D01*
X48538Y-34880D01*
X48740Y-34796D01*
X48894Y-34642D01*
X48978Y-34440D01*
X48978Y-34414D01*
X49391Y-34001D01*
X49391Y-34000D01*
X49392Y-34000D01*
X49488Y-33856D01*
X49489Y-33855D01*
X49522Y-33685D01*
X49523Y-33684D01*
X49523Y-31730D01*
X49522Y-31729D01*
X49489Y-31559D01*
X49488Y-31558D01*
X49392Y-31414D01*
X49391Y-31413D01*
X47198Y-29220D01*
X47350Y-29158D01*
X47504Y-29004D01*
X47539Y-28919D01*
X47574Y-29004D01*
X47728Y-29158D01*
X47930Y-29242D01*
X48148Y-29242D01*
X48350Y-29158D01*
X48504Y-29004D01*
X48539Y-28919D01*
X48574Y-29004D01*
X48728Y-29158D01*
X48930Y-29242D01*
X49148Y-29242D01*
X49350Y-29158D01*
X49368Y-29140D01*
X51319Y-29140D01*
X51490Y-29106D01*
X51635Y-29009D01*
X53033Y-27610D01*
X53098Y-27766D01*
X53245Y-27914D01*
X53438Y-27994D01*
X53647Y-27994D01*
X53840Y-27914D01*
X53988Y-27767D01*
X54068Y-27574D01*
X54068Y-27365D01*
X53988Y-27172D01*
X53841Y-27024D01*
X53707Y-26968D01*
X53840Y-26914D01*
X53988Y-26767D01*
X54068Y-26574D01*
X54068Y-26365D01*
X53990Y-26176D01*
X53990Y-25006D01*
X54068Y-24818D01*
X54068Y-24609D01*
X53988Y-24416D01*
X53841Y-24268D01*
X53707Y-24212D01*
X53840Y-24158D01*
X53988Y-24011D01*
X54068Y-23818D01*
X54068Y-23609D01*
X54028Y-23514D01*
X54322Y-23808D01*
X54323Y-23808D01*
X54346Y-23823D01*
X54346Y-23824D01*
X54294Y-23950D01*
X54294Y-24168D01*
X54378Y-24370D01*
X54532Y-24524D01*
X54616Y-24559D01*
X54532Y-24594D01*
X54378Y-24748D01*
X54294Y-24950D01*
X54294Y-25168D01*
X54378Y-25370D01*
X54532Y-25524D01*
X54616Y-25559D01*
X54532Y-25594D01*
X54378Y-25748D01*
X54294Y-25950D01*
X54294Y-26168D01*
X54378Y-26370D01*
X54532Y-26524D01*
X54616Y-26559D01*
X54532Y-26594D01*
X54378Y-26748D01*
X54294Y-26950D01*
X54294Y-27168D01*
X54378Y-27370D01*
X54532Y-27524D01*
X54616Y-27559D01*
X54532Y-27594D01*
X54378Y-27748D01*
X54294Y-27950D01*
X54294Y-28168D01*
X54378Y-28370D01*
X54532Y-28524D01*
X54616Y-28559D01*
X54532Y-28594D01*
X54378Y-28748D01*
X54294Y-28950D01*
X54294Y-29168D01*
X54378Y-29370D01*
X54532Y-29524D01*
X54616Y-29559D01*
X54532Y-29594D01*
X54378Y-29748D01*
X54294Y-29950D01*
X54294Y-30168D01*
X54378Y-30370D01*
X54532Y-30524D01*
X54616Y-30559D01*
X54532Y-30594D01*
X54378Y-30748D01*
X54294Y-30950D01*
X54294Y-31168D01*
X54378Y-31370D01*
X54532Y-31524D01*
X54611Y-31557D01*
X54446Y-31677D01*
X54331Y-31863D01*
X54314Y-31922D01*
X54361Y-32009D01*
X54896Y-32009D01*
X54946Y-32009D01*
X55046Y-32009D01*
X55096Y-32009D01*
X55631Y-32009D01*
X55678Y-31922D01*
X55661Y-31863D01*
X55546Y-31677D01*
X55380Y-31557D01*
X55460Y-31524D01*
X55614Y-31370D01*
X55698Y-31168D01*
X55698Y-30950D01*
X55645Y-30823D01*
X55669Y-30808D01*
X57298Y-29179D01*
X57378Y-29370D01*
X57532Y-29524D01*
X57616Y-29559D01*
X57532Y-29594D01*
X57378Y-29748D01*
X57294Y-29950D01*
X57294Y-30168D01*
X57378Y-30370D01*
X57532Y-30524D01*
X57616Y-30559D01*
X57532Y-30594D01*
X57378Y-30748D01*
X57294Y-30950D01*
X57294Y-31168D01*
X57378Y-31370D01*
X57532Y-31524D01*
X57616Y-31559D01*
G54D10*
G36*
X58520Y-22297D02*
X54549Y-18326D01*
X54549Y-16759D01*
X54549Y-16541D01*
X54465Y-16339D01*
X54311Y-16185D01*
X54109Y-16101D01*
X53891Y-16101D01*
X53689Y-16185D01*
X53549Y-16325D01*
X53549Y-16209D01*
X53549Y-15991D01*
X53465Y-15789D01*
X53311Y-15635D01*
X53109Y-15551D01*
X52891Y-15551D01*
X52689Y-15635D01*
X52535Y-15789D01*
X52451Y-15991D01*
X52451Y-16209D01*
X52535Y-16411D01*
X52689Y-16565D01*
X52891Y-16649D01*
X53109Y-16649D01*
X53311Y-16565D01*
X53465Y-16411D01*
X53549Y-16209D01*
X53549Y-16325D01*
X53535Y-16339D01*
X53451Y-16541D01*
X53451Y-16759D01*
X53535Y-16961D01*
X53689Y-17115D01*
X53891Y-17199D01*
X54109Y-17199D01*
X54311Y-17115D01*
X54465Y-16961D01*
X54549Y-16759D01*
X54549Y-18326D01*
X53543Y-17321D01*
X53549Y-17309D01*
X53549Y-17091D01*
X53465Y-16889D01*
X53311Y-16735D01*
X53109Y-16651D01*
X52891Y-16651D01*
X52689Y-16735D01*
X52535Y-16889D01*
X52451Y-17091D01*
X52451Y-17308D01*
X52296Y-17154D01*
X52301Y-17134D01*
X52267Y-16963D01*
X52170Y-16818D01*
X52025Y-16721D01*
X51854Y-16687D01*
X51829Y-16687D01*
X51706Y-16563D01*
X51706Y-16357D01*
X51626Y-16164D01*
X51479Y-16016D01*
X51286Y-15936D01*
X51077Y-15936D01*
X50884Y-16016D01*
X50736Y-16163D01*
X50656Y-16356D01*
X50656Y-16565D01*
X50706Y-16687D01*
X49272Y-16687D01*
X48502Y-15916D01*
X48502Y-15891D01*
X48430Y-15720D01*
X49369Y-15720D01*
X49540Y-15686D01*
X49685Y-15589D01*
X51290Y-13983D01*
X51478Y-13906D01*
X51626Y-13759D01*
X51706Y-13566D01*
X51706Y-13357D01*
X51626Y-13164D01*
X51479Y-13016D01*
X51286Y-12936D01*
X51077Y-12936D01*
X50884Y-13016D01*
X50736Y-13163D01*
X50657Y-13352D01*
X49184Y-14826D01*
X48699Y-14826D01*
X48699Y-13747D01*
X48699Y-13529D01*
X48615Y-13327D01*
X48496Y-13208D01*
X48496Y-11355D01*
X48485Y-11142D01*
X48425Y-10995D01*
X48331Y-10968D01*
X48024Y-11276D01*
X48331Y-11584D01*
X48425Y-11557D01*
X48496Y-11355D01*
X48496Y-13208D01*
X48461Y-13173D01*
X48261Y-13089D01*
X48261Y-11654D01*
X47953Y-11347D01*
X47882Y-11417D01*
X47882Y-11276D01*
X47575Y-10968D01*
X47481Y-10995D01*
X47410Y-11197D01*
X47421Y-11410D01*
X47481Y-11557D01*
X47575Y-11584D01*
X47882Y-11276D01*
X47882Y-11417D01*
X47645Y-11654D01*
X47672Y-11748D01*
X47874Y-11819D01*
X48087Y-11808D01*
X48234Y-11748D01*
X48261Y-11654D01*
X48261Y-13089D01*
X48259Y-13089D01*
X48041Y-13089D01*
X47839Y-13173D01*
X47685Y-13327D01*
X47601Y-13529D01*
X47601Y-13747D01*
X47685Y-13949D01*
X47839Y-14103D01*
X48041Y-14187D01*
X48259Y-14187D01*
X48461Y-14103D01*
X48615Y-13949D01*
X48699Y-13747D01*
X48699Y-14826D01*
X48116Y-14826D01*
X46612Y-13322D01*
X46467Y-13225D01*
X46296Y-13191D01*
X46018Y-13191D01*
X46000Y-13173D01*
X45798Y-13089D01*
X45580Y-13089D01*
X45549Y-13101D01*
X45549Y-11975D01*
X45549Y-11757D01*
X45465Y-11555D01*
X45311Y-11401D01*
X45109Y-11317D01*
X44891Y-11317D01*
X44689Y-11401D01*
X44535Y-11555D01*
X44451Y-11757D01*
X44451Y-11975D01*
X44535Y-12177D01*
X44689Y-12331D01*
X44891Y-12415D01*
X45109Y-12415D01*
X45311Y-12331D01*
X45465Y-12177D01*
X45549Y-11975D01*
X45549Y-13101D01*
X45378Y-13173D01*
X45224Y-13327D01*
X45140Y-13529D01*
X45140Y-13747D01*
X45224Y-13949D01*
X45378Y-14103D01*
X45580Y-14187D01*
X45798Y-14187D01*
X46000Y-14103D01*
X46018Y-14085D01*
X46111Y-14085D01*
X46540Y-14514D01*
X44854Y-14514D01*
X44854Y-13717D01*
X44843Y-13504D01*
X44783Y-13357D01*
X44689Y-13330D01*
X44619Y-13400D01*
X44619Y-13260D01*
X44592Y-13166D01*
X44390Y-13095D01*
X44177Y-13106D01*
X44030Y-13166D01*
X44003Y-13260D01*
X44311Y-13567D01*
X44619Y-13260D01*
X44619Y-13400D01*
X44382Y-13638D01*
X44689Y-13946D01*
X44783Y-13919D01*
X44854Y-13717D01*
X44854Y-14514D01*
X44619Y-14514D01*
X44619Y-14016D01*
X44311Y-13709D01*
X44240Y-13779D01*
X44240Y-13638D01*
X43933Y-13330D01*
X43839Y-13357D01*
X43768Y-13559D01*
X43779Y-13772D01*
X43839Y-13919D01*
X43933Y-13946D01*
X44240Y-13638D01*
X44240Y-13779D01*
X44003Y-14016D01*
X44030Y-14110D01*
X44232Y-14181D01*
X44445Y-14170D01*
X44592Y-14110D01*
X44619Y-14016D01*
X44619Y-14514D01*
X42399Y-14514D01*
X42399Y-13747D01*
X42399Y-13529D01*
X42315Y-13327D01*
X42161Y-13173D01*
X41959Y-13089D01*
X41741Y-13089D01*
X41539Y-13173D01*
X41385Y-13327D01*
X41301Y-13529D01*
X41301Y-13747D01*
X41385Y-13949D01*
X41539Y-14103D01*
X41741Y-14187D01*
X41959Y-14187D01*
X42161Y-14103D01*
X42315Y-13949D01*
X42399Y-13747D01*
X42399Y-14514D01*
X39820Y-14514D01*
X39820Y-13491D01*
X39820Y-13282D01*
X39740Y-13089D01*
X39593Y-12941D01*
X39400Y-12861D01*
X39191Y-12861D01*
X38998Y-12941D01*
X38850Y-13088D01*
X38770Y-13281D01*
X38770Y-13490D01*
X38850Y-13683D01*
X38997Y-13831D01*
X39190Y-13911D01*
X39399Y-13911D01*
X39592Y-13831D01*
X39740Y-13684D01*
X39820Y-13491D01*
X39820Y-14514D01*
X39588Y-14514D01*
X39400Y-14436D01*
X39191Y-14436D01*
X38998Y-14516D01*
X38850Y-14663D01*
X38770Y-14856D01*
X38770Y-15065D01*
X38850Y-15258D01*
X38997Y-15406D01*
X39190Y-15486D01*
X39399Y-15486D01*
X39587Y-15408D01*
X46729Y-15408D01*
X47404Y-16083D01*
X47404Y-16109D01*
X47488Y-16311D01*
X47642Y-16465D01*
X47844Y-16549D01*
X47869Y-16549D01*
X48770Y-17450D01*
X48771Y-17450D01*
X48867Y-17514D01*
X48915Y-17546D01*
X48916Y-17547D01*
X49086Y-17580D01*
X49087Y-17581D01*
X51854Y-17581D01*
X51874Y-17576D01*
X52315Y-18018D01*
X52316Y-18018D01*
X52380Y-18060D01*
X52412Y-18082D01*
X52413Y-18083D01*
X52526Y-18105D01*
X52527Y-18106D01*
X53083Y-18106D01*
X54027Y-19050D01*
X53802Y-19050D01*
X53434Y-19202D01*
X53153Y-19483D01*
X53000Y-19850D01*
X53000Y-20248D01*
X53152Y-20616D01*
X53433Y-20897D01*
X53800Y-21050D01*
X54198Y-21050D01*
X54566Y-20898D01*
X54847Y-20617D01*
X55000Y-20250D01*
X55000Y-20023D01*
X57559Y-22582D01*
X57532Y-22594D01*
X57378Y-22748D01*
X57294Y-22950D01*
X57294Y-23168D01*
X57378Y-23370D01*
X57532Y-23524D01*
X57616Y-23559D01*
X57532Y-23594D01*
X57378Y-23748D01*
X57294Y-23950D01*
X57294Y-24168D01*
X57378Y-24370D01*
X57532Y-24524D01*
X57616Y-24559D01*
X57532Y-24594D01*
X57378Y-24748D01*
X57338Y-24842D01*
X56800Y-24303D01*
X56800Y-23160D01*
X56780Y-23064D01*
X56777Y-23046D01*
X56777Y-23045D01*
X56712Y-22949D01*
X55326Y-21563D01*
X55230Y-21498D01*
X55210Y-21494D01*
X55115Y-21475D01*
X42958Y-21475D01*
X42844Y-21498D01*
X42811Y-21520D01*
X42746Y-21563D01*
X42596Y-21713D01*
X42596Y-16109D01*
X42596Y-15891D01*
X42512Y-15689D01*
X42358Y-15535D01*
X42156Y-15451D01*
X41938Y-15451D01*
X41736Y-15535D01*
X41582Y-15689D01*
X41498Y-15891D01*
X41498Y-16109D01*
X41582Y-16311D01*
X41736Y-16465D01*
X41938Y-16549D01*
X42156Y-16549D01*
X42358Y-16465D01*
X42512Y-16311D01*
X42596Y-16109D01*
X42596Y-21713D01*
X42160Y-22149D01*
X42148Y-22144D01*
X41930Y-22144D01*
X41728Y-22228D01*
X41574Y-22382D01*
X41539Y-22466D01*
X41504Y-22382D01*
X41350Y-22228D01*
X41148Y-22144D01*
X40930Y-22144D01*
X40728Y-22228D01*
X40574Y-22382D01*
X40539Y-22466D01*
X40504Y-22382D01*
X40350Y-22228D01*
X40148Y-22144D01*
X40122Y-22144D01*
X38051Y-20073D01*
X38051Y-17402D01*
X38040Y-17189D01*
X37980Y-17042D01*
X37886Y-17015D01*
X37816Y-17085D01*
X37816Y-16945D01*
X37789Y-16851D01*
X37587Y-16780D01*
X37374Y-16791D01*
X37227Y-16851D01*
X37200Y-16945D01*
X37508Y-17252D01*
X37816Y-16945D01*
X37816Y-17085D01*
X37579Y-17323D01*
X37886Y-17631D01*
X37980Y-17604D01*
X38051Y-17402D01*
X38051Y-20073D01*
X37938Y-19960D01*
X37816Y-19878D01*
X37816Y-17701D01*
X37508Y-17394D01*
X37437Y-17464D01*
X37437Y-17323D01*
X37130Y-17015D01*
X37057Y-17035D01*
X37057Y-16974D01*
X37019Y-16882D01*
X36955Y-16818D01*
X36955Y-16629D01*
X36921Y-16458D01*
X36824Y-16313D01*
X36742Y-16231D01*
X36742Y-15254D01*
X36820Y-15066D01*
X36820Y-14857D01*
X36740Y-14664D01*
X36593Y-14516D01*
X36400Y-14436D01*
X36191Y-14436D01*
X35998Y-14516D01*
X35850Y-14663D01*
X35770Y-14856D01*
X35770Y-15065D01*
X35848Y-15253D01*
X35848Y-16416D01*
X35882Y-16587D01*
X35979Y-16732D01*
X36061Y-16814D01*
X36061Y-16818D01*
X35997Y-16882D01*
X35959Y-16973D01*
X35959Y-17072D01*
X35959Y-17672D01*
X35997Y-17764D01*
X36067Y-17834D01*
X36158Y-17872D01*
X36257Y-17872D01*
X36857Y-17872D01*
X36949Y-17834D01*
X37019Y-17764D01*
X37057Y-17673D01*
X37057Y-17610D01*
X37130Y-17631D01*
X37437Y-17323D01*
X37437Y-17464D01*
X37200Y-17701D01*
X37227Y-17795D01*
X37429Y-17866D01*
X37642Y-17855D01*
X37789Y-17795D01*
X37816Y-17701D01*
X37816Y-19878D01*
X37793Y-19863D01*
X37622Y-19829D01*
X34954Y-19829D01*
X34890Y-19765D01*
X34799Y-19727D01*
X34700Y-19727D01*
X34100Y-19727D01*
X34008Y-19765D01*
X33938Y-19835D01*
X33900Y-19926D01*
X33900Y-20025D01*
X33900Y-20625D01*
X33938Y-20717D01*
X34008Y-20787D01*
X34099Y-20825D01*
X34198Y-20825D01*
X34798Y-20825D01*
X34890Y-20787D01*
X34954Y-20723D01*
X37437Y-20723D01*
X38879Y-22165D01*
X38728Y-22228D01*
X38574Y-22382D01*
X38539Y-22466D01*
X38504Y-22382D01*
X38350Y-22228D01*
X38148Y-22144D01*
X37930Y-22144D01*
X37728Y-22228D01*
X37574Y-22382D01*
X37539Y-22466D01*
X37504Y-22382D01*
X37350Y-22228D01*
X37148Y-22144D01*
X36930Y-22144D01*
X36728Y-22228D01*
X36574Y-22382D01*
X36539Y-22466D01*
X36504Y-22382D01*
X36350Y-22228D01*
X36148Y-22144D01*
X35930Y-22144D01*
X35728Y-22228D01*
X35574Y-22382D01*
X35539Y-22466D01*
X35504Y-22382D01*
X35350Y-22228D01*
X35148Y-22144D01*
X34930Y-22144D01*
X34728Y-22228D01*
X34574Y-22382D01*
X34539Y-22466D01*
X34504Y-22382D01*
X34350Y-22228D01*
X34148Y-22144D01*
X34122Y-22144D01*
X33742Y-21764D01*
X33742Y-18455D01*
X33708Y-18284D01*
X33611Y-18139D01*
X33446Y-17974D01*
X33301Y-17877D01*
X33130Y-17843D01*
X29147Y-17843D01*
X28976Y-17877D01*
X28927Y-17909D01*
X28830Y-17974D01*
X28462Y-18342D01*
X28377Y-18342D01*
X28157Y-18433D01*
X27996Y-18594D01*
X27835Y-18433D01*
X27615Y-18342D01*
X27377Y-18342D01*
X27157Y-18433D01*
X26996Y-18594D01*
X26835Y-18433D01*
X26615Y-18342D01*
X26377Y-18342D01*
X26157Y-18433D01*
X25996Y-18594D01*
X25835Y-18433D01*
X25615Y-18342D01*
X25377Y-18342D01*
X25269Y-18386D01*
X25269Y-18220D01*
X26450Y-17039D01*
X33065Y-17039D01*
X33236Y-17005D01*
X33381Y-16908D01*
X33495Y-16794D01*
X33592Y-16649D01*
X33626Y-16478D01*
X33626Y-15686D01*
X35785Y-13527D01*
X35850Y-13683D01*
X35997Y-13831D01*
X36190Y-13911D01*
X36399Y-13911D01*
X36592Y-13831D01*
X36740Y-13684D01*
X36820Y-13491D01*
X36820Y-13282D01*
X36740Y-13089D01*
X36593Y-12941D01*
X36436Y-12876D01*
X36654Y-12658D01*
X37364Y-12658D01*
X37535Y-12624D01*
X37680Y-12527D01*
X38419Y-11788D01*
X38516Y-11643D01*
X38550Y-11472D01*
X38550Y-10854D01*
X41693Y-10854D01*
X41582Y-10965D01*
X41498Y-11167D01*
X41498Y-11385D01*
X41582Y-11587D01*
X41736Y-11741D01*
X41938Y-11825D01*
X42156Y-11825D01*
X42358Y-11741D01*
X42512Y-11587D01*
X42596Y-11385D01*
X42596Y-11167D01*
X42512Y-10965D01*
X42401Y-10854D01*
X47657Y-10854D01*
X47645Y-10898D01*
X47953Y-11205D01*
X48261Y-10898D01*
X48248Y-10854D01*
X52153Y-10854D01*
X54180Y-12880D01*
X54109Y-12851D01*
X53891Y-12851D01*
X53689Y-12935D01*
X53549Y-13074D01*
X53550Y-12962D01*
X53550Y-12738D01*
X53549Y-12501D01*
X53511Y-12409D01*
X53441Y-12339D01*
X53350Y-12301D01*
X53251Y-12301D01*
X53112Y-12300D01*
X53050Y-12362D01*
X53050Y-12800D01*
X53488Y-12800D01*
X53550Y-12738D01*
X53550Y-12962D01*
X53488Y-12900D01*
X53050Y-12900D01*
X53050Y-13338D01*
X53112Y-13400D01*
X53251Y-13399D01*
X53350Y-13399D01*
X53441Y-13361D01*
X53451Y-13351D01*
X53451Y-13509D01*
X53535Y-13711D01*
X53689Y-13865D01*
X53891Y-13949D01*
X54109Y-13949D01*
X54121Y-13943D01*
X54143Y-13965D01*
X54109Y-13951D01*
X53891Y-13951D01*
X53689Y-14035D01*
X53535Y-14189D01*
X53451Y-14391D01*
X53451Y-14609D01*
X53535Y-14811D01*
X53689Y-14965D01*
X53833Y-15025D01*
X53689Y-15085D01*
X53549Y-15225D01*
X53549Y-15109D01*
X53549Y-14891D01*
X53465Y-14689D01*
X53311Y-14535D01*
X53166Y-14475D01*
X53311Y-14415D01*
X53465Y-14261D01*
X53549Y-14059D01*
X53549Y-13841D01*
X53465Y-13639D01*
X53311Y-13485D01*
X53109Y-13401D01*
X52950Y-13401D01*
X52950Y-13338D01*
X52950Y-12900D01*
X52950Y-12800D01*
X52950Y-12362D01*
X52888Y-12300D01*
X52749Y-12301D01*
X52650Y-12301D01*
X52559Y-12339D01*
X52489Y-12409D01*
X52451Y-12501D01*
X52450Y-12738D01*
X52512Y-12800D01*
X52950Y-12800D01*
X52950Y-12900D01*
X52512Y-12900D01*
X52450Y-12962D01*
X52451Y-13199D01*
X52489Y-13291D01*
X52559Y-13361D01*
X52650Y-13399D01*
X52749Y-13399D01*
X52888Y-13400D01*
X52950Y-13338D01*
X52950Y-13401D01*
X52891Y-13401D01*
X52689Y-13485D01*
X52535Y-13639D01*
X52451Y-13841D01*
X52451Y-14059D01*
X52535Y-14261D01*
X52689Y-14415D01*
X52833Y-14475D01*
X52689Y-14535D01*
X52535Y-14689D01*
X52451Y-14891D01*
X52451Y-15109D01*
X52535Y-15311D01*
X52689Y-15465D01*
X52891Y-15549D01*
X53109Y-15549D01*
X53311Y-15465D01*
X53465Y-15311D01*
X53549Y-15109D01*
X53549Y-15225D01*
X53535Y-15239D01*
X53451Y-15441D01*
X53451Y-15659D01*
X53535Y-15861D01*
X53689Y-16015D01*
X53891Y-16099D01*
X54109Y-16099D01*
X54311Y-16015D01*
X54465Y-15861D01*
X54549Y-15659D01*
X54549Y-15441D01*
X54465Y-15239D01*
X54311Y-15085D01*
X54166Y-15025D01*
X54311Y-14965D01*
X54465Y-14811D01*
X54549Y-14609D01*
X54549Y-14391D01*
X54534Y-14356D01*
X58520Y-18342D01*
X58520Y-22297D01*
X58520Y-22297D01*
G37*
G54D32*
X58520Y-22297D02*
X54549Y-18326D01*
X54549Y-16759D01*
X54549Y-16541D01*
X54465Y-16339D01*
X54311Y-16185D01*
X54109Y-16101D01*
X53891Y-16101D01*
X53689Y-16185D01*
X53549Y-16325D01*
X53549Y-16209D01*
X53549Y-15991D01*
X53465Y-15789D01*
X53311Y-15635D01*
X53109Y-15551D01*
X52891Y-15551D01*
X52689Y-15635D01*
X52535Y-15789D01*
X52451Y-15991D01*
X52451Y-16209D01*
X52535Y-16411D01*
X52689Y-16565D01*
X52891Y-16649D01*
X53109Y-16649D01*
X53311Y-16565D01*
X53465Y-16411D01*
X53549Y-16209D01*
X53549Y-16325D01*
X53535Y-16339D01*
X53451Y-16541D01*
X53451Y-16759D01*
X53535Y-16961D01*
X53689Y-17115D01*
X53891Y-17199D01*
X54109Y-17199D01*
X54311Y-17115D01*
X54465Y-16961D01*
X54549Y-16759D01*
X54549Y-18326D01*
X53543Y-17321D01*
X53549Y-17309D01*
X53549Y-17091D01*
X53465Y-16889D01*
X53311Y-16735D01*
X53109Y-16651D01*
X52891Y-16651D01*
X52689Y-16735D01*
X52535Y-16889D01*
X52451Y-17091D01*
X52451Y-17308D01*
X52296Y-17154D01*
X52301Y-17134D01*
X52267Y-16963D01*
X52170Y-16818D01*
X52025Y-16721D01*
X51854Y-16687D01*
X51829Y-16687D01*
X51706Y-16563D01*
X51706Y-16357D01*
X51626Y-16164D01*
X51479Y-16016D01*
X51286Y-15936D01*
X51077Y-15936D01*
X50884Y-16016D01*
X50736Y-16163D01*
X50656Y-16356D01*
X50656Y-16565D01*
X50706Y-16687D01*
X49272Y-16687D01*
X48502Y-15916D01*
X48502Y-15891D01*
X48430Y-15720D01*
X49369Y-15720D01*
X49540Y-15686D01*
X49685Y-15589D01*
X51290Y-13983D01*
X51478Y-13906D01*
X51626Y-13759D01*
X51706Y-13566D01*
X51706Y-13357D01*
X51626Y-13164D01*
X51479Y-13016D01*
X51286Y-12936D01*
X51077Y-12936D01*
X50884Y-13016D01*
X50736Y-13163D01*
X50657Y-13352D01*
X49184Y-14826D01*
X48699Y-14826D01*
X48699Y-13747D01*
X48699Y-13529D01*
X48615Y-13327D01*
X48496Y-13208D01*
X48496Y-11355D01*
X48485Y-11142D01*
X48425Y-10995D01*
X48331Y-10968D01*
X48024Y-11276D01*
X48331Y-11584D01*
X48425Y-11557D01*
X48496Y-11355D01*
X48496Y-13208D01*
X48461Y-13173D01*
X48261Y-13089D01*
X48261Y-11654D01*
X47953Y-11347D01*
X47882Y-11417D01*
X47882Y-11276D01*
X47575Y-10968D01*
X47481Y-10995D01*
X47410Y-11197D01*
X47421Y-11410D01*
X47481Y-11557D01*
X47575Y-11584D01*
X47882Y-11276D01*
X47882Y-11417D01*
X47645Y-11654D01*
X47672Y-11748D01*
X47874Y-11819D01*
X48087Y-11808D01*
X48234Y-11748D01*
X48261Y-11654D01*
X48261Y-13089D01*
X48259Y-13089D01*
X48041Y-13089D01*
X47839Y-13173D01*
X47685Y-13327D01*
X47601Y-13529D01*
X47601Y-13747D01*
X47685Y-13949D01*
X47839Y-14103D01*
X48041Y-14187D01*
X48259Y-14187D01*
X48461Y-14103D01*
X48615Y-13949D01*
X48699Y-13747D01*
X48699Y-14826D01*
X48116Y-14826D01*
X46612Y-13322D01*
X46467Y-13225D01*
X46296Y-13191D01*
X46018Y-13191D01*
X46000Y-13173D01*
X45798Y-13089D01*
X45580Y-13089D01*
X45549Y-13101D01*
X45549Y-11975D01*
X45549Y-11757D01*
X45465Y-11555D01*
X45311Y-11401D01*
X45109Y-11317D01*
X44891Y-11317D01*
X44689Y-11401D01*
X44535Y-11555D01*
X44451Y-11757D01*
X44451Y-11975D01*
X44535Y-12177D01*
X44689Y-12331D01*
X44891Y-12415D01*
X45109Y-12415D01*
X45311Y-12331D01*
X45465Y-12177D01*
X45549Y-11975D01*
X45549Y-13101D01*
X45378Y-13173D01*
X45224Y-13327D01*
X45140Y-13529D01*
X45140Y-13747D01*
X45224Y-13949D01*
X45378Y-14103D01*
X45580Y-14187D01*
X45798Y-14187D01*
X46000Y-14103D01*
X46018Y-14085D01*
X46111Y-14085D01*
X46540Y-14514D01*
X44854Y-14514D01*
X44854Y-13717D01*
X44843Y-13504D01*
X44783Y-13357D01*
X44689Y-13330D01*
X44619Y-13400D01*
X44619Y-13260D01*
X44592Y-13166D01*
X44390Y-13095D01*
X44177Y-13106D01*
X44030Y-13166D01*
X44003Y-13260D01*
X44311Y-13567D01*
X44619Y-13260D01*
X44619Y-13400D01*
X44382Y-13638D01*
X44689Y-13946D01*
X44783Y-13919D01*
X44854Y-13717D01*
X44854Y-14514D01*
X44619Y-14514D01*
X44619Y-14016D01*
X44311Y-13709D01*
X44240Y-13779D01*
X44240Y-13638D01*
X43933Y-13330D01*
X43839Y-13357D01*
X43768Y-13559D01*
X43779Y-13772D01*
X43839Y-13919D01*
X43933Y-13946D01*
X44240Y-13638D01*
X44240Y-13779D01*
X44003Y-14016D01*
X44030Y-14110D01*
X44232Y-14181D01*
X44445Y-14170D01*
X44592Y-14110D01*
X44619Y-14016D01*
X44619Y-14514D01*
X42399Y-14514D01*
X42399Y-13747D01*
X42399Y-13529D01*
X42315Y-13327D01*
X42161Y-13173D01*
X41959Y-13089D01*
X41741Y-13089D01*
X41539Y-13173D01*
X41385Y-13327D01*
X41301Y-13529D01*
X41301Y-13747D01*
X41385Y-13949D01*
X41539Y-14103D01*
X41741Y-14187D01*
X41959Y-14187D01*
X42161Y-14103D01*
X42315Y-13949D01*
X42399Y-13747D01*
X42399Y-14514D01*
X39820Y-14514D01*
X39820Y-13491D01*
X39820Y-13282D01*
X39740Y-13089D01*
X39593Y-12941D01*
X39400Y-12861D01*
X39191Y-12861D01*
X38998Y-12941D01*
X38850Y-13088D01*
X38770Y-13281D01*
X38770Y-13490D01*
X38850Y-13683D01*
X38997Y-13831D01*
X39190Y-13911D01*
X39399Y-13911D01*
X39592Y-13831D01*
X39740Y-13684D01*
X39820Y-13491D01*
X39820Y-14514D01*
X39588Y-14514D01*
X39400Y-14436D01*
X39191Y-14436D01*
X38998Y-14516D01*
X38850Y-14663D01*
X38770Y-14856D01*
X38770Y-15065D01*
X38850Y-15258D01*
X38997Y-15406D01*
X39190Y-15486D01*
X39399Y-15486D01*
X39587Y-15408D01*
X46729Y-15408D01*
X47404Y-16083D01*
X47404Y-16109D01*
X47488Y-16311D01*
X47642Y-16465D01*
X47844Y-16549D01*
X47869Y-16549D01*
X48770Y-17450D01*
X48771Y-17450D01*
X48867Y-17514D01*
X48915Y-17546D01*
X48916Y-17547D01*
X49086Y-17580D01*
X49087Y-17581D01*
X51854Y-17581D01*
X51874Y-17576D01*
X52315Y-18018D01*
X52316Y-18018D01*
X52380Y-18060D01*
X52412Y-18082D01*
X52413Y-18083D01*
X52526Y-18105D01*
X52527Y-18106D01*
X53083Y-18106D01*
X54027Y-19050D01*
X53802Y-19050D01*
X53434Y-19202D01*
X53153Y-19483D01*
X53000Y-19850D01*
X53000Y-20248D01*
X53152Y-20616D01*
X53433Y-20897D01*
X53800Y-21050D01*
X54198Y-21050D01*
X54566Y-20898D01*
X54847Y-20617D01*
X55000Y-20250D01*
X55000Y-20023D01*
X57559Y-22582D01*
X57532Y-22594D01*
X57378Y-22748D01*
X57294Y-22950D01*
X57294Y-23168D01*
X57378Y-23370D01*
X57532Y-23524D01*
X57616Y-23559D01*
X57532Y-23594D01*
X57378Y-23748D01*
X57294Y-23950D01*
X57294Y-24168D01*
X57378Y-24370D01*
X57532Y-24524D01*
X57616Y-24559D01*
X57532Y-24594D01*
X57378Y-24748D01*
X57338Y-24842D01*
X56800Y-24303D01*
X56800Y-23160D01*
X56780Y-23064D01*
X56777Y-23046D01*
X56777Y-23045D01*
X56712Y-22949D01*
X55326Y-21563D01*
X55230Y-21498D01*
X55210Y-21494D01*
X55115Y-21475D01*
X42958Y-21475D01*
X42844Y-21498D01*
X42811Y-21520D01*
X42746Y-21563D01*
X42596Y-21713D01*
X42596Y-16109D01*
X42596Y-15891D01*
X42512Y-15689D01*
X42358Y-15535D01*
X42156Y-15451D01*
X41938Y-15451D01*
X41736Y-15535D01*
X41582Y-15689D01*
X41498Y-15891D01*
X41498Y-16109D01*
X41582Y-16311D01*
X41736Y-16465D01*
X41938Y-16549D01*
X42156Y-16549D01*
X42358Y-16465D01*
X42512Y-16311D01*
X42596Y-16109D01*
X42596Y-21713D01*
X42160Y-22149D01*
X42148Y-22144D01*
X41930Y-22144D01*
X41728Y-22228D01*
X41574Y-22382D01*
X41539Y-22466D01*
X41504Y-22382D01*
X41350Y-22228D01*
X41148Y-22144D01*
X40930Y-22144D01*
X40728Y-22228D01*
X40574Y-22382D01*
X40539Y-22466D01*
X40504Y-22382D01*
X40350Y-22228D01*
X40148Y-22144D01*
X40122Y-22144D01*
X38051Y-20073D01*
X38051Y-17402D01*
X38040Y-17189D01*
X37980Y-17042D01*
X37886Y-17015D01*
X37816Y-17085D01*
X37816Y-16945D01*
X37789Y-16851D01*
X37587Y-16780D01*
X37374Y-16791D01*
X37227Y-16851D01*
X37200Y-16945D01*
X37508Y-17252D01*
X37816Y-16945D01*
X37816Y-17085D01*
X37579Y-17323D01*
X37886Y-17631D01*
X37980Y-17604D01*
X38051Y-17402D01*
X38051Y-20073D01*
X37938Y-19960D01*
X37816Y-19878D01*
X37816Y-17701D01*
X37508Y-17394D01*
X37437Y-17464D01*
X37437Y-17323D01*
X37130Y-17015D01*
X37057Y-17035D01*
X37057Y-16974D01*
X37019Y-16882D01*
X36955Y-16818D01*
X36955Y-16629D01*
X36921Y-16458D01*
X36824Y-16313D01*
X36742Y-16231D01*
X36742Y-15254D01*
X36820Y-15066D01*
X36820Y-14857D01*
X36740Y-14664D01*
X36593Y-14516D01*
X36400Y-14436D01*
X36191Y-14436D01*
X35998Y-14516D01*
X35850Y-14663D01*
X35770Y-14856D01*
X35770Y-15065D01*
X35848Y-15253D01*
X35848Y-16416D01*
X35882Y-16587D01*
X35979Y-16732D01*
X36061Y-16814D01*
X36061Y-16818D01*
X35997Y-16882D01*
X35959Y-16973D01*
X35959Y-17072D01*
X35959Y-17672D01*
X35997Y-17764D01*
X36067Y-17834D01*
X36158Y-17872D01*
X36257Y-17872D01*
X36857Y-17872D01*
X36949Y-17834D01*
X37019Y-17764D01*
X37057Y-17673D01*
X37057Y-17610D01*
X37130Y-17631D01*
X37437Y-17323D01*
X37437Y-17464D01*
X37200Y-17701D01*
X37227Y-17795D01*
X37429Y-17866D01*
X37642Y-17855D01*
X37789Y-17795D01*
X37816Y-17701D01*
X37816Y-19878D01*
X37793Y-19863D01*
X37622Y-19829D01*
X34954Y-19829D01*
X34890Y-19765D01*
X34799Y-19727D01*
X34700Y-19727D01*
X34100Y-19727D01*
X34008Y-19765D01*
X33938Y-19835D01*
X33900Y-19926D01*
X33900Y-20025D01*
X33900Y-20625D01*
X33938Y-20717D01*
X34008Y-20787D01*
X34099Y-20825D01*
X34198Y-20825D01*
X34798Y-20825D01*
X34890Y-20787D01*
X34954Y-20723D01*
X37437Y-20723D01*
X38879Y-22165D01*
X38728Y-22228D01*
X38574Y-22382D01*
X38539Y-22466D01*
X38504Y-22382D01*
X38350Y-22228D01*
X38148Y-22144D01*
X37930Y-22144D01*
X37728Y-22228D01*
X37574Y-22382D01*
X37539Y-22466D01*
X37504Y-22382D01*
X37350Y-22228D01*
X37148Y-22144D01*
X36930Y-22144D01*
X36728Y-22228D01*
X36574Y-22382D01*
X36539Y-22466D01*
X36504Y-22382D01*
X36350Y-22228D01*
X36148Y-22144D01*
X35930Y-22144D01*
X35728Y-22228D01*
X35574Y-22382D01*
X35539Y-22466D01*
X35504Y-22382D01*
X35350Y-22228D01*
X35148Y-22144D01*
X34930Y-22144D01*
X34728Y-22228D01*
X34574Y-22382D01*
X34539Y-22466D01*
X34504Y-22382D01*
X34350Y-22228D01*
X34148Y-22144D01*
X34122Y-22144D01*
X33742Y-21764D01*
X33742Y-18455D01*
X33708Y-18284D01*
X33611Y-18139D01*
X33446Y-17974D01*
X33301Y-17877D01*
X33130Y-17843D01*
X29147Y-17843D01*
X28976Y-17877D01*
X28927Y-17909D01*
X28830Y-17974D01*
X28462Y-18342D01*
X28377Y-18342D01*
X28157Y-18433D01*
X27996Y-18594D01*
X27835Y-18433D01*
X27615Y-18342D01*
X27377Y-18342D01*
X27157Y-18433D01*
X26996Y-18594D01*
X26835Y-18433D01*
X26615Y-18342D01*
X26377Y-18342D01*
X26157Y-18433D01*
X25996Y-18594D01*
X25835Y-18433D01*
X25615Y-18342D01*
X25377Y-18342D01*
X25269Y-18386D01*
X25269Y-18220D01*
X26450Y-17039D01*
X33065Y-17039D01*
X33236Y-17005D01*
X33381Y-16908D01*
X33495Y-16794D01*
X33592Y-16649D01*
X33626Y-16478D01*
X33626Y-15686D01*
X35785Y-13527D01*
X35850Y-13683D01*
X35997Y-13831D01*
X36190Y-13911D01*
X36399Y-13911D01*
X36592Y-13831D01*
X36740Y-13684D01*
X36820Y-13491D01*
X36820Y-13282D01*
X36740Y-13089D01*
X36593Y-12941D01*
X36436Y-12876D01*
X36654Y-12658D01*
X37364Y-12658D01*
X37535Y-12624D01*
X37680Y-12527D01*
X38419Y-11788D01*
X38516Y-11643D01*
X38550Y-11472D01*
X38550Y-10854D01*
X41693Y-10854D01*
X41582Y-10965D01*
X41498Y-11167D01*
X41498Y-11385D01*
X41582Y-11587D01*
X41736Y-11741D01*
X41938Y-11825D01*
X42156Y-11825D01*
X42358Y-11741D01*
X42512Y-11587D01*
X42596Y-11385D01*
X42596Y-11167D01*
X42512Y-10965D01*
X42401Y-10854D01*
X47657Y-10854D01*
X47645Y-10898D01*
X47953Y-11205D01*
X48261Y-10898D01*
X48248Y-10854D01*
X52153Y-10854D01*
X54180Y-12880D01*
X54109Y-12851D01*
X53891Y-12851D01*
X53689Y-12935D01*
X53549Y-13074D01*
X53550Y-12962D01*
X53550Y-12738D01*
X53549Y-12501D01*
X53511Y-12409D01*
X53441Y-12339D01*
X53350Y-12301D01*
X53251Y-12301D01*
X53112Y-12300D01*
X53050Y-12362D01*
X53050Y-12800D01*
X53488Y-12800D01*
X53550Y-12738D01*
X53550Y-12962D01*
X53488Y-12900D01*
X53050Y-12900D01*
X53050Y-13338D01*
X53112Y-13400D01*
X53251Y-13399D01*
X53350Y-13399D01*
X53441Y-13361D01*
X53451Y-13351D01*
X53451Y-13509D01*
X53535Y-13711D01*
X53689Y-13865D01*
X53891Y-13949D01*
X54109Y-13949D01*
X54121Y-13943D01*
X54143Y-13965D01*
X54109Y-13951D01*
X53891Y-13951D01*
X53689Y-14035D01*
X53535Y-14189D01*
X53451Y-14391D01*
X53451Y-14609D01*
X53535Y-14811D01*
X53689Y-14965D01*
X53833Y-15025D01*
X53689Y-15085D01*
X53549Y-15225D01*
X53549Y-15109D01*
X53549Y-14891D01*
X53465Y-14689D01*
X53311Y-14535D01*
X53166Y-14475D01*
X53311Y-14415D01*
X53465Y-14261D01*
X53549Y-14059D01*
X53549Y-13841D01*
X53465Y-13639D01*
X53311Y-13485D01*
X53109Y-13401D01*
X52950Y-13401D01*
X52950Y-13338D01*
X52950Y-12900D01*
X52950Y-12800D01*
X52950Y-12362D01*
X52888Y-12300D01*
X52749Y-12301D01*
X52650Y-12301D01*
X52559Y-12339D01*
X52489Y-12409D01*
X52451Y-12501D01*
X52450Y-12738D01*
X52512Y-12800D01*
X52950Y-12800D01*
X52950Y-12900D01*
X52512Y-12900D01*
X52450Y-12962D01*
X52451Y-13199D01*
X52489Y-13291D01*
X52559Y-13361D01*
X52650Y-13399D01*
X52749Y-13399D01*
X52888Y-13400D01*
X52950Y-13338D01*
X52950Y-13401D01*
X52891Y-13401D01*
X52689Y-13485D01*
X52535Y-13639D01*
X52451Y-13841D01*
X52451Y-14059D01*
X52535Y-14261D01*
X52689Y-14415D01*
X52833Y-14475D01*
X52689Y-14535D01*
X52535Y-14689D01*
X52451Y-14891D01*
X52451Y-15109D01*
X52535Y-15311D01*
X52689Y-15465D01*
X52891Y-15549D01*
X53109Y-15549D01*
X53311Y-15465D01*
X53465Y-15311D01*
X53549Y-15109D01*
X53549Y-15225D01*
X53535Y-15239D01*
X53451Y-15441D01*
X53451Y-15659D01*
X53535Y-15861D01*
X53689Y-16015D01*
X53891Y-16099D01*
X54109Y-16099D01*
X54311Y-16015D01*
X54465Y-15861D01*
X54549Y-15659D01*
X54549Y-15441D01*
X54465Y-15239D01*
X54311Y-15085D01*
X54166Y-15025D01*
X54311Y-14965D01*
X54465Y-14811D01*
X54549Y-14609D01*
X54549Y-14391D01*
X54534Y-14356D01*
X58520Y-18342D01*
X58520Y-22297D01*
G54D10*
G36*
X60422Y-48769D02*
X60210Y-48769D01*
X60210Y-42896D01*
X60210Y-42687D01*
X60130Y-42494D01*
X59983Y-42346D01*
X59849Y-42290D01*
X59982Y-42236D01*
X60130Y-42089D01*
X60210Y-41896D01*
X60210Y-41687D01*
X60130Y-41494D01*
X59983Y-41346D01*
X59849Y-41290D01*
X59982Y-41236D01*
X60130Y-41089D01*
X60210Y-40896D01*
X60210Y-40687D01*
X60130Y-40494D01*
X59983Y-40346D01*
X59849Y-40290D01*
X59982Y-40236D01*
X60130Y-40089D01*
X60210Y-39896D01*
X60210Y-39687D01*
X60130Y-39494D01*
X59983Y-39346D01*
X59849Y-39290D01*
X59982Y-39236D01*
X60130Y-39089D01*
X60210Y-38896D01*
X60210Y-38687D01*
X60130Y-38494D01*
X59983Y-38346D01*
X59849Y-38290D01*
X59982Y-38236D01*
X60130Y-38089D01*
X60210Y-37896D01*
X60210Y-37687D01*
X60130Y-37494D01*
X59983Y-37346D01*
X59849Y-37290D01*
X59982Y-37236D01*
X60130Y-37089D01*
X60210Y-36896D01*
X60210Y-36687D01*
X60130Y-36494D01*
X59983Y-36346D01*
X59849Y-36290D01*
X59982Y-36236D01*
X60130Y-36089D01*
X60210Y-35896D01*
X60210Y-35687D01*
X60130Y-35494D01*
X59983Y-35346D01*
X59849Y-35290D01*
X59982Y-35236D01*
X60130Y-35089D01*
X60210Y-34896D01*
X60210Y-34687D01*
X60130Y-34494D01*
X59983Y-34346D01*
X59790Y-34266D01*
X59581Y-34266D01*
X59392Y-34344D01*
X58517Y-34344D01*
X58499Y-34326D01*
X58297Y-34242D01*
X58079Y-34242D01*
X57773Y-34242D01*
X57571Y-34326D01*
X57417Y-34480D01*
X57333Y-34682D01*
X57333Y-34900D01*
X57417Y-35102D01*
X57571Y-35256D01*
X57655Y-35291D01*
X57571Y-35326D01*
X57417Y-35480D01*
X57333Y-35682D01*
X57333Y-35900D01*
X57417Y-36102D01*
X57571Y-36256D01*
X57655Y-36291D01*
X57571Y-36326D01*
X57417Y-36480D01*
X57333Y-36682D01*
X57333Y-36900D01*
X57417Y-37102D01*
X57571Y-37256D01*
X57655Y-37291D01*
X57571Y-37326D01*
X57417Y-37480D01*
X57333Y-37682D01*
X57333Y-37900D01*
X57417Y-38102D01*
X57571Y-38256D01*
X57655Y-38291D01*
X57571Y-38326D01*
X57417Y-38480D01*
X57333Y-38682D01*
X57333Y-38900D01*
X57417Y-39102D01*
X57571Y-39256D01*
X57655Y-39291D01*
X57571Y-39326D01*
X57417Y-39480D01*
X57333Y-39682D01*
X57333Y-39900D01*
X57417Y-40102D01*
X57571Y-40256D01*
X57655Y-40291D01*
X57571Y-40326D01*
X57417Y-40480D01*
X57333Y-40682D01*
X57333Y-40900D01*
X57417Y-41102D01*
X57571Y-41256D01*
X57655Y-41291D01*
X57571Y-41326D01*
X57417Y-41480D01*
X57333Y-41682D01*
X57333Y-41900D01*
X57417Y-42102D01*
X57571Y-42256D01*
X57655Y-42291D01*
X57571Y-42326D01*
X57417Y-42480D01*
X57333Y-42682D01*
X57333Y-42900D01*
X57417Y-43102D01*
X57571Y-43256D01*
X57655Y-43291D01*
X57571Y-43326D01*
X57417Y-43480D01*
X57333Y-43682D01*
X57333Y-43900D01*
X57417Y-44102D01*
X57571Y-44256D01*
X57773Y-44340D01*
X57991Y-44340D01*
X58297Y-44340D01*
X58499Y-44256D01*
X58517Y-44238D01*
X59230Y-44238D01*
X59269Y-44277D01*
X59360Y-44315D01*
X59459Y-44315D01*
X60009Y-44315D01*
X60101Y-44277D01*
X60171Y-44207D01*
X60209Y-44116D01*
X60209Y-44017D01*
X60209Y-43467D01*
X60171Y-43375D01*
X60101Y-43305D01*
X60010Y-43267D01*
X59911Y-43267D01*
X59907Y-43267D01*
X59982Y-43236D01*
X60130Y-43089D01*
X60210Y-42896D01*
X60210Y-48769D01*
X57415Y-48769D01*
X57690Y-48495D01*
X57850Y-48110D01*
X57850Y-47692D01*
X57690Y-47306D01*
X57657Y-47272D01*
X57657Y-45906D01*
X57646Y-45693D01*
X57586Y-45546D01*
X57492Y-45519D01*
X57422Y-45589D01*
X57422Y-45449D01*
X57395Y-45355D01*
X57193Y-45284D01*
X56980Y-45295D01*
X56833Y-45355D01*
X56806Y-45449D01*
X57114Y-45756D01*
X57422Y-45449D01*
X57422Y-45589D01*
X57185Y-45827D01*
X57492Y-46135D01*
X57586Y-46108D01*
X57657Y-45906D01*
X57657Y-47272D01*
X57422Y-47037D01*
X57422Y-46205D01*
X57114Y-45898D01*
X57043Y-45968D01*
X57043Y-45827D01*
X56736Y-45519D01*
X56663Y-45539D01*
X56663Y-45478D01*
X56625Y-45386D01*
X56555Y-45316D01*
X56464Y-45278D01*
X56365Y-45278D01*
X55765Y-45278D01*
X55737Y-45289D01*
X55737Y-43900D01*
X55737Y-43682D01*
X55653Y-43480D01*
X55499Y-43326D01*
X55414Y-43291D01*
X55499Y-43256D01*
X55653Y-43102D01*
X55737Y-42900D01*
X55737Y-42682D01*
X55653Y-42480D01*
X55499Y-42326D01*
X55414Y-42291D01*
X55499Y-42256D01*
X55653Y-42102D01*
X55737Y-41900D01*
X55737Y-41682D01*
X55653Y-41480D01*
X55499Y-41326D01*
X55414Y-41291D01*
X55499Y-41256D01*
X55653Y-41102D01*
X55737Y-40900D01*
X55737Y-40682D01*
X55653Y-40480D01*
X55499Y-40326D01*
X55414Y-40291D01*
X55499Y-40256D01*
X55653Y-40102D01*
X55737Y-39900D01*
X55737Y-39682D01*
X55653Y-39480D01*
X55499Y-39326D01*
X55414Y-39291D01*
X55499Y-39256D01*
X55653Y-39102D01*
X55737Y-38900D01*
X55737Y-38682D01*
X55653Y-38480D01*
X55499Y-38326D01*
X55414Y-38291D01*
X55499Y-38256D01*
X55653Y-38102D01*
X55737Y-37900D01*
X55737Y-37682D01*
X55653Y-37480D01*
X55499Y-37326D01*
X55414Y-37291D01*
X55499Y-37256D01*
X55653Y-37102D01*
X55737Y-36900D01*
X55737Y-36682D01*
X55653Y-36480D01*
X55499Y-36326D01*
X55414Y-36291D01*
X55499Y-36256D01*
X55653Y-36102D01*
X55737Y-35900D01*
X55737Y-35682D01*
X55653Y-35480D01*
X55523Y-35350D01*
X55534Y-35350D01*
X55626Y-35312D01*
X55696Y-35242D01*
X55734Y-35151D01*
X55734Y-35052D01*
X55734Y-34432D01*
X55696Y-34340D01*
X55626Y-34270D01*
X55535Y-34232D01*
X55436Y-34232D01*
X54536Y-34232D01*
X54444Y-34270D01*
X54374Y-34340D01*
X54372Y-34344D01*
X53841Y-34344D01*
X53802Y-34305D01*
X53711Y-34267D01*
X53612Y-34267D01*
X53062Y-34267D01*
X52970Y-34305D01*
X52900Y-34375D01*
X52862Y-34466D01*
X52862Y-34565D01*
X52862Y-35115D01*
X52900Y-35207D01*
X52970Y-35277D01*
X53061Y-35315D01*
X53160Y-35315D01*
X53089Y-35346D01*
X52941Y-35493D01*
X52861Y-35686D01*
X52861Y-35895D01*
X52941Y-36088D01*
X53088Y-36236D01*
X53221Y-36291D01*
X53089Y-36346D01*
X52941Y-36493D01*
X52861Y-36686D01*
X52861Y-36895D01*
X52941Y-37088D01*
X53088Y-37236D01*
X53221Y-37291D01*
X53089Y-37346D01*
X52941Y-37493D01*
X52861Y-37686D01*
X52861Y-37895D01*
X52941Y-38088D01*
X53088Y-38236D01*
X53221Y-38291D01*
X53089Y-38346D01*
X52941Y-38493D01*
X52861Y-38686D01*
X52861Y-38895D01*
X52941Y-39088D01*
X53088Y-39236D01*
X53221Y-39291D01*
X53089Y-39346D01*
X52941Y-39493D01*
X52861Y-39686D01*
X52861Y-39895D01*
X52941Y-40088D01*
X53088Y-40236D01*
X53221Y-40291D01*
X53089Y-40346D01*
X52941Y-40493D01*
X52861Y-40686D01*
X52861Y-40895D01*
X52941Y-41088D01*
X53088Y-41236D01*
X53221Y-41291D01*
X53089Y-41346D01*
X52941Y-41493D01*
X52861Y-41686D01*
X52861Y-41895D01*
X52941Y-42088D01*
X53088Y-42236D01*
X53221Y-42291D01*
X53089Y-42346D01*
X52941Y-42493D01*
X52861Y-42686D01*
X52861Y-42895D01*
X52941Y-43088D01*
X53088Y-43236D01*
X53221Y-43291D01*
X53089Y-43346D01*
X52941Y-43493D01*
X52861Y-43686D01*
X52861Y-43895D01*
X52941Y-44088D01*
X53088Y-44236D01*
X53281Y-44316D01*
X53490Y-44316D01*
X53678Y-44238D01*
X54553Y-44238D01*
X54571Y-44256D01*
X54773Y-44340D01*
X54991Y-44340D01*
X55297Y-44340D01*
X55499Y-44256D01*
X55653Y-44102D01*
X55737Y-43900D01*
X55737Y-45289D01*
X55673Y-45316D01*
X55603Y-45386D01*
X55565Y-45477D01*
X55565Y-45576D01*
X55565Y-46176D01*
X55603Y-46268D01*
X55673Y-46338D01*
X55764Y-46376D01*
X55863Y-46376D01*
X56463Y-46376D01*
X56555Y-46338D01*
X56625Y-46268D01*
X56663Y-46177D01*
X56663Y-46114D01*
X56736Y-46135D01*
X57043Y-45827D01*
X57043Y-45968D01*
X56806Y-46205D01*
X56833Y-46299D01*
X57035Y-46370D01*
X57248Y-46359D01*
X57395Y-46299D01*
X57422Y-46205D01*
X57422Y-47037D01*
X57395Y-47010D01*
X57010Y-46850D01*
X56592Y-46850D01*
X56206Y-47010D01*
X55910Y-47305D01*
X55750Y-47690D01*
X55750Y-48108D01*
X55910Y-48494D01*
X56184Y-48769D01*
X53639Y-48769D01*
X53639Y-46922D01*
X53639Y-46624D01*
X53525Y-46349D01*
X53315Y-46138D01*
X53040Y-46023D01*
X52742Y-46023D01*
X52467Y-46137D01*
X52256Y-46347D01*
X52141Y-46622D01*
X52141Y-46920D01*
X52255Y-47195D01*
X52465Y-47406D01*
X52740Y-47521D01*
X53038Y-47521D01*
X53313Y-47407D01*
X53524Y-47197D01*
X53639Y-46922D01*
X53639Y-48769D01*
X51639Y-48769D01*
X51639Y-47322D01*
X51639Y-47223D01*
X51639Y-46223D01*
X51601Y-46131D01*
X51531Y-46061D01*
X51440Y-46023D01*
X51341Y-46023D01*
X50341Y-46023D01*
X50249Y-46061D01*
X50179Y-46131D01*
X50141Y-46222D01*
X50141Y-46321D01*
X50141Y-47321D01*
X50179Y-47413D01*
X50249Y-47483D01*
X50340Y-47521D01*
X50439Y-47521D01*
X51439Y-47521D01*
X51531Y-47483D01*
X51601Y-47413D01*
X51639Y-47322D01*
X51639Y-48769D01*
X49263Y-48769D01*
X34166Y-48769D01*
X34303Y-48633D01*
X43751Y-48633D01*
X43751Y-45246D01*
X44661Y-45246D01*
X44655Y-45252D01*
X44575Y-45445D01*
X44575Y-45654D01*
X44655Y-45847D01*
X44802Y-45995D01*
X44995Y-46075D01*
X45204Y-46075D01*
X45397Y-45995D01*
X45460Y-45932D01*
X46478Y-46951D01*
X45851Y-46951D01*
X45759Y-46989D01*
X45689Y-47059D01*
X45664Y-47117D01*
X45589Y-47042D01*
X45369Y-46951D01*
X45131Y-46951D01*
X44911Y-47042D01*
X44742Y-47211D01*
X44651Y-47431D01*
X44651Y-47669D01*
X44742Y-47889D01*
X44803Y-47950D01*
X44803Y-48088D01*
X44837Y-48259D01*
X44934Y-48404D01*
X45068Y-48538D01*
X45213Y-48635D01*
X45384Y-48669D01*
X47786Y-48669D01*
X47957Y-48635D01*
X48102Y-48538D01*
X48216Y-48424D01*
X48313Y-48279D01*
X48347Y-48108D01*
X48347Y-46167D01*
X49263Y-45251D01*
X50311Y-44202D01*
X50374Y-44354D01*
X50528Y-44508D01*
X50730Y-44592D01*
X50948Y-44592D01*
X51150Y-44508D01*
X51304Y-44354D01*
X51339Y-44269D01*
X51374Y-44354D01*
X51528Y-44508D01*
X51730Y-44592D01*
X51948Y-44592D01*
X52150Y-44508D01*
X52304Y-44354D01*
X52388Y-44152D01*
X52388Y-43934D01*
X52304Y-43732D01*
X52164Y-43592D01*
X52188Y-43592D01*
X52280Y-43554D01*
X52350Y-43484D01*
X52388Y-43393D01*
X52388Y-43294D01*
X52388Y-42694D01*
X52350Y-42602D01*
X52286Y-42538D01*
X52286Y-42349D01*
X52252Y-42178D01*
X52155Y-42033D01*
X52010Y-41936D01*
X51839Y-41902D01*
X51827Y-41902D01*
X51827Y-39269D01*
X51905Y-39081D01*
X51905Y-38872D01*
X51825Y-38679D01*
X51678Y-38531D01*
X51485Y-38451D01*
X51276Y-38451D01*
X51083Y-38531D01*
X50935Y-38678D01*
X50855Y-38871D01*
X50855Y-39080D01*
X50933Y-39268D01*
X50933Y-41644D01*
X50114Y-41644D01*
X50196Y-41562D01*
X50293Y-41417D01*
X50327Y-41246D01*
X50327Y-39431D01*
X50366Y-39392D01*
X50404Y-39301D01*
X50404Y-39202D01*
X50404Y-38652D01*
X50366Y-38560D01*
X50327Y-38521D01*
X50327Y-36698D01*
X53747Y-33278D01*
X58569Y-33278D01*
X58740Y-33244D01*
X58885Y-33147D01*
X59600Y-32432D01*
X59697Y-32287D01*
X59731Y-32116D01*
X59731Y-17352D01*
X59730Y-17351D01*
X59697Y-17181D01*
X59696Y-17180D01*
X59664Y-17132D01*
X59600Y-17036D01*
X59600Y-17035D01*
X53481Y-10917D01*
X53800Y-11050D01*
X54198Y-11050D01*
X54566Y-10898D01*
X54847Y-10617D01*
X55000Y-10250D01*
X55000Y-09852D01*
X54848Y-09484D01*
X54567Y-09203D01*
X54200Y-09050D01*
X53802Y-09050D01*
X53434Y-09202D01*
X53153Y-09483D01*
X53000Y-09850D01*
X53000Y-10248D01*
X53132Y-10568D01*
X52655Y-10091D01*
X52510Y-09994D01*
X52339Y-09960D01*
X38288Y-09960D01*
X37355Y-09027D01*
X37210Y-08930D01*
X37039Y-08896D01*
X31869Y-08896D01*
X31825Y-08852D01*
X31612Y-08763D01*
X31381Y-08763D01*
X31168Y-08851D01*
X31005Y-09014D01*
X30916Y-09227D01*
X30916Y-09458D01*
X31004Y-09671D01*
X31167Y-09834D01*
X31187Y-09842D01*
X31168Y-09851D01*
X31005Y-10014D01*
X30968Y-10100D01*
X30786Y-09918D01*
X30786Y-09199D01*
X30752Y-09028D01*
X30752Y-09027D01*
X30655Y-08883D01*
X29589Y-07817D01*
X29444Y-07720D01*
X29273Y-07686D01*
X26920Y-07686D01*
X26749Y-07720D01*
X26604Y-07817D01*
X24891Y-09529D01*
X24980Y-09316D01*
X24980Y-09085D01*
X24892Y-08872D01*
X24729Y-08709D01*
X24516Y-08620D01*
X24285Y-08620D01*
X24072Y-08708D01*
X23909Y-08871D01*
X23820Y-09084D01*
X23820Y-09315D01*
X23908Y-09528D01*
X24071Y-09691D01*
X24091Y-09699D01*
X24072Y-09708D01*
X23909Y-09871D01*
X23820Y-10084D01*
X23820Y-10315D01*
X23908Y-10528D01*
X24071Y-10691D01*
X24224Y-10755D01*
X23265Y-11715D01*
X23168Y-11860D01*
X23134Y-12031D01*
X23134Y-19878D01*
X23168Y-20049D01*
X23265Y-20194D01*
X25159Y-22088D01*
X25304Y-22185D01*
X25475Y-22219D01*
X25646Y-22185D01*
X25791Y-22088D01*
X25820Y-22044D01*
X27759Y-23983D01*
X27759Y-25653D01*
X27793Y-25824D01*
X27890Y-25969D01*
X28035Y-26066D01*
X28206Y-26100D01*
X28377Y-26066D01*
X28522Y-25969D01*
X28619Y-25824D01*
X28653Y-25653D01*
X28653Y-23798D01*
X28619Y-23627D01*
X28522Y-23482D01*
X28151Y-23111D01*
X28292Y-23139D01*
X28293Y-23140D01*
X29710Y-23140D01*
X29728Y-23158D01*
X29930Y-23242D01*
X30148Y-23242D01*
X30350Y-23158D01*
X30504Y-23004D01*
X30539Y-22919D01*
X30574Y-23004D01*
X30728Y-23158D01*
X30930Y-23242D01*
X31148Y-23242D01*
X31350Y-23158D01*
X31504Y-23004D01*
X31539Y-22919D01*
X31574Y-23004D01*
X31728Y-23158D01*
X31930Y-23242D01*
X32148Y-23242D01*
X32350Y-23158D01*
X32504Y-23004D01*
X32539Y-22919D01*
X32574Y-23004D01*
X32728Y-23158D01*
X32930Y-23242D01*
X33148Y-23242D01*
X33350Y-23158D01*
X33504Y-23004D01*
X33539Y-22919D01*
X33574Y-23004D01*
X33728Y-23158D01*
X33930Y-23242D01*
X34148Y-23242D01*
X34350Y-23158D01*
X34504Y-23004D01*
X34539Y-22919D01*
X34574Y-23004D01*
X34728Y-23158D01*
X34930Y-23242D01*
X35148Y-23242D01*
X35350Y-23158D01*
X35504Y-23004D01*
X35539Y-22919D01*
X35574Y-23004D01*
X35728Y-23158D01*
X35930Y-23242D01*
X36148Y-23242D01*
X36350Y-23158D01*
X36504Y-23004D01*
X36539Y-22919D01*
X36574Y-23004D01*
X36728Y-23158D01*
X36930Y-23242D01*
X37148Y-23242D01*
X37350Y-23158D01*
X37504Y-23004D01*
X37539Y-22919D01*
X37574Y-23004D01*
X37728Y-23158D01*
X37879Y-23220D01*
X34874Y-26226D01*
X30436Y-26226D01*
X30265Y-26260D01*
X30216Y-26292D01*
X30119Y-26357D01*
X23076Y-33401D01*
X23042Y-33451D01*
X23042Y-06349D01*
X25018Y-06349D01*
X25006Y-06354D01*
X24710Y-06649D01*
X24550Y-07034D01*
X24550Y-07452D01*
X24710Y-07838D01*
X25005Y-08134D01*
X25390Y-08294D01*
X25808Y-08294D01*
X26194Y-08134D01*
X26490Y-07839D01*
X26650Y-07454D01*
X26650Y-07036D01*
X26490Y-06650D01*
X26195Y-06354D01*
X26182Y-06349D01*
X56618Y-06349D01*
X56606Y-06354D01*
X56310Y-06649D01*
X56150Y-07034D01*
X56150Y-07452D01*
X56310Y-07838D01*
X56605Y-08134D01*
X56990Y-08294D01*
X57408Y-08294D01*
X57794Y-08134D01*
X58090Y-07839D01*
X58250Y-07454D01*
X58250Y-07036D01*
X58090Y-06650D01*
X57795Y-06354D01*
X57782Y-06349D01*
X60422Y-06349D01*
X60422Y-48769D01*
X60422Y-48769D01*
G37*
G54D32*
X60422Y-48769D02*
X60210Y-48769D01*
X60210Y-42896D01*
X60210Y-42687D01*
X60130Y-42494D01*
X59983Y-42346D01*
X59849Y-42290D01*
X59982Y-42236D01*
X60130Y-42089D01*
X60210Y-41896D01*
X60210Y-41687D01*
X60130Y-41494D01*
X59983Y-41346D01*
X59849Y-41290D01*
X59982Y-41236D01*
X60130Y-41089D01*
X60210Y-40896D01*
X60210Y-40687D01*
X60130Y-40494D01*
X59983Y-40346D01*
X59849Y-40290D01*
X59982Y-40236D01*
X60130Y-40089D01*
X60210Y-39896D01*
X60210Y-39687D01*
X60130Y-39494D01*
X59983Y-39346D01*
X59849Y-39290D01*
X59982Y-39236D01*
X60130Y-39089D01*
X60210Y-38896D01*
X60210Y-38687D01*
X60130Y-38494D01*
X59983Y-38346D01*
X59849Y-38290D01*
X59982Y-38236D01*
X60130Y-38089D01*
X60210Y-37896D01*
X60210Y-37687D01*
X60130Y-37494D01*
X59983Y-37346D01*
X59849Y-37290D01*
X59982Y-37236D01*
X60130Y-37089D01*
X60210Y-36896D01*
X60210Y-36687D01*
X60130Y-36494D01*
X59983Y-36346D01*
X59849Y-36290D01*
X59982Y-36236D01*
X60130Y-36089D01*
X60210Y-35896D01*
X60210Y-35687D01*
X60130Y-35494D01*
X59983Y-35346D01*
X59849Y-35290D01*
X59982Y-35236D01*
X60130Y-35089D01*
X60210Y-34896D01*
X60210Y-34687D01*
X60130Y-34494D01*
X59983Y-34346D01*
X59790Y-34266D01*
X59581Y-34266D01*
X59392Y-34344D01*
X58517Y-34344D01*
X58499Y-34326D01*
X58297Y-34242D01*
X58079Y-34242D01*
X57773Y-34242D01*
X57571Y-34326D01*
X57417Y-34480D01*
X57333Y-34682D01*
X57333Y-34900D01*
X57417Y-35102D01*
X57571Y-35256D01*
X57655Y-35291D01*
X57571Y-35326D01*
X57417Y-35480D01*
X57333Y-35682D01*
X57333Y-35900D01*
X57417Y-36102D01*
X57571Y-36256D01*
X57655Y-36291D01*
X57571Y-36326D01*
X57417Y-36480D01*
X57333Y-36682D01*
X57333Y-36900D01*
X57417Y-37102D01*
X57571Y-37256D01*
X57655Y-37291D01*
X57571Y-37326D01*
X57417Y-37480D01*
X57333Y-37682D01*
X57333Y-37900D01*
X57417Y-38102D01*
X57571Y-38256D01*
X57655Y-38291D01*
X57571Y-38326D01*
X57417Y-38480D01*
X57333Y-38682D01*
X57333Y-38900D01*
X57417Y-39102D01*
X57571Y-39256D01*
X57655Y-39291D01*
X57571Y-39326D01*
X57417Y-39480D01*
X57333Y-39682D01*
X57333Y-39900D01*
X57417Y-40102D01*
X57571Y-40256D01*
X57655Y-40291D01*
X57571Y-40326D01*
X57417Y-40480D01*
X57333Y-40682D01*
X57333Y-40900D01*
X57417Y-41102D01*
X57571Y-41256D01*
X57655Y-41291D01*
X57571Y-41326D01*
X57417Y-41480D01*
X57333Y-41682D01*
X57333Y-41900D01*
X57417Y-42102D01*
X57571Y-42256D01*
X57655Y-42291D01*
X57571Y-42326D01*
X57417Y-42480D01*
X57333Y-42682D01*
X57333Y-42900D01*
X57417Y-43102D01*
X57571Y-43256D01*
X57655Y-43291D01*
X57571Y-43326D01*
X57417Y-43480D01*
X57333Y-43682D01*
X57333Y-43900D01*
X57417Y-44102D01*
X57571Y-44256D01*
X57773Y-44340D01*
X57991Y-44340D01*
X58297Y-44340D01*
X58499Y-44256D01*
X58517Y-44238D01*
X59230Y-44238D01*
X59269Y-44277D01*
X59360Y-44315D01*
X59459Y-44315D01*
X60009Y-44315D01*
X60101Y-44277D01*
X60171Y-44207D01*
X60209Y-44116D01*
X60209Y-44017D01*
X60209Y-43467D01*
X60171Y-43375D01*
X60101Y-43305D01*
X60010Y-43267D01*
X59911Y-43267D01*
X59907Y-43267D01*
X59982Y-43236D01*
X60130Y-43089D01*
X60210Y-42896D01*
X60210Y-48769D01*
X57415Y-48769D01*
X57690Y-48495D01*
X57850Y-48110D01*
X57850Y-47692D01*
X57690Y-47306D01*
X57657Y-47272D01*
X57657Y-45906D01*
X57646Y-45693D01*
X57586Y-45546D01*
X57492Y-45519D01*
X57422Y-45589D01*
X57422Y-45449D01*
X57395Y-45355D01*
X57193Y-45284D01*
X56980Y-45295D01*
X56833Y-45355D01*
X56806Y-45449D01*
X57114Y-45756D01*
X57422Y-45449D01*
X57422Y-45589D01*
X57185Y-45827D01*
X57492Y-46135D01*
X57586Y-46108D01*
X57657Y-45906D01*
X57657Y-47272D01*
X57422Y-47037D01*
X57422Y-46205D01*
X57114Y-45898D01*
X57043Y-45968D01*
X57043Y-45827D01*
X56736Y-45519D01*
X56663Y-45539D01*
X56663Y-45478D01*
X56625Y-45386D01*
X56555Y-45316D01*
X56464Y-45278D01*
X56365Y-45278D01*
X55765Y-45278D01*
X55737Y-45289D01*
X55737Y-43900D01*
X55737Y-43682D01*
X55653Y-43480D01*
X55499Y-43326D01*
X55414Y-43291D01*
X55499Y-43256D01*
X55653Y-43102D01*
X55737Y-42900D01*
X55737Y-42682D01*
X55653Y-42480D01*
X55499Y-42326D01*
X55414Y-42291D01*
X55499Y-42256D01*
X55653Y-42102D01*
X55737Y-41900D01*
X55737Y-41682D01*
X55653Y-41480D01*
X55499Y-41326D01*
X55414Y-41291D01*
X55499Y-41256D01*
X55653Y-41102D01*
X55737Y-40900D01*
X55737Y-40682D01*
X55653Y-40480D01*
X55499Y-40326D01*
X55414Y-40291D01*
X55499Y-40256D01*
X55653Y-40102D01*
X55737Y-39900D01*
X55737Y-39682D01*
X55653Y-39480D01*
X55499Y-39326D01*
X55414Y-39291D01*
X55499Y-39256D01*
X55653Y-39102D01*
X55737Y-38900D01*
X55737Y-38682D01*
X55653Y-38480D01*
X55499Y-38326D01*
X55414Y-38291D01*
X55499Y-38256D01*
X55653Y-38102D01*
X55737Y-37900D01*
X55737Y-37682D01*
X55653Y-37480D01*
X55499Y-37326D01*
X55414Y-37291D01*
X55499Y-37256D01*
X55653Y-37102D01*
X55737Y-36900D01*
X55737Y-36682D01*
X55653Y-36480D01*
X55499Y-36326D01*
X55414Y-36291D01*
X55499Y-36256D01*
X55653Y-36102D01*
X55737Y-35900D01*
X55737Y-35682D01*
X55653Y-35480D01*
X55523Y-35350D01*
X55534Y-35350D01*
X55626Y-35312D01*
X55696Y-35242D01*
X55734Y-35151D01*
X55734Y-35052D01*
X55734Y-34432D01*
X55696Y-34340D01*
X55626Y-34270D01*
X55535Y-34232D01*
X55436Y-34232D01*
X54536Y-34232D01*
X54444Y-34270D01*
X54374Y-34340D01*
X54372Y-34344D01*
X53841Y-34344D01*
X53802Y-34305D01*
X53711Y-34267D01*
X53612Y-34267D01*
X53062Y-34267D01*
X52970Y-34305D01*
X52900Y-34375D01*
X52862Y-34466D01*
X52862Y-34565D01*
X52862Y-35115D01*
X52900Y-35207D01*
X52970Y-35277D01*
X53061Y-35315D01*
X53160Y-35315D01*
X53089Y-35346D01*
X52941Y-35493D01*
X52861Y-35686D01*
X52861Y-35895D01*
X52941Y-36088D01*
X53088Y-36236D01*
X53221Y-36291D01*
X53089Y-36346D01*
X52941Y-36493D01*
X52861Y-36686D01*
X52861Y-36895D01*
X52941Y-37088D01*
X53088Y-37236D01*
X53221Y-37291D01*
X53089Y-37346D01*
X52941Y-37493D01*
X52861Y-37686D01*
X52861Y-37895D01*
X52941Y-38088D01*
X53088Y-38236D01*
X53221Y-38291D01*
X53089Y-38346D01*
X52941Y-38493D01*
X52861Y-38686D01*
X52861Y-38895D01*
X52941Y-39088D01*
X53088Y-39236D01*
X53221Y-39291D01*
X53089Y-39346D01*
X52941Y-39493D01*
X52861Y-39686D01*
X52861Y-39895D01*
X52941Y-40088D01*
X53088Y-40236D01*
X53221Y-40291D01*
X53089Y-40346D01*
X52941Y-40493D01*
X52861Y-40686D01*
X52861Y-40895D01*
X52941Y-41088D01*
X53088Y-41236D01*
X53221Y-41291D01*
X53089Y-41346D01*
X52941Y-41493D01*
X52861Y-41686D01*
X52861Y-41895D01*
X52941Y-42088D01*
X53088Y-42236D01*
X53221Y-42291D01*
X53089Y-42346D01*
X52941Y-42493D01*
X52861Y-42686D01*
X52861Y-42895D01*
X52941Y-43088D01*
X53088Y-43236D01*
X53221Y-43291D01*
X53089Y-43346D01*
X52941Y-43493D01*
X52861Y-43686D01*
X52861Y-43895D01*
X52941Y-44088D01*
X53088Y-44236D01*
X53281Y-44316D01*
X53490Y-44316D01*
X53678Y-44238D01*
X54553Y-44238D01*
X54571Y-44256D01*
X54773Y-44340D01*
X54991Y-44340D01*
X55297Y-44340D01*
X55499Y-44256D01*
X55653Y-44102D01*
X55737Y-43900D01*
X55737Y-45289D01*
X55673Y-45316D01*
X55603Y-45386D01*
X55565Y-45477D01*
X55565Y-45576D01*
X55565Y-46176D01*
X55603Y-46268D01*
X55673Y-46338D01*
X55764Y-46376D01*
X55863Y-46376D01*
X56463Y-46376D01*
X56555Y-46338D01*
X56625Y-46268D01*
X56663Y-46177D01*
X56663Y-46114D01*
X56736Y-46135D01*
X57043Y-45827D01*
X57043Y-45968D01*
X56806Y-46205D01*
X56833Y-46299D01*
X57035Y-46370D01*
X57248Y-46359D01*
X57395Y-46299D01*
X57422Y-46205D01*
X57422Y-47037D01*
X57395Y-47010D01*
X57010Y-46850D01*
X56592Y-46850D01*
X56206Y-47010D01*
X55910Y-47305D01*
X55750Y-47690D01*
X55750Y-48108D01*
X55910Y-48494D01*
X56184Y-48769D01*
X53639Y-48769D01*
X53639Y-46922D01*
X53639Y-46624D01*
X53525Y-46349D01*
X53315Y-46138D01*
X53040Y-46023D01*
X52742Y-46023D01*
X52467Y-46137D01*
X52256Y-46347D01*
X52141Y-46622D01*
X52141Y-46920D01*
X52255Y-47195D01*
X52465Y-47406D01*
X52740Y-47521D01*
X53038Y-47521D01*
X53313Y-47407D01*
X53524Y-47197D01*
X53639Y-46922D01*
X53639Y-48769D01*
X51639Y-48769D01*
X51639Y-47322D01*
X51639Y-47223D01*
X51639Y-46223D01*
X51601Y-46131D01*
X51531Y-46061D01*
X51440Y-46023D01*
X51341Y-46023D01*
X50341Y-46023D01*
X50249Y-46061D01*
X50179Y-46131D01*
X50141Y-46222D01*
X50141Y-46321D01*
X50141Y-47321D01*
X50179Y-47413D01*
X50249Y-47483D01*
X50340Y-47521D01*
X50439Y-47521D01*
X51439Y-47521D01*
X51531Y-47483D01*
X51601Y-47413D01*
X51639Y-47322D01*
X51639Y-48769D01*
X49263Y-48769D01*
X34166Y-48769D01*
X34303Y-48633D01*
X43751Y-48633D01*
X43751Y-45246D01*
X44661Y-45246D01*
X44655Y-45252D01*
X44575Y-45445D01*
X44575Y-45654D01*
X44655Y-45847D01*
X44802Y-45995D01*
X44995Y-46075D01*
X45204Y-46075D01*
X45397Y-45995D01*
X45460Y-45932D01*
X46478Y-46951D01*
X45851Y-46951D01*
X45759Y-46989D01*
X45689Y-47059D01*
X45664Y-47117D01*
X45589Y-47042D01*
X45369Y-46951D01*
X45131Y-46951D01*
X44911Y-47042D01*
X44742Y-47211D01*
X44651Y-47431D01*
X44651Y-47669D01*
X44742Y-47889D01*
X44803Y-47950D01*
X44803Y-48088D01*
X44837Y-48259D01*
X44934Y-48404D01*
X45068Y-48538D01*
X45213Y-48635D01*
X45384Y-48669D01*
X47786Y-48669D01*
X47957Y-48635D01*
X48102Y-48538D01*
X48216Y-48424D01*
X48313Y-48279D01*
X48347Y-48108D01*
X48347Y-46167D01*
X49263Y-45251D01*
X50311Y-44202D01*
X50374Y-44354D01*
X50528Y-44508D01*
X50730Y-44592D01*
X50948Y-44592D01*
X51150Y-44508D01*
X51304Y-44354D01*
X51339Y-44269D01*
X51374Y-44354D01*
X51528Y-44508D01*
X51730Y-44592D01*
X51948Y-44592D01*
X52150Y-44508D01*
X52304Y-44354D01*
X52388Y-44152D01*
X52388Y-43934D01*
X52304Y-43732D01*
X52164Y-43592D01*
X52188Y-43592D01*
X52280Y-43554D01*
X52350Y-43484D01*
X52388Y-43393D01*
X52388Y-43294D01*
X52388Y-42694D01*
X52350Y-42602D01*
X52286Y-42538D01*
X52286Y-42349D01*
X52252Y-42178D01*
X52155Y-42033D01*
X52010Y-41936D01*
X51839Y-41902D01*
X51827Y-41902D01*
X51827Y-39269D01*
X51905Y-39081D01*
X51905Y-38872D01*
X51825Y-38679D01*
X51678Y-38531D01*
X51485Y-38451D01*
X51276Y-38451D01*
X51083Y-38531D01*
X50935Y-38678D01*
X50855Y-38871D01*
X50855Y-39080D01*
X50933Y-39268D01*
X50933Y-41644D01*
X50114Y-41644D01*
X50196Y-41562D01*
X50293Y-41417D01*
X50327Y-41246D01*
X50327Y-39431D01*
X50366Y-39392D01*
X50404Y-39301D01*
X50404Y-39202D01*
X50404Y-38652D01*
X50366Y-38560D01*
X50327Y-38521D01*
X50327Y-36698D01*
X53747Y-33278D01*
X58569Y-33278D01*
X58740Y-33244D01*
X58885Y-33147D01*
X59600Y-32432D01*
X59697Y-32287D01*
X59731Y-32116D01*
X59731Y-17352D01*
X59730Y-17351D01*
X59697Y-17181D01*
X59696Y-17180D01*
X59664Y-17132D01*
X59600Y-17036D01*
X59600Y-17035D01*
X53481Y-10917D01*
X53800Y-11050D01*
X54198Y-11050D01*
X54566Y-10898D01*
X54847Y-10617D01*
X55000Y-10250D01*
X55000Y-09852D01*
X54848Y-09484D01*
X54567Y-09203D01*
X54200Y-09050D01*
X53802Y-09050D01*
X53434Y-09202D01*
X53153Y-09483D01*
X53000Y-09850D01*
X53000Y-10248D01*
X53132Y-10568D01*
X52655Y-10091D01*
X52510Y-09994D01*
X52339Y-09960D01*
X38288Y-09960D01*
X37355Y-09027D01*
X37210Y-08930D01*
X37039Y-08896D01*
X31869Y-08896D01*
X31825Y-08852D01*
X31612Y-08763D01*
X31381Y-08763D01*
X31168Y-08851D01*
X31005Y-09014D01*
X30916Y-09227D01*
X30916Y-09458D01*
X31004Y-09671D01*
X31167Y-09834D01*
X31187Y-09842D01*
X31168Y-09851D01*
X31005Y-10014D01*
X30968Y-10100D01*
X30786Y-09918D01*
X30786Y-09199D01*
X30752Y-09028D01*
X30752Y-09027D01*
X30655Y-08883D01*
X29589Y-07817D01*
X29444Y-07720D01*
X29273Y-07686D01*
X26920Y-07686D01*
X26749Y-07720D01*
X26604Y-07817D01*
X24891Y-09529D01*
X24980Y-09316D01*
X24980Y-09085D01*
X24892Y-08872D01*
X24729Y-08709D01*
X24516Y-08620D01*
X24285Y-08620D01*
X24072Y-08708D01*
X23909Y-08871D01*
X23820Y-09084D01*
X23820Y-09315D01*
X23908Y-09528D01*
X24071Y-09691D01*
X24091Y-09699D01*
X24072Y-09708D01*
X23909Y-09871D01*
X23820Y-10084D01*
X23820Y-10315D01*
X23908Y-10528D01*
X24071Y-10691D01*
X24224Y-10755D01*
X23265Y-11715D01*
X23168Y-11860D01*
X23134Y-12031D01*
X23134Y-19878D01*
X23168Y-20049D01*
X23265Y-20194D01*
X25159Y-22088D01*
X25304Y-22185D01*
X25475Y-22219D01*
X25646Y-22185D01*
X25791Y-22088D01*
X25820Y-22044D01*
X27759Y-23983D01*
X27759Y-25653D01*
X27793Y-25824D01*
X27890Y-25969D01*
X28035Y-26066D01*
X28206Y-26100D01*
X28377Y-26066D01*
X28522Y-25969D01*
X28619Y-25824D01*
X28653Y-25653D01*
X28653Y-23798D01*
X28619Y-23627D01*
X28522Y-23482D01*
X28151Y-23111D01*
X28292Y-23139D01*
X28293Y-23140D01*
X29710Y-23140D01*
X29728Y-23158D01*
X29930Y-23242D01*
X30148Y-23242D01*
X30350Y-23158D01*
X30504Y-23004D01*
X30539Y-22919D01*
X30574Y-23004D01*
X30728Y-23158D01*
X30930Y-23242D01*
X31148Y-23242D01*
X31350Y-23158D01*
X31504Y-23004D01*
X31539Y-22919D01*
X31574Y-23004D01*
X31728Y-23158D01*
X31930Y-23242D01*
X32148Y-23242D01*
X32350Y-23158D01*
X32504Y-23004D01*
X32539Y-22919D01*
X32574Y-23004D01*
X32728Y-23158D01*
X32930Y-23242D01*
X33148Y-23242D01*
X33350Y-23158D01*
X33504Y-23004D01*
X33539Y-22919D01*
X33574Y-23004D01*
X33728Y-23158D01*
X33930Y-23242D01*
X34148Y-23242D01*
X34350Y-23158D01*
X34504Y-23004D01*
X34539Y-22919D01*
X34574Y-23004D01*
X34728Y-23158D01*
X34930Y-23242D01*
X35148Y-23242D01*
X35350Y-23158D01*
X35504Y-23004D01*
X35539Y-22919D01*
X35574Y-23004D01*
X35728Y-23158D01*
X35930Y-23242D01*
X36148Y-23242D01*
X36350Y-23158D01*
X36504Y-23004D01*
X36539Y-22919D01*
X36574Y-23004D01*
X36728Y-23158D01*
X36930Y-23242D01*
X37148Y-23242D01*
X37350Y-23158D01*
X37504Y-23004D01*
X37539Y-22919D01*
X37574Y-23004D01*
X37728Y-23158D01*
X37879Y-23220D01*
X34874Y-26226D01*
X30436Y-26226D01*
X30265Y-26260D01*
X30216Y-26292D01*
X30119Y-26357D01*
X23076Y-33401D01*
X23042Y-33451D01*
X23042Y-06349D01*
X25018Y-06349D01*
X25006Y-06354D01*
X24710Y-06649D01*
X24550Y-07034D01*
X24550Y-07452D01*
X24710Y-07838D01*
X25005Y-08134D01*
X25390Y-08294D01*
X25808Y-08294D01*
X26194Y-08134D01*
X26490Y-07839D01*
X26650Y-07454D01*
X26650Y-07036D01*
X26490Y-06650D01*
X26195Y-06354D01*
X26182Y-06349D01*
X56618Y-06349D01*
X56606Y-06354D01*
X56310Y-06649D01*
X56150Y-07034D01*
X56150Y-07452D01*
X56310Y-07838D01*
X56605Y-08134D01*
X56990Y-08294D01*
X57408Y-08294D01*
X57794Y-08134D01*
X58090Y-07839D01*
X58250Y-07454D01*
X58250Y-07036D01*
X58090Y-06650D01*
X57795Y-06354D01*
X57782Y-06349D01*
X60422Y-06349D01*
X60422Y-48769D01*
M02*
