G04 (created by PCBNEW-RS274X (2012-apr-16-27)-stable) date Mon 09 Dec 2013 22:44:26 GMT*
G01*
G70*
G90*
%MOIN*%
G04 Gerber Fmt 3.4, Leading zero omitted, Abs format*
%FSLAX34Y34*%
G04 APERTURE LIST*
%ADD10C,0.006000*%
%ADD11C,0.015000*%
%ADD12C,0.055000*%
%ADD13R,0.060000X0.060000*%
%ADD14C,0.060000*%
%ADD15C,0.066000*%
%ADD16R,0.062000X0.090000*%
%ADD17O,0.062000X0.090000*%
%ADD18R,0.055000X0.055000*%
%ADD19R,0.090000X0.062000*%
%ADD20O,0.090000X0.062000*%
%ADD21C,0.150000*%
%ADD22C,0.070000*%
%ADD23O,0.118100X0.059100*%
%ADD24R,0.100000X0.100000*%
%ADD25C,0.100000*%
%ADD26C,0.160000*%
%ADD27R,0.070000X0.070000*%
%ADD28C,0.035000*%
%ADD29C,0.039400*%
%ADD30C,0.039400*%
%ADD31C,0.009800*%
%ADD32C,0.010000*%
G04 APERTURE END LIST*
G54D10*
G54D11*
X60827Y-05906D02*
X22638Y-05906D01*
X60827Y-49213D02*
X60827Y-05906D01*
X22638Y-49213D02*
X60827Y-49213D01*
X22638Y-05906D02*
X22638Y-49213D01*
G54D12*
X36295Y-13386D03*
X39295Y-13386D03*
X36295Y-14961D03*
X39295Y-14961D03*
G54D13*
X45350Y-32283D03*
G54D14*
X46350Y-32283D03*
X47350Y-32283D03*
X48350Y-32283D03*
G54D13*
X51839Y-43043D03*
G54D14*
X51839Y-44043D03*
X50839Y-43043D03*
X50839Y-44043D03*
G54D13*
X36500Y-11000D03*
G54D14*
X37500Y-11000D03*
G54D13*
X24016Y-45382D03*
G54D14*
X24016Y-44382D03*
G54D13*
X25590Y-45382D03*
G54D14*
X25590Y-44382D03*
G54D13*
X27165Y-45382D03*
G54D14*
X27165Y-44382D03*
G54D13*
X36508Y-17323D03*
G54D14*
X37508Y-17323D03*
G54D15*
X26800Y-09200D03*
X26800Y-10200D03*
X29200Y-09300D03*
X29200Y-10300D03*
G54D16*
X34177Y-43382D03*
G54D17*
X33177Y-43382D03*
X32177Y-43382D03*
X31177Y-43382D03*
X31177Y-46382D03*
X32177Y-46382D03*
X33177Y-46382D03*
X34177Y-46382D03*
G54D18*
X27398Y-39847D03*
G54D12*
X28398Y-39847D03*
X29398Y-39847D03*
X30398Y-39847D03*
X30398Y-36847D03*
X29398Y-36847D03*
X28398Y-36847D03*
X27398Y-36847D03*
G54D18*
X40634Y-36847D03*
G54D12*
X39634Y-36847D03*
X38634Y-36847D03*
X37634Y-36847D03*
X37634Y-39847D03*
X38634Y-39847D03*
X39634Y-39847D03*
X40634Y-39847D03*
G54D18*
X35516Y-36847D03*
G54D12*
X34516Y-36847D03*
X33516Y-36847D03*
X32516Y-36847D03*
X32516Y-39847D03*
X33516Y-39847D03*
X34516Y-39847D03*
X35516Y-39847D03*
G54D19*
X54996Y-23059D03*
G54D20*
X54996Y-24059D03*
X54996Y-25059D03*
X54996Y-26059D03*
X54996Y-27059D03*
X54996Y-28059D03*
X54996Y-29059D03*
X54996Y-30059D03*
X54996Y-31059D03*
X54996Y-32059D03*
X57996Y-32059D03*
X57996Y-31059D03*
X57996Y-30059D03*
X57996Y-29059D03*
X57996Y-28059D03*
X57996Y-27059D03*
X57996Y-26059D03*
X57996Y-25059D03*
X57996Y-24059D03*
X57996Y-23059D03*
G54D21*
X54000Y-20050D03*
X54000Y-10050D03*
G54D13*
X53000Y-12850D03*
G54D14*
X53000Y-13950D03*
X53000Y-15000D03*
X53000Y-16100D03*
X53000Y-17200D03*
X54000Y-13400D03*
X54000Y-14500D03*
X54000Y-15550D03*
X54000Y-16650D03*
G54D12*
X51969Y-24591D03*
X51969Y-26591D03*
X53543Y-27469D03*
X53543Y-26469D03*
X53543Y-23713D03*
X53543Y-24713D03*
X47390Y-45550D03*
X47390Y-44550D03*
X45100Y-45550D03*
X45100Y-44550D03*
G54D22*
X25496Y-18941D03*
X26496Y-18941D03*
X27496Y-18941D03*
X28496Y-18941D03*
X29496Y-18941D03*
X30496Y-18941D03*
X31496Y-18941D03*
X32496Y-18941D03*
X32496Y-15941D03*
X31496Y-15941D03*
X30496Y-15941D03*
X29496Y-15941D03*
X28496Y-15941D03*
X27496Y-15941D03*
X26496Y-15941D03*
X25496Y-15941D03*
G54D14*
X47953Y-11276D03*
X47953Y-16000D03*
X42047Y-11276D03*
X42047Y-16000D03*
X44311Y-13638D03*
X45689Y-13638D03*
X41850Y-13638D03*
X48150Y-13638D03*
X45000Y-11866D03*
X30039Y-28693D03*
X31039Y-28693D03*
X32039Y-28693D03*
X33039Y-28693D03*
X34039Y-28693D03*
X35039Y-28693D03*
X36039Y-28693D03*
X37039Y-28693D03*
X38039Y-28693D03*
X39039Y-28693D03*
X40039Y-28693D03*
X41039Y-28693D03*
X42039Y-28693D03*
X43039Y-28693D03*
X44039Y-28693D03*
X45039Y-28693D03*
X46039Y-28693D03*
X47039Y-28693D03*
X48039Y-28693D03*
X49039Y-28693D03*
X49039Y-22693D03*
X48039Y-22693D03*
X47039Y-22693D03*
X46039Y-22693D03*
X45039Y-22693D03*
X44039Y-22693D03*
X43039Y-22693D03*
X42039Y-22693D03*
X41039Y-22693D03*
X40039Y-22693D03*
X39039Y-22693D03*
X38039Y-22693D03*
X37039Y-22693D03*
X36039Y-22693D03*
X35039Y-22693D03*
X34039Y-22693D03*
X33039Y-22693D03*
X32039Y-22693D03*
X31039Y-22693D03*
X30039Y-22693D03*
G54D13*
X45429Y-34331D03*
G54D14*
X46429Y-34331D03*
X47429Y-34331D03*
X48429Y-34331D03*
G54D15*
X31496Y-09343D03*
X31496Y-10343D03*
G54D12*
X38386Y-31980D03*
X38386Y-32980D03*
X41142Y-31980D03*
X41142Y-32980D03*
X39764Y-31980D03*
X39764Y-32980D03*
X29134Y-41115D03*
X29134Y-42115D03*
X38583Y-41115D03*
X38583Y-42115D03*
X33465Y-41115D03*
X33465Y-42115D03*
X29200Y-12500D03*
X29200Y-13500D03*
X31496Y-12492D03*
X31496Y-13492D03*
X51181Y-16461D03*
X51181Y-13461D03*
X26800Y-12500D03*
X26800Y-13500D03*
G54D23*
X45719Y-37484D03*
X45719Y-38484D03*
X45719Y-39484D03*
X45719Y-40484D03*
G54D12*
X24400Y-12500D03*
X24400Y-13500D03*
G54D13*
X56114Y-45827D03*
G54D14*
X57114Y-45827D03*
G54D15*
X24400Y-09200D03*
X24400Y-10200D03*
G54D13*
X34449Y-20276D03*
X35827Y-32086D03*
X42520Y-32087D03*
X36811Y-32086D03*
G54D19*
X55035Y-34791D03*
G54D20*
X55035Y-35791D03*
X55035Y-36791D03*
X55035Y-37791D03*
X55035Y-38791D03*
X55035Y-39791D03*
X55035Y-40791D03*
X55035Y-41791D03*
X55035Y-42791D03*
X55035Y-43791D03*
X58035Y-43791D03*
X58035Y-42791D03*
X58035Y-41791D03*
X58035Y-40791D03*
X58035Y-39791D03*
X58035Y-38791D03*
X58035Y-37791D03*
X58035Y-36791D03*
X58035Y-35791D03*
X58035Y-34791D03*
G54D24*
X41370Y-46850D03*
G54D25*
X39370Y-46850D03*
X37370Y-46850D03*
G54D24*
X50890Y-46772D03*
G54D25*
X52890Y-46772D03*
G54D26*
X25600Y-07244D03*
X57200Y-07244D03*
X56800Y-47900D03*
X25600Y-47800D03*
G54D22*
X45250Y-47550D03*
G54D27*
X46250Y-47550D03*
G54D22*
X47250Y-47550D03*
G54D18*
X49880Y-38976D03*
G54D12*
X51380Y-38976D03*
G54D18*
X59685Y-43791D03*
G54D12*
X59685Y-42791D03*
X59685Y-41791D03*
X59685Y-40791D03*
X59685Y-39791D03*
X59685Y-38791D03*
X59685Y-37791D03*
X59685Y-36791D03*
X59685Y-35791D03*
X59685Y-34791D03*
G54D18*
X53386Y-34791D03*
G54D12*
X53386Y-35791D03*
X53386Y-36791D03*
X53386Y-37791D03*
X53386Y-38791D03*
X53386Y-39791D03*
X53386Y-40791D03*
X53386Y-41791D03*
X53386Y-42791D03*
X53386Y-43791D03*
X33858Y-48335D03*
X33858Y-47335D03*
X32087Y-48335D03*
X32087Y-47335D03*
X30315Y-48335D03*
X30315Y-47335D03*
G54D28*
X28206Y-25653D03*
X43012Y-29658D03*
X44624Y-31225D03*
X25476Y-21773D03*
G54D29*
X28706Y-31410D03*
G54D28*
X28627Y-31410D03*
X50238Y-24186D03*
X49472Y-23375D03*
X42768Y-30480D03*
G54D30*
X54468Y-45827D02*
X56114Y-45827D01*
X52448Y-43807D02*
X54468Y-45827D01*
X52448Y-42598D02*
X52448Y-43807D01*
X38383Y-32980D02*
X34516Y-36847D01*
X38386Y-32980D02*
X38383Y-32980D01*
X48334Y-38484D02*
X52448Y-42598D01*
X45719Y-38484D02*
X48334Y-38484D01*
X25590Y-44137D02*
X25590Y-44382D01*
X24617Y-43164D02*
X25590Y-44137D01*
X30398Y-33311D02*
X30398Y-36847D01*
X28045Y-48659D02*
X28045Y-44895D01*
X27532Y-44382D02*
X27165Y-44382D01*
X44762Y-34961D02*
X44762Y-37456D01*
X44762Y-37456D02*
X44734Y-37484D01*
X44734Y-37484D02*
X45719Y-37484D01*
X28045Y-44895D02*
X27532Y-44382D01*
X31496Y-12492D02*
X31496Y-10343D01*
X50890Y-46772D02*
X50890Y-45878D01*
X50890Y-45878D02*
X50839Y-45827D01*
X50839Y-45827D02*
X50839Y-44043D01*
X52890Y-45094D02*
X51839Y-44043D01*
X52890Y-46772D02*
X52890Y-45094D01*
X38039Y-30164D02*
X38039Y-28693D01*
X36811Y-31392D02*
X38039Y-30164D01*
X36811Y-32086D02*
X36811Y-31392D01*
X35827Y-28905D02*
X36039Y-28693D01*
X35827Y-32086D02*
X35827Y-28905D01*
X42520Y-32087D02*
X42520Y-31393D01*
X42520Y-31393D02*
X42039Y-30912D01*
X42039Y-30912D02*
X42039Y-28693D01*
X24400Y-12500D02*
X24400Y-10200D01*
X31039Y-28693D02*
X31039Y-28486D01*
X31039Y-28486D02*
X28206Y-25653D01*
X29200Y-12500D02*
X29200Y-10300D01*
X26800Y-12500D02*
X26800Y-10200D01*
X45039Y-29658D02*
X43012Y-29658D01*
X40039Y-31705D02*
X40039Y-28693D01*
X39764Y-31980D02*
X40039Y-31705D01*
X47350Y-31969D02*
X45039Y-29658D01*
X47350Y-32283D02*
X47350Y-31969D01*
X47429Y-34331D02*
X46549Y-33451D01*
X46549Y-33451D02*
X45191Y-33451D01*
X45191Y-33451D02*
X44624Y-32884D01*
X44624Y-32884D02*
X44624Y-31225D01*
X32039Y-28693D02*
X32039Y-28336D01*
X32039Y-28336D02*
X25476Y-21773D01*
X36500Y-11000D02*
X36500Y-13181D01*
X36500Y-13181D02*
X36295Y-13386D01*
X23061Y-25765D02*
X23061Y-09069D01*
X28627Y-31410D02*
X23061Y-25765D01*
X23061Y-09069D02*
X23561Y-08569D01*
X32186Y-10852D02*
X36295Y-14961D01*
X23561Y-08569D02*
X32072Y-08569D01*
X32072Y-08569D02*
X32186Y-08683D01*
X32186Y-08683D02*
X32186Y-10852D01*
X33177Y-47245D02*
X33177Y-47226D01*
X32087Y-48335D02*
X33177Y-47245D01*
X33749Y-47226D02*
X33177Y-47226D01*
X33858Y-47335D02*
X33749Y-47226D01*
X33177Y-46382D02*
X33177Y-47226D01*
X32087Y-47335D02*
X31315Y-47335D01*
X32177Y-46382D02*
X32177Y-47226D01*
X32177Y-47226D02*
X32087Y-47316D01*
X32087Y-47316D02*
X32087Y-47335D01*
X31315Y-47335D02*
X30315Y-48335D01*
X29398Y-40851D02*
X29398Y-39847D01*
X29134Y-41115D02*
X29398Y-40851D01*
X42897Y-10426D02*
X42047Y-11276D01*
X45040Y-10426D02*
X42897Y-10426D01*
X46704Y-12090D02*
X45040Y-10426D01*
X48852Y-12090D02*
X46704Y-12090D01*
X50238Y-13476D02*
X48852Y-12090D01*
X50238Y-24186D02*
X50238Y-13476D01*
G54D31*
X53000Y-15000D02*
X52533Y-15467D01*
X52560Y-17653D02*
X53392Y-17653D01*
X52533Y-17626D02*
X52560Y-17653D01*
X52533Y-15467D02*
X52533Y-17626D01*
X55607Y-19868D02*
X55607Y-26319D01*
X55607Y-26319D02*
X55329Y-26597D01*
X55329Y-26597D02*
X54996Y-26597D01*
X54996Y-26597D02*
X54996Y-27059D01*
X53392Y-17653D02*
X55607Y-19868D01*
X57041Y-25975D02*
X57041Y-18591D01*
X57996Y-26597D02*
X57663Y-26597D01*
X57996Y-27059D02*
X57996Y-26597D01*
X57663Y-26597D02*
X57041Y-25975D01*
X57041Y-18591D02*
X54000Y-15550D01*
X53668Y-15025D02*
X54240Y-15025D01*
X54000Y-16650D02*
X54000Y-16216D01*
X54000Y-16216D02*
X53366Y-15582D01*
X53366Y-15582D02*
X53366Y-15327D01*
X53366Y-15327D02*
X53668Y-15025D01*
X57246Y-18031D02*
X57246Y-24180D01*
X57246Y-24180D02*
X57663Y-24597D01*
X57663Y-24597D02*
X57996Y-24597D01*
X57996Y-24597D02*
X57996Y-25059D01*
X54240Y-15025D02*
X57246Y-18031D01*
G54D30*
X38634Y-35488D02*
X38634Y-36847D01*
X41142Y-32980D02*
X38634Y-35488D01*
X37039Y-21822D02*
X37039Y-22693D01*
X34864Y-19647D02*
X37039Y-21822D01*
X32202Y-19647D02*
X34864Y-19647D01*
X31496Y-18941D02*
X32202Y-19647D01*
G54D31*
X53405Y-30059D02*
X54996Y-30059D01*
X46039Y-22693D02*
X53405Y-30059D01*
G54D30*
X32481Y-21926D02*
X29496Y-18941D01*
X34272Y-21926D02*
X32481Y-21926D01*
X35039Y-22693D02*
X34272Y-21926D01*
G54D31*
X46512Y-22262D02*
X46512Y-22881D01*
X44039Y-22693D02*
X44497Y-22235D01*
X44497Y-22235D02*
X46485Y-22235D01*
X46485Y-22235D02*
X46512Y-22262D01*
X46512Y-22881D02*
X53228Y-29597D01*
X53228Y-29597D02*
X57996Y-29597D01*
X57996Y-29597D02*
X57996Y-30059D01*
G54D30*
X31039Y-22693D02*
X28145Y-19799D01*
X28145Y-19799D02*
X26354Y-19799D01*
X26354Y-19799D02*
X25496Y-18941D01*
X24347Y-23001D02*
X30039Y-28693D01*
X24347Y-15722D02*
X24347Y-23001D01*
X25684Y-14385D02*
X24347Y-15722D01*
X25684Y-10316D02*
X25684Y-14385D01*
X26800Y-09200D02*
X25684Y-10316D01*
X41325Y-16722D02*
X42047Y-16000D01*
X26527Y-16722D02*
X41325Y-16722D01*
X24845Y-18404D02*
X26527Y-16722D01*
X24845Y-19706D02*
X24845Y-18404D01*
X31685Y-26546D02*
X24845Y-19706D01*
X32892Y-26546D02*
X31685Y-26546D01*
X35039Y-28693D02*
X32892Y-26546D01*
G54D31*
X54996Y-25597D02*
X54996Y-26059D01*
X50943Y-25597D02*
X54996Y-25597D01*
X48039Y-22693D02*
X50943Y-25597D01*
G54D30*
X38039Y-21971D02*
X35009Y-18941D01*
X38039Y-22693D02*
X38039Y-21971D01*
X35009Y-18941D02*
X32496Y-18941D01*
X32924Y-21369D02*
X30496Y-18941D01*
X34715Y-21369D02*
X32924Y-21369D01*
X36039Y-22693D02*
X34715Y-21369D01*
X41039Y-31877D02*
X41039Y-28693D01*
X41142Y-31980D02*
X41039Y-31877D01*
X29134Y-42617D02*
X29134Y-42115D01*
X30743Y-44226D02*
X29134Y-42617D01*
X34177Y-44226D02*
X30743Y-44226D01*
X34177Y-43382D02*
X34177Y-44226D01*
X49640Y-23207D02*
X49640Y-22091D01*
X49472Y-23375D02*
X49640Y-23207D01*
X49640Y-22091D02*
X45689Y-18140D01*
X45689Y-18140D02*
X45689Y-13638D01*
G54D31*
X52405Y-28059D02*
X54996Y-28059D01*
X47039Y-22693D02*
X52405Y-28059D01*
X52847Y-27469D02*
X53543Y-27469D01*
X51969Y-26591D02*
X52847Y-27469D01*
G54D30*
X51380Y-35313D02*
X51380Y-38976D01*
X47390Y-44550D02*
X46250Y-44550D01*
X48350Y-32283D02*
X51380Y-35313D01*
X46250Y-47550D02*
X46250Y-44550D01*
X46250Y-44550D02*
X45100Y-44550D01*
X49039Y-31594D02*
X48350Y-32283D01*
X49039Y-28693D02*
X49039Y-31594D01*
G54D31*
X54268Y-24202D02*
X54663Y-24597D01*
X53000Y-13950D02*
X52304Y-14646D01*
X52304Y-14646D02*
X52304Y-21657D01*
X52304Y-21657D02*
X54268Y-23621D01*
X54268Y-23621D02*
X54268Y-24202D01*
X54663Y-24597D02*
X54996Y-24597D01*
X54996Y-24597D02*
X54996Y-25059D01*
X54996Y-28597D02*
X54996Y-29059D01*
X55330Y-28597D02*
X54996Y-28597D01*
X55944Y-27983D02*
X55330Y-28597D01*
X55944Y-19234D02*
X55944Y-27983D01*
X53000Y-16290D02*
X55944Y-19234D01*
X53000Y-16100D02*
X53000Y-16290D01*
X57996Y-32059D02*
X57996Y-31597D01*
X53943Y-31597D02*
X45039Y-22693D01*
X57996Y-31597D02*
X53943Y-31597D01*
X58608Y-28318D02*
X58329Y-28597D01*
X54000Y-14500D02*
X58608Y-19108D01*
X58608Y-19108D02*
X58608Y-28318D01*
X58329Y-28597D02*
X57996Y-28597D01*
X57996Y-28597D02*
X57996Y-29059D01*
G54D30*
X44734Y-39644D02*
X39896Y-44482D01*
X31177Y-46382D02*
X30315Y-46382D01*
X44734Y-39484D02*
X44734Y-39644D01*
X45719Y-39484D02*
X44734Y-39484D01*
X41370Y-45956D02*
X39896Y-44482D01*
X41370Y-46850D02*
X41370Y-45956D01*
X30315Y-46382D02*
X30315Y-47335D01*
X31937Y-39268D02*
X32516Y-39847D01*
X26936Y-39268D02*
X31937Y-39268D01*
X26822Y-39382D02*
X26936Y-39268D01*
X26822Y-42302D02*
X26822Y-39382D01*
X30315Y-45795D02*
X26822Y-42302D01*
X37137Y-40344D02*
X37634Y-39847D01*
X37137Y-41723D02*
X37137Y-40344D01*
X39896Y-44482D02*
X37137Y-41723D01*
X30315Y-46382D02*
X30315Y-45795D01*
X34533Y-46382D02*
X34533Y-47660D01*
X34533Y-47660D02*
X33858Y-48335D01*
X34177Y-46382D02*
X34533Y-46382D01*
X34533Y-46382D02*
X35516Y-45399D01*
X35516Y-45399D02*
X35516Y-39847D01*
X26191Y-44408D02*
X27165Y-45382D01*
X42768Y-30480D02*
X45006Y-30480D01*
X46350Y-31700D02*
X46350Y-32283D01*
X45006Y-30480D02*
X45068Y-30418D01*
X45068Y-30418D02*
X46350Y-31700D01*
X26191Y-39093D02*
X26191Y-44408D01*
X27283Y-38001D02*
X26191Y-39093D01*
X28244Y-38001D02*
X27283Y-38001D01*
X29398Y-36847D02*
X28244Y-38001D01*
X39039Y-31327D02*
X39039Y-28693D01*
X25264Y-29882D02*
X25264Y-30576D01*
X25264Y-30576D02*
X25958Y-30576D01*
X25958Y-30576D02*
X29398Y-34016D01*
X29398Y-34016D02*
X29398Y-36847D01*
X38386Y-31980D02*
X39039Y-31327D01*
X38583Y-42115D02*
X37996Y-41528D01*
X37996Y-41528D02*
X37996Y-40485D01*
X37996Y-40485D02*
X38634Y-39847D01*
X34554Y-40885D02*
X33516Y-39847D01*
X34554Y-41026D02*
X34554Y-40885D01*
X33465Y-42115D02*
X34554Y-41026D01*
X33516Y-39847D02*
X31940Y-38271D01*
X31940Y-38271D02*
X31940Y-32869D01*
X31940Y-32869D02*
X23673Y-24602D01*
X23673Y-24602D02*
X23673Y-09927D01*
X23673Y-09927D02*
X24400Y-09200D01*
X58990Y-32067D02*
X56877Y-34180D01*
X58990Y-16764D02*
X58990Y-32067D01*
X54409Y-12183D02*
X58990Y-16764D01*
X52453Y-12183D02*
X54409Y-12183D01*
X52339Y-12297D02*
X52453Y-12183D01*
X52339Y-13235D02*
X52339Y-12297D01*
X51181Y-14393D02*
X52339Y-13235D01*
X51181Y-16461D02*
X51181Y-14393D01*
X39295Y-14961D02*
X39295Y-13386D01*
X56877Y-34180D02*
X52924Y-34180D01*
X52924Y-34180D02*
X51963Y-35141D01*
X51963Y-35141D02*
X51963Y-39484D01*
X51963Y-39484D02*
X51871Y-39576D01*
X51871Y-39576D02*
X50946Y-39576D01*
X50946Y-39576D02*
X50456Y-39086D01*
X50456Y-39086D02*
X50456Y-35094D01*
X50456Y-35094D02*
X48304Y-32942D01*
X48304Y-32942D02*
X46009Y-32942D01*
X46009Y-32942D02*
X45350Y-32283D01*
G54D10*
G36*
X26248Y-09016D02*
X26220Y-09084D01*
X26220Y-09148D01*
X25368Y-10000D01*
X25271Y-10145D01*
X25237Y-10316D01*
X25237Y-14199D01*
X24919Y-14517D01*
X24919Y-13574D01*
X24908Y-13370D01*
X24852Y-13233D01*
X24761Y-13210D01*
X24471Y-13500D01*
X24761Y-13790D01*
X24852Y-13767D01*
X24919Y-13574D01*
X24919Y-14517D01*
X24120Y-15316D01*
X24120Y-13921D01*
X24124Y-13916D01*
X24133Y-13952D01*
X24326Y-14019D01*
X24530Y-14008D01*
X24667Y-13952D01*
X24690Y-13861D01*
X24435Y-13606D01*
X24400Y-13571D01*
X24329Y-13500D01*
X24400Y-13429D01*
X24435Y-13394D01*
X24690Y-13139D01*
X24667Y-13048D01*
X24548Y-13006D01*
X24697Y-12945D01*
X24845Y-12798D01*
X24925Y-12605D01*
X24925Y-12396D01*
X24847Y-12207D01*
X24847Y-10573D01*
X24891Y-10529D01*
X24980Y-10316D01*
X24980Y-10085D01*
X24892Y-09872D01*
X24729Y-09709D01*
X24708Y-09700D01*
X24728Y-09692D01*
X24891Y-09529D01*
X24980Y-09316D01*
X24980Y-09085D01*
X24951Y-09016D01*
X26248Y-09016D01*
X26248Y-09016D01*
G37*
G54D32*
X26248Y-09016D02*
X26220Y-09084D01*
X26220Y-09148D01*
X25368Y-10000D01*
X25271Y-10145D01*
X25237Y-10316D01*
X25237Y-14199D01*
X24919Y-14517D01*
X24919Y-13574D01*
X24908Y-13370D01*
X24852Y-13233D01*
X24761Y-13210D01*
X24471Y-13500D01*
X24761Y-13790D01*
X24852Y-13767D01*
X24919Y-13574D01*
X24919Y-14517D01*
X24120Y-15316D01*
X24120Y-13921D01*
X24124Y-13916D01*
X24133Y-13952D01*
X24326Y-14019D01*
X24530Y-14008D01*
X24667Y-13952D01*
X24690Y-13861D01*
X24435Y-13606D01*
X24400Y-13571D01*
X24329Y-13500D01*
X24400Y-13429D01*
X24435Y-13394D01*
X24690Y-13139D01*
X24667Y-13048D01*
X24548Y-13006D01*
X24697Y-12945D01*
X24845Y-12798D01*
X24925Y-12605D01*
X24925Y-12396D01*
X24847Y-12207D01*
X24847Y-10573D01*
X24891Y-10529D01*
X24980Y-10316D01*
X24980Y-10085D01*
X24892Y-09872D01*
X24729Y-09709D01*
X24708Y-09700D01*
X24728Y-09692D01*
X24891Y-09529D01*
X24980Y-09316D01*
X24980Y-09085D01*
X24951Y-09016D01*
X26248Y-09016D01*
G54D10*
G36*
X30006Y-48769D02*
X26003Y-48769D01*
X26194Y-48690D01*
X26251Y-48633D01*
X29870Y-48633D01*
X30006Y-48769D01*
X30006Y-48769D01*
G37*
G54D32*
X30006Y-48769D02*
X26003Y-48769D01*
X26194Y-48690D01*
X26251Y-48633D01*
X29870Y-48633D01*
X30006Y-48769D01*
G54D10*
G36*
X31493Y-33730D02*
X29734Y-33730D01*
X29714Y-33700D01*
X29713Y-33699D01*
X26274Y-30260D01*
X26129Y-30163D01*
X25958Y-30129D01*
X25711Y-30129D01*
X25711Y-29882D01*
X25677Y-29711D01*
X25580Y-29566D01*
X25435Y-29469D01*
X25264Y-29435D01*
X25093Y-29469D01*
X24948Y-29566D01*
X24851Y-29711D01*
X24817Y-29882D01*
X24817Y-30576D01*
X24851Y-30747D01*
X24948Y-30892D01*
X25093Y-30989D01*
X25264Y-31023D01*
X25773Y-31023D01*
X28480Y-33730D01*
X24674Y-33730D01*
X24674Y-47291D01*
X24565Y-47553D01*
X24565Y-45732D01*
X24565Y-45633D01*
X24565Y-45033D01*
X24527Y-44941D01*
X24457Y-44871D01*
X24366Y-44833D01*
X24341Y-44833D01*
X24481Y-44693D01*
X24565Y-44491D01*
X24565Y-44273D01*
X24481Y-44071D01*
X24327Y-43917D01*
X24125Y-43833D01*
X23907Y-43833D01*
X23705Y-43917D01*
X23551Y-44071D01*
X23467Y-44273D01*
X23467Y-44491D01*
X23551Y-44693D01*
X23691Y-44833D01*
X23667Y-44833D01*
X23575Y-44871D01*
X23505Y-44941D01*
X23467Y-45032D01*
X23467Y-45131D01*
X23467Y-45731D01*
X23505Y-45823D01*
X23575Y-45893D01*
X23666Y-45931D01*
X23765Y-45931D01*
X24365Y-45931D01*
X24457Y-45893D01*
X24527Y-45823D01*
X24565Y-45732D01*
X24565Y-47553D01*
X24550Y-47590D01*
X24550Y-48008D01*
X24674Y-48307D01*
X24674Y-48633D01*
X24948Y-48633D01*
X25005Y-48690D01*
X25195Y-48769D01*
X23042Y-48769D01*
X23042Y-26382D01*
X28309Y-31723D01*
X28453Y-31821D01*
X28610Y-31853D01*
X28617Y-31856D01*
X28624Y-31856D01*
X28794Y-31856D01*
X28958Y-31788D01*
X29084Y-31663D01*
X29152Y-31499D01*
X29152Y-31322D01*
X29084Y-31158D01*
X28959Y-31032D01*
X28830Y-30978D01*
X23508Y-25581D01*
X23508Y-25069D01*
X31493Y-33054D01*
X31493Y-33730D01*
X31493Y-33730D01*
G37*
G54D32*
X31493Y-33730D02*
X29734Y-33730D01*
X29714Y-33700D01*
X29713Y-33699D01*
X26274Y-30260D01*
X26129Y-30163D01*
X25958Y-30129D01*
X25711Y-30129D01*
X25711Y-29882D01*
X25677Y-29711D01*
X25580Y-29566D01*
X25435Y-29469D01*
X25264Y-29435D01*
X25093Y-29469D01*
X24948Y-29566D01*
X24851Y-29711D01*
X24817Y-29882D01*
X24817Y-30576D01*
X24851Y-30747D01*
X24948Y-30892D01*
X25093Y-30989D01*
X25264Y-31023D01*
X25773Y-31023D01*
X28480Y-33730D01*
X24674Y-33730D01*
X24674Y-47291D01*
X24565Y-47553D01*
X24565Y-45732D01*
X24565Y-45633D01*
X24565Y-45033D01*
X24527Y-44941D01*
X24457Y-44871D01*
X24366Y-44833D01*
X24341Y-44833D01*
X24481Y-44693D01*
X24565Y-44491D01*
X24565Y-44273D01*
X24481Y-44071D01*
X24327Y-43917D01*
X24125Y-43833D01*
X23907Y-43833D01*
X23705Y-43917D01*
X23551Y-44071D01*
X23467Y-44273D01*
X23467Y-44491D01*
X23551Y-44693D01*
X23691Y-44833D01*
X23667Y-44833D01*
X23575Y-44871D01*
X23505Y-44941D01*
X23467Y-45032D01*
X23467Y-45131D01*
X23467Y-45731D01*
X23505Y-45823D01*
X23575Y-45893D01*
X23666Y-45931D01*
X23765Y-45931D01*
X24365Y-45931D01*
X24457Y-45893D01*
X24527Y-45823D01*
X24565Y-45732D01*
X24565Y-47553D01*
X24550Y-47590D01*
X24550Y-48008D01*
X24674Y-48307D01*
X24674Y-48633D01*
X24948Y-48633D01*
X25005Y-48690D01*
X25195Y-48769D01*
X23042Y-48769D01*
X23042Y-26382D01*
X28309Y-31723D01*
X28453Y-31821D01*
X28610Y-31853D01*
X28617Y-31856D01*
X28624Y-31856D01*
X28794Y-31856D01*
X28958Y-31788D01*
X29084Y-31663D01*
X29152Y-31499D01*
X29152Y-31322D01*
X29084Y-31158D01*
X28959Y-31032D01*
X28830Y-30978D01*
X23508Y-25581D01*
X23508Y-25069D01*
X31493Y-33054D01*
X31493Y-33730D01*
G54D10*
G36*
X50009Y-38452D02*
X49556Y-38452D01*
X49464Y-38490D01*
X49394Y-38560D01*
X49356Y-38651D01*
X49356Y-38750D01*
X49356Y-38874D01*
X49263Y-38781D01*
X49263Y-35147D01*
X43751Y-35147D01*
X43751Y-33730D01*
X41024Y-33730D01*
X41251Y-33502D01*
X41439Y-33425D01*
X41587Y-33278D01*
X41667Y-33085D01*
X41667Y-32876D01*
X41587Y-32683D01*
X41440Y-32535D01*
X41306Y-32479D01*
X41439Y-32425D01*
X41587Y-32278D01*
X41667Y-32085D01*
X41667Y-31876D01*
X41587Y-31683D01*
X41486Y-31581D01*
X41486Y-29022D01*
X41504Y-29004D01*
X41539Y-28919D01*
X41574Y-29004D01*
X41592Y-29022D01*
X41592Y-30912D01*
X41626Y-31083D01*
X41723Y-31228D01*
X42073Y-31578D01*
X42073Y-31582D01*
X42009Y-31646D01*
X41971Y-31737D01*
X41971Y-31836D01*
X41971Y-32436D01*
X42009Y-32528D01*
X42079Y-32598D01*
X42170Y-32636D01*
X42269Y-32636D01*
X42869Y-32636D01*
X42961Y-32598D01*
X43031Y-32528D01*
X43069Y-32437D01*
X43069Y-32338D01*
X43069Y-31738D01*
X43031Y-31646D01*
X42967Y-31582D01*
X42967Y-31393D01*
X42933Y-31222D01*
X42836Y-31077D01*
X42665Y-30906D01*
X42768Y-30927D01*
X44295Y-30927D01*
X44211Y-31054D01*
X44177Y-31225D01*
X44177Y-32884D01*
X44211Y-33055D01*
X44308Y-33200D01*
X44874Y-33766D01*
X44875Y-33767D01*
X44974Y-33833D01*
X44918Y-33890D01*
X44880Y-33981D01*
X44880Y-34080D01*
X44880Y-34680D01*
X44918Y-34772D01*
X44988Y-34842D01*
X45079Y-34880D01*
X45178Y-34880D01*
X45778Y-34880D01*
X45870Y-34842D01*
X45940Y-34772D01*
X45978Y-34681D01*
X45978Y-34656D01*
X46118Y-34796D01*
X46320Y-34880D01*
X46538Y-34880D01*
X46740Y-34796D01*
X46894Y-34642D01*
X46929Y-34557D01*
X46964Y-34642D01*
X47118Y-34796D01*
X47320Y-34880D01*
X47538Y-34880D01*
X47740Y-34796D01*
X47894Y-34642D01*
X47929Y-34557D01*
X47964Y-34642D01*
X48118Y-34796D01*
X48320Y-34880D01*
X48538Y-34880D01*
X48740Y-34796D01*
X48894Y-34642D01*
X48978Y-34440D01*
X48978Y-34248D01*
X50009Y-35279D01*
X50009Y-38452D01*
X50009Y-38452D01*
G37*
G54D32*
X50009Y-38452D02*
X49556Y-38452D01*
X49464Y-38490D01*
X49394Y-38560D01*
X49356Y-38651D01*
X49356Y-38750D01*
X49356Y-38874D01*
X49263Y-38781D01*
X49263Y-35147D01*
X43751Y-35147D01*
X43751Y-33730D01*
X41024Y-33730D01*
X41251Y-33502D01*
X41439Y-33425D01*
X41587Y-33278D01*
X41667Y-33085D01*
X41667Y-32876D01*
X41587Y-32683D01*
X41440Y-32535D01*
X41306Y-32479D01*
X41439Y-32425D01*
X41587Y-32278D01*
X41667Y-32085D01*
X41667Y-31876D01*
X41587Y-31683D01*
X41486Y-31581D01*
X41486Y-29022D01*
X41504Y-29004D01*
X41539Y-28919D01*
X41574Y-29004D01*
X41592Y-29022D01*
X41592Y-30912D01*
X41626Y-31083D01*
X41723Y-31228D01*
X42073Y-31578D01*
X42073Y-31582D01*
X42009Y-31646D01*
X41971Y-31737D01*
X41971Y-31836D01*
X41971Y-32436D01*
X42009Y-32528D01*
X42079Y-32598D01*
X42170Y-32636D01*
X42269Y-32636D01*
X42869Y-32636D01*
X42961Y-32598D01*
X43031Y-32528D01*
X43069Y-32437D01*
X43069Y-32338D01*
X43069Y-31738D01*
X43031Y-31646D01*
X42967Y-31582D01*
X42967Y-31393D01*
X42933Y-31222D01*
X42836Y-31077D01*
X42665Y-30906D01*
X42768Y-30927D01*
X44295Y-30927D01*
X44211Y-31054D01*
X44177Y-31225D01*
X44177Y-32884D01*
X44211Y-33055D01*
X44308Y-33200D01*
X44874Y-33766D01*
X44875Y-33767D01*
X44974Y-33833D01*
X44918Y-33890D01*
X44880Y-33981D01*
X44880Y-34080D01*
X44880Y-34680D01*
X44918Y-34772D01*
X44988Y-34842D01*
X45079Y-34880D01*
X45178Y-34880D01*
X45778Y-34880D01*
X45870Y-34842D01*
X45940Y-34772D01*
X45978Y-34681D01*
X45978Y-34656D01*
X46118Y-34796D01*
X46320Y-34880D01*
X46538Y-34880D01*
X46740Y-34796D01*
X46894Y-34642D01*
X46929Y-34557D01*
X46964Y-34642D01*
X47118Y-34796D01*
X47320Y-34880D01*
X47538Y-34880D01*
X47740Y-34796D01*
X47894Y-34642D01*
X47929Y-34557D01*
X47964Y-34642D01*
X48118Y-34796D01*
X48320Y-34880D01*
X48538Y-34880D01*
X48740Y-34796D01*
X48894Y-34642D01*
X48978Y-34440D01*
X48978Y-34248D01*
X50009Y-35279D01*
X50009Y-38452D01*
G54D10*
G36*
X57817Y-32608D02*
X56692Y-33733D01*
X55678Y-33733D01*
X55678Y-32196D01*
X55631Y-32109D01*
X55046Y-32109D01*
X55046Y-32619D01*
X55156Y-32619D01*
X55369Y-32569D01*
X55546Y-32441D01*
X55661Y-32255D01*
X55678Y-32196D01*
X55678Y-33733D01*
X54946Y-33733D01*
X54946Y-32619D01*
X54946Y-32109D01*
X54361Y-32109D01*
X54314Y-32196D01*
X54331Y-32255D01*
X54446Y-32441D01*
X54623Y-32569D01*
X54836Y-32619D01*
X54946Y-32619D01*
X54946Y-33733D01*
X52924Y-33733D01*
X52753Y-33767D01*
X52608Y-33864D01*
X51647Y-34825D01*
X51597Y-34898D01*
X48982Y-32283D01*
X49355Y-31910D01*
X49452Y-31765D01*
X49486Y-31594D01*
X49486Y-29022D01*
X49504Y-29004D01*
X49588Y-28802D01*
X49588Y-28584D01*
X49504Y-28382D01*
X49350Y-28228D01*
X49148Y-28144D01*
X48930Y-28144D01*
X48728Y-28228D01*
X48574Y-28382D01*
X48539Y-28466D01*
X48504Y-28382D01*
X48350Y-28228D01*
X48148Y-28144D01*
X47930Y-28144D01*
X47728Y-28228D01*
X47574Y-28382D01*
X47539Y-28466D01*
X47504Y-28382D01*
X47350Y-28228D01*
X47148Y-28144D01*
X46930Y-28144D01*
X46728Y-28228D01*
X46574Y-28382D01*
X46539Y-28466D01*
X46504Y-28382D01*
X46350Y-28228D01*
X46148Y-28144D01*
X45930Y-28144D01*
X45728Y-28228D01*
X45574Y-28382D01*
X45539Y-28466D01*
X45504Y-28382D01*
X45350Y-28228D01*
X45148Y-28144D01*
X44930Y-28144D01*
X44728Y-28228D01*
X44574Y-28382D01*
X44539Y-28466D01*
X44504Y-28382D01*
X44350Y-28228D01*
X44148Y-28144D01*
X43930Y-28144D01*
X43728Y-28228D01*
X43574Y-28382D01*
X43539Y-28466D01*
X43504Y-28382D01*
X43350Y-28228D01*
X43148Y-28144D01*
X42930Y-28144D01*
X42728Y-28228D01*
X42574Y-28382D01*
X42539Y-28466D01*
X42504Y-28382D01*
X42350Y-28228D01*
X42148Y-28144D01*
X41930Y-28144D01*
X41728Y-28228D01*
X41574Y-28382D01*
X41539Y-28466D01*
X41504Y-28382D01*
X41350Y-28228D01*
X41148Y-28144D01*
X40930Y-28144D01*
X40728Y-28228D01*
X40574Y-28382D01*
X40539Y-28466D01*
X40504Y-28382D01*
X40350Y-28228D01*
X40148Y-28144D01*
X39930Y-28144D01*
X39728Y-28228D01*
X39574Y-28382D01*
X39539Y-28466D01*
X39504Y-28382D01*
X39350Y-28228D01*
X39148Y-28144D01*
X38930Y-28144D01*
X38728Y-28228D01*
X38574Y-28382D01*
X38539Y-28466D01*
X38504Y-28382D01*
X38350Y-28228D01*
X38148Y-28144D01*
X37930Y-28144D01*
X37728Y-28228D01*
X37574Y-28382D01*
X37539Y-28466D01*
X37504Y-28382D01*
X37350Y-28228D01*
X37148Y-28144D01*
X36930Y-28144D01*
X36728Y-28228D01*
X36574Y-28382D01*
X36539Y-28466D01*
X36504Y-28382D01*
X36350Y-28228D01*
X36148Y-28144D01*
X35930Y-28144D01*
X35728Y-28228D01*
X35574Y-28382D01*
X35539Y-28466D01*
X35504Y-28382D01*
X35350Y-28228D01*
X35148Y-28144D01*
X35122Y-28144D01*
X33208Y-26230D01*
X33063Y-26133D01*
X32892Y-26099D01*
X31870Y-26099D01*
X25292Y-19521D01*
X25292Y-19504D01*
X25377Y-19540D01*
X25463Y-19540D01*
X26038Y-20115D01*
X26183Y-20212D01*
X26354Y-20246D01*
X27959Y-20246D01*
X29878Y-22165D01*
X29728Y-22228D01*
X29574Y-22382D01*
X29490Y-22584D01*
X29490Y-22802D01*
X29574Y-23004D01*
X29728Y-23158D01*
X29930Y-23242D01*
X30148Y-23242D01*
X30350Y-23158D01*
X30504Y-23004D01*
X30539Y-22919D01*
X30574Y-23004D01*
X30728Y-23158D01*
X30930Y-23242D01*
X31148Y-23242D01*
X31350Y-23158D01*
X31504Y-23004D01*
X31539Y-22919D01*
X31574Y-23004D01*
X31728Y-23158D01*
X31930Y-23242D01*
X32148Y-23242D01*
X32350Y-23158D01*
X32504Y-23004D01*
X32539Y-22919D01*
X32574Y-23004D01*
X32728Y-23158D01*
X32930Y-23242D01*
X33148Y-23242D01*
X33350Y-23158D01*
X33504Y-23004D01*
X33539Y-22919D01*
X33574Y-23004D01*
X33728Y-23158D01*
X33930Y-23242D01*
X34148Y-23242D01*
X34350Y-23158D01*
X34504Y-23004D01*
X34539Y-22919D01*
X34574Y-23004D01*
X34728Y-23158D01*
X34930Y-23242D01*
X35148Y-23242D01*
X35350Y-23158D01*
X35504Y-23004D01*
X35539Y-22919D01*
X35574Y-23004D01*
X35728Y-23158D01*
X35930Y-23242D01*
X36148Y-23242D01*
X36350Y-23158D01*
X36504Y-23004D01*
X36539Y-22919D01*
X36574Y-23004D01*
X36728Y-23158D01*
X36930Y-23242D01*
X37148Y-23242D01*
X37350Y-23158D01*
X37504Y-23004D01*
X37539Y-22919D01*
X37574Y-23004D01*
X37728Y-23158D01*
X37930Y-23242D01*
X38148Y-23242D01*
X38350Y-23158D01*
X38504Y-23004D01*
X38539Y-22919D01*
X38574Y-23004D01*
X38728Y-23158D01*
X38930Y-23242D01*
X39148Y-23242D01*
X39350Y-23158D01*
X39504Y-23004D01*
X39539Y-22919D01*
X39574Y-23004D01*
X39728Y-23158D01*
X39930Y-23242D01*
X40148Y-23242D01*
X40350Y-23158D01*
X40504Y-23004D01*
X40539Y-22919D01*
X40574Y-23004D01*
X40728Y-23158D01*
X40930Y-23242D01*
X41148Y-23242D01*
X41350Y-23158D01*
X41504Y-23004D01*
X41539Y-22919D01*
X41574Y-23004D01*
X41728Y-23158D01*
X41930Y-23242D01*
X42148Y-23242D01*
X42350Y-23158D01*
X42504Y-23004D01*
X42539Y-22919D01*
X42574Y-23004D01*
X42728Y-23158D01*
X42930Y-23242D01*
X43148Y-23242D01*
X43350Y-23158D01*
X43504Y-23004D01*
X43539Y-22919D01*
X43574Y-23004D01*
X43728Y-23158D01*
X43930Y-23242D01*
X44148Y-23242D01*
X44350Y-23158D01*
X44504Y-23004D01*
X44539Y-22919D01*
X44574Y-23004D01*
X44728Y-23158D01*
X44930Y-23242D01*
X45148Y-23242D01*
X45160Y-23236D01*
X53731Y-31808D01*
X53732Y-31808D01*
X53828Y-31873D01*
X53829Y-31873D01*
X53847Y-31876D01*
X53943Y-31896D01*
X54321Y-31896D01*
X54314Y-31922D01*
X54361Y-32009D01*
X54896Y-32009D01*
X54946Y-32009D01*
X55046Y-32009D01*
X55096Y-32009D01*
X55631Y-32009D01*
X55678Y-31922D01*
X55670Y-31896D01*
X57316Y-31896D01*
X57294Y-31950D01*
X57294Y-32168D01*
X57378Y-32370D01*
X57532Y-32524D01*
X57734Y-32608D01*
X57817Y-32608D01*
X57817Y-32608D01*
G37*
G54D32*
X57817Y-32608D02*
X56692Y-33733D01*
X55678Y-33733D01*
X55678Y-32196D01*
X55631Y-32109D01*
X55046Y-32109D01*
X55046Y-32619D01*
X55156Y-32619D01*
X55369Y-32569D01*
X55546Y-32441D01*
X55661Y-32255D01*
X55678Y-32196D01*
X55678Y-33733D01*
X54946Y-33733D01*
X54946Y-32619D01*
X54946Y-32109D01*
X54361Y-32109D01*
X54314Y-32196D01*
X54331Y-32255D01*
X54446Y-32441D01*
X54623Y-32569D01*
X54836Y-32619D01*
X54946Y-32619D01*
X54946Y-33733D01*
X52924Y-33733D01*
X52753Y-33767D01*
X52608Y-33864D01*
X51647Y-34825D01*
X51597Y-34898D01*
X48982Y-32283D01*
X49355Y-31910D01*
X49452Y-31765D01*
X49486Y-31594D01*
X49486Y-29022D01*
X49504Y-29004D01*
X49588Y-28802D01*
X49588Y-28584D01*
X49504Y-28382D01*
X49350Y-28228D01*
X49148Y-28144D01*
X48930Y-28144D01*
X48728Y-28228D01*
X48574Y-28382D01*
X48539Y-28466D01*
X48504Y-28382D01*
X48350Y-28228D01*
X48148Y-28144D01*
X47930Y-28144D01*
X47728Y-28228D01*
X47574Y-28382D01*
X47539Y-28466D01*
X47504Y-28382D01*
X47350Y-28228D01*
X47148Y-28144D01*
X46930Y-28144D01*
X46728Y-28228D01*
X46574Y-28382D01*
X46539Y-28466D01*
X46504Y-28382D01*
X46350Y-28228D01*
X46148Y-28144D01*
X45930Y-28144D01*
X45728Y-28228D01*
X45574Y-28382D01*
X45539Y-28466D01*
X45504Y-28382D01*
X45350Y-28228D01*
X45148Y-28144D01*
X44930Y-28144D01*
X44728Y-28228D01*
X44574Y-28382D01*
X44539Y-28466D01*
X44504Y-28382D01*
X44350Y-28228D01*
X44148Y-28144D01*
X43930Y-28144D01*
X43728Y-28228D01*
X43574Y-28382D01*
X43539Y-28466D01*
X43504Y-28382D01*
X43350Y-28228D01*
X43148Y-28144D01*
X42930Y-28144D01*
X42728Y-28228D01*
X42574Y-28382D01*
X42539Y-28466D01*
X42504Y-28382D01*
X42350Y-28228D01*
X42148Y-28144D01*
X41930Y-28144D01*
X41728Y-28228D01*
X41574Y-28382D01*
X41539Y-28466D01*
X41504Y-28382D01*
X41350Y-28228D01*
X41148Y-28144D01*
X40930Y-28144D01*
X40728Y-28228D01*
X40574Y-28382D01*
X40539Y-28466D01*
X40504Y-28382D01*
X40350Y-28228D01*
X40148Y-28144D01*
X39930Y-28144D01*
X39728Y-28228D01*
X39574Y-28382D01*
X39539Y-28466D01*
X39504Y-28382D01*
X39350Y-28228D01*
X39148Y-28144D01*
X38930Y-28144D01*
X38728Y-28228D01*
X38574Y-28382D01*
X38539Y-28466D01*
X38504Y-28382D01*
X38350Y-28228D01*
X38148Y-28144D01*
X37930Y-28144D01*
X37728Y-28228D01*
X37574Y-28382D01*
X37539Y-28466D01*
X37504Y-28382D01*
X37350Y-28228D01*
X37148Y-28144D01*
X36930Y-28144D01*
X36728Y-28228D01*
X36574Y-28382D01*
X36539Y-28466D01*
X36504Y-28382D01*
X36350Y-28228D01*
X36148Y-28144D01*
X35930Y-28144D01*
X35728Y-28228D01*
X35574Y-28382D01*
X35539Y-28466D01*
X35504Y-28382D01*
X35350Y-28228D01*
X35148Y-28144D01*
X35122Y-28144D01*
X33208Y-26230D01*
X33063Y-26133D01*
X32892Y-26099D01*
X31870Y-26099D01*
X25292Y-19521D01*
X25292Y-19504D01*
X25377Y-19540D01*
X25463Y-19540D01*
X26038Y-20115D01*
X26183Y-20212D01*
X26354Y-20246D01*
X27959Y-20246D01*
X29878Y-22165D01*
X29728Y-22228D01*
X29574Y-22382D01*
X29490Y-22584D01*
X29490Y-22802D01*
X29574Y-23004D01*
X29728Y-23158D01*
X29930Y-23242D01*
X30148Y-23242D01*
X30350Y-23158D01*
X30504Y-23004D01*
X30539Y-22919D01*
X30574Y-23004D01*
X30728Y-23158D01*
X30930Y-23242D01*
X31148Y-23242D01*
X31350Y-23158D01*
X31504Y-23004D01*
X31539Y-22919D01*
X31574Y-23004D01*
X31728Y-23158D01*
X31930Y-23242D01*
X32148Y-23242D01*
X32350Y-23158D01*
X32504Y-23004D01*
X32539Y-22919D01*
X32574Y-23004D01*
X32728Y-23158D01*
X32930Y-23242D01*
X33148Y-23242D01*
X33350Y-23158D01*
X33504Y-23004D01*
X33539Y-22919D01*
X33574Y-23004D01*
X33728Y-23158D01*
X33930Y-23242D01*
X34148Y-23242D01*
X34350Y-23158D01*
X34504Y-23004D01*
X34539Y-22919D01*
X34574Y-23004D01*
X34728Y-23158D01*
X34930Y-23242D01*
X35148Y-23242D01*
X35350Y-23158D01*
X35504Y-23004D01*
X35539Y-22919D01*
X35574Y-23004D01*
X35728Y-23158D01*
X35930Y-23242D01*
X36148Y-23242D01*
X36350Y-23158D01*
X36504Y-23004D01*
X36539Y-22919D01*
X36574Y-23004D01*
X36728Y-23158D01*
X36930Y-23242D01*
X37148Y-23242D01*
X37350Y-23158D01*
X37504Y-23004D01*
X37539Y-22919D01*
X37574Y-23004D01*
X37728Y-23158D01*
X37930Y-23242D01*
X38148Y-23242D01*
X38350Y-23158D01*
X38504Y-23004D01*
X38539Y-22919D01*
X38574Y-23004D01*
X38728Y-23158D01*
X38930Y-23242D01*
X39148Y-23242D01*
X39350Y-23158D01*
X39504Y-23004D01*
X39539Y-22919D01*
X39574Y-23004D01*
X39728Y-23158D01*
X39930Y-23242D01*
X40148Y-23242D01*
X40350Y-23158D01*
X40504Y-23004D01*
X40539Y-22919D01*
X40574Y-23004D01*
X40728Y-23158D01*
X40930Y-23242D01*
X41148Y-23242D01*
X41350Y-23158D01*
X41504Y-23004D01*
X41539Y-22919D01*
X41574Y-23004D01*
X41728Y-23158D01*
X41930Y-23242D01*
X42148Y-23242D01*
X42350Y-23158D01*
X42504Y-23004D01*
X42539Y-22919D01*
X42574Y-23004D01*
X42728Y-23158D01*
X42930Y-23242D01*
X43148Y-23242D01*
X43350Y-23158D01*
X43504Y-23004D01*
X43539Y-22919D01*
X43574Y-23004D01*
X43728Y-23158D01*
X43930Y-23242D01*
X44148Y-23242D01*
X44350Y-23158D01*
X44504Y-23004D01*
X44539Y-22919D01*
X44574Y-23004D01*
X44728Y-23158D01*
X44930Y-23242D01*
X45148Y-23242D01*
X45160Y-23236D01*
X53731Y-31808D01*
X53732Y-31808D01*
X53828Y-31873D01*
X53829Y-31873D01*
X53847Y-31876D01*
X53943Y-31896D01*
X54321Y-31896D01*
X54314Y-31922D01*
X54361Y-32009D01*
X54896Y-32009D01*
X54946Y-32009D01*
X55046Y-32009D01*
X55096Y-32009D01*
X55631Y-32009D01*
X55678Y-31922D01*
X55670Y-31896D01*
X57316Y-31896D01*
X57294Y-31950D01*
X57294Y-32168D01*
X57378Y-32370D01*
X57532Y-32524D01*
X57734Y-32608D01*
X57817Y-32608D01*
G54D10*
G36*
X58543Y-18620D02*
X54543Y-14621D01*
X54549Y-14609D01*
X54549Y-14391D01*
X54549Y-13509D01*
X54549Y-13291D01*
X54465Y-13089D01*
X54311Y-12935D01*
X54109Y-12851D01*
X53891Y-12851D01*
X53689Y-12935D01*
X53549Y-13074D01*
X53550Y-12962D01*
X53488Y-12900D01*
X53050Y-12900D01*
X53050Y-13338D01*
X53112Y-13400D01*
X53251Y-13399D01*
X53350Y-13399D01*
X53441Y-13361D01*
X53451Y-13351D01*
X53451Y-13509D01*
X53535Y-13711D01*
X53689Y-13865D01*
X53891Y-13949D01*
X54109Y-13949D01*
X54311Y-13865D01*
X54465Y-13711D01*
X54549Y-13509D01*
X54549Y-14391D01*
X54465Y-14189D01*
X54311Y-14035D01*
X54109Y-13951D01*
X53891Y-13951D01*
X53689Y-14035D01*
X53535Y-14189D01*
X53451Y-14391D01*
X53451Y-14609D01*
X53518Y-14772D01*
X53503Y-14782D01*
X53465Y-14689D01*
X53311Y-14535D01*
X53166Y-14475D01*
X53311Y-14415D01*
X53465Y-14261D01*
X53549Y-14059D01*
X53549Y-13841D01*
X53465Y-13639D01*
X53311Y-13485D01*
X53109Y-13401D01*
X52891Y-13401D01*
X52703Y-13479D01*
X52719Y-13455D01*
X52751Y-13407D01*
X52752Y-13406D01*
X52753Y-13399D01*
X52888Y-13400D01*
X52950Y-13338D01*
X52950Y-12950D01*
X52950Y-12900D01*
X52950Y-12800D01*
X53050Y-12800D01*
X53100Y-12800D01*
X53488Y-12800D01*
X53550Y-12738D01*
X53549Y-12630D01*
X54224Y-12630D01*
X58543Y-16949D01*
X58543Y-18620D01*
X58543Y-18620D01*
G37*
G54D32*
X58543Y-18620D02*
X54543Y-14621D01*
X54549Y-14609D01*
X54549Y-14391D01*
X54549Y-13509D01*
X54549Y-13291D01*
X54465Y-13089D01*
X54311Y-12935D01*
X54109Y-12851D01*
X53891Y-12851D01*
X53689Y-12935D01*
X53549Y-13074D01*
X53550Y-12962D01*
X53488Y-12900D01*
X53050Y-12900D01*
X53050Y-13338D01*
X53112Y-13400D01*
X53251Y-13399D01*
X53350Y-13399D01*
X53441Y-13361D01*
X53451Y-13351D01*
X53451Y-13509D01*
X53535Y-13711D01*
X53689Y-13865D01*
X53891Y-13949D01*
X54109Y-13949D01*
X54311Y-13865D01*
X54465Y-13711D01*
X54549Y-13509D01*
X54549Y-14391D01*
X54465Y-14189D01*
X54311Y-14035D01*
X54109Y-13951D01*
X53891Y-13951D01*
X53689Y-14035D01*
X53535Y-14189D01*
X53451Y-14391D01*
X53451Y-14609D01*
X53518Y-14772D01*
X53503Y-14782D01*
X53465Y-14689D01*
X53311Y-14535D01*
X53166Y-14475D01*
X53311Y-14415D01*
X53465Y-14261D01*
X53549Y-14059D01*
X53549Y-13841D01*
X53465Y-13639D01*
X53311Y-13485D01*
X53109Y-13401D01*
X52891Y-13401D01*
X52703Y-13479D01*
X52719Y-13455D01*
X52751Y-13407D01*
X52752Y-13406D01*
X52753Y-13399D01*
X52888Y-13400D01*
X52950Y-13338D01*
X52950Y-12950D01*
X52950Y-12900D01*
X52950Y-12800D01*
X53050Y-12800D01*
X53100Y-12800D01*
X53488Y-12800D01*
X53550Y-12738D01*
X53549Y-12630D01*
X54224Y-12630D01*
X58543Y-16949D01*
X58543Y-18620D01*
G54D10*
G36*
X60422Y-48769D02*
X60210Y-48769D01*
X60210Y-42896D01*
X60210Y-42687D01*
X60130Y-42494D01*
X59983Y-42346D01*
X59849Y-42290D01*
X59982Y-42236D01*
X60130Y-42089D01*
X60210Y-41896D01*
X60210Y-41687D01*
X60130Y-41494D01*
X59983Y-41346D01*
X59849Y-41290D01*
X59982Y-41236D01*
X60130Y-41089D01*
X60210Y-40896D01*
X60210Y-40687D01*
X60130Y-40494D01*
X59983Y-40346D01*
X59849Y-40290D01*
X59982Y-40236D01*
X60130Y-40089D01*
X60210Y-39896D01*
X60210Y-39687D01*
X60130Y-39494D01*
X59983Y-39346D01*
X59849Y-39290D01*
X59982Y-39236D01*
X60130Y-39089D01*
X60210Y-38896D01*
X60210Y-38687D01*
X60130Y-38494D01*
X59983Y-38346D01*
X59849Y-38290D01*
X59982Y-38236D01*
X60130Y-38089D01*
X60210Y-37896D01*
X60210Y-37687D01*
X60130Y-37494D01*
X59983Y-37346D01*
X59849Y-37290D01*
X59982Y-37236D01*
X60130Y-37089D01*
X60210Y-36896D01*
X60210Y-36687D01*
X60130Y-36494D01*
X59983Y-36346D01*
X59849Y-36290D01*
X59982Y-36236D01*
X60130Y-36089D01*
X60210Y-35896D01*
X60210Y-35687D01*
X60130Y-35494D01*
X59983Y-35346D01*
X59849Y-35290D01*
X59982Y-35236D01*
X60130Y-35089D01*
X60210Y-34896D01*
X60210Y-34687D01*
X60130Y-34494D01*
X59983Y-34346D01*
X59790Y-34266D01*
X59581Y-34266D01*
X59388Y-34346D01*
X59240Y-34493D01*
X59160Y-34686D01*
X59160Y-34895D01*
X59240Y-35088D01*
X59387Y-35236D01*
X59520Y-35291D01*
X59388Y-35346D01*
X59240Y-35493D01*
X59160Y-35686D01*
X59160Y-35895D01*
X59240Y-36088D01*
X59387Y-36236D01*
X59520Y-36291D01*
X59388Y-36346D01*
X59240Y-36493D01*
X59160Y-36686D01*
X59160Y-36895D01*
X59240Y-37088D01*
X59387Y-37236D01*
X59520Y-37291D01*
X59388Y-37346D01*
X59240Y-37493D01*
X59160Y-37686D01*
X59160Y-37895D01*
X59240Y-38088D01*
X59387Y-38236D01*
X59520Y-38291D01*
X59388Y-38346D01*
X59240Y-38493D01*
X59160Y-38686D01*
X59160Y-38895D01*
X59240Y-39088D01*
X59387Y-39236D01*
X59520Y-39291D01*
X59388Y-39346D01*
X59240Y-39493D01*
X59160Y-39686D01*
X59160Y-39895D01*
X59240Y-40088D01*
X59387Y-40236D01*
X59520Y-40291D01*
X59388Y-40346D01*
X59240Y-40493D01*
X59160Y-40686D01*
X59160Y-40895D01*
X59240Y-41088D01*
X59387Y-41236D01*
X59520Y-41291D01*
X59388Y-41346D01*
X59240Y-41493D01*
X59160Y-41686D01*
X59160Y-41895D01*
X59240Y-42088D01*
X59387Y-42236D01*
X59520Y-42291D01*
X59388Y-42346D01*
X59240Y-42493D01*
X59160Y-42686D01*
X59160Y-42895D01*
X59240Y-43088D01*
X59387Y-43236D01*
X59461Y-43267D01*
X59361Y-43267D01*
X59269Y-43305D01*
X59199Y-43375D01*
X59161Y-43466D01*
X59161Y-43565D01*
X59161Y-44115D01*
X59199Y-44207D01*
X59269Y-44277D01*
X59360Y-44315D01*
X59459Y-44315D01*
X60009Y-44315D01*
X60101Y-44277D01*
X60171Y-44207D01*
X60209Y-44116D01*
X60209Y-44017D01*
X60209Y-43467D01*
X60171Y-43375D01*
X60101Y-43305D01*
X60010Y-43267D01*
X59911Y-43267D01*
X59907Y-43267D01*
X59982Y-43236D01*
X60130Y-43089D01*
X60210Y-42896D01*
X60210Y-48769D01*
X58737Y-48769D01*
X58737Y-43900D01*
X58737Y-43682D01*
X58653Y-43480D01*
X58499Y-43326D01*
X58414Y-43291D01*
X58499Y-43256D01*
X58653Y-43102D01*
X58737Y-42900D01*
X58737Y-42682D01*
X58653Y-42480D01*
X58499Y-42326D01*
X58414Y-42291D01*
X58499Y-42256D01*
X58653Y-42102D01*
X58737Y-41900D01*
X58737Y-41682D01*
X58653Y-41480D01*
X58499Y-41326D01*
X58414Y-41291D01*
X58499Y-41256D01*
X58653Y-41102D01*
X58737Y-40900D01*
X58737Y-40682D01*
X58653Y-40480D01*
X58499Y-40326D01*
X58414Y-40291D01*
X58499Y-40256D01*
X58653Y-40102D01*
X58737Y-39900D01*
X58737Y-39682D01*
X58653Y-39480D01*
X58499Y-39326D01*
X58414Y-39291D01*
X58499Y-39256D01*
X58653Y-39102D01*
X58737Y-38900D01*
X58737Y-38682D01*
X58653Y-38480D01*
X58499Y-38326D01*
X58414Y-38291D01*
X58499Y-38256D01*
X58653Y-38102D01*
X58737Y-37900D01*
X58737Y-37682D01*
X58653Y-37480D01*
X58499Y-37326D01*
X58414Y-37291D01*
X58499Y-37256D01*
X58653Y-37102D01*
X58737Y-36900D01*
X58737Y-36682D01*
X58653Y-36480D01*
X58499Y-36326D01*
X58414Y-36291D01*
X58499Y-36256D01*
X58653Y-36102D01*
X58737Y-35900D01*
X58737Y-35682D01*
X58653Y-35480D01*
X58499Y-35326D01*
X58414Y-35291D01*
X58499Y-35256D01*
X58653Y-35102D01*
X58737Y-34900D01*
X58737Y-34682D01*
X58653Y-34480D01*
X58499Y-34326D01*
X58297Y-34242D01*
X58079Y-34242D01*
X57773Y-34242D01*
X57571Y-34326D01*
X57417Y-34480D01*
X57333Y-34682D01*
X57333Y-34900D01*
X57417Y-35102D01*
X57571Y-35256D01*
X57655Y-35291D01*
X57571Y-35326D01*
X57417Y-35480D01*
X57333Y-35682D01*
X57333Y-35900D01*
X57417Y-36102D01*
X57571Y-36256D01*
X57655Y-36291D01*
X57571Y-36326D01*
X57417Y-36480D01*
X57333Y-36682D01*
X57333Y-36900D01*
X57417Y-37102D01*
X57571Y-37256D01*
X57655Y-37291D01*
X57571Y-37326D01*
X57417Y-37480D01*
X57333Y-37682D01*
X57333Y-37900D01*
X57417Y-38102D01*
X57571Y-38256D01*
X57655Y-38291D01*
X57571Y-38326D01*
X57417Y-38480D01*
X57333Y-38682D01*
X57333Y-38900D01*
X57417Y-39102D01*
X57571Y-39256D01*
X57655Y-39291D01*
X57571Y-39326D01*
X57417Y-39480D01*
X57333Y-39682D01*
X57333Y-39900D01*
X57417Y-40102D01*
X57571Y-40256D01*
X57655Y-40291D01*
X57571Y-40326D01*
X57417Y-40480D01*
X57333Y-40682D01*
X57333Y-40900D01*
X57417Y-41102D01*
X57571Y-41256D01*
X57655Y-41291D01*
X57571Y-41326D01*
X57417Y-41480D01*
X57333Y-41682D01*
X57333Y-41900D01*
X57417Y-42102D01*
X57571Y-42256D01*
X57655Y-42291D01*
X57571Y-42326D01*
X57417Y-42480D01*
X57333Y-42682D01*
X57333Y-42900D01*
X57417Y-43102D01*
X57571Y-43256D01*
X57655Y-43291D01*
X57571Y-43326D01*
X57417Y-43480D01*
X57333Y-43682D01*
X57333Y-43900D01*
X57417Y-44102D01*
X57571Y-44256D01*
X57773Y-44340D01*
X57991Y-44340D01*
X58297Y-44340D01*
X58499Y-44256D01*
X58653Y-44102D01*
X58737Y-43900D01*
X58737Y-48769D01*
X57415Y-48769D01*
X57690Y-48495D01*
X57850Y-48110D01*
X57850Y-47692D01*
X57690Y-47306D01*
X57657Y-47272D01*
X57657Y-45906D01*
X57646Y-45693D01*
X57586Y-45546D01*
X57492Y-45519D01*
X57422Y-45589D01*
X57422Y-45449D01*
X57395Y-45355D01*
X57193Y-45284D01*
X56980Y-45295D01*
X56833Y-45355D01*
X56806Y-45449D01*
X57114Y-45756D01*
X57422Y-45449D01*
X57422Y-45589D01*
X57185Y-45827D01*
X57492Y-46135D01*
X57586Y-46108D01*
X57657Y-45906D01*
X57657Y-47272D01*
X57422Y-47037D01*
X57422Y-46205D01*
X57114Y-45898D01*
X56806Y-46205D01*
X56833Y-46299D01*
X57035Y-46370D01*
X57248Y-46359D01*
X57395Y-46299D01*
X57422Y-46205D01*
X57422Y-47037D01*
X57395Y-47010D01*
X57010Y-46850D01*
X56592Y-46850D01*
X56206Y-47010D01*
X55910Y-47305D01*
X55750Y-47690D01*
X55750Y-48108D01*
X55910Y-48494D01*
X56184Y-48769D01*
X49263Y-48769D01*
X47915Y-48769D01*
X47915Y-45655D01*
X47915Y-45446D01*
X47835Y-45253D01*
X47688Y-45105D01*
X47554Y-45049D01*
X47687Y-44995D01*
X47835Y-44848D01*
X47915Y-44655D01*
X47915Y-44446D01*
X47835Y-44253D01*
X47688Y-44105D01*
X47495Y-44025D01*
X47286Y-44025D01*
X47097Y-44103D01*
X46250Y-44103D01*
X45393Y-44103D01*
X45205Y-44025D01*
X44996Y-44025D01*
X44803Y-44105D01*
X44655Y-44252D01*
X44575Y-44445D01*
X44575Y-44654D01*
X44655Y-44847D01*
X44802Y-44995D01*
X44935Y-45050D01*
X44803Y-45105D01*
X44655Y-45252D01*
X44575Y-45445D01*
X44575Y-45654D01*
X44655Y-45847D01*
X44802Y-45995D01*
X44995Y-46075D01*
X45204Y-46075D01*
X45397Y-45995D01*
X45545Y-45848D01*
X45625Y-45655D01*
X45625Y-45446D01*
X45545Y-45253D01*
X45398Y-45105D01*
X45264Y-45049D01*
X45392Y-44997D01*
X45803Y-44997D01*
X45803Y-46970D01*
X45759Y-46989D01*
X45689Y-47059D01*
X45664Y-47117D01*
X45589Y-47042D01*
X45369Y-46951D01*
X45131Y-46951D01*
X44911Y-47042D01*
X44742Y-47211D01*
X44651Y-47431D01*
X44651Y-47669D01*
X44742Y-47889D01*
X44911Y-48058D01*
X45131Y-48149D01*
X45369Y-48149D01*
X45589Y-48058D01*
X45664Y-47982D01*
X45689Y-48041D01*
X45759Y-48111D01*
X45850Y-48149D01*
X45949Y-48149D01*
X46649Y-48149D01*
X46741Y-48111D01*
X46811Y-48041D01*
X46835Y-47982D01*
X46911Y-48058D01*
X47131Y-48149D01*
X47369Y-48149D01*
X47589Y-48058D01*
X47758Y-47889D01*
X47849Y-47669D01*
X47849Y-47431D01*
X47758Y-47211D01*
X47589Y-47042D01*
X47369Y-46951D01*
X47131Y-46951D01*
X46911Y-47042D01*
X46835Y-47117D01*
X46811Y-47059D01*
X46741Y-46989D01*
X46697Y-46970D01*
X46697Y-44997D01*
X47096Y-44997D01*
X47225Y-45050D01*
X47093Y-45105D01*
X46945Y-45252D01*
X46865Y-45445D01*
X46865Y-45654D01*
X46945Y-45847D01*
X47092Y-45995D01*
X47285Y-46075D01*
X47494Y-46075D01*
X47687Y-45995D01*
X47835Y-45848D01*
X47915Y-45655D01*
X47915Y-48769D01*
X34166Y-48769D01*
X34303Y-48633D01*
X43751Y-48633D01*
X43751Y-43515D01*
X49263Y-43515D01*
X49263Y-40045D01*
X51712Y-42494D01*
X51490Y-42494D01*
X51398Y-42532D01*
X51328Y-42602D01*
X51290Y-42693D01*
X51290Y-42718D01*
X51150Y-42578D01*
X50948Y-42494D01*
X50730Y-42494D01*
X50528Y-42578D01*
X50374Y-42732D01*
X50290Y-42934D01*
X50290Y-43152D01*
X50374Y-43354D01*
X50528Y-43508D01*
X50612Y-43543D01*
X50528Y-43578D01*
X50374Y-43732D01*
X50290Y-43934D01*
X50290Y-44152D01*
X50374Y-44354D01*
X50392Y-44372D01*
X50392Y-45827D01*
X50426Y-45998D01*
X50442Y-46023D01*
X50341Y-46023D01*
X50249Y-46061D01*
X50179Y-46131D01*
X50141Y-46222D01*
X50141Y-46321D01*
X50141Y-47321D01*
X50179Y-47413D01*
X50249Y-47483D01*
X50340Y-47521D01*
X50439Y-47521D01*
X51439Y-47521D01*
X51531Y-47483D01*
X51601Y-47413D01*
X51639Y-47322D01*
X51639Y-47223D01*
X51639Y-46223D01*
X51601Y-46131D01*
X51531Y-46061D01*
X51440Y-46023D01*
X51341Y-46023D01*
X51337Y-46023D01*
X51337Y-45878D01*
X51303Y-45707D01*
X51286Y-45681D01*
X51286Y-44372D01*
X51304Y-44354D01*
X51339Y-44269D01*
X51374Y-44354D01*
X51528Y-44508D01*
X51730Y-44592D01*
X51756Y-44592D01*
X52443Y-45279D01*
X52443Y-46160D01*
X52256Y-46347D01*
X52141Y-46622D01*
X52141Y-46920D01*
X52255Y-47195D01*
X52465Y-47406D01*
X52740Y-47521D01*
X53038Y-47521D01*
X53313Y-47407D01*
X53524Y-47197D01*
X53639Y-46922D01*
X53639Y-46624D01*
X53525Y-46349D01*
X53337Y-46160D01*
X53337Y-45328D01*
X54151Y-46143D01*
X54152Y-46143D01*
X54248Y-46207D01*
X54296Y-46239D01*
X54297Y-46240D01*
X54467Y-46273D01*
X54468Y-46274D01*
X55609Y-46274D01*
X55673Y-46338D01*
X55764Y-46376D01*
X55863Y-46376D01*
X56463Y-46376D01*
X56555Y-46338D01*
X56625Y-46268D01*
X56663Y-46177D01*
X56663Y-46114D01*
X56736Y-46135D01*
X57043Y-45827D01*
X56736Y-45519D01*
X56663Y-45539D01*
X56663Y-45478D01*
X56625Y-45386D01*
X56555Y-45316D01*
X56464Y-45278D01*
X56365Y-45278D01*
X55765Y-45278D01*
X55673Y-45316D01*
X55609Y-45380D01*
X54653Y-45380D01*
X53560Y-44286D01*
X53683Y-44236D01*
X53831Y-44089D01*
X53911Y-43896D01*
X53911Y-43687D01*
X53831Y-43494D01*
X53684Y-43346D01*
X53550Y-43290D01*
X53683Y-43236D01*
X53831Y-43089D01*
X53911Y-42896D01*
X53911Y-42687D01*
X53831Y-42494D01*
X53684Y-42346D01*
X53550Y-42290D01*
X53683Y-42236D01*
X53831Y-42089D01*
X53911Y-41896D01*
X53911Y-41687D01*
X53831Y-41494D01*
X53684Y-41346D01*
X53550Y-41290D01*
X53683Y-41236D01*
X53831Y-41089D01*
X53911Y-40896D01*
X53911Y-40687D01*
X53831Y-40494D01*
X53684Y-40346D01*
X53550Y-40290D01*
X53683Y-40236D01*
X53831Y-40089D01*
X53911Y-39896D01*
X53911Y-39687D01*
X53831Y-39494D01*
X53684Y-39346D01*
X53550Y-39290D01*
X53683Y-39236D01*
X53831Y-39089D01*
X53911Y-38896D01*
X53911Y-38687D01*
X53831Y-38494D01*
X53684Y-38346D01*
X53550Y-38290D01*
X53683Y-38236D01*
X53831Y-38089D01*
X53911Y-37896D01*
X53911Y-37687D01*
X53831Y-37494D01*
X53684Y-37346D01*
X53550Y-37290D01*
X53683Y-37236D01*
X53831Y-37089D01*
X53911Y-36896D01*
X53911Y-36687D01*
X53831Y-36494D01*
X53684Y-36346D01*
X53550Y-36290D01*
X53683Y-36236D01*
X53831Y-36089D01*
X53911Y-35896D01*
X53911Y-35687D01*
X53831Y-35494D01*
X53684Y-35346D01*
X53609Y-35315D01*
X53710Y-35315D01*
X53802Y-35277D01*
X53872Y-35207D01*
X53910Y-35116D01*
X53910Y-35017D01*
X53910Y-34627D01*
X54336Y-34627D01*
X54336Y-35150D01*
X54374Y-35242D01*
X54444Y-35312D01*
X54535Y-35350D01*
X54547Y-35350D01*
X54417Y-35480D01*
X54333Y-35682D01*
X54333Y-35900D01*
X54417Y-36102D01*
X54571Y-36256D01*
X54655Y-36291D01*
X54571Y-36326D01*
X54417Y-36480D01*
X54333Y-36682D01*
X54333Y-36900D01*
X54417Y-37102D01*
X54571Y-37256D01*
X54655Y-37291D01*
X54571Y-37326D01*
X54417Y-37480D01*
X54333Y-37682D01*
X54333Y-37900D01*
X54417Y-38102D01*
X54571Y-38256D01*
X54655Y-38291D01*
X54571Y-38326D01*
X54417Y-38480D01*
X54333Y-38682D01*
X54333Y-38900D01*
X54417Y-39102D01*
X54571Y-39256D01*
X54655Y-39291D01*
X54571Y-39326D01*
X54417Y-39480D01*
X54333Y-39682D01*
X54333Y-39900D01*
X54417Y-40102D01*
X54571Y-40256D01*
X54655Y-40291D01*
X54571Y-40326D01*
X54417Y-40480D01*
X54333Y-40682D01*
X54333Y-40900D01*
X54417Y-41102D01*
X54571Y-41256D01*
X54655Y-41291D01*
X54571Y-41326D01*
X54417Y-41480D01*
X54333Y-41682D01*
X54333Y-41900D01*
X54417Y-42102D01*
X54571Y-42256D01*
X54655Y-42291D01*
X54571Y-42326D01*
X54417Y-42480D01*
X54333Y-42682D01*
X54333Y-42900D01*
X54417Y-43102D01*
X54571Y-43256D01*
X54655Y-43291D01*
X54571Y-43326D01*
X54417Y-43480D01*
X54333Y-43682D01*
X54333Y-43900D01*
X54417Y-44102D01*
X54571Y-44256D01*
X54773Y-44340D01*
X54991Y-44340D01*
X55297Y-44340D01*
X55499Y-44256D01*
X55653Y-44102D01*
X55737Y-43900D01*
X55737Y-43682D01*
X55653Y-43480D01*
X55499Y-43326D01*
X55414Y-43291D01*
X55499Y-43256D01*
X55653Y-43102D01*
X55737Y-42900D01*
X55737Y-42682D01*
X55653Y-42480D01*
X55499Y-42326D01*
X55414Y-42291D01*
X55499Y-42256D01*
X55653Y-42102D01*
X55737Y-41900D01*
X55737Y-41682D01*
X55653Y-41480D01*
X55499Y-41326D01*
X55414Y-41291D01*
X55499Y-41256D01*
X55653Y-41102D01*
X55737Y-40900D01*
X55737Y-40682D01*
X55653Y-40480D01*
X55499Y-40326D01*
X55414Y-40291D01*
X55499Y-40256D01*
X55653Y-40102D01*
X55737Y-39900D01*
X55737Y-39682D01*
X55653Y-39480D01*
X55499Y-39326D01*
X55414Y-39291D01*
X55499Y-39256D01*
X55653Y-39102D01*
X55737Y-38900D01*
X55737Y-38682D01*
X55653Y-38480D01*
X55499Y-38326D01*
X55414Y-38291D01*
X55499Y-38256D01*
X55653Y-38102D01*
X55737Y-37900D01*
X55737Y-37682D01*
X55653Y-37480D01*
X55499Y-37326D01*
X55414Y-37291D01*
X55499Y-37256D01*
X55653Y-37102D01*
X55737Y-36900D01*
X55737Y-36682D01*
X55653Y-36480D01*
X55499Y-36326D01*
X55414Y-36291D01*
X55499Y-36256D01*
X55653Y-36102D01*
X55737Y-35900D01*
X55737Y-35682D01*
X55653Y-35480D01*
X55523Y-35350D01*
X55534Y-35350D01*
X55626Y-35312D01*
X55696Y-35242D01*
X55734Y-35151D01*
X55734Y-35052D01*
X55734Y-34627D01*
X56877Y-34627D01*
X57048Y-34593D01*
X57193Y-34496D01*
X59306Y-32383D01*
X59403Y-32238D01*
X59437Y-32067D01*
X59437Y-16764D01*
X59403Y-16593D01*
X59306Y-16448D01*
X55000Y-12142D01*
X55000Y-10250D01*
X55000Y-09852D01*
X54848Y-09484D01*
X54567Y-09203D01*
X54200Y-09050D01*
X53802Y-09050D01*
X53434Y-09202D01*
X53153Y-09483D01*
X53000Y-09850D01*
X53000Y-10248D01*
X53152Y-10616D01*
X53433Y-10897D01*
X53800Y-11050D01*
X54198Y-11050D01*
X54566Y-10898D01*
X54847Y-10617D01*
X55000Y-10250D01*
X55000Y-12142D01*
X54725Y-11867D01*
X54580Y-11770D01*
X54409Y-11736D01*
X52453Y-11736D01*
X52282Y-11770D01*
X52137Y-11867D01*
X52023Y-11981D01*
X51926Y-12126D01*
X51892Y-12297D01*
X51892Y-13049D01*
X51670Y-13270D01*
X51626Y-13164D01*
X51479Y-13016D01*
X51286Y-12936D01*
X51077Y-12936D01*
X50884Y-13016D01*
X50736Y-13163D01*
X50659Y-13347D01*
X50651Y-13305D01*
X50554Y-13160D01*
X49168Y-11774D01*
X49023Y-11677D01*
X48852Y-11643D01*
X48496Y-11643D01*
X48377Y-11643D01*
X48419Y-11601D01*
X48386Y-11568D01*
X48425Y-11557D01*
X48496Y-11355D01*
X48485Y-11142D01*
X48425Y-10995D01*
X48331Y-10968D01*
X48261Y-11038D01*
X48261Y-10898D01*
X48234Y-10804D01*
X48032Y-10733D01*
X47819Y-10744D01*
X47672Y-10804D01*
X47645Y-10898D01*
X47953Y-11205D01*
X48261Y-10898D01*
X48261Y-11038D01*
X48024Y-11276D01*
X47953Y-11347D01*
X47882Y-11276D01*
X47847Y-11241D01*
X47575Y-10968D01*
X47481Y-10995D01*
X47410Y-11197D01*
X47421Y-11410D01*
X47481Y-11557D01*
X47519Y-11568D01*
X47487Y-11601D01*
X47529Y-11643D01*
X46889Y-11643D01*
X45356Y-10110D01*
X45211Y-10013D01*
X45040Y-09979D01*
X42897Y-09979D01*
X42726Y-10013D01*
X42581Y-10110D01*
X41964Y-10727D01*
X41938Y-10727D01*
X41736Y-10811D01*
X41582Y-10965D01*
X41498Y-11167D01*
X41498Y-11385D01*
X41582Y-11587D01*
X41736Y-11741D01*
X41938Y-11825D01*
X42156Y-11825D01*
X42358Y-11741D01*
X42512Y-11587D01*
X42596Y-11385D01*
X42596Y-11359D01*
X43082Y-10873D01*
X44855Y-10873D01*
X46388Y-12406D01*
X46533Y-12503D01*
X46704Y-12537D01*
X48667Y-12537D01*
X49791Y-13661D01*
X49791Y-21610D01*
X48699Y-20518D01*
X48699Y-13747D01*
X48699Y-13529D01*
X48615Y-13327D01*
X48461Y-13173D01*
X48259Y-13089D01*
X48041Y-13089D01*
X47839Y-13173D01*
X47685Y-13327D01*
X47601Y-13529D01*
X47601Y-13747D01*
X47685Y-13949D01*
X47839Y-14103D01*
X48041Y-14187D01*
X48259Y-14187D01*
X48461Y-14103D01*
X48615Y-13949D01*
X48699Y-13747D01*
X48699Y-20518D01*
X48502Y-20321D01*
X48502Y-16109D01*
X48502Y-15891D01*
X48418Y-15689D01*
X48264Y-15535D01*
X48062Y-15451D01*
X47844Y-15451D01*
X47642Y-15535D01*
X47488Y-15689D01*
X47404Y-15891D01*
X47404Y-16109D01*
X47488Y-16311D01*
X47642Y-16465D01*
X47844Y-16549D01*
X48062Y-16549D01*
X48264Y-16465D01*
X48418Y-16311D01*
X48502Y-16109D01*
X48502Y-20321D01*
X46136Y-17955D01*
X46136Y-13967D01*
X46154Y-13949D01*
X46238Y-13747D01*
X46238Y-13529D01*
X46154Y-13327D01*
X46000Y-13173D01*
X45798Y-13089D01*
X45580Y-13089D01*
X45549Y-13101D01*
X45549Y-11975D01*
X45549Y-11757D01*
X45465Y-11555D01*
X45311Y-11401D01*
X45109Y-11317D01*
X44891Y-11317D01*
X44689Y-11401D01*
X44535Y-11555D01*
X44451Y-11757D01*
X44451Y-11975D01*
X44535Y-12177D01*
X44689Y-12331D01*
X44891Y-12415D01*
X45109Y-12415D01*
X45311Y-12331D01*
X45465Y-12177D01*
X45549Y-11975D01*
X45549Y-13101D01*
X45378Y-13173D01*
X45224Y-13327D01*
X45140Y-13529D01*
X45140Y-13747D01*
X45224Y-13949D01*
X45242Y-13967D01*
X45242Y-18140D01*
X45276Y-18311D01*
X45373Y-18456D01*
X49061Y-22144D01*
X48930Y-22144D01*
X48728Y-22228D01*
X48574Y-22382D01*
X48539Y-22466D01*
X48504Y-22382D01*
X48350Y-22228D01*
X48148Y-22144D01*
X47930Y-22144D01*
X47728Y-22228D01*
X47574Y-22382D01*
X47539Y-22466D01*
X47504Y-22382D01*
X47350Y-22228D01*
X47148Y-22144D01*
X46930Y-22144D01*
X46798Y-22198D01*
X46791Y-22166D01*
X46788Y-22148D01*
X46788Y-22147D01*
X46723Y-22051D01*
X46723Y-22050D01*
X46696Y-22024D01*
X46600Y-21959D01*
X46580Y-21955D01*
X46485Y-21936D01*
X44854Y-21936D01*
X44854Y-13717D01*
X44843Y-13504D01*
X44783Y-13357D01*
X44689Y-13330D01*
X44619Y-13400D01*
X44619Y-13260D01*
X44592Y-13166D01*
X44390Y-13095D01*
X44177Y-13106D01*
X44030Y-13166D01*
X44003Y-13260D01*
X44311Y-13567D01*
X44619Y-13260D01*
X44619Y-13400D01*
X44382Y-13638D01*
X44689Y-13946D01*
X44783Y-13919D01*
X44854Y-13717D01*
X44854Y-21936D01*
X44619Y-21936D01*
X44619Y-14016D01*
X44311Y-13709D01*
X44240Y-13779D01*
X44240Y-13638D01*
X43933Y-13330D01*
X43839Y-13357D01*
X43768Y-13559D01*
X43779Y-13772D01*
X43839Y-13919D01*
X43933Y-13946D01*
X44240Y-13638D01*
X44240Y-13779D01*
X44003Y-14016D01*
X44030Y-14110D01*
X44232Y-14181D01*
X44445Y-14170D01*
X44592Y-14110D01*
X44619Y-14016D01*
X44619Y-21936D01*
X44497Y-21936D01*
X44383Y-21959D01*
X44350Y-21981D01*
X44285Y-22024D01*
X44160Y-22149D01*
X44148Y-22144D01*
X43930Y-22144D01*
X43728Y-22228D01*
X43574Y-22382D01*
X43539Y-22466D01*
X43504Y-22382D01*
X43350Y-22228D01*
X43148Y-22144D01*
X42930Y-22144D01*
X42728Y-22228D01*
X42574Y-22382D01*
X42539Y-22466D01*
X42504Y-22382D01*
X42350Y-22228D01*
X42148Y-22144D01*
X41930Y-22144D01*
X41728Y-22228D01*
X41574Y-22382D01*
X41539Y-22466D01*
X41504Y-22382D01*
X41350Y-22228D01*
X41148Y-22144D01*
X40930Y-22144D01*
X40728Y-22228D01*
X40574Y-22382D01*
X40539Y-22466D01*
X40504Y-22382D01*
X40350Y-22228D01*
X40148Y-22144D01*
X39930Y-22144D01*
X39728Y-22228D01*
X39574Y-22382D01*
X39539Y-22466D01*
X39504Y-22382D01*
X39350Y-22228D01*
X39148Y-22144D01*
X38930Y-22144D01*
X38728Y-22228D01*
X38574Y-22382D01*
X38539Y-22466D01*
X38504Y-22382D01*
X38486Y-22364D01*
X38486Y-21971D01*
X38452Y-21800D01*
X38355Y-21655D01*
X37816Y-21116D01*
X37816Y-17701D01*
X37508Y-17394D01*
X37200Y-17701D01*
X37227Y-17795D01*
X37429Y-17866D01*
X37642Y-17855D01*
X37789Y-17795D01*
X37816Y-17701D01*
X37816Y-21116D01*
X35325Y-18625D01*
X35180Y-18528D01*
X35009Y-18494D01*
X32896Y-18494D01*
X32835Y-18433D01*
X32615Y-18342D01*
X32377Y-18342D01*
X32157Y-18433D01*
X31996Y-18594D01*
X31835Y-18433D01*
X31615Y-18342D01*
X31377Y-18342D01*
X31157Y-18433D01*
X30996Y-18594D01*
X30835Y-18433D01*
X30615Y-18342D01*
X30377Y-18342D01*
X30157Y-18433D01*
X29996Y-18594D01*
X29835Y-18433D01*
X29615Y-18342D01*
X29377Y-18342D01*
X29157Y-18433D01*
X28996Y-18594D01*
X28835Y-18433D01*
X28615Y-18342D01*
X28377Y-18342D01*
X28157Y-18433D01*
X27996Y-18594D01*
X27835Y-18433D01*
X27615Y-18342D01*
X27377Y-18342D01*
X27157Y-18433D01*
X26996Y-18594D01*
X26835Y-18433D01*
X26615Y-18342D01*
X26377Y-18342D01*
X26157Y-18433D01*
X25996Y-18594D01*
X25835Y-18433D01*
X25615Y-18342D01*
X25539Y-18342D01*
X26712Y-17169D01*
X35959Y-17169D01*
X35959Y-17672D01*
X35997Y-17764D01*
X36067Y-17834D01*
X36158Y-17872D01*
X36257Y-17872D01*
X36857Y-17872D01*
X36949Y-17834D01*
X37019Y-17764D01*
X37057Y-17673D01*
X37057Y-17610D01*
X37130Y-17631D01*
X37402Y-17358D01*
X37437Y-17323D01*
X37508Y-17252D01*
X37579Y-17323D01*
X37614Y-17358D01*
X37886Y-17631D01*
X37980Y-17604D01*
X38051Y-17402D01*
X38040Y-17189D01*
X38031Y-17169D01*
X41325Y-17169D01*
X41496Y-17135D01*
X41641Y-17038D01*
X42130Y-16549D01*
X42156Y-16549D01*
X42358Y-16465D01*
X42512Y-16311D01*
X42596Y-16109D01*
X42596Y-15891D01*
X42512Y-15689D01*
X42399Y-15576D01*
X42399Y-13747D01*
X42399Y-13529D01*
X42315Y-13327D01*
X42161Y-13173D01*
X41959Y-13089D01*
X41741Y-13089D01*
X41539Y-13173D01*
X41385Y-13327D01*
X41301Y-13529D01*
X41301Y-13747D01*
X41385Y-13949D01*
X41539Y-14103D01*
X41741Y-14187D01*
X41959Y-14187D01*
X42161Y-14103D01*
X42315Y-13949D01*
X42399Y-13747D01*
X42399Y-15576D01*
X42358Y-15535D01*
X42156Y-15451D01*
X41938Y-15451D01*
X41736Y-15535D01*
X41582Y-15689D01*
X41498Y-15891D01*
X41498Y-15917D01*
X41140Y-16275D01*
X39820Y-16275D01*
X39820Y-15066D01*
X39820Y-14857D01*
X39742Y-14668D01*
X39742Y-13679D01*
X39820Y-13491D01*
X39820Y-13282D01*
X39740Y-13089D01*
X39593Y-12941D01*
X39400Y-12861D01*
X39191Y-12861D01*
X38998Y-12941D01*
X38850Y-13088D01*
X38770Y-13281D01*
X38770Y-13490D01*
X38848Y-13678D01*
X38848Y-14667D01*
X38770Y-14856D01*
X38770Y-15065D01*
X38850Y-15258D01*
X38997Y-15406D01*
X39190Y-15486D01*
X39399Y-15486D01*
X39592Y-15406D01*
X39740Y-15259D01*
X39820Y-15066D01*
X39820Y-16275D01*
X38043Y-16275D01*
X38043Y-11079D01*
X38032Y-10866D01*
X37972Y-10719D01*
X37878Y-10692D01*
X37808Y-10762D01*
X37808Y-10622D01*
X37781Y-10528D01*
X37579Y-10457D01*
X37366Y-10468D01*
X37219Y-10528D01*
X37192Y-10622D01*
X37500Y-10929D01*
X37808Y-10622D01*
X37808Y-10762D01*
X37571Y-11000D01*
X37878Y-11308D01*
X37972Y-11281D01*
X38043Y-11079D01*
X38043Y-16275D01*
X37808Y-16275D01*
X37808Y-11378D01*
X37500Y-11071D01*
X37429Y-11141D01*
X37429Y-11000D01*
X37122Y-10692D01*
X37049Y-10712D01*
X37049Y-10651D01*
X37011Y-10559D01*
X36941Y-10489D01*
X36850Y-10451D01*
X36751Y-10451D01*
X36151Y-10451D01*
X36059Y-10489D01*
X35989Y-10559D01*
X35951Y-10650D01*
X35951Y-10749D01*
X35951Y-11349D01*
X35989Y-11441D01*
X36053Y-11505D01*
X36053Y-12918D01*
X35998Y-12941D01*
X35850Y-13088D01*
X35770Y-13281D01*
X35770Y-13490D01*
X35850Y-13683D01*
X35997Y-13831D01*
X36190Y-13911D01*
X36399Y-13911D01*
X36592Y-13831D01*
X36740Y-13684D01*
X36819Y-13491D01*
X36820Y-13491D01*
X36820Y-13490D01*
X36912Y-13353D01*
X36913Y-13352D01*
X36946Y-13182D01*
X36947Y-13181D01*
X36947Y-11505D01*
X37011Y-11441D01*
X37049Y-11350D01*
X37049Y-11287D01*
X37122Y-11308D01*
X37429Y-11000D01*
X37429Y-11141D01*
X37192Y-11378D01*
X37219Y-11472D01*
X37421Y-11543D01*
X37634Y-11532D01*
X37781Y-11472D01*
X37808Y-11378D01*
X37808Y-16275D01*
X32971Y-16275D01*
X32962Y-16266D01*
X33009Y-16251D01*
X33089Y-16032D01*
X33078Y-15797D01*
X33009Y-15631D01*
X32910Y-15598D01*
X32839Y-15669D01*
X32839Y-15527D01*
X32806Y-15428D01*
X32587Y-15348D01*
X32352Y-15359D01*
X32186Y-15428D01*
X32153Y-15527D01*
X32496Y-15870D01*
X32839Y-15527D01*
X32839Y-15669D01*
X32602Y-15906D01*
X32567Y-15941D01*
X32496Y-16012D01*
X32425Y-15941D01*
X32390Y-15906D01*
X32082Y-15598D01*
X32015Y-15619D01*
X32015Y-13566D01*
X32004Y-13362D01*
X31948Y-13225D01*
X31857Y-13202D01*
X31567Y-13492D01*
X31857Y-13782D01*
X31948Y-13759D01*
X32015Y-13566D01*
X32015Y-15619D01*
X31996Y-15626D01*
X31910Y-15598D01*
X31839Y-15669D01*
X31839Y-15527D01*
X31806Y-15428D01*
X31786Y-15420D01*
X31786Y-13853D01*
X31496Y-13563D01*
X31425Y-13634D01*
X31425Y-13492D01*
X31135Y-13202D01*
X31044Y-13225D01*
X30977Y-13418D01*
X30988Y-13622D01*
X31044Y-13759D01*
X31135Y-13782D01*
X31425Y-13492D01*
X31425Y-13634D01*
X31206Y-13853D01*
X31229Y-13944D01*
X31422Y-14011D01*
X31626Y-14000D01*
X31763Y-13944D01*
X31786Y-13853D01*
X31786Y-15420D01*
X31587Y-15348D01*
X31352Y-15359D01*
X31186Y-15428D01*
X31153Y-15527D01*
X31496Y-15870D01*
X31839Y-15527D01*
X31839Y-15669D01*
X31602Y-15906D01*
X31567Y-15941D01*
X31496Y-16012D01*
X31425Y-15941D01*
X31390Y-15906D01*
X31082Y-15598D01*
X30996Y-15626D01*
X30910Y-15598D01*
X30839Y-15669D01*
X30839Y-15527D01*
X30806Y-15428D01*
X30587Y-15348D01*
X30352Y-15359D01*
X30186Y-15428D01*
X30153Y-15527D01*
X30496Y-15870D01*
X30839Y-15527D01*
X30839Y-15669D01*
X30602Y-15906D01*
X30567Y-15941D01*
X30496Y-16012D01*
X30425Y-15941D01*
X30390Y-15906D01*
X30082Y-15598D01*
X29996Y-15626D01*
X29910Y-15598D01*
X29839Y-15669D01*
X29839Y-15527D01*
X29806Y-15428D01*
X29719Y-15396D01*
X29719Y-13574D01*
X29708Y-13370D01*
X29652Y-13233D01*
X29561Y-13210D01*
X29271Y-13500D01*
X29561Y-13790D01*
X29652Y-13767D01*
X29719Y-13574D01*
X29719Y-15396D01*
X29587Y-15348D01*
X29490Y-15352D01*
X29490Y-13861D01*
X29200Y-13571D01*
X29129Y-13642D01*
X29129Y-13500D01*
X28839Y-13210D01*
X28748Y-13233D01*
X28681Y-13426D01*
X28692Y-13630D01*
X28748Y-13767D01*
X28839Y-13790D01*
X29129Y-13500D01*
X29129Y-13642D01*
X28910Y-13861D01*
X28933Y-13952D01*
X29126Y-14019D01*
X29330Y-14008D01*
X29467Y-13952D01*
X29490Y-13861D01*
X29490Y-15352D01*
X29352Y-15359D01*
X29186Y-15428D01*
X29153Y-15527D01*
X29496Y-15870D01*
X29839Y-15527D01*
X29839Y-15669D01*
X29602Y-15906D01*
X29567Y-15941D01*
X29496Y-16012D01*
X29425Y-15941D01*
X29390Y-15906D01*
X29082Y-15598D01*
X28996Y-15626D01*
X28910Y-15598D01*
X28839Y-15669D01*
X28839Y-15527D01*
X28806Y-15428D01*
X28587Y-15348D01*
X28352Y-15359D01*
X28186Y-15428D01*
X28153Y-15527D01*
X28496Y-15870D01*
X28839Y-15527D01*
X28839Y-15669D01*
X28602Y-15906D01*
X28567Y-15941D01*
X28496Y-16012D01*
X28425Y-15941D01*
X28390Y-15906D01*
X28082Y-15598D01*
X27996Y-15626D01*
X27910Y-15598D01*
X27839Y-15669D01*
X27839Y-15527D01*
X27806Y-15428D01*
X27587Y-15348D01*
X27352Y-15359D01*
X27319Y-15372D01*
X27319Y-13574D01*
X27308Y-13370D01*
X27252Y-13233D01*
X27161Y-13210D01*
X26871Y-13500D01*
X27161Y-13790D01*
X27252Y-13767D01*
X27319Y-13574D01*
X27319Y-15372D01*
X27186Y-15428D01*
X27153Y-15527D01*
X27496Y-15870D01*
X27839Y-15527D01*
X27839Y-15669D01*
X27602Y-15906D01*
X27567Y-15941D01*
X27496Y-16012D01*
X27425Y-15941D01*
X27390Y-15906D01*
X27090Y-15606D01*
X27090Y-13861D01*
X26800Y-13571D01*
X26729Y-13642D01*
X26729Y-13500D01*
X26439Y-13210D01*
X26348Y-13233D01*
X26281Y-13426D01*
X26292Y-13630D01*
X26348Y-13767D01*
X26439Y-13790D01*
X26729Y-13500D01*
X26729Y-13642D01*
X26510Y-13861D01*
X26533Y-13952D01*
X26726Y-14019D01*
X26930Y-14008D01*
X27067Y-13952D01*
X27090Y-13861D01*
X27090Y-15606D01*
X27082Y-15598D01*
X26996Y-15626D01*
X26910Y-15598D01*
X26839Y-15669D01*
X26839Y-15527D01*
X26806Y-15428D01*
X26587Y-15348D01*
X26352Y-15359D01*
X26186Y-15428D01*
X26153Y-15527D01*
X26496Y-15870D01*
X26839Y-15527D01*
X26839Y-15669D01*
X26602Y-15906D01*
X26567Y-15941D01*
X26496Y-16012D01*
X26461Y-16047D01*
X26425Y-16083D01*
X26425Y-15941D01*
X26082Y-15598D01*
X25996Y-15626D01*
X25910Y-15598D01*
X25567Y-15941D01*
X25910Y-16284D01*
X25996Y-16255D01*
X26082Y-16284D01*
X26425Y-15941D01*
X26425Y-16083D01*
X26153Y-16355D01*
X26180Y-16436D01*
X25839Y-16777D01*
X25839Y-16355D01*
X25496Y-16012D01*
X25153Y-16355D01*
X25186Y-16454D01*
X25405Y-16534D01*
X25640Y-16523D01*
X25806Y-16454D01*
X25839Y-16355D01*
X25839Y-16777D01*
X24794Y-17822D01*
X24794Y-15907D01*
X24932Y-15768D01*
X24903Y-15850D01*
X24914Y-16085D01*
X24983Y-16251D01*
X25082Y-16284D01*
X25390Y-15976D01*
X25425Y-15941D01*
X25496Y-15870D01*
X25531Y-15835D01*
X25839Y-15527D01*
X25806Y-15428D01*
X25587Y-15348D01*
X25352Y-15359D01*
X25335Y-15365D01*
X26000Y-14702D01*
X26000Y-14701D01*
X26064Y-14605D01*
X26096Y-14557D01*
X26097Y-14556D01*
X26130Y-14386D01*
X26131Y-14385D01*
X26131Y-10501D01*
X26248Y-10383D01*
X26308Y-10528D01*
X26353Y-10573D01*
X26353Y-12206D01*
X26275Y-12395D01*
X26275Y-12604D01*
X26355Y-12797D01*
X26502Y-12945D01*
X26642Y-13003D01*
X26533Y-13048D01*
X26510Y-13139D01*
X26800Y-13429D01*
X27090Y-13139D01*
X27067Y-13048D01*
X26948Y-13006D01*
X27097Y-12945D01*
X27245Y-12798D01*
X27325Y-12605D01*
X27325Y-12396D01*
X27247Y-12207D01*
X27247Y-10573D01*
X27291Y-10529D01*
X27380Y-10316D01*
X27380Y-10085D01*
X27292Y-09872D01*
X27129Y-09709D01*
X27108Y-09700D01*
X27128Y-09692D01*
X27291Y-09529D01*
X27380Y-09316D01*
X27380Y-09085D01*
X27351Y-09016D01*
X28690Y-09016D01*
X28620Y-09184D01*
X28620Y-09415D01*
X28708Y-09628D01*
X28871Y-09791D01*
X28891Y-09799D01*
X28872Y-09808D01*
X28709Y-09971D01*
X28620Y-10184D01*
X28620Y-10415D01*
X28708Y-10628D01*
X28753Y-10673D01*
X28753Y-12206D01*
X28675Y-12395D01*
X28675Y-12604D01*
X28755Y-12797D01*
X28902Y-12945D01*
X29042Y-13003D01*
X28933Y-13048D01*
X28910Y-13139D01*
X29200Y-13429D01*
X29490Y-13139D01*
X29467Y-13048D01*
X29348Y-13006D01*
X29497Y-12945D01*
X29645Y-12798D01*
X29725Y-12605D01*
X29725Y-12396D01*
X29647Y-12207D01*
X29647Y-10673D01*
X29691Y-10629D01*
X29780Y-10416D01*
X29780Y-10185D01*
X29692Y-09972D01*
X29529Y-09809D01*
X29508Y-09800D01*
X29528Y-09792D01*
X29691Y-09629D01*
X29780Y-09416D01*
X29780Y-09185D01*
X29710Y-09016D01*
X31004Y-09016D01*
X30916Y-09227D01*
X30916Y-09458D01*
X31004Y-09671D01*
X31167Y-09834D01*
X31187Y-09842D01*
X31168Y-09851D01*
X31005Y-10014D01*
X30916Y-10227D01*
X30916Y-10458D01*
X31004Y-10671D01*
X31049Y-10716D01*
X31049Y-12198D01*
X30971Y-12387D01*
X30971Y-12596D01*
X31051Y-12789D01*
X31198Y-12937D01*
X31338Y-12995D01*
X31229Y-13040D01*
X31206Y-13131D01*
X31496Y-13421D01*
X31786Y-13131D01*
X31763Y-13040D01*
X31644Y-12998D01*
X31793Y-12937D01*
X31941Y-12790D01*
X32021Y-12597D01*
X32021Y-12388D01*
X31943Y-12199D01*
X31943Y-11241D01*
X35772Y-15070D01*
X35850Y-15258D01*
X35997Y-15406D01*
X36190Y-15486D01*
X36399Y-15486D01*
X36592Y-15406D01*
X36740Y-15259D01*
X36820Y-15066D01*
X36820Y-14857D01*
X36740Y-14664D01*
X36593Y-14516D01*
X36403Y-14437D01*
X32633Y-10667D01*
X32633Y-08683D01*
X32599Y-08512D01*
X32502Y-08367D01*
X32388Y-08253D01*
X32243Y-08156D01*
X32072Y-08122D01*
X26206Y-08122D01*
X26490Y-07839D01*
X26650Y-07454D01*
X26650Y-07036D01*
X26490Y-06650D01*
X26195Y-06354D01*
X26182Y-06349D01*
X56618Y-06349D01*
X56606Y-06354D01*
X56310Y-06649D01*
X56150Y-07034D01*
X56150Y-07452D01*
X56310Y-07838D01*
X56605Y-08134D01*
X56990Y-08294D01*
X57408Y-08294D01*
X57794Y-08134D01*
X58090Y-07839D01*
X58250Y-07454D01*
X58250Y-07036D01*
X58090Y-06650D01*
X57795Y-06354D01*
X57782Y-06349D01*
X60422Y-06349D01*
X60422Y-48769D01*
X60422Y-48769D01*
G37*
G54D32*
X60422Y-48769D02*
X60210Y-48769D01*
X60210Y-42896D01*
X60210Y-42687D01*
X60130Y-42494D01*
X59983Y-42346D01*
X59849Y-42290D01*
X59982Y-42236D01*
X60130Y-42089D01*
X60210Y-41896D01*
X60210Y-41687D01*
X60130Y-41494D01*
X59983Y-41346D01*
X59849Y-41290D01*
X59982Y-41236D01*
X60130Y-41089D01*
X60210Y-40896D01*
X60210Y-40687D01*
X60130Y-40494D01*
X59983Y-40346D01*
X59849Y-40290D01*
X59982Y-40236D01*
X60130Y-40089D01*
X60210Y-39896D01*
X60210Y-39687D01*
X60130Y-39494D01*
X59983Y-39346D01*
X59849Y-39290D01*
X59982Y-39236D01*
X60130Y-39089D01*
X60210Y-38896D01*
X60210Y-38687D01*
X60130Y-38494D01*
X59983Y-38346D01*
X59849Y-38290D01*
X59982Y-38236D01*
X60130Y-38089D01*
X60210Y-37896D01*
X60210Y-37687D01*
X60130Y-37494D01*
X59983Y-37346D01*
X59849Y-37290D01*
X59982Y-37236D01*
X60130Y-37089D01*
X60210Y-36896D01*
X60210Y-36687D01*
X60130Y-36494D01*
X59983Y-36346D01*
X59849Y-36290D01*
X59982Y-36236D01*
X60130Y-36089D01*
X60210Y-35896D01*
X60210Y-35687D01*
X60130Y-35494D01*
X59983Y-35346D01*
X59849Y-35290D01*
X59982Y-35236D01*
X60130Y-35089D01*
X60210Y-34896D01*
X60210Y-34687D01*
X60130Y-34494D01*
X59983Y-34346D01*
X59790Y-34266D01*
X59581Y-34266D01*
X59388Y-34346D01*
X59240Y-34493D01*
X59160Y-34686D01*
X59160Y-34895D01*
X59240Y-35088D01*
X59387Y-35236D01*
X59520Y-35291D01*
X59388Y-35346D01*
X59240Y-35493D01*
X59160Y-35686D01*
X59160Y-35895D01*
X59240Y-36088D01*
X59387Y-36236D01*
X59520Y-36291D01*
X59388Y-36346D01*
X59240Y-36493D01*
X59160Y-36686D01*
X59160Y-36895D01*
X59240Y-37088D01*
X59387Y-37236D01*
X59520Y-37291D01*
X59388Y-37346D01*
X59240Y-37493D01*
X59160Y-37686D01*
X59160Y-37895D01*
X59240Y-38088D01*
X59387Y-38236D01*
X59520Y-38291D01*
X59388Y-38346D01*
X59240Y-38493D01*
X59160Y-38686D01*
X59160Y-38895D01*
X59240Y-39088D01*
X59387Y-39236D01*
X59520Y-39291D01*
X59388Y-39346D01*
X59240Y-39493D01*
X59160Y-39686D01*
X59160Y-39895D01*
X59240Y-40088D01*
X59387Y-40236D01*
X59520Y-40291D01*
X59388Y-40346D01*
X59240Y-40493D01*
X59160Y-40686D01*
X59160Y-40895D01*
X59240Y-41088D01*
X59387Y-41236D01*
X59520Y-41291D01*
X59388Y-41346D01*
X59240Y-41493D01*
X59160Y-41686D01*
X59160Y-41895D01*
X59240Y-42088D01*
X59387Y-42236D01*
X59520Y-42291D01*
X59388Y-42346D01*
X59240Y-42493D01*
X59160Y-42686D01*
X59160Y-42895D01*
X59240Y-43088D01*
X59387Y-43236D01*
X59461Y-43267D01*
X59361Y-43267D01*
X59269Y-43305D01*
X59199Y-43375D01*
X59161Y-43466D01*
X59161Y-43565D01*
X59161Y-44115D01*
X59199Y-44207D01*
X59269Y-44277D01*
X59360Y-44315D01*
X59459Y-44315D01*
X60009Y-44315D01*
X60101Y-44277D01*
X60171Y-44207D01*
X60209Y-44116D01*
X60209Y-44017D01*
X60209Y-43467D01*
X60171Y-43375D01*
X60101Y-43305D01*
X60010Y-43267D01*
X59911Y-43267D01*
X59907Y-43267D01*
X59982Y-43236D01*
X60130Y-43089D01*
X60210Y-42896D01*
X60210Y-48769D01*
X58737Y-48769D01*
X58737Y-43900D01*
X58737Y-43682D01*
X58653Y-43480D01*
X58499Y-43326D01*
X58414Y-43291D01*
X58499Y-43256D01*
X58653Y-43102D01*
X58737Y-42900D01*
X58737Y-42682D01*
X58653Y-42480D01*
X58499Y-42326D01*
X58414Y-42291D01*
X58499Y-42256D01*
X58653Y-42102D01*
X58737Y-41900D01*
X58737Y-41682D01*
X58653Y-41480D01*
X58499Y-41326D01*
X58414Y-41291D01*
X58499Y-41256D01*
X58653Y-41102D01*
X58737Y-40900D01*
X58737Y-40682D01*
X58653Y-40480D01*
X58499Y-40326D01*
X58414Y-40291D01*
X58499Y-40256D01*
X58653Y-40102D01*
X58737Y-39900D01*
X58737Y-39682D01*
X58653Y-39480D01*
X58499Y-39326D01*
X58414Y-39291D01*
X58499Y-39256D01*
X58653Y-39102D01*
X58737Y-38900D01*
X58737Y-38682D01*
X58653Y-38480D01*
X58499Y-38326D01*
X58414Y-38291D01*
X58499Y-38256D01*
X58653Y-38102D01*
X58737Y-37900D01*
X58737Y-37682D01*
X58653Y-37480D01*
X58499Y-37326D01*
X58414Y-37291D01*
X58499Y-37256D01*
X58653Y-37102D01*
X58737Y-36900D01*
X58737Y-36682D01*
X58653Y-36480D01*
X58499Y-36326D01*
X58414Y-36291D01*
X58499Y-36256D01*
X58653Y-36102D01*
X58737Y-35900D01*
X58737Y-35682D01*
X58653Y-35480D01*
X58499Y-35326D01*
X58414Y-35291D01*
X58499Y-35256D01*
X58653Y-35102D01*
X58737Y-34900D01*
X58737Y-34682D01*
X58653Y-34480D01*
X58499Y-34326D01*
X58297Y-34242D01*
X58079Y-34242D01*
X57773Y-34242D01*
X57571Y-34326D01*
X57417Y-34480D01*
X57333Y-34682D01*
X57333Y-34900D01*
X57417Y-35102D01*
X57571Y-35256D01*
X57655Y-35291D01*
X57571Y-35326D01*
X57417Y-35480D01*
X57333Y-35682D01*
X57333Y-35900D01*
X57417Y-36102D01*
X57571Y-36256D01*
X57655Y-36291D01*
X57571Y-36326D01*
X57417Y-36480D01*
X57333Y-36682D01*
X57333Y-36900D01*
X57417Y-37102D01*
X57571Y-37256D01*
X57655Y-37291D01*
X57571Y-37326D01*
X57417Y-37480D01*
X57333Y-37682D01*
X57333Y-37900D01*
X57417Y-38102D01*
X57571Y-38256D01*
X57655Y-38291D01*
X57571Y-38326D01*
X57417Y-38480D01*
X57333Y-38682D01*
X57333Y-38900D01*
X57417Y-39102D01*
X57571Y-39256D01*
X57655Y-39291D01*
X57571Y-39326D01*
X57417Y-39480D01*
X57333Y-39682D01*
X57333Y-39900D01*
X57417Y-40102D01*
X57571Y-40256D01*
X57655Y-40291D01*
X57571Y-40326D01*
X57417Y-40480D01*
X57333Y-40682D01*
X57333Y-40900D01*
X57417Y-41102D01*
X57571Y-41256D01*
X57655Y-41291D01*
X57571Y-41326D01*
X57417Y-41480D01*
X57333Y-41682D01*
X57333Y-41900D01*
X57417Y-42102D01*
X57571Y-42256D01*
X57655Y-42291D01*
X57571Y-42326D01*
X57417Y-42480D01*
X57333Y-42682D01*
X57333Y-42900D01*
X57417Y-43102D01*
X57571Y-43256D01*
X57655Y-43291D01*
X57571Y-43326D01*
X57417Y-43480D01*
X57333Y-43682D01*
X57333Y-43900D01*
X57417Y-44102D01*
X57571Y-44256D01*
X57773Y-44340D01*
X57991Y-44340D01*
X58297Y-44340D01*
X58499Y-44256D01*
X58653Y-44102D01*
X58737Y-43900D01*
X58737Y-48769D01*
X57415Y-48769D01*
X57690Y-48495D01*
X57850Y-48110D01*
X57850Y-47692D01*
X57690Y-47306D01*
X57657Y-47272D01*
X57657Y-45906D01*
X57646Y-45693D01*
X57586Y-45546D01*
X57492Y-45519D01*
X57422Y-45589D01*
X57422Y-45449D01*
X57395Y-45355D01*
X57193Y-45284D01*
X56980Y-45295D01*
X56833Y-45355D01*
X56806Y-45449D01*
X57114Y-45756D01*
X57422Y-45449D01*
X57422Y-45589D01*
X57185Y-45827D01*
X57492Y-46135D01*
X57586Y-46108D01*
X57657Y-45906D01*
X57657Y-47272D01*
X57422Y-47037D01*
X57422Y-46205D01*
X57114Y-45898D01*
X56806Y-46205D01*
X56833Y-46299D01*
X57035Y-46370D01*
X57248Y-46359D01*
X57395Y-46299D01*
X57422Y-46205D01*
X57422Y-47037D01*
X57395Y-47010D01*
X57010Y-46850D01*
X56592Y-46850D01*
X56206Y-47010D01*
X55910Y-47305D01*
X55750Y-47690D01*
X55750Y-48108D01*
X55910Y-48494D01*
X56184Y-48769D01*
X49263Y-48769D01*
X47915Y-48769D01*
X47915Y-45655D01*
X47915Y-45446D01*
X47835Y-45253D01*
X47688Y-45105D01*
X47554Y-45049D01*
X47687Y-44995D01*
X47835Y-44848D01*
X47915Y-44655D01*
X47915Y-44446D01*
X47835Y-44253D01*
X47688Y-44105D01*
X47495Y-44025D01*
X47286Y-44025D01*
X47097Y-44103D01*
X46250Y-44103D01*
X45393Y-44103D01*
X45205Y-44025D01*
X44996Y-44025D01*
X44803Y-44105D01*
X44655Y-44252D01*
X44575Y-44445D01*
X44575Y-44654D01*
X44655Y-44847D01*
X44802Y-44995D01*
X44935Y-45050D01*
X44803Y-45105D01*
X44655Y-45252D01*
X44575Y-45445D01*
X44575Y-45654D01*
X44655Y-45847D01*
X44802Y-45995D01*
X44995Y-46075D01*
X45204Y-46075D01*
X45397Y-45995D01*
X45545Y-45848D01*
X45625Y-45655D01*
X45625Y-45446D01*
X45545Y-45253D01*
X45398Y-45105D01*
X45264Y-45049D01*
X45392Y-44997D01*
X45803Y-44997D01*
X45803Y-46970D01*
X45759Y-46989D01*
X45689Y-47059D01*
X45664Y-47117D01*
X45589Y-47042D01*
X45369Y-46951D01*
X45131Y-46951D01*
X44911Y-47042D01*
X44742Y-47211D01*
X44651Y-47431D01*
X44651Y-47669D01*
X44742Y-47889D01*
X44911Y-48058D01*
X45131Y-48149D01*
X45369Y-48149D01*
X45589Y-48058D01*
X45664Y-47982D01*
X45689Y-48041D01*
X45759Y-48111D01*
X45850Y-48149D01*
X45949Y-48149D01*
X46649Y-48149D01*
X46741Y-48111D01*
X46811Y-48041D01*
X46835Y-47982D01*
X46911Y-48058D01*
X47131Y-48149D01*
X47369Y-48149D01*
X47589Y-48058D01*
X47758Y-47889D01*
X47849Y-47669D01*
X47849Y-47431D01*
X47758Y-47211D01*
X47589Y-47042D01*
X47369Y-46951D01*
X47131Y-46951D01*
X46911Y-47042D01*
X46835Y-47117D01*
X46811Y-47059D01*
X46741Y-46989D01*
X46697Y-46970D01*
X46697Y-44997D01*
X47096Y-44997D01*
X47225Y-45050D01*
X47093Y-45105D01*
X46945Y-45252D01*
X46865Y-45445D01*
X46865Y-45654D01*
X46945Y-45847D01*
X47092Y-45995D01*
X47285Y-46075D01*
X47494Y-46075D01*
X47687Y-45995D01*
X47835Y-45848D01*
X47915Y-45655D01*
X47915Y-48769D01*
X34166Y-48769D01*
X34303Y-48633D01*
X43751Y-48633D01*
X43751Y-43515D01*
X49263Y-43515D01*
X49263Y-40045D01*
X51712Y-42494D01*
X51490Y-42494D01*
X51398Y-42532D01*
X51328Y-42602D01*
X51290Y-42693D01*
X51290Y-42718D01*
X51150Y-42578D01*
X50948Y-42494D01*
X50730Y-42494D01*
X50528Y-42578D01*
X50374Y-42732D01*
X50290Y-42934D01*
X50290Y-43152D01*
X50374Y-43354D01*
X50528Y-43508D01*
X50612Y-43543D01*
X50528Y-43578D01*
X50374Y-43732D01*
X50290Y-43934D01*
X50290Y-44152D01*
X50374Y-44354D01*
X50392Y-44372D01*
X50392Y-45827D01*
X50426Y-45998D01*
X50442Y-46023D01*
X50341Y-46023D01*
X50249Y-46061D01*
X50179Y-46131D01*
X50141Y-46222D01*
X50141Y-46321D01*
X50141Y-47321D01*
X50179Y-47413D01*
X50249Y-47483D01*
X50340Y-47521D01*
X50439Y-47521D01*
X51439Y-47521D01*
X51531Y-47483D01*
X51601Y-47413D01*
X51639Y-47322D01*
X51639Y-47223D01*
X51639Y-46223D01*
X51601Y-46131D01*
X51531Y-46061D01*
X51440Y-46023D01*
X51341Y-46023D01*
X51337Y-46023D01*
X51337Y-45878D01*
X51303Y-45707D01*
X51286Y-45681D01*
X51286Y-44372D01*
X51304Y-44354D01*
X51339Y-44269D01*
X51374Y-44354D01*
X51528Y-44508D01*
X51730Y-44592D01*
X51756Y-44592D01*
X52443Y-45279D01*
X52443Y-46160D01*
X52256Y-46347D01*
X52141Y-46622D01*
X52141Y-46920D01*
X52255Y-47195D01*
X52465Y-47406D01*
X52740Y-47521D01*
X53038Y-47521D01*
X53313Y-47407D01*
X53524Y-47197D01*
X53639Y-46922D01*
X53639Y-46624D01*
X53525Y-46349D01*
X53337Y-46160D01*
X53337Y-45328D01*
X54151Y-46143D01*
X54152Y-46143D01*
X54248Y-46207D01*
X54296Y-46239D01*
X54297Y-46240D01*
X54467Y-46273D01*
X54468Y-46274D01*
X55609Y-46274D01*
X55673Y-46338D01*
X55764Y-46376D01*
X55863Y-46376D01*
X56463Y-46376D01*
X56555Y-46338D01*
X56625Y-46268D01*
X56663Y-46177D01*
X56663Y-46114D01*
X56736Y-46135D01*
X57043Y-45827D01*
X56736Y-45519D01*
X56663Y-45539D01*
X56663Y-45478D01*
X56625Y-45386D01*
X56555Y-45316D01*
X56464Y-45278D01*
X56365Y-45278D01*
X55765Y-45278D01*
X55673Y-45316D01*
X55609Y-45380D01*
X54653Y-45380D01*
X53560Y-44286D01*
X53683Y-44236D01*
X53831Y-44089D01*
X53911Y-43896D01*
X53911Y-43687D01*
X53831Y-43494D01*
X53684Y-43346D01*
X53550Y-43290D01*
X53683Y-43236D01*
X53831Y-43089D01*
X53911Y-42896D01*
X53911Y-42687D01*
X53831Y-42494D01*
X53684Y-42346D01*
X53550Y-42290D01*
X53683Y-42236D01*
X53831Y-42089D01*
X53911Y-41896D01*
X53911Y-41687D01*
X53831Y-41494D01*
X53684Y-41346D01*
X53550Y-41290D01*
X53683Y-41236D01*
X53831Y-41089D01*
X53911Y-40896D01*
X53911Y-40687D01*
X53831Y-40494D01*
X53684Y-40346D01*
X53550Y-40290D01*
X53683Y-40236D01*
X53831Y-40089D01*
X53911Y-39896D01*
X53911Y-39687D01*
X53831Y-39494D01*
X53684Y-39346D01*
X53550Y-39290D01*
X53683Y-39236D01*
X53831Y-39089D01*
X53911Y-38896D01*
X53911Y-38687D01*
X53831Y-38494D01*
X53684Y-38346D01*
X53550Y-38290D01*
X53683Y-38236D01*
X53831Y-38089D01*
X53911Y-37896D01*
X53911Y-37687D01*
X53831Y-37494D01*
X53684Y-37346D01*
X53550Y-37290D01*
X53683Y-37236D01*
X53831Y-37089D01*
X53911Y-36896D01*
X53911Y-36687D01*
X53831Y-36494D01*
X53684Y-36346D01*
X53550Y-36290D01*
X53683Y-36236D01*
X53831Y-36089D01*
X53911Y-35896D01*
X53911Y-35687D01*
X53831Y-35494D01*
X53684Y-35346D01*
X53609Y-35315D01*
X53710Y-35315D01*
X53802Y-35277D01*
X53872Y-35207D01*
X53910Y-35116D01*
X53910Y-35017D01*
X53910Y-34627D01*
X54336Y-34627D01*
X54336Y-35150D01*
X54374Y-35242D01*
X54444Y-35312D01*
X54535Y-35350D01*
X54547Y-35350D01*
X54417Y-35480D01*
X54333Y-35682D01*
X54333Y-35900D01*
X54417Y-36102D01*
X54571Y-36256D01*
X54655Y-36291D01*
X54571Y-36326D01*
X54417Y-36480D01*
X54333Y-36682D01*
X54333Y-36900D01*
X54417Y-37102D01*
X54571Y-37256D01*
X54655Y-37291D01*
X54571Y-37326D01*
X54417Y-37480D01*
X54333Y-37682D01*
X54333Y-37900D01*
X54417Y-38102D01*
X54571Y-38256D01*
X54655Y-38291D01*
X54571Y-38326D01*
X54417Y-38480D01*
X54333Y-38682D01*
X54333Y-38900D01*
X54417Y-39102D01*
X54571Y-39256D01*
X54655Y-39291D01*
X54571Y-39326D01*
X54417Y-39480D01*
X54333Y-39682D01*
X54333Y-39900D01*
X54417Y-40102D01*
X54571Y-40256D01*
X54655Y-40291D01*
X54571Y-40326D01*
X54417Y-40480D01*
X54333Y-40682D01*
X54333Y-40900D01*
X54417Y-41102D01*
X54571Y-41256D01*
X54655Y-41291D01*
X54571Y-41326D01*
X54417Y-41480D01*
X54333Y-41682D01*
X54333Y-41900D01*
X54417Y-42102D01*
X54571Y-42256D01*
X54655Y-42291D01*
X54571Y-42326D01*
X54417Y-42480D01*
X54333Y-42682D01*
X54333Y-42900D01*
X54417Y-43102D01*
X54571Y-43256D01*
X54655Y-43291D01*
X54571Y-43326D01*
X54417Y-43480D01*
X54333Y-43682D01*
X54333Y-43900D01*
X54417Y-44102D01*
X54571Y-44256D01*
X54773Y-44340D01*
X54991Y-44340D01*
X55297Y-44340D01*
X55499Y-44256D01*
X55653Y-44102D01*
X55737Y-43900D01*
X55737Y-43682D01*
X55653Y-43480D01*
X55499Y-43326D01*
X55414Y-43291D01*
X55499Y-43256D01*
X55653Y-43102D01*
X55737Y-42900D01*
X55737Y-42682D01*
X55653Y-42480D01*
X55499Y-42326D01*
X55414Y-42291D01*
X55499Y-42256D01*
X55653Y-42102D01*
X55737Y-41900D01*
X55737Y-41682D01*
X55653Y-41480D01*
X55499Y-41326D01*
X55414Y-41291D01*
X55499Y-41256D01*
X55653Y-41102D01*
X55737Y-40900D01*
X55737Y-40682D01*
X55653Y-40480D01*
X55499Y-40326D01*
X55414Y-40291D01*
X55499Y-40256D01*
X55653Y-40102D01*
X55737Y-39900D01*
X55737Y-39682D01*
X55653Y-39480D01*
X55499Y-39326D01*
X55414Y-39291D01*
X55499Y-39256D01*
X55653Y-39102D01*
X55737Y-38900D01*
X55737Y-38682D01*
X55653Y-38480D01*
X55499Y-38326D01*
X55414Y-38291D01*
X55499Y-38256D01*
X55653Y-38102D01*
X55737Y-37900D01*
X55737Y-37682D01*
X55653Y-37480D01*
X55499Y-37326D01*
X55414Y-37291D01*
X55499Y-37256D01*
X55653Y-37102D01*
X55737Y-36900D01*
X55737Y-36682D01*
X55653Y-36480D01*
X55499Y-36326D01*
X55414Y-36291D01*
X55499Y-36256D01*
X55653Y-36102D01*
X55737Y-35900D01*
X55737Y-35682D01*
X55653Y-35480D01*
X55523Y-35350D01*
X55534Y-35350D01*
X55626Y-35312D01*
X55696Y-35242D01*
X55734Y-35151D01*
X55734Y-35052D01*
X55734Y-34627D01*
X56877Y-34627D01*
X57048Y-34593D01*
X57193Y-34496D01*
X59306Y-32383D01*
X59403Y-32238D01*
X59437Y-32067D01*
X59437Y-16764D01*
X59403Y-16593D01*
X59306Y-16448D01*
X55000Y-12142D01*
X55000Y-10250D01*
X55000Y-09852D01*
X54848Y-09484D01*
X54567Y-09203D01*
X54200Y-09050D01*
X53802Y-09050D01*
X53434Y-09202D01*
X53153Y-09483D01*
X53000Y-09850D01*
X53000Y-10248D01*
X53152Y-10616D01*
X53433Y-10897D01*
X53800Y-11050D01*
X54198Y-11050D01*
X54566Y-10898D01*
X54847Y-10617D01*
X55000Y-10250D01*
X55000Y-12142D01*
X54725Y-11867D01*
X54580Y-11770D01*
X54409Y-11736D01*
X52453Y-11736D01*
X52282Y-11770D01*
X52137Y-11867D01*
X52023Y-11981D01*
X51926Y-12126D01*
X51892Y-12297D01*
X51892Y-13049D01*
X51670Y-13270D01*
X51626Y-13164D01*
X51479Y-13016D01*
X51286Y-12936D01*
X51077Y-12936D01*
X50884Y-13016D01*
X50736Y-13163D01*
X50659Y-13347D01*
X50651Y-13305D01*
X50554Y-13160D01*
X49168Y-11774D01*
X49023Y-11677D01*
X48852Y-11643D01*
X48496Y-11643D01*
X48377Y-11643D01*
X48419Y-11601D01*
X48386Y-11568D01*
X48425Y-11557D01*
X48496Y-11355D01*
X48485Y-11142D01*
X48425Y-10995D01*
X48331Y-10968D01*
X48261Y-11038D01*
X48261Y-10898D01*
X48234Y-10804D01*
X48032Y-10733D01*
X47819Y-10744D01*
X47672Y-10804D01*
X47645Y-10898D01*
X47953Y-11205D01*
X48261Y-10898D01*
X48261Y-11038D01*
X48024Y-11276D01*
X47953Y-11347D01*
X47882Y-11276D01*
X47847Y-11241D01*
X47575Y-10968D01*
X47481Y-10995D01*
X47410Y-11197D01*
X47421Y-11410D01*
X47481Y-11557D01*
X47519Y-11568D01*
X47487Y-11601D01*
X47529Y-11643D01*
X46889Y-11643D01*
X45356Y-10110D01*
X45211Y-10013D01*
X45040Y-09979D01*
X42897Y-09979D01*
X42726Y-10013D01*
X42581Y-10110D01*
X41964Y-10727D01*
X41938Y-10727D01*
X41736Y-10811D01*
X41582Y-10965D01*
X41498Y-11167D01*
X41498Y-11385D01*
X41582Y-11587D01*
X41736Y-11741D01*
X41938Y-11825D01*
X42156Y-11825D01*
X42358Y-11741D01*
X42512Y-11587D01*
X42596Y-11385D01*
X42596Y-11359D01*
X43082Y-10873D01*
X44855Y-10873D01*
X46388Y-12406D01*
X46533Y-12503D01*
X46704Y-12537D01*
X48667Y-12537D01*
X49791Y-13661D01*
X49791Y-21610D01*
X48699Y-20518D01*
X48699Y-13747D01*
X48699Y-13529D01*
X48615Y-13327D01*
X48461Y-13173D01*
X48259Y-13089D01*
X48041Y-13089D01*
X47839Y-13173D01*
X47685Y-13327D01*
X47601Y-13529D01*
X47601Y-13747D01*
X47685Y-13949D01*
X47839Y-14103D01*
X48041Y-14187D01*
X48259Y-14187D01*
X48461Y-14103D01*
X48615Y-13949D01*
X48699Y-13747D01*
X48699Y-20518D01*
X48502Y-20321D01*
X48502Y-16109D01*
X48502Y-15891D01*
X48418Y-15689D01*
X48264Y-15535D01*
X48062Y-15451D01*
X47844Y-15451D01*
X47642Y-15535D01*
X47488Y-15689D01*
X47404Y-15891D01*
X47404Y-16109D01*
X47488Y-16311D01*
X47642Y-16465D01*
X47844Y-16549D01*
X48062Y-16549D01*
X48264Y-16465D01*
X48418Y-16311D01*
X48502Y-16109D01*
X48502Y-20321D01*
X46136Y-17955D01*
X46136Y-13967D01*
X46154Y-13949D01*
X46238Y-13747D01*
X46238Y-13529D01*
X46154Y-13327D01*
X46000Y-13173D01*
X45798Y-13089D01*
X45580Y-13089D01*
X45549Y-13101D01*
X45549Y-11975D01*
X45549Y-11757D01*
X45465Y-11555D01*
X45311Y-11401D01*
X45109Y-11317D01*
X44891Y-11317D01*
X44689Y-11401D01*
X44535Y-11555D01*
X44451Y-11757D01*
X44451Y-11975D01*
X44535Y-12177D01*
X44689Y-12331D01*
X44891Y-12415D01*
X45109Y-12415D01*
X45311Y-12331D01*
X45465Y-12177D01*
X45549Y-11975D01*
X45549Y-13101D01*
X45378Y-13173D01*
X45224Y-13327D01*
X45140Y-13529D01*
X45140Y-13747D01*
X45224Y-13949D01*
X45242Y-13967D01*
X45242Y-18140D01*
X45276Y-18311D01*
X45373Y-18456D01*
X49061Y-22144D01*
X48930Y-22144D01*
X48728Y-22228D01*
X48574Y-22382D01*
X48539Y-22466D01*
X48504Y-22382D01*
X48350Y-22228D01*
X48148Y-22144D01*
X47930Y-22144D01*
X47728Y-22228D01*
X47574Y-22382D01*
X47539Y-22466D01*
X47504Y-22382D01*
X47350Y-22228D01*
X47148Y-22144D01*
X46930Y-22144D01*
X46798Y-22198D01*
X46791Y-22166D01*
X46788Y-22148D01*
X46788Y-22147D01*
X46723Y-22051D01*
X46723Y-22050D01*
X46696Y-22024D01*
X46600Y-21959D01*
X46580Y-21955D01*
X46485Y-21936D01*
X44854Y-21936D01*
X44854Y-13717D01*
X44843Y-13504D01*
X44783Y-13357D01*
X44689Y-13330D01*
X44619Y-13400D01*
X44619Y-13260D01*
X44592Y-13166D01*
X44390Y-13095D01*
X44177Y-13106D01*
X44030Y-13166D01*
X44003Y-13260D01*
X44311Y-13567D01*
X44619Y-13260D01*
X44619Y-13400D01*
X44382Y-13638D01*
X44689Y-13946D01*
X44783Y-13919D01*
X44854Y-13717D01*
X44854Y-21936D01*
X44619Y-21936D01*
X44619Y-14016D01*
X44311Y-13709D01*
X44240Y-13779D01*
X44240Y-13638D01*
X43933Y-13330D01*
X43839Y-13357D01*
X43768Y-13559D01*
X43779Y-13772D01*
X43839Y-13919D01*
X43933Y-13946D01*
X44240Y-13638D01*
X44240Y-13779D01*
X44003Y-14016D01*
X44030Y-14110D01*
X44232Y-14181D01*
X44445Y-14170D01*
X44592Y-14110D01*
X44619Y-14016D01*
X44619Y-21936D01*
X44497Y-21936D01*
X44383Y-21959D01*
X44350Y-21981D01*
X44285Y-22024D01*
X44160Y-22149D01*
X44148Y-22144D01*
X43930Y-22144D01*
X43728Y-22228D01*
X43574Y-22382D01*
X43539Y-22466D01*
X43504Y-22382D01*
X43350Y-22228D01*
X43148Y-22144D01*
X42930Y-22144D01*
X42728Y-22228D01*
X42574Y-22382D01*
X42539Y-22466D01*
X42504Y-22382D01*
X42350Y-22228D01*
X42148Y-22144D01*
X41930Y-22144D01*
X41728Y-22228D01*
X41574Y-22382D01*
X41539Y-22466D01*
X41504Y-22382D01*
X41350Y-22228D01*
X41148Y-22144D01*
X40930Y-22144D01*
X40728Y-22228D01*
X40574Y-22382D01*
X40539Y-22466D01*
X40504Y-22382D01*
X40350Y-22228D01*
X40148Y-22144D01*
X39930Y-22144D01*
X39728Y-22228D01*
X39574Y-22382D01*
X39539Y-22466D01*
X39504Y-22382D01*
X39350Y-22228D01*
X39148Y-22144D01*
X38930Y-22144D01*
X38728Y-22228D01*
X38574Y-22382D01*
X38539Y-22466D01*
X38504Y-22382D01*
X38486Y-22364D01*
X38486Y-21971D01*
X38452Y-21800D01*
X38355Y-21655D01*
X37816Y-21116D01*
X37816Y-17701D01*
X37508Y-17394D01*
X37200Y-17701D01*
X37227Y-17795D01*
X37429Y-17866D01*
X37642Y-17855D01*
X37789Y-17795D01*
X37816Y-17701D01*
X37816Y-21116D01*
X35325Y-18625D01*
X35180Y-18528D01*
X35009Y-18494D01*
X32896Y-18494D01*
X32835Y-18433D01*
X32615Y-18342D01*
X32377Y-18342D01*
X32157Y-18433D01*
X31996Y-18594D01*
X31835Y-18433D01*
X31615Y-18342D01*
X31377Y-18342D01*
X31157Y-18433D01*
X30996Y-18594D01*
X30835Y-18433D01*
X30615Y-18342D01*
X30377Y-18342D01*
X30157Y-18433D01*
X29996Y-18594D01*
X29835Y-18433D01*
X29615Y-18342D01*
X29377Y-18342D01*
X29157Y-18433D01*
X28996Y-18594D01*
X28835Y-18433D01*
X28615Y-18342D01*
X28377Y-18342D01*
X28157Y-18433D01*
X27996Y-18594D01*
X27835Y-18433D01*
X27615Y-18342D01*
X27377Y-18342D01*
X27157Y-18433D01*
X26996Y-18594D01*
X26835Y-18433D01*
X26615Y-18342D01*
X26377Y-18342D01*
X26157Y-18433D01*
X25996Y-18594D01*
X25835Y-18433D01*
X25615Y-18342D01*
X25539Y-18342D01*
X26712Y-17169D01*
X35959Y-17169D01*
X35959Y-17672D01*
X35997Y-17764D01*
X36067Y-17834D01*
X36158Y-17872D01*
X36257Y-17872D01*
X36857Y-17872D01*
X36949Y-17834D01*
X37019Y-17764D01*
X37057Y-17673D01*
X37057Y-17610D01*
X37130Y-17631D01*
X37402Y-17358D01*
X37437Y-17323D01*
X37508Y-17252D01*
X37579Y-17323D01*
X37614Y-17358D01*
X37886Y-17631D01*
X37980Y-17604D01*
X38051Y-17402D01*
X38040Y-17189D01*
X38031Y-17169D01*
X41325Y-17169D01*
X41496Y-17135D01*
X41641Y-17038D01*
X42130Y-16549D01*
X42156Y-16549D01*
X42358Y-16465D01*
X42512Y-16311D01*
X42596Y-16109D01*
X42596Y-15891D01*
X42512Y-15689D01*
X42399Y-15576D01*
X42399Y-13747D01*
X42399Y-13529D01*
X42315Y-13327D01*
X42161Y-13173D01*
X41959Y-13089D01*
X41741Y-13089D01*
X41539Y-13173D01*
X41385Y-13327D01*
X41301Y-13529D01*
X41301Y-13747D01*
X41385Y-13949D01*
X41539Y-14103D01*
X41741Y-14187D01*
X41959Y-14187D01*
X42161Y-14103D01*
X42315Y-13949D01*
X42399Y-13747D01*
X42399Y-15576D01*
X42358Y-15535D01*
X42156Y-15451D01*
X41938Y-15451D01*
X41736Y-15535D01*
X41582Y-15689D01*
X41498Y-15891D01*
X41498Y-15917D01*
X41140Y-16275D01*
X39820Y-16275D01*
X39820Y-15066D01*
X39820Y-14857D01*
X39742Y-14668D01*
X39742Y-13679D01*
X39820Y-13491D01*
X39820Y-13282D01*
X39740Y-13089D01*
X39593Y-12941D01*
X39400Y-12861D01*
X39191Y-12861D01*
X38998Y-12941D01*
X38850Y-13088D01*
X38770Y-13281D01*
X38770Y-13490D01*
X38848Y-13678D01*
X38848Y-14667D01*
X38770Y-14856D01*
X38770Y-15065D01*
X38850Y-15258D01*
X38997Y-15406D01*
X39190Y-15486D01*
X39399Y-15486D01*
X39592Y-15406D01*
X39740Y-15259D01*
X39820Y-15066D01*
X39820Y-16275D01*
X38043Y-16275D01*
X38043Y-11079D01*
X38032Y-10866D01*
X37972Y-10719D01*
X37878Y-10692D01*
X37808Y-10762D01*
X37808Y-10622D01*
X37781Y-10528D01*
X37579Y-10457D01*
X37366Y-10468D01*
X37219Y-10528D01*
X37192Y-10622D01*
X37500Y-10929D01*
X37808Y-10622D01*
X37808Y-10762D01*
X37571Y-11000D01*
X37878Y-11308D01*
X37972Y-11281D01*
X38043Y-11079D01*
X38043Y-16275D01*
X37808Y-16275D01*
X37808Y-11378D01*
X37500Y-11071D01*
X37429Y-11141D01*
X37429Y-11000D01*
X37122Y-10692D01*
X37049Y-10712D01*
X37049Y-10651D01*
X37011Y-10559D01*
X36941Y-10489D01*
X36850Y-10451D01*
X36751Y-10451D01*
X36151Y-10451D01*
X36059Y-10489D01*
X35989Y-10559D01*
X35951Y-10650D01*
X35951Y-10749D01*
X35951Y-11349D01*
X35989Y-11441D01*
X36053Y-11505D01*
X36053Y-12918D01*
X35998Y-12941D01*
X35850Y-13088D01*
X35770Y-13281D01*
X35770Y-13490D01*
X35850Y-13683D01*
X35997Y-13831D01*
X36190Y-13911D01*
X36399Y-13911D01*
X36592Y-13831D01*
X36740Y-13684D01*
X36819Y-13491D01*
X36820Y-13491D01*
X36820Y-13490D01*
X36912Y-13353D01*
X36913Y-13352D01*
X36946Y-13182D01*
X36947Y-13181D01*
X36947Y-11505D01*
X37011Y-11441D01*
X37049Y-11350D01*
X37049Y-11287D01*
X37122Y-11308D01*
X37429Y-11000D01*
X37429Y-11141D01*
X37192Y-11378D01*
X37219Y-11472D01*
X37421Y-11543D01*
X37634Y-11532D01*
X37781Y-11472D01*
X37808Y-11378D01*
X37808Y-16275D01*
X32971Y-16275D01*
X32962Y-16266D01*
X33009Y-16251D01*
X33089Y-16032D01*
X33078Y-15797D01*
X33009Y-15631D01*
X32910Y-15598D01*
X32839Y-15669D01*
X32839Y-15527D01*
X32806Y-15428D01*
X32587Y-15348D01*
X32352Y-15359D01*
X32186Y-15428D01*
X32153Y-15527D01*
X32496Y-15870D01*
X32839Y-15527D01*
X32839Y-15669D01*
X32602Y-15906D01*
X32567Y-15941D01*
X32496Y-16012D01*
X32425Y-15941D01*
X32390Y-15906D01*
X32082Y-15598D01*
X32015Y-15619D01*
X32015Y-13566D01*
X32004Y-13362D01*
X31948Y-13225D01*
X31857Y-13202D01*
X31567Y-13492D01*
X31857Y-13782D01*
X31948Y-13759D01*
X32015Y-13566D01*
X32015Y-15619D01*
X31996Y-15626D01*
X31910Y-15598D01*
X31839Y-15669D01*
X31839Y-15527D01*
X31806Y-15428D01*
X31786Y-15420D01*
X31786Y-13853D01*
X31496Y-13563D01*
X31425Y-13634D01*
X31425Y-13492D01*
X31135Y-13202D01*
X31044Y-13225D01*
X30977Y-13418D01*
X30988Y-13622D01*
X31044Y-13759D01*
X31135Y-13782D01*
X31425Y-13492D01*
X31425Y-13634D01*
X31206Y-13853D01*
X31229Y-13944D01*
X31422Y-14011D01*
X31626Y-14000D01*
X31763Y-13944D01*
X31786Y-13853D01*
X31786Y-15420D01*
X31587Y-15348D01*
X31352Y-15359D01*
X31186Y-15428D01*
X31153Y-15527D01*
X31496Y-15870D01*
X31839Y-15527D01*
X31839Y-15669D01*
X31602Y-15906D01*
X31567Y-15941D01*
X31496Y-16012D01*
X31425Y-15941D01*
X31390Y-15906D01*
X31082Y-15598D01*
X30996Y-15626D01*
X30910Y-15598D01*
X30839Y-15669D01*
X30839Y-15527D01*
X30806Y-15428D01*
X30587Y-15348D01*
X30352Y-15359D01*
X30186Y-15428D01*
X30153Y-15527D01*
X30496Y-15870D01*
X30839Y-15527D01*
X30839Y-15669D01*
X30602Y-15906D01*
X30567Y-15941D01*
X30496Y-16012D01*
X30425Y-15941D01*
X30390Y-15906D01*
X30082Y-15598D01*
X29996Y-15626D01*
X29910Y-15598D01*
X29839Y-15669D01*
X29839Y-15527D01*
X29806Y-15428D01*
X29719Y-15396D01*
X29719Y-13574D01*
X29708Y-13370D01*
X29652Y-13233D01*
X29561Y-13210D01*
X29271Y-13500D01*
X29561Y-13790D01*
X29652Y-13767D01*
X29719Y-13574D01*
X29719Y-15396D01*
X29587Y-15348D01*
X29490Y-15352D01*
X29490Y-13861D01*
X29200Y-13571D01*
X29129Y-13642D01*
X29129Y-13500D01*
X28839Y-13210D01*
X28748Y-13233D01*
X28681Y-13426D01*
X28692Y-13630D01*
X28748Y-13767D01*
X28839Y-13790D01*
X29129Y-13500D01*
X29129Y-13642D01*
X28910Y-13861D01*
X28933Y-13952D01*
X29126Y-14019D01*
X29330Y-14008D01*
X29467Y-13952D01*
X29490Y-13861D01*
X29490Y-15352D01*
X29352Y-15359D01*
X29186Y-15428D01*
X29153Y-15527D01*
X29496Y-15870D01*
X29839Y-15527D01*
X29839Y-15669D01*
X29602Y-15906D01*
X29567Y-15941D01*
X29496Y-16012D01*
X29425Y-15941D01*
X29390Y-15906D01*
X29082Y-15598D01*
X28996Y-15626D01*
X28910Y-15598D01*
X28839Y-15669D01*
X28839Y-15527D01*
X28806Y-15428D01*
X28587Y-15348D01*
X28352Y-15359D01*
X28186Y-15428D01*
X28153Y-15527D01*
X28496Y-15870D01*
X28839Y-15527D01*
X28839Y-15669D01*
X28602Y-15906D01*
X28567Y-15941D01*
X28496Y-16012D01*
X28425Y-15941D01*
X28390Y-15906D01*
X28082Y-15598D01*
X27996Y-15626D01*
X27910Y-15598D01*
X27839Y-15669D01*
X27839Y-15527D01*
X27806Y-15428D01*
X27587Y-15348D01*
X27352Y-15359D01*
X27319Y-15372D01*
X27319Y-13574D01*
X27308Y-13370D01*
X27252Y-13233D01*
X27161Y-13210D01*
X26871Y-13500D01*
X27161Y-13790D01*
X27252Y-13767D01*
X27319Y-13574D01*
X27319Y-15372D01*
X27186Y-15428D01*
X27153Y-15527D01*
X27496Y-15870D01*
X27839Y-15527D01*
X27839Y-15669D01*
X27602Y-15906D01*
X27567Y-15941D01*
X27496Y-16012D01*
X27425Y-15941D01*
X27390Y-15906D01*
X27090Y-15606D01*
X27090Y-13861D01*
X26800Y-13571D01*
X26729Y-13642D01*
X26729Y-13500D01*
X26439Y-13210D01*
X26348Y-13233D01*
X26281Y-13426D01*
X26292Y-13630D01*
X26348Y-13767D01*
X26439Y-13790D01*
X26729Y-13500D01*
X26729Y-13642D01*
X26510Y-13861D01*
X26533Y-13952D01*
X26726Y-14019D01*
X26930Y-14008D01*
X27067Y-13952D01*
X27090Y-13861D01*
X27090Y-15606D01*
X27082Y-15598D01*
X26996Y-15626D01*
X26910Y-15598D01*
X26839Y-15669D01*
X26839Y-15527D01*
X26806Y-15428D01*
X26587Y-15348D01*
X26352Y-15359D01*
X26186Y-15428D01*
X26153Y-15527D01*
X26496Y-15870D01*
X26839Y-15527D01*
X26839Y-15669D01*
X26602Y-15906D01*
X26567Y-15941D01*
X26496Y-16012D01*
X26461Y-16047D01*
X26425Y-16083D01*
X26425Y-15941D01*
X26082Y-15598D01*
X25996Y-15626D01*
X25910Y-15598D01*
X25567Y-15941D01*
X25910Y-16284D01*
X25996Y-16255D01*
X26082Y-16284D01*
X26425Y-15941D01*
X26425Y-16083D01*
X26153Y-16355D01*
X26180Y-16436D01*
X25839Y-16777D01*
X25839Y-16355D01*
X25496Y-16012D01*
X25153Y-16355D01*
X25186Y-16454D01*
X25405Y-16534D01*
X25640Y-16523D01*
X25806Y-16454D01*
X25839Y-16355D01*
X25839Y-16777D01*
X24794Y-17822D01*
X24794Y-15907D01*
X24932Y-15768D01*
X24903Y-15850D01*
X24914Y-16085D01*
X24983Y-16251D01*
X25082Y-16284D01*
X25390Y-15976D01*
X25425Y-15941D01*
X25496Y-15870D01*
X25531Y-15835D01*
X25839Y-15527D01*
X25806Y-15428D01*
X25587Y-15348D01*
X25352Y-15359D01*
X25335Y-15365D01*
X26000Y-14702D01*
X26000Y-14701D01*
X26064Y-14605D01*
X26096Y-14557D01*
X26097Y-14556D01*
X26130Y-14386D01*
X26131Y-14385D01*
X26131Y-10501D01*
X26248Y-10383D01*
X26308Y-10528D01*
X26353Y-10573D01*
X26353Y-12206D01*
X26275Y-12395D01*
X26275Y-12604D01*
X26355Y-12797D01*
X26502Y-12945D01*
X26642Y-13003D01*
X26533Y-13048D01*
X26510Y-13139D01*
X26800Y-13429D01*
X27090Y-13139D01*
X27067Y-13048D01*
X26948Y-13006D01*
X27097Y-12945D01*
X27245Y-12798D01*
X27325Y-12605D01*
X27325Y-12396D01*
X27247Y-12207D01*
X27247Y-10573D01*
X27291Y-10529D01*
X27380Y-10316D01*
X27380Y-10085D01*
X27292Y-09872D01*
X27129Y-09709D01*
X27108Y-09700D01*
X27128Y-09692D01*
X27291Y-09529D01*
X27380Y-09316D01*
X27380Y-09085D01*
X27351Y-09016D01*
X28690Y-09016D01*
X28620Y-09184D01*
X28620Y-09415D01*
X28708Y-09628D01*
X28871Y-09791D01*
X28891Y-09799D01*
X28872Y-09808D01*
X28709Y-09971D01*
X28620Y-10184D01*
X28620Y-10415D01*
X28708Y-10628D01*
X28753Y-10673D01*
X28753Y-12206D01*
X28675Y-12395D01*
X28675Y-12604D01*
X28755Y-12797D01*
X28902Y-12945D01*
X29042Y-13003D01*
X28933Y-13048D01*
X28910Y-13139D01*
X29200Y-13429D01*
X29490Y-13139D01*
X29467Y-13048D01*
X29348Y-13006D01*
X29497Y-12945D01*
X29645Y-12798D01*
X29725Y-12605D01*
X29725Y-12396D01*
X29647Y-12207D01*
X29647Y-10673D01*
X29691Y-10629D01*
X29780Y-10416D01*
X29780Y-10185D01*
X29692Y-09972D01*
X29529Y-09809D01*
X29508Y-09800D01*
X29528Y-09792D01*
X29691Y-09629D01*
X29780Y-09416D01*
X29780Y-09185D01*
X29710Y-09016D01*
X31004Y-09016D01*
X30916Y-09227D01*
X30916Y-09458D01*
X31004Y-09671D01*
X31167Y-09834D01*
X31187Y-09842D01*
X31168Y-09851D01*
X31005Y-10014D01*
X30916Y-10227D01*
X30916Y-10458D01*
X31004Y-10671D01*
X31049Y-10716D01*
X31049Y-12198D01*
X30971Y-12387D01*
X30971Y-12596D01*
X31051Y-12789D01*
X31198Y-12937D01*
X31338Y-12995D01*
X31229Y-13040D01*
X31206Y-13131D01*
X31496Y-13421D01*
X31786Y-13131D01*
X31763Y-13040D01*
X31644Y-12998D01*
X31793Y-12937D01*
X31941Y-12790D01*
X32021Y-12597D01*
X32021Y-12388D01*
X31943Y-12199D01*
X31943Y-11241D01*
X35772Y-15070D01*
X35850Y-15258D01*
X35997Y-15406D01*
X36190Y-15486D01*
X36399Y-15486D01*
X36592Y-15406D01*
X36740Y-15259D01*
X36820Y-15066D01*
X36820Y-14857D01*
X36740Y-14664D01*
X36593Y-14516D01*
X36403Y-14437D01*
X32633Y-10667D01*
X32633Y-08683D01*
X32599Y-08512D01*
X32502Y-08367D01*
X32388Y-08253D01*
X32243Y-08156D01*
X32072Y-08122D01*
X26206Y-08122D01*
X26490Y-07839D01*
X26650Y-07454D01*
X26650Y-07036D01*
X26490Y-06650D01*
X26195Y-06354D01*
X26182Y-06349D01*
X56618Y-06349D01*
X56606Y-06354D01*
X56310Y-06649D01*
X56150Y-07034D01*
X56150Y-07452D01*
X56310Y-07838D01*
X56605Y-08134D01*
X56990Y-08294D01*
X57408Y-08294D01*
X57794Y-08134D01*
X58090Y-07839D01*
X58250Y-07454D01*
X58250Y-07036D01*
X58090Y-06650D01*
X57795Y-06354D01*
X57782Y-06349D01*
X60422Y-06349D01*
X60422Y-48769D01*
M02*
