G04 (created by PCBNEW (2012-apr-16-27)-stable) date Thu 28 Nov 2013 00:51:40 GMT*
G01*
G70*
G90*
%MOIN*%
G04 Gerber Fmt 3.4, Leading zero omitted, Abs format*
%FSLAX34Y34*%
G04 APERTURE LIST*
%ADD10C,0.001000*%
%ADD11C,0.015000*%
%ADD12C,0.008000*%
G04 APERTURE END LIST*
G54D10*
G54D11*
X23228Y-46850D02*
X23228Y-45276D01*
X59843Y-46850D02*
X23228Y-46850D01*
X59843Y-45669D02*
X59843Y-46850D01*
X59843Y-08661D02*
X59843Y-45669D01*
X23228Y-08661D02*
X59843Y-08661D01*
X23228Y-45276D02*
X23228Y-08661D01*
G54D10*
X25371Y-15816D02*
X25621Y-16066D01*
X25621Y-15816D02*
X25371Y-16066D01*
X25371Y-18816D02*
X25621Y-19066D01*
X25621Y-18816D02*
X25371Y-19066D01*
X26371Y-15816D02*
X26621Y-16066D01*
X26621Y-15816D02*
X26371Y-16066D01*
X26371Y-18816D02*
X26621Y-19066D01*
X26621Y-18816D02*
X26371Y-19066D01*
X27371Y-15816D02*
X27621Y-16066D01*
X27621Y-15816D02*
X27371Y-16066D01*
X27371Y-18816D02*
X27621Y-19066D01*
X27621Y-18816D02*
X27371Y-19066D01*
X28371Y-15816D02*
X28621Y-16066D01*
X28621Y-15816D02*
X28371Y-16066D01*
X28371Y-18816D02*
X28621Y-19066D01*
X28621Y-18816D02*
X28371Y-19066D01*
X29371Y-15816D02*
X29621Y-16066D01*
X29621Y-15816D02*
X29371Y-16066D01*
X29371Y-18816D02*
X29621Y-19066D01*
X29621Y-18816D02*
X29371Y-19066D01*
X30371Y-15816D02*
X30621Y-16066D01*
X30621Y-15816D02*
X30371Y-16066D01*
X30371Y-18816D02*
X30621Y-19066D01*
X30621Y-18816D02*
X30371Y-19066D01*
X31371Y-15816D02*
X31621Y-16066D01*
X31621Y-15816D02*
X31371Y-16066D01*
X31371Y-18816D02*
X31621Y-19066D01*
X31621Y-18816D02*
X31371Y-19066D01*
X32371Y-15816D02*
X32621Y-16066D01*
X32621Y-15816D02*
X32371Y-16066D01*
X32371Y-18816D02*
X32621Y-19066D01*
X32621Y-18816D02*
X32371Y-19066D01*
X24660Y-23000D02*
X24656Y-23031D01*
X24647Y-23060D01*
X24633Y-23088D01*
X24613Y-23112D01*
X24589Y-23132D01*
X24562Y-23147D01*
X24532Y-23156D01*
X24501Y-23159D01*
X24471Y-23157D01*
X24441Y-23148D01*
X24413Y-23133D01*
X24389Y-23114D01*
X24368Y-23090D01*
X24353Y-23063D01*
X24344Y-23033D01*
X24341Y-23002D01*
X24343Y-22972D01*
X24352Y-22942D01*
X24366Y-22914D01*
X24385Y-22889D01*
X24409Y-22869D01*
X24436Y-22854D01*
X24466Y-22844D01*
X24497Y-22841D01*
X24527Y-22843D01*
X24557Y-22851D01*
X24585Y-22865D01*
X24610Y-22885D01*
X24630Y-22908D01*
X24646Y-22935D01*
X24656Y-22965D01*
X24659Y-22996D01*
X24660Y-23000D01*
X24660Y-29000D02*
X24656Y-29031D01*
X24647Y-29060D01*
X24633Y-29088D01*
X24613Y-29112D01*
X24589Y-29132D01*
X24562Y-29147D01*
X24532Y-29156D01*
X24501Y-29159D01*
X24471Y-29157D01*
X24441Y-29148D01*
X24413Y-29133D01*
X24389Y-29114D01*
X24368Y-29090D01*
X24353Y-29063D01*
X24344Y-29033D01*
X24341Y-29002D01*
X24343Y-28972D01*
X24352Y-28942D01*
X24366Y-28914D01*
X24385Y-28889D01*
X24409Y-28869D01*
X24436Y-28854D01*
X24466Y-28844D01*
X24497Y-28841D01*
X24527Y-28843D01*
X24557Y-28851D01*
X24585Y-28865D01*
X24610Y-28885D01*
X24630Y-28908D01*
X24646Y-28935D01*
X24656Y-28965D01*
X24659Y-28996D01*
X24660Y-29000D01*
X25357Y-09343D02*
X25353Y-09374D01*
X25344Y-09403D01*
X25330Y-09431D01*
X25310Y-09455D01*
X25286Y-09475D01*
X25259Y-09490D01*
X25229Y-09499D01*
X25198Y-09502D01*
X25168Y-09500D01*
X25138Y-09491D01*
X25110Y-09476D01*
X25086Y-09457D01*
X25065Y-09433D01*
X25050Y-09406D01*
X25041Y-09376D01*
X25038Y-09345D01*
X25040Y-09315D01*
X25049Y-09285D01*
X25063Y-09257D01*
X25082Y-09232D01*
X25106Y-09212D01*
X25133Y-09197D01*
X25163Y-09187D01*
X25194Y-09184D01*
X25224Y-09186D01*
X25254Y-09194D01*
X25282Y-09208D01*
X25307Y-09228D01*
X25327Y-09251D01*
X25343Y-09278D01*
X25353Y-09308D01*
X25356Y-09339D01*
X25357Y-09343D01*
X25357Y-10343D02*
X25353Y-10374D01*
X25344Y-10403D01*
X25330Y-10431D01*
X25310Y-10455D01*
X25286Y-10475D01*
X25259Y-10490D01*
X25229Y-10499D01*
X25198Y-10502D01*
X25168Y-10500D01*
X25138Y-10491D01*
X25110Y-10476D01*
X25086Y-10457D01*
X25065Y-10433D01*
X25050Y-10406D01*
X25041Y-10376D01*
X25038Y-10345D01*
X25040Y-10315D01*
X25049Y-10285D01*
X25063Y-10257D01*
X25082Y-10232D01*
X25106Y-10212D01*
X25133Y-10197D01*
X25163Y-10187D01*
X25194Y-10184D01*
X25224Y-10186D01*
X25254Y-10194D01*
X25282Y-10208D01*
X25307Y-10228D01*
X25327Y-10251D01*
X25343Y-10278D01*
X25353Y-10308D01*
X25356Y-10339D01*
X25357Y-10343D01*
X25357Y-12492D02*
X25353Y-12523D01*
X25344Y-12552D01*
X25330Y-12580D01*
X25310Y-12604D01*
X25286Y-12624D01*
X25259Y-12639D01*
X25229Y-12648D01*
X25198Y-12651D01*
X25168Y-12649D01*
X25138Y-12640D01*
X25110Y-12625D01*
X25086Y-12606D01*
X25065Y-12582D01*
X25050Y-12555D01*
X25041Y-12525D01*
X25038Y-12494D01*
X25040Y-12464D01*
X25049Y-12434D01*
X25063Y-12406D01*
X25082Y-12381D01*
X25106Y-12361D01*
X25133Y-12346D01*
X25163Y-12336D01*
X25194Y-12333D01*
X25224Y-12335D01*
X25254Y-12343D01*
X25282Y-12357D01*
X25307Y-12377D01*
X25327Y-12400D01*
X25343Y-12427D01*
X25353Y-12457D01*
X25356Y-12488D01*
X25357Y-12492D01*
X25357Y-13492D02*
X25353Y-13523D01*
X25344Y-13552D01*
X25330Y-13580D01*
X25310Y-13604D01*
X25286Y-13624D01*
X25259Y-13639D01*
X25229Y-13648D01*
X25198Y-13651D01*
X25168Y-13649D01*
X25138Y-13640D01*
X25110Y-13625D01*
X25086Y-13606D01*
X25065Y-13582D01*
X25050Y-13555D01*
X25041Y-13525D01*
X25038Y-13494D01*
X25040Y-13464D01*
X25049Y-13434D01*
X25063Y-13406D01*
X25082Y-13381D01*
X25106Y-13361D01*
X25133Y-13346D01*
X25163Y-13336D01*
X25194Y-13333D01*
X25224Y-13335D01*
X25254Y-13343D01*
X25282Y-13357D01*
X25307Y-13377D01*
X25327Y-13400D01*
X25343Y-13427D01*
X25353Y-13457D01*
X25356Y-13488D01*
X25357Y-13492D01*
X25660Y-23000D02*
X25656Y-23031D01*
X25647Y-23060D01*
X25633Y-23088D01*
X25613Y-23112D01*
X25589Y-23132D01*
X25562Y-23147D01*
X25532Y-23156D01*
X25501Y-23159D01*
X25471Y-23157D01*
X25441Y-23148D01*
X25413Y-23133D01*
X25389Y-23114D01*
X25368Y-23090D01*
X25353Y-23063D01*
X25344Y-23033D01*
X25341Y-23002D01*
X25343Y-22972D01*
X25352Y-22942D01*
X25366Y-22914D01*
X25385Y-22889D01*
X25409Y-22869D01*
X25436Y-22854D01*
X25466Y-22844D01*
X25497Y-22841D01*
X25527Y-22843D01*
X25557Y-22851D01*
X25585Y-22865D01*
X25610Y-22885D01*
X25630Y-22908D01*
X25646Y-22935D01*
X25656Y-22965D01*
X25659Y-22996D01*
X25660Y-23000D01*
X25660Y-29000D02*
X25656Y-29031D01*
X25647Y-29060D01*
X25633Y-29088D01*
X25613Y-29112D01*
X25589Y-29132D01*
X25562Y-29147D01*
X25532Y-29156D01*
X25501Y-29159D01*
X25471Y-29157D01*
X25441Y-29148D01*
X25413Y-29133D01*
X25389Y-29114D01*
X25368Y-29090D01*
X25353Y-29063D01*
X25344Y-29033D01*
X25341Y-29002D01*
X25343Y-28972D01*
X25352Y-28942D01*
X25366Y-28914D01*
X25385Y-28889D01*
X25409Y-28869D01*
X25436Y-28854D01*
X25466Y-28844D01*
X25497Y-28841D01*
X25527Y-28843D01*
X25557Y-28851D01*
X25585Y-28865D01*
X25610Y-28885D01*
X25630Y-28908D01*
X25646Y-28935D01*
X25656Y-28965D01*
X25659Y-28996D01*
X25660Y-29000D01*
X26660Y-23000D02*
X26656Y-23031D01*
X26647Y-23060D01*
X26633Y-23088D01*
X26613Y-23112D01*
X26589Y-23132D01*
X26562Y-23147D01*
X26532Y-23156D01*
X26501Y-23159D01*
X26471Y-23157D01*
X26441Y-23148D01*
X26413Y-23133D01*
X26389Y-23114D01*
X26368Y-23090D01*
X26353Y-23063D01*
X26344Y-23033D01*
X26341Y-23002D01*
X26343Y-22972D01*
X26352Y-22942D01*
X26366Y-22914D01*
X26385Y-22889D01*
X26409Y-22869D01*
X26436Y-22854D01*
X26466Y-22844D01*
X26497Y-22841D01*
X26527Y-22843D01*
X26557Y-22851D01*
X26585Y-22865D01*
X26610Y-22885D01*
X26630Y-22908D01*
X26646Y-22935D01*
X26656Y-22965D01*
X26659Y-22996D01*
X26660Y-23000D01*
X26660Y-29000D02*
X26656Y-29031D01*
X26647Y-29060D01*
X26633Y-29088D01*
X26613Y-29112D01*
X26589Y-29132D01*
X26562Y-29147D01*
X26532Y-29156D01*
X26501Y-29159D01*
X26471Y-29157D01*
X26441Y-29148D01*
X26413Y-29133D01*
X26389Y-29114D01*
X26368Y-29090D01*
X26353Y-29063D01*
X26344Y-29033D01*
X26341Y-29002D01*
X26343Y-28972D01*
X26352Y-28942D01*
X26366Y-28914D01*
X26385Y-28889D01*
X26409Y-28869D01*
X26436Y-28854D01*
X26466Y-28844D01*
X26497Y-28841D01*
X26527Y-28843D01*
X26557Y-28851D01*
X26585Y-28865D01*
X26610Y-28885D01*
X26630Y-28908D01*
X26646Y-28935D01*
X26656Y-28965D01*
X26659Y-28996D01*
X26660Y-29000D01*
X27400Y-33933D02*
X27396Y-33964D01*
X27387Y-33993D01*
X27373Y-34021D01*
X27353Y-34045D01*
X27329Y-34065D01*
X27302Y-34080D01*
X27272Y-34089D01*
X27241Y-34092D01*
X27211Y-34090D01*
X27181Y-34081D01*
X27153Y-34066D01*
X27129Y-34047D01*
X27108Y-34023D01*
X27093Y-33996D01*
X27084Y-33966D01*
X27081Y-33935D01*
X27083Y-33905D01*
X27092Y-33875D01*
X27106Y-33847D01*
X27125Y-33822D01*
X27149Y-33802D01*
X27176Y-33787D01*
X27206Y-33777D01*
X27237Y-33774D01*
X27267Y-33776D01*
X27297Y-33784D01*
X27325Y-33798D01*
X27350Y-33818D01*
X27370Y-33841D01*
X27386Y-33868D01*
X27396Y-33898D01*
X27399Y-33929D01*
X27400Y-33933D01*
X27400Y-36933D02*
X27396Y-36964D01*
X27387Y-36993D01*
X27373Y-37021D01*
X27353Y-37045D01*
X27329Y-37065D01*
X27302Y-37080D01*
X27272Y-37089D01*
X27241Y-37092D01*
X27211Y-37090D01*
X27181Y-37081D01*
X27153Y-37066D01*
X27129Y-37047D01*
X27108Y-37023D01*
X27093Y-36996D01*
X27084Y-36966D01*
X27081Y-36935D01*
X27083Y-36905D01*
X27092Y-36875D01*
X27106Y-36847D01*
X27125Y-36822D01*
X27149Y-36802D01*
X27176Y-36787D01*
X27206Y-36777D01*
X27237Y-36774D01*
X27267Y-36776D01*
X27297Y-36784D01*
X27325Y-36798D01*
X27350Y-36818D01*
X27370Y-36841D01*
X27386Y-36868D01*
X27396Y-36898D01*
X27399Y-36929D01*
X27400Y-36933D01*
X27660Y-23000D02*
X27656Y-23031D01*
X27647Y-23060D01*
X27633Y-23088D01*
X27613Y-23112D01*
X27589Y-23132D01*
X27562Y-23147D01*
X27532Y-23156D01*
X27501Y-23159D01*
X27471Y-23157D01*
X27441Y-23148D01*
X27413Y-23133D01*
X27389Y-23114D01*
X27368Y-23090D01*
X27353Y-23063D01*
X27344Y-23033D01*
X27341Y-23002D01*
X27343Y-22972D01*
X27352Y-22942D01*
X27366Y-22914D01*
X27385Y-22889D01*
X27409Y-22869D01*
X27436Y-22854D01*
X27466Y-22844D01*
X27497Y-22841D01*
X27527Y-22843D01*
X27557Y-22851D01*
X27585Y-22865D01*
X27610Y-22885D01*
X27630Y-22908D01*
X27646Y-22935D01*
X27656Y-22965D01*
X27659Y-22996D01*
X27660Y-23000D01*
X27660Y-29000D02*
X27656Y-29031D01*
X27647Y-29060D01*
X27633Y-29088D01*
X27613Y-29112D01*
X27589Y-29132D01*
X27562Y-29147D01*
X27532Y-29156D01*
X27501Y-29159D01*
X27471Y-29157D01*
X27441Y-29148D01*
X27413Y-29133D01*
X27389Y-29114D01*
X27368Y-29090D01*
X27353Y-29063D01*
X27344Y-29033D01*
X27341Y-29002D01*
X27343Y-28972D01*
X27352Y-28942D01*
X27366Y-28914D01*
X27385Y-28889D01*
X27409Y-28869D01*
X27436Y-28854D01*
X27466Y-28844D01*
X27497Y-28841D01*
X27527Y-28843D01*
X27557Y-28851D01*
X27585Y-28865D01*
X27610Y-28885D01*
X27630Y-28908D01*
X27646Y-28935D01*
X27656Y-28965D01*
X27659Y-28996D01*
X27660Y-29000D01*
X28400Y-33933D02*
X28396Y-33964D01*
X28387Y-33993D01*
X28373Y-34021D01*
X28353Y-34045D01*
X28329Y-34065D01*
X28302Y-34080D01*
X28272Y-34089D01*
X28241Y-34092D01*
X28211Y-34090D01*
X28181Y-34081D01*
X28153Y-34066D01*
X28129Y-34047D01*
X28108Y-34023D01*
X28093Y-33996D01*
X28084Y-33966D01*
X28081Y-33935D01*
X28083Y-33905D01*
X28092Y-33875D01*
X28106Y-33847D01*
X28125Y-33822D01*
X28149Y-33802D01*
X28176Y-33787D01*
X28206Y-33777D01*
X28237Y-33774D01*
X28267Y-33776D01*
X28297Y-33784D01*
X28325Y-33798D01*
X28350Y-33818D01*
X28370Y-33841D01*
X28386Y-33868D01*
X28396Y-33898D01*
X28399Y-33929D01*
X28400Y-33933D01*
X28400Y-36933D02*
X28396Y-36964D01*
X28387Y-36993D01*
X28373Y-37021D01*
X28353Y-37045D01*
X28329Y-37065D01*
X28302Y-37080D01*
X28272Y-37089D01*
X28241Y-37092D01*
X28211Y-37090D01*
X28181Y-37081D01*
X28153Y-37066D01*
X28129Y-37047D01*
X28108Y-37023D01*
X28093Y-36996D01*
X28084Y-36966D01*
X28081Y-36935D01*
X28083Y-36905D01*
X28092Y-36875D01*
X28106Y-36847D01*
X28125Y-36822D01*
X28149Y-36802D01*
X28176Y-36787D01*
X28206Y-36777D01*
X28237Y-36774D01*
X28267Y-36776D01*
X28297Y-36784D01*
X28325Y-36798D01*
X28350Y-36818D01*
X28370Y-36841D01*
X28386Y-36868D01*
X28396Y-36898D01*
X28399Y-36929D01*
X28400Y-36933D01*
X28506Y-09343D02*
X28502Y-09374D01*
X28493Y-09403D01*
X28479Y-09431D01*
X28459Y-09455D01*
X28435Y-09475D01*
X28408Y-09490D01*
X28378Y-09499D01*
X28347Y-09502D01*
X28317Y-09500D01*
X28287Y-09491D01*
X28259Y-09476D01*
X28235Y-09457D01*
X28214Y-09433D01*
X28199Y-09406D01*
X28190Y-09376D01*
X28187Y-09345D01*
X28189Y-09315D01*
X28198Y-09285D01*
X28212Y-09257D01*
X28231Y-09232D01*
X28255Y-09212D01*
X28282Y-09197D01*
X28312Y-09187D01*
X28343Y-09184D01*
X28373Y-09186D01*
X28403Y-09194D01*
X28431Y-09208D01*
X28456Y-09228D01*
X28476Y-09251D01*
X28492Y-09278D01*
X28502Y-09308D01*
X28505Y-09339D01*
X28506Y-09343D01*
X28506Y-10343D02*
X28502Y-10374D01*
X28493Y-10403D01*
X28479Y-10431D01*
X28459Y-10455D01*
X28435Y-10475D01*
X28408Y-10490D01*
X28378Y-10499D01*
X28347Y-10502D01*
X28317Y-10500D01*
X28287Y-10491D01*
X28259Y-10476D01*
X28235Y-10457D01*
X28214Y-10433D01*
X28199Y-10406D01*
X28190Y-10376D01*
X28187Y-10345D01*
X28189Y-10315D01*
X28198Y-10285D01*
X28212Y-10257D01*
X28231Y-10232D01*
X28255Y-10212D01*
X28282Y-10197D01*
X28312Y-10187D01*
X28343Y-10184D01*
X28373Y-10186D01*
X28403Y-10194D01*
X28431Y-10208D01*
X28456Y-10228D01*
X28476Y-10251D01*
X28492Y-10278D01*
X28502Y-10308D01*
X28505Y-10339D01*
X28506Y-10343D01*
X28506Y-12492D02*
X28502Y-12523D01*
X28493Y-12552D01*
X28479Y-12580D01*
X28459Y-12604D01*
X28435Y-12624D01*
X28408Y-12639D01*
X28378Y-12648D01*
X28347Y-12651D01*
X28317Y-12649D01*
X28287Y-12640D01*
X28259Y-12625D01*
X28235Y-12606D01*
X28214Y-12582D01*
X28199Y-12555D01*
X28190Y-12525D01*
X28187Y-12494D01*
X28189Y-12464D01*
X28198Y-12434D01*
X28212Y-12406D01*
X28231Y-12381D01*
X28255Y-12361D01*
X28282Y-12346D01*
X28312Y-12336D01*
X28343Y-12333D01*
X28373Y-12335D01*
X28403Y-12343D01*
X28431Y-12357D01*
X28456Y-12377D01*
X28476Y-12400D01*
X28492Y-12427D01*
X28502Y-12457D01*
X28505Y-12488D01*
X28506Y-12492D01*
X28506Y-13492D02*
X28502Y-13523D01*
X28493Y-13552D01*
X28479Y-13580D01*
X28459Y-13604D01*
X28435Y-13624D01*
X28408Y-13639D01*
X28378Y-13648D01*
X28347Y-13651D01*
X28317Y-13649D01*
X28287Y-13640D01*
X28259Y-13625D01*
X28235Y-13606D01*
X28214Y-13582D01*
X28199Y-13555D01*
X28190Y-13525D01*
X28187Y-13494D01*
X28189Y-13464D01*
X28198Y-13434D01*
X28212Y-13406D01*
X28231Y-13381D01*
X28255Y-13361D01*
X28282Y-13346D01*
X28312Y-13336D01*
X28343Y-13333D01*
X28373Y-13335D01*
X28403Y-13343D01*
X28431Y-13357D01*
X28456Y-13377D01*
X28476Y-13400D01*
X28492Y-13427D01*
X28502Y-13457D01*
X28505Y-13488D01*
X28506Y-13492D01*
X28660Y-23000D02*
X28656Y-23031D01*
X28647Y-23060D01*
X28633Y-23088D01*
X28613Y-23112D01*
X28589Y-23132D01*
X28562Y-23147D01*
X28532Y-23156D01*
X28501Y-23159D01*
X28471Y-23157D01*
X28441Y-23148D01*
X28413Y-23133D01*
X28389Y-23114D01*
X28368Y-23090D01*
X28353Y-23063D01*
X28344Y-23033D01*
X28341Y-23002D01*
X28343Y-22972D01*
X28352Y-22942D01*
X28366Y-22914D01*
X28385Y-22889D01*
X28409Y-22869D01*
X28436Y-22854D01*
X28466Y-22844D01*
X28497Y-22841D01*
X28527Y-22843D01*
X28557Y-22851D01*
X28585Y-22865D01*
X28610Y-22885D01*
X28630Y-22908D01*
X28646Y-22935D01*
X28656Y-22965D01*
X28659Y-22996D01*
X28660Y-23000D01*
X28660Y-29000D02*
X28656Y-29031D01*
X28647Y-29060D01*
X28633Y-29088D01*
X28613Y-29112D01*
X28589Y-29132D01*
X28562Y-29147D01*
X28532Y-29156D01*
X28501Y-29159D01*
X28471Y-29157D01*
X28441Y-29148D01*
X28413Y-29133D01*
X28389Y-29114D01*
X28368Y-29090D01*
X28353Y-29063D01*
X28344Y-29033D01*
X28341Y-29002D01*
X28343Y-28972D01*
X28352Y-28942D01*
X28366Y-28914D01*
X28385Y-28889D01*
X28409Y-28869D01*
X28436Y-28854D01*
X28466Y-28844D01*
X28497Y-28841D01*
X28527Y-28843D01*
X28557Y-28851D01*
X28585Y-28865D01*
X28610Y-28885D01*
X28630Y-28908D01*
X28646Y-28935D01*
X28656Y-28965D01*
X28659Y-28996D01*
X28660Y-29000D01*
X29294Y-38870D02*
X29290Y-38901D01*
X29281Y-38930D01*
X29267Y-38958D01*
X29247Y-38982D01*
X29223Y-39002D01*
X29196Y-39017D01*
X29166Y-39026D01*
X29135Y-39029D01*
X29105Y-39027D01*
X29075Y-39018D01*
X29047Y-39003D01*
X29023Y-38984D01*
X29002Y-38960D01*
X28987Y-38933D01*
X28978Y-38903D01*
X28975Y-38872D01*
X28977Y-38842D01*
X28986Y-38812D01*
X29000Y-38784D01*
X29019Y-38759D01*
X29043Y-38739D01*
X29070Y-38724D01*
X29100Y-38714D01*
X29131Y-38711D01*
X29161Y-38713D01*
X29191Y-38721D01*
X29219Y-38735D01*
X29244Y-38755D01*
X29264Y-38778D01*
X29280Y-38805D01*
X29290Y-38835D01*
X29293Y-38866D01*
X29294Y-38870D01*
X29294Y-39870D02*
X29290Y-39901D01*
X29281Y-39930D01*
X29267Y-39958D01*
X29247Y-39982D01*
X29223Y-40002D01*
X29196Y-40017D01*
X29166Y-40026D01*
X29135Y-40029D01*
X29105Y-40027D01*
X29075Y-40018D01*
X29047Y-40003D01*
X29023Y-39984D01*
X29002Y-39960D01*
X28987Y-39933D01*
X28978Y-39903D01*
X28975Y-39872D01*
X28977Y-39842D01*
X28986Y-39812D01*
X29000Y-39784D01*
X29019Y-39759D01*
X29043Y-39739D01*
X29070Y-39724D01*
X29100Y-39714D01*
X29131Y-39711D01*
X29161Y-39713D01*
X29191Y-39721D01*
X29219Y-39735D01*
X29244Y-39755D01*
X29264Y-39778D01*
X29280Y-39805D01*
X29290Y-39835D01*
X29293Y-39866D01*
X29294Y-39870D01*
X29400Y-33933D02*
X29396Y-33964D01*
X29387Y-33993D01*
X29373Y-34021D01*
X29353Y-34045D01*
X29329Y-34065D01*
X29302Y-34080D01*
X29272Y-34089D01*
X29241Y-34092D01*
X29211Y-34090D01*
X29181Y-34081D01*
X29153Y-34066D01*
X29129Y-34047D01*
X29108Y-34023D01*
X29093Y-33996D01*
X29084Y-33966D01*
X29081Y-33935D01*
X29083Y-33905D01*
X29092Y-33875D01*
X29106Y-33847D01*
X29125Y-33822D01*
X29149Y-33802D01*
X29176Y-33787D01*
X29206Y-33777D01*
X29237Y-33774D01*
X29267Y-33776D01*
X29297Y-33784D01*
X29325Y-33798D01*
X29350Y-33818D01*
X29370Y-33841D01*
X29386Y-33868D01*
X29396Y-33898D01*
X29399Y-33929D01*
X29400Y-33933D01*
X29400Y-36933D02*
X29396Y-36964D01*
X29387Y-36993D01*
X29373Y-37021D01*
X29353Y-37045D01*
X29329Y-37065D01*
X29302Y-37080D01*
X29272Y-37089D01*
X29241Y-37092D01*
X29211Y-37090D01*
X29181Y-37081D01*
X29153Y-37066D01*
X29129Y-37047D01*
X29108Y-37023D01*
X29093Y-36996D01*
X29084Y-36966D01*
X29081Y-36935D01*
X29083Y-36905D01*
X29092Y-36875D01*
X29106Y-36847D01*
X29125Y-36822D01*
X29149Y-36802D01*
X29176Y-36787D01*
X29206Y-36777D01*
X29237Y-36774D01*
X29267Y-36776D01*
X29297Y-36784D01*
X29325Y-36798D01*
X29350Y-36818D01*
X29370Y-36841D01*
X29386Y-36868D01*
X29396Y-36898D01*
X29399Y-36929D01*
X29400Y-36933D01*
X29660Y-23000D02*
X29656Y-23031D01*
X29647Y-23060D01*
X29633Y-23088D01*
X29613Y-23112D01*
X29589Y-23132D01*
X29562Y-23147D01*
X29532Y-23156D01*
X29501Y-23159D01*
X29471Y-23157D01*
X29441Y-23148D01*
X29413Y-23133D01*
X29389Y-23114D01*
X29368Y-23090D01*
X29353Y-23063D01*
X29344Y-23033D01*
X29341Y-23002D01*
X29343Y-22972D01*
X29352Y-22942D01*
X29366Y-22914D01*
X29385Y-22889D01*
X29409Y-22869D01*
X29436Y-22854D01*
X29466Y-22844D01*
X29497Y-22841D01*
X29527Y-22843D01*
X29557Y-22851D01*
X29585Y-22865D01*
X29610Y-22885D01*
X29630Y-22908D01*
X29646Y-22935D01*
X29656Y-22965D01*
X29659Y-22996D01*
X29660Y-23000D01*
X29660Y-29000D02*
X29656Y-29031D01*
X29647Y-29060D01*
X29633Y-29088D01*
X29613Y-29112D01*
X29589Y-29132D01*
X29562Y-29147D01*
X29532Y-29156D01*
X29501Y-29159D01*
X29471Y-29157D01*
X29441Y-29148D01*
X29413Y-29133D01*
X29389Y-29114D01*
X29368Y-29090D01*
X29353Y-29063D01*
X29344Y-29033D01*
X29341Y-29002D01*
X29343Y-28972D01*
X29352Y-28942D01*
X29366Y-28914D01*
X29385Y-28889D01*
X29409Y-28869D01*
X29436Y-28854D01*
X29466Y-28844D01*
X29497Y-28841D01*
X29527Y-28843D01*
X29557Y-28851D01*
X29585Y-28865D01*
X29610Y-28885D01*
X29630Y-28908D01*
X29646Y-28935D01*
X29656Y-28965D01*
X29659Y-28996D01*
X29660Y-29000D01*
X30400Y-33933D02*
X30396Y-33964D01*
X30387Y-33993D01*
X30373Y-34021D01*
X30353Y-34045D01*
X30329Y-34065D01*
X30302Y-34080D01*
X30272Y-34089D01*
X30241Y-34092D01*
X30211Y-34090D01*
X30181Y-34081D01*
X30153Y-34066D01*
X30129Y-34047D01*
X30108Y-34023D01*
X30093Y-33996D01*
X30084Y-33966D01*
X30081Y-33935D01*
X30083Y-33905D01*
X30092Y-33875D01*
X30106Y-33847D01*
X30125Y-33822D01*
X30149Y-33802D01*
X30176Y-33787D01*
X30206Y-33777D01*
X30237Y-33774D01*
X30267Y-33776D01*
X30297Y-33784D01*
X30325Y-33798D01*
X30350Y-33818D01*
X30370Y-33841D01*
X30386Y-33868D01*
X30396Y-33898D01*
X30399Y-33929D01*
X30400Y-33933D01*
X30400Y-36933D02*
X30396Y-36964D01*
X30387Y-36993D01*
X30373Y-37021D01*
X30353Y-37045D01*
X30329Y-37065D01*
X30302Y-37080D01*
X30272Y-37089D01*
X30241Y-37092D01*
X30211Y-37090D01*
X30181Y-37081D01*
X30153Y-37066D01*
X30129Y-37047D01*
X30108Y-37023D01*
X30093Y-36996D01*
X30084Y-36966D01*
X30081Y-36935D01*
X30083Y-36905D01*
X30092Y-36875D01*
X30106Y-36847D01*
X30125Y-36822D01*
X30149Y-36802D01*
X30176Y-36787D01*
X30206Y-36777D01*
X30237Y-36774D01*
X30267Y-36776D01*
X30297Y-36784D01*
X30325Y-36798D01*
X30350Y-36818D01*
X30370Y-36841D01*
X30386Y-36868D01*
X30396Y-36898D01*
X30399Y-36929D01*
X30400Y-36933D01*
X30660Y-23000D02*
X30656Y-23031D01*
X30647Y-23060D01*
X30633Y-23088D01*
X30613Y-23112D01*
X30589Y-23132D01*
X30562Y-23147D01*
X30532Y-23156D01*
X30501Y-23159D01*
X30471Y-23157D01*
X30441Y-23148D01*
X30413Y-23133D01*
X30389Y-23114D01*
X30368Y-23090D01*
X30353Y-23063D01*
X30344Y-23033D01*
X30341Y-23002D01*
X30343Y-22972D01*
X30352Y-22942D01*
X30366Y-22914D01*
X30385Y-22889D01*
X30409Y-22869D01*
X30436Y-22854D01*
X30466Y-22844D01*
X30497Y-22841D01*
X30527Y-22843D01*
X30557Y-22851D01*
X30585Y-22865D01*
X30610Y-22885D01*
X30630Y-22908D01*
X30646Y-22935D01*
X30656Y-22965D01*
X30659Y-22996D01*
X30660Y-23000D01*
X30660Y-29000D02*
X30656Y-29031D01*
X30647Y-29060D01*
X30633Y-29088D01*
X30613Y-29112D01*
X30589Y-29132D01*
X30562Y-29147D01*
X30532Y-29156D01*
X30501Y-29159D01*
X30471Y-29157D01*
X30441Y-29148D01*
X30413Y-29133D01*
X30389Y-29114D01*
X30368Y-29090D01*
X30353Y-29063D01*
X30344Y-29033D01*
X30341Y-29002D01*
X30343Y-28972D01*
X30352Y-28942D01*
X30366Y-28914D01*
X30385Y-28889D01*
X30409Y-28869D01*
X30436Y-28854D01*
X30466Y-28844D01*
X30497Y-28841D01*
X30527Y-28843D01*
X30557Y-28851D01*
X30585Y-28865D01*
X30610Y-28885D01*
X30630Y-28908D01*
X30646Y-28935D01*
X30656Y-28965D01*
X30659Y-28996D01*
X30660Y-29000D01*
X31656Y-09343D02*
X31652Y-09374D01*
X31643Y-09403D01*
X31629Y-09431D01*
X31609Y-09455D01*
X31585Y-09475D01*
X31558Y-09490D01*
X31528Y-09499D01*
X31497Y-09502D01*
X31467Y-09500D01*
X31437Y-09491D01*
X31409Y-09476D01*
X31385Y-09457D01*
X31364Y-09433D01*
X31349Y-09406D01*
X31340Y-09376D01*
X31337Y-09345D01*
X31339Y-09315D01*
X31348Y-09285D01*
X31362Y-09257D01*
X31381Y-09232D01*
X31405Y-09212D01*
X31432Y-09197D01*
X31462Y-09187D01*
X31493Y-09184D01*
X31523Y-09186D01*
X31553Y-09194D01*
X31581Y-09208D01*
X31606Y-09228D01*
X31626Y-09251D01*
X31642Y-09278D01*
X31652Y-09308D01*
X31655Y-09339D01*
X31656Y-09343D01*
X31656Y-10343D02*
X31652Y-10374D01*
X31643Y-10403D01*
X31629Y-10431D01*
X31609Y-10455D01*
X31585Y-10475D01*
X31558Y-10490D01*
X31528Y-10499D01*
X31497Y-10502D01*
X31467Y-10500D01*
X31437Y-10491D01*
X31409Y-10476D01*
X31385Y-10457D01*
X31364Y-10433D01*
X31349Y-10406D01*
X31340Y-10376D01*
X31337Y-10345D01*
X31339Y-10315D01*
X31348Y-10285D01*
X31362Y-10257D01*
X31381Y-10232D01*
X31405Y-10212D01*
X31432Y-10197D01*
X31462Y-10187D01*
X31493Y-10184D01*
X31523Y-10186D01*
X31553Y-10194D01*
X31581Y-10208D01*
X31606Y-10228D01*
X31626Y-10251D01*
X31642Y-10278D01*
X31652Y-10308D01*
X31655Y-10339D01*
X31656Y-10343D01*
X31656Y-12492D02*
X31652Y-12523D01*
X31643Y-12552D01*
X31629Y-12580D01*
X31609Y-12604D01*
X31585Y-12624D01*
X31558Y-12639D01*
X31528Y-12648D01*
X31497Y-12651D01*
X31467Y-12649D01*
X31437Y-12640D01*
X31409Y-12625D01*
X31385Y-12606D01*
X31364Y-12582D01*
X31349Y-12555D01*
X31340Y-12525D01*
X31337Y-12494D01*
X31339Y-12464D01*
X31348Y-12434D01*
X31362Y-12406D01*
X31381Y-12381D01*
X31405Y-12361D01*
X31432Y-12346D01*
X31462Y-12336D01*
X31493Y-12333D01*
X31523Y-12335D01*
X31553Y-12343D01*
X31581Y-12357D01*
X31606Y-12377D01*
X31626Y-12400D01*
X31642Y-12427D01*
X31652Y-12457D01*
X31655Y-12488D01*
X31656Y-12492D01*
X31656Y-13492D02*
X31652Y-13523D01*
X31643Y-13552D01*
X31629Y-13580D01*
X31609Y-13604D01*
X31585Y-13624D01*
X31558Y-13639D01*
X31528Y-13648D01*
X31497Y-13651D01*
X31467Y-13649D01*
X31437Y-13640D01*
X31409Y-13625D01*
X31385Y-13606D01*
X31364Y-13582D01*
X31349Y-13555D01*
X31340Y-13525D01*
X31337Y-13494D01*
X31339Y-13464D01*
X31348Y-13434D01*
X31362Y-13406D01*
X31381Y-13381D01*
X31405Y-13361D01*
X31432Y-13346D01*
X31462Y-13336D01*
X31493Y-13333D01*
X31523Y-13335D01*
X31553Y-13343D01*
X31581Y-13357D01*
X31606Y-13377D01*
X31626Y-13400D01*
X31642Y-13427D01*
X31652Y-13457D01*
X31655Y-13488D01*
X31656Y-13492D01*
X31660Y-23000D02*
X31656Y-23031D01*
X31647Y-23060D01*
X31633Y-23088D01*
X31613Y-23112D01*
X31589Y-23132D01*
X31562Y-23147D01*
X31532Y-23156D01*
X31501Y-23159D01*
X31471Y-23157D01*
X31441Y-23148D01*
X31413Y-23133D01*
X31389Y-23114D01*
X31368Y-23090D01*
X31353Y-23063D01*
X31344Y-23033D01*
X31341Y-23002D01*
X31343Y-22972D01*
X31352Y-22942D01*
X31366Y-22914D01*
X31385Y-22889D01*
X31409Y-22869D01*
X31436Y-22854D01*
X31466Y-22844D01*
X31497Y-22841D01*
X31527Y-22843D01*
X31557Y-22851D01*
X31585Y-22865D01*
X31610Y-22885D01*
X31630Y-22908D01*
X31646Y-22935D01*
X31656Y-22965D01*
X31659Y-22996D01*
X31660Y-23000D01*
X31660Y-29000D02*
X31656Y-29031D01*
X31647Y-29060D01*
X31633Y-29088D01*
X31613Y-29112D01*
X31589Y-29132D01*
X31562Y-29147D01*
X31532Y-29156D01*
X31501Y-29159D01*
X31471Y-29157D01*
X31441Y-29148D01*
X31413Y-29133D01*
X31389Y-29114D01*
X31368Y-29090D01*
X31353Y-29063D01*
X31344Y-29033D01*
X31341Y-29002D01*
X31343Y-28972D01*
X31352Y-28942D01*
X31366Y-28914D01*
X31385Y-28889D01*
X31409Y-28869D01*
X31436Y-28854D01*
X31466Y-28844D01*
X31497Y-28841D01*
X31527Y-28843D01*
X31557Y-28851D01*
X31585Y-28865D01*
X31610Y-28885D01*
X31630Y-28908D01*
X31646Y-28935D01*
X31656Y-28965D01*
X31659Y-28996D01*
X31660Y-29000D01*
X31731Y-42004D02*
X31727Y-42035D01*
X31718Y-42064D01*
X31704Y-42092D01*
X31684Y-42116D01*
X31660Y-42136D01*
X31633Y-42151D01*
X31603Y-42160D01*
X31572Y-42163D01*
X31542Y-42161D01*
X31512Y-42152D01*
X31484Y-42137D01*
X31460Y-42118D01*
X31439Y-42094D01*
X31424Y-42067D01*
X31415Y-42037D01*
X31412Y-42006D01*
X31414Y-41976D01*
X31423Y-41946D01*
X31437Y-41918D01*
X31456Y-41893D01*
X31480Y-41873D01*
X31507Y-41858D01*
X31537Y-41848D01*
X31568Y-41845D01*
X31598Y-41847D01*
X31628Y-41855D01*
X31656Y-41869D01*
X31681Y-41889D01*
X31701Y-41912D01*
X31717Y-41939D01*
X31727Y-41969D01*
X31730Y-42000D01*
X31731Y-42004D01*
X31731Y-45004D02*
X31727Y-45035D01*
X31718Y-45064D01*
X31704Y-45092D01*
X31684Y-45116D01*
X31660Y-45136D01*
X31633Y-45151D01*
X31603Y-45160D01*
X31572Y-45163D01*
X31542Y-45161D01*
X31512Y-45152D01*
X31484Y-45137D01*
X31460Y-45118D01*
X31439Y-45094D01*
X31424Y-45067D01*
X31415Y-45037D01*
X31412Y-45006D01*
X31414Y-44976D01*
X31423Y-44946D01*
X31437Y-44918D01*
X31456Y-44893D01*
X31480Y-44873D01*
X31507Y-44858D01*
X31537Y-44848D01*
X31568Y-44845D01*
X31598Y-44847D01*
X31628Y-44855D01*
X31656Y-44869D01*
X31681Y-44889D01*
X31701Y-44912D01*
X31717Y-44939D01*
X31727Y-44969D01*
X31730Y-45000D01*
X31731Y-45004D01*
X32518Y-33933D02*
X32514Y-33964D01*
X32505Y-33993D01*
X32491Y-34021D01*
X32471Y-34045D01*
X32447Y-34065D01*
X32420Y-34080D01*
X32390Y-34089D01*
X32359Y-34092D01*
X32329Y-34090D01*
X32299Y-34081D01*
X32271Y-34066D01*
X32247Y-34047D01*
X32226Y-34023D01*
X32211Y-33996D01*
X32202Y-33966D01*
X32199Y-33935D01*
X32201Y-33905D01*
X32210Y-33875D01*
X32224Y-33847D01*
X32243Y-33822D01*
X32267Y-33802D01*
X32294Y-33787D01*
X32324Y-33777D01*
X32355Y-33774D01*
X32385Y-33776D01*
X32415Y-33784D01*
X32443Y-33798D01*
X32468Y-33818D01*
X32488Y-33841D01*
X32504Y-33868D01*
X32514Y-33898D01*
X32517Y-33929D01*
X32518Y-33933D01*
X32518Y-36933D02*
X32514Y-36964D01*
X32505Y-36993D01*
X32491Y-37021D01*
X32471Y-37045D01*
X32447Y-37065D01*
X32420Y-37080D01*
X32390Y-37089D01*
X32359Y-37092D01*
X32329Y-37090D01*
X32299Y-37081D01*
X32271Y-37066D01*
X32247Y-37047D01*
X32226Y-37023D01*
X32211Y-36996D01*
X32202Y-36966D01*
X32199Y-36935D01*
X32201Y-36905D01*
X32210Y-36875D01*
X32224Y-36847D01*
X32243Y-36822D01*
X32267Y-36802D01*
X32294Y-36787D01*
X32324Y-36777D01*
X32355Y-36774D01*
X32385Y-36776D01*
X32415Y-36784D01*
X32443Y-36798D01*
X32468Y-36818D01*
X32488Y-36841D01*
X32504Y-36868D01*
X32514Y-36898D01*
X32517Y-36929D01*
X32518Y-36933D01*
X32660Y-23000D02*
X32656Y-23031D01*
X32647Y-23060D01*
X32633Y-23088D01*
X32613Y-23112D01*
X32589Y-23132D01*
X32562Y-23147D01*
X32532Y-23156D01*
X32501Y-23159D01*
X32471Y-23157D01*
X32441Y-23148D01*
X32413Y-23133D01*
X32389Y-23114D01*
X32368Y-23090D01*
X32353Y-23063D01*
X32344Y-23033D01*
X32341Y-23002D01*
X32343Y-22972D01*
X32352Y-22942D01*
X32366Y-22914D01*
X32385Y-22889D01*
X32409Y-22869D01*
X32436Y-22854D01*
X32466Y-22844D01*
X32497Y-22841D01*
X32527Y-22843D01*
X32557Y-22851D01*
X32585Y-22865D01*
X32610Y-22885D01*
X32630Y-22908D01*
X32646Y-22935D01*
X32656Y-22965D01*
X32659Y-22996D01*
X32660Y-23000D01*
X32660Y-29000D02*
X32656Y-29031D01*
X32647Y-29060D01*
X32633Y-29088D01*
X32613Y-29112D01*
X32589Y-29132D01*
X32562Y-29147D01*
X32532Y-29156D01*
X32501Y-29159D01*
X32471Y-29157D01*
X32441Y-29148D01*
X32413Y-29133D01*
X32389Y-29114D01*
X32368Y-29090D01*
X32353Y-29063D01*
X32344Y-29033D01*
X32341Y-29002D01*
X32343Y-28972D01*
X32352Y-28942D01*
X32366Y-28914D01*
X32385Y-28889D01*
X32409Y-28869D01*
X32436Y-28854D01*
X32466Y-28844D01*
X32497Y-28841D01*
X32527Y-28843D01*
X32557Y-28851D01*
X32585Y-28865D01*
X32610Y-28885D01*
X32630Y-28908D01*
X32646Y-28935D01*
X32656Y-28965D01*
X32659Y-28996D01*
X32660Y-29000D01*
X32731Y-42004D02*
X32727Y-42035D01*
X32718Y-42064D01*
X32704Y-42092D01*
X32684Y-42116D01*
X32660Y-42136D01*
X32633Y-42151D01*
X32603Y-42160D01*
X32572Y-42163D01*
X32542Y-42161D01*
X32512Y-42152D01*
X32484Y-42137D01*
X32460Y-42118D01*
X32439Y-42094D01*
X32424Y-42067D01*
X32415Y-42037D01*
X32412Y-42006D01*
X32414Y-41976D01*
X32423Y-41946D01*
X32437Y-41918D01*
X32456Y-41893D01*
X32480Y-41873D01*
X32507Y-41858D01*
X32537Y-41848D01*
X32568Y-41845D01*
X32598Y-41847D01*
X32628Y-41855D01*
X32656Y-41869D01*
X32681Y-41889D01*
X32701Y-41912D01*
X32717Y-41939D01*
X32727Y-41969D01*
X32730Y-42000D01*
X32731Y-42004D01*
X32731Y-45004D02*
X32727Y-45035D01*
X32718Y-45064D01*
X32704Y-45092D01*
X32684Y-45116D01*
X32660Y-45136D01*
X32633Y-45151D01*
X32603Y-45160D01*
X32572Y-45163D01*
X32542Y-45161D01*
X32512Y-45152D01*
X32484Y-45137D01*
X32460Y-45118D01*
X32439Y-45094D01*
X32424Y-45067D01*
X32415Y-45037D01*
X32412Y-45006D01*
X32414Y-44976D01*
X32423Y-44946D01*
X32437Y-44918D01*
X32456Y-44893D01*
X32480Y-44873D01*
X32507Y-44858D01*
X32537Y-44848D01*
X32568Y-44845D01*
X32598Y-44847D01*
X32628Y-44855D01*
X32656Y-44869D01*
X32681Y-44889D01*
X32701Y-44912D01*
X32717Y-44939D01*
X32727Y-44969D01*
X32730Y-45000D01*
X32731Y-45004D01*
X32837Y-31390D02*
X32833Y-31421D01*
X32824Y-31450D01*
X32810Y-31478D01*
X32790Y-31502D01*
X32766Y-31522D01*
X32739Y-31537D01*
X32709Y-31546D01*
X32678Y-31549D01*
X32648Y-31547D01*
X32618Y-31538D01*
X32590Y-31523D01*
X32566Y-31504D01*
X32545Y-31480D01*
X32530Y-31453D01*
X32521Y-31423D01*
X32518Y-31392D01*
X32520Y-31362D01*
X32529Y-31332D01*
X32543Y-31304D01*
X32562Y-31279D01*
X32586Y-31259D01*
X32613Y-31244D01*
X32643Y-31234D01*
X32674Y-31231D01*
X32704Y-31233D01*
X32734Y-31241D01*
X32762Y-31255D01*
X32787Y-31275D01*
X32807Y-31298D01*
X32823Y-31325D01*
X32833Y-31355D01*
X32836Y-31386D01*
X32837Y-31390D01*
X32837Y-32390D02*
X32833Y-32421D01*
X32824Y-32450D01*
X32810Y-32478D01*
X32790Y-32502D01*
X32766Y-32522D01*
X32739Y-32537D01*
X32709Y-32546D01*
X32678Y-32549D01*
X32648Y-32547D01*
X32618Y-32538D01*
X32590Y-32523D01*
X32566Y-32504D01*
X32545Y-32480D01*
X32530Y-32453D01*
X32521Y-32423D01*
X32518Y-32392D01*
X32520Y-32362D01*
X32529Y-32332D01*
X32543Y-32304D01*
X32562Y-32279D01*
X32586Y-32259D01*
X32613Y-32244D01*
X32643Y-32234D01*
X32674Y-32231D01*
X32704Y-32233D01*
X32734Y-32241D01*
X32762Y-32255D01*
X32787Y-32275D01*
X32807Y-32298D01*
X32823Y-32325D01*
X32833Y-32355D01*
X32836Y-32386D01*
X32837Y-32390D01*
X33518Y-33933D02*
X33514Y-33964D01*
X33505Y-33993D01*
X33491Y-34021D01*
X33471Y-34045D01*
X33447Y-34065D01*
X33420Y-34080D01*
X33390Y-34089D01*
X33359Y-34092D01*
X33329Y-34090D01*
X33299Y-34081D01*
X33271Y-34066D01*
X33247Y-34047D01*
X33226Y-34023D01*
X33211Y-33996D01*
X33202Y-33966D01*
X33199Y-33935D01*
X33201Y-33905D01*
X33210Y-33875D01*
X33224Y-33847D01*
X33243Y-33822D01*
X33267Y-33802D01*
X33294Y-33787D01*
X33324Y-33777D01*
X33355Y-33774D01*
X33385Y-33776D01*
X33415Y-33784D01*
X33443Y-33798D01*
X33468Y-33818D01*
X33488Y-33841D01*
X33504Y-33868D01*
X33514Y-33898D01*
X33517Y-33929D01*
X33518Y-33933D01*
X33518Y-36933D02*
X33514Y-36964D01*
X33505Y-36993D01*
X33491Y-37021D01*
X33471Y-37045D01*
X33447Y-37065D01*
X33420Y-37080D01*
X33390Y-37089D01*
X33359Y-37092D01*
X33329Y-37090D01*
X33299Y-37081D01*
X33271Y-37066D01*
X33247Y-37047D01*
X33226Y-37023D01*
X33211Y-36996D01*
X33202Y-36966D01*
X33199Y-36935D01*
X33201Y-36905D01*
X33210Y-36875D01*
X33224Y-36847D01*
X33243Y-36822D01*
X33267Y-36802D01*
X33294Y-36787D01*
X33324Y-36777D01*
X33355Y-36774D01*
X33385Y-36776D01*
X33415Y-36784D01*
X33443Y-36798D01*
X33468Y-36818D01*
X33488Y-36841D01*
X33504Y-36868D01*
X33514Y-36898D01*
X33517Y-36929D01*
X33518Y-36933D01*
X33625Y-38870D02*
X33621Y-38901D01*
X33612Y-38930D01*
X33598Y-38958D01*
X33578Y-38982D01*
X33554Y-39002D01*
X33527Y-39017D01*
X33497Y-39026D01*
X33466Y-39029D01*
X33436Y-39027D01*
X33406Y-39018D01*
X33378Y-39003D01*
X33354Y-38984D01*
X33333Y-38960D01*
X33318Y-38933D01*
X33309Y-38903D01*
X33306Y-38872D01*
X33308Y-38842D01*
X33317Y-38812D01*
X33331Y-38784D01*
X33350Y-38759D01*
X33374Y-38739D01*
X33401Y-38724D01*
X33431Y-38714D01*
X33462Y-38711D01*
X33492Y-38713D01*
X33522Y-38721D01*
X33550Y-38735D01*
X33575Y-38755D01*
X33595Y-38778D01*
X33611Y-38805D01*
X33621Y-38835D01*
X33624Y-38866D01*
X33625Y-38870D01*
X33625Y-39870D02*
X33621Y-39901D01*
X33612Y-39930D01*
X33598Y-39958D01*
X33578Y-39982D01*
X33554Y-40002D01*
X33527Y-40017D01*
X33497Y-40026D01*
X33466Y-40029D01*
X33436Y-40027D01*
X33406Y-40018D01*
X33378Y-40003D01*
X33354Y-39984D01*
X33333Y-39960D01*
X33318Y-39933D01*
X33309Y-39903D01*
X33306Y-39872D01*
X33308Y-39842D01*
X33317Y-39812D01*
X33331Y-39784D01*
X33350Y-39759D01*
X33374Y-39739D01*
X33401Y-39724D01*
X33431Y-39714D01*
X33462Y-39711D01*
X33492Y-39713D01*
X33522Y-39721D01*
X33550Y-39735D01*
X33575Y-39755D01*
X33595Y-39778D01*
X33611Y-39805D01*
X33621Y-39835D01*
X33624Y-39866D01*
X33625Y-39870D01*
X33660Y-23000D02*
X33656Y-23031D01*
X33647Y-23060D01*
X33633Y-23088D01*
X33613Y-23112D01*
X33589Y-23132D01*
X33562Y-23147D01*
X33532Y-23156D01*
X33501Y-23159D01*
X33471Y-23157D01*
X33441Y-23148D01*
X33413Y-23133D01*
X33389Y-23114D01*
X33368Y-23090D01*
X33353Y-23063D01*
X33344Y-23033D01*
X33341Y-23002D01*
X33343Y-22972D01*
X33352Y-22942D01*
X33366Y-22914D01*
X33385Y-22889D01*
X33409Y-22869D01*
X33436Y-22854D01*
X33466Y-22844D01*
X33497Y-22841D01*
X33527Y-22843D01*
X33557Y-22851D01*
X33585Y-22865D01*
X33610Y-22885D01*
X33630Y-22908D01*
X33646Y-22935D01*
X33656Y-22965D01*
X33659Y-22996D01*
X33660Y-23000D01*
X33660Y-29000D02*
X33656Y-29031D01*
X33647Y-29060D01*
X33633Y-29088D01*
X33613Y-29112D01*
X33589Y-29132D01*
X33562Y-29147D01*
X33532Y-29156D01*
X33501Y-29159D01*
X33471Y-29157D01*
X33441Y-29148D01*
X33413Y-29133D01*
X33389Y-29114D01*
X33368Y-29090D01*
X33353Y-29063D01*
X33344Y-29033D01*
X33341Y-29002D01*
X33343Y-28972D01*
X33352Y-28942D01*
X33366Y-28914D01*
X33385Y-28889D01*
X33409Y-28869D01*
X33436Y-28854D01*
X33466Y-28844D01*
X33497Y-28841D01*
X33527Y-28843D01*
X33557Y-28851D01*
X33585Y-28865D01*
X33610Y-28885D01*
X33630Y-28908D01*
X33646Y-28935D01*
X33656Y-28965D01*
X33659Y-28996D01*
X33660Y-29000D01*
X33731Y-42004D02*
X33727Y-42035D01*
X33718Y-42064D01*
X33704Y-42092D01*
X33684Y-42116D01*
X33660Y-42136D01*
X33633Y-42151D01*
X33603Y-42160D01*
X33572Y-42163D01*
X33542Y-42161D01*
X33512Y-42152D01*
X33484Y-42137D01*
X33460Y-42118D01*
X33439Y-42094D01*
X33424Y-42067D01*
X33415Y-42037D01*
X33412Y-42006D01*
X33414Y-41976D01*
X33423Y-41946D01*
X33437Y-41918D01*
X33456Y-41893D01*
X33480Y-41873D01*
X33507Y-41858D01*
X33537Y-41848D01*
X33568Y-41845D01*
X33598Y-41847D01*
X33628Y-41855D01*
X33656Y-41869D01*
X33681Y-41889D01*
X33701Y-41912D01*
X33717Y-41939D01*
X33727Y-41969D01*
X33730Y-42000D01*
X33731Y-42004D01*
X33731Y-45004D02*
X33727Y-45035D01*
X33718Y-45064D01*
X33704Y-45092D01*
X33684Y-45116D01*
X33660Y-45136D01*
X33633Y-45151D01*
X33603Y-45160D01*
X33572Y-45163D01*
X33542Y-45161D01*
X33512Y-45152D01*
X33484Y-45137D01*
X33460Y-45118D01*
X33439Y-45094D01*
X33424Y-45067D01*
X33415Y-45037D01*
X33412Y-45006D01*
X33414Y-44976D01*
X33423Y-44946D01*
X33437Y-44918D01*
X33456Y-44893D01*
X33480Y-44873D01*
X33507Y-44858D01*
X33537Y-44848D01*
X33568Y-44845D01*
X33598Y-44847D01*
X33628Y-44855D01*
X33656Y-44869D01*
X33681Y-44889D01*
X33701Y-44912D01*
X33717Y-44939D01*
X33727Y-44969D01*
X33730Y-45000D01*
X33731Y-45004D01*
X34412Y-31390D02*
X34408Y-31421D01*
X34399Y-31450D01*
X34385Y-31478D01*
X34365Y-31502D01*
X34341Y-31522D01*
X34314Y-31537D01*
X34284Y-31546D01*
X34253Y-31549D01*
X34223Y-31547D01*
X34193Y-31538D01*
X34165Y-31523D01*
X34141Y-31504D01*
X34120Y-31480D01*
X34105Y-31453D01*
X34096Y-31423D01*
X34093Y-31392D01*
X34095Y-31362D01*
X34104Y-31332D01*
X34118Y-31304D01*
X34137Y-31279D01*
X34161Y-31259D01*
X34188Y-31244D01*
X34218Y-31234D01*
X34249Y-31231D01*
X34279Y-31233D01*
X34309Y-31241D01*
X34337Y-31255D01*
X34362Y-31275D01*
X34382Y-31298D01*
X34398Y-31325D01*
X34408Y-31355D01*
X34411Y-31386D01*
X34412Y-31390D01*
X34412Y-32390D02*
X34408Y-32421D01*
X34399Y-32450D01*
X34385Y-32478D01*
X34365Y-32502D01*
X34341Y-32522D01*
X34314Y-32537D01*
X34284Y-32546D01*
X34253Y-32549D01*
X34223Y-32547D01*
X34193Y-32538D01*
X34165Y-32523D01*
X34141Y-32504D01*
X34120Y-32480D01*
X34105Y-32453D01*
X34096Y-32423D01*
X34093Y-32392D01*
X34095Y-32362D01*
X34104Y-32332D01*
X34118Y-32304D01*
X34137Y-32279D01*
X34161Y-32259D01*
X34188Y-32244D01*
X34218Y-32234D01*
X34249Y-32231D01*
X34279Y-32233D01*
X34309Y-32241D01*
X34337Y-32255D01*
X34362Y-32275D01*
X34382Y-32298D01*
X34398Y-32325D01*
X34408Y-32355D01*
X34411Y-32386D01*
X34412Y-32390D01*
X34518Y-33933D02*
X34514Y-33964D01*
X34505Y-33993D01*
X34491Y-34021D01*
X34471Y-34045D01*
X34447Y-34065D01*
X34420Y-34080D01*
X34390Y-34089D01*
X34359Y-34092D01*
X34329Y-34090D01*
X34299Y-34081D01*
X34271Y-34066D01*
X34247Y-34047D01*
X34226Y-34023D01*
X34211Y-33996D01*
X34202Y-33966D01*
X34199Y-33935D01*
X34201Y-33905D01*
X34210Y-33875D01*
X34224Y-33847D01*
X34243Y-33822D01*
X34267Y-33802D01*
X34294Y-33787D01*
X34324Y-33777D01*
X34355Y-33774D01*
X34385Y-33776D01*
X34415Y-33784D01*
X34443Y-33798D01*
X34468Y-33818D01*
X34488Y-33841D01*
X34504Y-33868D01*
X34514Y-33898D01*
X34517Y-33929D01*
X34518Y-33933D01*
X34518Y-36933D02*
X34514Y-36964D01*
X34505Y-36993D01*
X34491Y-37021D01*
X34471Y-37045D01*
X34447Y-37065D01*
X34420Y-37080D01*
X34390Y-37089D01*
X34359Y-37092D01*
X34329Y-37090D01*
X34299Y-37081D01*
X34271Y-37066D01*
X34247Y-37047D01*
X34226Y-37023D01*
X34211Y-36996D01*
X34202Y-36966D01*
X34199Y-36935D01*
X34201Y-36905D01*
X34210Y-36875D01*
X34224Y-36847D01*
X34243Y-36822D01*
X34267Y-36802D01*
X34294Y-36787D01*
X34324Y-36777D01*
X34355Y-36774D01*
X34385Y-36776D01*
X34415Y-36784D01*
X34443Y-36798D01*
X34468Y-36818D01*
X34488Y-36841D01*
X34504Y-36868D01*
X34514Y-36898D01*
X34517Y-36929D01*
X34518Y-36933D01*
X34660Y-23000D02*
X34656Y-23031D01*
X34647Y-23060D01*
X34633Y-23088D01*
X34613Y-23112D01*
X34589Y-23132D01*
X34562Y-23147D01*
X34532Y-23156D01*
X34501Y-23159D01*
X34471Y-23157D01*
X34441Y-23148D01*
X34413Y-23133D01*
X34389Y-23114D01*
X34368Y-23090D01*
X34353Y-23063D01*
X34344Y-23033D01*
X34341Y-23002D01*
X34343Y-22972D01*
X34352Y-22942D01*
X34366Y-22914D01*
X34385Y-22889D01*
X34409Y-22869D01*
X34436Y-22854D01*
X34466Y-22844D01*
X34497Y-22841D01*
X34527Y-22843D01*
X34557Y-22851D01*
X34585Y-22865D01*
X34610Y-22885D01*
X34630Y-22908D01*
X34646Y-22935D01*
X34656Y-22965D01*
X34659Y-22996D01*
X34660Y-23000D01*
X34660Y-29000D02*
X34656Y-29031D01*
X34647Y-29060D01*
X34633Y-29088D01*
X34613Y-29112D01*
X34589Y-29132D01*
X34562Y-29147D01*
X34532Y-29156D01*
X34501Y-29159D01*
X34471Y-29157D01*
X34441Y-29148D01*
X34413Y-29133D01*
X34389Y-29114D01*
X34368Y-29090D01*
X34353Y-29063D01*
X34344Y-29033D01*
X34341Y-29002D01*
X34343Y-28972D01*
X34352Y-28942D01*
X34366Y-28914D01*
X34385Y-28889D01*
X34409Y-28869D01*
X34436Y-28854D01*
X34466Y-28844D01*
X34497Y-28841D01*
X34527Y-28843D01*
X34557Y-28851D01*
X34585Y-28865D01*
X34610Y-28885D01*
X34630Y-28908D01*
X34646Y-28935D01*
X34656Y-28965D01*
X34659Y-28996D01*
X34660Y-29000D01*
X34731Y-42004D02*
X34727Y-42035D01*
X34718Y-42064D01*
X34704Y-42092D01*
X34684Y-42116D01*
X34660Y-42136D01*
X34633Y-42151D01*
X34603Y-42160D01*
X34572Y-42163D01*
X34542Y-42161D01*
X34512Y-42152D01*
X34484Y-42137D01*
X34460Y-42118D01*
X34439Y-42094D01*
X34424Y-42067D01*
X34415Y-42037D01*
X34412Y-42006D01*
X34414Y-41976D01*
X34423Y-41946D01*
X34437Y-41918D01*
X34456Y-41893D01*
X34480Y-41873D01*
X34507Y-41858D01*
X34537Y-41848D01*
X34568Y-41845D01*
X34598Y-41847D01*
X34628Y-41855D01*
X34656Y-41869D01*
X34681Y-41889D01*
X34701Y-41912D01*
X34717Y-41939D01*
X34727Y-41969D01*
X34730Y-42000D01*
X34731Y-42004D01*
X34731Y-45004D02*
X34727Y-45035D01*
X34718Y-45064D01*
X34704Y-45092D01*
X34684Y-45116D01*
X34660Y-45136D01*
X34633Y-45151D01*
X34603Y-45160D01*
X34572Y-45163D01*
X34542Y-45161D01*
X34512Y-45152D01*
X34484Y-45137D01*
X34460Y-45118D01*
X34439Y-45094D01*
X34424Y-45067D01*
X34415Y-45037D01*
X34412Y-45006D01*
X34414Y-44976D01*
X34423Y-44946D01*
X34437Y-44918D01*
X34456Y-44893D01*
X34480Y-44873D01*
X34507Y-44858D01*
X34537Y-44848D01*
X34568Y-44845D01*
X34598Y-44847D01*
X34628Y-44855D01*
X34656Y-44869D01*
X34681Y-44889D01*
X34701Y-44912D01*
X34717Y-44939D01*
X34727Y-44969D01*
X34730Y-45000D01*
X34731Y-45004D01*
X35518Y-33933D02*
X35514Y-33964D01*
X35505Y-33993D01*
X35491Y-34021D01*
X35471Y-34045D01*
X35447Y-34065D01*
X35420Y-34080D01*
X35390Y-34089D01*
X35359Y-34092D01*
X35329Y-34090D01*
X35299Y-34081D01*
X35271Y-34066D01*
X35247Y-34047D01*
X35226Y-34023D01*
X35211Y-33996D01*
X35202Y-33966D01*
X35199Y-33935D01*
X35201Y-33905D01*
X35210Y-33875D01*
X35224Y-33847D01*
X35243Y-33822D01*
X35267Y-33802D01*
X35294Y-33787D01*
X35324Y-33777D01*
X35355Y-33774D01*
X35385Y-33776D01*
X35415Y-33784D01*
X35443Y-33798D01*
X35468Y-33818D01*
X35488Y-33841D01*
X35504Y-33868D01*
X35514Y-33898D01*
X35517Y-33929D01*
X35518Y-33933D01*
X35518Y-36933D02*
X35514Y-36964D01*
X35505Y-36993D01*
X35491Y-37021D01*
X35471Y-37045D01*
X35447Y-37065D01*
X35420Y-37080D01*
X35390Y-37089D01*
X35359Y-37092D01*
X35329Y-37090D01*
X35299Y-37081D01*
X35271Y-37066D01*
X35247Y-37047D01*
X35226Y-37023D01*
X35211Y-36996D01*
X35202Y-36966D01*
X35199Y-36935D01*
X35201Y-36905D01*
X35210Y-36875D01*
X35224Y-36847D01*
X35243Y-36822D01*
X35267Y-36802D01*
X35294Y-36787D01*
X35324Y-36777D01*
X35355Y-36774D01*
X35385Y-36776D01*
X35415Y-36784D01*
X35443Y-36798D01*
X35468Y-36818D01*
X35488Y-36841D01*
X35504Y-36868D01*
X35514Y-36898D01*
X35517Y-36929D01*
X35518Y-36933D01*
X35660Y-23000D02*
X35656Y-23031D01*
X35647Y-23060D01*
X35633Y-23088D01*
X35613Y-23112D01*
X35589Y-23132D01*
X35562Y-23147D01*
X35532Y-23156D01*
X35501Y-23159D01*
X35471Y-23157D01*
X35441Y-23148D01*
X35413Y-23133D01*
X35389Y-23114D01*
X35368Y-23090D01*
X35353Y-23063D01*
X35344Y-23033D01*
X35341Y-23002D01*
X35343Y-22972D01*
X35352Y-22942D01*
X35366Y-22914D01*
X35385Y-22889D01*
X35409Y-22869D01*
X35436Y-22854D01*
X35466Y-22844D01*
X35497Y-22841D01*
X35527Y-22843D01*
X35557Y-22851D01*
X35585Y-22865D01*
X35610Y-22885D01*
X35630Y-22908D01*
X35646Y-22935D01*
X35656Y-22965D01*
X35659Y-22996D01*
X35660Y-23000D01*
X35660Y-29000D02*
X35656Y-29031D01*
X35647Y-29060D01*
X35633Y-29088D01*
X35613Y-29112D01*
X35589Y-29132D01*
X35562Y-29147D01*
X35532Y-29156D01*
X35501Y-29159D01*
X35471Y-29157D01*
X35441Y-29148D01*
X35413Y-29133D01*
X35389Y-29114D01*
X35368Y-29090D01*
X35353Y-29063D01*
X35344Y-29033D01*
X35341Y-29002D01*
X35343Y-28972D01*
X35352Y-28942D01*
X35366Y-28914D01*
X35385Y-28889D01*
X35409Y-28869D01*
X35436Y-28854D01*
X35466Y-28844D01*
X35497Y-28841D01*
X35527Y-28843D01*
X35557Y-28851D01*
X35585Y-28865D01*
X35610Y-28885D01*
X35630Y-28908D01*
X35646Y-28935D01*
X35656Y-28965D01*
X35659Y-28996D01*
X35660Y-29000D01*
X35987Y-31390D02*
X35983Y-31421D01*
X35974Y-31450D01*
X35960Y-31478D01*
X35940Y-31502D01*
X35916Y-31522D01*
X35889Y-31537D01*
X35859Y-31546D01*
X35828Y-31549D01*
X35798Y-31547D01*
X35768Y-31538D01*
X35740Y-31523D01*
X35716Y-31504D01*
X35695Y-31480D01*
X35680Y-31453D01*
X35671Y-31423D01*
X35668Y-31392D01*
X35670Y-31362D01*
X35679Y-31332D01*
X35693Y-31304D01*
X35712Y-31279D01*
X35736Y-31259D01*
X35763Y-31244D01*
X35793Y-31234D01*
X35824Y-31231D01*
X35854Y-31233D01*
X35884Y-31241D01*
X35912Y-31255D01*
X35937Y-31275D01*
X35957Y-31298D01*
X35973Y-31325D01*
X35983Y-31355D01*
X35986Y-31386D01*
X35987Y-31390D01*
X35987Y-32390D02*
X35983Y-32421D01*
X35974Y-32450D01*
X35960Y-32478D01*
X35940Y-32502D01*
X35916Y-32522D01*
X35889Y-32537D01*
X35859Y-32546D01*
X35828Y-32549D01*
X35798Y-32547D01*
X35768Y-32538D01*
X35740Y-32523D01*
X35716Y-32504D01*
X35695Y-32480D01*
X35680Y-32453D01*
X35671Y-32423D01*
X35668Y-32392D01*
X35670Y-32362D01*
X35679Y-32332D01*
X35693Y-32304D01*
X35712Y-32279D01*
X35736Y-32259D01*
X35763Y-32244D01*
X35793Y-32234D01*
X35824Y-32231D01*
X35854Y-32233D01*
X35884Y-32241D01*
X35912Y-32255D01*
X35937Y-32275D01*
X35957Y-32298D01*
X35973Y-32325D01*
X35983Y-32355D01*
X35986Y-32386D01*
X35987Y-32390D01*
X36455Y-13386D02*
X36451Y-13417D01*
X36442Y-13446D01*
X36428Y-13474D01*
X36408Y-13498D01*
X36384Y-13518D01*
X36357Y-13533D01*
X36327Y-13542D01*
X36296Y-13545D01*
X36266Y-13543D01*
X36236Y-13534D01*
X36208Y-13519D01*
X36184Y-13500D01*
X36163Y-13476D01*
X36148Y-13449D01*
X36139Y-13419D01*
X36136Y-13388D01*
X36138Y-13358D01*
X36147Y-13328D01*
X36161Y-13300D01*
X36180Y-13275D01*
X36204Y-13255D01*
X36231Y-13240D01*
X36261Y-13230D01*
X36292Y-13227D01*
X36322Y-13229D01*
X36352Y-13237D01*
X36380Y-13251D01*
X36405Y-13271D01*
X36425Y-13294D01*
X36441Y-13321D01*
X36451Y-13351D01*
X36454Y-13382D01*
X36455Y-13386D01*
X36455Y-14961D02*
X36451Y-14992D01*
X36442Y-15021D01*
X36428Y-15049D01*
X36408Y-15073D01*
X36384Y-15093D01*
X36357Y-15108D01*
X36327Y-15117D01*
X36296Y-15120D01*
X36266Y-15118D01*
X36236Y-15109D01*
X36208Y-15094D01*
X36184Y-15075D01*
X36163Y-15051D01*
X36148Y-15024D01*
X36139Y-14994D01*
X36136Y-14963D01*
X36138Y-14933D01*
X36147Y-14903D01*
X36161Y-14875D01*
X36180Y-14850D01*
X36204Y-14830D01*
X36231Y-14815D01*
X36261Y-14805D01*
X36292Y-14802D01*
X36322Y-14804D01*
X36352Y-14812D01*
X36380Y-14826D01*
X36405Y-14846D01*
X36425Y-14869D01*
X36441Y-14896D01*
X36451Y-14926D01*
X36454Y-14957D01*
X36455Y-14961D01*
X36660Y-23000D02*
X36656Y-23031D01*
X36647Y-23060D01*
X36633Y-23088D01*
X36613Y-23112D01*
X36589Y-23132D01*
X36562Y-23147D01*
X36532Y-23156D01*
X36501Y-23159D01*
X36471Y-23157D01*
X36441Y-23148D01*
X36413Y-23133D01*
X36389Y-23114D01*
X36368Y-23090D01*
X36353Y-23063D01*
X36344Y-23033D01*
X36341Y-23002D01*
X36343Y-22972D01*
X36352Y-22942D01*
X36366Y-22914D01*
X36385Y-22889D01*
X36409Y-22869D01*
X36436Y-22854D01*
X36466Y-22844D01*
X36497Y-22841D01*
X36527Y-22843D01*
X36557Y-22851D01*
X36585Y-22865D01*
X36610Y-22885D01*
X36630Y-22908D01*
X36646Y-22935D01*
X36656Y-22965D01*
X36659Y-22996D01*
X36660Y-23000D01*
X36660Y-29000D02*
X36656Y-29031D01*
X36647Y-29060D01*
X36633Y-29088D01*
X36613Y-29112D01*
X36589Y-29132D01*
X36562Y-29147D01*
X36532Y-29156D01*
X36501Y-29159D01*
X36471Y-29157D01*
X36441Y-29148D01*
X36413Y-29133D01*
X36389Y-29114D01*
X36368Y-29090D01*
X36353Y-29063D01*
X36344Y-29033D01*
X36341Y-29002D01*
X36343Y-28972D01*
X36352Y-28942D01*
X36366Y-28914D01*
X36385Y-28889D01*
X36409Y-28869D01*
X36436Y-28854D01*
X36466Y-28844D01*
X36497Y-28841D01*
X36527Y-28843D01*
X36557Y-28851D01*
X36585Y-28865D01*
X36610Y-28885D01*
X36630Y-28908D01*
X36646Y-28935D01*
X36656Y-28965D01*
X36659Y-28996D01*
X36660Y-29000D01*
X37636Y-33933D02*
X37632Y-33964D01*
X37623Y-33993D01*
X37609Y-34021D01*
X37589Y-34045D01*
X37565Y-34065D01*
X37538Y-34080D01*
X37508Y-34089D01*
X37477Y-34092D01*
X37447Y-34090D01*
X37417Y-34081D01*
X37389Y-34066D01*
X37365Y-34047D01*
X37344Y-34023D01*
X37329Y-33996D01*
X37320Y-33966D01*
X37317Y-33935D01*
X37319Y-33905D01*
X37328Y-33875D01*
X37342Y-33847D01*
X37361Y-33822D01*
X37385Y-33802D01*
X37412Y-33787D01*
X37442Y-33777D01*
X37473Y-33774D01*
X37503Y-33776D01*
X37533Y-33784D01*
X37561Y-33798D01*
X37586Y-33818D01*
X37606Y-33841D01*
X37622Y-33868D01*
X37632Y-33898D01*
X37635Y-33929D01*
X37636Y-33933D01*
X37636Y-36933D02*
X37632Y-36964D01*
X37623Y-36993D01*
X37609Y-37021D01*
X37589Y-37045D01*
X37565Y-37065D01*
X37538Y-37080D01*
X37508Y-37089D01*
X37477Y-37092D01*
X37447Y-37090D01*
X37417Y-37081D01*
X37389Y-37066D01*
X37365Y-37047D01*
X37344Y-37023D01*
X37329Y-36996D01*
X37320Y-36966D01*
X37317Y-36935D01*
X37319Y-36905D01*
X37328Y-36875D01*
X37342Y-36847D01*
X37361Y-36822D01*
X37385Y-36802D01*
X37412Y-36787D01*
X37442Y-36777D01*
X37473Y-36774D01*
X37503Y-36776D01*
X37533Y-36784D01*
X37561Y-36798D01*
X37586Y-36818D01*
X37606Y-36841D01*
X37622Y-36868D01*
X37632Y-36898D01*
X37635Y-36929D01*
X37636Y-36933D01*
X37660Y-23000D02*
X37656Y-23031D01*
X37647Y-23060D01*
X37633Y-23088D01*
X37613Y-23112D01*
X37589Y-23132D01*
X37562Y-23147D01*
X37532Y-23156D01*
X37501Y-23159D01*
X37471Y-23157D01*
X37441Y-23148D01*
X37413Y-23133D01*
X37389Y-23114D01*
X37368Y-23090D01*
X37353Y-23063D01*
X37344Y-23033D01*
X37341Y-23002D01*
X37343Y-22972D01*
X37352Y-22942D01*
X37366Y-22914D01*
X37385Y-22889D01*
X37409Y-22869D01*
X37436Y-22854D01*
X37466Y-22844D01*
X37497Y-22841D01*
X37527Y-22843D01*
X37557Y-22851D01*
X37585Y-22865D01*
X37610Y-22885D01*
X37630Y-22908D01*
X37646Y-22935D01*
X37656Y-22965D01*
X37659Y-22996D01*
X37660Y-23000D01*
X37660Y-29000D02*
X37656Y-29031D01*
X37647Y-29060D01*
X37633Y-29088D01*
X37613Y-29112D01*
X37589Y-29132D01*
X37562Y-29147D01*
X37532Y-29156D01*
X37501Y-29159D01*
X37471Y-29157D01*
X37441Y-29148D01*
X37413Y-29133D01*
X37389Y-29114D01*
X37368Y-29090D01*
X37353Y-29063D01*
X37344Y-29033D01*
X37341Y-29002D01*
X37343Y-28972D01*
X37352Y-28942D01*
X37366Y-28914D01*
X37385Y-28889D01*
X37409Y-28869D01*
X37436Y-28854D01*
X37466Y-28844D01*
X37497Y-28841D01*
X37527Y-28843D01*
X37557Y-28851D01*
X37585Y-28865D01*
X37610Y-28885D01*
X37630Y-28908D01*
X37646Y-28935D01*
X37656Y-28965D01*
X37659Y-28996D01*
X37660Y-29000D01*
X38636Y-33933D02*
X38632Y-33964D01*
X38623Y-33993D01*
X38609Y-34021D01*
X38589Y-34045D01*
X38565Y-34065D01*
X38538Y-34080D01*
X38508Y-34089D01*
X38477Y-34092D01*
X38447Y-34090D01*
X38417Y-34081D01*
X38389Y-34066D01*
X38365Y-34047D01*
X38344Y-34023D01*
X38329Y-33996D01*
X38320Y-33966D01*
X38317Y-33935D01*
X38319Y-33905D01*
X38328Y-33875D01*
X38342Y-33847D01*
X38361Y-33822D01*
X38385Y-33802D01*
X38412Y-33787D01*
X38442Y-33777D01*
X38473Y-33774D01*
X38503Y-33776D01*
X38533Y-33784D01*
X38561Y-33798D01*
X38586Y-33818D01*
X38606Y-33841D01*
X38622Y-33868D01*
X38632Y-33898D01*
X38635Y-33929D01*
X38636Y-33933D01*
X38636Y-36933D02*
X38632Y-36964D01*
X38623Y-36993D01*
X38609Y-37021D01*
X38589Y-37045D01*
X38565Y-37065D01*
X38538Y-37080D01*
X38508Y-37089D01*
X38477Y-37092D01*
X38447Y-37090D01*
X38417Y-37081D01*
X38389Y-37066D01*
X38365Y-37047D01*
X38344Y-37023D01*
X38329Y-36996D01*
X38320Y-36966D01*
X38317Y-36935D01*
X38319Y-36905D01*
X38328Y-36875D01*
X38342Y-36847D01*
X38361Y-36822D01*
X38385Y-36802D01*
X38412Y-36787D01*
X38442Y-36777D01*
X38473Y-36774D01*
X38503Y-36776D01*
X38533Y-36784D01*
X38561Y-36798D01*
X38586Y-36818D01*
X38606Y-36841D01*
X38622Y-36868D01*
X38632Y-36898D01*
X38635Y-36929D01*
X38636Y-36933D01*
X38660Y-23000D02*
X38656Y-23031D01*
X38647Y-23060D01*
X38633Y-23088D01*
X38613Y-23112D01*
X38589Y-23132D01*
X38562Y-23147D01*
X38532Y-23156D01*
X38501Y-23159D01*
X38471Y-23157D01*
X38441Y-23148D01*
X38413Y-23133D01*
X38389Y-23114D01*
X38368Y-23090D01*
X38353Y-23063D01*
X38344Y-23033D01*
X38341Y-23002D01*
X38343Y-22972D01*
X38352Y-22942D01*
X38366Y-22914D01*
X38385Y-22889D01*
X38409Y-22869D01*
X38436Y-22854D01*
X38466Y-22844D01*
X38497Y-22841D01*
X38527Y-22843D01*
X38557Y-22851D01*
X38585Y-22865D01*
X38610Y-22885D01*
X38630Y-22908D01*
X38646Y-22935D01*
X38656Y-22965D01*
X38659Y-22996D01*
X38660Y-23000D01*
X38660Y-29000D02*
X38656Y-29031D01*
X38647Y-29060D01*
X38633Y-29088D01*
X38613Y-29112D01*
X38589Y-29132D01*
X38562Y-29147D01*
X38532Y-29156D01*
X38501Y-29159D01*
X38471Y-29157D01*
X38441Y-29148D01*
X38413Y-29133D01*
X38389Y-29114D01*
X38368Y-29090D01*
X38353Y-29063D01*
X38344Y-29033D01*
X38341Y-29002D01*
X38343Y-28972D01*
X38352Y-28942D01*
X38366Y-28914D01*
X38385Y-28889D01*
X38409Y-28869D01*
X38436Y-28854D01*
X38466Y-28844D01*
X38497Y-28841D01*
X38527Y-28843D01*
X38557Y-28851D01*
X38585Y-28865D01*
X38610Y-28885D01*
X38630Y-28908D01*
X38646Y-28935D01*
X38656Y-28965D01*
X38659Y-28996D01*
X38660Y-29000D01*
X38743Y-38870D02*
X38739Y-38901D01*
X38730Y-38930D01*
X38716Y-38958D01*
X38696Y-38982D01*
X38672Y-39002D01*
X38645Y-39017D01*
X38615Y-39026D01*
X38584Y-39029D01*
X38554Y-39027D01*
X38524Y-39018D01*
X38496Y-39003D01*
X38472Y-38984D01*
X38451Y-38960D01*
X38436Y-38933D01*
X38427Y-38903D01*
X38424Y-38872D01*
X38426Y-38842D01*
X38435Y-38812D01*
X38449Y-38784D01*
X38468Y-38759D01*
X38492Y-38739D01*
X38519Y-38724D01*
X38549Y-38714D01*
X38580Y-38711D01*
X38610Y-38713D01*
X38640Y-38721D01*
X38668Y-38735D01*
X38693Y-38755D01*
X38713Y-38778D01*
X38729Y-38805D01*
X38739Y-38835D01*
X38742Y-38866D01*
X38743Y-38870D01*
X38743Y-39870D02*
X38739Y-39901D01*
X38730Y-39930D01*
X38716Y-39958D01*
X38696Y-39982D01*
X38672Y-40002D01*
X38645Y-40017D01*
X38615Y-40026D01*
X38584Y-40029D01*
X38554Y-40027D01*
X38524Y-40018D01*
X38496Y-40003D01*
X38472Y-39984D01*
X38451Y-39960D01*
X38436Y-39933D01*
X38427Y-39903D01*
X38424Y-39872D01*
X38426Y-39842D01*
X38435Y-39812D01*
X38449Y-39784D01*
X38468Y-39759D01*
X38492Y-39739D01*
X38519Y-39724D01*
X38549Y-39714D01*
X38580Y-39711D01*
X38610Y-39713D01*
X38640Y-39721D01*
X38668Y-39735D01*
X38693Y-39755D01*
X38713Y-39778D01*
X38729Y-39805D01*
X38739Y-39835D01*
X38742Y-39866D01*
X38743Y-39870D01*
X39455Y-13386D02*
X39451Y-13417D01*
X39442Y-13446D01*
X39428Y-13474D01*
X39408Y-13498D01*
X39384Y-13518D01*
X39357Y-13533D01*
X39327Y-13542D01*
X39296Y-13545D01*
X39266Y-13543D01*
X39236Y-13534D01*
X39208Y-13519D01*
X39184Y-13500D01*
X39163Y-13476D01*
X39148Y-13449D01*
X39139Y-13419D01*
X39136Y-13388D01*
X39138Y-13358D01*
X39147Y-13328D01*
X39161Y-13300D01*
X39180Y-13275D01*
X39204Y-13255D01*
X39231Y-13240D01*
X39261Y-13230D01*
X39292Y-13227D01*
X39322Y-13229D01*
X39352Y-13237D01*
X39380Y-13251D01*
X39405Y-13271D01*
X39425Y-13294D01*
X39441Y-13321D01*
X39451Y-13351D01*
X39454Y-13382D01*
X39455Y-13386D01*
X39455Y-14961D02*
X39451Y-14992D01*
X39442Y-15021D01*
X39428Y-15049D01*
X39408Y-15073D01*
X39384Y-15093D01*
X39357Y-15108D01*
X39327Y-15117D01*
X39296Y-15120D01*
X39266Y-15118D01*
X39236Y-15109D01*
X39208Y-15094D01*
X39184Y-15075D01*
X39163Y-15051D01*
X39148Y-15024D01*
X39139Y-14994D01*
X39136Y-14963D01*
X39138Y-14933D01*
X39147Y-14903D01*
X39161Y-14875D01*
X39180Y-14850D01*
X39204Y-14830D01*
X39231Y-14815D01*
X39261Y-14805D01*
X39292Y-14802D01*
X39322Y-14804D01*
X39352Y-14812D01*
X39380Y-14826D01*
X39405Y-14846D01*
X39425Y-14869D01*
X39441Y-14896D01*
X39451Y-14926D01*
X39454Y-14957D01*
X39455Y-14961D01*
X39636Y-33933D02*
X39632Y-33964D01*
X39623Y-33993D01*
X39609Y-34021D01*
X39589Y-34045D01*
X39565Y-34065D01*
X39538Y-34080D01*
X39508Y-34089D01*
X39477Y-34092D01*
X39447Y-34090D01*
X39417Y-34081D01*
X39389Y-34066D01*
X39365Y-34047D01*
X39344Y-34023D01*
X39329Y-33996D01*
X39320Y-33966D01*
X39317Y-33935D01*
X39319Y-33905D01*
X39328Y-33875D01*
X39342Y-33847D01*
X39361Y-33822D01*
X39385Y-33802D01*
X39412Y-33787D01*
X39442Y-33777D01*
X39473Y-33774D01*
X39503Y-33776D01*
X39533Y-33784D01*
X39561Y-33798D01*
X39586Y-33818D01*
X39606Y-33841D01*
X39622Y-33868D01*
X39632Y-33898D01*
X39635Y-33929D01*
X39636Y-33933D01*
X39636Y-36933D02*
X39632Y-36964D01*
X39623Y-36993D01*
X39609Y-37021D01*
X39589Y-37045D01*
X39565Y-37065D01*
X39538Y-37080D01*
X39508Y-37089D01*
X39477Y-37092D01*
X39447Y-37090D01*
X39417Y-37081D01*
X39389Y-37066D01*
X39365Y-37047D01*
X39344Y-37023D01*
X39329Y-36996D01*
X39320Y-36966D01*
X39317Y-36935D01*
X39319Y-36905D01*
X39328Y-36875D01*
X39342Y-36847D01*
X39361Y-36822D01*
X39385Y-36802D01*
X39412Y-36787D01*
X39442Y-36777D01*
X39473Y-36774D01*
X39503Y-36776D01*
X39533Y-36784D01*
X39561Y-36798D01*
X39586Y-36818D01*
X39606Y-36841D01*
X39622Y-36868D01*
X39632Y-36898D01*
X39635Y-36929D01*
X39636Y-36933D01*
X39660Y-23000D02*
X39656Y-23031D01*
X39647Y-23060D01*
X39633Y-23088D01*
X39613Y-23112D01*
X39589Y-23132D01*
X39562Y-23147D01*
X39532Y-23156D01*
X39501Y-23159D01*
X39471Y-23157D01*
X39441Y-23148D01*
X39413Y-23133D01*
X39389Y-23114D01*
X39368Y-23090D01*
X39353Y-23063D01*
X39344Y-23033D01*
X39341Y-23002D01*
X39343Y-22972D01*
X39352Y-22942D01*
X39366Y-22914D01*
X39385Y-22889D01*
X39409Y-22869D01*
X39436Y-22854D01*
X39466Y-22844D01*
X39497Y-22841D01*
X39527Y-22843D01*
X39557Y-22851D01*
X39585Y-22865D01*
X39610Y-22885D01*
X39630Y-22908D01*
X39646Y-22935D01*
X39656Y-22965D01*
X39659Y-22996D01*
X39660Y-23000D01*
X39660Y-29000D02*
X39656Y-29031D01*
X39647Y-29060D01*
X39633Y-29088D01*
X39613Y-29112D01*
X39589Y-29132D01*
X39562Y-29147D01*
X39532Y-29156D01*
X39501Y-29159D01*
X39471Y-29157D01*
X39441Y-29148D01*
X39413Y-29133D01*
X39389Y-29114D01*
X39368Y-29090D01*
X39353Y-29063D01*
X39344Y-29033D01*
X39341Y-29002D01*
X39343Y-28972D01*
X39352Y-28942D01*
X39366Y-28914D01*
X39385Y-28889D01*
X39409Y-28869D01*
X39436Y-28854D01*
X39466Y-28844D01*
X39497Y-28841D01*
X39527Y-28843D01*
X39557Y-28851D01*
X39585Y-28865D01*
X39610Y-28885D01*
X39630Y-28908D01*
X39646Y-28935D01*
X39656Y-28965D01*
X39659Y-28996D01*
X39660Y-29000D01*
X40636Y-33933D02*
X40632Y-33964D01*
X40623Y-33993D01*
X40609Y-34021D01*
X40589Y-34045D01*
X40565Y-34065D01*
X40538Y-34080D01*
X40508Y-34089D01*
X40477Y-34092D01*
X40447Y-34090D01*
X40417Y-34081D01*
X40389Y-34066D01*
X40365Y-34047D01*
X40344Y-34023D01*
X40329Y-33996D01*
X40320Y-33966D01*
X40317Y-33935D01*
X40319Y-33905D01*
X40328Y-33875D01*
X40342Y-33847D01*
X40361Y-33822D01*
X40385Y-33802D01*
X40412Y-33787D01*
X40442Y-33777D01*
X40473Y-33774D01*
X40503Y-33776D01*
X40533Y-33784D01*
X40561Y-33798D01*
X40586Y-33818D01*
X40606Y-33841D01*
X40622Y-33868D01*
X40632Y-33898D01*
X40635Y-33929D01*
X40636Y-33933D01*
X40636Y-36933D02*
X40632Y-36964D01*
X40623Y-36993D01*
X40609Y-37021D01*
X40589Y-37045D01*
X40565Y-37065D01*
X40538Y-37080D01*
X40508Y-37089D01*
X40477Y-37092D01*
X40447Y-37090D01*
X40417Y-37081D01*
X40389Y-37066D01*
X40365Y-37047D01*
X40344Y-37023D01*
X40329Y-36996D01*
X40320Y-36966D01*
X40317Y-36935D01*
X40319Y-36905D01*
X40328Y-36875D01*
X40342Y-36847D01*
X40361Y-36822D01*
X40385Y-36802D01*
X40412Y-36787D01*
X40442Y-36777D01*
X40473Y-36774D01*
X40503Y-36776D01*
X40533Y-36784D01*
X40561Y-36798D01*
X40586Y-36818D01*
X40606Y-36841D01*
X40622Y-36868D01*
X40632Y-36898D01*
X40635Y-36929D01*
X40636Y-36933D01*
X40660Y-23000D02*
X40656Y-23031D01*
X40647Y-23060D01*
X40633Y-23088D01*
X40613Y-23112D01*
X40589Y-23132D01*
X40562Y-23147D01*
X40532Y-23156D01*
X40501Y-23159D01*
X40471Y-23157D01*
X40441Y-23148D01*
X40413Y-23133D01*
X40389Y-23114D01*
X40368Y-23090D01*
X40353Y-23063D01*
X40344Y-23033D01*
X40341Y-23002D01*
X40343Y-22972D01*
X40352Y-22942D01*
X40366Y-22914D01*
X40385Y-22889D01*
X40409Y-22869D01*
X40436Y-22854D01*
X40466Y-22844D01*
X40497Y-22841D01*
X40527Y-22843D01*
X40557Y-22851D01*
X40585Y-22865D01*
X40610Y-22885D01*
X40630Y-22908D01*
X40646Y-22935D01*
X40656Y-22965D01*
X40659Y-22996D01*
X40660Y-23000D01*
X40660Y-29000D02*
X40656Y-29031D01*
X40647Y-29060D01*
X40633Y-29088D01*
X40613Y-29112D01*
X40589Y-29132D01*
X40562Y-29147D01*
X40532Y-29156D01*
X40501Y-29159D01*
X40471Y-29157D01*
X40441Y-29148D01*
X40413Y-29133D01*
X40389Y-29114D01*
X40368Y-29090D01*
X40353Y-29063D01*
X40344Y-29033D01*
X40341Y-29002D01*
X40343Y-28972D01*
X40352Y-28942D01*
X40366Y-28914D01*
X40385Y-28889D01*
X40409Y-28869D01*
X40436Y-28854D01*
X40466Y-28844D01*
X40497Y-28841D01*
X40527Y-28843D01*
X40557Y-28851D01*
X40585Y-28865D01*
X40610Y-28885D01*
X40630Y-28908D01*
X40646Y-28935D01*
X40656Y-28965D01*
X40659Y-28996D01*
X40660Y-29000D01*
X41660Y-23000D02*
X41656Y-23031D01*
X41647Y-23060D01*
X41633Y-23088D01*
X41613Y-23112D01*
X41589Y-23132D01*
X41562Y-23147D01*
X41532Y-23156D01*
X41501Y-23159D01*
X41471Y-23157D01*
X41441Y-23148D01*
X41413Y-23133D01*
X41389Y-23114D01*
X41368Y-23090D01*
X41353Y-23063D01*
X41344Y-23033D01*
X41341Y-23002D01*
X41343Y-22972D01*
X41352Y-22942D01*
X41366Y-22914D01*
X41385Y-22889D01*
X41409Y-22869D01*
X41436Y-22854D01*
X41466Y-22844D01*
X41497Y-22841D01*
X41527Y-22843D01*
X41557Y-22851D01*
X41585Y-22865D01*
X41610Y-22885D01*
X41630Y-22908D01*
X41646Y-22935D01*
X41656Y-22965D01*
X41659Y-22996D01*
X41660Y-23000D01*
X41660Y-29000D02*
X41656Y-29031D01*
X41647Y-29060D01*
X41633Y-29088D01*
X41613Y-29112D01*
X41589Y-29132D01*
X41562Y-29147D01*
X41532Y-29156D01*
X41501Y-29159D01*
X41471Y-29157D01*
X41441Y-29148D01*
X41413Y-29133D01*
X41389Y-29114D01*
X41368Y-29090D01*
X41353Y-29063D01*
X41344Y-29033D01*
X41341Y-29002D01*
X41343Y-28972D01*
X41352Y-28942D01*
X41366Y-28914D01*
X41385Y-28889D01*
X41409Y-28869D01*
X41436Y-28854D01*
X41466Y-28844D01*
X41497Y-28841D01*
X41527Y-28843D01*
X41557Y-28851D01*
X41585Y-28865D01*
X41610Y-28885D01*
X41630Y-28908D01*
X41646Y-28935D01*
X41656Y-28965D01*
X41659Y-28996D01*
X41660Y-29000D01*
X42207Y-11276D02*
X42203Y-11307D01*
X42194Y-11336D01*
X42180Y-11364D01*
X42160Y-11388D01*
X42136Y-11408D01*
X42109Y-11423D01*
X42079Y-11432D01*
X42048Y-11435D01*
X42018Y-11433D01*
X41988Y-11424D01*
X41960Y-11409D01*
X41936Y-11390D01*
X41915Y-11366D01*
X41900Y-11339D01*
X41891Y-11309D01*
X41888Y-11278D01*
X41890Y-11248D01*
X41899Y-11218D01*
X41913Y-11190D01*
X41932Y-11165D01*
X41956Y-11145D01*
X41983Y-11130D01*
X42013Y-11120D01*
X42044Y-11117D01*
X42074Y-11119D01*
X42104Y-11127D01*
X42132Y-11141D01*
X42157Y-11161D01*
X42177Y-11184D01*
X42193Y-11211D01*
X42203Y-11241D01*
X42206Y-11272D01*
X42207Y-11276D01*
X42207Y-16000D02*
X42203Y-16031D01*
X42194Y-16060D01*
X42180Y-16088D01*
X42160Y-16112D01*
X42136Y-16132D01*
X42109Y-16147D01*
X42079Y-16156D01*
X42048Y-16159D01*
X42018Y-16157D01*
X41988Y-16148D01*
X41960Y-16133D01*
X41936Y-16114D01*
X41915Y-16090D01*
X41900Y-16063D01*
X41891Y-16033D01*
X41888Y-16002D01*
X41890Y-15972D01*
X41899Y-15942D01*
X41913Y-15914D01*
X41932Y-15889D01*
X41956Y-15869D01*
X41983Y-15854D01*
X42013Y-15844D01*
X42044Y-15841D01*
X42074Y-15843D01*
X42104Y-15851D01*
X42132Y-15865D01*
X42157Y-15885D01*
X42177Y-15908D01*
X42193Y-15935D01*
X42203Y-15965D01*
X42206Y-15996D01*
X42207Y-16000D01*
X42660Y-23000D02*
X42656Y-23031D01*
X42647Y-23060D01*
X42633Y-23088D01*
X42613Y-23112D01*
X42589Y-23132D01*
X42562Y-23147D01*
X42532Y-23156D01*
X42501Y-23159D01*
X42471Y-23157D01*
X42441Y-23148D01*
X42413Y-23133D01*
X42389Y-23114D01*
X42368Y-23090D01*
X42353Y-23063D01*
X42344Y-23033D01*
X42341Y-23002D01*
X42343Y-22972D01*
X42352Y-22942D01*
X42366Y-22914D01*
X42385Y-22889D01*
X42409Y-22869D01*
X42436Y-22854D01*
X42466Y-22844D01*
X42497Y-22841D01*
X42527Y-22843D01*
X42557Y-22851D01*
X42585Y-22865D01*
X42610Y-22885D01*
X42630Y-22908D01*
X42646Y-22935D01*
X42656Y-22965D01*
X42659Y-22996D01*
X42660Y-23000D01*
X42660Y-29000D02*
X42656Y-29031D01*
X42647Y-29060D01*
X42633Y-29088D01*
X42613Y-29112D01*
X42589Y-29132D01*
X42562Y-29147D01*
X42532Y-29156D01*
X42501Y-29159D01*
X42471Y-29157D01*
X42441Y-29148D01*
X42413Y-29133D01*
X42389Y-29114D01*
X42368Y-29090D01*
X42353Y-29063D01*
X42344Y-29033D01*
X42341Y-29002D01*
X42343Y-28972D01*
X42352Y-28942D01*
X42366Y-28914D01*
X42385Y-28889D01*
X42409Y-28869D01*
X42436Y-28854D01*
X42466Y-28844D01*
X42497Y-28841D01*
X42527Y-28843D01*
X42557Y-28851D01*
X42585Y-28865D01*
X42610Y-28885D01*
X42630Y-28908D01*
X42646Y-28935D01*
X42656Y-28965D01*
X42659Y-28996D01*
X42660Y-29000D01*
X43660Y-23000D02*
X43656Y-23031D01*
X43647Y-23060D01*
X43633Y-23088D01*
X43613Y-23112D01*
X43589Y-23132D01*
X43562Y-23147D01*
X43532Y-23156D01*
X43501Y-23159D01*
X43471Y-23157D01*
X43441Y-23148D01*
X43413Y-23133D01*
X43389Y-23114D01*
X43368Y-23090D01*
X43353Y-23063D01*
X43344Y-23033D01*
X43341Y-23002D01*
X43343Y-22972D01*
X43352Y-22942D01*
X43366Y-22914D01*
X43385Y-22889D01*
X43409Y-22869D01*
X43436Y-22854D01*
X43466Y-22844D01*
X43497Y-22841D01*
X43527Y-22843D01*
X43557Y-22851D01*
X43585Y-22865D01*
X43610Y-22885D01*
X43630Y-22908D01*
X43646Y-22935D01*
X43656Y-22965D01*
X43659Y-22996D01*
X43660Y-23000D01*
X43660Y-29000D02*
X43656Y-29031D01*
X43647Y-29060D01*
X43633Y-29088D01*
X43613Y-29112D01*
X43589Y-29132D01*
X43562Y-29147D01*
X43532Y-29156D01*
X43501Y-29159D01*
X43471Y-29157D01*
X43441Y-29148D01*
X43413Y-29133D01*
X43389Y-29114D01*
X43368Y-29090D01*
X43353Y-29063D01*
X43344Y-29033D01*
X43341Y-29002D01*
X43343Y-28972D01*
X43352Y-28942D01*
X43366Y-28914D01*
X43385Y-28889D01*
X43409Y-28869D01*
X43436Y-28854D01*
X43466Y-28844D01*
X43497Y-28841D01*
X43527Y-28843D01*
X43557Y-28851D01*
X43585Y-28865D01*
X43610Y-28885D01*
X43630Y-28908D01*
X43646Y-28935D01*
X43656Y-28965D01*
X43659Y-28996D01*
X43660Y-29000D01*
X44471Y-13638D02*
X44467Y-13669D01*
X44458Y-13698D01*
X44444Y-13726D01*
X44424Y-13750D01*
X44400Y-13770D01*
X44373Y-13785D01*
X44343Y-13794D01*
X44312Y-13797D01*
X44282Y-13795D01*
X44252Y-13786D01*
X44224Y-13771D01*
X44200Y-13752D01*
X44179Y-13728D01*
X44164Y-13701D01*
X44155Y-13671D01*
X44152Y-13640D01*
X44154Y-13610D01*
X44163Y-13580D01*
X44177Y-13552D01*
X44196Y-13527D01*
X44220Y-13507D01*
X44247Y-13492D01*
X44277Y-13482D01*
X44308Y-13479D01*
X44338Y-13481D01*
X44368Y-13489D01*
X44396Y-13503D01*
X44421Y-13523D01*
X44441Y-13546D01*
X44457Y-13573D01*
X44467Y-13603D01*
X44470Y-13634D01*
X44471Y-13638D01*
X45849Y-13638D02*
X45845Y-13669D01*
X45836Y-13698D01*
X45822Y-13726D01*
X45802Y-13750D01*
X45778Y-13770D01*
X45751Y-13785D01*
X45721Y-13794D01*
X45690Y-13797D01*
X45660Y-13795D01*
X45630Y-13786D01*
X45602Y-13771D01*
X45578Y-13752D01*
X45557Y-13728D01*
X45542Y-13701D01*
X45533Y-13671D01*
X45530Y-13640D01*
X45532Y-13610D01*
X45541Y-13580D01*
X45555Y-13552D01*
X45574Y-13527D01*
X45598Y-13507D01*
X45625Y-13492D01*
X45655Y-13482D01*
X45686Y-13479D01*
X45716Y-13481D01*
X45746Y-13489D01*
X45774Y-13503D01*
X45799Y-13523D01*
X45819Y-13546D01*
X45835Y-13573D01*
X45845Y-13603D01*
X45848Y-13634D01*
X45849Y-13638D01*
X46223Y-24787D02*
X46219Y-24818D01*
X46210Y-24847D01*
X46196Y-24875D01*
X46176Y-24899D01*
X46152Y-24919D01*
X46125Y-24934D01*
X46095Y-24943D01*
X46064Y-24946D01*
X46034Y-24944D01*
X46004Y-24935D01*
X45976Y-24920D01*
X45952Y-24901D01*
X45931Y-24877D01*
X45916Y-24850D01*
X45907Y-24820D01*
X45904Y-24789D01*
X45906Y-24759D01*
X45915Y-24729D01*
X45929Y-24701D01*
X45948Y-24676D01*
X45972Y-24656D01*
X45999Y-24641D01*
X46029Y-24631D01*
X46060Y-24628D01*
X46090Y-24630D01*
X46120Y-24638D01*
X46148Y-24652D01*
X46173Y-24672D01*
X46193Y-24695D01*
X46209Y-24722D01*
X46219Y-24752D01*
X46222Y-24783D01*
X46223Y-24787D01*
X46223Y-26787D02*
X46219Y-26818D01*
X46210Y-26847D01*
X46196Y-26875D01*
X46176Y-26899D01*
X46152Y-26919D01*
X46125Y-26934D01*
X46095Y-26943D01*
X46064Y-26946D01*
X46034Y-26944D01*
X46004Y-26935D01*
X45976Y-26920D01*
X45952Y-26901D01*
X45931Y-26877D01*
X45916Y-26850D01*
X45907Y-26820D01*
X45904Y-26789D01*
X45906Y-26759D01*
X45915Y-26729D01*
X45929Y-26701D01*
X45948Y-26676D01*
X45972Y-26656D01*
X45999Y-26641D01*
X46029Y-26631D01*
X46060Y-26628D01*
X46090Y-26630D01*
X46120Y-26638D01*
X46148Y-26652D01*
X46173Y-26672D01*
X46193Y-26695D01*
X46209Y-26722D01*
X46219Y-26752D01*
X46222Y-26783D01*
X46223Y-26787D01*
X48113Y-11276D02*
X48109Y-11307D01*
X48100Y-11336D01*
X48086Y-11364D01*
X48066Y-11388D01*
X48042Y-11408D01*
X48015Y-11423D01*
X47985Y-11432D01*
X47954Y-11435D01*
X47924Y-11433D01*
X47894Y-11424D01*
X47866Y-11409D01*
X47842Y-11390D01*
X47821Y-11366D01*
X47806Y-11339D01*
X47797Y-11309D01*
X47794Y-11278D01*
X47796Y-11248D01*
X47805Y-11218D01*
X47819Y-11190D01*
X47838Y-11165D01*
X47862Y-11145D01*
X47889Y-11130D01*
X47919Y-11120D01*
X47950Y-11117D01*
X47980Y-11119D01*
X48010Y-11127D01*
X48038Y-11141D01*
X48063Y-11161D01*
X48083Y-11184D01*
X48099Y-11211D01*
X48109Y-11241D01*
X48112Y-11272D01*
X48113Y-11276D01*
X48113Y-16000D02*
X48109Y-16031D01*
X48100Y-16060D01*
X48086Y-16088D01*
X48066Y-16112D01*
X48042Y-16132D01*
X48015Y-16147D01*
X47985Y-16156D01*
X47954Y-16159D01*
X47924Y-16157D01*
X47894Y-16148D01*
X47866Y-16133D01*
X47842Y-16114D01*
X47821Y-16090D01*
X47806Y-16063D01*
X47797Y-16033D01*
X47794Y-16002D01*
X47796Y-15972D01*
X47805Y-15942D01*
X47819Y-15914D01*
X47838Y-15889D01*
X47862Y-15869D01*
X47889Y-15854D01*
X47919Y-15844D01*
X47950Y-15841D01*
X47980Y-15843D01*
X48010Y-15851D01*
X48038Y-15865D01*
X48063Y-15885D01*
X48083Y-15908D01*
X48099Y-15935D01*
X48109Y-15965D01*
X48112Y-15996D01*
X48113Y-16000D01*
X48184Y-40551D02*
X48180Y-40582D01*
X48171Y-40611D01*
X48157Y-40639D01*
X48137Y-40663D01*
X48113Y-40683D01*
X48086Y-40698D01*
X48056Y-40707D01*
X48025Y-40710D01*
X47995Y-40708D01*
X47965Y-40699D01*
X47937Y-40684D01*
X47913Y-40665D01*
X47892Y-40641D01*
X47877Y-40614D01*
X47868Y-40584D01*
X47865Y-40553D01*
X47867Y-40523D01*
X47876Y-40493D01*
X47890Y-40465D01*
X47909Y-40440D01*
X47933Y-40420D01*
X47960Y-40405D01*
X47990Y-40395D01*
X48021Y-40392D01*
X48051Y-40394D01*
X48081Y-40402D01*
X48109Y-40416D01*
X48134Y-40436D01*
X48154Y-40459D01*
X48170Y-40486D01*
X48180Y-40516D01*
X48183Y-40547D01*
X48184Y-40551D01*
X48282Y-24803D02*
X48278Y-24834D01*
X48269Y-24863D01*
X48255Y-24891D01*
X48235Y-24915D01*
X48211Y-24935D01*
X48184Y-24950D01*
X48154Y-24959D01*
X48123Y-24962D01*
X48093Y-24960D01*
X48063Y-24951D01*
X48035Y-24936D01*
X48011Y-24917D01*
X47990Y-24893D01*
X47975Y-24866D01*
X47966Y-24836D01*
X47963Y-24805D01*
X47965Y-24775D01*
X47974Y-24745D01*
X47988Y-24717D01*
X48007Y-24692D01*
X48031Y-24672D01*
X48058Y-24657D01*
X48088Y-24647D01*
X48119Y-24644D01*
X48149Y-24646D01*
X48179Y-24654D01*
X48207Y-24668D01*
X48232Y-24688D01*
X48252Y-24711D01*
X48268Y-24738D01*
X48278Y-24768D01*
X48281Y-24799D01*
X48282Y-24803D01*
X48282Y-26772D02*
X48278Y-26803D01*
X48269Y-26832D01*
X48255Y-26860D01*
X48235Y-26884D01*
X48211Y-26904D01*
X48184Y-26919D01*
X48154Y-26928D01*
X48123Y-26931D01*
X48093Y-26929D01*
X48063Y-26920D01*
X48035Y-26905D01*
X48011Y-26886D01*
X47990Y-26862D01*
X47975Y-26835D01*
X47966Y-26805D01*
X47963Y-26774D01*
X47965Y-26744D01*
X47974Y-26714D01*
X47988Y-26686D01*
X48007Y-26661D01*
X48031Y-26641D01*
X48058Y-26626D01*
X48088Y-26616D01*
X48119Y-26613D01*
X48149Y-26615D01*
X48179Y-26623D01*
X48207Y-26637D01*
X48232Y-26657D01*
X48252Y-26680D01*
X48268Y-26707D01*
X48278Y-26737D01*
X48281Y-26768D01*
X48282Y-26772D01*
X49184Y-40551D02*
X49180Y-40582D01*
X49171Y-40611D01*
X49157Y-40639D01*
X49137Y-40663D01*
X49113Y-40683D01*
X49086Y-40698D01*
X49056Y-40707D01*
X49025Y-40710D01*
X48995Y-40708D01*
X48965Y-40699D01*
X48937Y-40684D01*
X48913Y-40665D01*
X48892Y-40641D01*
X48877Y-40614D01*
X48868Y-40584D01*
X48865Y-40553D01*
X48867Y-40523D01*
X48876Y-40493D01*
X48890Y-40465D01*
X48909Y-40440D01*
X48933Y-40420D01*
X48960Y-40405D01*
X48990Y-40395D01*
X49021Y-40392D01*
X49051Y-40394D01*
X49081Y-40402D01*
X49109Y-40416D01*
X49134Y-40436D01*
X49154Y-40459D01*
X49170Y-40486D01*
X49180Y-40516D01*
X49183Y-40547D01*
X49184Y-40551D01*
X49282Y-24803D02*
X49278Y-24834D01*
X49269Y-24863D01*
X49255Y-24891D01*
X49235Y-24915D01*
X49211Y-24935D01*
X49184Y-24950D01*
X49154Y-24959D01*
X49123Y-24962D01*
X49093Y-24960D01*
X49063Y-24951D01*
X49035Y-24936D01*
X49011Y-24917D01*
X48990Y-24893D01*
X48975Y-24866D01*
X48966Y-24836D01*
X48963Y-24805D01*
X48965Y-24775D01*
X48974Y-24745D01*
X48988Y-24717D01*
X49007Y-24692D01*
X49031Y-24672D01*
X49058Y-24657D01*
X49088Y-24647D01*
X49119Y-24644D01*
X49149Y-24646D01*
X49179Y-24654D01*
X49207Y-24668D01*
X49232Y-24688D01*
X49252Y-24711D01*
X49268Y-24738D01*
X49278Y-24768D01*
X49281Y-24799D01*
X49282Y-24803D01*
X49282Y-26772D02*
X49278Y-26803D01*
X49269Y-26832D01*
X49255Y-26860D01*
X49235Y-26884D01*
X49211Y-26904D01*
X49184Y-26919D01*
X49154Y-26928D01*
X49123Y-26931D01*
X49093Y-26929D01*
X49063Y-26920D01*
X49035Y-26905D01*
X49011Y-26886D01*
X48990Y-26862D01*
X48975Y-26835D01*
X48966Y-26805D01*
X48963Y-26774D01*
X48965Y-26744D01*
X48974Y-26714D01*
X48988Y-26686D01*
X49007Y-26661D01*
X49031Y-26641D01*
X49058Y-26626D01*
X49088Y-26616D01*
X49119Y-26613D01*
X49149Y-26615D01*
X49179Y-26623D01*
X49207Y-26637D01*
X49232Y-26657D01*
X49252Y-26680D01*
X49268Y-26707D01*
X49278Y-26737D01*
X49281Y-26768D01*
X49282Y-26772D01*
X50251Y-41642D02*
X50247Y-41673D01*
X50238Y-41702D01*
X50224Y-41730D01*
X50204Y-41754D01*
X50180Y-41774D01*
X50153Y-41789D01*
X50123Y-41798D01*
X50092Y-41801D01*
X50062Y-41799D01*
X50032Y-41790D01*
X50004Y-41775D01*
X49980Y-41756D01*
X49959Y-41732D01*
X49944Y-41705D01*
X49935Y-41675D01*
X49932Y-41644D01*
X49934Y-41614D01*
X49943Y-41584D01*
X49957Y-41556D01*
X49976Y-41531D01*
X50000Y-41511D01*
X50027Y-41496D01*
X50057Y-41486D01*
X50088Y-41483D01*
X50118Y-41485D01*
X50148Y-41493D01*
X50176Y-41507D01*
X50201Y-41527D01*
X50221Y-41550D01*
X50237Y-41577D01*
X50247Y-41607D01*
X50250Y-41638D01*
X50251Y-41642D01*
X50349Y-44291D02*
X50345Y-44322D01*
X50336Y-44351D01*
X50322Y-44379D01*
X50302Y-44403D01*
X50278Y-44423D01*
X50251Y-44438D01*
X50221Y-44447D01*
X50190Y-44450D01*
X50160Y-44448D01*
X50130Y-44439D01*
X50102Y-44424D01*
X50078Y-44405D01*
X50057Y-44381D01*
X50042Y-44354D01*
X50033Y-44324D01*
X50030Y-44293D01*
X50032Y-44263D01*
X50041Y-44233D01*
X50055Y-44205D01*
X50074Y-44180D01*
X50098Y-44160D01*
X50125Y-44145D01*
X50155Y-44135D01*
X50186Y-44132D01*
X50216Y-44134D01*
X50246Y-44142D01*
X50274Y-44156D01*
X50299Y-44176D01*
X50319Y-44199D01*
X50335Y-44226D01*
X50345Y-44256D01*
X50348Y-44287D01*
X50349Y-44291D01*
X51251Y-40642D02*
X51247Y-40673D01*
X51238Y-40702D01*
X51224Y-40730D01*
X51204Y-40754D01*
X51180Y-40774D01*
X51153Y-40789D01*
X51123Y-40798D01*
X51092Y-40801D01*
X51062Y-40799D01*
X51032Y-40790D01*
X51004Y-40775D01*
X50980Y-40756D01*
X50959Y-40732D01*
X50944Y-40705D01*
X50935Y-40675D01*
X50932Y-40644D01*
X50934Y-40614D01*
X50943Y-40584D01*
X50957Y-40556D01*
X50976Y-40531D01*
X51000Y-40511D01*
X51027Y-40496D01*
X51057Y-40486D01*
X51088Y-40483D01*
X51118Y-40485D01*
X51148Y-40493D01*
X51176Y-40507D01*
X51201Y-40527D01*
X51221Y-40550D01*
X51237Y-40577D01*
X51247Y-40607D01*
X51250Y-40638D01*
X51251Y-40642D01*
X51251Y-41642D02*
X51247Y-41673D01*
X51238Y-41702D01*
X51224Y-41730D01*
X51204Y-41754D01*
X51180Y-41774D01*
X51153Y-41789D01*
X51123Y-41798D01*
X51092Y-41801D01*
X51062Y-41799D01*
X51032Y-41790D01*
X51004Y-41775D01*
X50980Y-41756D01*
X50959Y-41732D01*
X50944Y-41705D01*
X50935Y-41675D01*
X50932Y-41644D01*
X50934Y-41614D01*
X50943Y-41584D01*
X50957Y-41556D01*
X50976Y-41531D01*
X51000Y-41511D01*
X51027Y-41496D01*
X51057Y-41486D01*
X51088Y-41483D01*
X51118Y-41485D01*
X51148Y-41493D01*
X51176Y-41507D01*
X51201Y-41527D01*
X51221Y-41550D01*
X51237Y-41577D01*
X51247Y-41607D01*
X51250Y-41638D01*
X51251Y-41642D01*
X51341Y-13461D02*
X51337Y-13492D01*
X51328Y-13521D01*
X51314Y-13549D01*
X51294Y-13573D01*
X51270Y-13593D01*
X51243Y-13608D01*
X51213Y-13617D01*
X51182Y-13620D01*
X51152Y-13618D01*
X51122Y-13609D01*
X51094Y-13594D01*
X51070Y-13575D01*
X51049Y-13551D01*
X51034Y-13524D01*
X51025Y-13494D01*
X51022Y-13463D01*
X51024Y-13433D01*
X51033Y-13403D01*
X51047Y-13375D01*
X51066Y-13350D01*
X51090Y-13330D01*
X51117Y-13315D01*
X51147Y-13305D01*
X51178Y-13302D01*
X51208Y-13304D01*
X51238Y-13312D01*
X51266Y-13326D01*
X51291Y-13346D01*
X51311Y-13369D01*
X51327Y-13396D01*
X51337Y-13426D01*
X51340Y-13457D01*
X51341Y-13461D01*
X51341Y-16461D02*
X51337Y-16492D01*
X51328Y-16521D01*
X51314Y-16549D01*
X51294Y-16573D01*
X51270Y-16593D01*
X51243Y-16608D01*
X51213Y-16617D01*
X51182Y-16620D01*
X51152Y-16618D01*
X51122Y-16609D01*
X51094Y-16594D01*
X51070Y-16575D01*
X51049Y-16551D01*
X51034Y-16524D01*
X51025Y-16494D01*
X51022Y-16463D01*
X51024Y-16433D01*
X51033Y-16403D01*
X51047Y-16375D01*
X51066Y-16350D01*
X51090Y-16330D01*
X51117Y-16315D01*
X51147Y-16305D01*
X51178Y-16302D01*
X51208Y-16304D01*
X51238Y-16312D01*
X51266Y-16326D01*
X51291Y-16346D01*
X51311Y-16369D01*
X51327Y-16396D01*
X51337Y-16426D01*
X51340Y-16457D01*
X51341Y-16461D01*
X51349Y-44291D02*
X51345Y-44322D01*
X51336Y-44351D01*
X51322Y-44379D01*
X51302Y-44403D01*
X51278Y-44423D01*
X51251Y-44438D01*
X51221Y-44447D01*
X51190Y-44450D01*
X51160Y-44448D01*
X51130Y-44439D01*
X51102Y-44424D01*
X51078Y-44405D01*
X51057Y-44381D01*
X51042Y-44354D01*
X51033Y-44324D01*
X51030Y-44293D01*
X51032Y-44263D01*
X51041Y-44233D01*
X51055Y-44205D01*
X51074Y-44180D01*
X51098Y-44160D01*
X51125Y-44145D01*
X51155Y-44135D01*
X51186Y-44132D01*
X51216Y-44134D01*
X51246Y-44142D01*
X51274Y-44156D01*
X51299Y-44176D01*
X51319Y-44199D01*
X51335Y-44226D01*
X51345Y-44256D01*
X51348Y-44287D01*
X51349Y-44291D01*
X52991Y-24831D02*
X52987Y-24862D01*
X52978Y-24891D01*
X52964Y-24919D01*
X52944Y-24943D01*
X52920Y-24963D01*
X52893Y-24978D01*
X52863Y-24987D01*
X52832Y-24990D01*
X52802Y-24988D01*
X52772Y-24979D01*
X52744Y-24964D01*
X52720Y-24945D01*
X52699Y-24921D01*
X52684Y-24894D01*
X52675Y-24864D01*
X52672Y-24833D01*
X52674Y-24803D01*
X52683Y-24773D01*
X52697Y-24745D01*
X52716Y-24720D01*
X52740Y-24700D01*
X52767Y-24685D01*
X52797Y-24675D01*
X52828Y-24672D01*
X52858Y-24674D01*
X52888Y-24682D01*
X52916Y-24696D01*
X52941Y-24716D01*
X52961Y-24739D01*
X52977Y-24766D01*
X52987Y-24796D01*
X52990Y-24827D01*
X52991Y-24831D01*
X52991Y-25831D02*
X52987Y-25862D01*
X52978Y-25891D01*
X52964Y-25919D01*
X52944Y-25943D01*
X52920Y-25963D01*
X52893Y-25978D01*
X52863Y-25987D01*
X52832Y-25990D01*
X52802Y-25988D01*
X52772Y-25979D01*
X52744Y-25964D01*
X52720Y-25945D01*
X52699Y-25921D01*
X52684Y-25894D01*
X52675Y-25864D01*
X52672Y-25833D01*
X52674Y-25803D01*
X52683Y-25773D01*
X52697Y-25745D01*
X52716Y-25720D01*
X52740Y-25700D01*
X52767Y-25685D01*
X52797Y-25675D01*
X52828Y-25672D01*
X52858Y-25674D01*
X52888Y-25682D01*
X52916Y-25696D01*
X52941Y-25716D01*
X52961Y-25739D01*
X52977Y-25766D01*
X52987Y-25796D01*
X52990Y-25827D01*
X52991Y-25831D01*
X52991Y-26831D02*
X52987Y-26862D01*
X52978Y-26891D01*
X52964Y-26919D01*
X52944Y-26943D01*
X52920Y-26963D01*
X52893Y-26978D01*
X52863Y-26987D01*
X52832Y-26990D01*
X52802Y-26988D01*
X52772Y-26979D01*
X52744Y-26964D01*
X52720Y-26945D01*
X52699Y-26921D01*
X52684Y-26894D01*
X52675Y-26864D01*
X52672Y-26833D01*
X52674Y-26803D01*
X52683Y-26773D01*
X52697Y-26745D01*
X52716Y-26720D01*
X52740Y-26700D01*
X52767Y-26685D01*
X52797Y-26675D01*
X52828Y-26672D01*
X52858Y-26674D01*
X52888Y-26682D01*
X52916Y-26696D01*
X52941Y-26716D01*
X52961Y-26739D01*
X52977Y-26766D01*
X52987Y-26796D01*
X52990Y-26827D01*
X52991Y-26831D01*
X52991Y-27831D02*
X52987Y-27862D01*
X52978Y-27891D01*
X52964Y-27919D01*
X52944Y-27943D01*
X52920Y-27963D01*
X52893Y-27978D01*
X52863Y-27987D01*
X52832Y-27990D01*
X52802Y-27988D01*
X52772Y-27979D01*
X52744Y-27964D01*
X52720Y-27945D01*
X52699Y-27921D01*
X52684Y-27894D01*
X52675Y-27864D01*
X52672Y-27833D01*
X52674Y-27803D01*
X52683Y-27773D01*
X52697Y-27745D01*
X52716Y-27720D01*
X52740Y-27700D01*
X52767Y-27685D01*
X52797Y-27675D01*
X52828Y-27672D01*
X52858Y-27674D01*
X52888Y-27682D01*
X52916Y-27696D01*
X52941Y-27716D01*
X52961Y-27739D01*
X52977Y-27766D01*
X52987Y-27796D01*
X52990Y-27827D01*
X52991Y-27831D01*
X52991Y-28831D02*
X52987Y-28862D01*
X52978Y-28891D01*
X52964Y-28919D01*
X52944Y-28943D01*
X52920Y-28963D01*
X52893Y-28978D01*
X52863Y-28987D01*
X52832Y-28990D01*
X52802Y-28988D01*
X52772Y-28979D01*
X52744Y-28964D01*
X52720Y-28945D01*
X52699Y-28921D01*
X52684Y-28894D01*
X52675Y-28864D01*
X52672Y-28833D01*
X52674Y-28803D01*
X52683Y-28773D01*
X52697Y-28745D01*
X52716Y-28720D01*
X52740Y-28700D01*
X52767Y-28685D01*
X52797Y-28675D01*
X52828Y-28672D01*
X52858Y-28674D01*
X52888Y-28682D01*
X52916Y-28696D01*
X52941Y-28716D01*
X52961Y-28739D01*
X52977Y-28766D01*
X52987Y-28796D01*
X52990Y-28827D01*
X52991Y-28831D01*
X52991Y-29831D02*
X52987Y-29862D01*
X52978Y-29891D01*
X52964Y-29919D01*
X52944Y-29943D01*
X52920Y-29963D01*
X52893Y-29978D01*
X52863Y-29987D01*
X52832Y-29990D01*
X52802Y-29988D01*
X52772Y-29979D01*
X52744Y-29964D01*
X52720Y-29945D01*
X52699Y-29921D01*
X52684Y-29894D01*
X52675Y-29864D01*
X52672Y-29833D01*
X52674Y-29803D01*
X52683Y-29773D01*
X52697Y-29745D01*
X52716Y-29720D01*
X52740Y-29700D01*
X52767Y-29685D01*
X52797Y-29675D01*
X52828Y-29672D01*
X52858Y-29674D01*
X52888Y-29682D01*
X52916Y-29696D01*
X52941Y-29716D01*
X52961Y-29739D01*
X52977Y-29766D01*
X52987Y-29796D01*
X52990Y-29827D01*
X52991Y-29831D01*
X52991Y-30831D02*
X52987Y-30862D01*
X52978Y-30891D01*
X52964Y-30919D01*
X52944Y-30943D01*
X52920Y-30963D01*
X52893Y-30978D01*
X52863Y-30987D01*
X52832Y-30990D01*
X52802Y-30988D01*
X52772Y-30979D01*
X52744Y-30964D01*
X52720Y-30945D01*
X52699Y-30921D01*
X52684Y-30894D01*
X52675Y-30864D01*
X52672Y-30833D01*
X52674Y-30803D01*
X52683Y-30773D01*
X52697Y-30745D01*
X52716Y-30720D01*
X52740Y-30700D01*
X52767Y-30685D01*
X52797Y-30675D01*
X52828Y-30672D01*
X52858Y-30674D01*
X52888Y-30682D01*
X52916Y-30696D01*
X52941Y-30716D01*
X52961Y-30739D01*
X52977Y-30766D01*
X52987Y-30796D01*
X52990Y-30827D01*
X52991Y-30831D01*
X52991Y-31831D02*
X52987Y-31862D01*
X52978Y-31891D01*
X52964Y-31919D01*
X52944Y-31943D01*
X52920Y-31963D01*
X52893Y-31978D01*
X52863Y-31987D01*
X52832Y-31990D01*
X52802Y-31988D01*
X52772Y-31979D01*
X52744Y-31964D01*
X52720Y-31945D01*
X52699Y-31921D01*
X52684Y-31894D01*
X52675Y-31864D01*
X52672Y-31833D01*
X52674Y-31803D01*
X52683Y-31773D01*
X52697Y-31745D01*
X52716Y-31720D01*
X52740Y-31700D01*
X52767Y-31685D01*
X52797Y-31675D01*
X52828Y-31672D01*
X52858Y-31674D01*
X52888Y-31682D01*
X52916Y-31696D01*
X52941Y-31716D01*
X52961Y-31739D01*
X52977Y-31766D01*
X52987Y-31796D01*
X52990Y-31827D01*
X52991Y-31831D01*
X52991Y-32831D02*
X52987Y-32862D01*
X52978Y-32891D01*
X52964Y-32919D01*
X52944Y-32943D01*
X52920Y-32963D01*
X52893Y-32978D01*
X52863Y-32987D01*
X52832Y-32990D01*
X52802Y-32988D01*
X52772Y-32979D01*
X52744Y-32964D01*
X52720Y-32945D01*
X52699Y-32921D01*
X52684Y-32894D01*
X52675Y-32864D01*
X52672Y-32833D01*
X52674Y-32803D01*
X52683Y-32773D01*
X52697Y-32745D01*
X52716Y-32720D01*
X52740Y-32700D01*
X52767Y-32685D01*
X52797Y-32675D01*
X52828Y-32672D01*
X52858Y-32674D01*
X52888Y-32682D01*
X52916Y-32696D01*
X52941Y-32716D01*
X52961Y-32739D01*
X52977Y-32766D01*
X52987Y-32796D01*
X52990Y-32827D01*
X52991Y-32831D01*
X52991Y-33831D02*
X52987Y-33862D01*
X52978Y-33891D01*
X52964Y-33919D01*
X52944Y-33943D01*
X52920Y-33963D01*
X52893Y-33978D01*
X52863Y-33987D01*
X52832Y-33990D01*
X52802Y-33988D01*
X52772Y-33979D01*
X52744Y-33964D01*
X52720Y-33945D01*
X52699Y-33921D01*
X52684Y-33894D01*
X52675Y-33864D01*
X52672Y-33833D01*
X52674Y-33803D01*
X52683Y-33773D01*
X52697Y-33745D01*
X52716Y-33720D01*
X52740Y-33700D01*
X52767Y-33685D01*
X52797Y-33675D01*
X52828Y-33672D01*
X52858Y-33674D01*
X52888Y-33682D01*
X52916Y-33696D01*
X52941Y-33716D01*
X52961Y-33739D01*
X52977Y-33766D01*
X52987Y-33796D01*
X52990Y-33827D01*
X52991Y-33831D01*
X55991Y-24831D02*
X55987Y-24862D01*
X55978Y-24891D01*
X55964Y-24919D01*
X55944Y-24943D01*
X55920Y-24963D01*
X55893Y-24978D01*
X55863Y-24987D01*
X55832Y-24990D01*
X55802Y-24988D01*
X55772Y-24979D01*
X55744Y-24964D01*
X55720Y-24945D01*
X55699Y-24921D01*
X55684Y-24894D01*
X55675Y-24864D01*
X55672Y-24833D01*
X55674Y-24803D01*
X55683Y-24773D01*
X55697Y-24745D01*
X55716Y-24720D01*
X55740Y-24700D01*
X55767Y-24685D01*
X55797Y-24675D01*
X55828Y-24672D01*
X55858Y-24674D01*
X55888Y-24682D01*
X55916Y-24696D01*
X55941Y-24716D01*
X55961Y-24739D01*
X55977Y-24766D01*
X55987Y-24796D01*
X55990Y-24827D01*
X55991Y-24831D01*
X55991Y-25831D02*
X55987Y-25862D01*
X55978Y-25891D01*
X55964Y-25919D01*
X55944Y-25943D01*
X55920Y-25963D01*
X55893Y-25978D01*
X55863Y-25987D01*
X55832Y-25990D01*
X55802Y-25988D01*
X55772Y-25979D01*
X55744Y-25964D01*
X55720Y-25945D01*
X55699Y-25921D01*
X55684Y-25894D01*
X55675Y-25864D01*
X55672Y-25833D01*
X55674Y-25803D01*
X55683Y-25773D01*
X55697Y-25745D01*
X55716Y-25720D01*
X55740Y-25700D01*
X55767Y-25685D01*
X55797Y-25675D01*
X55828Y-25672D01*
X55858Y-25674D01*
X55888Y-25682D01*
X55916Y-25696D01*
X55941Y-25716D01*
X55961Y-25739D01*
X55977Y-25766D01*
X55987Y-25796D01*
X55990Y-25827D01*
X55991Y-25831D01*
X55991Y-26831D02*
X55987Y-26862D01*
X55978Y-26891D01*
X55964Y-26919D01*
X55944Y-26943D01*
X55920Y-26963D01*
X55893Y-26978D01*
X55863Y-26987D01*
X55832Y-26990D01*
X55802Y-26988D01*
X55772Y-26979D01*
X55744Y-26964D01*
X55720Y-26945D01*
X55699Y-26921D01*
X55684Y-26894D01*
X55675Y-26864D01*
X55672Y-26833D01*
X55674Y-26803D01*
X55683Y-26773D01*
X55697Y-26745D01*
X55716Y-26720D01*
X55740Y-26700D01*
X55767Y-26685D01*
X55797Y-26675D01*
X55828Y-26672D01*
X55858Y-26674D01*
X55888Y-26682D01*
X55916Y-26696D01*
X55941Y-26716D01*
X55961Y-26739D01*
X55977Y-26766D01*
X55987Y-26796D01*
X55990Y-26827D01*
X55991Y-26831D01*
X55991Y-27831D02*
X55987Y-27862D01*
X55978Y-27891D01*
X55964Y-27919D01*
X55944Y-27943D01*
X55920Y-27963D01*
X55893Y-27978D01*
X55863Y-27987D01*
X55832Y-27990D01*
X55802Y-27988D01*
X55772Y-27979D01*
X55744Y-27964D01*
X55720Y-27945D01*
X55699Y-27921D01*
X55684Y-27894D01*
X55675Y-27864D01*
X55672Y-27833D01*
X55674Y-27803D01*
X55683Y-27773D01*
X55697Y-27745D01*
X55716Y-27720D01*
X55740Y-27700D01*
X55767Y-27685D01*
X55797Y-27675D01*
X55828Y-27672D01*
X55858Y-27674D01*
X55888Y-27682D01*
X55916Y-27696D01*
X55941Y-27716D01*
X55961Y-27739D01*
X55977Y-27766D01*
X55987Y-27796D01*
X55990Y-27827D01*
X55991Y-27831D01*
X55991Y-28831D02*
X55987Y-28862D01*
X55978Y-28891D01*
X55964Y-28919D01*
X55944Y-28943D01*
X55920Y-28963D01*
X55893Y-28978D01*
X55863Y-28987D01*
X55832Y-28990D01*
X55802Y-28988D01*
X55772Y-28979D01*
X55744Y-28964D01*
X55720Y-28945D01*
X55699Y-28921D01*
X55684Y-28894D01*
X55675Y-28864D01*
X55672Y-28833D01*
X55674Y-28803D01*
X55683Y-28773D01*
X55697Y-28745D01*
X55716Y-28720D01*
X55740Y-28700D01*
X55767Y-28685D01*
X55797Y-28675D01*
X55828Y-28672D01*
X55858Y-28674D01*
X55888Y-28682D01*
X55916Y-28696D01*
X55941Y-28716D01*
X55961Y-28739D01*
X55977Y-28766D01*
X55987Y-28796D01*
X55990Y-28827D01*
X55991Y-28831D01*
X55991Y-29831D02*
X55987Y-29862D01*
X55978Y-29891D01*
X55964Y-29919D01*
X55944Y-29943D01*
X55920Y-29963D01*
X55893Y-29978D01*
X55863Y-29987D01*
X55832Y-29990D01*
X55802Y-29988D01*
X55772Y-29979D01*
X55744Y-29964D01*
X55720Y-29945D01*
X55699Y-29921D01*
X55684Y-29894D01*
X55675Y-29864D01*
X55672Y-29833D01*
X55674Y-29803D01*
X55683Y-29773D01*
X55697Y-29745D01*
X55716Y-29720D01*
X55740Y-29700D01*
X55767Y-29685D01*
X55797Y-29675D01*
X55828Y-29672D01*
X55858Y-29674D01*
X55888Y-29682D01*
X55916Y-29696D01*
X55941Y-29716D01*
X55961Y-29739D01*
X55977Y-29766D01*
X55987Y-29796D01*
X55990Y-29827D01*
X55991Y-29831D01*
X55991Y-30831D02*
X55987Y-30862D01*
X55978Y-30891D01*
X55964Y-30919D01*
X55944Y-30943D01*
X55920Y-30963D01*
X55893Y-30978D01*
X55863Y-30987D01*
X55832Y-30990D01*
X55802Y-30988D01*
X55772Y-30979D01*
X55744Y-30964D01*
X55720Y-30945D01*
X55699Y-30921D01*
X55684Y-30894D01*
X55675Y-30864D01*
X55672Y-30833D01*
X55674Y-30803D01*
X55683Y-30773D01*
X55697Y-30745D01*
X55716Y-30720D01*
X55740Y-30700D01*
X55767Y-30685D01*
X55797Y-30675D01*
X55828Y-30672D01*
X55858Y-30674D01*
X55888Y-30682D01*
X55916Y-30696D01*
X55941Y-30716D01*
X55961Y-30739D01*
X55977Y-30766D01*
X55987Y-30796D01*
X55990Y-30827D01*
X55991Y-30831D01*
X55991Y-31831D02*
X55987Y-31862D01*
X55978Y-31891D01*
X55964Y-31919D01*
X55944Y-31943D01*
X55920Y-31963D01*
X55893Y-31978D01*
X55863Y-31987D01*
X55832Y-31990D01*
X55802Y-31988D01*
X55772Y-31979D01*
X55744Y-31964D01*
X55720Y-31945D01*
X55699Y-31921D01*
X55684Y-31894D01*
X55675Y-31864D01*
X55672Y-31833D01*
X55674Y-31803D01*
X55683Y-31773D01*
X55697Y-31745D01*
X55716Y-31720D01*
X55740Y-31700D01*
X55767Y-31685D01*
X55797Y-31675D01*
X55828Y-31672D01*
X55858Y-31674D01*
X55888Y-31682D01*
X55916Y-31696D01*
X55941Y-31716D01*
X55961Y-31739D01*
X55977Y-31766D01*
X55987Y-31796D01*
X55990Y-31827D01*
X55991Y-31831D01*
X55991Y-32831D02*
X55987Y-32862D01*
X55978Y-32891D01*
X55964Y-32919D01*
X55944Y-32943D01*
X55920Y-32963D01*
X55893Y-32978D01*
X55863Y-32987D01*
X55832Y-32990D01*
X55802Y-32988D01*
X55772Y-32979D01*
X55744Y-32964D01*
X55720Y-32945D01*
X55699Y-32921D01*
X55684Y-32894D01*
X55675Y-32864D01*
X55672Y-32833D01*
X55674Y-32803D01*
X55683Y-32773D01*
X55697Y-32745D01*
X55716Y-32720D01*
X55740Y-32700D01*
X55767Y-32685D01*
X55797Y-32675D01*
X55828Y-32672D01*
X55858Y-32674D01*
X55888Y-32682D01*
X55916Y-32696D01*
X55941Y-32716D01*
X55961Y-32739D01*
X55977Y-32766D01*
X55987Y-32796D01*
X55990Y-32827D01*
X55991Y-32831D01*
X55991Y-33831D02*
X55987Y-33862D01*
X55978Y-33891D01*
X55964Y-33919D01*
X55944Y-33943D01*
X55920Y-33963D01*
X55893Y-33978D01*
X55863Y-33987D01*
X55832Y-33990D01*
X55802Y-33988D01*
X55772Y-33979D01*
X55744Y-33964D01*
X55720Y-33945D01*
X55699Y-33921D01*
X55684Y-33894D01*
X55675Y-33864D01*
X55672Y-33833D01*
X55674Y-33803D01*
X55683Y-33773D01*
X55697Y-33745D01*
X55716Y-33720D01*
X55740Y-33700D01*
X55767Y-33685D01*
X55797Y-33675D01*
X55828Y-33672D01*
X55858Y-33674D01*
X55888Y-33682D01*
X55916Y-33696D01*
X55941Y-33716D01*
X55961Y-33739D01*
X55977Y-33766D01*
X55987Y-33796D01*
X55990Y-33827D01*
X55991Y-33831D01*
X25591Y-43001D02*
X25591Y-43401D01*
X25791Y-43201D02*
X25391Y-43201D01*
X25591Y-44001D02*
X25591Y-44401D01*
X25791Y-44201D02*
X25391Y-44201D01*
X27165Y-43001D02*
X27165Y-43401D01*
X27365Y-43201D02*
X26965Y-43201D01*
X27165Y-44001D02*
X27165Y-44401D01*
X27365Y-44201D02*
X26965Y-44201D01*
X28740Y-43001D02*
X28740Y-43401D01*
X28940Y-43201D02*
X28540Y-43201D01*
X28740Y-44001D02*
X28740Y-44401D01*
X28940Y-44201D02*
X28540Y-44201D01*
X36500Y-10800D02*
X36500Y-11200D01*
X36700Y-11000D02*
X36300Y-11000D01*
X36508Y-17123D02*
X36508Y-17523D01*
X36708Y-17323D02*
X36308Y-17323D01*
X37500Y-10800D02*
X37500Y-11200D01*
X37700Y-11000D02*
X37300Y-11000D01*
X37508Y-17123D02*
X37508Y-17523D01*
X37708Y-17323D02*
X37308Y-17323D01*
X38469Y-44091D02*
X38469Y-44491D01*
X38669Y-44291D02*
X38269Y-44291D01*
X39469Y-44091D02*
X39469Y-44491D01*
X39669Y-44291D02*
X39269Y-44291D01*
X40469Y-44091D02*
X40469Y-44491D01*
X40669Y-44291D02*
X40269Y-44291D01*
X45350Y-32083D02*
X45350Y-32483D01*
X45550Y-32283D02*
X45150Y-32283D01*
X45350Y-35627D02*
X45350Y-36027D01*
X45550Y-35827D02*
X45150Y-35827D01*
X46350Y-32083D02*
X46350Y-32483D01*
X46550Y-32283D02*
X46150Y-32283D01*
X46350Y-35627D02*
X46350Y-36027D01*
X46550Y-35827D02*
X46150Y-35827D01*
X47350Y-32083D02*
X47350Y-32483D01*
X47550Y-32283D02*
X47150Y-32283D01*
X47350Y-35627D02*
X47350Y-36027D01*
X47550Y-35827D02*
X47150Y-35827D01*
X48350Y-32083D02*
X48350Y-32483D01*
X48550Y-32283D02*
X48150Y-32283D01*
X48350Y-35627D02*
X48350Y-36027D01*
X48550Y-35827D02*
X48150Y-35827D01*
X53000Y-12650D02*
X53000Y-13050D01*
X53200Y-12850D02*
X52800Y-12850D01*
X53000Y-13750D02*
X53000Y-14150D01*
X53200Y-13950D02*
X52800Y-13950D01*
X53000Y-14800D02*
X53000Y-15200D01*
X53200Y-15000D02*
X52800Y-15000D01*
X53000Y-15900D02*
X53000Y-16300D01*
X53200Y-16100D02*
X52800Y-16100D01*
X53000Y-17000D02*
X53000Y-17400D01*
X53200Y-17200D02*
X52800Y-17200D01*
X53043Y-43099D02*
X53043Y-43499D01*
X53243Y-43299D02*
X52843Y-43299D01*
X53043Y-44099D02*
X53043Y-44499D01*
X53243Y-44299D02*
X52843Y-44299D01*
X54000Y-13200D02*
X54000Y-13600D01*
X54200Y-13400D02*
X53800Y-13400D01*
X54000Y-14300D02*
X54000Y-14700D01*
X54200Y-14500D02*
X53800Y-14500D01*
X54000Y-15350D02*
X54000Y-15750D01*
X54200Y-15550D02*
X53800Y-15550D01*
X54000Y-16450D02*
X54000Y-16850D01*
X54200Y-16650D02*
X53800Y-16650D01*
X54043Y-43099D02*
X54043Y-43499D01*
X54243Y-43299D02*
X53843Y-43299D01*
X54043Y-44099D02*
X54043Y-44499D01*
X54243Y-44299D02*
X53843Y-44299D01*
X55906Y-43099D02*
X55906Y-43499D01*
X56106Y-43299D02*
X55706Y-43299D01*
X55906Y-44099D02*
X55906Y-44499D01*
X56106Y-44299D02*
X55706Y-44299D01*
X26191Y-40157D02*
X26179Y-40273D01*
X26145Y-40385D01*
X26090Y-40489D01*
X26016Y-40579D01*
X25926Y-40654D01*
X25823Y-40710D01*
X25711Y-40744D01*
X25595Y-40756D01*
X25479Y-40746D01*
X25367Y-40713D01*
X25263Y-40659D01*
X25172Y-40585D01*
X25096Y-40495D01*
X25040Y-40393D01*
X25005Y-40281D01*
X24992Y-40165D01*
X25001Y-40049D01*
X25034Y-39937D01*
X25087Y-39832D01*
X25160Y-39741D01*
X25249Y-39665D01*
X25351Y-39608D01*
X25463Y-39571D01*
X25579Y-39558D01*
X25695Y-39567D01*
X25807Y-39598D01*
X25912Y-39651D01*
X26004Y-39723D01*
X26081Y-39812D01*
X26139Y-39913D01*
X26176Y-40025D01*
X26190Y-40141D01*
X26191Y-40157D01*
X24991Y-39557D02*
X26191Y-40757D01*
X26191Y-39557D02*
X24991Y-40757D01*
X34458Y-12106D02*
X34446Y-12222D01*
X34412Y-12334D01*
X34357Y-12438D01*
X34283Y-12528D01*
X34193Y-12603D01*
X34090Y-12659D01*
X33978Y-12693D01*
X33862Y-12705D01*
X33746Y-12695D01*
X33634Y-12662D01*
X33530Y-12608D01*
X33439Y-12534D01*
X33363Y-12444D01*
X33307Y-12342D01*
X33272Y-12230D01*
X33259Y-12114D01*
X33268Y-11998D01*
X33301Y-11886D01*
X33354Y-11781D01*
X33427Y-11690D01*
X33516Y-11614D01*
X33618Y-11557D01*
X33730Y-11520D01*
X33846Y-11507D01*
X33962Y-11516D01*
X34074Y-11547D01*
X34179Y-11600D01*
X34271Y-11672D01*
X34348Y-11761D01*
X34406Y-11862D01*
X34443Y-11974D01*
X34457Y-12090D01*
X34458Y-12106D01*
X33258Y-11506D02*
X34458Y-12706D01*
X34458Y-11506D02*
X33258Y-12706D01*
X45580Y-20177D02*
X45568Y-20293D01*
X45534Y-20405D01*
X45479Y-20509D01*
X45405Y-20599D01*
X45315Y-20674D01*
X45212Y-20730D01*
X45100Y-20764D01*
X44984Y-20776D01*
X44868Y-20766D01*
X44756Y-20733D01*
X44652Y-20679D01*
X44561Y-20605D01*
X44485Y-20515D01*
X44429Y-20413D01*
X44394Y-20301D01*
X44381Y-20185D01*
X44390Y-20069D01*
X44423Y-19957D01*
X44476Y-19852D01*
X44549Y-19761D01*
X44638Y-19685D01*
X44740Y-19628D01*
X44852Y-19591D01*
X44968Y-19578D01*
X45084Y-19587D01*
X45196Y-19618D01*
X45301Y-19671D01*
X45393Y-19743D01*
X45470Y-19832D01*
X45528Y-19933D01*
X45565Y-20045D01*
X45579Y-20161D01*
X45580Y-20177D01*
X44380Y-19577D02*
X45580Y-20777D01*
X45580Y-19577D02*
X44380Y-20777D01*
X54600Y-10050D02*
X54588Y-10166D01*
X54554Y-10278D01*
X54499Y-10382D01*
X54425Y-10472D01*
X54335Y-10547D01*
X54232Y-10603D01*
X54120Y-10637D01*
X54004Y-10649D01*
X53888Y-10639D01*
X53776Y-10606D01*
X53672Y-10552D01*
X53581Y-10478D01*
X53505Y-10388D01*
X53449Y-10286D01*
X53414Y-10174D01*
X53401Y-10058D01*
X53410Y-09942D01*
X53443Y-09830D01*
X53496Y-09725D01*
X53569Y-09634D01*
X53658Y-09558D01*
X53760Y-09501D01*
X53872Y-09464D01*
X53988Y-09451D01*
X54104Y-09460D01*
X54216Y-09491D01*
X54321Y-09544D01*
X54413Y-09616D01*
X54490Y-09705D01*
X54548Y-09806D01*
X54585Y-09918D01*
X54599Y-10034D01*
X54600Y-10050D01*
X53400Y-09450D02*
X54600Y-10650D01*
X54600Y-09450D02*
X53400Y-10650D01*
X54600Y-20050D02*
X54588Y-20166D01*
X54554Y-20278D01*
X54499Y-20382D01*
X54425Y-20472D01*
X54335Y-20547D01*
X54232Y-20603D01*
X54120Y-20637D01*
X54004Y-20649D01*
X53888Y-20639D01*
X53776Y-20606D01*
X53672Y-20552D01*
X53581Y-20478D01*
X53505Y-20388D01*
X53449Y-20286D01*
X53414Y-20174D01*
X53401Y-20058D01*
X53410Y-19942D01*
X53443Y-19830D01*
X53496Y-19725D01*
X53569Y-19634D01*
X53658Y-19558D01*
X53760Y-19501D01*
X53872Y-19464D01*
X53988Y-19451D01*
X54104Y-19460D01*
X54216Y-19491D01*
X54321Y-19544D01*
X54413Y-19616D01*
X54490Y-19705D01*
X54548Y-19806D01*
X54585Y-19918D01*
X54599Y-20034D01*
X54600Y-20050D01*
X53400Y-19450D02*
X54600Y-20650D01*
X54600Y-19450D02*
X53400Y-20650D01*
X56998Y-40157D02*
X56986Y-40273D01*
X56952Y-40385D01*
X56897Y-40489D01*
X56823Y-40579D01*
X56733Y-40654D01*
X56630Y-40710D01*
X56518Y-40744D01*
X56402Y-40756D01*
X56286Y-40746D01*
X56174Y-40713D01*
X56070Y-40659D01*
X55979Y-40585D01*
X55903Y-40495D01*
X55847Y-40393D01*
X55812Y-40281D01*
X55799Y-40165D01*
X55808Y-40049D01*
X55841Y-39937D01*
X55894Y-39832D01*
X55967Y-39741D01*
X56056Y-39665D01*
X56158Y-39608D01*
X56270Y-39571D01*
X56386Y-39558D01*
X56502Y-39567D01*
X56614Y-39598D01*
X56719Y-39651D01*
X56811Y-39723D01*
X56888Y-39812D01*
X56946Y-39913D01*
X56983Y-40025D01*
X56997Y-40141D01*
X56998Y-40157D01*
X55798Y-39557D02*
X56998Y-40757D01*
X56998Y-39557D02*
X55798Y-40757D01*
G54D12*
X23467Y-48205D02*
X23467Y-47405D01*
X23658Y-47405D01*
X23772Y-47443D01*
X23848Y-47519D01*
X23887Y-47595D01*
X23925Y-47748D01*
X23925Y-47862D01*
X23887Y-48014D01*
X23848Y-48091D01*
X23772Y-48167D01*
X23658Y-48205D01*
X23467Y-48205D01*
X24267Y-48205D02*
X24267Y-47671D01*
X24267Y-47824D02*
X24306Y-47748D01*
X24344Y-47710D01*
X24420Y-47671D01*
X24496Y-47671D01*
X24762Y-48205D02*
X24762Y-47671D01*
X24762Y-47405D02*
X24724Y-47443D01*
X24762Y-47481D01*
X24801Y-47443D01*
X24762Y-47405D01*
X24762Y-47481D01*
X25258Y-48205D02*
X25182Y-48167D01*
X25143Y-48091D01*
X25143Y-47405D01*
X25677Y-48205D02*
X25601Y-48167D01*
X25562Y-48091D01*
X25562Y-47405D01*
X26591Y-48205D02*
X26591Y-47405D01*
X26858Y-47976D01*
X27125Y-47405D01*
X27125Y-48205D01*
X27848Y-48205D02*
X27848Y-47786D01*
X27810Y-47710D01*
X27734Y-47671D01*
X27582Y-47671D01*
X27505Y-47710D01*
X27848Y-48167D02*
X27772Y-48205D01*
X27582Y-48205D01*
X27505Y-48167D01*
X27467Y-48091D01*
X27467Y-48014D01*
X27505Y-47938D01*
X27582Y-47900D01*
X27772Y-47900D01*
X27848Y-47862D01*
X28229Y-47671D02*
X28229Y-48471D01*
X28229Y-47710D02*
X28306Y-47671D01*
X28458Y-47671D01*
X28534Y-47710D01*
X28572Y-47748D01*
X28610Y-47824D01*
X28610Y-48052D01*
X28572Y-48129D01*
X28534Y-48167D01*
X28458Y-48205D01*
X28306Y-48205D01*
X28229Y-48167D01*
X28953Y-48129D02*
X28992Y-48167D01*
X28953Y-48205D01*
X28915Y-48167D01*
X28953Y-48129D01*
X28953Y-48205D01*
X28953Y-47710D02*
X28992Y-47748D01*
X28953Y-47786D01*
X28915Y-47748D01*
X28953Y-47710D01*
X28953Y-47786D01*
X22827Y-49436D02*
X23077Y-49686D01*
X23077Y-49436D02*
X22827Y-49686D01*
X23620Y-49085D02*
X23696Y-49085D01*
X23772Y-49123D01*
X23810Y-49161D01*
X23848Y-49237D01*
X23887Y-49390D01*
X23887Y-49580D01*
X23848Y-49732D01*
X23810Y-49809D01*
X23772Y-49847D01*
X23696Y-49885D01*
X23620Y-49885D01*
X23544Y-49847D01*
X23506Y-49809D01*
X23467Y-49732D01*
X23429Y-49580D01*
X23429Y-49390D01*
X23467Y-49237D01*
X23506Y-49161D01*
X23544Y-49123D01*
X23620Y-49085D01*
X24229Y-49809D02*
X24268Y-49847D01*
X24229Y-49885D01*
X24191Y-49847D01*
X24229Y-49809D01*
X24229Y-49885D01*
X24953Y-49085D02*
X24801Y-49085D01*
X24725Y-49123D01*
X24687Y-49161D01*
X24610Y-49275D01*
X24572Y-49428D01*
X24572Y-49732D01*
X24610Y-49809D01*
X24649Y-49847D01*
X24725Y-49885D01*
X24877Y-49885D01*
X24953Y-49847D01*
X24991Y-49809D01*
X25030Y-49732D01*
X25030Y-49542D01*
X24991Y-49466D01*
X24953Y-49428D01*
X24877Y-49390D01*
X24725Y-49390D01*
X24649Y-49428D01*
X24610Y-49466D01*
X24572Y-49542D01*
X25715Y-49351D02*
X25715Y-49885D01*
X25525Y-49047D02*
X25334Y-49618D01*
X25830Y-49618D01*
X26134Y-49885D02*
X26134Y-49351D01*
X26134Y-49428D02*
X26173Y-49390D01*
X26249Y-49351D01*
X26363Y-49351D01*
X26439Y-49390D01*
X26477Y-49466D01*
X26477Y-49885D01*
X26477Y-49466D02*
X26515Y-49390D01*
X26592Y-49351D01*
X26706Y-49351D01*
X26782Y-49390D01*
X26820Y-49466D01*
X26820Y-49885D01*
X27201Y-49885D02*
X27201Y-49351D01*
X27201Y-49428D02*
X27240Y-49390D01*
X27316Y-49351D01*
X27430Y-49351D01*
X27506Y-49390D01*
X27544Y-49466D01*
X27544Y-49885D01*
X27544Y-49466D02*
X27582Y-49390D01*
X27659Y-49351D01*
X27773Y-49351D01*
X27849Y-49390D01*
X27887Y-49466D01*
X27887Y-49885D01*
X29450Y-49047D02*
X28764Y-50075D01*
X30479Y-49085D02*
X30555Y-49085D01*
X30631Y-49123D01*
X30669Y-49161D01*
X30707Y-49237D01*
X30746Y-49390D01*
X30746Y-49580D01*
X30707Y-49732D01*
X30669Y-49809D01*
X30631Y-49847D01*
X30555Y-49885D01*
X30479Y-49885D01*
X30403Y-49847D01*
X30365Y-49809D01*
X30326Y-49732D01*
X30288Y-49580D01*
X30288Y-49390D01*
X30326Y-49237D01*
X30365Y-49161D01*
X30403Y-49123D01*
X30479Y-49085D01*
X31088Y-49809D02*
X31127Y-49847D01*
X31088Y-49885D01*
X31050Y-49847D01*
X31088Y-49809D01*
X31088Y-49885D01*
X31622Y-49085D02*
X31698Y-49085D01*
X31774Y-49123D01*
X31812Y-49161D01*
X31850Y-49237D01*
X31889Y-49390D01*
X31889Y-49580D01*
X31850Y-49732D01*
X31812Y-49809D01*
X31774Y-49847D01*
X31698Y-49885D01*
X31622Y-49885D01*
X31546Y-49847D01*
X31508Y-49809D01*
X31469Y-49732D01*
X31431Y-49580D01*
X31431Y-49390D01*
X31469Y-49237D01*
X31508Y-49161D01*
X31546Y-49123D01*
X31622Y-49085D01*
X32193Y-49161D02*
X32231Y-49123D01*
X32308Y-49085D01*
X32498Y-49085D01*
X32574Y-49123D01*
X32612Y-49161D01*
X32651Y-49237D01*
X32651Y-49313D01*
X32612Y-49428D01*
X32155Y-49885D01*
X32651Y-49885D01*
X33374Y-49085D02*
X32993Y-49085D01*
X32955Y-49466D01*
X32993Y-49428D01*
X33070Y-49390D01*
X33260Y-49390D01*
X33336Y-49428D01*
X33374Y-49466D01*
X33413Y-49542D01*
X33413Y-49732D01*
X33374Y-49809D01*
X33336Y-49847D01*
X33260Y-49885D01*
X33070Y-49885D01*
X32993Y-49847D01*
X32955Y-49809D01*
X33717Y-49085D02*
X33717Y-49237D01*
X34022Y-49085D02*
X34022Y-49237D01*
X35204Y-50190D02*
X35166Y-50151D01*
X35090Y-50037D01*
X35052Y-49961D01*
X35014Y-49847D01*
X34975Y-49656D01*
X34975Y-49504D01*
X35014Y-49313D01*
X35052Y-49199D01*
X35090Y-49123D01*
X35166Y-49009D01*
X35204Y-48971D01*
X35928Y-49885D02*
X35470Y-49885D01*
X35699Y-49885D02*
X35699Y-49085D01*
X35623Y-49199D01*
X35547Y-49275D01*
X35470Y-49313D01*
X36613Y-49085D02*
X36461Y-49085D01*
X36385Y-49123D01*
X36347Y-49161D01*
X36270Y-49275D01*
X36232Y-49428D01*
X36232Y-49732D01*
X36270Y-49809D01*
X36309Y-49847D01*
X36385Y-49885D01*
X36537Y-49885D01*
X36613Y-49847D01*
X36651Y-49809D01*
X36690Y-49732D01*
X36690Y-49542D01*
X36651Y-49466D01*
X36613Y-49428D01*
X36537Y-49390D01*
X36385Y-49390D01*
X36309Y-49428D01*
X36270Y-49466D01*
X36232Y-49542D01*
X37642Y-49885D02*
X37642Y-49085D01*
X37985Y-49885D02*
X37985Y-49466D01*
X37947Y-49390D01*
X37871Y-49351D01*
X37757Y-49351D01*
X37681Y-49390D01*
X37642Y-49428D01*
X38481Y-49885D02*
X38405Y-49847D01*
X38366Y-49809D01*
X38328Y-49732D01*
X38328Y-49504D01*
X38366Y-49428D01*
X38405Y-49390D01*
X38481Y-49351D01*
X38595Y-49351D01*
X38671Y-49390D01*
X38709Y-49428D01*
X38747Y-49504D01*
X38747Y-49732D01*
X38709Y-49809D01*
X38671Y-49847D01*
X38595Y-49885D01*
X38481Y-49885D01*
X39205Y-49885D02*
X39129Y-49847D01*
X39090Y-49771D01*
X39090Y-49085D01*
X39814Y-49847D02*
X39738Y-49885D01*
X39586Y-49885D01*
X39509Y-49847D01*
X39471Y-49771D01*
X39471Y-49466D01*
X39509Y-49390D01*
X39586Y-49351D01*
X39738Y-49351D01*
X39814Y-49390D01*
X39852Y-49466D01*
X39852Y-49542D01*
X39471Y-49618D01*
X40157Y-49847D02*
X40234Y-49885D01*
X40386Y-49885D01*
X40462Y-49847D01*
X40500Y-49771D01*
X40500Y-49732D01*
X40462Y-49656D01*
X40386Y-49618D01*
X40272Y-49618D01*
X40195Y-49580D01*
X40157Y-49504D01*
X40157Y-49466D01*
X40195Y-49390D01*
X40272Y-49351D01*
X40386Y-49351D01*
X40462Y-49390D01*
X40767Y-50190D02*
X40805Y-50151D01*
X40882Y-50037D01*
X40920Y-49961D01*
X40958Y-49847D01*
X40996Y-49656D01*
X40996Y-49504D01*
X40958Y-49313D01*
X40920Y-49199D01*
X40882Y-49123D01*
X40805Y-49009D01*
X40767Y-48971D01*
G54D10*
X23077Y-50616D02*
X23073Y-50647D01*
X23064Y-50676D01*
X23050Y-50704D01*
X23030Y-50728D01*
X23006Y-50748D01*
X22979Y-50763D01*
X22949Y-50772D01*
X22918Y-50775D01*
X22888Y-50773D01*
X22858Y-50764D01*
X22830Y-50749D01*
X22806Y-50730D01*
X22785Y-50706D01*
X22770Y-50679D01*
X22761Y-50649D01*
X22758Y-50618D01*
X22760Y-50588D01*
X22769Y-50558D01*
X22783Y-50530D01*
X22802Y-50505D01*
X22826Y-50485D01*
X22853Y-50470D01*
X22883Y-50460D01*
X22914Y-50457D01*
X22944Y-50459D01*
X22974Y-50467D01*
X23002Y-50481D01*
X23027Y-50501D01*
X23047Y-50524D01*
X23063Y-50551D01*
X23073Y-50581D01*
X23076Y-50612D01*
X23077Y-50616D01*
G54D12*
X23620Y-50140D02*
X23696Y-50140D01*
X23772Y-50178D01*
X23810Y-50216D01*
X23848Y-50292D01*
X23887Y-50445D01*
X23887Y-50635D01*
X23848Y-50787D01*
X23810Y-50864D01*
X23772Y-50902D01*
X23696Y-50940D01*
X23620Y-50940D01*
X23544Y-50902D01*
X23506Y-50864D01*
X23467Y-50787D01*
X23429Y-50635D01*
X23429Y-50445D01*
X23467Y-50292D01*
X23506Y-50216D01*
X23544Y-50178D01*
X23620Y-50140D01*
X24229Y-50864D02*
X24268Y-50902D01*
X24229Y-50940D01*
X24191Y-50902D01*
X24229Y-50864D01*
X24229Y-50940D01*
X24725Y-50483D02*
X24649Y-50445D01*
X24610Y-50406D01*
X24572Y-50330D01*
X24572Y-50292D01*
X24610Y-50216D01*
X24649Y-50178D01*
X24725Y-50140D01*
X24877Y-50140D01*
X24953Y-50178D01*
X24991Y-50216D01*
X25030Y-50292D01*
X25030Y-50330D01*
X24991Y-50406D01*
X24953Y-50445D01*
X24877Y-50483D01*
X24725Y-50483D01*
X24649Y-50521D01*
X24610Y-50559D01*
X24572Y-50635D01*
X24572Y-50787D01*
X24610Y-50864D01*
X24649Y-50902D01*
X24725Y-50940D01*
X24877Y-50940D01*
X24953Y-50902D01*
X24991Y-50864D01*
X25030Y-50787D01*
X25030Y-50635D01*
X24991Y-50559D01*
X24953Y-50521D01*
X24877Y-50483D01*
X25792Y-50940D02*
X25334Y-50940D01*
X25563Y-50940D02*
X25563Y-50140D01*
X25487Y-50254D01*
X25411Y-50330D01*
X25334Y-50368D01*
X26134Y-50940D02*
X26134Y-50406D01*
X26134Y-50483D02*
X26173Y-50445D01*
X26249Y-50406D01*
X26363Y-50406D01*
X26439Y-50445D01*
X26477Y-50521D01*
X26477Y-50940D01*
X26477Y-50521D02*
X26515Y-50445D01*
X26592Y-50406D01*
X26706Y-50406D01*
X26782Y-50445D01*
X26820Y-50521D01*
X26820Y-50940D01*
X27201Y-50940D02*
X27201Y-50406D01*
X27201Y-50483D02*
X27240Y-50445D01*
X27316Y-50406D01*
X27430Y-50406D01*
X27506Y-50445D01*
X27544Y-50521D01*
X27544Y-50940D01*
X27544Y-50521D02*
X27582Y-50445D01*
X27659Y-50406D01*
X27773Y-50406D01*
X27849Y-50445D01*
X27887Y-50521D01*
X27887Y-50940D01*
X29450Y-50102D02*
X28764Y-51130D01*
X30479Y-50140D02*
X30555Y-50140D01*
X30631Y-50178D01*
X30669Y-50216D01*
X30707Y-50292D01*
X30746Y-50445D01*
X30746Y-50635D01*
X30707Y-50787D01*
X30669Y-50864D01*
X30631Y-50902D01*
X30555Y-50940D01*
X30479Y-50940D01*
X30403Y-50902D01*
X30365Y-50864D01*
X30326Y-50787D01*
X30288Y-50635D01*
X30288Y-50445D01*
X30326Y-50292D01*
X30365Y-50216D01*
X30403Y-50178D01*
X30479Y-50140D01*
X31088Y-50864D02*
X31127Y-50902D01*
X31088Y-50940D01*
X31050Y-50902D01*
X31088Y-50864D01*
X31088Y-50940D01*
X31622Y-50140D02*
X31698Y-50140D01*
X31774Y-50178D01*
X31812Y-50216D01*
X31850Y-50292D01*
X31889Y-50445D01*
X31889Y-50635D01*
X31850Y-50787D01*
X31812Y-50864D01*
X31774Y-50902D01*
X31698Y-50940D01*
X31622Y-50940D01*
X31546Y-50902D01*
X31508Y-50864D01*
X31469Y-50787D01*
X31431Y-50635D01*
X31431Y-50445D01*
X31469Y-50292D01*
X31508Y-50216D01*
X31546Y-50178D01*
X31622Y-50140D01*
X32155Y-50140D02*
X32651Y-50140D01*
X32384Y-50445D01*
X32498Y-50445D01*
X32574Y-50483D01*
X32612Y-50521D01*
X32651Y-50597D01*
X32651Y-50787D01*
X32612Y-50864D01*
X32574Y-50902D01*
X32498Y-50940D01*
X32270Y-50940D01*
X32193Y-50902D01*
X32155Y-50864D01*
X32955Y-50216D02*
X32993Y-50178D01*
X33070Y-50140D01*
X33260Y-50140D01*
X33336Y-50178D01*
X33374Y-50216D01*
X33413Y-50292D01*
X33413Y-50368D01*
X33374Y-50483D01*
X32917Y-50940D01*
X33413Y-50940D01*
X33717Y-50140D02*
X33717Y-50292D01*
X34022Y-50140D02*
X34022Y-50292D01*
X35204Y-51245D02*
X35166Y-51206D01*
X35090Y-51092D01*
X35052Y-51016D01*
X35014Y-50902D01*
X34975Y-50711D01*
X34975Y-50559D01*
X35014Y-50368D01*
X35052Y-50254D01*
X35090Y-50178D01*
X35166Y-50064D01*
X35204Y-50026D01*
X35928Y-50940D02*
X35470Y-50940D01*
X35699Y-50940D02*
X35699Y-50140D01*
X35623Y-50254D01*
X35547Y-50330D01*
X35470Y-50368D01*
X36613Y-50406D02*
X36613Y-50940D01*
X36423Y-50102D02*
X36232Y-50673D01*
X36728Y-50673D01*
X37452Y-50940D02*
X36994Y-50940D01*
X37223Y-50940D02*
X37223Y-50140D01*
X37147Y-50254D01*
X37071Y-50330D01*
X36994Y-50368D01*
X38404Y-50940D02*
X38404Y-50140D01*
X38747Y-50940D02*
X38747Y-50521D01*
X38709Y-50445D01*
X38633Y-50406D01*
X38519Y-50406D01*
X38443Y-50445D01*
X38404Y-50483D01*
X39243Y-50940D02*
X39167Y-50902D01*
X39128Y-50864D01*
X39090Y-50787D01*
X39090Y-50559D01*
X39128Y-50483D01*
X39167Y-50445D01*
X39243Y-50406D01*
X39357Y-50406D01*
X39433Y-50445D01*
X39471Y-50483D01*
X39509Y-50559D01*
X39509Y-50787D01*
X39471Y-50864D01*
X39433Y-50902D01*
X39357Y-50940D01*
X39243Y-50940D01*
X39967Y-50940D02*
X39891Y-50902D01*
X39852Y-50826D01*
X39852Y-50140D01*
X40576Y-50902D02*
X40500Y-50940D01*
X40348Y-50940D01*
X40271Y-50902D01*
X40233Y-50826D01*
X40233Y-50521D01*
X40271Y-50445D01*
X40348Y-50406D01*
X40500Y-50406D01*
X40576Y-50445D01*
X40614Y-50521D01*
X40614Y-50597D01*
X40233Y-50673D01*
X40919Y-50902D02*
X40996Y-50940D01*
X41148Y-50940D01*
X41224Y-50902D01*
X41262Y-50826D01*
X41262Y-50787D01*
X41224Y-50711D01*
X41148Y-50673D01*
X41034Y-50673D01*
X40957Y-50635D01*
X40919Y-50559D01*
X40919Y-50521D01*
X40957Y-50445D01*
X41034Y-50406D01*
X41148Y-50406D01*
X41224Y-50445D01*
X41529Y-51245D02*
X41567Y-51206D01*
X41644Y-51092D01*
X41682Y-51016D01*
X41720Y-50902D01*
X41758Y-50711D01*
X41758Y-50559D01*
X41720Y-50368D01*
X41682Y-50254D01*
X41644Y-50178D01*
X41567Y-50064D01*
X41529Y-50026D01*
X22877Y-51471D02*
X22877Y-51871D01*
X23077Y-51671D02*
X22677Y-51671D01*
X23887Y-51995D02*
X23429Y-51995D01*
X23658Y-51995D02*
X23658Y-51195D01*
X23582Y-51309D01*
X23506Y-51385D01*
X23429Y-51423D01*
X24229Y-51919D02*
X24268Y-51957D01*
X24229Y-51995D01*
X24191Y-51957D01*
X24229Y-51919D01*
X24229Y-51995D01*
X24763Y-51195D02*
X24839Y-51195D01*
X24915Y-51233D01*
X24953Y-51271D01*
X24991Y-51347D01*
X25030Y-51500D01*
X25030Y-51690D01*
X24991Y-51842D01*
X24953Y-51919D01*
X24915Y-51957D01*
X24839Y-51995D01*
X24763Y-51995D01*
X24687Y-51957D01*
X24649Y-51919D01*
X24610Y-51842D01*
X24572Y-51690D01*
X24572Y-51500D01*
X24610Y-51347D01*
X24649Y-51271D01*
X24687Y-51233D01*
X24763Y-51195D01*
X25334Y-51271D02*
X25372Y-51233D01*
X25449Y-51195D01*
X25639Y-51195D01*
X25715Y-51233D01*
X25753Y-51271D01*
X25792Y-51347D01*
X25792Y-51423D01*
X25753Y-51538D01*
X25296Y-51995D01*
X25792Y-51995D01*
X26134Y-51995D02*
X26134Y-51461D01*
X26134Y-51538D02*
X26173Y-51500D01*
X26249Y-51461D01*
X26363Y-51461D01*
X26439Y-51500D01*
X26477Y-51576D01*
X26477Y-51995D01*
X26477Y-51576D02*
X26515Y-51500D01*
X26592Y-51461D01*
X26706Y-51461D01*
X26782Y-51500D01*
X26820Y-51576D01*
X26820Y-51995D01*
X27201Y-51995D02*
X27201Y-51461D01*
X27201Y-51538D02*
X27240Y-51500D01*
X27316Y-51461D01*
X27430Y-51461D01*
X27506Y-51500D01*
X27544Y-51576D01*
X27544Y-51995D01*
X27544Y-51576D02*
X27582Y-51500D01*
X27659Y-51461D01*
X27773Y-51461D01*
X27849Y-51500D01*
X27887Y-51576D01*
X27887Y-51995D01*
X29450Y-51157D02*
X28764Y-52185D01*
X30479Y-51195D02*
X30555Y-51195D01*
X30631Y-51233D01*
X30669Y-51271D01*
X30707Y-51347D01*
X30746Y-51500D01*
X30746Y-51690D01*
X30707Y-51842D01*
X30669Y-51919D01*
X30631Y-51957D01*
X30555Y-51995D01*
X30479Y-51995D01*
X30403Y-51957D01*
X30365Y-51919D01*
X30326Y-51842D01*
X30288Y-51690D01*
X30288Y-51500D01*
X30326Y-51347D01*
X30365Y-51271D01*
X30403Y-51233D01*
X30479Y-51195D01*
X31088Y-51919D02*
X31127Y-51957D01*
X31088Y-51995D01*
X31050Y-51957D01*
X31088Y-51919D01*
X31088Y-51995D01*
X31622Y-51195D02*
X31698Y-51195D01*
X31774Y-51233D01*
X31812Y-51271D01*
X31850Y-51347D01*
X31889Y-51500D01*
X31889Y-51690D01*
X31850Y-51842D01*
X31812Y-51919D01*
X31774Y-51957D01*
X31698Y-51995D01*
X31622Y-51995D01*
X31546Y-51957D01*
X31508Y-51919D01*
X31469Y-51842D01*
X31431Y-51690D01*
X31431Y-51500D01*
X31469Y-51347D01*
X31508Y-51271D01*
X31546Y-51233D01*
X31622Y-51195D01*
X32574Y-51461D02*
X32574Y-51995D01*
X32384Y-51157D02*
X32193Y-51728D01*
X32689Y-51728D01*
X33146Y-51195D02*
X33222Y-51195D01*
X33298Y-51233D01*
X33336Y-51271D01*
X33374Y-51347D01*
X33413Y-51500D01*
X33413Y-51690D01*
X33374Y-51842D01*
X33336Y-51919D01*
X33298Y-51957D01*
X33222Y-51995D01*
X33146Y-51995D01*
X33070Y-51957D01*
X33032Y-51919D01*
X32993Y-51842D01*
X32955Y-51690D01*
X32955Y-51500D01*
X32993Y-51347D01*
X33032Y-51271D01*
X33070Y-51233D01*
X33146Y-51195D01*
X33717Y-51195D02*
X33717Y-51347D01*
X34022Y-51195D02*
X34022Y-51347D01*
X35204Y-52300D02*
X35166Y-52261D01*
X35090Y-52147D01*
X35052Y-52071D01*
X35014Y-51957D01*
X34975Y-51766D01*
X34975Y-51614D01*
X35014Y-51423D01*
X35052Y-51309D01*
X35090Y-51233D01*
X35166Y-51119D01*
X35204Y-51081D01*
X35432Y-51195D02*
X35928Y-51195D01*
X35661Y-51500D01*
X35775Y-51500D01*
X35851Y-51538D01*
X35889Y-51576D01*
X35928Y-51652D01*
X35928Y-51842D01*
X35889Y-51919D01*
X35851Y-51957D01*
X35775Y-51995D01*
X35547Y-51995D01*
X35470Y-51957D01*
X35432Y-51919D01*
X36613Y-51195D02*
X36461Y-51195D01*
X36385Y-51233D01*
X36347Y-51271D01*
X36270Y-51385D01*
X36232Y-51538D01*
X36232Y-51842D01*
X36270Y-51919D01*
X36309Y-51957D01*
X36385Y-51995D01*
X36537Y-51995D01*
X36613Y-51957D01*
X36651Y-51919D01*
X36690Y-51842D01*
X36690Y-51652D01*
X36651Y-51576D01*
X36613Y-51538D01*
X36537Y-51500D01*
X36385Y-51500D01*
X36309Y-51538D01*
X36270Y-51576D01*
X36232Y-51652D01*
X37642Y-51995D02*
X37642Y-51195D01*
X37985Y-51995D02*
X37985Y-51576D01*
X37947Y-51500D01*
X37871Y-51461D01*
X37757Y-51461D01*
X37681Y-51500D01*
X37642Y-51538D01*
X38481Y-51995D02*
X38405Y-51957D01*
X38366Y-51919D01*
X38328Y-51842D01*
X38328Y-51614D01*
X38366Y-51538D01*
X38405Y-51500D01*
X38481Y-51461D01*
X38595Y-51461D01*
X38671Y-51500D01*
X38709Y-51538D01*
X38747Y-51614D01*
X38747Y-51842D01*
X38709Y-51919D01*
X38671Y-51957D01*
X38595Y-51995D01*
X38481Y-51995D01*
X39205Y-51995D02*
X39129Y-51957D01*
X39090Y-51881D01*
X39090Y-51195D01*
X39814Y-51957D02*
X39738Y-51995D01*
X39586Y-51995D01*
X39509Y-51957D01*
X39471Y-51881D01*
X39471Y-51576D01*
X39509Y-51500D01*
X39586Y-51461D01*
X39738Y-51461D01*
X39814Y-51500D01*
X39852Y-51576D01*
X39852Y-51652D01*
X39471Y-51728D01*
X40157Y-51957D02*
X40234Y-51995D01*
X40386Y-51995D01*
X40462Y-51957D01*
X40500Y-51881D01*
X40500Y-51842D01*
X40462Y-51766D01*
X40386Y-51728D01*
X40272Y-51728D01*
X40195Y-51690D01*
X40157Y-51614D01*
X40157Y-51576D01*
X40195Y-51500D01*
X40272Y-51461D01*
X40386Y-51461D01*
X40462Y-51500D01*
X40767Y-52300D02*
X40805Y-52261D01*
X40882Y-52147D01*
X40920Y-52071D01*
X40958Y-51957D01*
X40996Y-51766D01*
X40996Y-51614D01*
X40958Y-51423D01*
X40920Y-51309D01*
X40882Y-51233D01*
X40805Y-51119D01*
X40767Y-51081D01*
G54D10*
X23077Y-52726D02*
X23065Y-52842D01*
X23031Y-52954D01*
X22976Y-53058D01*
X22902Y-53148D01*
X22812Y-53223D01*
X22709Y-53279D01*
X22597Y-53313D01*
X22481Y-53325D01*
X22365Y-53315D01*
X22253Y-53282D01*
X22149Y-53228D01*
X22058Y-53154D01*
X21982Y-53064D01*
X21926Y-52962D01*
X21891Y-52850D01*
X21878Y-52734D01*
X21887Y-52618D01*
X21920Y-52506D01*
X21973Y-52401D01*
X22046Y-52310D01*
X22135Y-52234D01*
X22237Y-52177D01*
X22349Y-52140D01*
X22465Y-52127D01*
X22581Y-52136D01*
X22693Y-52167D01*
X22798Y-52220D01*
X22890Y-52292D01*
X22967Y-52381D01*
X23025Y-52482D01*
X23062Y-52594D01*
X23076Y-52710D01*
X23077Y-52726D01*
X21877Y-52126D02*
X23077Y-53326D01*
X23077Y-52126D02*
X21877Y-53326D01*
G54D12*
X23391Y-52250D02*
X23887Y-52250D01*
X23620Y-52555D01*
X23734Y-52555D01*
X23810Y-52593D01*
X23848Y-52631D01*
X23887Y-52707D01*
X23887Y-52897D01*
X23848Y-52974D01*
X23810Y-53012D01*
X23734Y-53050D01*
X23506Y-53050D01*
X23429Y-53012D01*
X23391Y-52974D01*
X24229Y-52974D02*
X24268Y-53012D01*
X24229Y-53050D01*
X24191Y-53012D01*
X24229Y-52974D01*
X24229Y-53050D01*
X24763Y-52250D02*
X24839Y-52250D01*
X24915Y-52288D01*
X24953Y-52326D01*
X24991Y-52402D01*
X25030Y-52555D01*
X25030Y-52745D01*
X24991Y-52897D01*
X24953Y-52974D01*
X24915Y-53012D01*
X24839Y-53050D01*
X24763Y-53050D01*
X24687Y-53012D01*
X24649Y-52974D01*
X24610Y-52897D01*
X24572Y-52745D01*
X24572Y-52555D01*
X24610Y-52402D01*
X24649Y-52326D01*
X24687Y-52288D01*
X24763Y-52250D01*
X25753Y-52250D02*
X25372Y-52250D01*
X25334Y-52631D01*
X25372Y-52593D01*
X25449Y-52555D01*
X25639Y-52555D01*
X25715Y-52593D01*
X25753Y-52631D01*
X25792Y-52707D01*
X25792Y-52897D01*
X25753Y-52974D01*
X25715Y-53012D01*
X25639Y-53050D01*
X25449Y-53050D01*
X25372Y-53012D01*
X25334Y-52974D01*
X26134Y-53050D02*
X26134Y-52516D01*
X26134Y-52593D02*
X26173Y-52555D01*
X26249Y-52516D01*
X26363Y-52516D01*
X26439Y-52555D01*
X26477Y-52631D01*
X26477Y-53050D01*
X26477Y-52631D02*
X26515Y-52555D01*
X26592Y-52516D01*
X26706Y-52516D01*
X26782Y-52555D01*
X26820Y-52631D01*
X26820Y-53050D01*
X27201Y-53050D02*
X27201Y-52516D01*
X27201Y-52593D02*
X27240Y-52555D01*
X27316Y-52516D01*
X27430Y-52516D01*
X27506Y-52555D01*
X27544Y-52631D01*
X27544Y-53050D01*
X27544Y-52631D02*
X27582Y-52555D01*
X27659Y-52516D01*
X27773Y-52516D01*
X27849Y-52555D01*
X27887Y-52631D01*
X27887Y-53050D01*
X29450Y-52212D02*
X28764Y-53240D01*
X30479Y-52250D02*
X30555Y-52250D01*
X30631Y-52288D01*
X30669Y-52326D01*
X30707Y-52402D01*
X30746Y-52555D01*
X30746Y-52745D01*
X30707Y-52897D01*
X30669Y-52974D01*
X30631Y-53012D01*
X30555Y-53050D01*
X30479Y-53050D01*
X30403Y-53012D01*
X30365Y-52974D01*
X30326Y-52897D01*
X30288Y-52745D01*
X30288Y-52555D01*
X30326Y-52402D01*
X30365Y-52326D01*
X30403Y-52288D01*
X30479Y-52250D01*
X31088Y-52974D02*
X31127Y-53012D01*
X31088Y-53050D01*
X31050Y-53012D01*
X31088Y-52974D01*
X31088Y-53050D01*
X31889Y-53050D02*
X31431Y-53050D01*
X31660Y-53050D02*
X31660Y-52250D01*
X31584Y-52364D01*
X31508Y-52440D01*
X31431Y-52478D01*
X32193Y-52326D02*
X32231Y-52288D01*
X32308Y-52250D01*
X32498Y-52250D01*
X32574Y-52288D01*
X32612Y-52326D01*
X32651Y-52402D01*
X32651Y-52478D01*
X32612Y-52593D01*
X32155Y-53050D01*
X32651Y-53050D01*
X33146Y-52250D02*
X33222Y-52250D01*
X33298Y-52288D01*
X33336Y-52326D01*
X33374Y-52402D01*
X33413Y-52555D01*
X33413Y-52745D01*
X33374Y-52897D01*
X33336Y-52974D01*
X33298Y-53012D01*
X33222Y-53050D01*
X33146Y-53050D01*
X33070Y-53012D01*
X33032Y-52974D01*
X32993Y-52897D01*
X32955Y-52745D01*
X32955Y-52555D01*
X32993Y-52402D01*
X33032Y-52326D01*
X33070Y-52288D01*
X33146Y-52250D01*
X33717Y-52250D02*
X33717Y-52402D01*
X34022Y-52250D02*
X34022Y-52402D01*
X35204Y-53355D02*
X35166Y-53316D01*
X35090Y-53202D01*
X35052Y-53126D01*
X35014Y-53012D01*
X34975Y-52821D01*
X34975Y-52669D01*
X35014Y-52478D01*
X35052Y-52364D01*
X35090Y-52288D01*
X35166Y-52174D01*
X35204Y-52136D01*
X35851Y-52250D02*
X35699Y-52250D01*
X35623Y-52288D01*
X35585Y-52326D01*
X35508Y-52440D01*
X35470Y-52593D01*
X35470Y-52897D01*
X35508Y-52974D01*
X35547Y-53012D01*
X35623Y-53050D01*
X35775Y-53050D01*
X35851Y-53012D01*
X35889Y-52974D01*
X35928Y-52897D01*
X35928Y-52707D01*
X35889Y-52631D01*
X35851Y-52593D01*
X35775Y-52555D01*
X35623Y-52555D01*
X35547Y-52593D01*
X35508Y-52631D01*
X35470Y-52707D01*
X36880Y-53050D02*
X36880Y-52250D01*
X37223Y-53050D02*
X37223Y-52631D01*
X37185Y-52555D01*
X37109Y-52516D01*
X36995Y-52516D01*
X36919Y-52555D01*
X36880Y-52593D01*
X37719Y-53050D02*
X37643Y-53012D01*
X37604Y-52974D01*
X37566Y-52897D01*
X37566Y-52669D01*
X37604Y-52593D01*
X37643Y-52555D01*
X37719Y-52516D01*
X37833Y-52516D01*
X37909Y-52555D01*
X37947Y-52593D01*
X37985Y-52669D01*
X37985Y-52897D01*
X37947Y-52974D01*
X37909Y-53012D01*
X37833Y-53050D01*
X37719Y-53050D01*
X38443Y-53050D02*
X38367Y-53012D01*
X38328Y-52936D01*
X38328Y-52250D01*
X39052Y-53012D02*
X38976Y-53050D01*
X38824Y-53050D01*
X38747Y-53012D01*
X38709Y-52936D01*
X38709Y-52631D01*
X38747Y-52555D01*
X38824Y-52516D01*
X38976Y-52516D01*
X39052Y-52555D01*
X39090Y-52631D01*
X39090Y-52707D01*
X38709Y-52783D01*
X39395Y-53012D02*
X39472Y-53050D01*
X39624Y-53050D01*
X39700Y-53012D01*
X39738Y-52936D01*
X39738Y-52897D01*
X39700Y-52821D01*
X39624Y-52783D01*
X39510Y-52783D01*
X39433Y-52745D01*
X39395Y-52669D01*
X39395Y-52631D01*
X39433Y-52555D01*
X39510Y-52516D01*
X39624Y-52516D01*
X39700Y-52555D01*
X40005Y-53355D02*
X40043Y-53316D01*
X40120Y-53202D01*
X40158Y-53126D01*
X40196Y-53012D01*
X40234Y-52821D01*
X40234Y-52669D01*
X40196Y-52478D01*
X40158Y-52364D01*
X40120Y-52288D01*
X40043Y-52174D01*
X40005Y-52136D01*
M02*
