G04 (created by PCBNEW-RS274X (2012-apr-16-27)-stable) date Mon 09 Dec 2013 22:44:26 GMT*
G01*
G70*
G90*
%MOIN*%
G04 Gerber Fmt 3.4, Leading zero omitted, Abs format*
%FSLAX34Y34*%
G04 APERTURE LIST*
%ADD10C,0.006000*%
%ADD11C,0.015000*%
%ADD12C,0.008000*%
%ADD13C,0.010000*%
%ADD14C,0.012000*%
%ADD15C,0.003500*%
%ADD16C,0.011300*%
%ADD17C,0.010700*%
G04 APERTURE END LIST*
G54D10*
G54D11*
X60827Y-05906D02*
X22638Y-05906D01*
X60827Y-49213D02*
X60827Y-05906D01*
X22638Y-49213D02*
X60827Y-49213D01*
X22638Y-05906D02*
X22638Y-49213D01*
G54D12*
X36295Y-13386D02*
X36495Y-13386D01*
X39295Y-13386D02*
X39095Y-13386D01*
X39095Y-13386D02*
X39095Y-12986D01*
X39095Y-12986D02*
X36495Y-12986D01*
X36495Y-12986D02*
X36495Y-13786D01*
X36495Y-13786D02*
X39095Y-13786D01*
X39095Y-13786D02*
X39095Y-13386D01*
X36495Y-13186D02*
X36695Y-12986D01*
X36295Y-14961D02*
X36495Y-14961D01*
X39295Y-14961D02*
X39095Y-14961D01*
X39095Y-14961D02*
X39095Y-14561D01*
X39095Y-14561D02*
X36495Y-14561D01*
X36495Y-14561D02*
X36495Y-15361D01*
X36495Y-15361D02*
X39095Y-15361D01*
X39095Y-15361D02*
X39095Y-14961D01*
X36495Y-14761D02*
X36695Y-14561D01*
G54D13*
X48850Y-32783D02*
X44850Y-32783D01*
X48850Y-31783D02*
X44850Y-31783D01*
X44850Y-31783D02*
X44850Y-32783D01*
X48850Y-32783D02*
X48850Y-31783D01*
G54D14*
X52339Y-44543D02*
X50339Y-44543D01*
X50339Y-44543D02*
X50339Y-42543D01*
X50339Y-42543D02*
X52339Y-42543D01*
X52339Y-42543D02*
X52339Y-44543D01*
G54D10*
X36000Y-11500D02*
X36000Y-10500D01*
X36000Y-10500D02*
X38000Y-10500D01*
X38000Y-10500D02*
X38000Y-11500D01*
X38000Y-11500D02*
X36000Y-11500D01*
X24516Y-45882D02*
X23516Y-45882D01*
X23516Y-45882D02*
X23516Y-43882D01*
X23516Y-43882D02*
X24516Y-43882D01*
X24516Y-43882D02*
X24516Y-45882D01*
X26090Y-45882D02*
X25090Y-45882D01*
X25090Y-45882D02*
X25090Y-43882D01*
X25090Y-43882D02*
X26090Y-43882D01*
X26090Y-43882D02*
X26090Y-45882D01*
X27665Y-45882D02*
X26665Y-45882D01*
X26665Y-45882D02*
X26665Y-43882D01*
X26665Y-43882D02*
X27665Y-43882D01*
X27665Y-43882D02*
X27665Y-45882D01*
X36008Y-17823D02*
X36008Y-16823D01*
X36008Y-16823D02*
X38008Y-16823D01*
X38008Y-16823D02*
X38008Y-17823D01*
X38008Y-17823D02*
X36008Y-17823D01*
G54D13*
X26300Y-10420D02*
X27300Y-10420D01*
G54D10*
X27184Y-09340D02*
X27142Y-09308D01*
X27098Y-09280D01*
X27051Y-09256D01*
X27003Y-09236D01*
X26953Y-09220D01*
X26902Y-09209D01*
X26850Y-09203D01*
X26800Y-09200D01*
X26800Y-09201D02*
X26748Y-09204D01*
X26696Y-09211D01*
X26645Y-09222D01*
X26596Y-09238D01*
X26547Y-09258D01*
X26501Y-09282D01*
X26457Y-09310D01*
X26415Y-09342D01*
X26403Y-09353D01*
X26800Y-10399D02*
X26852Y-10396D01*
X26904Y-10389D01*
X26955Y-10378D01*
X27004Y-10362D01*
X27053Y-10342D01*
X27099Y-10318D01*
X27143Y-10290D01*
X27185Y-10258D01*
X27189Y-10254D01*
X26416Y-10260D02*
X26458Y-10292D01*
X26502Y-10320D01*
X26549Y-10344D01*
X26597Y-10364D01*
X26647Y-10380D01*
X26698Y-10391D01*
X26750Y-10397D01*
X26800Y-10400D01*
X27149Y-10287D02*
X27190Y-10255D01*
X27228Y-10219D01*
X27263Y-10180D01*
X27295Y-10138D01*
X27322Y-10094D01*
X27346Y-10047D01*
X27365Y-09999D01*
X27381Y-09949D01*
X27391Y-09897D01*
X27398Y-09846D01*
X27400Y-09800D01*
X27400Y-09800D02*
X27397Y-09748D01*
X27390Y-09696D01*
X27379Y-09645D01*
X27363Y-09595D01*
X27343Y-09547D01*
X27319Y-09501D01*
X27291Y-09456D01*
X27259Y-09415D01*
X27224Y-09376D01*
X27185Y-09341D01*
X27160Y-09321D01*
X26201Y-09800D02*
X26204Y-09852D01*
X26211Y-09904D01*
X26222Y-09955D01*
X26238Y-10004D01*
X26258Y-10053D01*
X26282Y-10099D01*
X26310Y-10143D01*
X26342Y-10185D01*
X26377Y-10223D01*
X26415Y-10258D01*
X26433Y-10272D01*
X26432Y-09327D02*
X26392Y-09361D01*
X26355Y-09398D01*
X26322Y-09439D01*
X26292Y-09482D01*
X26266Y-09527D01*
X26245Y-09575D01*
X26227Y-09624D01*
X26214Y-09675D01*
X26205Y-09726D01*
X26201Y-09779D01*
X26200Y-09800D01*
X27050Y-09800D02*
X27049Y-09779D01*
X27046Y-09757D01*
X27041Y-09736D01*
X27034Y-09715D01*
X27026Y-09695D01*
X27016Y-09676D01*
X27004Y-09657D01*
X26991Y-09640D01*
X26976Y-09624D01*
X26960Y-09609D01*
X26943Y-09596D01*
X26925Y-09584D01*
X26905Y-09574D01*
X26885Y-09566D01*
X26864Y-09559D01*
X26843Y-09554D01*
X26821Y-09551D01*
X26800Y-09550D01*
X27200Y-09800D02*
X27198Y-09766D01*
X27193Y-09731D01*
X27186Y-09697D01*
X27175Y-09664D01*
X27162Y-09631D01*
X27146Y-09601D01*
X27127Y-09571D01*
X27106Y-09543D01*
X27082Y-09518D01*
X27057Y-09494D01*
X27029Y-09473D01*
X27000Y-09454D01*
X26969Y-09438D01*
X26936Y-09425D01*
X26903Y-09414D01*
X26869Y-09407D01*
X26834Y-09402D01*
X26800Y-09400D01*
X26550Y-09800D02*
X26551Y-09821D01*
X26554Y-09843D01*
X26559Y-09864D01*
X26566Y-09885D01*
X26574Y-09905D01*
X26584Y-09924D01*
X26596Y-09943D01*
X26609Y-09960D01*
X26624Y-09976D01*
X26640Y-09991D01*
X26657Y-10004D01*
X26676Y-10016D01*
X26695Y-10026D01*
X26715Y-10034D01*
X26736Y-10041D01*
X26757Y-10046D01*
X26779Y-10049D01*
X26800Y-10050D01*
X26400Y-09800D02*
X26402Y-09834D01*
X26407Y-09869D01*
X26414Y-09903D01*
X26425Y-09936D01*
X26438Y-09969D01*
X26454Y-09999D01*
X26473Y-10029D01*
X26494Y-10057D01*
X26518Y-10082D01*
X26543Y-10106D01*
X26571Y-10127D01*
X26601Y-10146D01*
X26631Y-10162D01*
X26664Y-10175D01*
X26697Y-10186D01*
X26731Y-10193D01*
X26766Y-10198D01*
X26800Y-10200D01*
G54D13*
X27313Y-10413D02*
X27364Y-10366D01*
X27411Y-10315D01*
X27454Y-10260D01*
X27492Y-10201D01*
X27524Y-10139D01*
X27551Y-10074D01*
X27572Y-10008D01*
X27587Y-09940D01*
X27596Y-09871D01*
X27599Y-09801D01*
X27600Y-09800D01*
X27599Y-09800D02*
X27595Y-09731D01*
X27586Y-09662D01*
X27571Y-09594D01*
X27550Y-09527D01*
X27524Y-09463D01*
X27491Y-09401D01*
X27454Y-09342D01*
X27412Y-09287D01*
X27364Y-09236D01*
X27313Y-09188D01*
X27258Y-09146D01*
X27199Y-09109D01*
X27176Y-09096D01*
X26003Y-09801D02*
X26006Y-09870D01*
X26015Y-09939D01*
X26030Y-10007D01*
X26051Y-10074D01*
X26078Y-10138D01*
X26110Y-10200D01*
X26148Y-10258D01*
X26190Y-10314D01*
X26237Y-10365D01*
X26285Y-10409D01*
X26403Y-09106D02*
X26344Y-09144D01*
X26288Y-09186D01*
X26237Y-09233D01*
X26189Y-09284D01*
X26147Y-09339D01*
X26109Y-09398D01*
X26077Y-09460D01*
X26050Y-09524D01*
X26028Y-09591D01*
X26013Y-09659D01*
X26004Y-09728D01*
X26001Y-09798D01*
X26000Y-09800D01*
X27179Y-09096D02*
X27116Y-09066D01*
X27051Y-09041D01*
X26984Y-09022D01*
X26915Y-09009D01*
X26846Y-09002D01*
X26800Y-09000D01*
X26800Y-09001D02*
X26731Y-09005D01*
X26662Y-09014D01*
X26594Y-09029D01*
X26527Y-09050D01*
X26463Y-09076D01*
X26401Y-09109D01*
X26382Y-09120D01*
X28700Y-10520D02*
X29700Y-10520D01*
G54D10*
X29584Y-09440D02*
X29542Y-09408D01*
X29498Y-09380D01*
X29451Y-09356D01*
X29403Y-09336D01*
X29353Y-09320D01*
X29302Y-09309D01*
X29250Y-09303D01*
X29200Y-09300D01*
X29200Y-09301D02*
X29148Y-09304D01*
X29096Y-09311D01*
X29045Y-09322D01*
X28996Y-09338D01*
X28947Y-09358D01*
X28901Y-09382D01*
X28857Y-09410D01*
X28815Y-09442D01*
X28803Y-09453D01*
X29200Y-10499D02*
X29252Y-10496D01*
X29304Y-10489D01*
X29355Y-10478D01*
X29404Y-10462D01*
X29453Y-10442D01*
X29499Y-10418D01*
X29543Y-10390D01*
X29585Y-10358D01*
X29589Y-10354D01*
X28816Y-10360D02*
X28858Y-10392D01*
X28902Y-10420D01*
X28949Y-10444D01*
X28997Y-10464D01*
X29047Y-10480D01*
X29098Y-10491D01*
X29150Y-10497D01*
X29200Y-10500D01*
X29549Y-10387D02*
X29590Y-10355D01*
X29628Y-10319D01*
X29663Y-10280D01*
X29695Y-10238D01*
X29722Y-10194D01*
X29746Y-10147D01*
X29765Y-10099D01*
X29781Y-10049D01*
X29791Y-09997D01*
X29798Y-09946D01*
X29800Y-09900D01*
X29800Y-09900D02*
X29797Y-09848D01*
X29790Y-09796D01*
X29779Y-09745D01*
X29763Y-09695D01*
X29743Y-09647D01*
X29719Y-09601D01*
X29691Y-09556D01*
X29659Y-09515D01*
X29624Y-09476D01*
X29585Y-09441D01*
X29560Y-09421D01*
X28601Y-09900D02*
X28604Y-09952D01*
X28611Y-10004D01*
X28622Y-10055D01*
X28638Y-10104D01*
X28658Y-10153D01*
X28682Y-10199D01*
X28710Y-10243D01*
X28742Y-10285D01*
X28777Y-10323D01*
X28815Y-10358D01*
X28833Y-10372D01*
X28832Y-09427D02*
X28792Y-09461D01*
X28755Y-09498D01*
X28722Y-09539D01*
X28692Y-09582D01*
X28666Y-09627D01*
X28645Y-09675D01*
X28627Y-09724D01*
X28614Y-09775D01*
X28605Y-09826D01*
X28601Y-09879D01*
X28600Y-09900D01*
X29450Y-09900D02*
X29449Y-09879D01*
X29446Y-09857D01*
X29441Y-09836D01*
X29434Y-09815D01*
X29426Y-09795D01*
X29416Y-09776D01*
X29404Y-09757D01*
X29391Y-09740D01*
X29376Y-09724D01*
X29360Y-09709D01*
X29343Y-09696D01*
X29325Y-09684D01*
X29305Y-09674D01*
X29285Y-09666D01*
X29264Y-09659D01*
X29243Y-09654D01*
X29221Y-09651D01*
X29200Y-09650D01*
X29600Y-09900D02*
X29598Y-09866D01*
X29593Y-09831D01*
X29586Y-09797D01*
X29575Y-09764D01*
X29562Y-09731D01*
X29546Y-09701D01*
X29527Y-09671D01*
X29506Y-09643D01*
X29482Y-09618D01*
X29457Y-09594D01*
X29429Y-09573D01*
X29400Y-09554D01*
X29369Y-09538D01*
X29336Y-09525D01*
X29303Y-09514D01*
X29269Y-09507D01*
X29234Y-09502D01*
X29200Y-09500D01*
X28950Y-09900D02*
X28951Y-09921D01*
X28954Y-09943D01*
X28959Y-09964D01*
X28966Y-09985D01*
X28974Y-10005D01*
X28984Y-10024D01*
X28996Y-10043D01*
X29009Y-10060D01*
X29024Y-10076D01*
X29040Y-10091D01*
X29057Y-10104D01*
X29076Y-10116D01*
X29095Y-10126D01*
X29115Y-10134D01*
X29136Y-10141D01*
X29157Y-10146D01*
X29179Y-10149D01*
X29200Y-10150D01*
X28800Y-09900D02*
X28802Y-09934D01*
X28807Y-09969D01*
X28814Y-10003D01*
X28825Y-10036D01*
X28838Y-10069D01*
X28854Y-10099D01*
X28873Y-10129D01*
X28894Y-10157D01*
X28918Y-10182D01*
X28943Y-10206D01*
X28971Y-10227D01*
X29001Y-10246D01*
X29031Y-10262D01*
X29064Y-10275D01*
X29097Y-10286D01*
X29131Y-10293D01*
X29166Y-10298D01*
X29200Y-10300D01*
G54D13*
X29713Y-10513D02*
X29764Y-10466D01*
X29811Y-10415D01*
X29854Y-10360D01*
X29892Y-10301D01*
X29924Y-10239D01*
X29951Y-10174D01*
X29972Y-10108D01*
X29987Y-10040D01*
X29996Y-09971D01*
X29999Y-09901D01*
X30000Y-09900D01*
X29999Y-09900D02*
X29995Y-09831D01*
X29986Y-09762D01*
X29971Y-09694D01*
X29950Y-09627D01*
X29924Y-09563D01*
X29891Y-09501D01*
X29854Y-09442D01*
X29812Y-09387D01*
X29764Y-09336D01*
X29713Y-09288D01*
X29658Y-09246D01*
X29599Y-09209D01*
X29576Y-09196D01*
X28403Y-09901D02*
X28406Y-09970D01*
X28415Y-10039D01*
X28430Y-10107D01*
X28451Y-10174D01*
X28478Y-10238D01*
X28510Y-10300D01*
X28548Y-10358D01*
X28590Y-10414D01*
X28637Y-10465D01*
X28685Y-10509D01*
X28803Y-09206D02*
X28744Y-09244D01*
X28688Y-09286D01*
X28637Y-09333D01*
X28589Y-09384D01*
X28547Y-09439D01*
X28509Y-09498D01*
X28477Y-09560D01*
X28450Y-09624D01*
X28428Y-09691D01*
X28413Y-09759D01*
X28404Y-09828D01*
X28401Y-09898D01*
X28400Y-09900D01*
X29579Y-09196D02*
X29516Y-09166D01*
X29451Y-09141D01*
X29384Y-09122D01*
X29315Y-09109D01*
X29246Y-09102D01*
X29200Y-09100D01*
X29200Y-09101D02*
X29131Y-09105D01*
X29062Y-09114D01*
X28994Y-09129D01*
X28927Y-09150D01*
X28863Y-09176D01*
X28801Y-09209D01*
X28782Y-09220D01*
G54D11*
X34677Y-45382D02*
X34177Y-45382D01*
X34177Y-45382D02*
X34177Y-44382D01*
X34177Y-44382D02*
X34677Y-44382D01*
X34677Y-45882D02*
X30677Y-45882D01*
X30677Y-45882D02*
X30677Y-43882D01*
X30677Y-43882D02*
X34677Y-43882D01*
X34677Y-43882D02*
X34677Y-45882D01*
G54D13*
X26898Y-37847D02*
X27398Y-37847D01*
X27398Y-37847D02*
X27398Y-38847D01*
X27398Y-38847D02*
X26898Y-38847D01*
X26898Y-37347D02*
X30898Y-37347D01*
X30898Y-37347D02*
X30898Y-39347D01*
X30898Y-39347D02*
X26898Y-39347D01*
X26898Y-39347D02*
X26898Y-37347D01*
X41134Y-38847D02*
X40634Y-38847D01*
X40634Y-38847D02*
X40634Y-37847D01*
X40634Y-37847D02*
X41134Y-37847D01*
X41134Y-39347D02*
X37134Y-39347D01*
X37134Y-39347D02*
X37134Y-37347D01*
X37134Y-37347D02*
X41134Y-37347D01*
X41134Y-37347D02*
X41134Y-39347D01*
X36016Y-38847D02*
X35516Y-38847D01*
X35516Y-38847D02*
X35516Y-37847D01*
X35516Y-37847D02*
X36016Y-37847D01*
X36016Y-39347D02*
X32016Y-39347D01*
X32016Y-39347D02*
X32016Y-37347D01*
X32016Y-37347D02*
X36016Y-37347D01*
X36016Y-37347D02*
X36016Y-39347D01*
G54D11*
X56996Y-22059D02*
X56996Y-22559D01*
X56996Y-22559D02*
X55996Y-22559D01*
X55996Y-22559D02*
X55996Y-22059D01*
X57496Y-22059D02*
X57496Y-33059D01*
X57496Y-33059D02*
X55496Y-33059D01*
X55496Y-33059D02*
X55496Y-22059D01*
X55496Y-22059D02*
X57496Y-22059D01*
G54D14*
X52600Y-08650D02*
X52600Y-21450D01*
X52600Y-21450D02*
X59600Y-21450D01*
X59600Y-21450D02*
X59600Y-08650D01*
X59600Y-08650D02*
X52600Y-08650D01*
X59600Y-11450D02*
X56600Y-11450D01*
X56600Y-11450D02*
X56600Y-18650D01*
X56600Y-18650D02*
X59600Y-18650D01*
X59600Y-12050D02*
X63000Y-12050D01*
X63000Y-12050D02*
X63000Y-18050D01*
X63000Y-18050D02*
X59600Y-18050D01*
X52369Y-24191D02*
X52369Y-26991D01*
X52369Y-26991D02*
X51569Y-26991D01*
X51569Y-26991D02*
X51569Y-24191D01*
X51569Y-24191D02*
X52369Y-24191D01*
X52169Y-24191D02*
X52369Y-24391D01*
X53043Y-27949D02*
X53043Y-25969D01*
X53043Y-25969D02*
X54043Y-25969D01*
X54043Y-25969D02*
X54043Y-27969D01*
X54043Y-27969D02*
X53043Y-27969D01*
X53293Y-27969D02*
X53043Y-27719D01*
X54043Y-23233D02*
X54043Y-25213D01*
X54043Y-25213D02*
X53043Y-25213D01*
X53043Y-25213D02*
X53043Y-23213D01*
X53043Y-23213D02*
X54043Y-23213D01*
X53793Y-23213D02*
X54043Y-23463D01*
X46890Y-46030D02*
X46890Y-44050D01*
X46890Y-44050D02*
X47890Y-44050D01*
X47890Y-44050D02*
X47890Y-46050D01*
X47890Y-46050D02*
X46890Y-46050D01*
X47140Y-46050D02*
X46890Y-45800D01*
X44600Y-46030D02*
X44600Y-44050D01*
X44600Y-44050D02*
X45600Y-44050D01*
X45600Y-44050D02*
X45600Y-46050D01*
X45600Y-46050D02*
X44600Y-46050D01*
X44850Y-46050D02*
X44600Y-45800D01*
G54D11*
X33296Y-19441D02*
X24696Y-19441D01*
X24696Y-15441D02*
X33296Y-15441D01*
X24696Y-15441D02*
X24696Y-19441D01*
X33296Y-15441D02*
X33296Y-19441D01*
X49922Y-08914D02*
X40080Y-08913D01*
X40080Y-08913D02*
X40078Y-18366D01*
X40078Y-18366D02*
X49927Y-18366D01*
X49927Y-18366D02*
X49922Y-08914D01*
X49922Y-08914D02*
X49898Y-08915D01*
X29539Y-28193D02*
X29539Y-23193D01*
X29539Y-23193D02*
X49539Y-23193D01*
X49539Y-23193D02*
X49539Y-28193D01*
X49539Y-28193D02*
X29539Y-28193D01*
G54D13*
X48929Y-34831D02*
X44929Y-34831D01*
X48929Y-33831D02*
X44929Y-33831D01*
X44929Y-33831D02*
X44929Y-34831D01*
X48929Y-34831D02*
X48929Y-33831D01*
X30996Y-10563D02*
X31996Y-10563D01*
G54D10*
X31880Y-09483D02*
X31838Y-09451D01*
X31794Y-09423D01*
X31747Y-09399D01*
X31699Y-09379D01*
X31649Y-09363D01*
X31598Y-09352D01*
X31546Y-09346D01*
X31496Y-09343D01*
X31496Y-09344D02*
X31444Y-09347D01*
X31392Y-09354D01*
X31341Y-09365D01*
X31292Y-09381D01*
X31243Y-09401D01*
X31197Y-09425D01*
X31153Y-09453D01*
X31111Y-09485D01*
X31099Y-09496D01*
X31496Y-10542D02*
X31548Y-10539D01*
X31600Y-10532D01*
X31651Y-10521D01*
X31700Y-10505D01*
X31749Y-10485D01*
X31795Y-10461D01*
X31839Y-10433D01*
X31881Y-10401D01*
X31885Y-10397D01*
X31112Y-10403D02*
X31154Y-10435D01*
X31198Y-10463D01*
X31245Y-10487D01*
X31293Y-10507D01*
X31343Y-10523D01*
X31394Y-10534D01*
X31446Y-10540D01*
X31496Y-10543D01*
X31845Y-10430D02*
X31886Y-10398D01*
X31924Y-10362D01*
X31959Y-10323D01*
X31991Y-10281D01*
X32018Y-10237D01*
X32042Y-10190D01*
X32061Y-10142D01*
X32077Y-10092D01*
X32087Y-10040D01*
X32094Y-09989D01*
X32096Y-09943D01*
X32096Y-09943D02*
X32093Y-09891D01*
X32086Y-09839D01*
X32075Y-09788D01*
X32059Y-09738D01*
X32039Y-09690D01*
X32015Y-09644D01*
X31987Y-09599D01*
X31955Y-09558D01*
X31920Y-09519D01*
X31881Y-09484D01*
X31856Y-09464D01*
X30897Y-09943D02*
X30900Y-09995D01*
X30907Y-10047D01*
X30918Y-10098D01*
X30934Y-10147D01*
X30954Y-10196D01*
X30978Y-10242D01*
X31006Y-10286D01*
X31038Y-10328D01*
X31073Y-10366D01*
X31111Y-10401D01*
X31129Y-10415D01*
X31128Y-09470D02*
X31088Y-09504D01*
X31051Y-09541D01*
X31018Y-09582D01*
X30988Y-09625D01*
X30962Y-09670D01*
X30941Y-09718D01*
X30923Y-09767D01*
X30910Y-09818D01*
X30901Y-09869D01*
X30897Y-09922D01*
X30896Y-09943D01*
X31746Y-09943D02*
X31745Y-09922D01*
X31742Y-09900D01*
X31737Y-09879D01*
X31730Y-09858D01*
X31722Y-09838D01*
X31712Y-09819D01*
X31700Y-09800D01*
X31687Y-09783D01*
X31672Y-09767D01*
X31656Y-09752D01*
X31639Y-09739D01*
X31621Y-09727D01*
X31601Y-09717D01*
X31581Y-09709D01*
X31560Y-09702D01*
X31539Y-09697D01*
X31517Y-09694D01*
X31496Y-09693D01*
X31896Y-09943D02*
X31894Y-09909D01*
X31889Y-09874D01*
X31882Y-09840D01*
X31871Y-09807D01*
X31858Y-09774D01*
X31842Y-09744D01*
X31823Y-09714D01*
X31802Y-09686D01*
X31778Y-09661D01*
X31753Y-09637D01*
X31725Y-09616D01*
X31696Y-09597D01*
X31665Y-09581D01*
X31632Y-09568D01*
X31599Y-09557D01*
X31565Y-09550D01*
X31530Y-09545D01*
X31496Y-09543D01*
X31246Y-09943D02*
X31247Y-09964D01*
X31250Y-09986D01*
X31255Y-10007D01*
X31262Y-10028D01*
X31270Y-10048D01*
X31280Y-10067D01*
X31292Y-10086D01*
X31305Y-10103D01*
X31320Y-10119D01*
X31336Y-10134D01*
X31353Y-10147D01*
X31372Y-10159D01*
X31391Y-10169D01*
X31411Y-10177D01*
X31432Y-10184D01*
X31453Y-10189D01*
X31475Y-10192D01*
X31496Y-10193D01*
X31096Y-09943D02*
X31098Y-09977D01*
X31103Y-10012D01*
X31110Y-10046D01*
X31121Y-10079D01*
X31134Y-10112D01*
X31150Y-10142D01*
X31169Y-10172D01*
X31190Y-10200D01*
X31214Y-10225D01*
X31239Y-10249D01*
X31267Y-10270D01*
X31297Y-10289D01*
X31327Y-10305D01*
X31360Y-10318D01*
X31393Y-10329D01*
X31427Y-10336D01*
X31462Y-10341D01*
X31496Y-10343D01*
G54D13*
X32009Y-10556D02*
X32060Y-10509D01*
X32107Y-10458D01*
X32150Y-10403D01*
X32188Y-10344D01*
X32220Y-10282D01*
X32247Y-10217D01*
X32268Y-10151D01*
X32283Y-10083D01*
X32292Y-10014D01*
X32295Y-09944D01*
X32296Y-09943D01*
X32295Y-09943D02*
X32291Y-09874D01*
X32282Y-09805D01*
X32267Y-09737D01*
X32246Y-09670D01*
X32220Y-09606D01*
X32187Y-09544D01*
X32150Y-09485D01*
X32108Y-09430D01*
X32060Y-09379D01*
X32009Y-09331D01*
X31954Y-09289D01*
X31895Y-09252D01*
X31872Y-09239D01*
X30699Y-09944D02*
X30702Y-10013D01*
X30711Y-10082D01*
X30726Y-10150D01*
X30747Y-10217D01*
X30774Y-10281D01*
X30806Y-10343D01*
X30844Y-10401D01*
X30886Y-10457D01*
X30933Y-10508D01*
X30981Y-10552D01*
X31099Y-09249D02*
X31040Y-09287D01*
X30984Y-09329D01*
X30933Y-09376D01*
X30885Y-09427D01*
X30843Y-09482D01*
X30805Y-09541D01*
X30773Y-09603D01*
X30746Y-09667D01*
X30724Y-09734D01*
X30709Y-09802D01*
X30700Y-09871D01*
X30697Y-09941D01*
X30696Y-09943D01*
X31875Y-09239D02*
X31812Y-09209D01*
X31747Y-09184D01*
X31680Y-09165D01*
X31611Y-09152D01*
X31542Y-09145D01*
X31496Y-09143D01*
X31496Y-09144D02*
X31427Y-09148D01*
X31358Y-09157D01*
X31290Y-09172D01*
X31223Y-09193D01*
X31159Y-09219D01*
X31097Y-09252D01*
X31078Y-09263D01*
G54D11*
X38386Y-31980D02*
X38386Y-32980D01*
X38945Y-31980D02*
X38934Y-32088D01*
X38902Y-32193D01*
X38851Y-32289D01*
X38782Y-32373D01*
X38698Y-32443D01*
X38602Y-32495D01*
X38498Y-32527D01*
X38389Y-32538D01*
X38282Y-32529D01*
X38177Y-32498D01*
X38080Y-32447D01*
X37995Y-32379D01*
X37925Y-32295D01*
X37873Y-32200D01*
X37840Y-32096D01*
X37828Y-31987D01*
X37837Y-31880D01*
X37867Y-31775D01*
X37917Y-31678D01*
X37984Y-31592D01*
X38067Y-31521D01*
X38163Y-31468D01*
X38266Y-31435D01*
X38375Y-31422D01*
X38483Y-31430D01*
X38588Y-31459D01*
X38685Y-31509D01*
X38771Y-31576D01*
X38842Y-31658D01*
X38896Y-31753D01*
X38931Y-31857D01*
X38944Y-31965D01*
X38945Y-31980D01*
X41142Y-31980D02*
X41142Y-32980D01*
X41701Y-31980D02*
X41690Y-32088D01*
X41658Y-32193D01*
X41607Y-32289D01*
X41538Y-32373D01*
X41454Y-32443D01*
X41358Y-32495D01*
X41254Y-32527D01*
X41145Y-32538D01*
X41038Y-32529D01*
X40933Y-32498D01*
X40836Y-32447D01*
X40751Y-32379D01*
X40681Y-32295D01*
X40629Y-32200D01*
X40596Y-32096D01*
X40584Y-31987D01*
X40593Y-31880D01*
X40623Y-31775D01*
X40673Y-31678D01*
X40740Y-31592D01*
X40823Y-31521D01*
X40919Y-31468D01*
X41022Y-31435D01*
X41131Y-31422D01*
X41239Y-31430D01*
X41344Y-31459D01*
X41441Y-31509D01*
X41527Y-31576D01*
X41598Y-31658D01*
X41652Y-31753D01*
X41687Y-31857D01*
X41700Y-31965D01*
X41701Y-31980D01*
X39764Y-31980D02*
X39764Y-32980D01*
X40323Y-31980D02*
X40312Y-32088D01*
X40280Y-32193D01*
X40229Y-32289D01*
X40160Y-32373D01*
X40076Y-32443D01*
X39980Y-32495D01*
X39876Y-32527D01*
X39767Y-32538D01*
X39660Y-32529D01*
X39555Y-32498D01*
X39458Y-32447D01*
X39373Y-32379D01*
X39303Y-32295D01*
X39251Y-32200D01*
X39218Y-32096D01*
X39206Y-31987D01*
X39215Y-31880D01*
X39245Y-31775D01*
X39295Y-31678D01*
X39362Y-31592D01*
X39445Y-31521D01*
X39541Y-31468D01*
X39644Y-31435D01*
X39753Y-31422D01*
X39861Y-31430D01*
X39966Y-31459D01*
X40063Y-31509D01*
X40149Y-31576D01*
X40220Y-31658D01*
X40274Y-31753D01*
X40309Y-31857D01*
X40322Y-31965D01*
X40323Y-31980D01*
X29134Y-41115D02*
X29134Y-42115D01*
X29693Y-41115D02*
X29682Y-41223D01*
X29650Y-41328D01*
X29599Y-41424D01*
X29530Y-41508D01*
X29446Y-41578D01*
X29350Y-41630D01*
X29246Y-41662D01*
X29137Y-41673D01*
X29030Y-41664D01*
X28925Y-41633D01*
X28828Y-41582D01*
X28743Y-41514D01*
X28673Y-41430D01*
X28621Y-41335D01*
X28588Y-41231D01*
X28576Y-41122D01*
X28585Y-41015D01*
X28615Y-40910D01*
X28665Y-40813D01*
X28732Y-40727D01*
X28815Y-40656D01*
X28911Y-40603D01*
X29014Y-40570D01*
X29123Y-40557D01*
X29231Y-40565D01*
X29336Y-40594D01*
X29433Y-40644D01*
X29519Y-40711D01*
X29590Y-40793D01*
X29644Y-40888D01*
X29679Y-40992D01*
X29692Y-41100D01*
X29693Y-41115D01*
X38583Y-41115D02*
X38583Y-42115D01*
X39142Y-41115D02*
X39131Y-41223D01*
X39099Y-41328D01*
X39048Y-41424D01*
X38979Y-41508D01*
X38895Y-41578D01*
X38799Y-41630D01*
X38695Y-41662D01*
X38586Y-41673D01*
X38479Y-41664D01*
X38374Y-41633D01*
X38277Y-41582D01*
X38192Y-41514D01*
X38122Y-41430D01*
X38070Y-41335D01*
X38037Y-41231D01*
X38025Y-41122D01*
X38034Y-41015D01*
X38064Y-40910D01*
X38114Y-40813D01*
X38181Y-40727D01*
X38264Y-40656D01*
X38360Y-40603D01*
X38463Y-40570D01*
X38572Y-40557D01*
X38680Y-40565D01*
X38785Y-40594D01*
X38882Y-40644D01*
X38968Y-40711D01*
X39039Y-40793D01*
X39093Y-40888D01*
X39128Y-40992D01*
X39141Y-41100D01*
X39142Y-41115D01*
X33465Y-41115D02*
X33465Y-42115D01*
X34024Y-41115D02*
X34013Y-41223D01*
X33981Y-41328D01*
X33930Y-41424D01*
X33861Y-41508D01*
X33777Y-41578D01*
X33681Y-41630D01*
X33577Y-41662D01*
X33468Y-41673D01*
X33361Y-41664D01*
X33256Y-41633D01*
X33159Y-41582D01*
X33074Y-41514D01*
X33004Y-41430D01*
X32952Y-41335D01*
X32919Y-41231D01*
X32907Y-41122D01*
X32916Y-41015D01*
X32946Y-40910D01*
X32996Y-40813D01*
X33063Y-40727D01*
X33146Y-40656D01*
X33242Y-40603D01*
X33345Y-40570D01*
X33454Y-40557D01*
X33562Y-40565D01*
X33667Y-40594D01*
X33764Y-40644D01*
X33850Y-40711D01*
X33921Y-40793D01*
X33975Y-40888D01*
X34010Y-40992D01*
X34023Y-41100D01*
X34024Y-41115D01*
X29200Y-12500D02*
X29200Y-13500D01*
X29759Y-12500D02*
X29748Y-12608D01*
X29716Y-12713D01*
X29665Y-12809D01*
X29596Y-12893D01*
X29512Y-12963D01*
X29416Y-13015D01*
X29312Y-13047D01*
X29203Y-13058D01*
X29096Y-13049D01*
X28991Y-13018D01*
X28894Y-12967D01*
X28809Y-12899D01*
X28739Y-12815D01*
X28687Y-12720D01*
X28654Y-12616D01*
X28642Y-12507D01*
X28651Y-12400D01*
X28681Y-12295D01*
X28731Y-12198D01*
X28798Y-12112D01*
X28881Y-12041D01*
X28977Y-11988D01*
X29080Y-11955D01*
X29189Y-11942D01*
X29297Y-11950D01*
X29402Y-11979D01*
X29499Y-12029D01*
X29585Y-12096D01*
X29656Y-12178D01*
X29710Y-12273D01*
X29745Y-12377D01*
X29758Y-12485D01*
X29759Y-12500D01*
X31496Y-12492D02*
X31496Y-13492D01*
X32055Y-12492D02*
X32044Y-12600D01*
X32012Y-12705D01*
X31961Y-12801D01*
X31892Y-12885D01*
X31808Y-12955D01*
X31712Y-13007D01*
X31608Y-13039D01*
X31499Y-13050D01*
X31392Y-13041D01*
X31287Y-13010D01*
X31190Y-12959D01*
X31105Y-12891D01*
X31035Y-12807D01*
X30983Y-12712D01*
X30950Y-12608D01*
X30938Y-12499D01*
X30947Y-12392D01*
X30977Y-12287D01*
X31027Y-12190D01*
X31094Y-12104D01*
X31177Y-12033D01*
X31273Y-11980D01*
X31376Y-11947D01*
X31485Y-11934D01*
X31593Y-11942D01*
X31698Y-11971D01*
X31795Y-12021D01*
X31881Y-12088D01*
X31952Y-12170D01*
X32006Y-12265D01*
X32041Y-12369D01*
X32054Y-12477D01*
X32055Y-12492D01*
G54D12*
X51181Y-16461D02*
X51181Y-16261D01*
X51181Y-13461D02*
X51181Y-13661D01*
X51181Y-13661D02*
X50781Y-13661D01*
X50781Y-13661D02*
X50781Y-16261D01*
X50781Y-16261D02*
X51581Y-16261D01*
X51581Y-16261D02*
X51581Y-13661D01*
X51581Y-13661D02*
X51181Y-13661D01*
X50981Y-16261D02*
X50781Y-16061D01*
G54D11*
X26800Y-12500D02*
X26800Y-13500D01*
X27359Y-12500D02*
X27348Y-12608D01*
X27316Y-12713D01*
X27265Y-12809D01*
X27196Y-12893D01*
X27112Y-12963D01*
X27016Y-13015D01*
X26912Y-13047D01*
X26803Y-13058D01*
X26696Y-13049D01*
X26591Y-13018D01*
X26494Y-12967D01*
X26409Y-12899D01*
X26339Y-12815D01*
X26287Y-12720D01*
X26254Y-12616D01*
X26242Y-12507D01*
X26251Y-12400D01*
X26281Y-12295D01*
X26331Y-12198D01*
X26398Y-12112D01*
X26481Y-12041D01*
X26577Y-11988D01*
X26680Y-11955D01*
X26789Y-11942D01*
X26897Y-11950D01*
X27002Y-11979D01*
X27099Y-12029D01*
X27185Y-12096D01*
X27256Y-12178D01*
X27310Y-12273D01*
X27345Y-12377D01*
X27358Y-12485D01*
X27359Y-12500D01*
G54D14*
X45049Y-37091D02*
X45049Y-36736D01*
X45049Y-38114D02*
X45049Y-37819D01*
X45049Y-39118D02*
X45049Y-38803D01*
X45049Y-40083D02*
X45049Y-39827D01*
X45049Y-41264D02*
X45049Y-40831D01*
X45049Y-41264D02*
X47451Y-41264D01*
X47451Y-41264D02*
X47451Y-36736D01*
X47451Y-36736D02*
X45049Y-36736D01*
G54D11*
X24400Y-12500D02*
X24400Y-13500D01*
X24959Y-12500D02*
X24948Y-12608D01*
X24916Y-12713D01*
X24865Y-12809D01*
X24796Y-12893D01*
X24712Y-12963D01*
X24616Y-13015D01*
X24512Y-13047D01*
X24403Y-13058D01*
X24296Y-13049D01*
X24191Y-13018D01*
X24094Y-12967D01*
X24009Y-12899D01*
X23939Y-12815D01*
X23887Y-12720D01*
X23854Y-12616D01*
X23842Y-12507D01*
X23851Y-12400D01*
X23881Y-12295D01*
X23931Y-12198D01*
X23998Y-12112D01*
X24081Y-12041D01*
X24177Y-11988D01*
X24280Y-11955D01*
X24389Y-11942D01*
X24497Y-11950D01*
X24602Y-11979D01*
X24699Y-12029D01*
X24785Y-12096D01*
X24856Y-12178D01*
X24910Y-12273D01*
X24945Y-12377D01*
X24958Y-12485D01*
X24959Y-12500D01*
G54D10*
X55614Y-46327D02*
X55614Y-45327D01*
X55614Y-45327D02*
X57614Y-45327D01*
X57614Y-45327D02*
X57614Y-46327D01*
X57614Y-46327D02*
X55614Y-46327D01*
G54D13*
X23900Y-10420D02*
X24900Y-10420D01*
G54D10*
X24784Y-09340D02*
X24742Y-09308D01*
X24698Y-09280D01*
X24651Y-09256D01*
X24603Y-09236D01*
X24553Y-09220D01*
X24502Y-09209D01*
X24450Y-09203D01*
X24400Y-09200D01*
X24400Y-09201D02*
X24348Y-09204D01*
X24296Y-09211D01*
X24245Y-09222D01*
X24196Y-09238D01*
X24147Y-09258D01*
X24101Y-09282D01*
X24057Y-09310D01*
X24015Y-09342D01*
X24003Y-09353D01*
X24400Y-10399D02*
X24452Y-10396D01*
X24504Y-10389D01*
X24555Y-10378D01*
X24604Y-10362D01*
X24653Y-10342D01*
X24699Y-10318D01*
X24743Y-10290D01*
X24785Y-10258D01*
X24789Y-10254D01*
X24016Y-10260D02*
X24058Y-10292D01*
X24102Y-10320D01*
X24149Y-10344D01*
X24197Y-10364D01*
X24247Y-10380D01*
X24298Y-10391D01*
X24350Y-10397D01*
X24400Y-10400D01*
X24749Y-10287D02*
X24790Y-10255D01*
X24828Y-10219D01*
X24863Y-10180D01*
X24895Y-10138D01*
X24922Y-10094D01*
X24946Y-10047D01*
X24965Y-09999D01*
X24981Y-09949D01*
X24991Y-09897D01*
X24998Y-09846D01*
X25000Y-09800D01*
X25000Y-09800D02*
X24997Y-09748D01*
X24990Y-09696D01*
X24979Y-09645D01*
X24963Y-09595D01*
X24943Y-09547D01*
X24919Y-09501D01*
X24891Y-09456D01*
X24859Y-09415D01*
X24824Y-09376D01*
X24785Y-09341D01*
X24760Y-09321D01*
X23801Y-09800D02*
X23804Y-09852D01*
X23811Y-09904D01*
X23822Y-09955D01*
X23838Y-10004D01*
X23858Y-10053D01*
X23882Y-10099D01*
X23910Y-10143D01*
X23942Y-10185D01*
X23977Y-10223D01*
X24015Y-10258D01*
X24033Y-10272D01*
X24032Y-09327D02*
X23992Y-09361D01*
X23955Y-09398D01*
X23922Y-09439D01*
X23892Y-09482D01*
X23866Y-09527D01*
X23845Y-09575D01*
X23827Y-09624D01*
X23814Y-09675D01*
X23805Y-09726D01*
X23801Y-09779D01*
X23800Y-09800D01*
X24650Y-09800D02*
X24649Y-09779D01*
X24646Y-09757D01*
X24641Y-09736D01*
X24634Y-09715D01*
X24626Y-09695D01*
X24616Y-09676D01*
X24604Y-09657D01*
X24591Y-09640D01*
X24576Y-09624D01*
X24560Y-09609D01*
X24543Y-09596D01*
X24525Y-09584D01*
X24505Y-09574D01*
X24485Y-09566D01*
X24464Y-09559D01*
X24443Y-09554D01*
X24421Y-09551D01*
X24400Y-09550D01*
X24800Y-09800D02*
X24798Y-09766D01*
X24793Y-09731D01*
X24786Y-09697D01*
X24775Y-09664D01*
X24762Y-09631D01*
X24746Y-09601D01*
X24727Y-09571D01*
X24706Y-09543D01*
X24682Y-09518D01*
X24657Y-09494D01*
X24629Y-09473D01*
X24600Y-09454D01*
X24569Y-09438D01*
X24536Y-09425D01*
X24503Y-09414D01*
X24469Y-09407D01*
X24434Y-09402D01*
X24400Y-09400D01*
X24150Y-09800D02*
X24151Y-09821D01*
X24154Y-09843D01*
X24159Y-09864D01*
X24166Y-09885D01*
X24174Y-09905D01*
X24184Y-09924D01*
X24196Y-09943D01*
X24209Y-09960D01*
X24224Y-09976D01*
X24240Y-09991D01*
X24257Y-10004D01*
X24276Y-10016D01*
X24295Y-10026D01*
X24315Y-10034D01*
X24336Y-10041D01*
X24357Y-10046D01*
X24379Y-10049D01*
X24400Y-10050D01*
X24000Y-09800D02*
X24002Y-09834D01*
X24007Y-09869D01*
X24014Y-09903D01*
X24025Y-09936D01*
X24038Y-09969D01*
X24054Y-09999D01*
X24073Y-10029D01*
X24094Y-10057D01*
X24118Y-10082D01*
X24143Y-10106D01*
X24171Y-10127D01*
X24201Y-10146D01*
X24231Y-10162D01*
X24264Y-10175D01*
X24297Y-10186D01*
X24331Y-10193D01*
X24366Y-10198D01*
X24400Y-10200D01*
G54D13*
X24913Y-10413D02*
X24964Y-10366D01*
X25011Y-10315D01*
X25054Y-10260D01*
X25092Y-10201D01*
X25124Y-10139D01*
X25151Y-10074D01*
X25172Y-10008D01*
X25187Y-09940D01*
X25196Y-09871D01*
X25199Y-09801D01*
X25200Y-09800D01*
X25199Y-09800D02*
X25195Y-09731D01*
X25186Y-09662D01*
X25171Y-09594D01*
X25150Y-09527D01*
X25124Y-09463D01*
X25091Y-09401D01*
X25054Y-09342D01*
X25012Y-09287D01*
X24964Y-09236D01*
X24913Y-09188D01*
X24858Y-09146D01*
X24799Y-09109D01*
X24776Y-09096D01*
X23603Y-09801D02*
X23606Y-09870D01*
X23615Y-09939D01*
X23630Y-10007D01*
X23651Y-10074D01*
X23678Y-10138D01*
X23710Y-10200D01*
X23748Y-10258D01*
X23790Y-10314D01*
X23837Y-10365D01*
X23885Y-10409D01*
X24003Y-09106D02*
X23944Y-09144D01*
X23888Y-09186D01*
X23837Y-09233D01*
X23789Y-09284D01*
X23747Y-09339D01*
X23709Y-09398D01*
X23677Y-09460D01*
X23650Y-09524D01*
X23628Y-09591D01*
X23613Y-09659D01*
X23604Y-09728D01*
X23601Y-09798D01*
X23600Y-09800D01*
X24779Y-09096D02*
X24716Y-09066D01*
X24651Y-09041D01*
X24584Y-09022D01*
X24515Y-09009D01*
X24446Y-09002D01*
X24400Y-09000D01*
X24400Y-09001D02*
X24331Y-09005D01*
X24262Y-09014D01*
X24194Y-09029D01*
X24127Y-09050D01*
X24063Y-09076D01*
X24001Y-09109D01*
X23982Y-09120D01*
G54D10*
X34949Y-20776D02*
X33949Y-20776D01*
X33949Y-19776D02*
X34949Y-19776D01*
X33949Y-20776D02*
X33949Y-19776D01*
X34949Y-19776D02*
X34949Y-20776D01*
X36327Y-32586D02*
X35327Y-32586D01*
X35327Y-31586D02*
X36327Y-31586D01*
X35327Y-32586D02*
X35327Y-31586D01*
X36327Y-31586D02*
X36327Y-32586D01*
X43020Y-32587D02*
X42020Y-32587D01*
X42020Y-31587D02*
X43020Y-31587D01*
X42020Y-32587D02*
X42020Y-31587D01*
X43020Y-31587D02*
X43020Y-32587D01*
X37311Y-32586D02*
X36311Y-32586D01*
X36311Y-31586D02*
X37311Y-31586D01*
X36311Y-32586D02*
X36311Y-31586D01*
X37311Y-31586D02*
X37311Y-32586D01*
G54D11*
X57035Y-33791D02*
X57035Y-34291D01*
X57035Y-34291D02*
X56035Y-34291D01*
X56035Y-34291D02*
X56035Y-33791D01*
X57535Y-33791D02*
X57535Y-44791D01*
X57535Y-44791D02*
X55535Y-44791D01*
X55535Y-44791D02*
X55535Y-33791D01*
X55535Y-33791D02*
X57535Y-33791D01*
G54D14*
X42370Y-45350D02*
X42370Y-48350D01*
X36370Y-45350D02*
X36370Y-48350D01*
X42370Y-45850D02*
X36370Y-45850D01*
X42370Y-48350D02*
X36370Y-48350D01*
X42370Y-45350D02*
X36370Y-45350D01*
X53890Y-47772D02*
X49890Y-47772D01*
X53890Y-48272D02*
X53890Y-45272D01*
X53890Y-45272D02*
X49890Y-45272D01*
X49890Y-45272D02*
X49890Y-48272D01*
X49890Y-48272D02*
X53890Y-48272D01*
G54D11*
X26500Y-07244D02*
X26482Y-07418D01*
X26432Y-07586D01*
X26349Y-07742D01*
X26238Y-07878D01*
X26103Y-07990D01*
X25948Y-08073D01*
X25780Y-08125D01*
X25606Y-08143D01*
X25432Y-08128D01*
X25263Y-08078D01*
X25108Y-07997D01*
X24971Y-07887D01*
X24858Y-07752D01*
X24773Y-07598D01*
X24720Y-07431D01*
X24701Y-07256D01*
X24715Y-07082D01*
X24764Y-06913D01*
X24844Y-06757D01*
X24953Y-06619D01*
X25087Y-06505D01*
X25240Y-06420D01*
X25407Y-06365D01*
X25582Y-06345D01*
X25756Y-06358D01*
X25925Y-06405D01*
X26082Y-06485D01*
X26220Y-06593D01*
X26335Y-06726D01*
X26422Y-06878D01*
X26477Y-07045D01*
X26499Y-07219D01*
X26500Y-07244D01*
X58100Y-07244D02*
X58082Y-07418D01*
X58032Y-07586D01*
X57949Y-07742D01*
X57838Y-07878D01*
X57703Y-07990D01*
X57548Y-08073D01*
X57380Y-08125D01*
X57206Y-08143D01*
X57032Y-08128D01*
X56863Y-08078D01*
X56708Y-07997D01*
X56571Y-07887D01*
X56458Y-07752D01*
X56373Y-07598D01*
X56320Y-07431D01*
X56301Y-07256D01*
X56315Y-07082D01*
X56364Y-06913D01*
X56444Y-06757D01*
X56553Y-06619D01*
X56687Y-06505D01*
X56840Y-06420D01*
X57007Y-06365D01*
X57182Y-06345D01*
X57356Y-06358D01*
X57525Y-06405D01*
X57682Y-06485D01*
X57820Y-06593D01*
X57935Y-06726D01*
X58022Y-06878D01*
X58077Y-07045D01*
X58099Y-07219D01*
X58100Y-07244D01*
X57700Y-47900D02*
X57682Y-48074D01*
X57632Y-48242D01*
X57549Y-48398D01*
X57438Y-48534D01*
X57303Y-48646D01*
X57148Y-48729D01*
X56980Y-48781D01*
X56806Y-48799D01*
X56632Y-48784D01*
X56463Y-48734D01*
X56308Y-48653D01*
X56171Y-48543D01*
X56058Y-48408D01*
X55973Y-48254D01*
X55920Y-48087D01*
X55901Y-47912D01*
X55915Y-47738D01*
X55964Y-47569D01*
X56044Y-47413D01*
X56153Y-47275D01*
X56287Y-47161D01*
X56440Y-47076D01*
X56607Y-47021D01*
X56782Y-47001D01*
X56956Y-47014D01*
X57125Y-47061D01*
X57282Y-47141D01*
X57420Y-47249D01*
X57535Y-47382D01*
X57622Y-47534D01*
X57677Y-47701D01*
X57699Y-47875D01*
X57700Y-47900D01*
X26500Y-47800D02*
X26482Y-47974D01*
X26432Y-48142D01*
X26349Y-48298D01*
X26238Y-48434D01*
X26103Y-48546D01*
X25948Y-48629D01*
X25780Y-48681D01*
X25606Y-48699D01*
X25432Y-48684D01*
X25263Y-48634D01*
X25108Y-48553D01*
X24971Y-48443D01*
X24858Y-48308D01*
X24773Y-48154D01*
X24720Y-47987D01*
X24701Y-47812D01*
X24715Y-47638D01*
X24764Y-47469D01*
X24844Y-47313D01*
X24953Y-47175D01*
X25087Y-47061D01*
X25240Y-46976D01*
X25407Y-46921D01*
X25582Y-46901D01*
X25756Y-46914D01*
X25925Y-46961D01*
X26082Y-47041D01*
X26220Y-47149D01*
X26335Y-47282D01*
X26422Y-47434D01*
X26477Y-47601D01*
X26499Y-47775D01*
X26500Y-47800D01*
G54D13*
X44500Y-46800D02*
X44500Y-46550D01*
X44500Y-46550D02*
X48000Y-46550D01*
X48000Y-46550D02*
X48000Y-46800D01*
X44500Y-48300D02*
X44500Y-46800D01*
X44500Y-46800D02*
X48000Y-46800D01*
X48000Y-46800D02*
X48000Y-48300D01*
X48000Y-48300D02*
X44500Y-48300D01*
G54D11*
X52380Y-38976D02*
X52346Y-39315D01*
X52247Y-39642D01*
X52087Y-39944D01*
X51871Y-40209D01*
X51608Y-40426D01*
X51308Y-40589D01*
X50981Y-40690D01*
X50642Y-40725D01*
X50303Y-40695D01*
X49975Y-40598D01*
X49672Y-40440D01*
X49406Y-40226D01*
X49187Y-39964D01*
X49022Y-39665D01*
X48919Y-39339D01*
X48881Y-39000D01*
X48909Y-38661D01*
X49003Y-38332D01*
X49160Y-38029D01*
X49372Y-37761D01*
X49632Y-37539D01*
X49930Y-37373D01*
X50255Y-37267D01*
X50594Y-37227D01*
X50933Y-37253D01*
X51262Y-37345D01*
X51567Y-37499D01*
X51836Y-37709D01*
X52060Y-37968D01*
X52228Y-38265D01*
X52336Y-38589D01*
X52379Y-38928D01*
X52380Y-38976D01*
G54D14*
X60185Y-44291D02*
X59185Y-44291D01*
X59185Y-44291D02*
X59185Y-34291D01*
X59185Y-34291D02*
X60185Y-34291D01*
X60185Y-34291D02*
X60185Y-44291D01*
X60185Y-43291D02*
X59185Y-43291D01*
X52886Y-34291D02*
X53886Y-34291D01*
X53886Y-34291D02*
X53886Y-44291D01*
X53886Y-44291D02*
X52886Y-44291D01*
X52886Y-44291D02*
X52886Y-34291D01*
X52886Y-35291D02*
X53886Y-35291D01*
G54D11*
X33858Y-48335D02*
X33858Y-47335D01*
X34417Y-48335D02*
X34406Y-48443D01*
X34374Y-48548D01*
X34323Y-48644D01*
X34254Y-48728D01*
X34170Y-48798D01*
X34074Y-48850D01*
X33970Y-48882D01*
X33861Y-48893D01*
X33754Y-48884D01*
X33649Y-48853D01*
X33552Y-48802D01*
X33467Y-48734D01*
X33397Y-48650D01*
X33345Y-48555D01*
X33312Y-48451D01*
X33300Y-48342D01*
X33309Y-48235D01*
X33339Y-48130D01*
X33389Y-48033D01*
X33456Y-47947D01*
X33539Y-47876D01*
X33635Y-47823D01*
X33738Y-47790D01*
X33847Y-47777D01*
X33955Y-47785D01*
X34060Y-47814D01*
X34157Y-47864D01*
X34243Y-47931D01*
X34314Y-48013D01*
X34368Y-48108D01*
X34403Y-48212D01*
X34416Y-48320D01*
X34417Y-48335D01*
X32087Y-48335D02*
X32087Y-47335D01*
X32646Y-48335D02*
X32635Y-48443D01*
X32603Y-48548D01*
X32552Y-48644D01*
X32483Y-48728D01*
X32399Y-48798D01*
X32303Y-48850D01*
X32199Y-48882D01*
X32090Y-48893D01*
X31983Y-48884D01*
X31878Y-48853D01*
X31781Y-48802D01*
X31696Y-48734D01*
X31626Y-48650D01*
X31574Y-48555D01*
X31541Y-48451D01*
X31529Y-48342D01*
X31538Y-48235D01*
X31568Y-48130D01*
X31618Y-48033D01*
X31685Y-47947D01*
X31768Y-47876D01*
X31864Y-47823D01*
X31967Y-47790D01*
X32076Y-47777D01*
X32184Y-47785D01*
X32289Y-47814D01*
X32386Y-47864D01*
X32472Y-47931D01*
X32543Y-48013D01*
X32597Y-48108D01*
X32632Y-48212D01*
X32645Y-48320D01*
X32646Y-48335D01*
X30315Y-48335D02*
X30315Y-47335D01*
X30874Y-48335D02*
X30863Y-48443D01*
X30831Y-48548D01*
X30780Y-48644D01*
X30711Y-48728D01*
X30627Y-48798D01*
X30531Y-48850D01*
X30427Y-48882D01*
X30318Y-48893D01*
X30211Y-48884D01*
X30106Y-48853D01*
X30009Y-48802D01*
X29924Y-48734D01*
X29854Y-48650D01*
X29802Y-48555D01*
X29769Y-48451D01*
X29757Y-48342D01*
X29766Y-48235D01*
X29796Y-48130D01*
X29846Y-48033D01*
X29913Y-47947D01*
X29996Y-47876D01*
X30092Y-47823D01*
X30195Y-47790D01*
X30304Y-47777D01*
X30412Y-47785D01*
X30517Y-47814D01*
X30614Y-47864D01*
X30700Y-47931D01*
X30771Y-48013D01*
X30825Y-48108D01*
X30860Y-48212D01*
X30873Y-48320D01*
X30874Y-48335D01*
G54D12*
X37260Y-13659D02*
X36974Y-13659D01*
X37117Y-13659D02*
X37117Y-13109D01*
X37069Y-13187D01*
X37022Y-13240D01*
X36974Y-13266D01*
X37736Y-13659D02*
X37450Y-13659D01*
X37593Y-13659D02*
X37593Y-13109D01*
X37545Y-13187D01*
X37498Y-13240D01*
X37450Y-13266D01*
X38045Y-13109D02*
X38093Y-13109D01*
X38141Y-13135D01*
X38164Y-13161D01*
X38188Y-13213D01*
X38212Y-13318D01*
X38212Y-13449D01*
X38188Y-13554D01*
X38164Y-13606D01*
X38141Y-13632D01*
X38093Y-13659D01*
X38045Y-13659D01*
X37998Y-13632D01*
X37974Y-13606D01*
X37950Y-13554D01*
X37926Y-13449D01*
X37926Y-13318D01*
X37950Y-13213D01*
X37974Y-13161D01*
X37998Y-13135D01*
X38045Y-13109D01*
X38426Y-13659D02*
X38426Y-13109D01*
X38474Y-13449D02*
X38617Y-13659D01*
X38617Y-13292D02*
X38426Y-13501D01*
X37260Y-15234D02*
X36974Y-15234D01*
X37117Y-15234D02*
X37117Y-14684D01*
X37069Y-14762D01*
X37022Y-14815D01*
X36974Y-14841D01*
X37736Y-15234D02*
X37450Y-15234D01*
X37593Y-15234D02*
X37593Y-14684D01*
X37545Y-14762D01*
X37498Y-14815D01*
X37450Y-14841D01*
X38045Y-14684D02*
X38093Y-14684D01*
X38141Y-14710D01*
X38164Y-14736D01*
X38188Y-14788D01*
X38212Y-14893D01*
X38212Y-15024D01*
X38188Y-15129D01*
X38164Y-15181D01*
X38141Y-15207D01*
X38093Y-15234D01*
X38045Y-15234D01*
X37998Y-15207D01*
X37974Y-15181D01*
X37950Y-15129D01*
X37926Y-15024D01*
X37926Y-14893D01*
X37950Y-14788D01*
X37974Y-14736D01*
X37998Y-14710D01*
X38045Y-14684D01*
X38426Y-15234D02*
X38426Y-14684D01*
X38474Y-15024D02*
X38617Y-15234D01*
X38617Y-14867D02*
X38426Y-15076D01*
X46555Y-31445D02*
X46555Y-31045D01*
X46708Y-31045D01*
X46746Y-31064D01*
X46765Y-31083D01*
X46784Y-31121D01*
X46784Y-31178D01*
X46765Y-31216D01*
X46746Y-31235D01*
X46708Y-31254D01*
X46555Y-31254D01*
X46917Y-31045D02*
X47184Y-31045D01*
X47012Y-31445D01*
X51194Y-45055D02*
X51194Y-44655D01*
X51289Y-44655D01*
X51347Y-44674D01*
X51385Y-44712D01*
X51404Y-44750D01*
X51423Y-44826D01*
X51423Y-44883D01*
X51404Y-44960D01*
X51385Y-44998D01*
X51347Y-45036D01*
X51289Y-45055D01*
X51194Y-45055D01*
X51804Y-45055D02*
X51575Y-45055D01*
X51689Y-45055D02*
X51689Y-44655D01*
X51651Y-44712D01*
X51613Y-44750D01*
X51575Y-44769D01*
G54D10*
X36600Y-10357D02*
X36643Y-10371D01*
X36714Y-10371D01*
X36743Y-10357D01*
X36757Y-10343D01*
X36772Y-10314D01*
X36772Y-10286D01*
X36757Y-10257D01*
X36743Y-10243D01*
X36714Y-10229D01*
X36657Y-10214D01*
X36629Y-10200D01*
X36614Y-10186D01*
X36600Y-10157D01*
X36600Y-10129D01*
X36614Y-10100D01*
X36629Y-10086D01*
X36657Y-10071D01*
X36729Y-10071D01*
X36772Y-10086D01*
X36872Y-10071D02*
X36943Y-10371D01*
X37000Y-10157D01*
X37058Y-10371D01*
X37129Y-10071D01*
X37215Y-10071D02*
X37401Y-10071D01*
X37301Y-10186D01*
X37343Y-10186D01*
X37372Y-10200D01*
X37386Y-10214D01*
X37401Y-10243D01*
X37401Y-10314D01*
X37386Y-10343D01*
X37372Y-10357D01*
X37343Y-10371D01*
X37258Y-10371D01*
X37229Y-10357D01*
X37215Y-10343D01*
X23387Y-45104D02*
X23087Y-45104D01*
X23087Y-44989D01*
X23102Y-44961D01*
X23116Y-44946D01*
X23145Y-44932D01*
X23187Y-44932D01*
X23216Y-44946D01*
X23230Y-44961D01*
X23245Y-44989D01*
X23245Y-45104D01*
X23387Y-44646D02*
X23387Y-44818D01*
X23387Y-44732D02*
X23087Y-44732D01*
X23130Y-44761D01*
X23159Y-44789D01*
X23173Y-44818D01*
X24961Y-45104D02*
X24661Y-45104D01*
X24661Y-44989D01*
X24676Y-44961D01*
X24690Y-44946D01*
X24719Y-44932D01*
X24761Y-44932D01*
X24790Y-44946D01*
X24804Y-44961D01*
X24819Y-44989D01*
X24819Y-45104D01*
X24661Y-44832D02*
X24661Y-44646D01*
X24776Y-44746D01*
X24776Y-44704D01*
X24790Y-44675D01*
X24804Y-44661D01*
X24833Y-44646D01*
X24904Y-44646D01*
X24933Y-44661D01*
X24947Y-44675D01*
X24961Y-44704D01*
X24961Y-44789D01*
X24947Y-44818D01*
X24933Y-44832D01*
X26536Y-45104D02*
X26236Y-45104D01*
X26236Y-44989D01*
X26251Y-44961D01*
X26265Y-44946D01*
X26294Y-44932D01*
X26336Y-44932D01*
X26365Y-44946D01*
X26379Y-44961D01*
X26394Y-44989D01*
X26394Y-45104D01*
X26236Y-44661D02*
X26236Y-44804D01*
X26379Y-44818D01*
X26365Y-44804D01*
X26351Y-44775D01*
X26351Y-44704D01*
X26365Y-44675D01*
X26379Y-44661D01*
X26408Y-44646D01*
X26479Y-44646D01*
X26508Y-44661D01*
X26522Y-44675D01*
X26536Y-44704D01*
X26536Y-44775D01*
X26522Y-44804D01*
X26508Y-44818D01*
X36608Y-16680D02*
X36651Y-16694D01*
X36722Y-16694D01*
X36751Y-16680D01*
X36765Y-16666D01*
X36780Y-16637D01*
X36780Y-16609D01*
X36765Y-16580D01*
X36751Y-16566D01*
X36722Y-16552D01*
X36665Y-16537D01*
X36637Y-16523D01*
X36622Y-16509D01*
X36608Y-16480D01*
X36608Y-16452D01*
X36622Y-16423D01*
X36637Y-16409D01*
X36665Y-16394D01*
X36737Y-16394D01*
X36780Y-16409D01*
X36880Y-16394D02*
X36951Y-16694D01*
X37008Y-16480D01*
X37066Y-16694D01*
X37137Y-16394D01*
X37380Y-16494D02*
X37380Y-16694D01*
X37309Y-16380D02*
X37237Y-16594D01*
X37423Y-16594D01*
G54D15*
X28021Y-10622D02*
X27721Y-10622D01*
X27721Y-10550D01*
X27736Y-10507D01*
X27764Y-10479D01*
X27793Y-10464D01*
X27850Y-10450D01*
X27893Y-10450D01*
X27950Y-10464D01*
X27979Y-10479D01*
X28007Y-10507D01*
X28021Y-10550D01*
X28021Y-10622D01*
X27750Y-10336D02*
X27736Y-10322D01*
X27721Y-10293D01*
X27721Y-10222D01*
X27736Y-10193D01*
X27750Y-10179D01*
X27779Y-10164D01*
X27807Y-10164D01*
X27850Y-10179D01*
X28021Y-10350D01*
X28021Y-10164D01*
X25921Y-09893D02*
X25921Y-10036D01*
X25621Y-10036D01*
X25764Y-09793D02*
X25764Y-09693D01*
X25921Y-09650D02*
X25921Y-09793D01*
X25621Y-09793D01*
X25621Y-09650D01*
X25921Y-09522D02*
X25621Y-09522D01*
X25621Y-09450D01*
X25636Y-09407D01*
X25664Y-09379D01*
X25693Y-09364D01*
X25750Y-09350D01*
X25793Y-09350D01*
X25850Y-09364D01*
X25879Y-09379D01*
X25907Y-09407D01*
X25921Y-09450D01*
X25921Y-09522D01*
X30421Y-10722D02*
X30121Y-10722D01*
X30121Y-10650D01*
X30136Y-10607D01*
X30164Y-10579D01*
X30193Y-10564D01*
X30250Y-10550D01*
X30293Y-10550D01*
X30350Y-10564D01*
X30379Y-10579D01*
X30407Y-10607D01*
X30421Y-10650D01*
X30421Y-10722D01*
X30121Y-10450D02*
X30121Y-10264D01*
X30236Y-10364D01*
X30236Y-10322D01*
X30250Y-10293D01*
X30264Y-10279D01*
X30293Y-10264D01*
X30364Y-10264D01*
X30393Y-10279D01*
X30407Y-10293D01*
X30421Y-10322D01*
X30421Y-10407D01*
X30407Y-10436D01*
X30393Y-10450D01*
X28321Y-09993D02*
X28321Y-10136D01*
X28021Y-10136D01*
X28164Y-09893D02*
X28164Y-09793D01*
X28321Y-09750D02*
X28321Y-09893D01*
X28021Y-09893D01*
X28021Y-09750D01*
X28321Y-09622D02*
X28021Y-09622D01*
X28021Y-09550D01*
X28036Y-09507D01*
X28064Y-09479D01*
X28093Y-09464D01*
X28150Y-09450D01*
X28193Y-09450D01*
X28250Y-09464D01*
X28279Y-09479D01*
X28307Y-09507D01*
X28321Y-09550D01*
X28321Y-09622D01*
G54D16*
X35460Y-45214D02*
X34760Y-45214D01*
X34760Y-45042D01*
X34794Y-45000D01*
X34827Y-44978D01*
X34894Y-44957D01*
X34994Y-44957D01*
X35060Y-44978D01*
X35094Y-45000D01*
X35127Y-45042D01*
X35127Y-45214D01*
X34827Y-44785D02*
X34794Y-44764D01*
X34760Y-44721D01*
X34760Y-44614D01*
X34794Y-44571D01*
X34827Y-44550D01*
X34894Y-44528D01*
X34960Y-44528D01*
X35060Y-44550D01*
X35460Y-44807D01*
X35460Y-44528D01*
G54D13*
X31782Y-44465D02*
X32049Y-44465D01*
X31877Y-45165D01*
X32392Y-44465D02*
X32201Y-44465D01*
X32182Y-44799D01*
X32201Y-44765D01*
X32239Y-44732D01*
X32335Y-44732D01*
X32373Y-44765D01*
X32392Y-44799D01*
X32411Y-44865D01*
X32411Y-45032D01*
X32392Y-45099D01*
X32373Y-45132D01*
X32335Y-45165D01*
X32239Y-45165D01*
X32201Y-45132D01*
X32182Y-45099D01*
X32792Y-45165D02*
X32563Y-45165D01*
X32677Y-45165D02*
X32677Y-44465D01*
X32639Y-44565D01*
X32601Y-44632D01*
X32563Y-44665D01*
X32925Y-44465D02*
X33192Y-44465D01*
X33020Y-45165D01*
X33516Y-44465D02*
X33439Y-44465D01*
X33401Y-44499D01*
X33382Y-44532D01*
X33344Y-44632D01*
X33325Y-44765D01*
X33325Y-45032D01*
X33344Y-45099D01*
X33363Y-45132D01*
X33401Y-45165D01*
X33478Y-45165D01*
X33516Y-45132D01*
X33535Y-45099D01*
X33554Y-45032D01*
X33554Y-44865D01*
X33535Y-44799D01*
X33516Y-44765D01*
X33478Y-44732D01*
X33401Y-44732D01*
X33363Y-44765D01*
X33344Y-44799D01*
X33325Y-44865D01*
G54D12*
X26100Y-38690D02*
X26505Y-38690D01*
X26553Y-38668D01*
X26577Y-38647D01*
X26600Y-38604D01*
X26600Y-38518D01*
X26577Y-38476D01*
X26553Y-38454D01*
X26505Y-38433D01*
X26100Y-38433D01*
X26267Y-38026D02*
X26600Y-38026D01*
X26077Y-38133D02*
X26434Y-38240D01*
X26434Y-37962D01*
X28194Y-38049D02*
X28117Y-38049D01*
X28079Y-38073D01*
X28060Y-38097D01*
X28022Y-38168D01*
X28003Y-38264D01*
X28003Y-38454D01*
X28022Y-38502D01*
X28041Y-38526D01*
X28079Y-38549D01*
X28156Y-38549D01*
X28194Y-38526D01*
X28213Y-38502D01*
X28232Y-38454D01*
X28232Y-38335D01*
X28213Y-38287D01*
X28194Y-38264D01*
X28156Y-38240D01*
X28079Y-38240D01*
X28041Y-38264D01*
X28022Y-38287D01*
X28003Y-38335D01*
X28403Y-38549D02*
X28403Y-38049D01*
X28632Y-38549D01*
X28632Y-38049D01*
X29032Y-38549D02*
X28803Y-38549D01*
X28917Y-38549D02*
X28917Y-38049D01*
X28879Y-38121D01*
X28841Y-38168D01*
X28803Y-38192D01*
X29165Y-38049D02*
X29413Y-38049D01*
X29279Y-38240D01*
X29337Y-38240D01*
X29375Y-38264D01*
X29394Y-38287D01*
X29413Y-38335D01*
X29413Y-38454D01*
X29394Y-38502D01*
X29375Y-38526D01*
X29337Y-38549D01*
X29222Y-38549D01*
X29184Y-38526D01*
X29165Y-38502D01*
X29546Y-38049D02*
X29813Y-38049D01*
X29641Y-38549D01*
X41336Y-38690D02*
X41741Y-38690D01*
X41789Y-38668D01*
X41813Y-38647D01*
X41836Y-38604D01*
X41836Y-38518D01*
X41813Y-38476D01*
X41789Y-38454D01*
X41741Y-38433D01*
X41336Y-38433D01*
X41384Y-38240D02*
X41360Y-38219D01*
X41336Y-38176D01*
X41336Y-38069D01*
X41360Y-38026D01*
X41384Y-38005D01*
X41432Y-37983D01*
X41479Y-37983D01*
X41551Y-38005D01*
X41836Y-38262D01*
X41836Y-37983D01*
X38166Y-38116D02*
X38089Y-38116D01*
X38051Y-38140D01*
X38032Y-38164D01*
X37994Y-38235D01*
X37975Y-38331D01*
X37975Y-38521D01*
X37994Y-38569D01*
X38013Y-38593D01*
X38051Y-38616D01*
X38128Y-38616D01*
X38166Y-38593D01*
X38185Y-38569D01*
X38204Y-38521D01*
X38204Y-38402D01*
X38185Y-38354D01*
X38166Y-38331D01*
X38128Y-38307D01*
X38051Y-38307D01*
X38013Y-38331D01*
X37994Y-38354D01*
X37975Y-38402D01*
X38375Y-38616D02*
X38375Y-38116D01*
X38604Y-38616D01*
X38604Y-38116D01*
X39004Y-38616D02*
X38775Y-38616D01*
X38889Y-38616D02*
X38889Y-38116D01*
X38851Y-38188D01*
X38813Y-38235D01*
X38775Y-38259D01*
X39137Y-38116D02*
X39385Y-38116D01*
X39251Y-38307D01*
X39309Y-38307D01*
X39347Y-38331D01*
X39366Y-38354D01*
X39385Y-38402D01*
X39385Y-38521D01*
X39366Y-38569D01*
X39347Y-38593D01*
X39309Y-38616D01*
X39194Y-38616D01*
X39156Y-38593D01*
X39137Y-38569D01*
X39518Y-38116D02*
X39785Y-38116D01*
X39613Y-38616D01*
X36218Y-38690D02*
X36623Y-38690D01*
X36671Y-38668D01*
X36695Y-38647D01*
X36718Y-38604D01*
X36718Y-38518D01*
X36695Y-38476D01*
X36671Y-38454D01*
X36623Y-38433D01*
X36218Y-38433D01*
X36218Y-38262D02*
X36218Y-37983D01*
X36409Y-38133D01*
X36409Y-38069D01*
X36433Y-38026D01*
X36456Y-38005D01*
X36504Y-37983D01*
X36623Y-37983D01*
X36671Y-38005D01*
X36695Y-38026D01*
X36718Y-38069D01*
X36718Y-38197D01*
X36695Y-38240D01*
X36671Y-38262D01*
X33312Y-38049D02*
X33235Y-38049D01*
X33197Y-38073D01*
X33178Y-38097D01*
X33140Y-38168D01*
X33121Y-38264D01*
X33121Y-38454D01*
X33140Y-38502D01*
X33159Y-38526D01*
X33197Y-38549D01*
X33274Y-38549D01*
X33312Y-38526D01*
X33331Y-38502D01*
X33350Y-38454D01*
X33350Y-38335D01*
X33331Y-38287D01*
X33312Y-38264D01*
X33274Y-38240D01*
X33197Y-38240D01*
X33159Y-38264D01*
X33140Y-38287D01*
X33121Y-38335D01*
X33521Y-38549D02*
X33521Y-38049D01*
X33750Y-38549D01*
X33750Y-38049D01*
X34150Y-38549D02*
X33921Y-38549D01*
X34035Y-38549D02*
X34035Y-38049D01*
X33997Y-38121D01*
X33959Y-38168D01*
X33921Y-38192D01*
X34283Y-38049D02*
X34531Y-38049D01*
X34397Y-38240D01*
X34455Y-38240D01*
X34493Y-38264D01*
X34512Y-38287D01*
X34531Y-38335D01*
X34531Y-38454D01*
X34512Y-38502D01*
X34493Y-38526D01*
X34455Y-38549D01*
X34340Y-38549D01*
X34302Y-38526D01*
X34283Y-38502D01*
X34664Y-38049D02*
X34931Y-38049D01*
X34759Y-38549D01*
G54D16*
X57279Y-24391D02*
X56579Y-24391D01*
X56579Y-24219D01*
X56613Y-24177D01*
X56646Y-24155D01*
X56713Y-24134D01*
X56813Y-24134D01*
X56879Y-24155D01*
X56913Y-24177D01*
X56946Y-24219D01*
X56946Y-24391D01*
X56813Y-23748D02*
X57279Y-23748D01*
X56546Y-23855D02*
X57046Y-23962D01*
X57046Y-23684D01*
X55679Y-30599D02*
X55679Y-30299D01*
X56379Y-30492D01*
X55913Y-29934D02*
X56379Y-29934D01*
X55646Y-30041D02*
X56146Y-30148D01*
X56146Y-29870D01*
X56379Y-29698D02*
X55679Y-29698D01*
X56013Y-29698D02*
X56013Y-29441D01*
X56379Y-29441D02*
X55679Y-29441D01*
X56313Y-28970D02*
X56346Y-28991D01*
X56379Y-29055D01*
X56379Y-29098D01*
X56346Y-29163D01*
X56279Y-29205D01*
X56213Y-29227D01*
X56079Y-29248D01*
X55979Y-29248D01*
X55846Y-29227D01*
X55779Y-29205D01*
X55713Y-29163D01*
X55679Y-29098D01*
X55679Y-29055D01*
X55713Y-28991D01*
X55746Y-28970D01*
X55679Y-28841D02*
X55679Y-28584D01*
X56379Y-28713D02*
X55679Y-28713D01*
X55746Y-28455D02*
X55713Y-28434D01*
X55679Y-28391D01*
X55679Y-28284D01*
X55713Y-28241D01*
X55746Y-28220D01*
X55813Y-28198D01*
X55879Y-28198D01*
X55979Y-28220D01*
X56379Y-28477D01*
X56379Y-28198D01*
X55913Y-27812D02*
X56379Y-27812D01*
X55646Y-27919D02*
X56146Y-28026D01*
X56146Y-27748D01*
X55679Y-27490D02*
X55679Y-27447D01*
X55713Y-27404D01*
X55746Y-27383D01*
X55813Y-27362D01*
X55946Y-27340D01*
X56113Y-27340D01*
X56246Y-27362D01*
X56313Y-27383D01*
X56346Y-27404D01*
X56379Y-27447D01*
X56379Y-27490D01*
X56346Y-27533D01*
X56313Y-27554D01*
X56246Y-27576D01*
X56113Y-27597D01*
X55946Y-27597D01*
X55813Y-27576D01*
X55746Y-27554D01*
X55713Y-27533D01*
X55679Y-27490D01*
G54D14*
X57143Y-15700D02*
X57571Y-15700D01*
X57657Y-15728D01*
X57714Y-15785D01*
X57743Y-15871D01*
X57743Y-15928D01*
X57200Y-15443D02*
X57171Y-15414D01*
X57143Y-15357D01*
X57143Y-15214D01*
X57171Y-15157D01*
X57200Y-15128D01*
X57257Y-15100D01*
X57314Y-15100D01*
X57400Y-15128D01*
X57743Y-15471D01*
X57743Y-15100D01*
X55243Y-16242D02*
X54643Y-16242D01*
X54643Y-16099D01*
X54671Y-16014D01*
X54729Y-15956D01*
X54786Y-15928D01*
X54900Y-15899D01*
X54986Y-15899D01*
X55100Y-15928D01*
X55157Y-15956D01*
X55214Y-16014D01*
X55243Y-16099D01*
X55243Y-16242D01*
X54929Y-15442D02*
X54957Y-15356D01*
X54986Y-15328D01*
X55043Y-15299D01*
X55129Y-15299D01*
X55186Y-15328D01*
X55214Y-15356D01*
X55243Y-15414D01*
X55243Y-15642D01*
X54643Y-15642D01*
X54643Y-15442D01*
X54671Y-15385D01*
X54700Y-15356D01*
X54757Y-15328D01*
X54814Y-15328D01*
X54871Y-15356D01*
X54900Y-15385D01*
X54929Y-15442D01*
X54929Y-15642D01*
X55243Y-15014D02*
X55243Y-14899D01*
X55214Y-14842D01*
X55186Y-14814D01*
X55100Y-14756D01*
X54986Y-14728D01*
X54757Y-14728D01*
X54700Y-14756D01*
X54671Y-14785D01*
X54643Y-14842D01*
X54643Y-14956D01*
X54671Y-15014D01*
X54700Y-15042D01*
X54757Y-15071D01*
X54900Y-15071D01*
X54957Y-15042D01*
X54986Y-15014D01*
X55014Y-14956D01*
X55014Y-14842D01*
X54986Y-14785D01*
X54957Y-14756D01*
X54900Y-14728D01*
G54D12*
X51731Y-25915D02*
X52131Y-25648D01*
X51731Y-25648D02*
X52131Y-25915D01*
X52131Y-25286D02*
X52131Y-25515D01*
X52131Y-25401D02*
X51731Y-25401D01*
X51788Y-25439D01*
X51826Y-25477D01*
X51845Y-25515D01*
X52767Y-26935D02*
X52786Y-26954D01*
X52805Y-27011D01*
X52805Y-27049D01*
X52786Y-27107D01*
X52748Y-27145D01*
X52710Y-27164D01*
X52633Y-27183D01*
X52576Y-27183D01*
X52500Y-27164D01*
X52462Y-27145D01*
X52424Y-27107D01*
X52405Y-27049D01*
X52405Y-27011D01*
X52424Y-26954D01*
X52443Y-26935D01*
X52405Y-26802D02*
X52405Y-26554D01*
X52557Y-26688D01*
X52557Y-26630D01*
X52576Y-26592D01*
X52595Y-26573D01*
X52633Y-26554D01*
X52729Y-26554D01*
X52767Y-26573D01*
X52786Y-26592D01*
X52805Y-26630D01*
X52805Y-26745D01*
X52786Y-26783D01*
X52767Y-26802D01*
X54567Y-24379D02*
X54586Y-24398D01*
X54605Y-24455D01*
X54605Y-24493D01*
X54586Y-24551D01*
X54548Y-24589D01*
X54510Y-24608D01*
X54433Y-24627D01*
X54376Y-24627D01*
X54300Y-24608D01*
X54262Y-24589D01*
X54224Y-24551D01*
X54205Y-24493D01*
X54205Y-24455D01*
X54224Y-24398D01*
X54243Y-24379D01*
X54243Y-24227D02*
X54224Y-24208D01*
X54205Y-24170D01*
X54205Y-24074D01*
X54224Y-24036D01*
X54243Y-24017D01*
X54281Y-23998D01*
X54319Y-23998D01*
X54376Y-24017D01*
X54605Y-24246D01*
X54605Y-23998D01*
X46614Y-45016D02*
X46633Y-45035D01*
X46652Y-45092D01*
X46652Y-45130D01*
X46633Y-45188D01*
X46595Y-45226D01*
X46557Y-45245D01*
X46480Y-45264D01*
X46423Y-45264D01*
X46347Y-45245D01*
X46309Y-45226D01*
X46271Y-45188D01*
X46252Y-45130D01*
X46252Y-45092D01*
X46271Y-45035D01*
X46290Y-45016D01*
X46652Y-44635D02*
X46652Y-44864D01*
X46652Y-44750D02*
X46252Y-44750D01*
X46309Y-44788D01*
X46347Y-44826D01*
X46366Y-44864D01*
X44324Y-45016D02*
X44343Y-45035D01*
X44362Y-45092D01*
X44362Y-45130D01*
X44343Y-45188D01*
X44305Y-45226D01*
X44267Y-45245D01*
X44190Y-45264D01*
X44133Y-45264D01*
X44057Y-45245D01*
X44019Y-45226D01*
X43981Y-45188D01*
X43962Y-45130D01*
X43962Y-45092D01*
X43981Y-45035D01*
X44000Y-45016D01*
X44095Y-44673D02*
X44362Y-44673D01*
X43943Y-44769D02*
X44229Y-44864D01*
X44229Y-44616D01*
G54D14*
X28196Y-17655D02*
X28282Y-17684D01*
X28425Y-17684D01*
X28482Y-17655D01*
X28511Y-17627D01*
X28539Y-17570D01*
X28539Y-17512D01*
X28511Y-17455D01*
X28482Y-17427D01*
X28425Y-17398D01*
X28311Y-17370D01*
X28253Y-17341D01*
X28225Y-17312D01*
X28196Y-17255D01*
X28196Y-17198D01*
X28225Y-17141D01*
X28253Y-17112D01*
X28311Y-17084D01*
X28453Y-17084D01*
X28539Y-17112D01*
X28739Y-17084D02*
X28882Y-17684D01*
X28996Y-17255D01*
X29110Y-17684D01*
X29253Y-17084D01*
X29453Y-17141D02*
X29482Y-17112D01*
X29539Y-17084D01*
X29682Y-17084D01*
X29739Y-17112D01*
X29768Y-17141D01*
X29796Y-17198D01*
X29796Y-17255D01*
X29768Y-17341D01*
X29425Y-17684D01*
X29796Y-17684D01*
X44073Y-17600D02*
X44159Y-17629D01*
X44302Y-17629D01*
X44359Y-17600D01*
X44388Y-17572D01*
X44416Y-17515D01*
X44416Y-17457D01*
X44388Y-17400D01*
X44359Y-17372D01*
X44302Y-17343D01*
X44188Y-17315D01*
X44130Y-17286D01*
X44102Y-17257D01*
X44073Y-17200D01*
X44073Y-17143D01*
X44102Y-17086D01*
X44130Y-17057D01*
X44188Y-17029D01*
X44330Y-17029D01*
X44416Y-17057D01*
X44616Y-17029D02*
X44759Y-17629D01*
X44873Y-17200D01*
X44987Y-17629D01*
X45130Y-17029D01*
X45673Y-17629D02*
X45330Y-17629D01*
X45502Y-17629D02*
X45502Y-17029D01*
X45445Y-17115D01*
X45387Y-17172D01*
X45330Y-17200D01*
X35282Y-32278D02*
X34682Y-32278D01*
X35225Y-31649D02*
X35253Y-31678D01*
X35282Y-31764D01*
X35282Y-31821D01*
X35253Y-31906D01*
X35196Y-31964D01*
X35139Y-31992D01*
X35025Y-32021D01*
X34939Y-32021D01*
X34825Y-31992D01*
X34768Y-31964D01*
X34710Y-31906D01*
X34682Y-31821D01*
X34682Y-31764D01*
X34710Y-31678D01*
X34739Y-31649D01*
X35282Y-31078D02*
X35282Y-31421D01*
X35282Y-31249D02*
X34682Y-31249D01*
X34768Y-31306D01*
X34825Y-31364D01*
X34853Y-31421D01*
G54D12*
X46634Y-33493D02*
X46634Y-33093D01*
X46787Y-33093D01*
X46825Y-33112D01*
X46844Y-33131D01*
X46863Y-33169D01*
X46863Y-33226D01*
X46844Y-33264D01*
X46825Y-33283D01*
X46787Y-33302D01*
X46634Y-33302D01*
X47206Y-33093D02*
X47129Y-33093D01*
X47091Y-33112D01*
X47072Y-33131D01*
X47034Y-33188D01*
X47015Y-33264D01*
X47015Y-33417D01*
X47034Y-33455D01*
X47053Y-33474D01*
X47091Y-33493D01*
X47168Y-33493D01*
X47206Y-33474D01*
X47225Y-33455D01*
X47244Y-33417D01*
X47244Y-33321D01*
X47225Y-33283D01*
X47206Y-33264D01*
X47168Y-33245D01*
X47091Y-33245D01*
X47053Y-33264D01*
X47034Y-33283D01*
X47015Y-33321D01*
G54D15*
X32717Y-10765D02*
X32417Y-10765D01*
X32417Y-10693D01*
X32432Y-10650D01*
X32460Y-10622D01*
X32489Y-10607D01*
X32546Y-10593D01*
X32589Y-10593D01*
X32646Y-10607D01*
X32675Y-10622D01*
X32703Y-10650D01*
X32717Y-10693D01*
X32717Y-10765D01*
X32517Y-10336D02*
X32717Y-10336D01*
X32403Y-10407D02*
X32617Y-10479D01*
X32617Y-10293D01*
X30617Y-10036D02*
X30617Y-10179D01*
X30317Y-10179D01*
X30460Y-09936D02*
X30460Y-09836D01*
X30617Y-09793D02*
X30617Y-09936D01*
X30317Y-09936D01*
X30317Y-09793D01*
X30617Y-09665D02*
X30317Y-09665D01*
X30317Y-09593D01*
X30332Y-09550D01*
X30360Y-09522D01*
X30389Y-09507D01*
X30446Y-09493D01*
X30489Y-09493D01*
X30546Y-09507D01*
X30575Y-09522D01*
X30603Y-09550D01*
X30617Y-09593D01*
X30617Y-09665D01*
G54D12*
X37609Y-32163D02*
X37347Y-32330D01*
X37609Y-32449D02*
X37059Y-32449D01*
X37059Y-32258D01*
X37085Y-32211D01*
X37111Y-32187D01*
X37163Y-32163D01*
X37242Y-32163D01*
X37294Y-32187D01*
X37321Y-32211D01*
X37347Y-32258D01*
X37347Y-32449D01*
X37111Y-31973D02*
X37085Y-31949D01*
X37059Y-31901D01*
X37059Y-31782D01*
X37085Y-31735D01*
X37111Y-31711D01*
X37163Y-31687D01*
X37216Y-31687D01*
X37294Y-31711D01*
X37609Y-31997D01*
X37609Y-31687D01*
X40365Y-32163D02*
X40103Y-32330D01*
X40365Y-32449D02*
X39815Y-32449D01*
X39815Y-32258D01*
X39841Y-32211D01*
X39867Y-32187D01*
X39919Y-32163D01*
X39998Y-32163D01*
X40050Y-32187D01*
X40077Y-32211D01*
X40103Y-32258D01*
X40103Y-32449D01*
X39815Y-31997D02*
X39815Y-31687D01*
X40024Y-31854D01*
X40024Y-31782D01*
X40050Y-31735D01*
X40077Y-31711D01*
X40129Y-31687D01*
X40260Y-31687D01*
X40312Y-31711D01*
X40338Y-31735D01*
X40365Y-31782D01*
X40365Y-31925D01*
X40338Y-31973D01*
X40312Y-31997D01*
X38987Y-32163D02*
X38725Y-32330D01*
X38987Y-32449D02*
X38437Y-32449D01*
X38437Y-32258D01*
X38463Y-32211D01*
X38489Y-32187D01*
X38541Y-32163D01*
X38620Y-32163D01*
X38672Y-32187D01*
X38699Y-32211D01*
X38725Y-32258D01*
X38725Y-32449D01*
X38620Y-31735D02*
X38987Y-31735D01*
X38410Y-31854D02*
X38803Y-31973D01*
X38803Y-31663D01*
X28357Y-41298D02*
X28095Y-41465D01*
X28357Y-41584D02*
X27807Y-41584D01*
X27807Y-41393D01*
X27833Y-41346D01*
X27859Y-41322D01*
X27911Y-41298D01*
X27990Y-41298D01*
X28042Y-41322D01*
X28069Y-41346D01*
X28095Y-41393D01*
X28095Y-41584D01*
X27807Y-40846D02*
X27807Y-41084D01*
X28069Y-41108D01*
X28042Y-41084D01*
X28016Y-41036D01*
X28016Y-40917D01*
X28042Y-40870D01*
X28069Y-40846D01*
X28121Y-40822D01*
X28252Y-40822D01*
X28304Y-40846D01*
X28330Y-40870D01*
X28357Y-40917D01*
X28357Y-41036D01*
X28330Y-41084D01*
X28304Y-41108D01*
X37806Y-41298D02*
X37544Y-41465D01*
X37806Y-41584D02*
X37256Y-41584D01*
X37256Y-41393D01*
X37282Y-41346D01*
X37308Y-41322D01*
X37360Y-41298D01*
X37439Y-41298D01*
X37491Y-41322D01*
X37518Y-41346D01*
X37544Y-41393D01*
X37544Y-41584D01*
X37256Y-40870D02*
X37256Y-40965D01*
X37282Y-41013D01*
X37308Y-41036D01*
X37387Y-41084D01*
X37491Y-41108D01*
X37701Y-41108D01*
X37753Y-41084D01*
X37779Y-41060D01*
X37806Y-41013D01*
X37806Y-40917D01*
X37779Y-40870D01*
X37753Y-40846D01*
X37701Y-40822D01*
X37570Y-40822D01*
X37518Y-40846D01*
X37491Y-40870D01*
X37465Y-40917D01*
X37465Y-41013D01*
X37491Y-41060D01*
X37518Y-41084D01*
X37570Y-41108D01*
X32688Y-41298D02*
X32426Y-41465D01*
X32688Y-41584D02*
X32138Y-41584D01*
X32138Y-41393D01*
X32164Y-41346D01*
X32190Y-41322D01*
X32242Y-41298D01*
X32321Y-41298D01*
X32373Y-41322D01*
X32400Y-41346D01*
X32426Y-41393D01*
X32426Y-41584D01*
X32138Y-41132D02*
X32138Y-40798D01*
X32688Y-41013D01*
X28423Y-12921D02*
X28161Y-13088D01*
X28423Y-13207D02*
X27873Y-13207D01*
X27873Y-13016D01*
X27899Y-12969D01*
X27925Y-12945D01*
X27977Y-12921D01*
X28056Y-12921D01*
X28108Y-12945D01*
X28135Y-12969D01*
X28161Y-13016D01*
X28161Y-13207D01*
X28423Y-12445D02*
X28423Y-12731D01*
X28423Y-12588D02*
X27873Y-12588D01*
X27951Y-12636D01*
X28004Y-12683D01*
X28030Y-12731D01*
X28423Y-11969D02*
X28423Y-12255D01*
X28423Y-12112D02*
X27873Y-12112D01*
X27951Y-12160D01*
X28004Y-12207D01*
X28030Y-12255D01*
X30719Y-12913D02*
X30457Y-13080D01*
X30719Y-13199D02*
X30169Y-13199D01*
X30169Y-13008D01*
X30195Y-12961D01*
X30221Y-12937D01*
X30273Y-12913D01*
X30352Y-12913D01*
X30404Y-12937D01*
X30431Y-12961D01*
X30457Y-13008D01*
X30457Y-13199D01*
X30719Y-12437D02*
X30719Y-12723D01*
X30719Y-12580D02*
X30169Y-12580D01*
X30247Y-12628D01*
X30300Y-12675D01*
X30326Y-12723D01*
X30221Y-12247D02*
X30195Y-12223D01*
X30169Y-12175D01*
X30169Y-12056D01*
X30195Y-12009D01*
X30221Y-11985D01*
X30273Y-11961D01*
X30326Y-11961D01*
X30404Y-11985D01*
X30719Y-12271D01*
X30719Y-11961D01*
X51454Y-15496D02*
X51454Y-15782D01*
X51454Y-15639D02*
X50904Y-15639D01*
X50982Y-15687D01*
X51035Y-15734D01*
X51061Y-15782D01*
X51454Y-15020D02*
X51454Y-15306D01*
X51454Y-15163D02*
X50904Y-15163D01*
X50982Y-15211D01*
X51035Y-15258D01*
X51061Y-15306D01*
X50904Y-14711D02*
X50904Y-14663D01*
X50930Y-14615D01*
X50956Y-14592D01*
X51008Y-14568D01*
X51113Y-14544D01*
X51244Y-14544D01*
X51349Y-14568D01*
X51401Y-14592D01*
X51427Y-14615D01*
X51454Y-14663D01*
X51454Y-14711D01*
X51427Y-14758D01*
X51401Y-14782D01*
X51349Y-14806D01*
X51244Y-14830D01*
X51113Y-14830D01*
X51008Y-14806D01*
X50956Y-14782D01*
X50930Y-14758D01*
X50904Y-14711D01*
X51454Y-14330D02*
X50904Y-14330D01*
X51244Y-14282D02*
X51454Y-14139D01*
X51087Y-14139D02*
X51296Y-14330D01*
X26023Y-12921D02*
X25761Y-13088D01*
X26023Y-13207D02*
X25473Y-13207D01*
X25473Y-13016D01*
X25499Y-12969D01*
X25525Y-12945D01*
X25577Y-12921D01*
X25656Y-12921D01*
X25708Y-12945D01*
X25735Y-12969D01*
X25761Y-13016D01*
X25761Y-13207D01*
X26023Y-12445D02*
X26023Y-12731D01*
X26023Y-12588D02*
X25473Y-12588D01*
X25551Y-12636D01*
X25604Y-12683D01*
X25630Y-12731D01*
X25473Y-12136D02*
X25473Y-12088D01*
X25499Y-12040D01*
X25525Y-12017D01*
X25577Y-11993D01*
X25682Y-11969D01*
X25813Y-11969D01*
X25918Y-11993D01*
X25970Y-12017D01*
X25996Y-12040D01*
X26023Y-12088D01*
X26023Y-12136D01*
X25996Y-12183D01*
X25970Y-12207D01*
X25918Y-12231D01*
X25813Y-12255D01*
X25682Y-12255D01*
X25577Y-12231D01*
X25525Y-12207D01*
X25499Y-12183D01*
X25473Y-12136D01*
G54D13*
X48421Y-39488D02*
X47921Y-39488D01*
X48374Y-38964D02*
X48398Y-38988D01*
X48421Y-39059D01*
X48421Y-39107D01*
X48398Y-39179D01*
X48350Y-39226D01*
X48302Y-39250D01*
X48207Y-39274D01*
X48136Y-39274D01*
X48040Y-39250D01*
X47993Y-39226D01*
X47945Y-39179D01*
X47921Y-39107D01*
X47921Y-39059D01*
X47945Y-38988D01*
X47969Y-38964D01*
X47969Y-38774D02*
X47945Y-38750D01*
X47921Y-38702D01*
X47921Y-38583D01*
X47945Y-38536D01*
X47969Y-38512D01*
X48017Y-38488D01*
X48064Y-38488D01*
X48136Y-38512D01*
X48421Y-38798D01*
X48421Y-38488D01*
X44680Y-36888D02*
X44680Y-37174D01*
X44680Y-37031D02*
X44180Y-37031D01*
X44252Y-37079D01*
X44299Y-37126D01*
X44323Y-37174D01*
X46739Y-40484D02*
X46739Y-40388D01*
X46763Y-40341D01*
X46811Y-40293D01*
X46906Y-40269D01*
X47073Y-40269D01*
X47168Y-40293D01*
X47216Y-40341D01*
X47239Y-40388D01*
X47239Y-40484D01*
X47216Y-40531D01*
X47168Y-40579D01*
X47073Y-40603D01*
X46906Y-40603D01*
X46811Y-40579D01*
X46763Y-40531D01*
X46739Y-40484D01*
X46739Y-40055D02*
X47144Y-40055D01*
X47192Y-40031D01*
X47216Y-40007D01*
X47239Y-39960D01*
X47239Y-39864D01*
X47216Y-39817D01*
X47192Y-39793D01*
X47144Y-39769D01*
X46739Y-39769D01*
X46739Y-39602D02*
X46739Y-39317D01*
X47239Y-39460D02*
X46739Y-39460D01*
X47239Y-38081D02*
X46739Y-38081D01*
X47239Y-37843D02*
X46739Y-37843D01*
X47239Y-37557D01*
X46739Y-37557D01*
X46656Y-40568D02*
X46656Y-40187D01*
X46846Y-40377D02*
X46465Y-40377D01*
X46656Y-38599D02*
X46656Y-38218D01*
X46846Y-38408D02*
X46465Y-38408D01*
X46656Y-39584D02*
X46656Y-39203D01*
X46656Y-37615D02*
X46656Y-37234D01*
G54D12*
X23623Y-12921D02*
X23361Y-13088D01*
X23623Y-13207D02*
X23073Y-13207D01*
X23073Y-13016D01*
X23099Y-12969D01*
X23125Y-12945D01*
X23177Y-12921D01*
X23256Y-12921D01*
X23308Y-12945D01*
X23335Y-12969D01*
X23361Y-13016D01*
X23361Y-13207D01*
X23623Y-12445D02*
X23623Y-12731D01*
X23623Y-12588D02*
X23073Y-12588D01*
X23151Y-12636D01*
X23204Y-12683D01*
X23230Y-12731D01*
X23073Y-12279D02*
X23073Y-11969D01*
X23282Y-12136D01*
X23282Y-12064D01*
X23308Y-12017D01*
X23335Y-11993D01*
X23387Y-11969D01*
X23518Y-11969D01*
X23570Y-11993D01*
X23596Y-12017D01*
X23623Y-12064D01*
X23623Y-12207D01*
X23596Y-12255D01*
X23570Y-12279D01*
G54D10*
X56392Y-45198D02*
X56392Y-44898D01*
X56507Y-44898D01*
X56535Y-44913D01*
X56550Y-44927D01*
X56564Y-44956D01*
X56564Y-44998D01*
X56550Y-45027D01*
X56535Y-45041D01*
X56507Y-45056D01*
X56392Y-45056D01*
X56735Y-45027D02*
X56707Y-45013D01*
X56692Y-44998D01*
X56678Y-44970D01*
X56678Y-44956D01*
X56692Y-44927D01*
X56707Y-44913D01*
X56735Y-44898D01*
X56792Y-44898D01*
X56821Y-44913D01*
X56835Y-44927D01*
X56850Y-44956D01*
X56850Y-44970D01*
X56835Y-44998D01*
X56821Y-45013D01*
X56792Y-45027D01*
X56735Y-45027D01*
X56707Y-45041D01*
X56692Y-45056D01*
X56678Y-45084D01*
X56678Y-45141D01*
X56692Y-45170D01*
X56707Y-45184D01*
X56735Y-45198D01*
X56792Y-45198D01*
X56821Y-45184D01*
X56835Y-45170D01*
X56850Y-45141D01*
X56850Y-45084D01*
X56835Y-45056D01*
X56821Y-45041D01*
X56792Y-45027D01*
G54D15*
X25621Y-10622D02*
X25321Y-10622D01*
X25321Y-10550D01*
X25336Y-10507D01*
X25364Y-10479D01*
X25393Y-10464D01*
X25450Y-10450D01*
X25493Y-10450D01*
X25550Y-10464D01*
X25579Y-10479D01*
X25607Y-10507D01*
X25621Y-10550D01*
X25621Y-10622D01*
X25321Y-10179D02*
X25321Y-10322D01*
X25464Y-10336D01*
X25450Y-10322D01*
X25436Y-10293D01*
X25436Y-10222D01*
X25450Y-10193D01*
X25464Y-10179D01*
X25493Y-10164D01*
X25564Y-10164D01*
X25593Y-10179D01*
X25607Y-10193D01*
X25621Y-10222D01*
X25621Y-10293D01*
X25607Y-10322D01*
X25593Y-10336D01*
X23521Y-09893D02*
X23521Y-10036D01*
X23221Y-10036D01*
X23364Y-09793D02*
X23364Y-09693D01*
X23521Y-09650D02*
X23521Y-09793D01*
X23221Y-09793D01*
X23221Y-09650D01*
X23521Y-09522D02*
X23221Y-09522D01*
X23221Y-09450D01*
X23236Y-09407D01*
X23264Y-09379D01*
X23293Y-09364D01*
X23350Y-09350D01*
X23393Y-09350D01*
X23450Y-09364D01*
X23479Y-09379D01*
X23507Y-09407D01*
X23521Y-09450D01*
X23521Y-09522D01*
G54D10*
X34227Y-19647D02*
X34227Y-19347D01*
X34342Y-19347D01*
X34370Y-19362D01*
X34385Y-19376D01*
X34399Y-19405D01*
X34399Y-19447D01*
X34385Y-19476D01*
X34370Y-19490D01*
X34342Y-19505D01*
X34227Y-19505D01*
X34542Y-19647D02*
X34599Y-19647D01*
X34627Y-19633D01*
X34642Y-19619D01*
X34670Y-19576D01*
X34685Y-19519D01*
X34685Y-19405D01*
X34670Y-19376D01*
X34656Y-19362D01*
X34627Y-19347D01*
X34570Y-19347D01*
X34542Y-19362D01*
X34527Y-19376D01*
X34513Y-19405D01*
X34513Y-19476D01*
X34527Y-19505D01*
X34542Y-19519D01*
X34570Y-19533D01*
X34627Y-19533D01*
X34656Y-19519D01*
X34670Y-19505D01*
X34685Y-19476D01*
X35462Y-31457D02*
X35462Y-31157D01*
X35577Y-31157D01*
X35605Y-31172D01*
X35620Y-31186D01*
X35634Y-31215D01*
X35634Y-31257D01*
X35620Y-31286D01*
X35605Y-31300D01*
X35577Y-31315D01*
X35462Y-31315D01*
X35920Y-31457D02*
X35748Y-31457D01*
X35834Y-31457D02*
X35834Y-31157D01*
X35805Y-31200D01*
X35777Y-31229D01*
X35748Y-31243D01*
X36106Y-31157D02*
X36134Y-31157D01*
X36163Y-31172D01*
X36177Y-31186D01*
X36191Y-31215D01*
X36206Y-31272D01*
X36206Y-31343D01*
X36191Y-31400D01*
X36177Y-31429D01*
X36163Y-31443D01*
X36134Y-31457D01*
X36106Y-31457D01*
X36077Y-31443D01*
X36063Y-31429D01*
X36048Y-31400D01*
X36034Y-31343D01*
X36034Y-31272D01*
X36048Y-31215D01*
X36063Y-31186D01*
X36077Y-31172D01*
X36106Y-31157D01*
X42155Y-31458D02*
X42155Y-31158D01*
X42270Y-31158D01*
X42298Y-31173D01*
X42313Y-31187D01*
X42327Y-31216D01*
X42327Y-31258D01*
X42313Y-31287D01*
X42298Y-31301D01*
X42270Y-31316D01*
X42155Y-31316D01*
X42613Y-31458D02*
X42441Y-31458D01*
X42527Y-31458D02*
X42527Y-31158D01*
X42498Y-31201D01*
X42470Y-31230D01*
X42441Y-31244D01*
X42899Y-31458D02*
X42727Y-31458D01*
X42813Y-31458D02*
X42813Y-31158D01*
X42784Y-31201D01*
X42756Y-31230D01*
X42727Y-31244D01*
X36446Y-31457D02*
X36446Y-31157D01*
X36561Y-31157D01*
X36589Y-31172D01*
X36604Y-31186D01*
X36618Y-31215D01*
X36618Y-31257D01*
X36604Y-31286D01*
X36589Y-31300D01*
X36561Y-31315D01*
X36446Y-31315D01*
X36904Y-31457D02*
X36732Y-31457D01*
X36818Y-31457D02*
X36818Y-31157D01*
X36789Y-31200D01*
X36761Y-31229D01*
X36732Y-31243D01*
X37018Y-31186D02*
X37032Y-31172D01*
X37061Y-31157D01*
X37132Y-31157D01*
X37161Y-31172D01*
X37175Y-31186D01*
X37190Y-31215D01*
X37190Y-31243D01*
X37175Y-31286D01*
X37004Y-31457D01*
X37190Y-31457D01*
G54D16*
X57318Y-36338D02*
X56618Y-36338D01*
X56618Y-36166D01*
X56652Y-36124D01*
X56685Y-36102D01*
X56752Y-36081D01*
X56852Y-36081D01*
X56918Y-36102D01*
X56952Y-36124D01*
X56985Y-36166D01*
X56985Y-36338D01*
X57318Y-35652D02*
X57318Y-35909D01*
X57318Y-35781D02*
X56618Y-35781D01*
X56718Y-35824D01*
X56785Y-35866D01*
X56818Y-35909D01*
X56618Y-35502D02*
X56618Y-35223D01*
X56885Y-35373D01*
X56885Y-35309D01*
X56918Y-35266D01*
X56952Y-35245D01*
X57018Y-35223D01*
X57185Y-35223D01*
X57252Y-35245D01*
X57285Y-35266D01*
X57318Y-35309D01*
X57318Y-35437D01*
X57285Y-35480D01*
X57252Y-35502D01*
X56418Y-41527D02*
X55718Y-41527D01*
X55718Y-41420D01*
X55752Y-41355D01*
X55818Y-41313D01*
X55885Y-41291D01*
X56018Y-41270D01*
X56118Y-41270D01*
X56252Y-41291D01*
X56318Y-41313D01*
X56385Y-41355D01*
X56418Y-41420D01*
X56418Y-41527D01*
X56418Y-41077D02*
X55718Y-41077D01*
X56418Y-40649D02*
X56418Y-40863D01*
X55718Y-40863D01*
X55785Y-40520D02*
X55752Y-40499D01*
X55718Y-40456D01*
X55718Y-40349D01*
X55752Y-40306D01*
X55785Y-40285D01*
X55852Y-40263D01*
X55918Y-40263D01*
X56018Y-40285D01*
X56418Y-40542D01*
X56418Y-40263D01*
X55718Y-39984D02*
X55718Y-39941D01*
X55752Y-39898D01*
X55785Y-39877D01*
X55852Y-39856D01*
X55985Y-39834D01*
X56152Y-39834D01*
X56285Y-39856D01*
X56352Y-39877D01*
X56385Y-39898D01*
X56418Y-39941D01*
X56418Y-39984D01*
X56385Y-40027D01*
X56352Y-40048D01*
X56285Y-40070D01*
X56152Y-40091D01*
X55985Y-40091D01*
X55852Y-40070D01*
X55785Y-40048D01*
X55752Y-40027D01*
X55718Y-39984D01*
G54D14*
X38928Y-49093D02*
X38928Y-48493D01*
X39271Y-49093D02*
X39014Y-48750D01*
X39271Y-48493D02*
X38928Y-48836D01*
X39842Y-49093D02*
X39499Y-49093D01*
X39671Y-49093D02*
X39671Y-48493D01*
X39614Y-48579D01*
X39556Y-48636D01*
X39499Y-48664D01*
X38342Y-44493D02*
X38742Y-45093D01*
X38742Y-44493D02*
X38342Y-45093D01*
X39256Y-45093D02*
X38970Y-45093D01*
X38970Y-44493D01*
X39799Y-45093D02*
X39599Y-44807D01*
X39456Y-45093D02*
X39456Y-44493D01*
X39684Y-44493D01*
X39742Y-44521D01*
X39770Y-44550D01*
X39799Y-44607D01*
X39799Y-44693D01*
X39770Y-44750D01*
X39742Y-44779D01*
X39684Y-44807D01*
X39456Y-44807D01*
X39999Y-44493D02*
X40370Y-44493D01*
X40170Y-44721D01*
X40256Y-44721D01*
X40313Y-44750D01*
X40342Y-44779D01*
X40370Y-44836D01*
X40370Y-44979D01*
X40342Y-45036D01*
X40313Y-45064D01*
X40256Y-45093D01*
X40084Y-45093D01*
X40027Y-45064D01*
X39999Y-45036D01*
X51690Y-44415D02*
X51690Y-44843D01*
X51662Y-44929D01*
X51605Y-44986D01*
X51519Y-45015D01*
X51462Y-45015D01*
X52290Y-45015D02*
X51947Y-45015D01*
X52119Y-45015D02*
X52119Y-44415D01*
X52062Y-44501D01*
X52004Y-44558D01*
X51947Y-44586D01*
X50319Y-48415D02*
X50319Y-48843D01*
X50291Y-48929D01*
X50234Y-48986D01*
X50148Y-49015D01*
X50091Y-49015D01*
X50576Y-48843D02*
X50862Y-48843D01*
X50519Y-49015D02*
X50719Y-48415D01*
X50919Y-49015D01*
X51462Y-48958D02*
X51433Y-48986D01*
X51347Y-49015D01*
X51290Y-49015D01*
X51205Y-48986D01*
X51147Y-48929D01*
X51119Y-48872D01*
X51090Y-48758D01*
X51090Y-48672D01*
X51119Y-48558D01*
X51147Y-48501D01*
X51205Y-48443D01*
X51290Y-48415D01*
X51347Y-48415D01*
X51433Y-48443D01*
X51462Y-48472D01*
X51719Y-49015D02*
X51719Y-48415D01*
X52062Y-49015D02*
X51805Y-48672D01*
X52062Y-48415D02*
X51719Y-48758D01*
X52176Y-49072D02*
X52633Y-49072D01*
X52747Y-48472D02*
X52776Y-48443D01*
X52833Y-48415D01*
X52976Y-48415D01*
X53033Y-48443D01*
X53062Y-48472D01*
X53090Y-48529D01*
X53090Y-48586D01*
X53062Y-48672D01*
X52719Y-49015D01*
X53090Y-49015D01*
X53318Y-48986D02*
X53404Y-49015D01*
X53547Y-49015D01*
X53604Y-48986D01*
X53633Y-48958D01*
X53661Y-48901D01*
X53661Y-48843D01*
X53633Y-48786D01*
X53604Y-48758D01*
X53547Y-48729D01*
X53433Y-48701D01*
X53375Y-48672D01*
X53347Y-48643D01*
X53318Y-48586D01*
X53318Y-48529D01*
X53347Y-48472D01*
X53375Y-48443D01*
X53433Y-48415D01*
X53575Y-48415D01*
X53661Y-48443D01*
G54D13*
X24981Y-05844D02*
X25000Y-05825D01*
X25038Y-05806D01*
X25134Y-05806D01*
X25172Y-05825D01*
X25191Y-05844D01*
X25210Y-05882D01*
X25210Y-05920D01*
X25191Y-05977D01*
X24962Y-06206D01*
X25210Y-06206D01*
X25381Y-06206D02*
X25381Y-05806D01*
X25534Y-05806D01*
X25572Y-05825D01*
X25591Y-05844D01*
X25610Y-05882D01*
X25610Y-05939D01*
X25591Y-05977D01*
X25572Y-05996D01*
X25534Y-06015D01*
X25381Y-06015D01*
X25781Y-06206D02*
X25781Y-05806D01*
X25971Y-06206D02*
X25971Y-05806D01*
X26200Y-06206D01*
X26200Y-05806D01*
X56562Y-05806D02*
X56810Y-05806D01*
X56676Y-05958D01*
X56734Y-05958D01*
X56772Y-05977D01*
X56791Y-05996D01*
X56810Y-06034D01*
X56810Y-06130D01*
X56791Y-06168D01*
X56772Y-06187D01*
X56734Y-06206D01*
X56619Y-06206D01*
X56581Y-06187D01*
X56562Y-06168D01*
X56981Y-06206D02*
X56981Y-05806D01*
X57134Y-05806D01*
X57172Y-05825D01*
X57191Y-05844D01*
X57210Y-05882D01*
X57210Y-05939D01*
X57191Y-05977D01*
X57172Y-05996D01*
X57134Y-06015D01*
X56981Y-06015D01*
X57381Y-06206D02*
X57381Y-05806D01*
X57571Y-06206D02*
X57571Y-05806D01*
X57800Y-06206D01*
X57800Y-05806D01*
X56372Y-46595D02*
X56372Y-46862D01*
X56276Y-46443D02*
X56181Y-46729D01*
X56429Y-46729D01*
X56581Y-46862D02*
X56581Y-46462D01*
X56734Y-46462D01*
X56772Y-46481D01*
X56791Y-46500D01*
X56810Y-46538D01*
X56810Y-46595D01*
X56791Y-46633D01*
X56772Y-46652D01*
X56734Y-46671D01*
X56581Y-46671D01*
X56981Y-46862D02*
X56981Y-46462D01*
X57171Y-46862D02*
X57171Y-46462D01*
X57400Y-46862D01*
X57400Y-46462D01*
X25210Y-46762D02*
X24981Y-46762D01*
X25095Y-46762D02*
X25095Y-46362D01*
X25057Y-46419D01*
X25019Y-46457D01*
X24981Y-46476D01*
X25381Y-46762D02*
X25381Y-46362D01*
X25534Y-46362D01*
X25572Y-46381D01*
X25591Y-46400D01*
X25610Y-46438D01*
X25610Y-46495D01*
X25591Y-46533D01*
X25572Y-46552D01*
X25534Y-46571D01*
X25381Y-46571D01*
X25781Y-46762D02*
X25781Y-46362D01*
X25971Y-46762D02*
X25971Y-46362D01*
X26200Y-46762D01*
X26200Y-46362D01*
G54D12*
X45945Y-45693D02*
X45945Y-46179D01*
X45964Y-46236D01*
X45983Y-46264D01*
X46021Y-46293D01*
X46098Y-46293D01*
X46136Y-46264D01*
X46155Y-46236D01*
X46174Y-46179D01*
X46174Y-45693D01*
X46574Y-46293D02*
X46345Y-46293D01*
X46459Y-46293D02*
X46459Y-45693D01*
X46421Y-45779D01*
X46383Y-45836D01*
X46345Y-45864D01*
X45295Y-48443D02*
X45562Y-48443D01*
X45390Y-49043D01*
X45771Y-48700D02*
X45733Y-48671D01*
X45714Y-48643D01*
X45695Y-48586D01*
X45695Y-48557D01*
X45714Y-48500D01*
X45733Y-48471D01*
X45771Y-48443D01*
X45848Y-48443D01*
X45886Y-48471D01*
X45905Y-48500D01*
X45924Y-48557D01*
X45924Y-48586D01*
X45905Y-48643D01*
X45886Y-48671D01*
X45848Y-48700D01*
X45771Y-48700D01*
X45733Y-48729D01*
X45714Y-48757D01*
X45695Y-48814D01*
X45695Y-48929D01*
X45714Y-48986D01*
X45733Y-49014D01*
X45771Y-49043D01*
X45848Y-49043D01*
X45886Y-49014D01*
X45905Y-48986D01*
X45924Y-48929D01*
X45924Y-48814D01*
X45905Y-48757D01*
X45886Y-48729D01*
X45848Y-48700D01*
X46171Y-48443D02*
X46210Y-48443D01*
X46248Y-48471D01*
X46267Y-48500D01*
X46286Y-48557D01*
X46305Y-48671D01*
X46305Y-48814D01*
X46286Y-48929D01*
X46267Y-48986D01*
X46248Y-49014D01*
X46210Y-49043D01*
X46171Y-49043D01*
X46133Y-49014D01*
X46114Y-48986D01*
X46095Y-48929D01*
X46076Y-48814D01*
X46076Y-48671D01*
X46095Y-48557D01*
X46114Y-48500D01*
X46133Y-48471D01*
X46171Y-48443D01*
X46667Y-48443D02*
X46476Y-48443D01*
X46457Y-48729D01*
X46476Y-48700D01*
X46514Y-48671D01*
X46610Y-48671D01*
X46648Y-48700D01*
X46667Y-48729D01*
X46686Y-48786D01*
X46686Y-48929D01*
X46667Y-48986D01*
X46648Y-49014D01*
X46610Y-49043D01*
X46514Y-49043D01*
X46476Y-49014D01*
X46457Y-48986D01*
X50564Y-40000D02*
X50545Y-40019D01*
X50488Y-40038D01*
X50450Y-40038D01*
X50392Y-40019D01*
X50354Y-39981D01*
X50335Y-39943D01*
X50316Y-39866D01*
X50316Y-39809D01*
X50335Y-39733D01*
X50354Y-39695D01*
X50392Y-39657D01*
X50450Y-39638D01*
X50488Y-39638D01*
X50545Y-39657D01*
X50564Y-39676D01*
X50926Y-39638D02*
X50735Y-39638D01*
X50716Y-39828D01*
X50735Y-39809D01*
X50773Y-39790D01*
X50869Y-39790D01*
X50907Y-39809D01*
X50926Y-39828D01*
X50945Y-39866D01*
X50945Y-39962D01*
X50926Y-40000D01*
X50907Y-40019D01*
X50869Y-40038D01*
X50773Y-40038D01*
X50735Y-40019D01*
X50716Y-40000D01*
X50011Y-38238D02*
X49782Y-38238D01*
X49896Y-38238D02*
X49896Y-37838D01*
X49858Y-37895D01*
X49820Y-37933D01*
X49782Y-37952D01*
X50258Y-37838D02*
X50297Y-37838D01*
X50335Y-37857D01*
X50354Y-37876D01*
X50373Y-37914D01*
X50392Y-37990D01*
X50392Y-38086D01*
X50373Y-38162D01*
X50354Y-38200D01*
X50335Y-38219D01*
X50297Y-38238D01*
X50258Y-38238D01*
X50220Y-38219D01*
X50201Y-38200D01*
X50182Y-38162D01*
X50163Y-38086D01*
X50163Y-37990D01*
X50182Y-37914D01*
X50201Y-37876D01*
X50220Y-37857D01*
X50258Y-37838D01*
X50639Y-37838D02*
X50678Y-37838D01*
X50716Y-37857D01*
X50735Y-37876D01*
X50754Y-37914D01*
X50773Y-37990D01*
X50773Y-38086D01*
X50754Y-38162D01*
X50735Y-38200D01*
X50716Y-38219D01*
X50678Y-38238D01*
X50639Y-38238D01*
X50601Y-38219D01*
X50582Y-38200D01*
X50563Y-38162D01*
X50544Y-38086D01*
X50544Y-37990D01*
X50563Y-37914D01*
X50582Y-37876D01*
X50601Y-37857D01*
X50639Y-37838D01*
X51116Y-37971D02*
X51116Y-38238D01*
X50944Y-37971D02*
X50944Y-38181D01*
X50963Y-38219D01*
X51001Y-38238D01*
X51059Y-38238D01*
X51097Y-38219D01*
X51116Y-38200D01*
X51440Y-38028D02*
X51306Y-38028D01*
X51306Y-38238D02*
X51306Y-37838D01*
X51497Y-37838D01*
G54D14*
X49052Y-38940D02*
X49509Y-38940D01*
X49280Y-39169D02*
X49280Y-38712D01*
G54D17*
X58960Y-42311D02*
X58279Y-42311D01*
X58279Y-42148D01*
X58312Y-42107D01*
X58344Y-42087D01*
X58409Y-42067D01*
X58506Y-42067D01*
X58571Y-42087D01*
X58603Y-42107D01*
X58636Y-42148D01*
X58636Y-42311D01*
X58960Y-41659D02*
X58960Y-41903D01*
X58960Y-41781D02*
X58279Y-41781D01*
X58376Y-41822D01*
X58441Y-41863D01*
X58474Y-41903D01*
X58279Y-41271D02*
X58279Y-41475D01*
X58603Y-41495D01*
X58571Y-41475D01*
X58539Y-41434D01*
X58539Y-41332D01*
X58571Y-41292D01*
X58603Y-41271D01*
X58668Y-41251D01*
X58830Y-41251D01*
X58895Y-41271D01*
X58928Y-41292D01*
X58960Y-41332D01*
X58960Y-41434D01*
X58928Y-41475D01*
X58895Y-41495D01*
G54D13*
X58871Y-37829D02*
X58899Y-37848D01*
X58928Y-37905D01*
X58928Y-37943D01*
X58899Y-38001D01*
X58842Y-38039D01*
X58785Y-38058D01*
X58671Y-38077D01*
X58585Y-38077D01*
X58471Y-38058D01*
X58414Y-38039D01*
X58356Y-38001D01*
X58328Y-37943D01*
X58328Y-37905D01*
X58356Y-37848D01*
X58385Y-37829D01*
X58328Y-37582D02*
X58328Y-37505D01*
X58356Y-37467D01*
X58414Y-37429D01*
X58528Y-37410D01*
X58728Y-37410D01*
X58842Y-37429D01*
X58899Y-37467D01*
X58928Y-37505D01*
X58928Y-37582D01*
X58899Y-37620D01*
X58842Y-37658D01*
X58728Y-37677D01*
X58528Y-37677D01*
X58414Y-37658D01*
X58356Y-37620D01*
X58328Y-37582D01*
X58928Y-37239D02*
X58328Y-37239D01*
X58928Y-37010D01*
X58328Y-37010D01*
X58928Y-36820D02*
X58328Y-36820D01*
X58928Y-36591D01*
X58328Y-36591D01*
X58985Y-36496D02*
X58985Y-36191D01*
X58928Y-35886D02*
X58928Y-36115D01*
X58928Y-36001D02*
X58328Y-36001D01*
X58414Y-36039D01*
X58471Y-36077D01*
X58499Y-36115D01*
X58328Y-35639D02*
X58328Y-35600D01*
X58356Y-35562D01*
X58385Y-35543D01*
X58442Y-35524D01*
X58556Y-35505D01*
X58699Y-35505D01*
X58814Y-35524D01*
X58871Y-35543D01*
X58899Y-35562D01*
X58928Y-35600D01*
X58928Y-35639D01*
X58899Y-35677D01*
X58871Y-35696D01*
X58814Y-35715D01*
X58699Y-35734D01*
X58556Y-35734D01*
X58442Y-35715D01*
X58385Y-35696D01*
X58356Y-35677D01*
X58328Y-35639D01*
G54D17*
X54661Y-37311D02*
X53980Y-37311D01*
X53980Y-37148D01*
X54013Y-37107D01*
X54045Y-37087D01*
X54110Y-37067D01*
X54207Y-37067D01*
X54272Y-37087D01*
X54304Y-37107D01*
X54337Y-37148D01*
X54337Y-37311D01*
X54661Y-36659D02*
X54661Y-36903D01*
X54661Y-36781D02*
X53980Y-36781D01*
X54077Y-36822D01*
X54142Y-36863D01*
X54175Y-36903D01*
X54207Y-36292D02*
X54661Y-36292D01*
X53948Y-36394D02*
X54434Y-36495D01*
X54434Y-36231D01*
G54D13*
X54572Y-42829D02*
X54600Y-42848D01*
X54629Y-42905D01*
X54629Y-42943D01*
X54600Y-43001D01*
X54543Y-43039D01*
X54486Y-43058D01*
X54372Y-43077D01*
X54286Y-43077D01*
X54172Y-43058D01*
X54115Y-43039D01*
X54057Y-43001D01*
X54029Y-42943D01*
X54029Y-42905D01*
X54057Y-42848D01*
X54086Y-42829D01*
X54029Y-42582D02*
X54029Y-42505D01*
X54057Y-42467D01*
X54115Y-42429D01*
X54229Y-42410D01*
X54429Y-42410D01*
X54543Y-42429D01*
X54600Y-42467D01*
X54629Y-42505D01*
X54629Y-42582D01*
X54600Y-42620D01*
X54543Y-42658D01*
X54429Y-42677D01*
X54229Y-42677D01*
X54115Y-42658D01*
X54057Y-42620D01*
X54029Y-42582D01*
X54629Y-42239D02*
X54029Y-42239D01*
X54629Y-42010D01*
X54029Y-42010D01*
X54629Y-41820D02*
X54029Y-41820D01*
X54629Y-41591D01*
X54029Y-41591D01*
X54686Y-41496D02*
X54686Y-41191D01*
X54629Y-40886D02*
X54629Y-41115D01*
X54629Y-41001D02*
X54029Y-41001D01*
X54115Y-41039D01*
X54172Y-41077D01*
X54200Y-41115D01*
X54029Y-40639D02*
X54029Y-40600D01*
X54057Y-40562D01*
X54086Y-40543D01*
X54143Y-40524D01*
X54257Y-40505D01*
X54400Y-40505D01*
X54515Y-40524D01*
X54572Y-40543D01*
X54600Y-40562D01*
X54629Y-40600D01*
X54629Y-40639D01*
X54600Y-40677D01*
X54572Y-40696D01*
X54515Y-40715D01*
X54400Y-40734D01*
X54257Y-40734D01*
X54143Y-40715D01*
X54086Y-40696D01*
X54057Y-40677D01*
X54029Y-40639D01*
G54D12*
X35081Y-48556D02*
X34819Y-48723D01*
X35081Y-48842D02*
X34531Y-48842D01*
X34531Y-48651D01*
X34557Y-48604D01*
X34583Y-48580D01*
X34635Y-48556D01*
X34714Y-48556D01*
X34766Y-48580D01*
X34793Y-48604D01*
X34819Y-48651D01*
X34819Y-48842D01*
X35081Y-48080D02*
X35081Y-48366D01*
X35081Y-48223D02*
X34531Y-48223D01*
X34609Y-48271D01*
X34662Y-48318D01*
X34688Y-48366D01*
X34714Y-47652D02*
X35081Y-47652D01*
X34504Y-47771D02*
X34897Y-47890D01*
X34897Y-47580D01*
X33310Y-48556D02*
X33048Y-48723D01*
X33310Y-48842D02*
X32760Y-48842D01*
X32760Y-48651D01*
X32786Y-48604D01*
X32812Y-48580D01*
X32864Y-48556D01*
X32943Y-48556D01*
X32995Y-48580D01*
X33022Y-48604D01*
X33048Y-48651D01*
X33048Y-48842D01*
X33310Y-48080D02*
X33310Y-48366D01*
X33310Y-48223D02*
X32760Y-48223D01*
X32838Y-48271D01*
X32891Y-48318D01*
X32917Y-48366D01*
X32760Y-47628D02*
X32760Y-47866D01*
X33022Y-47890D01*
X32995Y-47866D01*
X32969Y-47818D01*
X32969Y-47699D01*
X32995Y-47652D01*
X33022Y-47628D01*
X33074Y-47604D01*
X33205Y-47604D01*
X33257Y-47628D01*
X33283Y-47652D01*
X33310Y-47699D01*
X33310Y-47818D01*
X33283Y-47866D01*
X33257Y-47890D01*
X31538Y-48556D02*
X31276Y-48723D01*
X31538Y-48842D02*
X30988Y-48842D01*
X30988Y-48651D01*
X31014Y-48604D01*
X31040Y-48580D01*
X31092Y-48556D01*
X31171Y-48556D01*
X31223Y-48580D01*
X31250Y-48604D01*
X31276Y-48651D01*
X31276Y-48842D01*
X31538Y-48080D02*
X31538Y-48366D01*
X31538Y-48223D02*
X30988Y-48223D01*
X31066Y-48271D01*
X31119Y-48318D01*
X31145Y-48366D01*
X30988Y-47652D02*
X30988Y-47747D01*
X31014Y-47795D01*
X31040Y-47818D01*
X31119Y-47866D01*
X31223Y-47890D01*
X31433Y-47890D01*
X31485Y-47866D01*
X31511Y-47842D01*
X31538Y-47795D01*
X31538Y-47699D01*
X31511Y-47652D01*
X31485Y-47628D01*
X31433Y-47604D01*
X31302Y-47604D01*
X31250Y-47628D01*
X31223Y-47652D01*
X31197Y-47699D01*
X31197Y-47795D01*
X31223Y-47842D01*
X31250Y-47866D01*
X31302Y-47890D01*
M02*
