G04 (created by PCBNEW-RS274X (2012-apr-16-27)-stable) date Thu 28 Nov 2013 00:51:53 GMT*
G01*
G70*
G90*
%MOIN*%
G04 Gerber Fmt 3.4, Leading zero omitted, Abs format*
%FSLAX34Y34*%
G04 APERTURE LIST*
%ADD10C,0.006000*%
%ADD11C,0.015000*%
%ADD12C,0.055000*%
%ADD13R,0.060000X0.060000*%
%ADD14C,0.060000*%
%ADD15R,0.055000X0.055000*%
%ADD16C,0.066000*%
%ADD17R,0.062000X0.090000*%
%ADD18O,0.062000X0.090000*%
%ADD19R,0.090000X0.062000*%
%ADD20O,0.090000X0.062000*%
%ADD21C,0.150000*%
%ADD22C,0.070000*%
%ADD23C,0.160000*%
%ADD24C,0.008000*%
%ADD25C,0.010000*%
G04 APERTURE END LIST*
G54D10*
G54D11*
X23228Y-46850D02*
X23228Y-45276D01*
X59843Y-46850D02*
X23228Y-46850D01*
X59843Y-45669D02*
X59843Y-46850D01*
X59843Y-08661D02*
X59843Y-45669D01*
X23228Y-08661D02*
X59843Y-08661D01*
X23228Y-45276D02*
X23228Y-08661D01*
G54D12*
X36295Y-13386D03*
X39295Y-13386D03*
X36295Y-14961D03*
X39295Y-14961D03*
G54D13*
X45350Y-32283D03*
G54D14*
X46350Y-32283D03*
X47350Y-32283D03*
X48350Y-32283D03*
G54D13*
X40469Y-44291D03*
G54D14*
X39469Y-44291D03*
X38469Y-44291D03*
G54D13*
X53043Y-43299D03*
G54D14*
X54043Y-43299D03*
X53043Y-44299D03*
X54043Y-44299D03*
G54D13*
X36500Y-11000D03*
G54D14*
X37500Y-11000D03*
G54D13*
X25591Y-44201D03*
G54D14*
X25591Y-43201D03*
G54D13*
X27165Y-44201D03*
G54D14*
X27165Y-43201D03*
G54D13*
X28740Y-44201D03*
G54D14*
X28740Y-43201D03*
G54D13*
X36508Y-17323D03*
G54D14*
X37508Y-17323D03*
G54D12*
X50091Y-41642D03*
G54D15*
X51091Y-41642D03*
G54D12*
X51091Y-40642D03*
G54D16*
X25197Y-09343D03*
X25197Y-10343D03*
X28346Y-09343D03*
X28346Y-10343D03*
G54D17*
X34571Y-42004D03*
G54D18*
X33571Y-42004D03*
X32571Y-42004D03*
X31571Y-42004D03*
X31571Y-45004D03*
X32571Y-45004D03*
X33571Y-45004D03*
X34571Y-45004D03*
G54D15*
X27240Y-36933D03*
G54D12*
X28240Y-36933D03*
X29240Y-36933D03*
X30240Y-36933D03*
X30240Y-33933D03*
X29240Y-33933D03*
X28240Y-33933D03*
X27240Y-33933D03*
G54D15*
X40476Y-33933D03*
G54D12*
X39476Y-33933D03*
X38476Y-33933D03*
X37476Y-33933D03*
X37476Y-36933D03*
X38476Y-36933D03*
X39476Y-36933D03*
X40476Y-36933D03*
G54D15*
X35358Y-33933D03*
G54D12*
X34358Y-33933D03*
X33358Y-33933D03*
X32358Y-33933D03*
X32358Y-36933D03*
X33358Y-36933D03*
X34358Y-36933D03*
X35358Y-36933D03*
G54D19*
X52831Y-24831D03*
G54D20*
X52831Y-25831D03*
X52831Y-26831D03*
X52831Y-27831D03*
X52831Y-28831D03*
X52831Y-29831D03*
X52831Y-30831D03*
X52831Y-31831D03*
X52831Y-32831D03*
X52831Y-33831D03*
X55831Y-33831D03*
X55831Y-32831D03*
X55831Y-31831D03*
X55831Y-30831D03*
X55831Y-29831D03*
X55831Y-28831D03*
X55831Y-27831D03*
X55831Y-26831D03*
X55831Y-25831D03*
X55831Y-24831D03*
G54D21*
X54000Y-20050D03*
X54000Y-10050D03*
G54D13*
X53000Y-12850D03*
G54D14*
X53000Y-13950D03*
X53000Y-15000D03*
X53000Y-16100D03*
X53000Y-17200D03*
X54000Y-13400D03*
X54000Y-14500D03*
X54000Y-15550D03*
X54000Y-16650D03*
G54D12*
X46063Y-24787D03*
X46063Y-26787D03*
X48122Y-26772D03*
X49122Y-26772D03*
X48122Y-24803D03*
X49122Y-24803D03*
X50189Y-44291D03*
X51189Y-44291D03*
X49024Y-40551D03*
X48024Y-40551D03*
G54D22*
X25496Y-18941D03*
X26496Y-18941D03*
X27496Y-18941D03*
X28496Y-18941D03*
X29496Y-18941D03*
X30496Y-18941D03*
X31496Y-18941D03*
X32496Y-18941D03*
X32496Y-15941D03*
X31496Y-15941D03*
X30496Y-15941D03*
X29496Y-15941D03*
X28496Y-15941D03*
X27496Y-15941D03*
X26496Y-15941D03*
X25496Y-15941D03*
G54D14*
X47953Y-11276D03*
X47953Y-16000D03*
X42047Y-11276D03*
X42047Y-16000D03*
X44311Y-13638D03*
X45689Y-13638D03*
X24500Y-29000D03*
X25500Y-29000D03*
X26500Y-29000D03*
X27500Y-29000D03*
X28500Y-29000D03*
X29500Y-29000D03*
X30500Y-29000D03*
X31500Y-29000D03*
X32500Y-29000D03*
X33500Y-29000D03*
X34500Y-29000D03*
X35500Y-29000D03*
X36500Y-29000D03*
X37500Y-29000D03*
X38500Y-29000D03*
X39500Y-29000D03*
X40500Y-29000D03*
X41500Y-29000D03*
X42500Y-29000D03*
X43500Y-29000D03*
X43500Y-23000D03*
X42500Y-23000D03*
X41500Y-23000D03*
X40500Y-23000D03*
X39500Y-23000D03*
X38500Y-23000D03*
X37500Y-23000D03*
X36500Y-23000D03*
X35500Y-23000D03*
X34500Y-23000D03*
X33500Y-23000D03*
X32500Y-23000D03*
X31500Y-23000D03*
X30500Y-23000D03*
X29500Y-23000D03*
X28500Y-23000D03*
X27500Y-23000D03*
X26500Y-23000D03*
X25500Y-23000D03*
X24500Y-23000D03*
G54D13*
X55906Y-43299D03*
G54D14*
X55906Y-44299D03*
G54D13*
X45350Y-35827D03*
G54D14*
X46350Y-35827D03*
X47350Y-35827D03*
X48350Y-35827D03*
G54D16*
X31496Y-09343D03*
X31496Y-10343D03*
G54D12*
X32677Y-31390D03*
X32677Y-32390D03*
X35827Y-31390D03*
X35827Y-32390D03*
X34252Y-31390D03*
X34252Y-32390D03*
X29134Y-38870D03*
X29134Y-39870D03*
X38583Y-38870D03*
X38583Y-39870D03*
X33465Y-38870D03*
X33465Y-39870D03*
X28346Y-12492D03*
X28346Y-13492D03*
X31496Y-12492D03*
X31496Y-13492D03*
X51181Y-16461D03*
X51181Y-13461D03*
X25197Y-12492D03*
X25197Y-13492D03*
G54D23*
X56398Y-40157D03*
X25591Y-40157D03*
X33858Y-12106D03*
X44980Y-20177D03*
G54D24*
X32677Y-32390D02*
X34220Y-33933D01*
X30177Y-38870D02*
X28240Y-36933D01*
X33465Y-38870D02*
X30177Y-38870D01*
X34220Y-33933D02*
X34358Y-33933D01*
X28496Y-15941D02*
X29496Y-15941D01*
X47953Y-11276D02*
X47287Y-11276D01*
X50983Y-11276D02*
X52557Y-12850D01*
X47953Y-11276D02*
X50983Y-11276D01*
X25496Y-15941D02*
X26496Y-15941D01*
X26496Y-15941D02*
X27496Y-15941D01*
X53000Y-12850D02*
X52557Y-12850D01*
X29496Y-15941D02*
X30496Y-15941D01*
X37057Y-37352D02*
X32777Y-37352D01*
X44925Y-13638D02*
X44311Y-13638D01*
X47287Y-11276D02*
X44925Y-13638D01*
X30496Y-15941D02*
X31496Y-15941D01*
X52831Y-33831D02*
X52831Y-34284D01*
X38097Y-36312D02*
X37476Y-36933D01*
X50803Y-36312D02*
X38097Y-36312D01*
X52831Y-34284D02*
X50803Y-36312D01*
X32777Y-37352D02*
X32358Y-36933D01*
X37476Y-36933D02*
X37057Y-37352D01*
X28740Y-43201D02*
X27165Y-43201D01*
X30240Y-33933D02*
X30240Y-34815D01*
X30240Y-34815D02*
X32358Y-36933D01*
X32496Y-15941D02*
X36126Y-15941D01*
X42935Y-12262D02*
X38762Y-12262D01*
X38762Y-13305D02*
X36126Y-15941D01*
X38762Y-12262D02*
X38762Y-13305D01*
X31496Y-15941D02*
X32496Y-15941D01*
X44311Y-13638D02*
X42935Y-12262D01*
X38762Y-12262D02*
X37500Y-11000D01*
X36126Y-15941D02*
X37508Y-17323D01*
X33000Y-22556D02*
X38867Y-16689D01*
X49981Y-12261D02*
X51181Y-13461D01*
X28500Y-29000D02*
X33000Y-24500D01*
X33000Y-24500D02*
X33000Y-22556D01*
X40500Y-14786D02*
X44541Y-14786D01*
X40256Y-14542D02*
X40500Y-14786D01*
X38889Y-14542D02*
X40256Y-14542D01*
X38867Y-14564D02*
X38889Y-14542D01*
X38867Y-16689D02*
X38867Y-14564D01*
X44541Y-14786D02*
X45689Y-13638D01*
X45689Y-13638D02*
X47066Y-12261D01*
X47066Y-12261D02*
X49981Y-12261D01*
X31783Y-31390D02*
X29240Y-33933D01*
X32677Y-30711D02*
X33944Y-29444D01*
X33944Y-29444D02*
X33500Y-29000D01*
X32677Y-31390D02*
X31783Y-31390D01*
X36956Y-28832D02*
X36956Y-29422D01*
X44154Y-30087D02*
X40848Y-30087D01*
X40848Y-30087D02*
X39944Y-29183D01*
X39944Y-28570D02*
X39922Y-28548D01*
X39944Y-29183D02*
X39944Y-28570D01*
X36934Y-29444D02*
X33944Y-29444D01*
X36956Y-29422D02*
X36934Y-29444D01*
X46350Y-32283D02*
X44154Y-30087D01*
X37240Y-28548D02*
X36956Y-28832D01*
X39922Y-28548D02*
X37240Y-28548D01*
X32677Y-31390D02*
X32677Y-30711D01*
X36933Y-32390D02*
X38476Y-33933D01*
X35827Y-32390D02*
X36933Y-32390D01*
X35135Y-28365D02*
X34500Y-29000D01*
X40956Y-28570D02*
X40751Y-28365D01*
X40956Y-29195D02*
X40956Y-28570D01*
X41433Y-29672D02*
X40956Y-29195D01*
X44739Y-29672D02*
X41433Y-29672D01*
X47350Y-32283D02*
X44739Y-29672D01*
X40751Y-28365D02*
X35135Y-28365D01*
X45067Y-29000D02*
X48350Y-32283D01*
X51509Y-41642D02*
X52723Y-42856D01*
X50673Y-41246D02*
X50673Y-41642D01*
X51091Y-41642D02*
X51509Y-41642D01*
X25591Y-43201D02*
X26194Y-42598D01*
X50651Y-41224D02*
X50673Y-41246D01*
X48270Y-42598D02*
X49644Y-41224D01*
X53043Y-43299D02*
X53043Y-42856D01*
X51091Y-41642D02*
X50673Y-41642D01*
X52723Y-42856D02*
X53043Y-42856D01*
X49644Y-41224D02*
X50651Y-41224D01*
X43500Y-29000D02*
X45067Y-29000D01*
X26194Y-42598D02*
X48270Y-42598D01*
X28740Y-34778D02*
X32377Y-38415D01*
X28740Y-32613D02*
X28740Y-34778D01*
X27000Y-30873D02*
X28740Y-32613D01*
X27000Y-25500D02*
X27000Y-30873D01*
X45888Y-38415D02*
X48024Y-40551D01*
X32377Y-38415D02*
X45888Y-38415D01*
X27996Y-15059D02*
X27996Y-19504D01*
X29248Y-13807D02*
X27996Y-15059D01*
X29248Y-11591D02*
X29248Y-13807D01*
X31496Y-09343D02*
X29248Y-11591D01*
X24500Y-23000D02*
X27000Y-25500D01*
X27996Y-19504D02*
X24500Y-23000D01*
X38176Y-43998D02*
X32701Y-43998D01*
X38469Y-44291D02*
X38176Y-43998D01*
X31571Y-45004D02*
X32024Y-45004D01*
X32024Y-44675D02*
X32024Y-45004D01*
X32701Y-43998D02*
X32024Y-44675D01*
X45508Y-35008D02*
X39500Y-29000D01*
X46531Y-35008D02*
X45508Y-35008D01*
X47350Y-35827D02*
X46531Y-35008D01*
X44327Y-35827D02*
X45350Y-35827D01*
X37500Y-29000D02*
X44327Y-35827D01*
X41352Y-16000D02*
X42047Y-16000D01*
X35000Y-22352D02*
X41352Y-16000D01*
X35000Y-23500D02*
X35000Y-22352D01*
X29500Y-29000D02*
X35000Y-23500D01*
X56160Y-30378D02*
X55831Y-30378D01*
X56433Y-30105D02*
X56160Y-30378D01*
X56433Y-16933D02*
X56433Y-30105D01*
X54000Y-14500D02*
X56433Y-16933D01*
X55831Y-30831D02*
X55831Y-30378D01*
X55831Y-27831D02*
X55831Y-27378D01*
X37314Y-22186D02*
X36500Y-23000D01*
X47096Y-22186D02*
X37314Y-22186D01*
X50195Y-25285D02*
X47096Y-22186D01*
X53285Y-25285D02*
X50195Y-25285D01*
X55378Y-27378D02*
X53285Y-25285D01*
X55831Y-27378D02*
X55378Y-27378D01*
X46079Y-24803D02*
X46063Y-24787D01*
X48122Y-24803D02*
X46079Y-24803D01*
X46850Y-34327D02*
X48350Y-35827D01*
X46850Y-32044D02*
X46850Y-34327D01*
X44688Y-29882D02*
X46850Y-32044D01*
X41382Y-29882D02*
X44688Y-29882D01*
X40500Y-29000D02*
X41382Y-29882D01*
X44721Y-35221D02*
X38500Y-29000D01*
X45744Y-35221D02*
X44721Y-35221D01*
X46350Y-35827D02*
X45744Y-35221D01*
X49331Y-31831D02*
X40500Y-23000D01*
X52238Y-31831D02*
X49331Y-31831D01*
X52831Y-31831D02*
X52238Y-31831D01*
X45246Y-25746D02*
X42500Y-23000D01*
X45877Y-25746D02*
X45246Y-25746D01*
X47962Y-27831D02*
X45877Y-25746D01*
X52831Y-27831D02*
X47962Y-27831D01*
X46331Y-25831D02*
X52831Y-25831D01*
X43500Y-23000D02*
X46331Y-25831D01*
X52831Y-24831D02*
X52831Y-24378D01*
X36497Y-22003D02*
X35500Y-23000D01*
X50456Y-22003D02*
X36497Y-22003D01*
X52831Y-24378D02*
X50456Y-22003D01*
X39469Y-44291D02*
X39025Y-44735D01*
X39025Y-44735D02*
X35632Y-44735D01*
X35632Y-44735D02*
X35119Y-44222D01*
X35119Y-44222D02*
X33571Y-44222D01*
X33024Y-44769D02*
X33024Y-45004D01*
X33571Y-44222D02*
X33024Y-44769D01*
X32571Y-45004D02*
X33024Y-45004D01*
X39840Y-44920D02*
X40026Y-44734D01*
X40469Y-44291D02*
X40026Y-44291D01*
X35450Y-44920D02*
X39840Y-44920D01*
X34935Y-44405D02*
X35450Y-44920D01*
X34170Y-44405D02*
X34935Y-44405D01*
X34024Y-44551D02*
X34170Y-44405D01*
X34024Y-45004D02*
X34024Y-44551D01*
X33571Y-45004D02*
X34024Y-45004D01*
X40026Y-44734D02*
X40026Y-44291D01*
X48331Y-29831D02*
X52831Y-29831D01*
X41500Y-23000D02*
X48331Y-29831D01*
X34118Y-41551D02*
X34118Y-42004D01*
X32437Y-39870D02*
X34118Y-41551D01*
X29134Y-39870D02*
X32437Y-39870D01*
X34571Y-42004D02*
X34118Y-42004D01*
X51000Y-40551D02*
X51091Y-40642D01*
X49024Y-40551D02*
X51000Y-40551D01*
X53035Y-44291D02*
X53043Y-44299D01*
X51189Y-44291D02*
X53035Y-44291D01*
X55831Y-29831D02*
X55831Y-29378D01*
X38131Y-22369D02*
X37500Y-23000D01*
X41752Y-22369D02*
X38131Y-22369D01*
X41957Y-22574D02*
X41752Y-22369D01*
X41957Y-23196D02*
X41957Y-22574D01*
X44756Y-25995D02*
X41957Y-23196D01*
X45866Y-25995D02*
X44756Y-25995D01*
X49249Y-29378D02*
X45866Y-25995D01*
X55831Y-29378D02*
X49249Y-29378D01*
X50157Y-33378D02*
X55831Y-33378D01*
X39779Y-23000D02*
X50157Y-33378D01*
X39500Y-23000D02*
X39779Y-23000D01*
X55831Y-33831D02*
X55831Y-33378D01*
X32571Y-42004D02*
X33571Y-42004D01*
X55906Y-44299D02*
X54043Y-44299D01*
X49139Y-31378D02*
X55831Y-31378D01*
X40944Y-23183D02*
X49139Y-31378D01*
X40944Y-22575D02*
X40944Y-23183D01*
X40922Y-22553D02*
X40944Y-22575D01*
X38947Y-22553D02*
X40922Y-22553D01*
X38500Y-23000D02*
X38947Y-22553D01*
X55831Y-31831D02*
X55831Y-31378D01*
X55906Y-43299D02*
X54043Y-43299D01*
X51181Y-19728D02*
X51181Y-16461D01*
X55831Y-24378D02*
X51181Y-19728D01*
X55831Y-24831D02*
X55831Y-24378D01*
X46946Y-14993D02*
X47953Y-16000D01*
X39327Y-14993D02*
X46946Y-14993D01*
X39295Y-14961D02*
X39327Y-14993D01*
G54D10*
G36*
X30930Y-09499D02*
X29043Y-11386D01*
X28980Y-11480D01*
X28958Y-11591D01*
X28958Y-13687D01*
X28871Y-13774D01*
X28871Y-12597D01*
X28871Y-12388D01*
X28791Y-12195D01*
X28644Y-12047D01*
X28451Y-11967D01*
X28242Y-11967D01*
X28049Y-12047D01*
X27901Y-12194D01*
X27821Y-12387D01*
X27821Y-12596D01*
X27901Y-12789D01*
X28048Y-12937D01*
X28188Y-12995D01*
X28079Y-13040D01*
X28056Y-13131D01*
X28346Y-13421D01*
X28636Y-13131D01*
X28613Y-13040D01*
X28494Y-12998D01*
X28643Y-12937D01*
X28791Y-12790D01*
X28871Y-12597D01*
X28871Y-13774D01*
X28865Y-13780D01*
X28865Y-13566D01*
X28854Y-13362D01*
X28798Y-13225D01*
X28707Y-13202D01*
X28417Y-13492D01*
X28707Y-13782D01*
X28798Y-13759D01*
X28865Y-13566D01*
X28865Y-13780D01*
X28636Y-14009D01*
X28636Y-13853D01*
X28346Y-13563D01*
X28275Y-13634D01*
X28275Y-13492D01*
X27985Y-13202D01*
X27894Y-13225D01*
X27827Y-13418D01*
X27838Y-13622D01*
X27894Y-13759D01*
X27985Y-13782D01*
X28275Y-13492D01*
X28275Y-13634D01*
X28056Y-13853D01*
X28079Y-13944D01*
X28272Y-14011D01*
X28476Y-14000D01*
X28613Y-13944D01*
X28636Y-13853D01*
X28636Y-14009D01*
X27791Y-14854D01*
X27728Y-14948D01*
X27706Y-15059D01*
X27706Y-15391D01*
X27587Y-15348D01*
X27352Y-15359D01*
X27186Y-15428D01*
X27153Y-15527D01*
X27461Y-15835D01*
X27496Y-15870D01*
X27567Y-15941D01*
X27496Y-16012D01*
X27461Y-16047D01*
X27425Y-16083D01*
X27425Y-15941D01*
X27082Y-15598D01*
X26996Y-15626D01*
X26910Y-15598D01*
X26839Y-15669D01*
X26839Y-15527D01*
X26806Y-15428D01*
X26587Y-15348D01*
X26352Y-15359D01*
X26186Y-15428D01*
X26153Y-15527D01*
X26496Y-15870D01*
X26839Y-15527D01*
X26839Y-15669D01*
X26567Y-15941D01*
X26910Y-16284D01*
X26996Y-16255D01*
X27082Y-16284D01*
X27425Y-15941D01*
X27425Y-16083D01*
X27153Y-16355D01*
X27186Y-16454D01*
X27405Y-16534D01*
X27640Y-16523D01*
X27706Y-16495D01*
X27706Y-18379D01*
X27615Y-18342D01*
X27377Y-18342D01*
X27157Y-18433D01*
X26996Y-18594D01*
X26839Y-18437D01*
X26839Y-16355D01*
X26496Y-16012D01*
X26425Y-16083D01*
X26425Y-15941D01*
X26082Y-15598D01*
X25996Y-15626D01*
X25910Y-15598D01*
X25839Y-15669D01*
X25839Y-15527D01*
X25806Y-15428D01*
X25722Y-15397D01*
X25722Y-12597D01*
X25722Y-12388D01*
X25642Y-12195D01*
X25495Y-12047D01*
X25302Y-11967D01*
X25093Y-11967D01*
X24900Y-12047D01*
X24752Y-12194D01*
X24672Y-12387D01*
X24672Y-12596D01*
X24752Y-12789D01*
X24899Y-12937D01*
X25039Y-12995D01*
X24930Y-13040D01*
X24907Y-13131D01*
X25197Y-13421D01*
X25487Y-13131D01*
X25464Y-13040D01*
X25345Y-12998D01*
X25494Y-12937D01*
X25642Y-12790D01*
X25722Y-12597D01*
X25722Y-15397D01*
X25716Y-15395D01*
X25716Y-13566D01*
X25705Y-13362D01*
X25649Y-13225D01*
X25558Y-13202D01*
X25268Y-13492D01*
X25558Y-13782D01*
X25649Y-13759D01*
X25716Y-13566D01*
X25716Y-15395D01*
X25587Y-15348D01*
X25487Y-15352D01*
X25487Y-13853D01*
X25197Y-13563D01*
X25126Y-13634D01*
X25126Y-13492D01*
X24836Y-13202D01*
X24745Y-13225D01*
X24678Y-13418D01*
X24689Y-13622D01*
X24745Y-13759D01*
X24836Y-13782D01*
X25126Y-13492D01*
X25126Y-13634D01*
X24907Y-13853D01*
X24930Y-13944D01*
X25123Y-14011D01*
X25327Y-14000D01*
X25464Y-13944D01*
X25487Y-13853D01*
X25487Y-15352D01*
X25352Y-15359D01*
X25186Y-15428D01*
X25153Y-15527D01*
X25496Y-15870D01*
X25839Y-15527D01*
X25839Y-15669D01*
X25567Y-15941D01*
X25910Y-16284D01*
X25996Y-16255D01*
X26082Y-16284D01*
X26425Y-15941D01*
X26425Y-16083D01*
X26153Y-16355D01*
X26186Y-16454D01*
X26405Y-16534D01*
X26640Y-16523D01*
X26806Y-16454D01*
X26839Y-16355D01*
X26839Y-18437D01*
X26835Y-18433D01*
X26615Y-18342D01*
X26377Y-18342D01*
X26157Y-18433D01*
X25996Y-18594D01*
X25839Y-18437D01*
X25839Y-16355D01*
X25496Y-16012D01*
X25425Y-16083D01*
X25425Y-15941D01*
X25082Y-15598D01*
X24983Y-15631D01*
X24903Y-15850D01*
X24914Y-16085D01*
X24983Y-16251D01*
X25082Y-16284D01*
X25425Y-15941D01*
X25425Y-16083D01*
X25153Y-16355D01*
X25186Y-16454D01*
X25405Y-16534D01*
X25640Y-16523D01*
X25806Y-16454D01*
X25839Y-16355D01*
X25839Y-18437D01*
X25835Y-18433D01*
X25615Y-18342D01*
X25377Y-18342D01*
X25157Y-18433D01*
X24988Y-18602D01*
X24897Y-18822D01*
X24897Y-19060D01*
X24988Y-19280D01*
X25157Y-19449D01*
X25377Y-19540D01*
X25615Y-19540D01*
X25835Y-19449D01*
X25996Y-19288D01*
X26157Y-19449D01*
X26377Y-19540D01*
X26615Y-19540D01*
X26835Y-19449D01*
X26996Y-19288D01*
X27157Y-19449D01*
X27377Y-19540D01*
X27550Y-19540D01*
X24630Y-22459D01*
X24609Y-22451D01*
X24391Y-22451D01*
X24189Y-22535D01*
X24066Y-22658D01*
X24066Y-09499D01*
X24633Y-09499D01*
X24705Y-09671D01*
X24868Y-09834D01*
X24888Y-09842D01*
X24869Y-09851D01*
X24706Y-10014D01*
X24617Y-10227D01*
X24617Y-10458D01*
X24705Y-10671D01*
X24868Y-10834D01*
X25081Y-10923D01*
X25312Y-10923D01*
X25525Y-10835D01*
X25688Y-10672D01*
X25777Y-10459D01*
X25777Y-10228D01*
X25689Y-10015D01*
X25526Y-09852D01*
X25505Y-09843D01*
X25525Y-09835D01*
X25688Y-09672D01*
X25760Y-09499D01*
X27782Y-09499D01*
X27854Y-09671D01*
X28017Y-09834D01*
X28037Y-09842D01*
X28018Y-09851D01*
X27855Y-10014D01*
X27766Y-10227D01*
X27766Y-10458D01*
X27854Y-10671D01*
X28017Y-10834D01*
X28230Y-10923D01*
X28461Y-10923D01*
X28674Y-10835D01*
X28837Y-10672D01*
X28926Y-10459D01*
X28926Y-10228D01*
X28838Y-10015D01*
X28675Y-09852D01*
X28654Y-09843D01*
X28674Y-09835D01*
X28837Y-09672D01*
X28909Y-09499D01*
X30930Y-09499D01*
X30930Y-09499D01*
G37*
G54D25*
X30930Y-09499D02*
X29043Y-11386D01*
X28980Y-11480D01*
X28958Y-11591D01*
X28958Y-13687D01*
X28871Y-13774D01*
X28871Y-12597D01*
X28871Y-12388D01*
X28791Y-12195D01*
X28644Y-12047D01*
X28451Y-11967D01*
X28242Y-11967D01*
X28049Y-12047D01*
X27901Y-12194D01*
X27821Y-12387D01*
X27821Y-12596D01*
X27901Y-12789D01*
X28048Y-12937D01*
X28188Y-12995D01*
X28079Y-13040D01*
X28056Y-13131D01*
X28346Y-13421D01*
X28636Y-13131D01*
X28613Y-13040D01*
X28494Y-12998D01*
X28643Y-12937D01*
X28791Y-12790D01*
X28871Y-12597D01*
X28871Y-13774D01*
X28865Y-13780D01*
X28865Y-13566D01*
X28854Y-13362D01*
X28798Y-13225D01*
X28707Y-13202D01*
X28417Y-13492D01*
X28707Y-13782D01*
X28798Y-13759D01*
X28865Y-13566D01*
X28865Y-13780D01*
X28636Y-14009D01*
X28636Y-13853D01*
X28346Y-13563D01*
X28275Y-13634D01*
X28275Y-13492D01*
X27985Y-13202D01*
X27894Y-13225D01*
X27827Y-13418D01*
X27838Y-13622D01*
X27894Y-13759D01*
X27985Y-13782D01*
X28275Y-13492D01*
X28275Y-13634D01*
X28056Y-13853D01*
X28079Y-13944D01*
X28272Y-14011D01*
X28476Y-14000D01*
X28613Y-13944D01*
X28636Y-13853D01*
X28636Y-14009D01*
X27791Y-14854D01*
X27728Y-14948D01*
X27706Y-15059D01*
X27706Y-15391D01*
X27587Y-15348D01*
X27352Y-15359D01*
X27186Y-15428D01*
X27153Y-15527D01*
X27461Y-15835D01*
X27496Y-15870D01*
X27567Y-15941D01*
X27496Y-16012D01*
X27461Y-16047D01*
X27425Y-16083D01*
X27425Y-15941D01*
X27082Y-15598D01*
X26996Y-15626D01*
X26910Y-15598D01*
X26839Y-15669D01*
X26839Y-15527D01*
X26806Y-15428D01*
X26587Y-15348D01*
X26352Y-15359D01*
X26186Y-15428D01*
X26153Y-15527D01*
X26496Y-15870D01*
X26839Y-15527D01*
X26839Y-15669D01*
X26567Y-15941D01*
X26910Y-16284D01*
X26996Y-16255D01*
X27082Y-16284D01*
X27425Y-15941D01*
X27425Y-16083D01*
X27153Y-16355D01*
X27186Y-16454D01*
X27405Y-16534D01*
X27640Y-16523D01*
X27706Y-16495D01*
X27706Y-18379D01*
X27615Y-18342D01*
X27377Y-18342D01*
X27157Y-18433D01*
X26996Y-18594D01*
X26839Y-18437D01*
X26839Y-16355D01*
X26496Y-16012D01*
X26425Y-16083D01*
X26425Y-15941D01*
X26082Y-15598D01*
X25996Y-15626D01*
X25910Y-15598D01*
X25839Y-15669D01*
X25839Y-15527D01*
X25806Y-15428D01*
X25722Y-15397D01*
X25722Y-12597D01*
X25722Y-12388D01*
X25642Y-12195D01*
X25495Y-12047D01*
X25302Y-11967D01*
X25093Y-11967D01*
X24900Y-12047D01*
X24752Y-12194D01*
X24672Y-12387D01*
X24672Y-12596D01*
X24752Y-12789D01*
X24899Y-12937D01*
X25039Y-12995D01*
X24930Y-13040D01*
X24907Y-13131D01*
X25197Y-13421D01*
X25487Y-13131D01*
X25464Y-13040D01*
X25345Y-12998D01*
X25494Y-12937D01*
X25642Y-12790D01*
X25722Y-12597D01*
X25722Y-15397D01*
X25716Y-15395D01*
X25716Y-13566D01*
X25705Y-13362D01*
X25649Y-13225D01*
X25558Y-13202D01*
X25268Y-13492D01*
X25558Y-13782D01*
X25649Y-13759D01*
X25716Y-13566D01*
X25716Y-15395D01*
X25587Y-15348D01*
X25487Y-15352D01*
X25487Y-13853D01*
X25197Y-13563D01*
X25126Y-13634D01*
X25126Y-13492D01*
X24836Y-13202D01*
X24745Y-13225D01*
X24678Y-13418D01*
X24689Y-13622D01*
X24745Y-13759D01*
X24836Y-13782D01*
X25126Y-13492D01*
X25126Y-13634D01*
X24907Y-13853D01*
X24930Y-13944D01*
X25123Y-14011D01*
X25327Y-14000D01*
X25464Y-13944D01*
X25487Y-13853D01*
X25487Y-15352D01*
X25352Y-15359D01*
X25186Y-15428D01*
X25153Y-15527D01*
X25496Y-15870D01*
X25839Y-15527D01*
X25839Y-15669D01*
X25567Y-15941D01*
X25910Y-16284D01*
X25996Y-16255D01*
X26082Y-16284D01*
X26425Y-15941D01*
X26425Y-16083D01*
X26153Y-16355D01*
X26186Y-16454D01*
X26405Y-16534D01*
X26640Y-16523D01*
X26806Y-16454D01*
X26839Y-16355D01*
X26839Y-18437D01*
X26835Y-18433D01*
X26615Y-18342D01*
X26377Y-18342D01*
X26157Y-18433D01*
X25996Y-18594D01*
X25839Y-18437D01*
X25839Y-16355D01*
X25496Y-16012D01*
X25425Y-16083D01*
X25425Y-15941D01*
X25082Y-15598D01*
X24983Y-15631D01*
X24903Y-15850D01*
X24914Y-16085D01*
X24983Y-16251D01*
X25082Y-16284D01*
X25425Y-15941D01*
X25425Y-16083D01*
X25153Y-16355D01*
X25186Y-16454D01*
X25405Y-16534D01*
X25640Y-16523D01*
X25806Y-16454D01*
X25839Y-16355D01*
X25839Y-18437D01*
X25835Y-18433D01*
X25615Y-18342D01*
X25377Y-18342D01*
X25157Y-18433D01*
X24988Y-18602D01*
X24897Y-18822D01*
X24897Y-19060D01*
X24988Y-19280D01*
X25157Y-19449D01*
X25377Y-19540D01*
X25615Y-19540D01*
X25835Y-19449D01*
X25996Y-19288D01*
X26157Y-19449D01*
X26377Y-19540D01*
X26615Y-19540D01*
X26835Y-19449D01*
X26996Y-19288D01*
X27157Y-19449D01*
X27377Y-19540D01*
X27550Y-19540D01*
X24630Y-22459D01*
X24609Y-22451D01*
X24391Y-22451D01*
X24189Y-22535D01*
X24066Y-22658D01*
X24066Y-09499D01*
X24633Y-09499D01*
X24705Y-09671D01*
X24868Y-09834D01*
X24888Y-09842D01*
X24869Y-09851D01*
X24706Y-10014D01*
X24617Y-10227D01*
X24617Y-10458D01*
X24705Y-10671D01*
X24868Y-10834D01*
X25081Y-10923D01*
X25312Y-10923D01*
X25525Y-10835D01*
X25688Y-10672D01*
X25777Y-10459D01*
X25777Y-10228D01*
X25689Y-10015D01*
X25526Y-09852D01*
X25505Y-09843D01*
X25525Y-09835D01*
X25688Y-09672D01*
X25760Y-09499D01*
X27782Y-09499D01*
X27854Y-09671D01*
X28017Y-09834D01*
X28037Y-09842D01*
X28018Y-09851D01*
X27855Y-10014D01*
X27766Y-10227D01*
X27766Y-10458D01*
X27854Y-10671D01*
X28017Y-10834D01*
X28230Y-10923D01*
X28461Y-10923D01*
X28674Y-10835D01*
X28837Y-10672D01*
X28926Y-10459D01*
X28926Y-10228D01*
X28838Y-10015D01*
X28675Y-09852D01*
X28654Y-09843D01*
X28674Y-09835D01*
X28837Y-09672D01*
X28909Y-09499D01*
X30930Y-09499D01*
G54D10*
G36*
X59005Y-45226D02*
X57448Y-45226D01*
X57448Y-40367D01*
X57448Y-39949D01*
X57288Y-39563D01*
X56993Y-39267D01*
X56608Y-39107D01*
X56190Y-39107D01*
X55804Y-39267D01*
X55508Y-39562D01*
X55348Y-39947D01*
X55348Y-40365D01*
X55508Y-40751D01*
X55803Y-41047D01*
X56188Y-41207D01*
X56606Y-41207D01*
X56992Y-41047D01*
X57288Y-40752D01*
X57448Y-40367D01*
X57448Y-45226D01*
X35120Y-45226D01*
X35120Y-45048D01*
X35120Y-45000D01*
X35245Y-45125D01*
X35339Y-45188D01*
X35450Y-45210D01*
X39840Y-45210D01*
X39951Y-45188D01*
X40045Y-45125D01*
X40231Y-44939D01*
X40294Y-44845D01*
X40294Y-44840D01*
X40818Y-44840D01*
X40910Y-44802D01*
X40980Y-44732D01*
X41018Y-44641D01*
X41018Y-44542D01*
X41018Y-43942D01*
X40980Y-43850D01*
X40910Y-43780D01*
X40819Y-43742D01*
X40720Y-43742D01*
X40120Y-43742D01*
X40028Y-43780D01*
X39958Y-43850D01*
X39920Y-43941D01*
X39920Y-43966D01*
X39780Y-43826D01*
X39578Y-43742D01*
X39360Y-43742D01*
X39158Y-43826D01*
X39004Y-43980D01*
X38969Y-44064D01*
X38934Y-43980D01*
X38780Y-43826D01*
X38578Y-43742D01*
X38360Y-43742D01*
X38326Y-43756D01*
X38287Y-43730D01*
X38176Y-43708D01*
X32701Y-43708D01*
X32590Y-43730D01*
X32496Y-43793D01*
X31892Y-44396D01*
X31882Y-44386D01*
X31680Y-44302D01*
X31462Y-44302D01*
X31260Y-44386D01*
X31106Y-44540D01*
X31022Y-44742D01*
X31022Y-44960D01*
X31022Y-45226D01*
X29289Y-45226D01*
X29289Y-44551D01*
X29289Y-44452D01*
X29289Y-43852D01*
X29283Y-43837D01*
X29251Y-43760D01*
X29181Y-43690D01*
X29090Y-43652D01*
X29027Y-43652D01*
X29048Y-43579D01*
X28740Y-43272D01*
X28669Y-43342D01*
X28432Y-43579D01*
X28452Y-43652D01*
X28391Y-43652D01*
X28299Y-43690D01*
X28229Y-43760D01*
X28191Y-43851D01*
X28191Y-43950D01*
X28191Y-44550D01*
X28229Y-44642D01*
X28299Y-44712D01*
X28390Y-44750D01*
X28489Y-44750D01*
X29089Y-44750D01*
X29181Y-44712D01*
X29251Y-44642D01*
X29289Y-44551D01*
X29289Y-45226D01*
X27714Y-45226D01*
X27714Y-44551D01*
X27714Y-44452D01*
X27714Y-43852D01*
X27708Y-43837D01*
X27676Y-43760D01*
X27606Y-43690D01*
X27515Y-43652D01*
X27452Y-43652D01*
X27473Y-43579D01*
X27165Y-43272D01*
X27094Y-43342D01*
X26857Y-43579D01*
X26877Y-43652D01*
X26816Y-43652D01*
X26724Y-43690D01*
X26654Y-43760D01*
X26616Y-43851D01*
X26616Y-43950D01*
X26616Y-44550D01*
X26654Y-44642D01*
X26724Y-44712D01*
X26815Y-44750D01*
X26914Y-44750D01*
X27514Y-44750D01*
X27606Y-44712D01*
X27676Y-44642D01*
X27714Y-44551D01*
X27714Y-45226D01*
X24066Y-45226D01*
X24066Y-29342D01*
X24189Y-29465D01*
X24391Y-29549D01*
X24609Y-29549D01*
X24811Y-29465D01*
X24965Y-29311D01*
X25000Y-29226D01*
X25035Y-29311D01*
X25189Y-29465D01*
X25391Y-29549D01*
X25609Y-29549D01*
X25811Y-29465D01*
X25965Y-29311D01*
X26000Y-29226D01*
X26035Y-29311D01*
X26189Y-29465D01*
X26391Y-29549D01*
X26609Y-29549D01*
X26710Y-29507D01*
X26710Y-30873D01*
X26732Y-30984D01*
X26795Y-31078D01*
X28450Y-32733D01*
X28450Y-33451D01*
X28345Y-33408D01*
X28136Y-33408D01*
X27943Y-33488D01*
X27795Y-33635D01*
X27739Y-33768D01*
X27685Y-33636D01*
X27538Y-33488D01*
X27345Y-33408D01*
X27136Y-33408D01*
X26943Y-33488D01*
X26795Y-33635D01*
X26715Y-33828D01*
X26715Y-34037D01*
X26795Y-34230D01*
X26942Y-34378D01*
X27135Y-34458D01*
X27344Y-34458D01*
X27537Y-34378D01*
X27685Y-34231D01*
X27740Y-34097D01*
X27795Y-34230D01*
X27942Y-34378D01*
X28135Y-34458D01*
X28344Y-34458D01*
X28450Y-34414D01*
X28450Y-34778D01*
X28472Y-34889D01*
X28535Y-34983D01*
X30011Y-36459D01*
X29943Y-36488D01*
X29795Y-36635D01*
X29739Y-36768D01*
X29685Y-36636D01*
X29538Y-36488D01*
X29345Y-36408D01*
X29136Y-36408D01*
X28943Y-36488D01*
X28795Y-36635D01*
X28739Y-36768D01*
X28685Y-36636D01*
X28538Y-36488D01*
X28345Y-36408D01*
X28136Y-36408D01*
X27943Y-36488D01*
X27795Y-36635D01*
X27764Y-36709D01*
X27764Y-36609D01*
X27726Y-36517D01*
X27656Y-36447D01*
X27565Y-36409D01*
X27466Y-36409D01*
X26916Y-36409D01*
X26824Y-36447D01*
X26754Y-36517D01*
X26716Y-36608D01*
X26716Y-36707D01*
X26716Y-37257D01*
X26754Y-37349D01*
X26824Y-37419D01*
X26915Y-37457D01*
X27014Y-37457D01*
X27564Y-37457D01*
X27656Y-37419D01*
X27726Y-37349D01*
X27764Y-37258D01*
X27764Y-37159D01*
X27764Y-37155D01*
X27795Y-37230D01*
X27942Y-37378D01*
X28135Y-37458D01*
X28344Y-37458D01*
X28351Y-37454D01*
X29244Y-38347D01*
X29239Y-38345D01*
X29030Y-38345D01*
X28837Y-38425D01*
X28689Y-38572D01*
X28609Y-38765D01*
X28609Y-38974D01*
X28689Y-39167D01*
X28836Y-39315D01*
X28969Y-39370D01*
X28837Y-39425D01*
X28689Y-39572D01*
X28609Y-39765D01*
X28609Y-39974D01*
X28689Y-40167D01*
X28836Y-40315D01*
X29029Y-40395D01*
X29238Y-40395D01*
X29431Y-40315D01*
X29579Y-40168D01*
X29582Y-40160D01*
X32317Y-40160D01*
X33459Y-41302D01*
X33260Y-41386D01*
X33106Y-41540D01*
X33071Y-41624D01*
X33036Y-41540D01*
X32882Y-41386D01*
X32680Y-41302D01*
X32462Y-41302D01*
X32260Y-41386D01*
X32106Y-41540D01*
X32071Y-41624D01*
X32036Y-41540D01*
X31882Y-41386D01*
X31680Y-41302D01*
X31462Y-41302D01*
X31260Y-41386D01*
X31106Y-41540D01*
X31022Y-41742D01*
X31022Y-41960D01*
X31022Y-42266D01*
X31039Y-42308D01*
X26641Y-42308D01*
X26641Y-40367D01*
X26641Y-39949D01*
X26481Y-39563D01*
X26186Y-39267D01*
X25801Y-39107D01*
X25383Y-39107D01*
X24997Y-39267D01*
X24701Y-39562D01*
X24541Y-39947D01*
X24541Y-40365D01*
X24701Y-40751D01*
X24996Y-41047D01*
X25381Y-41207D01*
X25799Y-41207D01*
X26185Y-41047D01*
X26481Y-40752D01*
X26641Y-40367D01*
X26641Y-42308D01*
X26194Y-42308D01*
X26083Y-42330D01*
X26051Y-42351D01*
X25988Y-42393D01*
X25720Y-42660D01*
X25700Y-42652D01*
X25482Y-42652D01*
X25280Y-42736D01*
X25126Y-42890D01*
X25042Y-43092D01*
X25042Y-43310D01*
X25126Y-43512D01*
X25266Y-43652D01*
X25242Y-43652D01*
X25150Y-43690D01*
X25080Y-43760D01*
X25042Y-43851D01*
X25042Y-43950D01*
X25042Y-44550D01*
X25080Y-44642D01*
X25150Y-44712D01*
X25241Y-44750D01*
X25340Y-44750D01*
X25940Y-44750D01*
X26032Y-44712D01*
X26102Y-44642D01*
X26140Y-44551D01*
X26140Y-44452D01*
X26140Y-43852D01*
X26102Y-43760D01*
X26032Y-43690D01*
X25941Y-43652D01*
X25916Y-43652D01*
X26056Y-43512D01*
X26140Y-43310D01*
X26140Y-43092D01*
X26131Y-43071D01*
X26314Y-42888D01*
X26711Y-42888D01*
X26731Y-42908D01*
X26693Y-42920D01*
X26622Y-43122D01*
X26633Y-43335D01*
X26693Y-43482D01*
X26787Y-43509D01*
X27059Y-43236D01*
X27094Y-43201D01*
X27165Y-43130D01*
X27236Y-43201D01*
X27271Y-43236D01*
X27543Y-43509D01*
X27637Y-43482D01*
X27708Y-43280D01*
X27697Y-43067D01*
X27637Y-42920D01*
X27598Y-42908D01*
X27619Y-42888D01*
X28286Y-42888D01*
X28306Y-42908D01*
X28268Y-42920D01*
X28197Y-43122D01*
X28208Y-43335D01*
X28268Y-43482D01*
X28362Y-43509D01*
X28634Y-43236D01*
X28669Y-43201D01*
X28740Y-43130D01*
X28811Y-43201D01*
X28846Y-43236D01*
X29118Y-43509D01*
X29212Y-43482D01*
X29283Y-43280D01*
X29272Y-43067D01*
X29212Y-42920D01*
X29173Y-42908D01*
X29194Y-42888D01*
X48270Y-42888D01*
X48381Y-42866D01*
X48475Y-42803D01*
X49566Y-41712D01*
X49566Y-41746D01*
X49646Y-41939D01*
X49793Y-42087D01*
X49986Y-42167D01*
X50195Y-42167D01*
X50388Y-42087D01*
X50536Y-41940D01*
X50551Y-41902D01*
X50562Y-41910D01*
X50567Y-41910D01*
X50567Y-41966D01*
X50605Y-42058D01*
X50675Y-42128D01*
X50766Y-42166D01*
X50865Y-42166D01*
X51415Y-42166D01*
X51507Y-42128D01*
X51546Y-42089D01*
X52494Y-43037D01*
X52494Y-43048D01*
X52494Y-43648D01*
X52532Y-43740D01*
X52602Y-43810D01*
X52693Y-43848D01*
X52718Y-43848D01*
X52578Y-43988D01*
X52572Y-44001D01*
X51636Y-44001D01*
X51634Y-43994D01*
X51487Y-43846D01*
X51294Y-43766D01*
X51085Y-43766D01*
X50892Y-43846D01*
X50744Y-43993D01*
X50688Y-44126D01*
X50634Y-43994D01*
X50487Y-43846D01*
X50294Y-43766D01*
X50085Y-43766D01*
X49892Y-43846D01*
X49744Y-43993D01*
X49664Y-44186D01*
X49664Y-44395D01*
X49744Y-44588D01*
X49891Y-44736D01*
X50084Y-44816D01*
X50293Y-44816D01*
X50486Y-44736D01*
X50634Y-44589D01*
X50689Y-44455D01*
X50744Y-44588D01*
X50891Y-44736D01*
X51084Y-44816D01*
X51293Y-44816D01*
X51486Y-44736D01*
X51634Y-44589D01*
X51637Y-44581D01*
X52565Y-44581D01*
X52578Y-44610D01*
X52732Y-44764D01*
X52934Y-44848D01*
X53152Y-44848D01*
X53354Y-44764D01*
X53508Y-44610D01*
X53543Y-44525D01*
X53578Y-44610D01*
X53732Y-44764D01*
X53934Y-44848D01*
X54152Y-44848D01*
X54354Y-44764D01*
X54508Y-44610D01*
X54516Y-44589D01*
X55432Y-44589D01*
X55441Y-44610D01*
X55595Y-44764D01*
X55797Y-44848D01*
X56015Y-44848D01*
X56217Y-44764D01*
X56371Y-44610D01*
X56455Y-44408D01*
X56455Y-44190D01*
X56371Y-43988D01*
X56231Y-43848D01*
X56255Y-43848D01*
X56347Y-43810D01*
X56417Y-43740D01*
X56455Y-43649D01*
X56455Y-43550D01*
X56455Y-42950D01*
X56417Y-42858D01*
X56347Y-42788D01*
X56256Y-42750D01*
X56157Y-42750D01*
X55557Y-42750D01*
X55465Y-42788D01*
X55395Y-42858D01*
X55357Y-42949D01*
X55357Y-43009D01*
X54516Y-43009D01*
X54508Y-42988D01*
X54354Y-42834D01*
X54152Y-42750D01*
X53934Y-42750D01*
X53732Y-42834D01*
X53592Y-42974D01*
X53592Y-42950D01*
X53554Y-42858D01*
X53513Y-42817D01*
X53513Y-33968D01*
X53466Y-33881D01*
X52881Y-33881D01*
X52881Y-34391D01*
X52991Y-34391D01*
X53204Y-34341D01*
X53381Y-34213D01*
X53496Y-34027D01*
X53513Y-33968D01*
X53513Y-42817D01*
X53484Y-42788D01*
X53393Y-42750D01*
X53311Y-42750D01*
X53311Y-42745D01*
X53248Y-42651D01*
X53154Y-42588D01*
X53043Y-42566D01*
X52843Y-42566D01*
X52781Y-42504D01*
X52781Y-34391D01*
X52781Y-33881D01*
X52196Y-33881D01*
X52149Y-33968D01*
X52166Y-34027D01*
X52281Y-34213D01*
X52458Y-34341D01*
X52671Y-34391D01*
X52781Y-34391D01*
X52781Y-42504D01*
X51714Y-41437D01*
X51620Y-41374D01*
X51615Y-41373D01*
X51615Y-41318D01*
X51577Y-41226D01*
X51507Y-41156D01*
X51416Y-41118D01*
X51317Y-41118D01*
X51313Y-41118D01*
X51388Y-41087D01*
X51536Y-40940D01*
X51616Y-40747D01*
X51616Y-40538D01*
X51536Y-40345D01*
X51389Y-40197D01*
X51196Y-40117D01*
X50987Y-40117D01*
X50794Y-40197D01*
X50729Y-40261D01*
X49471Y-40261D01*
X49469Y-40254D01*
X49322Y-40106D01*
X49129Y-40026D01*
X48920Y-40026D01*
X48727Y-40106D01*
X48579Y-40253D01*
X48523Y-40386D01*
X48469Y-40254D01*
X48322Y-40106D01*
X48129Y-40026D01*
X47920Y-40026D01*
X47912Y-40028D01*
X46093Y-38210D01*
X45999Y-38147D01*
X45888Y-38125D01*
X41001Y-38125D01*
X41001Y-37038D01*
X41001Y-36829D01*
X41000Y-36826D01*
X41000Y-34258D01*
X41000Y-34159D01*
X41000Y-33609D01*
X40962Y-33517D01*
X40892Y-33447D01*
X40801Y-33409D01*
X40702Y-33409D01*
X40152Y-33409D01*
X40060Y-33447D01*
X39990Y-33517D01*
X39952Y-33608D01*
X39952Y-33707D01*
X39952Y-33710D01*
X39921Y-33636D01*
X39774Y-33488D01*
X39581Y-33408D01*
X39372Y-33408D01*
X39179Y-33488D01*
X39031Y-33635D01*
X38975Y-33768D01*
X38921Y-33636D01*
X38774Y-33488D01*
X38581Y-33408D01*
X38372Y-33408D01*
X38364Y-33411D01*
X37138Y-32185D01*
X37044Y-32122D01*
X36933Y-32100D01*
X36274Y-32100D01*
X36272Y-32093D01*
X36125Y-31945D01*
X35991Y-31889D01*
X36124Y-31835D01*
X36272Y-31688D01*
X36352Y-31495D01*
X36352Y-31286D01*
X36272Y-31093D01*
X36125Y-30945D01*
X35932Y-30865D01*
X35723Y-30865D01*
X35530Y-30945D01*
X35382Y-31092D01*
X35302Y-31285D01*
X35302Y-31494D01*
X35382Y-31687D01*
X35529Y-31835D01*
X35662Y-31890D01*
X35530Y-31945D01*
X35382Y-32092D01*
X35302Y-32285D01*
X35302Y-32494D01*
X35382Y-32687D01*
X35529Y-32835D01*
X35722Y-32915D01*
X35931Y-32915D01*
X36124Y-32835D01*
X36272Y-32688D01*
X36275Y-32680D01*
X36813Y-32680D01*
X37541Y-33408D01*
X37372Y-33408D01*
X37179Y-33488D01*
X37031Y-33635D01*
X36951Y-33828D01*
X36951Y-34037D01*
X37031Y-34230D01*
X37178Y-34378D01*
X37371Y-34458D01*
X37580Y-34458D01*
X37773Y-34378D01*
X37921Y-34231D01*
X37976Y-34097D01*
X38031Y-34230D01*
X38178Y-34378D01*
X38371Y-34458D01*
X38580Y-34458D01*
X38773Y-34378D01*
X38921Y-34231D01*
X38976Y-34097D01*
X39031Y-34230D01*
X39178Y-34378D01*
X39371Y-34458D01*
X39580Y-34458D01*
X39773Y-34378D01*
X39921Y-34231D01*
X39952Y-34156D01*
X39952Y-34257D01*
X39990Y-34349D01*
X40060Y-34419D01*
X40151Y-34457D01*
X40250Y-34457D01*
X40800Y-34457D01*
X40892Y-34419D01*
X40962Y-34349D01*
X41000Y-34258D01*
X41000Y-36826D01*
X40921Y-36636D01*
X40774Y-36488D01*
X40581Y-36408D01*
X40372Y-36408D01*
X40179Y-36488D01*
X40031Y-36635D01*
X39975Y-36768D01*
X39921Y-36636D01*
X39774Y-36488D01*
X39581Y-36408D01*
X39372Y-36408D01*
X39179Y-36488D01*
X39031Y-36635D01*
X38975Y-36768D01*
X38921Y-36636D01*
X38774Y-36488D01*
X38581Y-36408D01*
X38372Y-36408D01*
X38179Y-36488D01*
X38031Y-36635D01*
X37972Y-36775D01*
X37928Y-36666D01*
X37837Y-36643D01*
X37766Y-36714D01*
X37766Y-36572D01*
X37743Y-36481D01*
X37550Y-36414D01*
X37346Y-36425D01*
X37209Y-36481D01*
X37186Y-36572D01*
X37476Y-36862D01*
X37766Y-36572D01*
X37766Y-36714D01*
X37547Y-36933D01*
X37837Y-37223D01*
X37928Y-37200D01*
X37969Y-37081D01*
X38031Y-37230D01*
X38178Y-37378D01*
X38371Y-37458D01*
X38580Y-37458D01*
X38773Y-37378D01*
X38921Y-37231D01*
X38976Y-37097D01*
X39031Y-37230D01*
X39178Y-37378D01*
X39371Y-37458D01*
X39580Y-37458D01*
X39773Y-37378D01*
X39921Y-37231D01*
X39976Y-37097D01*
X40031Y-37230D01*
X40178Y-37378D01*
X40371Y-37458D01*
X40580Y-37458D01*
X40773Y-37378D01*
X40921Y-37231D01*
X41001Y-37038D01*
X41001Y-38125D01*
X37766Y-38125D01*
X37766Y-37294D01*
X37476Y-37004D01*
X37405Y-37075D01*
X37405Y-36933D01*
X37115Y-36643D01*
X37024Y-36666D01*
X36957Y-36859D01*
X36968Y-37063D01*
X37024Y-37200D01*
X37115Y-37223D01*
X37405Y-36933D01*
X37405Y-37075D01*
X37186Y-37294D01*
X37209Y-37385D01*
X37402Y-37452D01*
X37606Y-37441D01*
X37743Y-37385D01*
X37766Y-37294D01*
X37766Y-38125D01*
X35883Y-38125D01*
X35883Y-37038D01*
X35883Y-36829D01*
X35803Y-36636D01*
X35656Y-36488D01*
X35463Y-36408D01*
X35254Y-36408D01*
X35061Y-36488D01*
X34913Y-36635D01*
X34857Y-36768D01*
X34803Y-36636D01*
X34656Y-36488D01*
X34463Y-36408D01*
X34254Y-36408D01*
X34061Y-36488D01*
X33913Y-36635D01*
X33857Y-36768D01*
X33803Y-36636D01*
X33656Y-36488D01*
X33463Y-36408D01*
X33254Y-36408D01*
X33061Y-36488D01*
X32913Y-36635D01*
X32854Y-36775D01*
X32810Y-36666D01*
X32719Y-36643D01*
X32648Y-36714D01*
X32648Y-36572D01*
X32625Y-36481D01*
X32432Y-36414D01*
X32228Y-36425D01*
X32091Y-36481D01*
X32068Y-36572D01*
X32358Y-36862D01*
X32648Y-36572D01*
X32648Y-36714D01*
X32429Y-36933D01*
X32719Y-37223D01*
X32810Y-37200D01*
X32851Y-37081D01*
X32913Y-37230D01*
X33060Y-37378D01*
X33253Y-37458D01*
X33462Y-37458D01*
X33655Y-37378D01*
X33803Y-37231D01*
X33858Y-37097D01*
X33913Y-37230D01*
X34060Y-37378D01*
X34253Y-37458D01*
X34462Y-37458D01*
X34655Y-37378D01*
X34803Y-37231D01*
X34858Y-37097D01*
X34913Y-37230D01*
X35060Y-37378D01*
X35253Y-37458D01*
X35462Y-37458D01*
X35655Y-37378D01*
X35803Y-37231D01*
X35883Y-37038D01*
X35883Y-38125D01*
X32648Y-38125D01*
X32648Y-37294D01*
X32358Y-37004D01*
X32287Y-37075D01*
X32287Y-36933D01*
X31997Y-36643D01*
X31906Y-36666D01*
X31839Y-36859D01*
X31850Y-37063D01*
X31906Y-37200D01*
X31997Y-37223D01*
X32287Y-36933D01*
X32287Y-37075D01*
X32068Y-37294D01*
X32091Y-37385D01*
X32284Y-37452D01*
X32488Y-37441D01*
X32625Y-37385D01*
X32648Y-37294D01*
X32648Y-38125D01*
X32497Y-38125D01*
X30759Y-36387D01*
X30759Y-34007D01*
X30748Y-33803D01*
X30692Y-33666D01*
X30601Y-33643D01*
X30311Y-33933D01*
X30601Y-34223D01*
X30692Y-34200D01*
X30759Y-34007D01*
X30759Y-36387D01*
X30530Y-36158D01*
X30530Y-34294D01*
X30240Y-34004D01*
X29950Y-34294D01*
X29973Y-34385D01*
X30166Y-34452D01*
X30370Y-34441D01*
X30507Y-34385D01*
X30530Y-34294D01*
X30530Y-36158D01*
X29030Y-34658D01*
X29030Y-34414D01*
X29135Y-34458D01*
X29344Y-34458D01*
X29537Y-34378D01*
X29685Y-34231D01*
X29743Y-34090D01*
X29788Y-34200D01*
X29879Y-34223D01*
X30134Y-33968D01*
X30169Y-33933D01*
X30240Y-33862D01*
X30275Y-33827D01*
X30530Y-33572D01*
X30507Y-33481D01*
X30314Y-33414D01*
X30160Y-33422D01*
X31903Y-31680D01*
X32229Y-31680D01*
X32232Y-31687D01*
X32379Y-31835D01*
X32512Y-31890D01*
X32380Y-31945D01*
X32232Y-32092D01*
X32152Y-32285D01*
X32152Y-32494D01*
X32232Y-32687D01*
X32379Y-32835D01*
X32572Y-32915D01*
X32781Y-32915D01*
X32788Y-32911D01*
X33285Y-33408D01*
X33254Y-33408D01*
X33061Y-33488D01*
X32913Y-33635D01*
X32857Y-33768D01*
X32803Y-33636D01*
X32656Y-33488D01*
X32463Y-33408D01*
X32254Y-33408D01*
X32061Y-33488D01*
X31913Y-33635D01*
X31833Y-33828D01*
X31833Y-34037D01*
X31913Y-34230D01*
X32060Y-34378D01*
X32253Y-34458D01*
X32462Y-34458D01*
X32655Y-34378D01*
X32803Y-34231D01*
X32858Y-34097D01*
X32913Y-34230D01*
X33060Y-34378D01*
X33253Y-34458D01*
X33462Y-34458D01*
X33655Y-34378D01*
X33803Y-34231D01*
X33858Y-34097D01*
X33913Y-34230D01*
X34060Y-34378D01*
X34253Y-34458D01*
X34462Y-34458D01*
X34655Y-34378D01*
X34803Y-34231D01*
X34834Y-34156D01*
X34834Y-34257D01*
X34872Y-34349D01*
X34942Y-34419D01*
X35033Y-34457D01*
X35132Y-34457D01*
X35682Y-34457D01*
X35774Y-34419D01*
X35844Y-34349D01*
X35882Y-34258D01*
X35882Y-34159D01*
X35882Y-33609D01*
X35844Y-33517D01*
X35774Y-33447D01*
X35683Y-33409D01*
X35584Y-33409D01*
X35034Y-33409D01*
X34942Y-33447D01*
X34872Y-33517D01*
X34834Y-33608D01*
X34834Y-33707D01*
X34834Y-33710D01*
X34803Y-33636D01*
X34777Y-33609D01*
X34777Y-32495D01*
X34777Y-32286D01*
X34697Y-32093D01*
X34550Y-31945D01*
X34416Y-31889D01*
X34549Y-31835D01*
X34697Y-31688D01*
X34777Y-31495D01*
X34777Y-31286D01*
X34697Y-31093D01*
X34550Y-30945D01*
X34357Y-30865D01*
X34148Y-30865D01*
X33955Y-30945D01*
X33807Y-31092D01*
X33727Y-31285D01*
X33727Y-31494D01*
X33807Y-31687D01*
X33954Y-31835D01*
X34087Y-31890D01*
X33955Y-31945D01*
X33807Y-32092D01*
X33727Y-32285D01*
X33727Y-32494D01*
X33807Y-32687D01*
X33954Y-32835D01*
X34147Y-32915D01*
X34356Y-32915D01*
X34549Y-32835D01*
X34697Y-32688D01*
X34777Y-32495D01*
X34777Y-33609D01*
X34656Y-33488D01*
X34463Y-33408D01*
X34254Y-33408D01*
X34148Y-33451D01*
X33199Y-32502D01*
X33202Y-32495D01*
X33202Y-32286D01*
X33122Y-32093D01*
X32975Y-31945D01*
X32841Y-31889D01*
X32974Y-31835D01*
X33122Y-31688D01*
X33202Y-31495D01*
X33202Y-31286D01*
X33122Y-31093D01*
X32975Y-30945D01*
X32967Y-30941D01*
X32967Y-30831D01*
X34064Y-29734D01*
X36934Y-29734D01*
X37045Y-29712D01*
X37139Y-29649D01*
X37161Y-29627D01*
X37224Y-29533D01*
X37233Y-29483D01*
X37391Y-29549D01*
X37609Y-29549D01*
X37630Y-29540D01*
X44121Y-36031D01*
X44122Y-36032D01*
X44215Y-36094D01*
X44216Y-36095D01*
X44326Y-36116D01*
X44327Y-36117D01*
X44801Y-36117D01*
X44801Y-36176D01*
X44839Y-36268D01*
X44909Y-36338D01*
X45000Y-36376D01*
X45099Y-36376D01*
X45699Y-36376D01*
X45791Y-36338D01*
X45861Y-36268D01*
X45899Y-36177D01*
X45899Y-36152D01*
X46039Y-36292D01*
X46241Y-36376D01*
X46459Y-36376D01*
X46661Y-36292D01*
X46815Y-36138D01*
X46850Y-36053D01*
X46885Y-36138D01*
X47039Y-36292D01*
X47241Y-36376D01*
X47459Y-36376D01*
X47661Y-36292D01*
X47815Y-36138D01*
X47850Y-36053D01*
X47885Y-36138D01*
X48039Y-36292D01*
X48241Y-36376D01*
X48459Y-36376D01*
X48661Y-36292D01*
X48815Y-36138D01*
X48899Y-35936D01*
X48899Y-35718D01*
X48815Y-35516D01*
X48661Y-35362D01*
X48459Y-35278D01*
X48241Y-35278D01*
X48219Y-35286D01*
X47140Y-34207D01*
X47140Y-32790D01*
X47241Y-32832D01*
X47459Y-32832D01*
X47661Y-32748D01*
X47815Y-32594D01*
X47850Y-32509D01*
X47885Y-32594D01*
X48039Y-32748D01*
X48241Y-32832D01*
X48459Y-32832D01*
X48661Y-32748D01*
X48815Y-32594D01*
X48858Y-32490D01*
X49951Y-33583D01*
X49952Y-33583D01*
X50014Y-33624D01*
X50045Y-33645D01*
X50046Y-33646D01*
X50156Y-33667D01*
X50157Y-33668D01*
X52156Y-33668D01*
X52149Y-33694D01*
X52196Y-33781D01*
X52731Y-33781D01*
X52781Y-33781D01*
X52881Y-33781D01*
X52931Y-33781D01*
X53466Y-33781D01*
X53513Y-33694D01*
X53505Y-33668D01*
X55151Y-33668D01*
X55129Y-33722D01*
X55129Y-33940D01*
X55213Y-34142D01*
X55367Y-34296D01*
X55569Y-34380D01*
X55787Y-34380D01*
X56093Y-34380D01*
X56295Y-34296D01*
X56449Y-34142D01*
X56533Y-33940D01*
X56533Y-33722D01*
X56449Y-33520D01*
X56295Y-33366D01*
X56210Y-33331D01*
X56295Y-33296D01*
X56449Y-33142D01*
X56533Y-32940D01*
X56533Y-32722D01*
X56449Y-32520D01*
X56295Y-32366D01*
X56210Y-32331D01*
X56295Y-32296D01*
X56449Y-32142D01*
X56533Y-31940D01*
X56533Y-31722D01*
X56449Y-31520D01*
X56295Y-31366D01*
X56210Y-31331D01*
X56295Y-31296D01*
X56449Y-31142D01*
X56533Y-30940D01*
X56533Y-30722D01*
X56449Y-30520D01*
X56438Y-30509D01*
X56638Y-30310D01*
X56701Y-30216D01*
X56723Y-30105D01*
X56723Y-16933D01*
X56722Y-16932D01*
X56701Y-16822D01*
X56700Y-16821D01*
X56679Y-16790D01*
X56638Y-16728D01*
X56638Y-16727D01*
X54540Y-14630D01*
X54549Y-14609D01*
X54549Y-14391D01*
X54549Y-13509D01*
X54549Y-13291D01*
X54465Y-13089D01*
X54311Y-12935D01*
X54109Y-12851D01*
X53891Y-12851D01*
X53689Y-12935D01*
X53549Y-13074D01*
X53550Y-12962D01*
X53550Y-12738D01*
X53549Y-12501D01*
X53511Y-12409D01*
X53441Y-12339D01*
X53350Y-12301D01*
X53251Y-12301D01*
X53112Y-12300D01*
X53050Y-12362D01*
X53050Y-12800D01*
X53488Y-12800D01*
X53550Y-12738D01*
X53550Y-12962D01*
X53488Y-12900D01*
X53050Y-12900D01*
X53050Y-13338D01*
X53112Y-13400D01*
X53251Y-13399D01*
X53350Y-13399D01*
X53441Y-13361D01*
X53451Y-13351D01*
X53451Y-13509D01*
X53535Y-13711D01*
X53689Y-13865D01*
X53891Y-13949D01*
X54109Y-13949D01*
X54311Y-13865D01*
X54465Y-13711D01*
X54549Y-13509D01*
X54549Y-14391D01*
X54465Y-14189D01*
X54311Y-14035D01*
X54109Y-13951D01*
X53891Y-13951D01*
X53689Y-14035D01*
X53535Y-14189D01*
X53451Y-14391D01*
X53451Y-14609D01*
X53535Y-14811D01*
X53689Y-14965D01*
X53833Y-15025D01*
X53689Y-15085D01*
X53549Y-15225D01*
X53549Y-15109D01*
X53549Y-14891D01*
X53465Y-14689D01*
X53311Y-14535D01*
X53166Y-14475D01*
X53311Y-14415D01*
X53465Y-14261D01*
X53549Y-14059D01*
X53549Y-13841D01*
X53465Y-13639D01*
X53311Y-13485D01*
X53109Y-13401D01*
X52950Y-13401D01*
X52950Y-13338D01*
X52950Y-12900D01*
X52950Y-12800D01*
X52950Y-12362D01*
X52888Y-12300D01*
X52749Y-12301D01*
X52650Y-12301D01*
X52559Y-12339D01*
X52489Y-12409D01*
X52451Y-12501D01*
X52450Y-12738D01*
X52512Y-12800D01*
X52950Y-12800D01*
X52950Y-12900D01*
X52512Y-12900D01*
X52450Y-12962D01*
X52451Y-13199D01*
X52489Y-13291D01*
X52559Y-13361D01*
X52650Y-13399D01*
X52749Y-13399D01*
X52888Y-13400D01*
X52950Y-13338D01*
X52950Y-13401D01*
X52891Y-13401D01*
X52689Y-13485D01*
X52535Y-13639D01*
X52451Y-13841D01*
X52451Y-14059D01*
X52535Y-14261D01*
X52689Y-14415D01*
X52833Y-14475D01*
X52689Y-14535D01*
X52535Y-14689D01*
X52451Y-14891D01*
X52451Y-15109D01*
X52535Y-15311D01*
X52689Y-15465D01*
X52891Y-15549D01*
X53109Y-15549D01*
X53311Y-15465D01*
X53465Y-15311D01*
X53549Y-15109D01*
X53549Y-15225D01*
X53535Y-15239D01*
X53451Y-15441D01*
X53451Y-15659D01*
X53535Y-15861D01*
X53689Y-16015D01*
X53891Y-16099D01*
X54109Y-16099D01*
X54311Y-16015D01*
X54465Y-15861D01*
X54549Y-15659D01*
X54549Y-15459D01*
X56143Y-17053D01*
X56143Y-24302D01*
X56102Y-24286D01*
X56099Y-24267D01*
X56036Y-24173D01*
X55000Y-23137D01*
X55000Y-20250D01*
X55000Y-19852D01*
X54848Y-19484D01*
X54567Y-19203D01*
X54549Y-19195D01*
X54549Y-16759D01*
X54549Y-16541D01*
X54465Y-16339D01*
X54311Y-16185D01*
X54109Y-16101D01*
X53891Y-16101D01*
X53689Y-16185D01*
X53549Y-16325D01*
X53549Y-16209D01*
X53549Y-15991D01*
X53465Y-15789D01*
X53311Y-15635D01*
X53109Y-15551D01*
X52891Y-15551D01*
X52689Y-15635D01*
X52535Y-15789D01*
X52451Y-15991D01*
X52451Y-16209D01*
X52535Y-16411D01*
X52689Y-16565D01*
X52891Y-16649D01*
X53109Y-16649D01*
X53311Y-16565D01*
X53465Y-16411D01*
X53549Y-16209D01*
X53549Y-16325D01*
X53535Y-16339D01*
X53451Y-16541D01*
X53451Y-16759D01*
X53535Y-16961D01*
X53689Y-17115D01*
X53891Y-17199D01*
X54109Y-17199D01*
X54311Y-17115D01*
X54465Y-16961D01*
X54549Y-16759D01*
X54549Y-19195D01*
X54200Y-19050D01*
X53802Y-19050D01*
X53549Y-19154D01*
X53549Y-17309D01*
X53549Y-17091D01*
X53465Y-16889D01*
X53311Y-16735D01*
X53109Y-16651D01*
X52891Y-16651D01*
X52689Y-16735D01*
X52535Y-16889D01*
X52451Y-17091D01*
X52451Y-17309D01*
X52535Y-17511D01*
X52689Y-17665D01*
X52891Y-17749D01*
X53109Y-17749D01*
X53311Y-17665D01*
X53465Y-17511D01*
X53549Y-17309D01*
X53549Y-19154D01*
X53434Y-19202D01*
X53153Y-19483D01*
X53000Y-19850D01*
X53000Y-20248D01*
X53152Y-20616D01*
X53433Y-20897D01*
X53800Y-21050D01*
X54198Y-21050D01*
X54566Y-20898D01*
X54847Y-20617D01*
X55000Y-20250D01*
X55000Y-23137D01*
X51471Y-19608D01*
X51471Y-16908D01*
X51478Y-16906D01*
X51626Y-16759D01*
X51706Y-16566D01*
X51706Y-16357D01*
X51626Y-16164D01*
X51479Y-16016D01*
X51286Y-15936D01*
X51077Y-15936D01*
X50884Y-16016D01*
X50736Y-16163D01*
X50656Y-16356D01*
X50656Y-16565D01*
X50736Y-16758D01*
X50883Y-16906D01*
X50891Y-16909D01*
X50891Y-19728D01*
X50913Y-19839D01*
X50976Y-19933D01*
X55396Y-24353D01*
X55367Y-24366D01*
X55213Y-24520D01*
X55129Y-24722D01*
X55129Y-24940D01*
X55213Y-25142D01*
X55367Y-25296D01*
X55451Y-25331D01*
X55367Y-25366D01*
X55213Y-25520D01*
X55129Y-25722D01*
X55129Y-25940D01*
X55213Y-26142D01*
X55367Y-26296D01*
X55451Y-26331D01*
X55367Y-26366D01*
X55213Y-26520D01*
X55129Y-26719D01*
X53530Y-25120D01*
X53530Y-25092D01*
X53530Y-24472D01*
X53492Y-24380D01*
X53422Y-24310D01*
X53331Y-24272D01*
X53232Y-24272D01*
X53099Y-24272D01*
X53099Y-24267D01*
X53098Y-24266D01*
X53077Y-24235D01*
X53036Y-24173D01*
X53036Y-24172D01*
X50661Y-21798D01*
X50567Y-21735D01*
X50456Y-21713D01*
X46030Y-21713D01*
X46030Y-20387D01*
X46030Y-19969D01*
X45870Y-19583D01*
X45575Y-19287D01*
X45190Y-19127D01*
X44772Y-19127D01*
X44386Y-19287D01*
X44090Y-19582D01*
X43930Y-19967D01*
X43930Y-20385D01*
X44090Y-20771D01*
X44385Y-21067D01*
X44770Y-21227D01*
X45188Y-21227D01*
X45574Y-21067D01*
X45870Y-20772D01*
X46030Y-20387D01*
X46030Y-21713D01*
X36497Y-21713D01*
X36386Y-21735D01*
X36292Y-21798D01*
X36291Y-21798D01*
X36291Y-21799D01*
X35630Y-22459D01*
X35609Y-22451D01*
X35391Y-22451D01*
X35290Y-22493D01*
X35290Y-22472D01*
X41472Y-16290D01*
X41573Y-16290D01*
X41582Y-16311D01*
X41736Y-16465D01*
X41938Y-16549D01*
X42156Y-16549D01*
X42358Y-16465D01*
X42512Y-16311D01*
X42596Y-16109D01*
X42596Y-15891D01*
X42512Y-15689D01*
X42358Y-15535D01*
X42156Y-15451D01*
X41938Y-15451D01*
X41736Y-15535D01*
X41582Y-15689D01*
X41573Y-15710D01*
X41352Y-15710D01*
X41241Y-15732D01*
X41147Y-15795D01*
X34795Y-22147D01*
X34732Y-22241D01*
X34710Y-22352D01*
X34710Y-22493D01*
X34609Y-22451D01*
X34391Y-22451D01*
X34189Y-22535D01*
X34035Y-22689D01*
X34000Y-22773D01*
X33965Y-22689D01*
X33811Y-22535D01*
X33609Y-22451D01*
X33515Y-22451D01*
X39072Y-16894D01*
X39135Y-16800D01*
X39157Y-16689D01*
X39157Y-15472D01*
X39190Y-15486D01*
X39399Y-15486D01*
X39592Y-15406D01*
X39715Y-15283D01*
X46826Y-15283D01*
X47412Y-15869D01*
X47404Y-15891D01*
X47404Y-16109D01*
X47488Y-16311D01*
X47642Y-16465D01*
X47844Y-16549D01*
X48062Y-16549D01*
X48264Y-16465D01*
X48418Y-16311D01*
X48502Y-16109D01*
X48502Y-15891D01*
X48418Y-15689D01*
X48264Y-15535D01*
X48062Y-15451D01*
X47844Y-15451D01*
X47822Y-15459D01*
X47151Y-14788D01*
X47057Y-14725D01*
X46946Y-14703D01*
X45034Y-14703D01*
X45558Y-14178D01*
X45580Y-14187D01*
X45798Y-14187D01*
X46000Y-14103D01*
X46154Y-13949D01*
X46238Y-13747D01*
X46238Y-13529D01*
X46229Y-13507D01*
X47186Y-12551D01*
X47496Y-12551D01*
X47441Y-12574D01*
X47088Y-12927D01*
X46897Y-13387D01*
X46896Y-13886D01*
X47086Y-14347D01*
X47439Y-14700D01*
X47899Y-14891D01*
X48398Y-14892D01*
X48859Y-14702D01*
X49212Y-14349D01*
X49403Y-13889D01*
X49404Y-13390D01*
X49214Y-12929D01*
X48861Y-12576D01*
X48800Y-12551D01*
X49861Y-12551D01*
X50658Y-13348D01*
X50656Y-13356D01*
X50656Y-13565D01*
X50736Y-13758D01*
X50883Y-13906D01*
X51076Y-13986D01*
X51285Y-13986D01*
X51478Y-13906D01*
X51626Y-13759D01*
X51706Y-13566D01*
X51706Y-13357D01*
X51626Y-13164D01*
X51479Y-13016D01*
X51286Y-12936D01*
X51077Y-12936D01*
X51069Y-12939D01*
X50186Y-12056D01*
X50092Y-11993D01*
X49981Y-11971D01*
X48496Y-11971D01*
X48496Y-11355D01*
X48485Y-11142D01*
X48425Y-10995D01*
X48331Y-10968D01*
X48261Y-11038D01*
X48261Y-10898D01*
X48234Y-10804D01*
X48032Y-10733D01*
X47819Y-10744D01*
X47672Y-10804D01*
X47645Y-10898D01*
X47953Y-11205D01*
X48261Y-10898D01*
X48261Y-11038D01*
X48024Y-11276D01*
X48331Y-11584D01*
X48425Y-11557D01*
X48496Y-11355D01*
X48496Y-11971D01*
X48261Y-11971D01*
X48261Y-11654D01*
X47953Y-11347D01*
X47882Y-11417D01*
X47882Y-11276D01*
X47575Y-10968D01*
X47481Y-10995D01*
X47410Y-11197D01*
X47421Y-11410D01*
X47481Y-11557D01*
X47575Y-11584D01*
X47882Y-11276D01*
X47882Y-11417D01*
X47645Y-11654D01*
X47672Y-11748D01*
X47874Y-11819D01*
X48087Y-11808D01*
X48234Y-11748D01*
X48261Y-11654D01*
X48261Y-11971D01*
X47066Y-11971D01*
X46955Y-11993D01*
X46861Y-12056D01*
X45939Y-12977D01*
X45939Y-12053D01*
X45939Y-11680D01*
X45796Y-11335D01*
X45532Y-11071D01*
X45187Y-10927D01*
X44814Y-10927D01*
X44469Y-11070D01*
X44205Y-11334D01*
X44061Y-11679D01*
X44061Y-12052D01*
X44204Y-12397D01*
X44468Y-12661D01*
X44813Y-12805D01*
X45186Y-12805D01*
X45531Y-12662D01*
X45795Y-12398D01*
X45939Y-12053D01*
X45939Y-12977D01*
X45819Y-13097D01*
X45798Y-13089D01*
X45580Y-13089D01*
X45378Y-13173D01*
X45224Y-13327D01*
X45140Y-13529D01*
X45140Y-13747D01*
X45148Y-13768D01*
X44854Y-14062D01*
X44854Y-13717D01*
X44843Y-13504D01*
X44783Y-13357D01*
X44689Y-13330D01*
X44619Y-13400D01*
X44619Y-13260D01*
X44592Y-13166D01*
X44390Y-13095D01*
X44177Y-13106D01*
X44030Y-13166D01*
X44003Y-13260D01*
X44311Y-13567D01*
X44619Y-13260D01*
X44619Y-13400D01*
X44382Y-13638D01*
X44689Y-13946D01*
X44783Y-13919D01*
X44854Y-13717D01*
X44854Y-14062D01*
X44619Y-14297D01*
X44619Y-14016D01*
X44311Y-13709D01*
X44240Y-13779D01*
X44240Y-13638D01*
X43933Y-13330D01*
X43839Y-13357D01*
X43768Y-13559D01*
X43779Y-13772D01*
X43839Y-13919D01*
X43933Y-13946D01*
X44240Y-13638D01*
X44240Y-13779D01*
X44003Y-14016D01*
X44030Y-14110D01*
X44232Y-14181D01*
X44445Y-14170D01*
X44592Y-14110D01*
X44619Y-14016D01*
X44619Y-14297D01*
X44421Y-14496D01*
X42765Y-14496D01*
X42912Y-14349D01*
X43103Y-13889D01*
X43104Y-13390D01*
X42914Y-12929D01*
X42596Y-12611D01*
X42596Y-11385D01*
X42596Y-11167D01*
X42512Y-10965D01*
X42358Y-10811D01*
X42156Y-10727D01*
X41938Y-10727D01*
X41736Y-10811D01*
X41582Y-10965D01*
X41498Y-11167D01*
X41498Y-11385D01*
X41582Y-11587D01*
X41736Y-11741D01*
X41938Y-11825D01*
X42156Y-11825D01*
X42358Y-11741D01*
X42512Y-11587D01*
X42596Y-11385D01*
X42596Y-12611D01*
X42561Y-12576D01*
X42101Y-12385D01*
X41602Y-12384D01*
X41141Y-12574D01*
X40788Y-12927D01*
X40597Y-13387D01*
X40596Y-13886D01*
X40786Y-14347D01*
X40935Y-14496D01*
X40620Y-14496D01*
X40461Y-14337D01*
X40367Y-14274D01*
X40256Y-14252D01*
X39820Y-14252D01*
X39820Y-13491D01*
X39820Y-13282D01*
X39740Y-13089D01*
X39593Y-12941D01*
X39400Y-12861D01*
X39191Y-12861D01*
X38998Y-12941D01*
X38850Y-13088D01*
X38770Y-13281D01*
X38770Y-13490D01*
X38850Y-13683D01*
X38997Y-13831D01*
X39190Y-13911D01*
X39399Y-13911D01*
X39592Y-13831D01*
X39740Y-13684D01*
X39820Y-13491D01*
X39820Y-14252D01*
X38889Y-14252D01*
X38778Y-14274D01*
X38684Y-14337D01*
X38662Y-14359D01*
X38599Y-14453D01*
X38577Y-14564D01*
X38577Y-16569D01*
X38043Y-17102D01*
X38043Y-11079D01*
X38032Y-10866D01*
X37972Y-10719D01*
X37878Y-10692D01*
X37808Y-10762D01*
X37808Y-10622D01*
X37781Y-10528D01*
X37579Y-10457D01*
X37366Y-10468D01*
X37219Y-10528D01*
X37192Y-10622D01*
X37500Y-10929D01*
X37808Y-10622D01*
X37808Y-10762D01*
X37571Y-11000D01*
X37878Y-11308D01*
X37972Y-11281D01*
X38043Y-11079D01*
X38043Y-17102D01*
X38015Y-17130D01*
X37980Y-17042D01*
X37886Y-17015D01*
X37816Y-17085D01*
X37816Y-16945D01*
X37808Y-16917D01*
X37808Y-11378D01*
X37500Y-11071D01*
X37429Y-11141D01*
X37429Y-11000D01*
X37122Y-10692D01*
X37049Y-10712D01*
X37049Y-10651D01*
X37011Y-10559D01*
X36941Y-10489D01*
X36850Y-10451D01*
X36751Y-10451D01*
X36151Y-10451D01*
X36059Y-10489D01*
X35989Y-10559D01*
X35951Y-10650D01*
X35951Y-10749D01*
X35951Y-11349D01*
X35989Y-11441D01*
X36059Y-11511D01*
X36150Y-11549D01*
X36249Y-11549D01*
X36849Y-11549D01*
X36941Y-11511D01*
X37011Y-11441D01*
X37049Y-11350D01*
X37049Y-11287D01*
X37122Y-11308D01*
X37429Y-11000D01*
X37429Y-11141D01*
X37192Y-11378D01*
X37219Y-11472D01*
X37421Y-11543D01*
X37634Y-11532D01*
X37781Y-11472D01*
X37808Y-11378D01*
X37808Y-16917D01*
X37789Y-16851D01*
X37587Y-16780D01*
X37374Y-16791D01*
X37227Y-16851D01*
X37200Y-16945D01*
X37508Y-17252D01*
X37816Y-16945D01*
X37816Y-17085D01*
X37579Y-17323D01*
X37508Y-17394D01*
X37437Y-17464D01*
X37437Y-17323D01*
X37130Y-17015D01*
X37057Y-17035D01*
X37057Y-16974D01*
X37019Y-16882D01*
X36949Y-16812D01*
X36858Y-16774D01*
X36820Y-16774D01*
X36820Y-15066D01*
X36820Y-14857D01*
X36820Y-13491D01*
X36820Y-13282D01*
X36740Y-13089D01*
X36593Y-12941D01*
X36400Y-12861D01*
X36191Y-12861D01*
X35998Y-12941D01*
X35850Y-13088D01*
X35770Y-13281D01*
X35770Y-13490D01*
X35850Y-13683D01*
X35997Y-13831D01*
X36190Y-13911D01*
X36399Y-13911D01*
X36592Y-13831D01*
X36740Y-13684D01*
X36820Y-13491D01*
X36820Y-14857D01*
X36740Y-14664D01*
X36593Y-14516D01*
X36400Y-14436D01*
X36191Y-14436D01*
X35998Y-14516D01*
X35850Y-14663D01*
X35770Y-14856D01*
X35770Y-15065D01*
X35850Y-15258D01*
X35997Y-15406D01*
X36190Y-15486D01*
X36399Y-15486D01*
X36592Y-15406D01*
X36740Y-15259D01*
X36820Y-15066D01*
X36820Y-16774D01*
X36759Y-16774D01*
X36159Y-16774D01*
X36067Y-16812D01*
X35997Y-16882D01*
X35959Y-16973D01*
X35959Y-17072D01*
X35959Y-17672D01*
X35997Y-17764D01*
X36067Y-17834D01*
X36158Y-17872D01*
X36257Y-17872D01*
X36857Y-17872D01*
X36949Y-17834D01*
X37019Y-17764D01*
X37057Y-17673D01*
X37057Y-17610D01*
X37130Y-17631D01*
X37437Y-17323D01*
X37437Y-17464D01*
X37200Y-17701D01*
X37227Y-17795D01*
X37318Y-17827D01*
X34908Y-20237D01*
X34908Y-12316D01*
X34908Y-11898D01*
X34748Y-11512D01*
X34453Y-11216D01*
X34068Y-11056D01*
X33650Y-11056D01*
X33264Y-11216D01*
X32968Y-11511D01*
X32808Y-11896D01*
X32808Y-12314D01*
X32968Y-12700D01*
X33263Y-12996D01*
X33648Y-13156D01*
X34066Y-13156D01*
X34452Y-12996D01*
X34748Y-12701D01*
X34908Y-12316D01*
X34908Y-20237D01*
X32795Y-22351D01*
X32732Y-22445D01*
X32721Y-22497D01*
X32609Y-22451D01*
X32391Y-22451D01*
X32189Y-22535D01*
X32035Y-22689D01*
X32000Y-22773D01*
X31965Y-22689D01*
X31811Y-22535D01*
X31609Y-22451D01*
X31391Y-22451D01*
X31189Y-22535D01*
X31035Y-22689D01*
X31000Y-22773D01*
X30965Y-22689D01*
X30811Y-22535D01*
X30609Y-22451D01*
X30391Y-22451D01*
X30189Y-22535D01*
X30035Y-22689D01*
X30000Y-22773D01*
X29965Y-22689D01*
X29811Y-22535D01*
X29609Y-22451D01*
X29391Y-22451D01*
X29189Y-22535D01*
X29035Y-22689D01*
X29000Y-22773D01*
X28965Y-22689D01*
X28811Y-22535D01*
X28609Y-22451D01*
X28391Y-22451D01*
X28189Y-22535D01*
X28035Y-22689D01*
X28000Y-22773D01*
X27965Y-22689D01*
X27811Y-22535D01*
X27609Y-22451D01*
X27391Y-22451D01*
X27189Y-22535D01*
X27035Y-22689D01*
X27000Y-22773D01*
X26965Y-22689D01*
X26811Y-22535D01*
X26609Y-22451D01*
X26391Y-22451D01*
X26189Y-22535D01*
X26035Y-22689D01*
X26000Y-22773D01*
X25965Y-22689D01*
X25811Y-22535D01*
X25609Y-22451D01*
X25459Y-22451D01*
X28201Y-19709D01*
X28264Y-19615D01*
X28286Y-19504D01*
X28286Y-19502D01*
X28377Y-19540D01*
X28615Y-19540D01*
X28835Y-19449D01*
X28996Y-19288D01*
X29157Y-19449D01*
X29377Y-19540D01*
X29615Y-19540D01*
X29835Y-19449D01*
X29996Y-19288D01*
X30157Y-19449D01*
X30377Y-19540D01*
X30615Y-19540D01*
X30835Y-19449D01*
X30996Y-19288D01*
X31157Y-19449D01*
X31377Y-19540D01*
X31615Y-19540D01*
X31835Y-19449D01*
X31996Y-19288D01*
X32157Y-19449D01*
X32377Y-19540D01*
X32615Y-19540D01*
X32835Y-19449D01*
X33004Y-19280D01*
X33095Y-19060D01*
X33095Y-18822D01*
X33089Y-18807D01*
X33089Y-16032D01*
X33078Y-15797D01*
X33009Y-15631D01*
X32910Y-15598D01*
X32839Y-15669D01*
X32839Y-15527D01*
X32806Y-15428D01*
X32587Y-15348D01*
X32352Y-15359D01*
X32186Y-15428D01*
X32153Y-15527D01*
X32496Y-15870D01*
X32839Y-15527D01*
X32839Y-15669D01*
X32567Y-15941D01*
X32910Y-16284D01*
X33009Y-16251D01*
X33089Y-16032D01*
X33089Y-18807D01*
X33004Y-18602D01*
X32839Y-18437D01*
X32839Y-16355D01*
X32496Y-16012D01*
X32425Y-16083D01*
X32425Y-15941D01*
X32082Y-15598D01*
X32021Y-15617D01*
X32021Y-12597D01*
X32021Y-12388D01*
X31941Y-12195D01*
X31794Y-12047D01*
X31601Y-11967D01*
X31392Y-11967D01*
X31199Y-12047D01*
X31051Y-12194D01*
X30971Y-12387D01*
X30971Y-12596D01*
X31051Y-12789D01*
X31198Y-12937D01*
X31338Y-12995D01*
X31229Y-13040D01*
X31206Y-13131D01*
X31496Y-13421D01*
X31786Y-13131D01*
X31763Y-13040D01*
X31644Y-12998D01*
X31793Y-12937D01*
X31941Y-12790D01*
X32021Y-12597D01*
X32021Y-15617D01*
X32015Y-15619D01*
X32015Y-13566D01*
X32004Y-13362D01*
X31948Y-13225D01*
X31857Y-13202D01*
X31567Y-13492D01*
X31857Y-13782D01*
X31948Y-13759D01*
X32015Y-13566D01*
X32015Y-15619D01*
X31996Y-15626D01*
X31910Y-15598D01*
X31839Y-15669D01*
X31839Y-15527D01*
X31806Y-15428D01*
X31786Y-15420D01*
X31786Y-13853D01*
X31496Y-13563D01*
X31425Y-13634D01*
X31425Y-13492D01*
X31135Y-13202D01*
X31044Y-13225D01*
X30977Y-13418D01*
X30988Y-13622D01*
X31044Y-13759D01*
X31135Y-13782D01*
X31425Y-13492D01*
X31425Y-13634D01*
X31206Y-13853D01*
X31229Y-13944D01*
X31422Y-14011D01*
X31626Y-14000D01*
X31763Y-13944D01*
X31786Y-13853D01*
X31786Y-15420D01*
X31587Y-15348D01*
X31352Y-15359D01*
X31186Y-15428D01*
X31153Y-15527D01*
X31496Y-15870D01*
X31839Y-15527D01*
X31839Y-15669D01*
X31567Y-15941D01*
X31910Y-16284D01*
X31996Y-16255D01*
X32082Y-16284D01*
X32425Y-15941D01*
X32425Y-16083D01*
X32153Y-16355D01*
X32186Y-16454D01*
X32405Y-16534D01*
X32640Y-16523D01*
X32806Y-16454D01*
X32839Y-16355D01*
X32839Y-18437D01*
X32835Y-18433D01*
X32615Y-18342D01*
X32377Y-18342D01*
X32157Y-18433D01*
X31996Y-18594D01*
X31839Y-18437D01*
X31839Y-16355D01*
X31496Y-16012D01*
X31425Y-16083D01*
X31425Y-15941D01*
X31082Y-15598D01*
X30996Y-15626D01*
X30910Y-15598D01*
X30839Y-15669D01*
X30839Y-15527D01*
X30806Y-15428D01*
X30587Y-15348D01*
X30352Y-15359D01*
X30186Y-15428D01*
X30153Y-15527D01*
X30496Y-15870D01*
X30839Y-15527D01*
X30839Y-15669D01*
X30567Y-15941D01*
X30910Y-16284D01*
X30996Y-16255D01*
X31082Y-16284D01*
X31425Y-15941D01*
X31425Y-16083D01*
X31153Y-16355D01*
X31186Y-16454D01*
X31405Y-16534D01*
X31640Y-16523D01*
X31806Y-16454D01*
X31839Y-16355D01*
X31839Y-18437D01*
X31835Y-18433D01*
X31615Y-18342D01*
X31377Y-18342D01*
X31157Y-18433D01*
X30996Y-18594D01*
X30839Y-18437D01*
X30839Y-16355D01*
X30496Y-16012D01*
X30425Y-16083D01*
X30425Y-15941D01*
X30082Y-15598D01*
X29996Y-15626D01*
X29910Y-15598D01*
X29839Y-15669D01*
X29839Y-15527D01*
X29806Y-15428D01*
X29587Y-15348D01*
X29352Y-15359D01*
X29186Y-15428D01*
X29153Y-15527D01*
X29496Y-15870D01*
X29839Y-15527D01*
X29839Y-15669D01*
X29567Y-15941D01*
X29910Y-16284D01*
X29996Y-16255D01*
X30082Y-16284D01*
X30425Y-15941D01*
X30425Y-16083D01*
X30153Y-16355D01*
X30186Y-16454D01*
X30405Y-16534D01*
X30640Y-16523D01*
X30806Y-16454D01*
X30839Y-16355D01*
X30839Y-18437D01*
X30835Y-18433D01*
X30615Y-18342D01*
X30377Y-18342D01*
X30157Y-18433D01*
X29996Y-18594D01*
X29839Y-18437D01*
X29839Y-16355D01*
X29496Y-16012D01*
X29425Y-16083D01*
X29425Y-15941D01*
X29082Y-15598D01*
X28996Y-15626D01*
X28910Y-15598D01*
X28567Y-15941D01*
X28910Y-16284D01*
X28996Y-16255D01*
X29082Y-16284D01*
X29425Y-15941D01*
X29425Y-16083D01*
X29153Y-16355D01*
X29186Y-16454D01*
X29405Y-16534D01*
X29640Y-16523D01*
X29806Y-16454D01*
X29839Y-16355D01*
X29839Y-18437D01*
X29835Y-18433D01*
X29615Y-18342D01*
X29377Y-18342D01*
X29157Y-18433D01*
X28996Y-18594D01*
X28835Y-18433D01*
X28615Y-18342D01*
X28377Y-18342D01*
X28286Y-18379D01*
X28286Y-16490D01*
X28405Y-16534D01*
X28640Y-16523D01*
X28806Y-16454D01*
X28839Y-16355D01*
X28531Y-16047D01*
X28496Y-16012D01*
X28425Y-15941D01*
X28496Y-15870D01*
X28531Y-15835D01*
X28839Y-15527D01*
X28806Y-15428D01*
X28587Y-15348D01*
X28352Y-15359D01*
X28286Y-15386D01*
X28286Y-15179D01*
X29453Y-14012D01*
X29516Y-13918D01*
X29537Y-13807D01*
X29538Y-13807D01*
X29538Y-11711D01*
X30916Y-10333D01*
X30916Y-10458D01*
X31004Y-10671D01*
X31167Y-10834D01*
X31380Y-10923D01*
X31611Y-10923D01*
X31824Y-10835D01*
X31987Y-10672D01*
X32076Y-10459D01*
X32076Y-10228D01*
X31988Y-10015D01*
X31825Y-09852D01*
X31804Y-09843D01*
X31824Y-09835D01*
X31987Y-09672D01*
X32059Y-09499D01*
X53146Y-09499D01*
X53000Y-09850D01*
X53000Y-10248D01*
X53152Y-10616D01*
X53433Y-10897D01*
X53800Y-11050D01*
X54198Y-11050D01*
X54566Y-10898D01*
X54847Y-10617D01*
X55000Y-10250D01*
X55000Y-09852D01*
X54854Y-09499D01*
X59005Y-09499D01*
X59005Y-45226D01*
X59005Y-45226D01*
G37*
G54D25*
X59005Y-45226D02*
X57448Y-45226D01*
X57448Y-40367D01*
X57448Y-39949D01*
X57288Y-39563D01*
X56993Y-39267D01*
X56608Y-39107D01*
X56190Y-39107D01*
X55804Y-39267D01*
X55508Y-39562D01*
X55348Y-39947D01*
X55348Y-40365D01*
X55508Y-40751D01*
X55803Y-41047D01*
X56188Y-41207D01*
X56606Y-41207D01*
X56992Y-41047D01*
X57288Y-40752D01*
X57448Y-40367D01*
X57448Y-45226D01*
X35120Y-45226D01*
X35120Y-45048D01*
X35120Y-45000D01*
X35245Y-45125D01*
X35339Y-45188D01*
X35450Y-45210D01*
X39840Y-45210D01*
X39951Y-45188D01*
X40045Y-45125D01*
X40231Y-44939D01*
X40294Y-44845D01*
X40294Y-44840D01*
X40818Y-44840D01*
X40910Y-44802D01*
X40980Y-44732D01*
X41018Y-44641D01*
X41018Y-44542D01*
X41018Y-43942D01*
X40980Y-43850D01*
X40910Y-43780D01*
X40819Y-43742D01*
X40720Y-43742D01*
X40120Y-43742D01*
X40028Y-43780D01*
X39958Y-43850D01*
X39920Y-43941D01*
X39920Y-43966D01*
X39780Y-43826D01*
X39578Y-43742D01*
X39360Y-43742D01*
X39158Y-43826D01*
X39004Y-43980D01*
X38969Y-44064D01*
X38934Y-43980D01*
X38780Y-43826D01*
X38578Y-43742D01*
X38360Y-43742D01*
X38326Y-43756D01*
X38287Y-43730D01*
X38176Y-43708D01*
X32701Y-43708D01*
X32590Y-43730D01*
X32496Y-43793D01*
X31892Y-44396D01*
X31882Y-44386D01*
X31680Y-44302D01*
X31462Y-44302D01*
X31260Y-44386D01*
X31106Y-44540D01*
X31022Y-44742D01*
X31022Y-44960D01*
X31022Y-45226D01*
X29289Y-45226D01*
X29289Y-44551D01*
X29289Y-44452D01*
X29289Y-43852D01*
X29283Y-43837D01*
X29251Y-43760D01*
X29181Y-43690D01*
X29090Y-43652D01*
X29027Y-43652D01*
X29048Y-43579D01*
X28740Y-43272D01*
X28669Y-43342D01*
X28432Y-43579D01*
X28452Y-43652D01*
X28391Y-43652D01*
X28299Y-43690D01*
X28229Y-43760D01*
X28191Y-43851D01*
X28191Y-43950D01*
X28191Y-44550D01*
X28229Y-44642D01*
X28299Y-44712D01*
X28390Y-44750D01*
X28489Y-44750D01*
X29089Y-44750D01*
X29181Y-44712D01*
X29251Y-44642D01*
X29289Y-44551D01*
X29289Y-45226D01*
X27714Y-45226D01*
X27714Y-44551D01*
X27714Y-44452D01*
X27714Y-43852D01*
X27708Y-43837D01*
X27676Y-43760D01*
X27606Y-43690D01*
X27515Y-43652D01*
X27452Y-43652D01*
X27473Y-43579D01*
X27165Y-43272D01*
X27094Y-43342D01*
X26857Y-43579D01*
X26877Y-43652D01*
X26816Y-43652D01*
X26724Y-43690D01*
X26654Y-43760D01*
X26616Y-43851D01*
X26616Y-43950D01*
X26616Y-44550D01*
X26654Y-44642D01*
X26724Y-44712D01*
X26815Y-44750D01*
X26914Y-44750D01*
X27514Y-44750D01*
X27606Y-44712D01*
X27676Y-44642D01*
X27714Y-44551D01*
X27714Y-45226D01*
X24066Y-45226D01*
X24066Y-29342D01*
X24189Y-29465D01*
X24391Y-29549D01*
X24609Y-29549D01*
X24811Y-29465D01*
X24965Y-29311D01*
X25000Y-29226D01*
X25035Y-29311D01*
X25189Y-29465D01*
X25391Y-29549D01*
X25609Y-29549D01*
X25811Y-29465D01*
X25965Y-29311D01*
X26000Y-29226D01*
X26035Y-29311D01*
X26189Y-29465D01*
X26391Y-29549D01*
X26609Y-29549D01*
X26710Y-29507D01*
X26710Y-30873D01*
X26732Y-30984D01*
X26795Y-31078D01*
X28450Y-32733D01*
X28450Y-33451D01*
X28345Y-33408D01*
X28136Y-33408D01*
X27943Y-33488D01*
X27795Y-33635D01*
X27739Y-33768D01*
X27685Y-33636D01*
X27538Y-33488D01*
X27345Y-33408D01*
X27136Y-33408D01*
X26943Y-33488D01*
X26795Y-33635D01*
X26715Y-33828D01*
X26715Y-34037D01*
X26795Y-34230D01*
X26942Y-34378D01*
X27135Y-34458D01*
X27344Y-34458D01*
X27537Y-34378D01*
X27685Y-34231D01*
X27740Y-34097D01*
X27795Y-34230D01*
X27942Y-34378D01*
X28135Y-34458D01*
X28344Y-34458D01*
X28450Y-34414D01*
X28450Y-34778D01*
X28472Y-34889D01*
X28535Y-34983D01*
X30011Y-36459D01*
X29943Y-36488D01*
X29795Y-36635D01*
X29739Y-36768D01*
X29685Y-36636D01*
X29538Y-36488D01*
X29345Y-36408D01*
X29136Y-36408D01*
X28943Y-36488D01*
X28795Y-36635D01*
X28739Y-36768D01*
X28685Y-36636D01*
X28538Y-36488D01*
X28345Y-36408D01*
X28136Y-36408D01*
X27943Y-36488D01*
X27795Y-36635D01*
X27764Y-36709D01*
X27764Y-36609D01*
X27726Y-36517D01*
X27656Y-36447D01*
X27565Y-36409D01*
X27466Y-36409D01*
X26916Y-36409D01*
X26824Y-36447D01*
X26754Y-36517D01*
X26716Y-36608D01*
X26716Y-36707D01*
X26716Y-37257D01*
X26754Y-37349D01*
X26824Y-37419D01*
X26915Y-37457D01*
X27014Y-37457D01*
X27564Y-37457D01*
X27656Y-37419D01*
X27726Y-37349D01*
X27764Y-37258D01*
X27764Y-37159D01*
X27764Y-37155D01*
X27795Y-37230D01*
X27942Y-37378D01*
X28135Y-37458D01*
X28344Y-37458D01*
X28351Y-37454D01*
X29244Y-38347D01*
X29239Y-38345D01*
X29030Y-38345D01*
X28837Y-38425D01*
X28689Y-38572D01*
X28609Y-38765D01*
X28609Y-38974D01*
X28689Y-39167D01*
X28836Y-39315D01*
X28969Y-39370D01*
X28837Y-39425D01*
X28689Y-39572D01*
X28609Y-39765D01*
X28609Y-39974D01*
X28689Y-40167D01*
X28836Y-40315D01*
X29029Y-40395D01*
X29238Y-40395D01*
X29431Y-40315D01*
X29579Y-40168D01*
X29582Y-40160D01*
X32317Y-40160D01*
X33459Y-41302D01*
X33260Y-41386D01*
X33106Y-41540D01*
X33071Y-41624D01*
X33036Y-41540D01*
X32882Y-41386D01*
X32680Y-41302D01*
X32462Y-41302D01*
X32260Y-41386D01*
X32106Y-41540D01*
X32071Y-41624D01*
X32036Y-41540D01*
X31882Y-41386D01*
X31680Y-41302D01*
X31462Y-41302D01*
X31260Y-41386D01*
X31106Y-41540D01*
X31022Y-41742D01*
X31022Y-41960D01*
X31022Y-42266D01*
X31039Y-42308D01*
X26641Y-42308D01*
X26641Y-40367D01*
X26641Y-39949D01*
X26481Y-39563D01*
X26186Y-39267D01*
X25801Y-39107D01*
X25383Y-39107D01*
X24997Y-39267D01*
X24701Y-39562D01*
X24541Y-39947D01*
X24541Y-40365D01*
X24701Y-40751D01*
X24996Y-41047D01*
X25381Y-41207D01*
X25799Y-41207D01*
X26185Y-41047D01*
X26481Y-40752D01*
X26641Y-40367D01*
X26641Y-42308D01*
X26194Y-42308D01*
X26083Y-42330D01*
X26051Y-42351D01*
X25988Y-42393D01*
X25720Y-42660D01*
X25700Y-42652D01*
X25482Y-42652D01*
X25280Y-42736D01*
X25126Y-42890D01*
X25042Y-43092D01*
X25042Y-43310D01*
X25126Y-43512D01*
X25266Y-43652D01*
X25242Y-43652D01*
X25150Y-43690D01*
X25080Y-43760D01*
X25042Y-43851D01*
X25042Y-43950D01*
X25042Y-44550D01*
X25080Y-44642D01*
X25150Y-44712D01*
X25241Y-44750D01*
X25340Y-44750D01*
X25940Y-44750D01*
X26032Y-44712D01*
X26102Y-44642D01*
X26140Y-44551D01*
X26140Y-44452D01*
X26140Y-43852D01*
X26102Y-43760D01*
X26032Y-43690D01*
X25941Y-43652D01*
X25916Y-43652D01*
X26056Y-43512D01*
X26140Y-43310D01*
X26140Y-43092D01*
X26131Y-43071D01*
X26314Y-42888D01*
X26711Y-42888D01*
X26731Y-42908D01*
X26693Y-42920D01*
X26622Y-43122D01*
X26633Y-43335D01*
X26693Y-43482D01*
X26787Y-43509D01*
X27059Y-43236D01*
X27094Y-43201D01*
X27165Y-43130D01*
X27236Y-43201D01*
X27271Y-43236D01*
X27543Y-43509D01*
X27637Y-43482D01*
X27708Y-43280D01*
X27697Y-43067D01*
X27637Y-42920D01*
X27598Y-42908D01*
X27619Y-42888D01*
X28286Y-42888D01*
X28306Y-42908D01*
X28268Y-42920D01*
X28197Y-43122D01*
X28208Y-43335D01*
X28268Y-43482D01*
X28362Y-43509D01*
X28634Y-43236D01*
X28669Y-43201D01*
X28740Y-43130D01*
X28811Y-43201D01*
X28846Y-43236D01*
X29118Y-43509D01*
X29212Y-43482D01*
X29283Y-43280D01*
X29272Y-43067D01*
X29212Y-42920D01*
X29173Y-42908D01*
X29194Y-42888D01*
X48270Y-42888D01*
X48381Y-42866D01*
X48475Y-42803D01*
X49566Y-41712D01*
X49566Y-41746D01*
X49646Y-41939D01*
X49793Y-42087D01*
X49986Y-42167D01*
X50195Y-42167D01*
X50388Y-42087D01*
X50536Y-41940D01*
X50551Y-41902D01*
X50562Y-41910D01*
X50567Y-41910D01*
X50567Y-41966D01*
X50605Y-42058D01*
X50675Y-42128D01*
X50766Y-42166D01*
X50865Y-42166D01*
X51415Y-42166D01*
X51507Y-42128D01*
X51546Y-42089D01*
X52494Y-43037D01*
X52494Y-43048D01*
X52494Y-43648D01*
X52532Y-43740D01*
X52602Y-43810D01*
X52693Y-43848D01*
X52718Y-43848D01*
X52578Y-43988D01*
X52572Y-44001D01*
X51636Y-44001D01*
X51634Y-43994D01*
X51487Y-43846D01*
X51294Y-43766D01*
X51085Y-43766D01*
X50892Y-43846D01*
X50744Y-43993D01*
X50688Y-44126D01*
X50634Y-43994D01*
X50487Y-43846D01*
X50294Y-43766D01*
X50085Y-43766D01*
X49892Y-43846D01*
X49744Y-43993D01*
X49664Y-44186D01*
X49664Y-44395D01*
X49744Y-44588D01*
X49891Y-44736D01*
X50084Y-44816D01*
X50293Y-44816D01*
X50486Y-44736D01*
X50634Y-44589D01*
X50689Y-44455D01*
X50744Y-44588D01*
X50891Y-44736D01*
X51084Y-44816D01*
X51293Y-44816D01*
X51486Y-44736D01*
X51634Y-44589D01*
X51637Y-44581D01*
X52565Y-44581D01*
X52578Y-44610D01*
X52732Y-44764D01*
X52934Y-44848D01*
X53152Y-44848D01*
X53354Y-44764D01*
X53508Y-44610D01*
X53543Y-44525D01*
X53578Y-44610D01*
X53732Y-44764D01*
X53934Y-44848D01*
X54152Y-44848D01*
X54354Y-44764D01*
X54508Y-44610D01*
X54516Y-44589D01*
X55432Y-44589D01*
X55441Y-44610D01*
X55595Y-44764D01*
X55797Y-44848D01*
X56015Y-44848D01*
X56217Y-44764D01*
X56371Y-44610D01*
X56455Y-44408D01*
X56455Y-44190D01*
X56371Y-43988D01*
X56231Y-43848D01*
X56255Y-43848D01*
X56347Y-43810D01*
X56417Y-43740D01*
X56455Y-43649D01*
X56455Y-43550D01*
X56455Y-42950D01*
X56417Y-42858D01*
X56347Y-42788D01*
X56256Y-42750D01*
X56157Y-42750D01*
X55557Y-42750D01*
X55465Y-42788D01*
X55395Y-42858D01*
X55357Y-42949D01*
X55357Y-43009D01*
X54516Y-43009D01*
X54508Y-42988D01*
X54354Y-42834D01*
X54152Y-42750D01*
X53934Y-42750D01*
X53732Y-42834D01*
X53592Y-42974D01*
X53592Y-42950D01*
X53554Y-42858D01*
X53513Y-42817D01*
X53513Y-33968D01*
X53466Y-33881D01*
X52881Y-33881D01*
X52881Y-34391D01*
X52991Y-34391D01*
X53204Y-34341D01*
X53381Y-34213D01*
X53496Y-34027D01*
X53513Y-33968D01*
X53513Y-42817D01*
X53484Y-42788D01*
X53393Y-42750D01*
X53311Y-42750D01*
X53311Y-42745D01*
X53248Y-42651D01*
X53154Y-42588D01*
X53043Y-42566D01*
X52843Y-42566D01*
X52781Y-42504D01*
X52781Y-34391D01*
X52781Y-33881D01*
X52196Y-33881D01*
X52149Y-33968D01*
X52166Y-34027D01*
X52281Y-34213D01*
X52458Y-34341D01*
X52671Y-34391D01*
X52781Y-34391D01*
X52781Y-42504D01*
X51714Y-41437D01*
X51620Y-41374D01*
X51615Y-41373D01*
X51615Y-41318D01*
X51577Y-41226D01*
X51507Y-41156D01*
X51416Y-41118D01*
X51317Y-41118D01*
X51313Y-41118D01*
X51388Y-41087D01*
X51536Y-40940D01*
X51616Y-40747D01*
X51616Y-40538D01*
X51536Y-40345D01*
X51389Y-40197D01*
X51196Y-40117D01*
X50987Y-40117D01*
X50794Y-40197D01*
X50729Y-40261D01*
X49471Y-40261D01*
X49469Y-40254D01*
X49322Y-40106D01*
X49129Y-40026D01*
X48920Y-40026D01*
X48727Y-40106D01*
X48579Y-40253D01*
X48523Y-40386D01*
X48469Y-40254D01*
X48322Y-40106D01*
X48129Y-40026D01*
X47920Y-40026D01*
X47912Y-40028D01*
X46093Y-38210D01*
X45999Y-38147D01*
X45888Y-38125D01*
X41001Y-38125D01*
X41001Y-37038D01*
X41001Y-36829D01*
X41000Y-36826D01*
X41000Y-34258D01*
X41000Y-34159D01*
X41000Y-33609D01*
X40962Y-33517D01*
X40892Y-33447D01*
X40801Y-33409D01*
X40702Y-33409D01*
X40152Y-33409D01*
X40060Y-33447D01*
X39990Y-33517D01*
X39952Y-33608D01*
X39952Y-33707D01*
X39952Y-33710D01*
X39921Y-33636D01*
X39774Y-33488D01*
X39581Y-33408D01*
X39372Y-33408D01*
X39179Y-33488D01*
X39031Y-33635D01*
X38975Y-33768D01*
X38921Y-33636D01*
X38774Y-33488D01*
X38581Y-33408D01*
X38372Y-33408D01*
X38364Y-33411D01*
X37138Y-32185D01*
X37044Y-32122D01*
X36933Y-32100D01*
X36274Y-32100D01*
X36272Y-32093D01*
X36125Y-31945D01*
X35991Y-31889D01*
X36124Y-31835D01*
X36272Y-31688D01*
X36352Y-31495D01*
X36352Y-31286D01*
X36272Y-31093D01*
X36125Y-30945D01*
X35932Y-30865D01*
X35723Y-30865D01*
X35530Y-30945D01*
X35382Y-31092D01*
X35302Y-31285D01*
X35302Y-31494D01*
X35382Y-31687D01*
X35529Y-31835D01*
X35662Y-31890D01*
X35530Y-31945D01*
X35382Y-32092D01*
X35302Y-32285D01*
X35302Y-32494D01*
X35382Y-32687D01*
X35529Y-32835D01*
X35722Y-32915D01*
X35931Y-32915D01*
X36124Y-32835D01*
X36272Y-32688D01*
X36275Y-32680D01*
X36813Y-32680D01*
X37541Y-33408D01*
X37372Y-33408D01*
X37179Y-33488D01*
X37031Y-33635D01*
X36951Y-33828D01*
X36951Y-34037D01*
X37031Y-34230D01*
X37178Y-34378D01*
X37371Y-34458D01*
X37580Y-34458D01*
X37773Y-34378D01*
X37921Y-34231D01*
X37976Y-34097D01*
X38031Y-34230D01*
X38178Y-34378D01*
X38371Y-34458D01*
X38580Y-34458D01*
X38773Y-34378D01*
X38921Y-34231D01*
X38976Y-34097D01*
X39031Y-34230D01*
X39178Y-34378D01*
X39371Y-34458D01*
X39580Y-34458D01*
X39773Y-34378D01*
X39921Y-34231D01*
X39952Y-34156D01*
X39952Y-34257D01*
X39990Y-34349D01*
X40060Y-34419D01*
X40151Y-34457D01*
X40250Y-34457D01*
X40800Y-34457D01*
X40892Y-34419D01*
X40962Y-34349D01*
X41000Y-34258D01*
X41000Y-36826D01*
X40921Y-36636D01*
X40774Y-36488D01*
X40581Y-36408D01*
X40372Y-36408D01*
X40179Y-36488D01*
X40031Y-36635D01*
X39975Y-36768D01*
X39921Y-36636D01*
X39774Y-36488D01*
X39581Y-36408D01*
X39372Y-36408D01*
X39179Y-36488D01*
X39031Y-36635D01*
X38975Y-36768D01*
X38921Y-36636D01*
X38774Y-36488D01*
X38581Y-36408D01*
X38372Y-36408D01*
X38179Y-36488D01*
X38031Y-36635D01*
X37972Y-36775D01*
X37928Y-36666D01*
X37837Y-36643D01*
X37766Y-36714D01*
X37766Y-36572D01*
X37743Y-36481D01*
X37550Y-36414D01*
X37346Y-36425D01*
X37209Y-36481D01*
X37186Y-36572D01*
X37476Y-36862D01*
X37766Y-36572D01*
X37766Y-36714D01*
X37547Y-36933D01*
X37837Y-37223D01*
X37928Y-37200D01*
X37969Y-37081D01*
X38031Y-37230D01*
X38178Y-37378D01*
X38371Y-37458D01*
X38580Y-37458D01*
X38773Y-37378D01*
X38921Y-37231D01*
X38976Y-37097D01*
X39031Y-37230D01*
X39178Y-37378D01*
X39371Y-37458D01*
X39580Y-37458D01*
X39773Y-37378D01*
X39921Y-37231D01*
X39976Y-37097D01*
X40031Y-37230D01*
X40178Y-37378D01*
X40371Y-37458D01*
X40580Y-37458D01*
X40773Y-37378D01*
X40921Y-37231D01*
X41001Y-37038D01*
X41001Y-38125D01*
X37766Y-38125D01*
X37766Y-37294D01*
X37476Y-37004D01*
X37405Y-37075D01*
X37405Y-36933D01*
X37115Y-36643D01*
X37024Y-36666D01*
X36957Y-36859D01*
X36968Y-37063D01*
X37024Y-37200D01*
X37115Y-37223D01*
X37405Y-36933D01*
X37405Y-37075D01*
X37186Y-37294D01*
X37209Y-37385D01*
X37402Y-37452D01*
X37606Y-37441D01*
X37743Y-37385D01*
X37766Y-37294D01*
X37766Y-38125D01*
X35883Y-38125D01*
X35883Y-37038D01*
X35883Y-36829D01*
X35803Y-36636D01*
X35656Y-36488D01*
X35463Y-36408D01*
X35254Y-36408D01*
X35061Y-36488D01*
X34913Y-36635D01*
X34857Y-36768D01*
X34803Y-36636D01*
X34656Y-36488D01*
X34463Y-36408D01*
X34254Y-36408D01*
X34061Y-36488D01*
X33913Y-36635D01*
X33857Y-36768D01*
X33803Y-36636D01*
X33656Y-36488D01*
X33463Y-36408D01*
X33254Y-36408D01*
X33061Y-36488D01*
X32913Y-36635D01*
X32854Y-36775D01*
X32810Y-36666D01*
X32719Y-36643D01*
X32648Y-36714D01*
X32648Y-36572D01*
X32625Y-36481D01*
X32432Y-36414D01*
X32228Y-36425D01*
X32091Y-36481D01*
X32068Y-36572D01*
X32358Y-36862D01*
X32648Y-36572D01*
X32648Y-36714D01*
X32429Y-36933D01*
X32719Y-37223D01*
X32810Y-37200D01*
X32851Y-37081D01*
X32913Y-37230D01*
X33060Y-37378D01*
X33253Y-37458D01*
X33462Y-37458D01*
X33655Y-37378D01*
X33803Y-37231D01*
X33858Y-37097D01*
X33913Y-37230D01*
X34060Y-37378D01*
X34253Y-37458D01*
X34462Y-37458D01*
X34655Y-37378D01*
X34803Y-37231D01*
X34858Y-37097D01*
X34913Y-37230D01*
X35060Y-37378D01*
X35253Y-37458D01*
X35462Y-37458D01*
X35655Y-37378D01*
X35803Y-37231D01*
X35883Y-37038D01*
X35883Y-38125D01*
X32648Y-38125D01*
X32648Y-37294D01*
X32358Y-37004D01*
X32287Y-37075D01*
X32287Y-36933D01*
X31997Y-36643D01*
X31906Y-36666D01*
X31839Y-36859D01*
X31850Y-37063D01*
X31906Y-37200D01*
X31997Y-37223D01*
X32287Y-36933D01*
X32287Y-37075D01*
X32068Y-37294D01*
X32091Y-37385D01*
X32284Y-37452D01*
X32488Y-37441D01*
X32625Y-37385D01*
X32648Y-37294D01*
X32648Y-38125D01*
X32497Y-38125D01*
X30759Y-36387D01*
X30759Y-34007D01*
X30748Y-33803D01*
X30692Y-33666D01*
X30601Y-33643D01*
X30311Y-33933D01*
X30601Y-34223D01*
X30692Y-34200D01*
X30759Y-34007D01*
X30759Y-36387D01*
X30530Y-36158D01*
X30530Y-34294D01*
X30240Y-34004D01*
X29950Y-34294D01*
X29973Y-34385D01*
X30166Y-34452D01*
X30370Y-34441D01*
X30507Y-34385D01*
X30530Y-34294D01*
X30530Y-36158D01*
X29030Y-34658D01*
X29030Y-34414D01*
X29135Y-34458D01*
X29344Y-34458D01*
X29537Y-34378D01*
X29685Y-34231D01*
X29743Y-34090D01*
X29788Y-34200D01*
X29879Y-34223D01*
X30134Y-33968D01*
X30169Y-33933D01*
X30240Y-33862D01*
X30275Y-33827D01*
X30530Y-33572D01*
X30507Y-33481D01*
X30314Y-33414D01*
X30160Y-33422D01*
X31903Y-31680D01*
X32229Y-31680D01*
X32232Y-31687D01*
X32379Y-31835D01*
X32512Y-31890D01*
X32380Y-31945D01*
X32232Y-32092D01*
X32152Y-32285D01*
X32152Y-32494D01*
X32232Y-32687D01*
X32379Y-32835D01*
X32572Y-32915D01*
X32781Y-32915D01*
X32788Y-32911D01*
X33285Y-33408D01*
X33254Y-33408D01*
X33061Y-33488D01*
X32913Y-33635D01*
X32857Y-33768D01*
X32803Y-33636D01*
X32656Y-33488D01*
X32463Y-33408D01*
X32254Y-33408D01*
X32061Y-33488D01*
X31913Y-33635D01*
X31833Y-33828D01*
X31833Y-34037D01*
X31913Y-34230D01*
X32060Y-34378D01*
X32253Y-34458D01*
X32462Y-34458D01*
X32655Y-34378D01*
X32803Y-34231D01*
X32858Y-34097D01*
X32913Y-34230D01*
X33060Y-34378D01*
X33253Y-34458D01*
X33462Y-34458D01*
X33655Y-34378D01*
X33803Y-34231D01*
X33858Y-34097D01*
X33913Y-34230D01*
X34060Y-34378D01*
X34253Y-34458D01*
X34462Y-34458D01*
X34655Y-34378D01*
X34803Y-34231D01*
X34834Y-34156D01*
X34834Y-34257D01*
X34872Y-34349D01*
X34942Y-34419D01*
X35033Y-34457D01*
X35132Y-34457D01*
X35682Y-34457D01*
X35774Y-34419D01*
X35844Y-34349D01*
X35882Y-34258D01*
X35882Y-34159D01*
X35882Y-33609D01*
X35844Y-33517D01*
X35774Y-33447D01*
X35683Y-33409D01*
X35584Y-33409D01*
X35034Y-33409D01*
X34942Y-33447D01*
X34872Y-33517D01*
X34834Y-33608D01*
X34834Y-33707D01*
X34834Y-33710D01*
X34803Y-33636D01*
X34777Y-33609D01*
X34777Y-32495D01*
X34777Y-32286D01*
X34697Y-32093D01*
X34550Y-31945D01*
X34416Y-31889D01*
X34549Y-31835D01*
X34697Y-31688D01*
X34777Y-31495D01*
X34777Y-31286D01*
X34697Y-31093D01*
X34550Y-30945D01*
X34357Y-30865D01*
X34148Y-30865D01*
X33955Y-30945D01*
X33807Y-31092D01*
X33727Y-31285D01*
X33727Y-31494D01*
X33807Y-31687D01*
X33954Y-31835D01*
X34087Y-31890D01*
X33955Y-31945D01*
X33807Y-32092D01*
X33727Y-32285D01*
X33727Y-32494D01*
X33807Y-32687D01*
X33954Y-32835D01*
X34147Y-32915D01*
X34356Y-32915D01*
X34549Y-32835D01*
X34697Y-32688D01*
X34777Y-32495D01*
X34777Y-33609D01*
X34656Y-33488D01*
X34463Y-33408D01*
X34254Y-33408D01*
X34148Y-33451D01*
X33199Y-32502D01*
X33202Y-32495D01*
X33202Y-32286D01*
X33122Y-32093D01*
X32975Y-31945D01*
X32841Y-31889D01*
X32974Y-31835D01*
X33122Y-31688D01*
X33202Y-31495D01*
X33202Y-31286D01*
X33122Y-31093D01*
X32975Y-30945D01*
X32967Y-30941D01*
X32967Y-30831D01*
X34064Y-29734D01*
X36934Y-29734D01*
X37045Y-29712D01*
X37139Y-29649D01*
X37161Y-29627D01*
X37224Y-29533D01*
X37233Y-29483D01*
X37391Y-29549D01*
X37609Y-29549D01*
X37630Y-29540D01*
X44121Y-36031D01*
X44122Y-36032D01*
X44215Y-36094D01*
X44216Y-36095D01*
X44326Y-36116D01*
X44327Y-36117D01*
X44801Y-36117D01*
X44801Y-36176D01*
X44839Y-36268D01*
X44909Y-36338D01*
X45000Y-36376D01*
X45099Y-36376D01*
X45699Y-36376D01*
X45791Y-36338D01*
X45861Y-36268D01*
X45899Y-36177D01*
X45899Y-36152D01*
X46039Y-36292D01*
X46241Y-36376D01*
X46459Y-36376D01*
X46661Y-36292D01*
X46815Y-36138D01*
X46850Y-36053D01*
X46885Y-36138D01*
X47039Y-36292D01*
X47241Y-36376D01*
X47459Y-36376D01*
X47661Y-36292D01*
X47815Y-36138D01*
X47850Y-36053D01*
X47885Y-36138D01*
X48039Y-36292D01*
X48241Y-36376D01*
X48459Y-36376D01*
X48661Y-36292D01*
X48815Y-36138D01*
X48899Y-35936D01*
X48899Y-35718D01*
X48815Y-35516D01*
X48661Y-35362D01*
X48459Y-35278D01*
X48241Y-35278D01*
X48219Y-35286D01*
X47140Y-34207D01*
X47140Y-32790D01*
X47241Y-32832D01*
X47459Y-32832D01*
X47661Y-32748D01*
X47815Y-32594D01*
X47850Y-32509D01*
X47885Y-32594D01*
X48039Y-32748D01*
X48241Y-32832D01*
X48459Y-32832D01*
X48661Y-32748D01*
X48815Y-32594D01*
X48858Y-32490D01*
X49951Y-33583D01*
X49952Y-33583D01*
X50014Y-33624D01*
X50045Y-33645D01*
X50046Y-33646D01*
X50156Y-33667D01*
X50157Y-33668D01*
X52156Y-33668D01*
X52149Y-33694D01*
X52196Y-33781D01*
X52731Y-33781D01*
X52781Y-33781D01*
X52881Y-33781D01*
X52931Y-33781D01*
X53466Y-33781D01*
X53513Y-33694D01*
X53505Y-33668D01*
X55151Y-33668D01*
X55129Y-33722D01*
X55129Y-33940D01*
X55213Y-34142D01*
X55367Y-34296D01*
X55569Y-34380D01*
X55787Y-34380D01*
X56093Y-34380D01*
X56295Y-34296D01*
X56449Y-34142D01*
X56533Y-33940D01*
X56533Y-33722D01*
X56449Y-33520D01*
X56295Y-33366D01*
X56210Y-33331D01*
X56295Y-33296D01*
X56449Y-33142D01*
X56533Y-32940D01*
X56533Y-32722D01*
X56449Y-32520D01*
X56295Y-32366D01*
X56210Y-32331D01*
X56295Y-32296D01*
X56449Y-32142D01*
X56533Y-31940D01*
X56533Y-31722D01*
X56449Y-31520D01*
X56295Y-31366D01*
X56210Y-31331D01*
X56295Y-31296D01*
X56449Y-31142D01*
X56533Y-30940D01*
X56533Y-30722D01*
X56449Y-30520D01*
X56438Y-30509D01*
X56638Y-30310D01*
X56701Y-30216D01*
X56723Y-30105D01*
X56723Y-16933D01*
X56722Y-16932D01*
X56701Y-16822D01*
X56700Y-16821D01*
X56679Y-16790D01*
X56638Y-16728D01*
X56638Y-16727D01*
X54540Y-14630D01*
X54549Y-14609D01*
X54549Y-14391D01*
X54549Y-13509D01*
X54549Y-13291D01*
X54465Y-13089D01*
X54311Y-12935D01*
X54109Y-12851D01*
X53891Y-12851D01*
X53689Y-12935D01*
X53549Y-13074D01*
X53550Y-12962D01*
X53550Y-12738D01*
X53549Y-12501D01*
X53511Y-12409D01*
X53441Y-12339D01*
X53350Y-12301D01*
X53251Y-12301D01*
X53112Y-12300D01*
X53050Y-12362D01*
X53050Y-12800D01*
X53488Y-12800D01*
X53550Y-12738D01*
X53550Y-12962D01*
X53488Y-12900D01*
X53050Y-12900D01*
X53050Y-13338D01*
X53112Y-13400D01*
X53251Y-13399D01*
X53350Y-13399D01*
X53441Y-13361D01*
X53451Y-13351D01*
X53451Y-13509D01*
X53535Y-13711D01*
X53689Y-13865D01*
X53891Y-13949D01*
X54109Y-13949D01*
X54311Y-13865D01*
X54465Y-13711D01*
X54549Y-13509D01*
X54549Y-14391D01*
X54465Y-14189D01*
X54311Y-14035D01*
X54109Y-13951D01*
X53891Y-13951D01*
X53689Y-14035D01*
X53535Y-14189D01*
X53451Y-14391D01*
X53451Y-14609D01*
X53535Y-14811D01*
X53689Y-14965D01*
X53833Y-15025D01*
X53689Y-15085D01*
X53549Y-15225D01*
X53549Y-15109D01*
X53549Y-14891D01*
X53465Y-14689D01*
X53311Y-14535D01*
X53166Y-14475D01*
X53311Y-14415D01*
X53465Y-14261D01*
X53549Y-14059D01*
X53549Y-13841D01*
X53465Y-13639D01*
X53311Y-13485D01*
X53109Y-13401D01*
X52950Y-13401D01*
X52950Y-13338D01*
X52950Y-12900D01*
X52950Y-12800D01*
X52950Y-12362D01*
X52888Y-12300D01*
X52749Y-12301D01*
X52650Y-12301D01*
X52559Y-12339D01*
X52489Y-12409D01*
X52451Y-12501D01*
X52450Y-12738D01*
X52512Y-12800D01*
X52950Y-12800D01*
X52950Y-12900D01*
X52512Y-12900D01*
X52450Y-12962D01*
X52451Y-13199D01*
X52489Y-13291D01*
X52559Y-13361D01*
X52650Y-13399D01*
X52749Y-13399D01*
X52888Y-13400D01*
X52950Y-13338D01*
X52950Y-13401D01*
X52891Y-13401D01*
X52689Y-13485D01*
X52535Y-13639D01*
X52451Y-13841D01*
X52451Y-14059D01*
X52535Y-14261D01*
X52689Y-14415D01*
X52833Y-14475D01*
X52689Y-14535D01*
X52535Y-14689D01*
X52451Y-14891D01*
X52451Y-15109D01*
X52535Y-15311D01*
X52689Y-15465D01*
X52891Y-15549D01*
X53109Y-15549D01*
X53311Y-15465D01*
X53465Y-15311D01*
X53549Y-15109D01*
X53549Y-15225D01*
X53535Y-15239D01*
X53451Y-15441D01*
X53451Y-15659D01*
X53535Y-15861D01*
X53689Y-16015D01*
X53891Y-16099D01*
X54109Y-16099D01*
X54311Y-16015D01*
X54465Y-15861D01*
X54549Y-15659D01*
X54549Y-15459D01*
X56143Y-17053D01*
X56143Y-24302D01*
X56102Y-24286D01*
X56099Y-24267D01*
X56036Y-24173D01*
X55000Y-23137D01*
X55000Y-20250D01*
X55000Y-19852D01*
X54848Y-19484D01*
X54567Y-19203D01*
X54549Y-19195D01*
X54549Y-16759D01*
X54549Y-16541D01*
X54465Y-16339D01*
X54311Y-16185D01*
X54109Y-16101D01*
X53891Y-16101D01*
X53689Y-16185D01*
X53549Y-16325D01*
X53549Y-16209D01*
X53549Y-15991D01*
X53465Y-15789D01*
X53311Y-15635D01*
X53109Y-15551D01*
X52891Y-15551D01*
X52689Y-15635D01*
X52535Y-15789D01*
X52451Y-15991D01*
X52451Y-16209D01*
X52535Y-16411D01*
X52689Y-16565D01*
X52891Y-16649D01*
X53109Y-16649D01*
X53311Y-16565D01*
X53465Y-16411D01*
X53549Y-16209D01*
X53549Y-16325D01*
X53535Y-16339D01*
X53451Y-16541D01*
X53451Y-16759D01*
X53535Y-16961D01*
X53689Y-17115D01*
X53891Y-17199D01*
X54109Y-17199D01*
X54311Y-17115D01*
X54465Y-16961D01*
X54549Y-16759D01*
X54549Y-19195D01*
X54200Y-19050D01*
X53802Y-19050D01*
X53549Y-19154D01*
X53549Y-17309D01*
X53549Y-17091D01*
X53465Y-16889D01*
X53311Y-16735D01*
X53109Y-16651D01*
X52891Y-16651D01*
X52689Y-16735D01*
X52535Y-16889D01*
X52451Y-17091D01*
X52451Y-17309D01*
X52535Y-17511D01*
X52689Y-17665D01*
X52891Y-17749D01*
X53109Y-17749D01*
X53311Y-17665D01*
X53465Y-17511D01*
X53549Y-17309D01*
X53549Y-19154D01*
X53434Y-19202D01*
X53153Y-19483D01*
X53000Y-19850D01*
X53000Y-20248D01*
X53152Y-20616D01*
X53433Y-20897D01*
X53800Y-21050D01*
X54198Y-21050D01*
X54566Y-20898D01*
X54847Y-20617D01*
X55000Y-20250D01*
X55000Y-23137D01*
X51471Y-19608D01*
X51471Y-16908D01*
X51478Y-16906D01*
X51626Y-16759D01*
X51706Y-16566D01*
X51706Y-16357D01*
X51626Y-16164D01*
X51479Y-16016D01*
X51286Y-15936D01*
X51077Y-15936D01*
X50884Y-16016D01*
X50736Y-16163D01*
X50656Y-16356D01*
X50656Y-16565D01*
X50736Y-16758D01*
X50883Y-16906D01*
X50891Y-16909D01*
X50891Y-19728D01*
X50913Y-19839D01*
X50976Y-19933D01*
X55396Y-24353D01*
X55367Y-24366D01*
X55213Y-24520D01*
X55129Y-24722D01*
X55129Y-24940D01*
X55213Y-25142D01*
X55367Y-25296D01*
X55451Y-25331D01*
X55367Y-25366D01*
X55213Y-25520D01*
X55129Y-25722D01*
X55129Y-25940D01*
X55213Y-26142D01*
X55367Y-26296D01*
X55451Y-26331D01*
X55367Y-26366D01*
X55213Y-26520D01*
X55129Y-26719D01*
X53530Y-25120D01*
X53530Y-25092D01*
X53530Y-24472D01*
X53492Y-24380D01*
X53422Y-24310D01*
X53331Y-24272D01*
X53232Y-24272D01*
X53099Y-24272D01*
X53099Y-24267D01*
X53098Y-24266D01*
X53077Y-24235D01*
X53036Y-24173D01*
X53036Y-24172D01*
X50661Y-21798D01*
X50567Y-21735D01*
X50456Y-21713D01*
X46030Y-21713D01*
X46030Y-20387D01*
X46030Y-19969D01*
X45870Y-19583D01*
X45575Y-19287D01*
X45190Y-19127D01*
X44772Y-19127D01*
X44386Y-19287D01*
X44090Y-19582D01*
X43930Y-19967D01*
X43930Y-20385D01*
X44090Y-20771D01*
X44385Y-21067D01*
X44770Y-21227D01*
X45188Y-21227D01*
X45574Y-21067D01*
X45870Y-20772D01*
X46030Y-20387D01*
X46030Y-21713D01*
X36497Y-21713D01*
X36386Y-21735D01*
X36292Y-21798D01*
X36291Y-21798D01*
X36291Y-21799D01*
X35630Y-22459D01*
X35609Y-22451D01*
X35391Y-22451D01*
X35290Y-22493D01*
X35290Y-22472D01*
X41472Y-16290D01*
X41573Y-16290D01*
X41582Y-16311D01*
X41736Y-16465D01*
X41938Y-16549D01*
X42156Y-16549D01*
X42358Y-16465D01*
X42512Y-16311D01*
X42596Y-16109D01*
X42596Y-15891D01*
X42512Y-15689D01*
X42358Y-15535D01*
X42156Y-15451D01*
X41938Y-15451D01*
X41736Y-15535D01*
X41582Y-15689D01*
X41573Y-15710D01*
X41352Y-15710D01*
X41241Y-15732D01*
X41147Y-15795D01*
X34795Y-22147D01*
X34732Y-22241D01*
X34710Y-22352D01*
X34710Y-22493D01*
X34609Y-22451D01*
X34391Y-22451D01*
X34189Y-22535D01*
X34035Y-22689D01*
X34000Y-22773D01*
X33965Y-22689D01*
X33811Y-22535D01*
X33609Y-22451D01*
X33515Y-22451D01*
X39072Y-16894D01*
X39135Y-16800D01*
X39157Y-16689D01*
X39157Y-15472D01*
X39190Y-15486D01*
X39399Y-15486D01*
X39592Y-15406D01*
X39715Y-15283D01*
X46826Y-15283D01*
X47412Y-15869D01*
X47404Y-15891D01*
X47404Y-16109D01*
X47488Y-16311D01*
X47642Y-16465D01*
X47844Y-16549D01*
X48062Y-16549D01*
X48264Y-16465D01*
X48418Y-16311D01*
X48502Y-16109D01*
X48502Y-15891D01*
X48418Y-15689D01*
X48264Y-15535D01*
X48062Y-15451D01*
X47844Y-15451D01*
X47822Y-15459D01*
X47151Y-14788D01*
X47057Y-14725D01*
X46946Y-14703D01*
X45034Y-14703D01*
X45558Y-14178D01*
X45580Y-14187D01*
X45798Y-14187D01*
X46000Y-14103D01*
X46154Y-13949D01*
X46238Y-13747D01*
X46238Y-13529D01*
X46229Y-13507D01*
X47186Y-12551D01*
X47496Y-12551D01*
X47441Y-12574D01*
X47088Y-12927D01*
X46897Y-13387D01*
X46896Y-13886D01*
X47086Y-14347D01*
X47439Y-14700D01*
X47899Y-14891D01*
X48398Y-14892D01*
X48859Y-14702D01*
X49212Y-14349D01*
X49403Y-13889D01*
X49404Y-13390D01*
X49214Y-12929D01*
X48861Y-12576D01*
X48800Y-12551D01*
X49861Y-12551D01*
X50658Y-13348D01*
X50656Y-13356D01*
X50656Y-13565D01*
X50736Y-13758D01*
X50883Y-13906D01*
X51076Y-13986D01*
X51285Y-13986D01*
X51478Y-13906D01*
X51626Y-13759D01*
X51706Y-13566D01*
X51706Y-13357D01*
X51626Y-13164D01*
X51479Y-13016D01*
X51286Y-12936D01*
X51077Y-12936D01*
X51069Y-12939D01*
X50186Y-12056D01*
X50092Y-11993D01*
X49981Y-11971D01*
X48496Y-11971D01*
X48496Y-11355D01*
X48485Y-11142D01*
X48425Y-10995D01*
X48331Y-10968D01*
X48261Y-11038D01*
X48261Y-10898D01*
X48234Y-10804D01*
X48032Y-10733D01*
X47819Y-10744D01*
X47672Y-10804D01*
X47645Y-10898D01*
X47953Y-11205D01*
X48261Y-10898D01*
X48261Y-11038D01*
X48024Y-11276D01*
X48331Y-11584D01*
X48425Y-11557D01*
X48496Y-11355D01*
X48496Y-11971D01*
X48261Y-11971D01*
X48261Y-11654D01*
X47953Y-11347D01*
X47882Y-11417D01*
X47882Y-11276D01*
X47575Y-10968D01*
X47481Y-10995D01*
X47410Y-11197D01*
X47421Y-11410D01*
X47481Y-11557D01*
X47575Y-11584D01*
X47882Y-11276D01*
X47882Y-11417D01*
X47645Y-11654D01*
X47672Y-11748D01*
X47874Y-11819D01*
X48087Y-11808D01*
X48234Y-11748D01*
X48261Y-11654D01*
X48261Y-11971D01*
X47066Y-11971D01*
X46955Y-11993D01*
X46861Y-12056D01*
X45939Y-12977D01*
X45939Y-12053D01*
X45939Y-11680D01*
X45796Y-11335D01*
X45532Y-11071D01*
X45187Y-10927D01*
X44814Y-10927D01*
X44469Y-11070D01*
X44205Y-11334D01*
X44061Y-11679D01*
X44061Y-12052D01*
X44204Y-12397D01*
X44468Y-12661D01*
X44813Y-12805D01*
X45186Y-12805D01*
X45531Y-12662D01*
X45795Y-12398D01*
X45939Y-12053D01*
X45939Y-12977D01*
X45819Y-13097D01*
X45798Y-13089D01*
X45580Y-13089D01*
X45378Y-13173D01*
X45224Y-13327D01*
X45140Y-13529D01*
X45140Y-13747D01*
X45148Y-13768D01*
X44854Y-14062D01*
X44854Y-13717D01*
X44843Y-13504D01*
X44783Y-13357D01*
X44689Y-13330D01*
X44619Y-13400D01*
X44619Y-13260D01*
X44592Y-13166D01*
X44390Y-13095D01*
X44177Y-13106D01*
X44030Y-13166D01*
X44003Y-13260D01*
X44311Y-13567D01*
X44619Y-13260D01*
X44619Y-13400D01*
X44382Y-13638D01*
X44689Y-13946D01*
X44783Y-13919D01*
X44854Y-13717D01*
X44854Y-14062D01*
X44619Y-14297D01*
X44619Y-14016D01*
X44311Y-13709D01*
X44240Y-13779D01*
X44240Y-13638D01*
X43933Y-13330D01*
X43839Y-13357D01*
X43768Y-13559D01*
X43779Y-13772D01*
X43839Y-13919D01*
X43933Y-13946D01*
X44240Y-13638D01*
X44240Y-13779D01*
X44003Y-14016D01*
X44030Y-14110D01*
X44232Y-14181D01*
X44445Y-14170D01*
X44592Y-14110D01*
X44619Y-14016D01*
X44619Y-14297D01*
X44421Y-14496D01*
X42765Y-14496D01*
X42912Y-14349D01*
X43103Y-13889D01*
X43104Y-13390D01*
X42914Y-12929D01*
X42596Y-12611D01*
X42596Y-11385D01*
X42596Y-11167D01*
X42512Y-10965D01*
X42358Y-10811D01*
X42156Y-10727D01*
X41938Y-10727D01*
X41736Y-10811D01*
X41582Y-10965D01*
X41498Y-11167D01*
X41498Y-11385D01*
X41582Y-11587D01*
X41736Y-11741D01*
X41938Y-11825D01*
X42156Y-11825D01*
X42358Y-11741D01*
X42512Y-11587D01*
X42596Y-11385D01*
X42596Y-12611D01*
X42561Y-12576D01*
X42101Y-12385D01*
X41602Y-12384D01*
X41141Y-12574D01*
X40788Y-12927D01*
X40597Y-13387D01*
X40596Y-13886D01*
X40786Y-14347D01*
X40935Y-14496D01*
X40620Y-14496D01*
X40461Y-14337D01*
X40367Y-14274D01*
X40256Y-14252D01*
X39820Y-14252D01*
X39820Y-13491D01*
X39820Y-13282D01*
X39740Y-13089D01*
X39593Y-12941D01*
X39400Y-12861D01*
X39191Y-12861D01*
X38998Y-12941D01*
X38850Y-13088D01*
X38770Y-13281D01*
X38770Y-13490D01*
X38850Y-13683D01*
X38997Y-13831D01*
X39190Y-13911D01*
X39399Y-13911D01*
X39592Y-13831D01*
X39740Y-13684D01*
X39820Y-13491D01*
X39820Y-14252D01*
X38889Y-14252D01*
X38778Y-14274D01*
X38684Y-14337D01*
X38662Y-14359D01*
X38599Y-14453D01*
X38577Y-14564D01*
X38577Y-16569D01*
X38043Y-17102D01*
X38043Y-11079D01*
X38032Y-10866D01*
X37972Y-10719D01*
X37878Y-10692D01*
X37808Y-10762D01*
X37808Y-10622D01*
X37781Y-10528D01*
X37579Y-10457D01*
X37366Y-10468D01*
X37219Y-10528D01*
X37192Y-10622D01*
X37500Y-10929D01*
X37808Y-10622D01*
X37808Y-10762D01*
X37571Y-11000D01*
X37878Y-11308D01*
X37972Y-11281D01*
X38043Y-11079D01*
X38043Y-17102D01*
X38015Y-17130D01*
X37980Y-17042D01*
X37886Y-17015D01*
X37816Y-17085D01*
X37816Y-16945D01*
X37808Y-16917D01*
X37808Y-11378D01*
X37500Y-11071D01*
X37429Y-11141D01*
X37429Y-11000D01*
X37122Y-10692D01*
X37049Y-10712D01*
X37049Y-10651D01*
X37011Y-10559D01*
X36941Y-10489D01*
X36850Y-10451D01*
X36751Y-10451D01*
X36151Y-10451D01*
X36059Y-10489D01*
X35989Y-10559D01*
X35951Y-10650D01*
X35951Y-10749D01*
X35951Y-11349D01*
X35989Y-11441D01*
X36059Y-11511D01*
X36150Y-11549D01*
X36249Y-11549D01*
X36849Y-11549D01*
X36941Y-11511D01*
X37011Y-11441D01*
X37049Y-11350D01*
X37049Y-11287D01*
X37122Y-11308D01*
X37429Y-11000D01*
X37429Y-11141D01*
X37192Y-11378D01*
X37219Y-11472D01*
X37421Y-11543D01*
X37634Y-11532D01*
X37781Y-11472D01*
X37808Y-11378D01*
X37808Y-16917D01*
X37789Y-16851D01*
X37587Y-16780D01*
X37374Y-16791D01*
X37227Y-16851D01*
X37200Y-16945D01*
X37508Y-17252D01*
X37816Y-16945D01*
X37816Y-17085D01*
X37579Y-17323D01*
X37508Y-17394D01*
X37437Y-17464D01*
X37437Y-17323D01*
X37130Y-17015D01*
X37057Y-17035D01*
X37057Y-16974D01*
X37019Y-16882D01*
X36949Y-16812D01*
X36858Y-16774D01*
X36820Y-16774D01*
X36820Y-15066D01*
X36820Y-14857D01*
X36820Y-13491D01*
X36820Y-13282D01*
X36740Y-13089D01*
X36593Y-12941D01*
X36400Y-12861D01*
X36191Y-12861D01*
X35998Y-12941D01*
X35850Y-13088D01*
X35770Y-13281D01*
X35770Y-13490D01*
X35850Y-13683D01*
X35997Y-13831D01*
X36190Y-13911D01*
X36399Y-13911D01*
X36592Y-13831D01*
X36740Y-13684D01*
X36820Y-13491D01*
X36820Y-14857D01*
X36740Y-14664D01*
X36593Y-14516D01*
X36400Y-14436D01*
X36191Y-14436D01*
X35998Y-14516D01*
X35850Y-14663D01*
X35770Y-14856D01*
X35770Y-15065D01*
X35850Y-15258D01*
X35997Y-15406D01*
X36190Y-15486D01*
X36399Y-15486D01*
X36592Y-15406D01*
X36740Y-15259D01*
X36820Y-15066D01*
X36820Y-16774D01*
X36759Y-16774D01*
X36159Y-16774D01*
X36067Y-16812D01*
X35997Y-16882D01*
X35959Y-16973D01*
X35959Y-17072D01*
X35959Y-17672D01*
X35997Y-17764D01*
X36067Y-17834D01*
X36158Y-17872D01*
X36257Y-17872D01*
X36857Y-17872D01*
X36949Y-17834D01*
X37019Y-17764D01*
X37057Y-17673D01*
X37057Y-17610D01*
X37130Y-17631D01*
X37437Y-17323D01*
X37437Y-17464D01*
X37200Y-17701D01*
X37227Y-17795D01*
X37318Y-17827D01*
X34908Y-20237D01*
X34908Y-12316D01*
X34908Y-11898D01*
X34748Y-11512D01*
X34453Y-11216D01*
X34068Y-11056D01*
X33650Y-11056D01*
X33264Y-11216D01*
X32968Y-11511D01*
X32808Y-11896D01*
X32808Y-12314D01*
X32968Y-12700D01*
X33263Y-12996D01*
X33648Y-13156D01*
X34066Y-13156D01*
X34452Y-12996D01*
X34748Y-12701D01*
X34908Y-12316D01*
X34908Y-20237D01*
X32795Y-22351D01*
X32732Y-22445D01*
X32721Y-22497D01*
X32609Y-22451D01*
X32391Y-22451D01*
X32189Y-22535D01*
X32035Y-22689D01*
X32000Y-22773D01*
X31965Y-22689D01*
X31811Y-22535D01*
X31609Y-22451D01*
X31391Y-22451D01*
X31189Y-22535D01*
X31035Y-22689D01*
X31000Y-22773D01*
X30965Y-22689D01*
X30811Y-22535D01*
X30609Y-22451D01*
X30391Y-22451D01*
X30189Y-22535D01*
X30035Y-22689D01*
X30000Y-22773D01*
X29965Y-22689D01*
X29811Y-22535D01*
X29609Y-22451D01*
X29391Y-22451D01*
X29189Y-22535D01*
X29035Y-22689D01*
X29000Y-22773D01*
X28965Y-22689D01*
X28811Y-22535D01*
X28609Y-22451D01*
X28391Y-22451D01*
X28189Y-22535D01*
X28035Y-22689D01*
X28000Y-22773D01*
X27965Y-22689D01*
X27811Y-22535D01*
X27609Y-22451D01*
X27391Y-22451D01*
X27189Y-22535D01*
X27035Y-22689D01*
X27000Y-22773D01*
X26965Y-22689D01*
X26811Y-22535D01*
X26609Y-22451D01*
X26391Y-22451D01*
X26189Y-22535D01*
X26035Y-22689D01*
X26000Y-22773D01*
X25965Y-22689D01*
X25811Y-22535D01*
X25609Y-22451D01*
X25459Y-22451D01*
X28201Y-19709D01*
X28264Y-19615D01*
X28286Y-19504D01*
X28286Y-19502D01*
X28377Y-19540D01*
X28615Y-19540D01*
X28835Y-19449D01*
X28996Y-19288D01*
X29157Y-19449D01*
X29377Y-19540D01*
X29615Y-19540D01*
X29835Y-19449D01*
X29996Y-19288D01*
X30157Y-19449D01*
X30377Y-19540D01*
X30615Y-19540D01*
X30835Y-19449D01*
X30996Y-19288D01*
X31157Y-19449D01*
X31377Y-19540D01*
X31615Y-19540D01*
X31835Y-19449D01*
X31996Y-19288D01*
X32157Y-19449D01*
X32377Y-19540D01*
X32615Y-19540D01*
X32835Y-19449D01*
X33004Y-19280D01*
X33095Y-19060D01*
X33095Y-18822D01*
X33089Y-18807D01*
X33089Y-16032D01*
X33078Y-15797D01*
X33009Y-15631D01*
X32910Y-15598D01*
X32839Y-15669D01*
X32839Y-15527D01*
X32806Y-15428D01*
X32587Y-15348D01*
X32352Y-15359D01*
X32186Y-15428D01*
X32153Y-15527D01*
X32496Y-15870D01*
X32839Y-15527D01*
X32839Y-15669D01*
X32567Y-15941D01*
X32910Y-16284D01*
X33009Y-16251D01*
X33089Y-16032D01*
X33089Y-18807D01*
X33004Y-18602D01*
X32839Y-18437D01*
X32839Y-16355D01*
X32496Y-16012D01*
X32425Y-16083D01*
X32425Y-15941D01*
X32082Y-15598D01*
X32021Y-15617D01*
X32021Y-12597D01*
X32021Y-12388D01*
X31941Y-12195D01*
X31794Y-12047D01*
X31601Y-11967D01*
X31392Y-11967D01*
X31199Y-12047D01*
X31051Y-12194D01*
X30971Y-12387D01*
X30971Y-12596D01*
X31051Y-12789D01*
X31198Y-12937D01*
X31338Y-12995D01*
X31229Y-13040D01*
X31206Y-13131D01*
X31496Y-13421D01*
X31786Y-13131D01*
X31763Y-13040D01*
X31644Y-12998D01*
X31793Y-12937D01*
X31941Y-12790D01*
X32021Y-12597D01*
X32021Y-15617D01*
X32015Y-15619D01*
X32015Y-13566D01*
X32004Y-13362D01*
X31948Y-13225D01*
X31857Y-13202D01*
X31567Y-13492D01*
X31857Y-13782D01*
X31948Y-13759D01*
X32015Y-13566D01*
X32015Y-15619D01*
X31996Y-15626D01*
X31910Y-15598D01*
X31839Y-15669D01*
X31839Y-15527D01*
X31806Y-15428D01*
X31786Y-15420D01*
X31786Y-13853D01*
X31496Y-13563D01*
X31425Y-13634D01*
X31425Y-13492D01*
X31135Y-13202D01*
X31044Y-13225D01*
X30977Y-13418D01*
X30988Y-13622D01*
X31044Y-13759D01*
X31135Y-13782D01*
X31425Y-13492D01*
X31425Y-13634D01*
X31206Y-13853D01*
X31229Y-13944D01*
X31422Y-14011D01*
X31626Y-14000D01*
X31763Y-13944D01*
X31786Y-13853D01*
X31786Y-15420D01*
X31587Y-15348D01*
X31352Y-15359D01*
X31186Y-15428D01*
X31153Y-15527D01*
X31496Y-15870D01*
X31839Y-15527D01*
X31839Y-15669D01*
X31567Y-15941D01*
X31910Y-16284D01*
X31996Y-16255D01*
X32082Y-16284D01*
X32425Y-15941D01*
X32425Y-16083D01*
X32153Y-16355D01*
X32186Y-16454D01*
X32405Y-16534D01*
X32640Y-16523D01*
X32806Y-16454D01*
X32839Y-16355D01*
X32839Y-18437D01*
X32835Y-18433D01*
X32615Y-18342D01*
X32377Y-18342D01*
X32157Y-18433D01*
X31996Y-18594D01*
X31839Y-18437D01*
X31839Y-16355D01*
X31496Y-16012D01*
X31425Y-16083D01*
X31425Y-15941D01*
X31082Y-15598D01*
X30996Y-15626D01*
X30910Y-15598D01*
X30839Y-15669D01*
X30839Y-15527D01*
X30806Y-15428D01*
X30587Y-15348D01*
X30352Y-15359D01*
X30186Y-15428D01*
X30153Y-15527D01*
X30496Y-15870D01*
X30839Y-15527D01*
X30839Y-15669D01*
X30567Y-15941D01*
X30910Y-16284D01*
X30996Y-16255D01*
X31082Y-16284D01*
X31425Y-15941D01*
X31425Y-16083D01*
X31153Y-16355D01*
X31186Y-16454D01*
X31405Y-16534D01*
X31640Y-16523D01*
X31806Y-16454D01*
X31839Y-16355D01*
X31839Y-18437D01*
X31835Y-18433D01*
X31615Y-18342D01*
X31377Y-18342D01*
X31157Y-18433D01*
X30996Y-18594D01*
X30839Y-18437D01*
X30839Y-16355D01*
X30496Y-16012D01*
X30425Y-16083D01*
X30425Y-15941D01*
X30082Y-15598D01*
X29996Y-15626D01*
X29910Y-15598D01*
X29839Y-15669D01*
X29839Y-15527D01*
X29806Y-15428D01*
X29587Y-15348D01*
X29352Y-15359D01*
X29186Y-15428D01*
X29153Y-15527D01*
X29496Y-15870D01*
X29839Y-15527D01*
X29839Y-15669D01*
X29567Y-15941D01*
X29910Y-16284D01*
X29996Y-16255D01*
X30082Y-16284D01*
X30425Y-15941D01*
X30425Y-16083D01*
X30153Y-16355D01*
X30186Y-16454D01*
X30405Y-16534D01*
X30640Y-16523D01*
X30806Y-16454D01*
X30839Y-16355D01*
X30839Y-18437D01*
X30835Y-18433D01*
X30615Y-18342D01*
X30377Y-18342D01*
X30157Y-18433D01*
X29996Y-18594D01*
X29839Y-18437D01*
X29839Y-16355D01*
X29496Y-16012D01*
X29425Y-16083D01*
X29425Y-15941D01*
X29082Y-15598D01*
X28996Y-15626D01*
X28910Y-15598D01*
X28567Y-15941D01*
X28910Y-16284D01*
X28996Y-16255D01*
X29082Y-16284D01*
X29425Y-15941D01*
X29425Y-16083D01*
X29153Y-16355D01*
X29186Y-16454D01*
X29405Y-16534D01*
X29640Y-16523D01*
X29806Y-16454D01*
X29839Y-16355D01*
X29839Y-18437D01*
X29835Y-18433D01*
X29615Y-18342D01*
X29377Y-18342D01*
X29157Y-18433D01*
X28996Y-18594D01*
X28835Y-18433D01*
X28615Y-18342D01*
X28377Y-18342D01*
X28286Y-18379D01*
X28286Y-16490D01*
X28405Y-16534D01*
X28640Y-16523D01*
X28806Y-16454D01*
X28839Y-16355D01*
X28531Y-16047D01*
X28496Y-16012D01*
X28425Y-15941D01*
X28496Y-15870D01*
X28531Y-15835D01*
X28839Y-15527D01*
X28806Y-15428D01*
X28587Y-15348D01*
X28352Y-15359D01*
X28286Y-15386D01*
X28286Y-15179D01*
X29453Y-14012D01*
X29516Y-13918D01*
X29537Y-13807D01*
X29538Y-13807D01*
X29538Y-11711D01*
X30916Y-10333D01*
X30916Y-10458D01*
X31004Y-10671D01*
X31167Y-10834D01*
X31380Y-10923D01*
X31611Y-10923D01*
X31824Y-10835D01*
X31987Y-10672D01*
X32076Y-10459D01*
X32076Y-10228D01*
X31988Y-10015D01*
X31825Y-09852D01*
X31804Y-09843D01*
X31824Y-09835D01*
X31987Y-09672D01*
X32059Y-09499D01*
X53146Y-09499D01*
X53000Y-09850D01*
X53000Y-10248D01*
X53152Y-10616D01*
X53433Y-10897D01*
X53800Y-11050D01*
X54198Y-11050D01*
X54566Y-10898D01*
X54847Y-10617D01*
X55000Y-10250D01*
X55000Y-09852D01*
X54854Y-09499D01*
X59005Y-09499D01*
X59005Y-45226D01*
M02*
