G04 (created by PCBNEW-RS274X (2012-apr-16-27)-stable) date Thu 28 Nov 2013 00:51:53 GMT*
G01*
G70*
G90*
%MOIN*%
G04 Gerber Fmt 3.4, Leading zero omitted, Abs format*
%FSLAX34Y34*%
G04 APERTURE LIST*
%ADD10C,0.006000*%
%ADD11C,0.015000*%
%ADD12C,0.008000*%
%ADD13C,0.010000*%
%ADD14C,0.012000*%
%ADD15C,0.003500*%
%ADD16C,0.011300*%
G04 APERTURE END LIST*
G54D10*
G54D11*
X23228Y-46850D02*
X23228Y-45276D01*
X59843Y-46850D02*
X23228Y-46850D01*
X59843Y-45669D02*
X59843Y-46850D01*
X59843Y-08661D02*
X59843Y-45669D01*
X23228Y-08661D02*
X59843Y-08661D01*
X23228Y-45276D02*
X23228Y-08661D01*
G54D12*
X36295Y-13386D02*
X36495Y-13386D01*
X39295Y-13386D02*
X39095Y-13386D01*
X39095Y-13386D02*
X39095Y-12986D01*
X39095Y-12986D02*
X36495Y-12986D01*
X36495Y-12986D02*
X36495Y-13786D01*
X36495Y-13786D02*
X39095Y-13786D01*
X39095Y-13786D02*
X39095Y-13386D01*
X36495Y-13186D02*
X36695Y-12986D01*
X36295Y-14961D02*
X36495Y-14961D01*
X39295Y-14961D02*
X39095Y-14961D01*
X39095Y-14961D02*
X39095Y-14561D01*
X39095Y-14561D02*
X36495Y-14561D01*
X36495Y-14561D02*
X36495Y-15361D01*
X36495Y-15361D02*
X39095Y-15361D01*
X39095Y-15361D02*
X39095Y-14961D01*
X36495Y-14761D02*
X36695Y-14561D01*
G54D13*
X48850Y-32783D02*
X44850Y-32783D01*
X48850Y-31783D02*
X44850Y-31783D01*
X44850Y-31783D02*
X44850Y-32783D01*
X48850Y-32783D02*
X48850Y-31783D01*
G54D10*
X40969Y-43791D02*
X40969Y-44791D01*
X40969Y-44791D02*
X37969Y-44791D01*
X37969Y-44791D02*
X37969Y-43791D01*
X37969Y-43791D02*
X40969Y-43791D01*
X39969Y-44791D02*
X39969Y-43791D01*
G54D14*
X54543Y-42799D02*
X54543Y-44799D01*
X54543Y-44799D02*
X52543Y-44799D01*
X52543Y-44799D02*
X52543Y-42799D01*
X52543Y-42799D02*
X54543Y-42799D01*
G54D10*
X36000Y-11500D02*
X36000Y-10500D01*
X36000Y-10500D02*
X38000Y-10500D01*
X38000Y-10500D02*
X38000Y-11500D01*
X38000Y-11500D02*
X36000Y-11500D01*
X26091Y-44701D02*
X25091Y-44701D01*
X25091Y-44701D02*
X25091Y-42701D01*
X25091Y-42701D02*
X26091Y-42701D01*
X26091Y-42701D02*
X26091Y-44701D01*
X27665Y-44701D02*
X26665Y-44701D01*
X26665Y-44701D02*
X26665Y-42701D01*
X26665Y-42701D02*
X27665Y-42701D01*
X27665Y-42701D02*
X27665Y-44701D01*
X29240Y-44701D02*
X28240Y-44701D01*
X28240Y-44701D02*
X28240Y-42701D01*
X28240Y-42701D02*
X29240Y-42701D01*
X29240Y-42701D02*
X29240Y-44701D01*
X36008Y-17823D02*
X36008Y-16823D01*
X36008Y-16823D02*
X38008Y-16823D01*
X38008Y-16823D02*
X38008Y-17823D01*
X38008Y-17823D02*
X36008Y-17823D01*
G54D14*
X51091Y-40142D02*
X49591Y-41642D01*
X49591Y-41642D02*
X49591Y-42142D01*
X49591Y-42142D02*
X50091Y-42642D01*
X50091Y-42642D02*
X51091Y-42642D01*
X51091Y-42642D02*
X52091Y-41642D01*
X52091Y-41642D02*
X52091Y-40642D01*
X52091Y-40642D02*
X51591Y-40142D01*
X51591Y-40142D02*
X51091Y-40142D01*
G54D13*
X24697Y-10563D02*
X25697Y-10563D01*
G54D10*
X25581Y-09483D02*
X25539Y-09451D01*
X25495Y-09423D01*
X25448Y-09399D01*
X25400Y-09379D01*
X25350Y-09363D01*
X25299Y-09352D01*
X25247Y-09346D01*
X25197Y-09343D01*
X25197Y-09344D02*
X25145Y-09347D01*
X25093Y-09354D01*
X25042Y-09365D01*
X24993Y-09381D01*
X24944Y-09401D01*
X24898Y-09425D01*
X24854Y-09453D01*
X24812Y-09485D01*
X24800Y-09496D01*
X25197Y-10542D02*
X25249Y-10539D01*
X25301Y-10532D01*
X25352Y-10521D01*
X25401Y-10505D01*
X25450Y-10485D01*
X25496Y-10461D01*
X25540Y-10433D01*
X25582Y-10401D01*
X25586Y-10397D01*
X24813Y-10403D02*
X24855Y-10435D01*
X24899Y-10463D01*
X24946Y-10487D01*
X24994Y-10507D01*
X25044Y-10523D01*
X25095Y-10534D01*
X25147Y-10540D01*
X25197Y-10543D01*
X25546Y-10430D02*
X25587Y-10398D01*
X25625Y-10362D01*
X25660Y-10323D01*
X25692Y-10281D01*
X25719Y-10237D01*
X25743Y-10190D01*
X25762Y-10142D01*
X25778Y-10092D01*
X25788Y-10040D01*
X25795Y-09989D01*
X25797Y-09943D01*
X25797Y-09943D02*
X25794Y-09891D01*
X25787Y-09839D01*
X25776Y-09788D01*
X25760Y-09738D01*
X25740Y-09690D01*
X25716Y-09644D01*
X25688Y-09599D01*
X25656Y-09558D01*
X25621Y-09519D01*
X25582Y-09484D01*
X25557Y-09464D01*
X24598Y-09943D02*
X24601Y-09995D01*
X24608Y-10047D01*
X24619Y-10098D01*
X24635Y-10147D01*
X24655Y-10196D01*
X24679Y-10242D01*
X24707Y-10286D01*
X24739Y-10328D01*
X24774Y-10366D01*
X24812Y-10401D01*
X24830Y-10415D01*
X24829Y-09470D02*
X24789Y-09504D01*
X24752Y-09541D01*
X24719Y-09582D01*
X24689Y-09625D01*
X24663Y-09670D01*
X24642Y-09718D01*
X24624Y-09767D01*
X24611Y-09818D01*
X24602Y-09869D01*
X24598Y-09922D01*
X24597Y-09943D01*
X25447Y-09943D02*
X25446Y-09922D01*
X25443Y-09900D01*
X25438Y-09879D01*
X25431Y-09858D01*
X25423Y-09838D01*
X25413Y-09819D01*
X25401Y-09800D01*
X25388Y-09783D01*
X25373Y-09767D01*
X25357Y-09752D01*
X25340Y-09739D01*
X25322Y-09727D01*
X25302Y-09717D01*
X25282Y-09709D01*
X25261Y-09702D01*
X25240Y-09697D01*
X25218Y-09694D01*
X25197Y-09693D01*
X25597Y-09943D02*
X25595Y-09909D01*
X25590Y-09874D01*
X25583Y-09840D01*
X25572Y-09807D01*
X25559Y-09774D01*
X25543Y-09744D01*
X25524Y-09714D01*
X25503Y-09686D01*
X25479Y-09661D01*
X25454Y-09637D01*
X25426Y-09616D01*
X25397Y-09597D01*
X25366Y-09581D01*
X25333Y-09568D01*
X25300Y-09557D01*
X25266Y-09550D01*
X25231Y-09545D01*
X25197Y-09543D01*
X24947Y-09943D02*
X24948Y-09964D01*
X24951Y-09986D01*
X24956Y-10007D01*
X24963Y-10028D01*
X24971Y-10048D01*
X24981Y-10067D01*
X24993Y-10086D01*
X25006Y-10103D01*
X25021Y-10119D01*
X25037Y-10134D01*
X25054Y-10147D01*
X25073Y-10159D01*
X25092Y-10169D01*
X25112Y-10177D01*
X25133Y-10184D01*
X25154Y-10189D01*
X25176Y-10192D01*
X25197Y-10193D01*
X24797Y-09943D02*
X24799Y-09977D01*
X24804Y-10012D01*
X24811Y-10046D01*
X24822Y-10079D01*
X24835Y-10112D01*
X24851Y-10142D01*
X24870Y-10172D01*
X24891Y-10200D01*
X24915Y-10225D01*
X24940Y-10249D01*
X24968Y-10270D01*
X24998Y-10289D01*
X25028Y-10305D01*
X25061Y-10318D01*
X25094Y-10329D01*
X25128Y-10336D01*
X25163Y-10341D01*
X25197Y-10343D01*
G54D13*
X25710Y-10556D02*
X25761Y-10509D01*
X25808Y-10458D01*
X25851Y-10403D01*
X25889Y-10344D01*
X25921Y-10282D01*
X25948Y-10217D01*
X25969Y-10151D01*
X25984Y-10083D01*
X25993Y-10014D01*
X25996Y-09944D01*
X25997Y-09943D01*
X25996Y-09943D02*
X25992Y-09874D01*
X25983Y-09805D01*
X25968Y-09737D01*
X25947Y-09670D01*
X25921Y-09606D01*
X25888Y-09544D01*
X25851Y-09485D01*
X25809Y-09430D01*
X25761Y-09379D01*
X25710Y-09331D01*
X25655Y-09289D01*
X25596Y-09252D01*
X25573Y-09239D01*
X24400Y-09944D02*
X24403Y-10013D01*
X24412Y-10082D01*
X24427Y-10150D01*
X24448Y-10217D01*
X24475Y-10281D01*
X24507Y-10343D01*
X24545Y-10401D01*
X24587Y-10457D01*
X24634Y-10508D01*
X24682Y-10552D01*
X24800Y-09249D02*
X24741Y-09287D01*
X24685Y-09329D01*
X24634Y-09376D01*
X24586Y-09427D01*
X24544Y-09482D01*
X24506Y-09541D01*
X24474Y-09603D01*
X24447Y-09667D01*
X24425Y-09734D01*
X24410Y-09802D01*
X24401Y-09871D01*
X24398Y-09941D01*
X24397Y-09943D01*
X25576Y-09239D02*
X25513Y-09209D01*
X25448Y-09184D01*
X25381Y-09165D01*
X25312Y-09152D01*
X25243Y-09145D01*
X25197Y-09143D01*
X25197Y-09144D02*
X25128Y-09148D01*
X25059Y-09157D01*
X24991Y-09172D01*
X24924Y-09193D01*
X24860Y-09219D01*
X24798Y-09252D01*
X24779Y-09263D01*
X27846Y-10563D02*
X28846Y-10563D01*
G54D10*
X28730Y-09483D02*
X28688Y-09451D01*
X28644Y-09423D01*
X28597Y-09399D01*
X28549Y-09379D01*
X28499Y-09363D01*
X28448Y-09352D01*
X28396Y-09346D01*
X28346Y-09343D01*
X28346Y-09344D02*
X28294Y-09347D01*
X28242Y-09354D01*
X28191Y-09365D01*
X28142Y-09381D01*
X28093Y-09401D01*
X28047Y-09425D01*
X28003Y-09453D01*
X27961Y-09485D01*
X27949Y-09496D01*
X28346Y-10542D02*
X28398Y-10539D01*
X28450Y-10532D01*
X28501Y-10521D01*
X28550Y-10505D01*
X28599Y-10485D01*
X28645Y-10461D01*
X28689Y-10433D01*
X28731Y-10401D01*
X28735Y-10397D01*
X27962Y-10403D02*
X28004Y-10435D01*
X28048Y-10463D01*
X28095Y-10487D01*
X28143Y-10507D01*
X28193Y-10523D01*
X28244Y-10534D01*
X28296Y-10540D01*
X28346Y-10543D01*
X28695Y-10430D02*
X28736Y-10398D01*
X28774Y-10362D01*
X28809Y-10323D01*
X28841Y-10281D01*
X28868Y-10237D01*
X28892Y-10190D01*
X28911Y-10142D01*
X28927Y-10092D01*
X28937Y-10040D01*
X28944Y-09989D01*
X28946Y-09943D01*
X28946Y-09943D02*
X28943Y-09891D01*
X28936Y-09839D01*
X28925Y-09788D01*
X28909Y-09738D01*
X28889Y-09690D01*
X28865Y-09644D01*
X28837Y-09599D01*
X28805Y-09558D01*
X28770Y-09519D01*
X28731Y-09484D01*
X28706Y-09464D01*
X27747Y-09943D02*
X27750Y-09995D01*
X27757Y-10047D01*
X27768Y-10098D01*
X27784Y-10147D01*
X27804Y-10196D01*
X27828Y-10242D01*
X27856Y-10286D01*
X27888Y-10328D01*
X27923Y-10366D01*
X27961Y-10401D01*
X27979Y-10415D01*
X27978Y-09470D02*
X27938Y-09504D01*
X27901Y-09541D01*
X27868Y-09582D01*
X27838Y-09625D01*
X27812Y-09670D01*
X27791Y-09718D01*
X27773Y-09767D01*
X27760Y-09818D01*
X27751Y-09869D01*
X27747Y-09922D01*
X27746Y-09943D01*
X28596Y-09943D02*
X28595Y-09922D01*
X28592Y-09900D01*
X28587Y-09879D01*
X28580Y-09858D01*
X28572Y-09838D01*
X28562Y-09819D01*
X28550Y-09800D01*
X28537Y-09783D01*
X28522Y-09767D01*
X28506Y-09752D01*
X28489Y-09739D01*
X28471Y-09727D01*
X28451Y-09717D01*
X28431Y-09709D01*
X28410Y-09702D01*
X28389Y-09697D01*
X28367Y-09694D01*
X28346Y-09693D01*
X28746Y-09943D02*
X28744Y-09909D01*
X28739Y-09874D01*
X28732Y-09840D01*
X28721Y-09807D01*
X28708Y-09774D01*
X28692Y-09744D01*
X28673Y-09714D01*
X28652Y-09686D01*
X28628Y-09661D01*
X28603Y-09637D01*
X28575Y-09616D01*
X28546Y-09597D01*
X28515Y-09581D01*
X28482Y-09568D01*
X28449Y-09557D01*
X28415Y-09550D01*
X28380Y-09545D01*
X28346Y-09543D01*
X28096Y-09943D02*
X28097Y-09964D01*
X28100Y-09986D01*
X28105Y-10007D01*
X28112Y-10028D01*
X28120Y-10048D01*
X28130Y-10067D01*
X28142Y-10086D01*
X28155Y-10103D01*
X28170Y-10119D01*
X28186Y-10134D01*
X28203Y-10147D01*
X28222Y-10159D01*
X28241Y-10169D01*
X28261Y-10177D01*
X28282Y-10184D01*
X28303Y-10189D01*
X28325Y-10192D01*
X28346Y-10193D01*
X27946Y-09943D02*
X27948Y-09977D01*
X27953Y-10012D01*
X27960Y-10046D01*
X27971Y-10079D01*
X27984Y-10112D01*
X28000Y-10142D01*
X28019Y-10172D01*
X28040Y-10200D01*
X28064Y-10225D01*
X28089Y-10249D01*
X28117Y-10270D01*
X28147Y-10289D01*
X28177Y-10305D01*
X28210Y-10318D01*
X28243Y-10329D01*
X28277Y-10336D01*
X28312Y-10341D01*
X28346Y-10343D01*
G54D13*
X28859Y-10556D02*
X28910Y-10509D01*
X28957Y-10458D01*
X29000Y-10403D01*
X29038Y-10344D01*
X29070Y-10282D01*
X29097Y-10217D01*
X29118Y-10151D01*
X29133Y-10083D01*
X29142Y-10014D01*
X29145Y-09944D01*
X29146Y-09943D01*
X29145Y-09943D02*
X29141Y-09874D01*
X29132Y-09805D01*
X29117Y-09737D01*
X29096Y-09670D01*
X29070Y-09606D01*
X29037Y-09544D01*
X29000Y-09485D01*
X28958Y-09430D01*
X28910Y-09379D01*
X28859Y-09331D01*
X28804Y-09289D01*
X28745Y-09252D01*
X28722Y-09239D01*
X27549Y-09944D02*
X27552Y-10013D01*
X27561Y-10082D01*
X27576Y-10150D01*
X27597Y-10217D01*
X27624Y-10281D01*
X27656Y-10343D01*
X27694Y-10401D01*
X27736Y-10457D01*
X27783Y-10508D01*
X27831Y-10552D01*
X27949Y-09249D02*
X27890Y-09287D01*
X27834Y-09329D01*
X27783Y-09376D01*
X27735Y-09427D01*
X27693Y-09482D01*
X27655Y-09541D01*
X27623Y-09603D01*
X27596Y-09667D01*
X27574Y-09734D01*
X27559Y-09802D01*
X27550Y-09871D01*
X27547Y-09941D01*
X27546Y-09943D01*
X28725Y-09239D02*
X28662Y-09209D01*
X28597Y-09184D01*
X28530Y-09165D01*
X28461Y-09152D01*
X28392Y-09145D01*
X28346Y-09143D01*
X28346Y-09144D02*
X28277Y-09148D01*
X28208Y-09157D01*
X28140Y-09172D01*
X28073Y-09193D01*
X28009Y-09219D01*
X27947Y-09252D01*
X27928Y-09263D01*
G54D11*
X35071Y-44004D02*
X34571Y-44004D01*
X34571Y-44004D02*
X34571Y-43004D01*
X34571Y-43004D02*
X35071Y-43004D01*
X35071Y-44504D02*
X31071Y-44504D01*
X31071Y-44504D02*
X31071Y-42504D01*
X31071Y-42504D02*
X35071Y-42504D01*
X35071Y-42504D02*
X35071Y-44504D01*
G54D13*
X26740Y-34933D02*
X27240Y-34933D01*
X27240Y-34933D02*
X27240Y-35933D01*
X27240Y-35933D02*
X26740Y-35933D01*
X26740Y-34433D02*
X30740Y-34433D01*
X30740Y-34433D02*
X30740Y-36433D01*
X30740Y-36433D02*
X26740Y-36433D01*
X26740Y-36433D02*
X26740Y-34433D01*
X40976Y-35933D02*
X40476Y-35933D01*
X40476Y-35933D02*
X40476Y-34933D01*
X40476Y-34933D02*
X40976Y-34933D01*
X40976Y-36433D02*
X36976Y-36433D01*
X36976Y-36433D02*
X36976Y-34433D01*
X36976Y-34433D02*
X40976Y-34433D01*
X40976Y-34433D02*
X40976Y-36433D01*
X35858Y-35933D02*
X35358Y-35933D01*
X35358Y-35933D02*
X35358Y-34933D01*
X35358Y-34933D02*
X35858Y-34933D01*
X35858Y-36433D02*
X31858Y-36433D01*
X31858Y-36433D02*
X31858Y-34433D01*
X31858Y-34433D02*
X35858Y-34433D01*
X35858Y-34433D02*
X35858Y-36433D01*
G54D11*
X54831Y-23831D02*
X54831Y-24331D01*
X54831Y-24331D02*
X53831Y-24331D01*
X53831Y-24331D02*
X53831Y-23831D01*
X55331Y-23831D02*
X55331Y-34831D01*
X55331Y-34831D02*
X53331Y-34831D01*
X53331Y-34831D02*
X53331Y-23831D01*
X53331Y-23831D02*
X55331Y-23831D01*
G54D14*
X52600Y-08650D02*
X52600Y-21450D01*
X52600Y-21450D02*
X59600Y-21450D01*
X59600Y-21450D02*
X59600Y-08650D01*
X59600Y-08650D02*
X52600Y-08650D01*
X59600Y-11450D02*
X56600Y-11450D01*
X56600Y-11450D02*
X56600Y-18650D01*
X56600Y-18650D02*
X59600Y-18650D01*
X59600Y-12050D02*
X63000Y-12050D01*
X63000Y-12050D02*
X63000Y-18050D01*
X63000Y-18050D02*
X59600Y-18050D01*
X46463Y-24387D02*
X46463Y-27187D01*
X46463Y-27187D02*
X45663Y-27187D01*
X45663Y-27187D02*
X45663Y-24387D01*
X45663Y-24387D02*
X46463Y-24387D01*
X46263Y-24387D02*
X46463Y-24587D01*
X47642Y-26272D02*
X49622Y-26272D01*
X49622Y-26272D02*
X49622Y-27272D01*
X49622Y-27272D02*
X47622Y-27272D01*
X47622Y-27272D02*
X47622Y-26272D01*
X47622Y-26522D02*
X47872Y-26272D01*
X47642Y-24303D02*
X49622Y-24303D01*
X49622Y-24303D02*
X49622Y-25303D01*
X49622Y-25303D02*
X47622Y-25303D01*
X47622Y-25303D02*
X47622Y-24303D01*
X47622Y-24553D02*
X47872Y-24303D01*
X49709Y-43791D02*
X51689Y-43791D01*
X51689Y-43791D02*
X51689Y-44791D01*
X51689Y-44791D02*
X49689Y-44791D01*
X49689Y-44791D02*
X49689Y-43791D01*
X49689Y-44041D02*
X49939Y-43791D01*
X49504Y-41051D02*
X47524Y-41051D01*
X47524Y-41051D02*
X47524Y-40051D01*
X47524Y-40051D02*
X49524Y-40051D01*
X49524Y-40051D02*
X49524Y-41051D01*
X49524Y-40801D02*
X49274Y-41051D01*
G54D11*
X33296Y-19441D02*
X24696Y-19441D01*
X24696Y-15441D02*
X33296Y-15441D01*
X24696Y-15441D02*
X24696Y-19441D01*
X33296Y-15441D02*
X33296Y-19441D01*
X49922Y-08914D02*
X40080Y-08913D01*
X40080Y-08913D02*
X40078Y-18366D01*
X40078Y-18366D02*
X49927Y-18366D01*
X49927Y-18366D02*
X49922Y-08914D01*
X49922Y-08914D02*
X49898Y-08915D01*
X24000Y-28500D02*
X24000Y-23500D01*
X24000Y-23500D02*
X44000Y-23500D01*
X44000Y-23500D02*
X44000Y-28500D01*
X44000Y-28500D02*
X24000Y-28500D01*
G54D10*
X55406Y-42799D02*
X56406Y-42799D01*
X56406Y-42799D02*
X56406Y-44799D01*
X56406Y-44799D02*
X55406Y-44799D01*
X55406Y-44799D02*
X55406Y-42799D01*
G54D13*
X48850Y-36327D02*
X44850Y-36327D01*
X48850Y-35327D02*
X44850Y-35327D01*
X44850Y-35327D02*
X44850Y-36327D01*
X48850Y-36327D02*
X48850Y-35327D01*
X30996Y-10563D02*
X31996Y-10563D01*
G54D10*
X31880Y-09483D02*
X31838Y-09451D01*
X31794Y-09423D01*
X31747Y-09399D01*
X31699Y-09379D01*
X31649Y-09363D01*
X31598Y-09352D01*
X31546Y-09346D01*
X31496Y-09343D01*
X31496Y-09344D02*
X31444Y-09347D01*
X31392Y-09354D01*
X31341Y-09365D01*
X31292Y-09381D01*
X31243Y-09401D01*
X31197Y-09425D01*
X31153Y-09453D01*
X31111Y-09485D01*
X31099Y-09496D01*
X31496Y-10542D02*
X31548Y-10539D01*
X31600Y-10532D01*
X31651Y-10521D01*
X31700Y-10505D01*
X31749Y-10485D01*
X31795Y-10461D01*
X31839Y-10433D01*
X31881Y-10401D01*
X31885Y-10397D01*
X31112Y-10403D02*
X31154Y-10435D01*
X31198Y-10463D01*
X31245Y-10487D01*
X31293Y-10507D01*
X31343Y-10523D01*
X31394Y-10534D01*
X31446Y-10540D01*
X31496Y-10543D01*
X31845Y-10430D02*
X31886Y-10398D01*
X31924Y-10362D01*
X31959Y-10323D01*
X31991Y-10281D01*
X32018Y-10237D01*
X32042Y-10190D01*
X32061Y-10142D01*
X32077Y-10092D01*
X32087Y-10040D01*
X32094Y-09989D01*
X32096Y-09943D01*
X32096Y-09943D02*
X32093Y-09891D01*
X32086Y-09839D01*
X32075Y-09788D01*
X32059Y-09738D01*
X32039Y-09690D01*
X32015Y-09644D01*
X31987Y-09599D01*
X31955Y-09558D01*
X31920Y-09519D01*
X31881Y-09484D01*
X31856Y-09464D01*
X30897Y-09943D02*
X30900Y-09995D01*
X30907Y-10047D01*
X30918Y-10098D01*
X30934Y-10147D01*
X30954Y-10196D01*
X30978Y-10242D01*
X31006Y-10286D01*
X31038Y-10328D01*
X31073Y-10366D01*
X31111Y-10401D01*
X31129Y-10415D01*
X31128Y-09470D02*
X31088Y-09504D01*
X31051Y-09541D01*
X31018Y-09582D01*
X30988Y-09625D01*
X30962Y-09670D01*
X30941Y-09718D01*
X30923Y-09767D01*
X30910Y-09818D01*
X30901Y-09869D01*
X30897Y-09922D01*
X30896Y-09943D01*
X31746Y-09943D02*
X31745Y-09922D01*
X31742Y-09900D01*
X31737Y-09879D01*
X31730Y-09858D01*
X31722Y-09838D01*
X31712Y-09819D01*
X31700Y-09800D01*
X31687Y-09783D01*
X31672Y-09767D01*
X31656Y-09752D01*
X31639Y-09739D01*
X31621Y-09727D01*
X31601Y-09717D01*
X31581Y-09709D01*
X31560Y-09702D01*
X31539Y-09697D01*
X31517Y-09694D01*
X31496Y-09693D01*
X31896Y-09943D02*
X31894Y-09909D01*
X31889Y-09874D01*
X31882Y-09840D01*
X31871Y-09807D01*
X31858Y-09774D01*
X31842Y-09744D01*
X31823Y-09714D01*
X31802Y-09686D01*
X31778Y-09661D01*
X31753Y-09637D01*
X31725Y-09616D01*
X31696Y-09597D01*
X31665Y-09581D01*
X31632Y-09568D01*
X31599Y-09557D01*
X31565Y-09550D01*
X31530Y-09545D01*
X31496Y-09543D01*
X31246Y-09943D02*
X31247Y-09964D01*
X31250Y-09986D01*
X31255Y-10007D01*
X31262Y-10028D01*
X31270Y-10048D01*
X31280Y-10067D01*
X31292Y-10086D01*
X31305Y-10103D01*
X31320Y-10119D01*
X31336Y-10134D01*
X31353Y-10147D01*
X31372Y-10159D01*
X31391Y-10169D01*
X31411Y-10177D01*
X31432Y-10184D01*
X31453Y-10189D01*
X31475Y-10192D01*
X31496Y-10193D01*
X31096Y-09943D02*
X31098Y-09977D01*
X31103Y-10012D01*
X31110Y-10046D01*
X31121Y-10079D01*
X31134Y-10112D01*
X31150Y-10142D01*
X31169Y-10172D01*
X31190Y-10200D01*
X31214Y-10225D01*
X31239Y-10249D01*
X31267Y-10270D01*
X31297Y-10289D01*
X31327Y-10305D01*
X31360Y-10318D01*
X31393Y-10329D01*
X31427Y-10336D01*
X31462Y-10341D01*
X31496Y-10343D01*
G54D13*
X32009Y-10556D02*
X32060Y-10509D01*
X32107Y-10458D01*
X32150Y-10403D01*
X32188Y-10344D01*
X32220Y-10282D01*
X32247Y-10217D01*
X32268Y-10151D01*
X32283Y-10083D01*
X32292Y-10014D01*
X32295Y-09944D01*
X32296Y-09943D01*
X32295Y-09943D02*
X32291Y-09874D01*
X32282Y-09805D01*
X32267Y-09737D01*
X32246Y-09670D01*
X32220Y-09606D01*
X32187Y-09544D01*
X32150Y-09485D01*
X32108Y-09430D01*
X32060Y-09379D01*
X32009Y-09331D01*
X31954Y-09289D01*
X31895Y-09252D01*
X31872Y-09239D01*
X30699Y-09944D02*
X30702Y-10013D01*
X30711Y-10082D01*
X30726Y-10150D01*
X30747Y-10217D01*
X30774Y-10281D01*
X30806Y-10343D01*
X30844Y-10401D01*
X30886Y-10457D01*
X30933Y-10508D01*
X30981Y-10552D01*
X31099Y-09249D02*
X31040Y-09287D01*
X30984Y-09329D01*
X30933Y-09376D01*
X30885Y-09427D01*
X30843Y-09482D01*
X30805Y-09541D01*
X30773Y-09603D01*
X30746Y-09667D01*
X30724Y-09734D01*
X30709Y-09802D01*
X30700Y-09871D01*
X30697Y-09941D01*
X30696Y-09943D01*
X31875Y-09239D02*
X31812Y-09209D01*
X31747Y-09184D01*
X31680Y-09165D01*
X31611Y-09152D01*
X31542Y-09145D01*
X31496Y-09143D01*
X31496Y-09144D02*
X31427Y-09148D01*
X31358Y-09157D01*
X31290Y-09172D01*
X31223Y-09193D01*
X31159Y-09219D01*
X31097Y-09252D01*
X31078Y-09263D01*
G54D11*
X32677Y-31390D02*
X32677Y-32390D01*
X33236Y-31390D02*
X33225Y-31498D01*
X33193Y-31603D01*
X33142Y-31699D01*
X33073Y-31783D01*
X32989Y-31853D01*
X32893Y-31905D01*
X32789Y-31937D01*
X32680Y-31948D01*
X32573Y-31939D01*
X32468Y-31908D01*
X32371Y-31857D01*
X32286Y-31789D01*
X32216Y-31705D01*
X32164Y-31610D01*
X32131Y-31506D01*
X32119Y-31397D01*
X32128Y-31290D01*
X32158Y-31185D01*
X32208Y-31088D01*
X32275Y-31002D01*
X32358Y-30931D01*
X32454Y-30878D01*
X32557Y-30845D01*
X32666Y-30832D01*
X32774Y-30840D01*
X32879Y-30869D01*
X32976Y-30919D01*
X33062Y-30986D01*
X33133Y-31068D01*
X33187Y-31163D01*
X33222Y-31267D01*
X33235Y-31375D01*
X33236Y-31390D01*
X35827Y-31390D02*
X35827Y-32390D01*
X36386Y-31390D02*
X36375Y-31498D01*
X36343Y-31603D01*
X36292Y-31699D01*
X36223Y-31783D01*
X36139Y-31853D01*
X36043Y-31905D01*
X35939Y-31937D01*
X35830Y-31948D01*
X35723Y-31939D01*
X35618Y-31908D01*
X35521Y-31857D01*
X35436Y-31789D01*
X35366Y-31705D01*
X35314Y-31610D01*
X35281Y-31506D01*
X35269Y-31397D01*
X35278Y-31290D01*
X35308Y-31185D01*
X35358Y-31088D01*
X35425Y-31002D01*
X35508Y-30931D01*
X35604Y-30878D01*
X35707Y-30845D01*
X35816Y-30832D01*
X35924Y-30840D01*
X36029Y-30869D01*
X36126Y-30919D01*
X36212Y-30986D01*
X36283Y-31068D01*
X36337Y-31163D01*
X36372Y-31267D01*
X36385Y-31375D01*
X36386Y-31390D01*
X34252Y-31390D02*
X34252Y-32390D01*
X34811Y-31390D02*
X34800Y-31498D01*
X34768Y-31603D01*
X34717Y-31699D01*
X34648Y-31783D01*
X34564Y-31853D01*
X34468Y-31905D01*
X34364Y-31937D01*
X34255Y-31948D01*
X34148Y-31939D01*
X34043Y-31908D01*
X33946Y-31857D01*
X33861Y-31789D01*
X33791Y-31705D01*
X33739Y-31610D01*
X33706Y-31506D01*
X33694Y-31397D01*
X33703Y-31290D01*
X33733Y-31185D01*
X33783Y-31088D01*
X33850Y-31002D01*
X33933Y-30931D01*
X34029Y-30878D01*
X34132Y-30845D01*
X34241Y-30832D01*
X34349Y-30840D01*
X34454Y-30869D01*
X34551Y-30919D01*
X34637Y-30986D01*
X34708Y-31068D01*
X34762Y-31163D01*
X34797Y-31267D01*
X34810Y-31375D01*
X34811Y-31390D01*
X29134Y-38870D02*
X29134Y-39870D01*
X29693Y-38870D02*
X29682Y-38978D01*
X29650Y-39083D01*
X29599Y-39179D01*
X29530Y-39263D01*
X29446Y-39333D01*
X29350Y-39385D01*
X29246Y-39417D01*
X29137Y-39428D01*
X29030Y-39419D01*
X28925Y-39388D01*
X28828Y-39337D01*
X28743Y-39269D01*
X28673Y-39185D01*
X28621Y-39090D01*
X28588Y-38986D01*
X28576Y-38877D01*
X28585Y-38770D01*
X28615Y-38665D01*
X28665Y-38568D01*
X28732Y-38482D01*
X28815Y-38411D01*
X28911Y-38358D01*
X29014Y-38325D01*
X29123Y-38312D01*
X29231Y-38320D01*
X29336Y-38349D01*
X29433Y-38399D01*
X29519Y-38466D01*
X29590Y-38548D01*
X29644Y-38643D01*
X29679Y-38747D01*
X29692Y-38855D01*
X29693Y-38870D01*
X38583Y-38870D02*
X38583Y-39870D01*
X39142Y-38870D02*
X39131Y-38978D01*
X39099Y-39083D01*
X39048Y-39179D01*
X38979Y-39263D01*
X38895Y-39333D01*
X38799Y-39385D01*
X38695Y-39417D01*
X38586Y-39428D01*
X38479Y-39419D01*
X38374Y-39388D01*
X38277Y-39337D01*
X38192Y-39269D01*
X38122Y-39185D01*
X38070Y-39090D01*
X38037Y-38986D01*
X38025Y-38877D01*
X38034Y-38770D01*
X38064Y-38665D01*
X38114Y-38568D01*
X38181Y-38482D01*
X38264Y-38411D01*
X38360Y-38358D01*
X38463Y-38325D01*
X38572Y-38312D01*
X38680Y-38320D01*
X38785Y-38349D01*
X38882Y-38399D01*
X38968Y-38466D01*
X39039Y-38548D01*
X39093Y-38643D01*
X39128Y-38747D01*
X39141Y-38855D01*
X39142Y-38870D01*
X33465Y-38870D02*
X33465Y-39870D01*
X34024Y-38870D02*
X34013Y-38978D01*
X33981Y-39083D01*
X33930Y-39179D01*
X33861Y-39263D01*
X33777Y-39333D01*
X33681Y-39385D01*
X33577Y-39417D01*
X33468Y-39428D01*
X33361Y-39419D01*
X33256Y-39388D01*
X33159Y-39337D01*
X33074Y-39269D01*
X33004Y-39185D01*
X32952Y-39090D01*
X32919Y-38986D01*
X32907Y-38877D01*
X32916Y-38770D01*
X32946Y-38665D01*
X32996Y-38568D01*
X33063Y-38482D01*
X33146Y-38411D01*
X33242Y-38358D01*
X33345Y-38325D01*
X33454Y-38312D01*
X33562Y-38320D01*
X33667Y-38349D01*
X33764Y-38399D01*
X33850Y-38466D01*
X33921Y-38548D01*
X33975Y-38643D01*
X34010Y-38747D01*
X34023Y-38855D01*
X34024Y-38870D01*
X28346Y-12492D02*
X28346Y-13492D01*
X28905Y-12492D02*
X28894Y-12600D01*
X28862Y-12705D01*
X28811Y-12801D01*
X28742Y-12885D01*
X28658Y-12955D01*
X28562Y-13007D01*
X28458Y-13039D01*
X28349Y-13050D01*
X28242Y-13041D01*
X28137Y-13010D01*
X28040Y-12959D01*
X27955Y-12891D01*
X27885Y-12807D01*
X27833Y-12712D01*
X27800Y-12608D01*
X27788Y-12499D01*
X27797Y-12392D01*
X27827Y-12287D01*
X27877Y-12190D01*
X27944Y-12104D01*
X28027Y-12033D01*
X28123Y-11980D01*
X28226Y-11947D01*
X28335Y-11934D01*
X28443Y-11942D01*
X28548Y-11971D01*
X28645Y-12021D01*
X28731Y-12088D01*
X28802Y-12170D01*
X28856Y-12265D01*
X28891Y-12369D01*
X28904Y-12477D01*
X28905Y-12492D01*
X31496Y-12492D02*
X31496Y-13492D01*
X32055Y-12492D02*
X32044Y-12600D01*
X32012Y-12705D01*
X31961Y-12801D01*
X31892Y-12885D01*
X31808Y-12955D01*
X31712Y-13007D01*
X31608Y-13039D01*
X31499Y-13050D01*
X31392Y-13041D01*
X31287Y-13010D01*
X31190Y-12959D01*
X31105Y-12891D01*
X31035Y-12807D01*
X30983Y-12712D01*
X30950Y-12608D01*
X30938Y-12499D01*
X30947Y-12392D01*
X30977Y-12287D01*
X31027Y-12190D01*
X31094Y-12104D01*
X31177Y-12033D01*
X31273Y-11980D01*
X31376Y-11947D01*
X31485Y-11934D01*
X31593Y-11942D01*
X31698Y-11971D01*
X31795Y-12021D01*
X31881Y-12088D01*
X31952Y-12170D01*
X32006Y-12265D01*
X32041Y-12369D01*
X32054Y-12477D01*
X32055Y-12492D01*
G54D12*
X51181Y-16461D02*
X51181Y-16261D01*
X51181Y-13461D02*
X51181Y-13661D01*
X51181Y-13661D02*
X50781Y-13661D01*
X50781Y-13661D02*
X50781Y-16261D01*
X50781Y-16261D02*
X51581Y-16261D01*
X51581Y-16261D02*
X51581Y-13661D01*
X51581Y-13661D02*
X51181Y-13661D01*
X50981Y-16261D02*
X50781Y-16061D01*
G54D11*
X25197Y-12492D02*
X25197Y-13492D01*
X25756Y-12492D02*
X25745Y-12600D01*
X25713Y-12705D01*
X25662Y-12801D01*
X25593Y-12885D01*
X25509Y-12955D01*
X25413Y-13007D01*
X25309Y-13039D01*
X25200Y-13050D01*
X25093Y-13041D01*
X24988Y-13010D01*
X24891Y-12959D01*
X24806Y-12891D01*
X24736Y-12807D01*
X24684Y-12712D01*
X24651Y-12608D01*
X24639Y-12499D01*
X24648Y-12392D01*
X24678Y-12287D01*
X24728Y-12190D01*
X24795Y-12104D01*
X24878Y-12033D01*
X24974Y-11980D01*
X25077Y-11947D01*
X25186Y-11934D01*
X25294Y-11942D01*
X25399Y-11971D01*
X25496Y-12021D01*
X25582Y-12088D01*
X25653Y-12170D01*
X25707Y-12265D01*
X25742Y-12369D01*
X25755Y-12477D01*
X25756Y-12492D01*
X57298Y-40157D02*
X57280Y-40331D01*
X57230Y-40499D01*
X57147Y-40655D01*
X57036Y-40791D01*
X56901Y-40903D01*
X56746Y-40986D01*
X56578Y-41038D01*
X56404Y-41056D01*
X56230Y-41041D01*
X56061Y-40991D01*
X55906Y-40910D01*
X55769Y-40800D01*
X55656Y-40665D01*
X55571Y-40511D01*
X55518Y-40344D01*
X55499Y-40169D01*
X55513Y-39995D01*
X55562Y-39826D01*
X55642Y-39670D01*
X55751Y-39532D01*
X55885Y-39418D01*
X56038Y-39333D01*
X56205Y-39278D01*
X56380Y-39258D01*
X56554Y-39271D01*
X56723Y-39318D01*
X56880Y-39398D01*
X57018Y-39506D01*
X57133Y-39639D01*
X57220Y-39791D01*
X57275Y-39958D01*
X57297Y-40132D01*
X57298Y-40157D01*
X26491Y-40157D02*
X26473Y-40331D01*
X26423Y-40499D01*
X26340Y-40655D01*
X26229Y-40791D01*
X26094Y-40903D01*
X25939Y-40986D01*
X25771Y-41038D01*
X25597Y-41056D01*
X25423Y-41041D01*
X25254Y-40991D01*
X25099Y-40910D01*
X24962Y-40800D01*
X24849Y-40665D01*
X24764Y-40511D01*
X24711Y-40344D01*
X24692Y-40169D01*
X24706Y-39995D01*
X24755Y-39826D01*
X24835Y-39670D01*
X24944Y-39532D01*
X25078Y-39418D01*
X25231Y-39333D01*
X25398Y-39278D01*
X25573Y-39258D01*
X25747Y-39271D01*
X25916Y-39318D01*
X26073Y-39398D01*
X26211Y-39506D01*
X26326Y-39639D01*
X26413Y-39791D01*
X26468Y-39958D01*
X26490Y-40132D01*
X26491Y-40157D01*
X34758Y-12106D02*
X34740Y-12280D01*
X34690Y-12448D01*
X34607Y-12604D01*
X34496Y-12740D01*
X34361Y-12852D01*
X34206Y-12935D01*
X34038Y-12987D01*
X33864Y-13005D01*
X33690Y-12990D01*
X33521Y-12940D01*
X33366Y-12859D01*
X33229Y-12749D01*
X33116Y-12614D01*
X33031Y-12460D01*
X32978Y-12293D01*
X32959Y-12118D01*
X32973Y-11944D01*
X33022Y-11775D01*
X33102Y-11619D01*
X33211Y-11481D01*
X33345Y-11367D01*
X33498Y-11282D01*
X33665Y-11227D01*
X33840Y-11207D01*
X34014Y-11220D01*
X34183Y-11267D01*
X34340Y-11347D01*
X34478Y-11455D01*
X34593Y-11588D01*
X34680Y-11740D01*
X34735Y-11907D01*
X34757Y-12081D01*
X34758Y-12106D01*
X45880Y-20177D02*
X45862Y-20351D01*
X45812Y-20519D01*
X45729Y-20675D01*
X45618Y-20811D01*
X45483Y-20923D01*
X45328Y-21006D01*
X45160Y-21058D01*
X44986Y-21076D01*
X44812Y-21061D01*
X44643Y-21011D01*
X44488Y-20930D01*
X44351Y-20820D01*
X44238Y-20685D01*
X44153Y-20531D01*
X44100Y-20364D01*
X44081Y-20189D01*
X44095Y-20015D01*
X44144Y-19846D01*
X44224Y-19690D01*
X44333Y-19552D01*
X44467Y-19438D01*
X44620Y-19353D01*
X44787Y-19298D01*
X44962Y-19278D01*
X45136Y-19291D01*
X45305Y-19338D01*
X45462Y-19418D01*
X45600Y-19526D01*
X45715Y-19659D01*
X45802Y-19811D01*
X45857Y-19978D01*
X45879Y-20152D01*
X45880Y-20177D01*
G54D12*
X37260Y-13659D02*
X36974Y-13659D01*
X37117Y-13659D02*
X37117Y-13109D01*
X37069Y-13187D01*
X37022Y-13240D01*
X36974Y-13266D01*
X37736Y-13659D02*
X37450Y-13659D01*
X37593Y-13659D02*
X37593Y-13109D01*
X37545Y-13187D01*
X37498Y-13240D01*
X37450Y-13266D01*
X38045Y-13109D02*
X38093Y-13109D01*
X38141Y-13135D01*
X38164Y-13161D01*
X38188Y-13213D01*
X38212Y-13318D01*
X38212Y-13449D01*
X38188Y-13554D01*
X38164Y-13606D01*
X38141Y-13632D01*
X38093Y-13659D01*
X38045Y-13659D01*
X37998Y-13632D01*
X37974Y-13606D01*
X37950Y-13554D01*
X37926Y-13449D01*
X37926Y-13318D01*
X37950Y-13213D01*
X37974Y-13161D01*
X37998Y-13135D01*
X38045Y-13109D01*
X38426Y-13659D02*
X38426Y-13109D01*
X38474Y-13449D02*
X38617Y-13659D01*
X38617Y-13292D02*
X38426Y-13501D01*
X37260Y-15234D02*
X36974Y-15234D01*
X37117Y-15234D02*
X37117Y-14684D01*
X37069Y-14762D01*
X37022Y-14815D01*
X36974Y-14841D01*
X37736Y-15234D02*
X37450Y-15234D01*
X37593Y-15234D02*
X37593Y-14684D01*
X37545Y-14762D01*
X37498Y-14815D01*
X37450Y-14841D01*
X38045Y-14684D02*
X38093Y-14684D01*
X38141Y-14710D01*
X38164Y-14736D01*
X38188Y-14788D01*
X38212Y-14893D01*
X38212Y-15024D01*
X38188Y-15129D01*
X38164Y-15181D01*
X38141Y-15207D01*
X38093Y-15234D01*
X38045Y-15234D01*
X37998Y-15207D01*
X37974Y-15181D01*
X37950Y-15129D01*
X37926Y-15024D01*
X37926Y-14893D01*
X37950Y-14788D01*
X37974Y-14736D01*
X37998Y-14710D01*
X38045Y-14684D01*
X38426Y-15234D02*
X38426Y-14684D01*
X38474Y-15024D02*
X38617Y-15234D01*
X38617Y-14867D02*
X38426Y-15076D01*
X46555Y-31445D02*
X46555Y-31045D01*
X46708Y-31045D01*
X46746Y-31064D01*
X46765Y-31083D01*
X46784Y-31121D01*
X46784Y-31178D01*
X46765Y-31216D01*
X46746Y-31235D01*
X46708Y-31254D01*
X46555Y-31254D01*
X46917Y-31045D02*
X47184Y-31045D01*
X47012Y-31445D01*
G54D10*
X39074Y-45303D02*
X39074Y-44903D01*
X39303Y-45303D02*
X39131Y-45074D01*
X39303Y-44903D02*
X39074Y-45131D01*
X39684Y-45303D02*
X39455Y-45303D01*
X39569Y-45303D02*
X39569Y-44903D01*
X39531Y-44960D01*
X39493Y-44998D01*
X39455Y-45017D01*
G54D12*
X55055Y-43944D02*
X54655Y-43944D01*
X54655Y-43849D01*
X54674Y-43791D01*
X54712Y-43753D01*
X54750Y-43734D01*
X54826Y-43715D01*
X54883Y-43715D01*
X54960Y-43734D01*
X54998Y-43753D01*
X55036Y-43791D01*
X55055Y-43849D01*
X55055Y-43944D01*
X55055Y-43334D02*
X55055Y-43563D01*
X55055Y-43449D02*
X54655Y-43449D01*
X54712Y-43487D01*
X54750Y-43525D01*
X54769Y-43563D01*
G54D10*
X36600Y-10357D02*
X36643Y-10371D01*
X36714Y-10371D01*
X36743Y-10357D01*
X36757Y-10343D01*
X36772Y-10314D01*
X36772Y-10286D01*
X36757Y-10257D01*
X36743Y-10243D01*
X36714Y-10229D01*
X36657Y-10214D01*
X36629Y-10200D01*
X36614Y-10186D01*
X36600Y-10157D01*
X36600Y-10129D01*
X36614Y-10100D01*
X36629Y-10086D01*
X36657Y-10071D01*
X36729Y-10071D01*
X36772Y-10086D01*
X36872Y-10071D02*
X36943Y-10371D01*
X37000Y-10157D01*
X37058Y-10371D01*
X37129Y-10071D01*
X37215Y-10071D02*
X37401Y-10071D01*
X37301Y-10186D01*
X37343Y-10186D01*
X37372Y-10200D01*
X37386Y-10214D01*
X37401Y-10243D01*
X37401Y-10314D01*
X37386Y-10343D01*
X37372Y-10357D01*
X37343Y-10371D01*
X37258Y-10371D01*
X37229Y-10357D01*
X37215Y-10343D01*
X24962Y-43923D02*
X24662Y-43923D01*
X24662Y-43808D01*
X24677Y-43780D01*
X24691Y-43765D01*
X24720Y-43751D01*
X24762Y-43751D01*
X24791Y-43765D01*
X24805Y-43780D01*
X24820Y-43808D01*
X24820Y-43923D01*
X24962Y-43465D02*
X24962Y-43637D01*
X24962Y-43551D02*
X24662Y-43551D01*
X24705Y-43580D01*
X24734Y-43608D01*
X24748Y-43637D01*
X26536Y-43923D02*
X26236Y-43923D01*
X26236Y-43808D01*
X26251Y-43780D01*
X26265Y-43765D01*
X26294Y-43751D01*
X26336Y-43751D01*
X26365Y-43765D01*
X26379Y-43780D01*
X26394Y-43808D01*
X26394Y-43923D01*
X26236Y-43651D02*
X26236Y-43465D01*
X26351Y-43565D01*
X26351Y-43523D01*
X26365Y-43494D01*
X26379Y-43480D01*
X26408Y-43465D01*
X26479Y-43465D01*
X26508Y-43480D01*
X26522Y-43494D01*
X26536Y-43523D01*
X26536Y-43608D01*
X26522Y-43637D01*
X26508Y-43651D01*
X28111Y-43923D02*
X27811Y-43923D01*
X27811Y-43808D01*
X27826Y-43780D01*
X27840Y-43765D01*
X27869Y-43751D01*
X27911Y-43751D01*
X27940Y-43765D01*
X27954Y-43780D01*
X27969Y-43808D01*
X27969Y-43923D01*
X27811Y-43480D02*
X27811Y-43623D01*
X27954Y-43637D01*
X27940Y-43623D01*
X27926Y-43594D01*
X27926Y-43523D01*
X27940Y-43494D01*
X27954Y-43480D01*
X27983Y-43465D01*
X28054Y-43465D01*
X28083Y-43480D01*
X28097Y-43494D01*
X28111Y-43523D01*
X28111Y-43594D01*
X28097Y-43623D01*
X28083Y-43637D01*
X36608Y-16680D02*
X36651Y-16694D01*
X36722Y-16694D01*
X36751Y-16680D01*
X36765Y-16666D01*
X36780Y-16637D01*
X36780Y-16609D01*
X36765Y-16580D01*
X36751Y-16566D01*
X36722Y-16552D01*
X36665Y-16537D01*
X36637Y-16523D01*
X36622Y-16509D01*
X36608Y-16480D01*
X36608Y-16452D01*
X36622Y-16423D01*
X36637Y-16409D01*
X36665Y-16394D01*
X36737Y-16394D01*
X36780Y-16409D01*
X36880Y-16394D02*
X36951Y-16694D01*
X37008Y-16480D01*
X37066Y-16694D01*
X37137Y-16394D01*
X37380Y-16494D02*
X37380Y-16694D01*
X37309Y-16380D02*
X37237Y-16594D01*
X37423Y-16594D01*
G54D12*
X51036Y-39404D02*
X51036Y-39728D01*
X51055Y-39766D01*
X51074Y-39785D01*
X51112Y-39804D01*
X51189Y-39804D01*
X51227Y-39785D01*
X51246Y-39766D01*
X51265Y-39728D01*
X51265Y-39404D01*
X51665Y-39804D02*
X51436Y-39804D01*
X51550Y-39804D02*
X51550Y-39404D01*
X51512Y-39461D01*
X51474Y-39499D01*
X51436Y-39518D01*
X50386Y-42904D02*
X50653Y-42904D01*
X50481Y-43304D01*
X50862Y-43075D02*
X50824Y-43056D01*
X50805Y-43037D01*
X50786Y-42999D01*
X50786Y-42980D01*
X50805Y-42942D01*
X50824Y-42923D01*
X50862Y-42904D01*
X50939Y-42904D01*
X50977Y-42923D01*
X50996Y-42942D01*
X51015Y-42980D01*
X51015Y-42999D01*
X50996Y-43037D01*
X50977Y-43056D01*
X50939Y-43075D01*
X50862Y-43075D01*
X50824Y-43094D01*
X50805Y-43113D01*
X50786Y-43152D01*
X50786Y-43228D01*
X50805Y-43266D01*
X50824Y-43285D01*
X50862Y-43304D01*
X50939Y-43304D01*
X50977Y-43285D01*
X50996Y-43266D01*
X51015Y-43228D01*
X51015Y-43152D01*
X50996Y-43113D01*
X50977Y-43094D01*
X50939Y-43075D01*
X51262Y-42904D02*
X51301Y-42904D01*
X51339Y-42923D01*
X51358Y-42942D01*
X51377Y-42980D01*
X51396Y-43056D01*
X51396Y-43152D01*
X51377Y-43228D01*
X51358Y-43266D01*
X51339Y-43285D01*
X51301Y-43304D01*
X51262Y-43304D01*
X51224Y-43285D01*
X51205Y-43266D01*
X51186Y-43228D01*
X51167Y-43152D01*
X51167Y-43056D01*
X51186Y-42980D01*
X51205Y-42942D01*
X51224Y-42923D01*
X51262Y-42904D01*
X51758Y-42904D02*
X51567Y-42904D01*
X51548Y-43094D01*
X51567Y-43075D01*
X51605Y-43056D01*
X51701Y-43056D01*
X51739Y-43075D01*
X51758Y-43094D01*
X51777Y-43132D01*
X51777Y-43228D01*
X51758Y-43266D01*
X51739Y-43285D01*
X51701Y-43304D01*
X51605Y-43304D01*
X51567Y-43285D01*
X51548Y-43266D01*
G54D15*
X26418Y-10765D02*
X26118Y-10765D01*
X26118Y-10693D01*
X26133Y-10650D01*
X26161Y-10622D01*
X26190Y-10607D01*
X26247Y-10593D01*
X26290Y-10593D01*
X26347Y-10607D01*
X26376Y-10622D01*
X26404Y-10650D01*
X26418Y-10693D01*
X26418Y-10765D01*
X26147Y-10479D02*
X26133Y-10465D01*
X26118Y-10436D01*
X26118Y-10365D01*
X26133Y-10336D01*
X26147Y-10322D01*
X26176Y-10307D01*
X26204Y-10307D01*
X26247Y-10322D01*
X26418Y-10493D01*
X26418Y-10307D01*
X24318Y-10036D02*
X24318Y-10179D01*
X24018Y-10179D01*
X24161Y-09936D02*
X24161Y-09836D01*
X24318Y-09793D02*
X24318Y-09936D01*
X24018Y-09936D01*
X24018Y-09793D01*
X24318Y-09665D02*
X24018Y-09665D01*
X24018Y-09593D01*
X24033Y-09550D01*
X24061Y-09522D01*
X24090Y-09507D01*
X24147Y-09493D01*
X24190Y-09493D01*
X24247Y-09507D01*
X24276Y-09522D01*
X24304Y-09550D01*
X24318Y-09593D01*
X24318Y-09665D01*
X29567Y-10765D02*
X29267Y-10765D01*
X29267Y-10693D01*
X29282Y-10650D01*
X29310Y-10622D01*
X29339Y-10607D01*
X29396Y-10593D01*
X29439Y-10593D01*
X29496Y-10607D01*
X29525Y-10622D01*
X29553Y-10650D01*
X29567Y-10693D01*
X29567Y-10765D01*
X29267Y-10493D02*
X29267Y-10307D01*
X29382Y-10407D01*
X29382Y-10365D01*
X29396Y-10336D01*
X29410Y-10322D01*
X29439Y-10307D01*
X29510Y-10307D01*
X29539Y-10322D01*
X29553Y-10336D01*
X29567Y-10365D01*
X29567Y-10450D01*
X29553Y-10479D01*
X29539Y-10493D01*
X27467Y-10036D02*
X27467Y-10179D01*
X27167Y-10179D01*
X27310Y-09936D02*
X27310Y-09836D01*
X27467Y-09793D02*
X27467Y-09936D01*
X27167Y-09936D01*
X27167Y-09793D01*
X27467Y-09665D02*
X27167Y-09665D01*
X27167Y-09593D01*
X27182Y-09550D01*
X27210Y-09522D01*
X27239Y-09507D01*
X27296Y-09493D01*
X27339Y-09493D01*
X27396Y-09507D01*
X27425Y-09522D01*
X27453Y-09550D01*
X27467Y-09593D01*
X27467Y-09665D01*
G54D16*
X35854Y-43836D02*
X35154Y-43836D01*
X35154Y-43664D01*
X35188Y-43622D01*
X35221Y-43600D01*
X35288Y-43579D01*
X35388Y-43579D01*
X35454Y-43600D01*
X35488Y-43622D01*
X35521Y-43664D01*
X35521Y-43836D01*
X35221Y-43407D02*
X35188Y-43386D01*
X35154Y-43343D01*
X35154Y-43236D01*
X35188Y-43193D01*
X35221Y-43172D01*
X35288Y-43150D01*
X35354Y-43150D01*
X35454Y-43172D01*
X35854Y-43429D01*
X35854Y-43150D01*
G54D13*
X32176Y-43087D02*
X32443Y-43087D01*
X32271Y-43787D01*
X32786Y-43087D02*
X32595Y-43087D01*
X32576Y-43421D01*
X32595Y-43387D01*
X32633Y-43354D01*
X32729Y-43354D01*
X32767Y-43387D01*
X32786Y-43421D01*
X32805Y-43487D01*
X32805Y-43654D01*
X32786Y-43721D01*
X32767Y-43754D01*
X32729Y-43787D01*
X32633Y-43787D01*
X32595Y-43754D01*
X32576Y-43721D01*
X33186Y-43787D02*
X32957Y-43787D01*
X33071Y-43787D02*
X33071Y-43087D01*
X33033Y-43187D01*
X32995Y-43254D01*
X32957Y-43287D01*
X33319Y-43087D02*
X33586Y-43087D01*
X33414Y-43787D01*
X33910Y-43087D02*
X33833Y-43087D01*
X33795Y-43121D01*
X33776Y-43154D01*
X33738Y-43254D01*
X33719Y-43387D01*
X33719Y-43654D01*
X33738Y-43721D01*
X33757Y-43754D01*
X33795Y-43787D01*
X33872Y-43787D01*
X33910Y-43754D01*
X33929Y-43721D01*
X33948Y-43654D01*
X33948Y-43487D01*
X33929Y-43421D01*
X33910Y-43387D01*
X33872Y-43354D01*
X33795Y-43354D01*
X33757Y-43387D01*
X33738Y-43421D01*
X33719Y-43487D01*
G54D12*
X25942Y-35776D02*
X26347Y-35776D01*
X26395Y-35754D01*
X26419Y-35733D01*
X26442Y-35690D01*
X26442Y-35604D01*
X26419Y-35562D01*
X26395Y-35540D01*
X26347Y-35519D01*
X25942Y-35519D01*
X26109Y-35112D02*
X26442Y-35112D01*
X25919Y-35219D02*
X26276Y-35326D01*
X26276Y-35048D01*
X28036Y-35135D02*
X27959Y-35135D01*
X27921Y-35159D01*
X27902Y-35183D01*
X27864Y-35254D01*
X27845Y-35350D01*
X27845Y-35540D01*
X27864Y-35588D01*
X27883Y-35612D01*
X27921Y-35635D01*
X27998Y-35635D01*
X28036Y-35612D01*
X28055Y-35588D01*
X28074Y-35540D01*
X28074Y-35421D01*
X28055Y-35373D01*
X28036Y-35350D01*
X27998Y-35326D01*
X27921Y-35326D01*
X27883Y-35350D01*
X27864Y-35373D01*
X27845Y-35421D01*
X28245Y-35635D02*
X28245Y-35135D01*
X28474Y-35635D01*
X28474Y-35135D01*
X28874Y-35635D02*
X28645Y-35635D01*
X28759Y-35635D02*
X28759Y-35135D01*
X28721Y-35207D01*
X28683Y-35254D01*
X28645Y-35278D01*
X29007Y-35135D02*
X29255Y-35135D01*
X29121Y-35326D01*
X29179Y-35326D01*
X29217Y-35350D01*
X29236Y-35373D01*
X29255Y-35421D01*
X29255Y-35540D01*
X29236Y-35588D01*
X29217Y-35612D01*
X29179Y-35635D01*
X29064Y-35635D01*
X29026Y-35612D01*
X29007Y-35588D01*
X29388Y-35135D02*
X29655Y-35135D01*
X29483Y-35635D01*
X41178Y-35776D02*
X41583Y-35776D01*
X41631Y-35754D01*
X41655Y-35733D01*
X41678Y-35690D01*
X41678Y-35604D01*
X41655Y-35562D01*
X41631Y-35540D01*
X41583Y-35519D01*
X41178Y-35519D01*
X41226Y-35326D02*
X41202Y-35305D01*
X41178Y-35262D01*
X41178Y-35155D01*
X41202Y-35112D01*
X41226Y-35091D01*
X41274Y-35069D01*
X41321Y-35069D01*
X41393Y-35091D01*
X41678Y-35348D01*
X41678Y-35069D01*
X38008Y-35202D02*
X37931Y-35202D01*
X37893Y-35226D01*
X37874Y-35250D01*
X37836Y-35321D01*
X37817Y-35417D01*
X37817Y-35607D01*
X37836Y-35655D01*
X37855Y-35679D01*
X37893Y-35702D01*
X37970Y-35702D01*
X38008Y-35679D01*
X38027Y-35655D01*
X38046Y-35607D01*
X38046Y-35488D01*
X38027Y-35440D01*
X38008Y-35417D01*
X37970Y-35393D01*
X37893Y-35393D01*
X37855Y-35417D01*
X37836Y-35440D01*
X37817Y-35488D01*
X38217Y-35702D02*
X38217Y-35202D01*
X38446Y-35702D01*
X38446Y-35202D01*
X38846Y-35702D02*
X38617Y-35702D01*
X38731Y-35702D02*
X38731Y-35202D01*
X38693Y-35274D01*
X38655Y-35321D01*
X38617Y-35345D01*
X38979Y-35202D02*
X39227Y-35202D01*
X39093Y-35393D01*
X39151Y-35393D01*
X39189Y-35417D01*
X39208Y-35440D01*
X39227Y-35488D01*
X39227Y-35607D01*
X39208Y-35655D01*
X39189Y-35679D01*
X39151Y-35702D01*
X39036Y-35702D01*
X38998Y-35679D01*
X38979Y-35655D01*
X39360Y-35202D02*
X39627Y-35202D01*
X39455Y-35702D01*
X36060Y-35776D02*
X36465Y-35776D01*
X36513Y-35754D01*
X36537Y-35733D01*
X36560Y-35690D01*
X36560Y-35604D01*
X36537Y-35562D01*
X36513Y-35540D01*
X36465Y-35519D01*
X36060Y-35519D01*
X36060Y-35348D02*
X36060Y-35069D01*
X36251Y-35219D01*
X36251Y-35155D01*
X36275Y-35112D01*
X36298Y-35091D01*
X36346Y-35069D01*
X36465Y-35069D01*
X36513Y-35091D01*
X36537Y-35112D01*
X36560Y-35155D01*
X36560Y-35283D01*
X36537Y-35326D01*
X36513Y-35348D01*
X33154Y-35135D02*
X33077Y-35135D01*
X33039Y-35159D01*
X33020Y-35183D01*
X32982Y-35254D01*
X32963Y-35350D01*
X32963Y-35540D01*
X32982Y-35588D01*
X33001Y-35612D01*
X33039Y-35635D01*
X33116Y-35635D01*
X33154Y-35612D01*
X33173Y-35588D01*
X33192Y-35540D01*
X33192Y-35421D01*
X33173Y-35373D01*
X33154Y-35350D01*
X33116Y-35326D01*
X33039Y-35326D01*
X33001Y-35350D01*
X32982Y-35373D01*
X32963Y-35421D01*
X33363Y-35635D02*
X33363Y-35135D01*
X33592Y-35635D01*
X33592Y-35135D01*
X33992Y-35635D02*
X33763Y-35635D01*
X33877Y-35635D02*
X33877Y-35135D01*
X33839Y-35207D01*
X33801Y-35254D01*
X33763Y-35278D01*
X34125Y-35135D02*
X34373Y-35135D01*
X34239Y-35326D01*
X34297Y-35326D01*
X34335Y-35350D01*
X34354Y-35373D01*
X34373Y-35421D01*
X34373Y-35540D01*
X34354Y-35588D01*
X34335Y-35612D01*
X34297Y-35635D01*
X34182Y-35635D01*
X34144Y-35612D01*
X34125Y-35588D01*
X34506Y-35135D02*
X34773Y-35135D01*
X34601Y-35635D01*
G54D16*
X55114Y-26163D02*
X54414Y-26163D01*
X54414Y-25991D01*
X54448Y-25949D01*
X54481Y-25927D01*
X54548Y-25906D01*
X54648Y-25906D01*
X54714Y-25927D01*
X54748Y-25949D01*
X54781Y-25991D01*
X54781Y-26163D01*
X54648Y-25520D02*
X55114Y-25520D01*
X54381Y-25627D02*
X54881Y-25734D01*
X54881Y-25456D01*
X53514Y-32371D02*
X53514Y-32071D01*
X54214Y-32264D01*
X53748Y-31706D02*
X54214Y-31706D01*
X53481Y-31813D02*
X53981Y-31920D01*
X53981Y-31642D01*
X54214Y-31470D02*
X53514Y-31470D01*
X53848Y-31470D02*
X53848Y-31213D01*
X54214Y-31213D02*
X53514Y-31213D01*
X54148Y-30742D02*
X54181Y-30763D01*
X54214Y-30827D01*
X54214Y-30870D01*
X54181Y-30935D01*
X54114Y-30977D01*
X54048Y-30999D01*
X53914Y-31020D01*
X53814Y-31020D01*
X53681Y-30999D01*
X53614Y-30977D01*
X53548Y-30935D01*
X53514Y-30870D01*
X53514Y-30827D01*
X53548Y-30763D01*
X53581Y-30742D01*
X53514Y-30613D02*
X53514Y-30356D01*
X54214Y-30485D02*
X53514Y-30485D01*
X53581Y-30227D02*
X53548Y-30206D01*
X53514Y-30163D01*
X53514Y-30056D01*
X53548Y-30013D01*
X53581Y-29992D01*
X53648Y-29970D01*
X53714Y-29970D01*
X53814Y-29992D01*
X54214Y-30249D01*
X54214Y-29970D01*
X53748Y-29584D02*
X54214Y-29584D01*
X53481Y-29691D02*
X53981Y-29798D01*
X53981Y-29520D01*
X53514Y-29262D02*
X53514Y-29219D01*
X53548Y-29176D01*
X53581Y-29155D01*
X53648Y-29134D01*
X53781Y-29112D01*
X53948Y-29112D01*
X54081Y-29134D01*
X54148Y-29155D01*
X54181Y-29176D01*
X54214Y-29219D01*
X54214Y-29262D01*
X54181Y-29305D01*
X54148Y-29326D01*
X54081Y-29348D01*
X53948Y-29369D01*
X53781Y-29369D01*
X53648Y-29348D01*
X53581Y-29326D01*
X53548Y-29305D01*
X53514Y-29262D01*
G54D14*
X57143Y-15700D02*
X57571Y-15700D01*
X57657Y-15728D01*
X57714Y-15785D01*
X57743Y-15871D01*
X57743Y-15928D01*
X57200Y-15443D02*
X57171Y-15414D01*
X57143Y-15357D01*
X57143Y-15214D01*
X57171Y-15157D01*
X57200Y-15128D01*
X57257Y-15100D01*
X57314Y-15100D01*
X57400Y-15128D01*
X57743Y-15471D01*
X57743Y-15100D01*
X55243Y-16242D02*
X54643Y-16242D01*
X54643Y-16099D01*
X54671Y-16014D01*
X54729Y-15956D01*
X54786Y-15928D01*
X54900Y-15899D01*
X54986Y-15899D01*
X55100Y-15928D01*
X55157Y-15956D01*
X55214Y-16014D01*
X55243Y-16099D01*
X55243Y-16242D01*
X54929Y-15442D02*
X54957Y-15356D01*
X54986Y-15328D01*
X55043Y-15299D01*
X55129Y-15299D01*
X55186Y-15328D01*
X55214Y-15356D01*
X55243Y-15414D01*
X55243Y-15642D01*
X54643Y-15642D01*
X54643Y-15442D01*
X54671Y-15385D01*
X54700Y-15356D01*
X54757Y-15328D01*
X54814Y-15328D01*
X54871Y-15356D01*
X54900Y-15385D01*
X54929Y-15442D01*
X54929Y-15642D01*
X55243Y-15014D02*
X55243Y-14899D01*
X55214Y-14842D01*
X55186Y-14814D01*
X55100Y-14756D01*
X54986Y-14728D01*
X54757Y-14728D01*
X54700Y-14756D01*
X54671Y-14785D01*
X54643Y-14842D01*
X54643Y-14956D01*
X54671Y-15014D01*
X54700Y-15042D01*
X54757Y-15071D01*
X54900Y-15071D01*
X54957Y-15042D01*
X54986Y-15014D01*
X55014Y-14956D01*
X55014Y-14842D01*
X54986Y-14785D01*
X54957Y-14756D01*
X54900Y-14728D01*
G54D12*
X45825Y-26111D02*
X46225Y-25844D01*
X45825Y-25844D02*
X46225Y-26111D01*
X46225Y-25482D02*
X46225Y-25711D01*
X46225Y-25597D02*
X45825Y-25597D01*
X45882Y-25635D01*
X45920Y-25673D01*
X45939Y-25711D01*
X48656Y-25996D02*
X48637Y-26015D01*
X48580Y-26034D01*
X48542Y-26034D01*
X48484Y-26015D01*
X48446Y-25977D01*
X48427Y-25939D01*
X48408Y-25862D01*
X48408Y-25805D01*
X48427Y-25729D01*
X48446Y-25691D01*
X48484Y-25653D01*
X48542Y-25634D01*
X48580Y-25634D01*
X48637Y-25653D01*
X48656Y-25672D01*
X48789Y-25634D02*
X49037Y-25634D01*
X48903Y-25786D01*
X48961Y-25786D01*
X48999Y-25805D01*
X49018Y-25824D01*
X49037Y-25862D01*
X49037Y-25958D01*
X49018Y-25996D01*
X48999Y-26015D01*
X48961Y-26034D01*
X48846Y-26034D01*
X48808Y-26015D01*
X48789Y-25996D01*
X48656Y-24027D02*
X48637Y-24046D01*
X48580Y-24065D01*
X48542Y-24065D01*
X48484Y-24046D01*
X48446Y-24008D01*
X48427Y-23970D01*
X48408Y-23893D01*
X48408Y-23836D01*
X48427Y-23760D01*
X48446Y-23722D01*
X48484Y-23684D01*
X48542Y-23665D01*
X48580Y-23665D01*
X48637Y-23684D01*
X48656Y-23703D01*
X48808Y-23703D02*
X48827Y-23684D01*
X48865Y-23665D01*
X48961Y-23665D01*
X48999Y-23684D01*
X49018Y-23703D01*
X49037Y-23741D01*
X49037Y-23779D01*
X49018Y-23836D01*
X48789Y-24065D01*
X49037Y-24065D01*
X50723Y-43515D02*
X50704Y-43534D01*
X50647Y-43553D01*
X50609Y-43553D01*
X50551Y-43534D01*
X50513Y-43496D01*
X50494Y-43458D01*
X50475Y-43381D01*
X50475Y-43324D01*
X50494Y-43248D01*
X50513Y-43210D01*
X50551Y-43172D01*
X50609Y-43153D01*
X50647Y-43153D01*
X50704Y-43172D01*
X50723Y-43191D01*
X51104Y-43553D02*
X50875Y-43553D01*
X50989Y-43553D02*
X50989Y-43153D01*
X50951Y-43210D01*
X50913Y-43248D01*
X50875Y-43267D01*
X48358Y-41575D02*
X48339Y-41594D01*
X48282Y-41613D01*
X48244Y-41613D01*
X48186Y-41594D01*
X48148Y-41556D01*
X48129Y-41518D01*
X48110Y-41441D01*
X48110Y-41384D01*
X48129Y-41308D01*
X48148Y-41270D01*
X48186Y-41232D01*
X48244Y-41213D01*
X48282Y-41213D01*
X48339Y-41232D01*
X48358Y-41251D01*
X48701Y-41346D02*
X48701Y-41613D01*
X48605Y-41194D02*
X48510Y-41480D01*
X48758Y-41480D01*
G54D14*
X28196Y-17655D02*
X28282Y-17684D01*
X28425Y-17684D01*
X28482Y-17655D01*
X28511Y-17627D01*
X28539Y-17570D01*
X28539Y-17512D01*
X28511Y-17455D01*
X28482Y-17427D01*
X28425Y-17398D01*
X28311Y-17370D01*
X28253Y-17341D01*
X28225Y-17312D01*
X28196Y-17255D01*
X28196Y-17198D01*
X28225Y-17141D01*
X28253Y-17112D01*
X28311Y-17084D01*
X28453Y-17084D01*
X28539Y-17112D01*
X28739Y-17084D02*
X28882Y-17684D01*
X28996Y-17255D01*
X29110Y-17684D01*
X29253Y-17084D01*
X29453Y-17141D02*
X29482Y-17112D01*
X29539Y-17084D01*
X29682Y-17084D01*
X29739Y-17112D01*
X29768Y-17141D01*
X29796Y-17198D01*
X29796Y-17255D01*
X29768Y-17341D01*
X29425Y-17684D01*
X29796Y-17684D01*
X44073Y-17600D02*
X44159Y-17629D01*
X44302Y-17629D01*
X44359Y-17600D01*
X44388Y-17572D01*
X44416Y-17515D01*
X44416Y-17457D01*
X44388Y-17400D01*
X44359Y-17372D01*
X44302Y-17343D01*
X44188Y-17315D01*
X44130Y-17286D01*
X44102Y-17257D01*
X44073Y-17200D01*
X44073Y-17143D01*
X44102Y-17086D01*
X44130Y-17057D01*
X44188Y-17029D01*
X44330Y-17029D01*
X44416Y-17057D01*
X44616Y-17029D02*
X44759Y-17629D01*
X44873Y-17200D01*
X44987Y-17629D01*
X45130Y-17029D01*
X45673Y-17629D02*
X45330Y-17629D01*
X45502Y-17629D02*
X45502Y-17029D01*
X45445Y-17115D01*
X45387Y-17172D01*
X45330Y-17200D01*
X29743Y-32585D02*
X29143Y-32585D01*
X29686Y-31956D02*
X29714Y-31985D01*
X29743Y-32071D01*
X29743Y-32128D01*
X29714Y-32213D01*
X29657Y-32271D01*
X29600Y-32299D01*
X29486Y-32328D01*
X29400Y-32328D01*
X29286Y-32299D01*
X29229Y-32271D01*
X29171Y-32213D01*
X29143Y-32128D01*
X29143Y-32071D01*
X29171Y-31985D01*
X29200Y-31956D01*
X29743Y-31385D02*
X29743Y-31728D01*
X29743Y-31556D02*
X29143Y-31556D01*
X29229Y-31613D01*
X29286Y-31671D01*
X29314Y-31728D01*
G54D10*
X56477Y-43899D02*
X56692Y-43899D01*
X56735Y-43913D01*
X56763Y-43942D01*
X56777Y-43985D01*
X56777Y-44013D01*
X56777Y-43598D02*
X56777Y-43770D01*
X56777Y-43684D02*
X56477Y-43684D01*
X56520Y-43713D01*
X56549Y-43741D01*
X56563Y-43770D01*
G54D12*
X46555Y-34989D02*
X46555Y-34589D01*
X46708Y-34589D01*
X46746Y-34608D01*
X46765Y-34627D01*
X46784Y-34665D01*
X46784Y-34722D01*
X46765Y-34760D01*
X46746Y-34779D01*
X46708Y-34798D01*
X46555Y-34798D01*
X47127Y-34589D02*
X47050Y-34589D01*
X47012Y-34608D01*
X46993Y-34627D01*
X46955Y-34684D01*
X46936Y-34760D01*
X46936Y-34913D01*
X46955Y-34951D01*
X46974Y-34970D01*
X47012Y-34989D01*
X47089Y-34989D01*
X47127Y-34970D01*
X47146Y-34951D01*
X47165Y-34913D01*
X47165Y-34817D01*
X47146Y-34779D01*
X47127Y-34760D01*
X47089Y-34741D01*
X47012Y-34741D01*
X46974Y-34760D01*
X46955Y-34779D01*
X46936Y-34817D01*
G54D15*
X32717Y-10765D02*
X32417Y-10765D01*
X32417Y-10693D01*
X32432Y-10650D01*
X32460Y-10622D01*
X32489Y-10607D01*
X32546Y-10593D01*
X32589Y-10593D01*
X32646Y-10607D01*
X32675Y-10622D01*
X32703Y-10650D01*
X32717Y-10693D01*
X32717Y-10765D01*
X32517Y-10336D02*
X32717Y-10336D01*
X32403Y-10407D02*
X32617Y-10479D01*
X32617Y-10293D01*
X30617Y-10036D02*
X30617Y-10179D01*
X30317Y-10179D01*
X30460Y-09936D02*
X30460Y-09836D01*
X30617Y-09793D02*
X30617Y-09936D01*
X30317Y-09936D01*
X30317Y-09793D01*
X30617Y-09665D02*
X30317Y-09665D01*
X30317Y-09593D01*
X30332Y-09550D01*
X30360Y-09522D01*
X30389Y-09507D01*
X30446Y-09493D01*
X30489Y-09493D01*
X30546Y-09507D01*
X30575Y-09522D01*
X30603Y-09550D01*
X30617Y-09593D01*
X30617Y-09665D01*
G54D12*
X31900Y-31573D02*
X31638Y-31740D01*
X31900Y-31859D02*
X31350Y-31859D01*
X31350Y-31668D01*
X31376Y-31621D01*
X31402Y-31597D01*
X31454Y-31573D01*
X31533Y-31573D01*
X31585Y-31597D01*
X31612Y-31621D01*
X31638Y-31668D01*
X31638Y-31859D01*
X31402Y-31383D02*
X31376Y-31359D01*
X31350Y-31311D01*
X31350Y-31192D01*
X31376Y-31145D01*
X31402Y-31121D01*
X31454Y-31097D01*
X31507Y-31097D01*
X31585Y-31121D01*
X31900Y-31407D01*
X31900Y-31097D01*
X35050Y-31573D02*
X34788Y-31740D01*
X35050Y-31859D02*
X34500Y-31859D01*
X34500Y-31668D01*
X34526Y-31621D01*
X34552Y-31597D01*
X34604Y-31573D01*
X34683Y-31573D01*
X34735Y-31597D01*
X34762Y-31621D01*
X34788Y-31668D01*
X34788Y-31859D01*
X34500Y-31407D02*
X34500Y-31097D01*
X34709Y-31264D01*
X34709Y-31192D01*
X34735Y-31145D01*
X34762Y-31121D01*
X34814Y-31097D01*
X34945Y-31097D01*
X34997Y-31121D01*
X35023Y-31145D01*
X35050Y-31192D01*
X35050Y-31335D01*
X35023Y-31383D01*
X34997Y-31407D01*
X33475Y-31573D02*
X33213Y-31740D01*
X33475Y-31859D02*
X32925Y-31859D01*
X32925Y-31668D01*
X32951Y-31621D01*
X32977Y-31597D01*
X33029Y-31573D01*
X33108Y-31573D01*
X33160Y-31597D01*
X33187Y-31621D01*
X33213Y-31668D01*
X33213Y-31859D01*
X33108Y-31145D02*
X33475Y-31145D01*
X32898Y-31264D02*
X33291Y-31383D01*
X33291Y-31073D01*
X28357Y-39053D02*
X28095Y-39220D01*
X28357Y-39339D02*
X27807Y-39339D01*
X27807Y-39148D01*
X27833Y-39101D01*
X27859Y-39077D01*
X27911Y-39053D01*
X27990Y-39053D01*
X28042Y-39077D01*
X28069Y-39101D01*
X28095Y-39148D01*
X28095Y-39339D01*
X27807Y-38601D02*
X27807Y-38839D01*
X28069Y-38863D01*
X28042Y-38839D01*
X28016Y-38791D01*
X28016Y-38672D01*
X28042Y-38625D01*
X28069Y-38601D01*
X28121Y-38577D01*
X28252Y-38577D01*
X28304Y-38601D01*
X28330Y-38625D01*
X28357Y-38672D01*
X28357Y-38791D01*
X28330Y-38839D01*
X28304Y-38863D01*
X37806Y-39053D02*
X37544Y-39220D01*
X37806Y-39339D02*
X37256Y-39339D01*
X37256Y-39148D01*
X37282Y-39101D01*
X37308Y-39077D01*
X37360Y-39053D01*
X37439Y-39053D01*
X37491Y-39077D01*
X37518Y-39101D01*
X37544Y-39148D01*
X37544Y-39339D01*
X37256Y-38625D02*
X37256Y-38720D01*
X37282Y-38768D01*
X37308Y-38791D01*
X37387Y-38839D01*
X37491Y-38863D01*
X37701Y-38863D01*
X37753Y-38839D01*
X37779Y-38815D01*
X37806Y-38768D01*
X37806Y-38672D01*
X37779Y-38625D01*
X37753Y-38601D01*
X37701Y-38577D01*
X37570Y-38577D01*
X37518Y-38601D01*
X37491Y-38625D01*
X37465Y-38672D01*
X37465Y-38768D01*
X37491Y-38815D01*
X37518Y-38839D01*
X37570Y-38863D01*
X32688Y-39053D02*
X32426Y-39220D01*
X32688Y-39339D02*
X32138Y-39339D01*
X32138Y-39148D01*
X32164Y-39101D01*
X32190Y-39077D01*
X32242Y-39053D01*
X32321Y-39053D01*
X32373Y-39077D01*
X32400Y-39101D01*
X32426Y-39148D01*
X32426Y-39339D01*
X32138Y-38887D02*
X32138Y-38553D01*
X32688Y-38768D01*
X27569Y-12913D02*
X27307Y-13080D01*
X27569Y-13199D02*
X27019Y-13199D01*
X27019Y-13008D01*
X27045Y-12961D01*
X27071Y-12937D01*
X27123Y-12913D01*
X27202Y-12913D01*
X27254Y-12937D01*
X27281Y-12961D01*
X27307Y-13008D01*
X27307Y-13199D01*
X27569Y-12437D02*
X27569Y-12723D01*
X27569Y-12580D02*
X27019Y-12580D01*
X27097Y-12628D01*
X27150Y-12675D01*
X27176Y-12723D01*
X27569Y-11961D02*
X27569Y-12247D01*
X27569Y-12104D02*
X27019Y-12104D01*
X27097Y-12152D01*
X27150Y-12199D01*
X27176Y-12247D01*
X30719Y-12913D02*
X30457Y-13080D01*
X30719Y-13199D02*
X30169Y-13199D01*
X30169Y-13008D01*
X30195Y-12961D01*
X30221Y-12937D01*
X30273Y-12913D01*
X30352Y-12913D01*
X30404Y-12937D01*
X30431Y-12961D01*
X30457Y-13008D01*
X30457Y-13199D01*
X30719Y-12437D02*
X30719Y-12723D01*
X30719Y-12580D02*
X30169Y-12580D01*
X30247Y-12628D01*
X30300Y-12675D01*
X30326Y-12723D01*
X30221Y-12247D02*
X30195Y-12223D01*
X30169Y-12175D01*
X30169Y-12056D01*
X30195Y-12009D01*
X30221Y-11985D01*
X30273Y-11961D01*
X30326Y-11961D01*
X30404Y-11985D01*
X30719Y-12271D01*
X30719Y-11961D01*
X51454Y-15496D02*
X51454Y-15782D01*
X51454Y-15639D02*
X50904Y-15639D01*
X50982Y-15687D01*
X51035Y-15734D01*
X51061Y-15782D01*
X51454Y-15020D02*
X51454Y-15306D01*
X51454Y-15163D02*
X50904Y-15163D01*
X50982Y-15211D01*
X51035Y-15258D01*
X51061Y-15306D01*
X50904Y-14711D02*
X50904Y-14663D01*
X50930Y-14615D01*
X50956Y-14592D01*
X51008Y-14568D01*
X51113Y-14544D01*
X51244Y-14544D01*
X51349Y-14568D01*
X51401Y-14592D01*
X51427Y-14615D01*
X51454Y-14663D01*
X51454Y-14711D01*
X51427Y-14758D01*
X51401Y-14782D01*
X51349Y-14806D01*
X51244Y-14830D01*
X51113Y-14830D01*
X51008Y-14806D01*
X50956Y-14782D01*
X50930Y-14758D01*
X50904Y-14711D01*
X51454Y-14330D02*
X50904Y-14330D01*
X51244Y-14282D02*
X51454Y-14139D01*
X51087Y-14139D02*
X51296Y-14330D01*
X24420Y-12913D02*
X24158Y-13080D01*
X24420Y-13199D02*
X23870Y-13199D01*
X23870Y-13008D01*
X23896Y-12961D01*
X23922Y-12937D01*
X23974Y-12913D01*
X24053Y-12913D01*
X24105Y-12937D01*
X24132Y-12961D01*
X24158Y-13008D01*
X24158Y-13199D01*
X24420Y-12437D02*
X24420Y-12723D01*
X24420Y-12580D02*
X23870Y-12580D01*
X23948Y-12628D01*
X24001Y-12675D01*
X24027Y-12723D01*
X23870Y-12128D02*
X23870Y-12080D01*
X23896Y-12032D01*
X23922Y-12009D01*
X23974Y-11985D01*
X24079Y-11961D01*
X24210Y-11961D01*
X24315Y-11985D01*
X24367Y-12009D01*
X24393Y-12032D01*
X24420Y-12080D01*
X24420Y-12128D01*
X24393Y-12175D01*
X24367Y-12199D01*
X24315Y-12223D01*
X24210Y-12247D01*
X24079Y-12247D01*
X23974Y-12223D01*
X23922Y-12199D01*
X23896Y-12175D01*
X23870Y-12128D01*
G54D13*
X56008Y-39119D02*
X55779Y-39119D01*
X55893Y-39119D02*
X55893Y-38719D01*
X55855Y-38776D01*
X55817Y-38814D01*
X55779Y-38833D01*
X56179Y-39119D02*
X56179Y-38719D01*
X56332Y-38719D01*
X56370Y-38738D01*
X56389Y-38757D01*
X56408Y-38795D01*
X56408Y-38852D01*
X56389Y-38890D01*
X56370Y-38909D01*
X56332Y-38928D01*
X56179Y-38928D01*
X56579Y-39119D02*
X56579Y-38719D01*
X56769Y-39119D02*
X56769Y-38719D01*
X56998Y-39119D01*
X56998Y-38719D01*
X25201Y-39119D02*
X24972Y-39119D01*
X25086Y-39119D02*
X25086Y-38719D01*
X25048Y-38776D01*
X25010Y-38814D01*
X24972Y-38833D01*
X25372Y-39119D02*
X25372Y-38719D01*
X25525Y-38719D01*
X25563Y-38738D01*
X25582Y-38757D01*
X25601Y-38795D01*
X25601Y-38852D01*
X25582Y-38890D01*
X25563Y-38909D01*
X25525Y-38928D01*
X25372Y-38928D01*
X25772Y-39119D02*
X25772Y-38719D01*
X25962Y-39119D02*
X25962Y-38719D01*
X26191Y-39119D01*
X26191Y-38719D01*
X33468Y-11068D02*
X33239Y-11068D01*
X33353Y-11068D02*
X33353Y-10668D01*
X33315Y-10725D01*
X33277Y-10763D01*
X33239Y-10782D01*
X33639Y-11068D02*
X33639Y-10668D01*
X33792Y-10668D01*
X33830Y-10687D01*
X33849Y-10706D01*
X33868Y-10744D01*
X33868Y-10801D01*
X33849Y-10839D01*
X33830Y-10858D01*
X33792Y-10877D01*
X33639Y-10877D01*
X34039Y-11068D02*
X34039Y-10668D01*
X34229Y-11068D02*
X34229Y-10668D01*
X34458Y-11068D01*
X34458Y-10668D01*
X44590Y-19139D02*
X44361Y-19139D01*
X44475Y-19139D02*
X44475Y-18739D01*
X44437Y-18796D01*
X44399Y-18834D01*
X44361Y-18853D01*
X44761Y-19139D02*
X44761Y-18739D01*
X44914Y-18739D01*
X44952Y-18758D01*
X44971Y-18777D01*
X44990Y-18815D01*
X44990Y-18872D01*
X44971Y-18910D01*
X44952Y-18929D01*
X44914Y-18948D01*
X44761Y-18948D01*
X45161Y-19139D02*
X45161Y-18739D01*
X45351Y-19139D02*
X45351Y-18739D01*
X45580Y-19139D01*
X45580Y-18739D01*
M02*
