M48
METRIC,TZ
T1C0.635
T2C0.813
T3C1.001
T4C1.016
T5C1.143
T6C1.524
T7C3.048
%
G90
G05
T1
X64.709Y-55.303
X64.760Y-40.490
X64.760Y-48.110
X67.300Y-40.490
X67.300Y-48.110
X69.840Y-40.490
X69.840Y-48.110
X71.643Y-65.159
X72.380Y-40.490
X72.380Y-48.110
X72.713Y-79.781
X72.913Y-79.781
X74.920Y-40.490
X74.920Y-48.110
X77.460Y-40.490
X77.460Y-48.110
X80.000Y-40.490
X80.000Y-48.110
X82.540Y-40.490
X82.540Y-48.110
X108.631Y-77.419
X109.250Y-75.331
X113.345Y-79.312
X125.659Y-59.373
X127.605Y-61.432
T2
X79.190Y-110.190
X79.190Y-117.810
X81.730Y-110.190
X81.730Y-117.810
X84.270Y-110.190
X84.270Y-117.810
X86.810Y-110.190
X86.810Y-117.810
X126.695Y-98.999
X130.505Y-98.999
X135.600Y-88.369
X139.690Y-58.570
X139.789Y-88.369
X151.600Y-111.229
T3
X61.976Y-23.368
X61.976Y-25.908
X61.976Y-31.750
X61.976Y-34.290
X68.072Y-23.368
X68.072Y-25.908
X68.072Y-31.750
X68.072Y-34.290
X69.591Y-93.591
X69.591Y-101.211
X72.131Y-93.591
X72.131Y-101.211
X74.000Y-104.432
X74.000Y-106.972
X74.168Y-23.622
X74.168Y-26.162
X74.168Y-31.750
X74.168Y-34.290
X74.671Y-93.591
X74.671Y-101.211
X76.299Y-57.640
X76.299Y-72.880
X77.000Y-120.231
X77.000Y-122.771
X77.211Y-93.591
X77.211Y-101.211
X78.839Y-57.640
X78.839Y-72.880
X80.000Y-23.731
X80.000Y-26.271
X80.000Y-31.730
X80.000Y-34.270
X81.379Y-57.640
X81.379Y-72.880
X81.501Y-120.231
X81.501Y-122.771
X82.591Y-93.591
X82.591Y-101.211
X83.919Y-57.640
X83.919Y-72.880
X85.001Y-104.432
X85.001Y-106.972
X85.131Y-93.591
X85.131Y-101.211
X85.999Y-120.231
X85.999Y-122.771
X86.459Y-57.640
X86.459Y-72.880
X87.671Y-93.591
X87.671Y-101.211
X88.999Y-57.640
X88.999Y-72.880
X90.211Y-93.591
X90.211Y-101.211
X91.539Y-57.640
X91.539Y-72.880
X92.189Y-34.000
X92.189Y-38.001
X94.079Y-57.640
X94.079Y-72.880
X95.590Y-93.591
X95.590Y-101.211
X96.619Y-57.640
X96.619Y-72.880
X97.500Y-81.229
X97.500Y-83.769
X98.001Y-104.432
X98.001Y-106.972
X98.130Y-93.591
X98.130Y-101.211
X99.159Y-57.640
X99.159Y-72.880
X99.809Y-34.000
X99.809Y-38.001
X100.670Y-93.591
X100.670Y-101.211
X101.001Y-81.229
X101.001Y-83.769
X101.699Y-57.640
X101.699Y-72.880
X103.210Y-93.591
X103.210Y-101.211
X104.239Y-57.640
X104.239Y-72.880
X104.501Y-81.229
X104.501Y-83.769
X106.299Y-34.641
X106.779Y-57.640
X106.779Y-72.880
X106.799Y-28.641
X106.799Y-40.640
X109.319Y-57.640
X109.319Y-72.880
X111.859Y-57.640
X111.859Y-72.880
X112.550Y-34.641
X114.300Y-30.140
X114.399Y-57.640
X114.399Y-72.880
X114.554Y-113.157
X114.554Y-115.697
X116.050Y-34.641
X116.126Y-95.209
X116.126Y-97.749
X116.126Y-100.289
X116.126Y-102.829
X116.939Y-57.640
X116.939Y-72.880
X119.479Y-57.640
X119.479Y-72.880
X120.371Y-113.157
X120.371Y-115.697
X121.801Y-28.641
X121.801Y-40.640
X122.019Y-57.640
X122.019Y-72.880
X122.301Y-34.641
X124.559Y-57.640
X124.559Y-72.880
X130.000Y-34.191
X130.000Y-41.811
X132.001Y-62.461
X132.001Y-67.541
X135.600Y-90.909
X135.600Y-93.449
X135.600Y-95.989
X135.600Y-98.529
X135.600Y-101.069
X135.600Y-103.609
X135.600Y-106.149
X135.600Y-108.689
X135.600Y-111.229
X135.999Y-60.231
X135.999Y-62.771
X135.999Y-67.231
X135.999Y-69.771
X139.690Y-61.110
X139.690Y-63.650
X139.690Y-66.190
X139.690Y-68.730
X139.690Y-71.270
X139.690Y-73.810
X139.690Y-76.350
X139.690Y-78.890
X139.690Y-81.430
X139.789Y-90.909
X139.789Y-93.449
X139.789Y-95.989
X139.789Y-98.529
X139.789Y-101.069
X139.789Y-103.609
X139.789Y-106.149
X139.789Y-108.689
X139.789Y-111.229
X147.310Y-58.570
X147.310Y-61.110
X147.310Y-63.650
X147.310Y-66.190
X147.310Y-68.730
X147.310Y-71.270
X147.310Y-73.810
X147.310Y-76.350
X147.310Y-78.890
X147.310Y-81.430
X147.409Y-88.369
X147.409Y-90.909
X147.409Y-93.449
X147.409Y-95.989
X147.409Y-98.529
X147.409Y-101.069
X147.409Y-103.609
X147.409Y-106.149
X147.409Y-108.689
X147.409Y-111.229
X151.600Y-88.369
X151.600Y-90.909
X151.600Y-93.449
X151.600Y-95.989
X151.600Y-98.529
X151.600Y-101.069
X151.600Y-103.609
X151.600Y-106.149
X151.600Y-108.689
T4
X61.001Y-112.730
X61.001Y-115.270
X64.999Y-112.730
X64.999Y-115.270
X68.999Y-112.730
X68.999Y-115.270
X87.500Y-51.501
X91.001Y-81.498
X92.710Y-27.940
X92.730Y-44.000
X93.500Y-81.498
X95.250Y-27.940
X95.270Y-44.000
X108.001Y-81.501
X115.189Y-81.999
X115.390Y-87.201
X117.729Y-81.999
X117.930Y-87.201
X120.269Y-81.999
X120.470Y-87.201
X122.809Y-81.999
X123.010Y-87.201
X129.131Y-109.329
X129.131Y-111.869
X131.671Y-109.329
X131.671Y-111.869
X134.620Y-32.639
X134.620Y-35.433
X134.620Y-38.100
X134.620Y-40.894
X134.620Y-43.688
X137.160Y-34.036
X137.160Y-36.830
X137.160Y-39.497
X137.160Y-42.291
X142.530Y-116.401
X145.070Y-116.401
T5
X114.935Y-120.777
X117.475Y-120.777
X120.015Y-120.777
T6
X94.920Y-118.999
X100.000Y-118.999
X105.080Y-118.999
X129.261Y-118.801
X134.341Y-118.801
T7
X65.024Y-18.400
X65.024Y-121.412
X137.160Y-25.527
X137.160Y-50.927
X144.272Y-121.666
X145.288Y-18.400
T0
M30
