M48
;DRILL file {Pcbnew (2012-apr-16-27)-stable} date Thu 28 Nov 2013 00:51:36 GMT
;FORMAT={-:-/ absolute / metric / decimal}
FMAT,2
METRIC,TZ
T1C0.635
T2C0.813
T3C1.016
T4C3.048
%
G90
G05
M71
T1
X64.760Y40.490
X64.760Y48.110
X67.300Y40.490
X67.300Y48.110
X69.840Y40.490
X69.840Y48.110
X72.380Y40.490
X72.380Y48.110
X74.920Y40.490
X74.920Y48.110
X77.460Y40.490
X77.460Y48.110
X80.000Y40.490
X80.000Y48.110
X82.540Y40.490
X82.540Y48.110
T2
X62.230Y58.420
X62.230Y73.660
X64.000Y23.731
X64.000Y26.271
X64.000Y31.730
X64.000Y34.270
X64.770Y58.420
X64.770Y73.660
X67.310Y58.420
X67.310Y73.660
X69.190Y86.190
X69.190Y93.810
X69.850Y58.420
X69.850Y73.660
X71.730Y86.190
X71.730Y93.810
X71.999Y23.731
X71.999Y26.271
X71.999Y31.730
X71.999Y34.270
X72.390Y58.420
X72.390Y73.660
X74.000Y98.730
X74.000Y101.270
X74.270Y86.190
X74.270Y93.810
X74.930Y58.420
X74.930Y73.660
X76.810Y86.190
X76.810Y93.810
X77.470Y58.420
X77.470Y73.660
X80.000Y23.731
X80.000Y26.271
X80.000Y31.730
X80.000Y34.270
X80.010Y58.420
X80.010Y73.660
X80.190Y106.690
X80.190Y114.310
X82.189Y86.190
X82.189Y93.810
X82.550Y58.420
X82.550Y73.660
X82.730Y106.690
X82.730Y114.310
X83.000Y79.731
X83.000Y82.271
X84.729Y86.190
X84.729Y93.810
X85.001Y98.730
X85.001Y101.270
X85.090Y58.420
X85.090Y73.660
X85.270Y106.690
X85.270Y114.310
X87.000Y79.731
X87.000Y82.271
X87.269Y86.190
X87.269Y93.810
X87.630Y58.420
X87.630Y73.660
X87.810Y106.690
X87.810Y114.310
X89.809Y86.190
X89.809Y93.810
X90.170Y58.420
X90.170Y73.660
X91.001Y79.731
X91.001Y82.271
X92.189Y34.000
X92.189Y38.001
X92.710Y58.420
X92.710Y73.660
X95.189Y86.190
X95.189Y93.810
X95.250Y58.420
X95.250Y73.660
X97.729Y86.190
X97.729Y93.810
X97.790Y58.420
X97.790Y73.660
X98.001Y98.730
X98.001Y101.270
X99.809Y34.000
X99.809Y38.001
X100.269Y86.190
X100.269Y93.810
X100.330Y58.420
X100.330Y73.660
X102.809Y86.190
X102.809Y93.810
X102.870Y58.420
X102.870Y73.660
X105.410Y58.420
X105.410Y73.660
X106.799Y28.641
X106.799Y40.640
X107.950Y58.420
X107.950Y73.660
X110.490Y58.420
X110.490Y73.660
X112.550Y34.641
X116.050Y34.641
X117.000Y62.959
X117.000Y68.039
X121.801Y28.641
X121.801Y40.640
X121.981Y103.000
X122.230Y63.000
X122.230Y68.001
X124.521Y103.000
X124.770Y63.000
X124.770Y68.001
X127.231Y105.771
X127.480Y112.499
X129.771Y103.231
X129.771Y105.771
X130.000Y34.191
X130.000Y41.811
X130.020Y112.499
X134.191Y63.071
X134.191Y65.611
X134.191Y68.151
X134.191Y70.691
X134.191Y73.231
X134.191Y75.771
X134.191Y78.311
X134.191Y80.851
X134.191Y83.391
X134.191Y85.931
X141.811Y63.071
X141.811Y65.611
X141.811Y68.151
X141.811Y70.691
X141.811Y73.231
X141.811Y75.771
X141.811Y78.311
X141.811Y80.851
X141.811Y83.391
X141.811Y85.931
T3
X65.001Y109.731
X65.001Y112.271
X68.999Y109.731
X68.999Y112.271
X73.000Y109.731
X73.000Y112.271
X92.710Y27.940
X92.730Y44.000
X95.250Y27.940
X95.270Y44.000
X97.711Y112.499
X100.251Y112.499
X102.791Y112.499
X115.189Y81.999
X115.189Y91.001
X117.729Y81.999
X117.729Y91.001
X120.269Y81.999
X120.269Y91.001
X122.809Y81.999
X122.809Y91.001
X134.620Y32.639
X134.620Y35.433
X134.620Y38.100
X134.620Y40.894
X134.620Y43.688
X134.729Y109.979
X134.729Y112.519
X137.160Y34.036
X137.160Y36.830
X137.160Y39.497
X137.160Y42.291
X137.269Y109.979
X137.269Y112.519
X142.001Y109.979
X142.001Y112.519
T4
X65.001Y101.999
X85.999Y30.749
X114.249Y51.250
X137.160Y25.527
X137.160Y50.927
X143.251Y101.999
T0
M30
